M48
; DRILL file {KiCad (6.0.0)} date Tue Feb  1 18:11:02 2022
; FORMAT={-:-/ absolute / metric / decimal}
; #@! TF.CreationDate,2022-02-01T18:11:02+03:00
; #@! TF.GenerationSoftware,Kicad,Pcbnew,(6.0.0)
; #@! TF.FileFunction,Plated,1,2,PTH
FMAT,2
METRIC
; #@! TA.AperFunction,Plated,PTH,ViaDrill
T1C0.400
; #@! TA.AperFunction,Plated,PTH,ComponentDrill
T2C0.800
; #@! TA.AperFunction,Plated,PTH,ComponentDrill
T3C0.850
; #@! TA.AperFunction,Plated,PTH,ComponentDrill
T4C0.900
; #@! TA.AperFunction,Plated,PTH,ComponentDrill
T5C0.950
; #@! TA.AperFunction,Plated,PTH,ComponentDrill
T6C1.000
; #@! TA.AperFunction,Plated,PTH,ComponentDrill
T7C1.100
; #@! TA.AperFunction,Plated,PTH,ComponentDrill
T8C1.200
; #@! TA.AperFunction,Plated,PTH,ComponentDrill
T9C1.500
; #@! TA.AperFunction,Plated,PTH,ComponentDrill
T10C1.600
; #@! TA.AperFunction,Plated,PTH,ComponentDrill
T11C1.854
; #@! TA.AperFunction,Plated,PTH,ComponentDrill
T12C1.930
%
G90
G05
T1
X55.15Y-308.75
X55.15Y-316.75
X55.2Y-295.0
X63.25Y-295.0
X63.6Y-316.9
X63.8Y-323.8
X70.5Y-220.1
X71.15Y-185.9
X71.4Y-168.6
X71.4Y-202.55
X71.5Y-48.95
X71.55Y-265.9
X71.65Y-259.6
X72.2Y-239.95
X73.3Y-55.6
X73.75Y-316.75
X73.75Y-323.75
X75.6Y-296.8
X75.95Y-305.1
X76.3Y-42.7
X76.7Y-288.5
X76.9Y-275.25
X77.65Y-202.2
X77.8Y-185.75
X77.8Y-219.9
X77.8Y-239.95
X78.45Y-168.5
X80.7Y-265.9
X81.3Y-55.75
X83.4Y-42.3
X87.2Y-297.0
X87.5Y-305.2
X90.15Y-288.7
X90.5Y-275.25
X93.55Y-42.3
X99.1Y-296.95
X99.2Y-305.15
X101.45Y-90.5
X102.15Y-265.85
X102.8Y-83.3
X102.95Y-42.4
X104.9Y-275.35
X106.4Y-288.75
X108.05Y-136.05
X113.3Y-191.1
X115.5Y-140.45
X115.65Y-136.1
X115.85Y-146.55
X116.6Y-305.1
X117.1Y-297.0
X118.0Y-191.9
X118.1Y-201.2
X120.2Y-177.95
X121.15Y-177.95
X122.25Y-246.85
X122.55Y-275.45
X123.2Y-288.7
X124.45Y-110.6
X124.45Y-265.75
X124.8Y-222.35
X125.0Y-111.45
X125.8Y-112.4
X135.1Y-204.75
X135.2Y-211.25
X135.35Y-232.65
X135.9Y-197.65
X136.35Y-258.35
X136.4Y-265.7
X136.5Y-250.7
X137.15Y-275.35
X137.15Y-288.7
X139.55Y-297.1
X140.35Y-305.1
X144.25Y-233.0
X145.15Y-160.7
X145.45Y-130.85
X145.45Y-133.7
X145.7Y-140.7
X145.85Y-150.3
X146.0Y-156.3
X148.5Y-204.65
X148.6Y-198.2
X148.9Y-210.9
X149.4Y-218.75
X149.85Y-230.2
X149.9Y-237.2
X149.95Y-265.75
X150.1Y-250.7
X150.1Y-258.3
X150.55Y-70.8
X150.8Y-163.7
X152.85Y-296.95
X154.6Y-275.25
X154.6Y-288.6
X156.25Y-156.45
X156.55Y-166.7
X156.65Y-142.75
X156.65Y-150.4
X156.8Y-130.3
X156.8Y-134.8
X156.8Y-160.55
X158.6Y-185.35
X158.6Y-192.6
X159.275Y-105.525
X161.0Y-91.55
X161.45Y-56.35
X161.5Y-42.5
X161.55Y-78.4
X161.6Y-64.55
X163.5Y-218.9
X163.6Y-243.25
X163.65Y-225.1
X163.65Y-230.5
X163.65Y-234.85
X163.8Y-209.15
X163.8Y-213.95
X163.9Y-238.8
X164.6Y-299.1
X164.7Y-305.3
X166.8Y-250.15
X166.8Y-261.75
X166.85Y-274.55
X167.75Y-152.8
X167.85Y-288.5
X168.05Y-156.25
X168.7Y-160.95
X168.85Y-166.7
X169.0Y-186.15
X169.0Y-192.75
X169.9Y-179.6
X171.7Y-299.1
X171.75Y-208.8
X171.8Y-296.9
X171.9Y-219.85
X171.95Y-235.2
X172.1Y-214.4
X172.2Y-225.15
X172.35Y-230.45
X172.55Y-273.3
X173.1Y-91.4
X173.1Y-99.05
X173.15Y-71.3
X173.75Y-49.1
X175.2Y-211.35
X175.35Y-132.05
X175.35Y-198.5
X177.25Y-298.9
X177.6Y-132.05
X177.85Y-196.85
X177.85Y-262.6
X178.0Y-248.5
X178.3Y-180.15
X179.15Y-178.9
X179.2Y-154.9
X179.7Y-163.3
X179.9Y-132.05
X179.9Y-187.45
X179.95Y-173.3
X180.6Y-178.9
X180.6Y-198.75
X182.0Y-298.9
X182.2Y-178.9
X183.45Y-134.95
X183.75Y-145.7
X184.2Y-211.0
X184.2Y-240.3
X184.3Y-218.75
X186.1Y-296.85
X186.25Y-199.7
X186.5Y-153.3
X186.8Y-42.4
X186.85Y-56.2
X186.9Y-64.45
X186.95Y-78.25
X187.0Y-179.5
X187.2Y-192.1
X187.25Y-92.4
X187.35Y-205.5
X187.75Y-106.4
X187.85Y-298.9
X188.15Y-204.15
X188.25Y-112.9
X188.9Y-203.25
X191.1Y-218.3
X191.4Y-216.75
X191.55Y-163.5
X191.6Y-233.2
X191.7Y-169.15
X191.75Y-274.6
X191.8Y-250.45
X191.8Y-262.3
X192.1Y-288.7
X192.7Y-145.8
X192.95Y-134.5
X193.2Y-214.55
X193.55Y-224.25
X193.7Y-200.05
X194.0Y-298.95
X194.2Y-214.25
X195.05Y-296.9
X196.2Y-215.4
X197.925Y-124.825
X198.2Y-199.75
X198.25Y-216.75
X198.55Y-294.299
X198.9Y-140.85
X199.2Y-123.55
X199.8Y-294.299
X199.85Y-64.9
X199.85Y-71.65
X200.921Y-294.44
X201.025Y-122.625
X201.15Y-212.6
X201.45Y-199.9
X201.55Y-196.7
X201.65Y-193.0
X201.916Y-294.341
X202.3Y-213.25
X202.65Y-134.4
X203.0Y-274.7
X203.15Y-172.75
X203.2Y-153.65
X203.2Y-203.95
X203.35Y-288.6
X203.65Y-205.7
X204.1Y-206.8
X204.8Y-212.2
X204.9Y-215.0
X204.95Y-201.65
X204.95Y-217.8
X205.1Y-207.75
X205.55Y-42.75
X205.75Y-209.0
X206.0Y-168.15
X206.05Y-295.3
X206.15Y-153.35
X206.15Y-224.4
X206.65Y-138.95
X206.95Y-299.05
X207.05Y-204.1
X207.5Y-233.0
X207.6Y-197.1
X207.8Y-240.4
X207.8Y-250.25
X207.85Y-220.7
X207.85Y-262.5
X207.95Y-71.8
X208.15Y-58.05
X208.15Y-64.9
X208.55Y-167.35
X208.55Y-195.95
X208.65Y-299.1
X209.2Y-200.4
X209.35Y-197.3
X209.5Y-218.55
X209.9Y-210.5
X210.0Y-212.25
X210.1Y-164.75
X210.15Y-150.4
X210.25Y-195.45
X210.25Y-200.1
X210.8Y-134.2
X211.3Y-299.0
X211.55Y-295.402
X211.8Y-203.5
X212.45Y-294.45
X212.9Y-170.95
X212.95Y-64.6
X213.0Y-58.05
X213.15Y-299.0
X213.35Y-205.45
X213.85Y-174.65
X214.6Y-288.6
X215.0Y-145.45
X215.0Y-151.95
X215.9Y-175.15
X216.45Y-212.25
X217.35Y-134.0
X217.45Y-211.4
X218.05Y-296.6
X218.85Y-177.05
X219.8Y-294.9
X219.95Y-298.25
X220.65Y-288.5
X221.35Y-190.85
X221.55Y-240.4
X221.55Y-250.25
X222.3Y-137.6
X222.35Y-211.0
X222.95Y-295.4
X223.05Y-262.4
X223.1Y-298.301
X223.75Y-274.9
X224.0Y-144.7
X224.2Y-152.25
X224.8Y-171.2
X225.15Y-176.6
X225.8Y-216.65
X226.062Y-297.057
X226.25Y-288.45
X227.25Y-42.65
X227.45Y-50.35
X228.379Y-295.851
X228.45Y-294.397
X228.455Y-298.153
X229.4Y-164.45
X229.9Y-189.85
X231.3Y-82.1
X231.5Y-210.5
X231.5Y-223.0
X231.6Y-87.1
X231.6Y-296.35
X231.708Y-298.0
X232.85Y-137.5
X233.25Y-268.55
X233.55Y-158.2
X234.25Y-168.2
X234.6Y-269.1
X235.15Y-217.5
X235.488Y-296.173
X236.65Y-196.05
X237.0Y-278.2
X237.259Y-296.193
X237.7Y-229.3
X237.9Y-299.1
X238.15Y-156.15
X239.41Y-294.459
X239.45Y-194.05
X239.65Y-185.65
X240.2Y-211.0
X240.3Y-164.85
X240.3Y-223.0
X240.476Y-295.524
X240.7Y-216.65
X241.85Y-157.4
X241.85Y-175.6
X241.9Y-140.95
X241.95Y-158.7
X242.65Y-298.5
X243.35Y-42.55
X243.35Y-50.15
X243.55Y-58.1
X243.55Y-296.65
X243.8Y-64.85
X244.0Y-138.15
X244.25Y-155.4
X244.6Y-196.25
X245.05Y-204.0
X246.15Y-326.6
X246.4Y-82.2
X246.4Y-87.2
X246.5Y-92.45
X246.75Y-150.5
X247.0Y-157.7
X247.007Y-155.942
X247.05Y-134.8
X247.8Y-152.25
X247.974Y-135.729
X248.8Y-197.35
X249.15Y-307.75
X249.15Y-314.0
X249.2Y-147.1
X249.25Y-295.799
X249.45Y-202.25
X249.6Y-135.0
X250.25Y-103.4
X250.65Y-135.5
X250.65Y-205.75
X251.4Y-183.9
X251.5Y-103.4
X251.7Y-145.1
X251.7Y-193.5
X252.5Y-144.15
X252.525Y-103.875
X252.9Y-50.25
X253.0Y-42.55
X253.0Y-58.1
X253.2Y-104.55
X253.35Y-64.7
X253.35Y-81.55
X253.35Y-92.85
X253.35Y-99.85
X253.5Y-176.6
X254.5Y-119.25
X254.5Y-120.95
X254.5Y-122.1
X254.5Y-123.2
X254.85Y-135.95
X255.1Y-315.4
X255.9Y-261.75
X255.9Y-268.55
X255.95Y-278.55
X256.1Y-212.85
X256.1Y-244.3
X256.1Y-252.55
X256.1Y-274.5
X256.25Y-220.5
X256.3Y-227.25
X256.3Y-233.65
X256.95Y-318.05
X257.25Y-121.45
X257.35Y-112.1
X257.35Y-321.0
X257.35Y-326.6
X259.3Y-303.45
X260.75Y-181.2
X261.05Y-189.8
X261.5Y-86.9
X261.95Y-97.45
X262.45Y-261.9
X262.45Y-268.7
X262.5Y-278.7
X262.65Y-244.45
X262.65Y-252.7
X262.65Y-274.65
X262.75Y-304.05
X262.85Y-227.4
X262.85Y-233.8
X262.95Y-219.7
X263.55Y-111.9
X263.9Y-121.15
X264.7Y-315.85
X264.95Y-58.1
X265.1Y-64.85
X269.4Y-311.05
X269.65Y-299.55
X269.65Y-326.3
X276.65Y-295.55
X276.75Y-310.95
X276.75Y-318.4
T2
X165.025Y-170.6
X165.025Y-178.22
X167.565Y-170.6
X167.565Y-178.22
X219.38Y-83.0
X219.38Y-90.62
X221.92Y-83.0
X221.92Y-90.62
X224.46Y-83.0
X224.46Y-90.62
X227.0Y-83.0
X227.0Y-90.62
T3
X172.7Y-283.8
X177.7Y-283.8
T4
X86.75Y-72.2
X88.05Y-64.7
X93.25Y-48.55
X94.55Y-120.2
X99.85Y-146.45
X100.0Y-192.8
X100.11Y-170.75
X100.25Y-256.2
X100.45Y-213.89
X100.5Y-234.2
X100.75Y-49.85
X102.05Y-121.5
X107.35Y-147.75
X107.5Y-194.1
X107.61Y-172.05
X107.75Y-257.5
X107.95Y-215.19
X108.0Y-235.5
X114.4Y-96.1
X121.9Y-97.4
X122.4Y-88.0
X123.7Y-80.5
X135.35Y-81.1
X142.85Y-82.4
X217.35Y-59.4
X218.45Y-127.15
X220.35Y-54.25
X221.45Y-122.0
X231.4Y-128.05
X232.7Y-120.55
X234.8Y-60.25
X236.1Y-52.75
T5
X261.368Y-137.3
X261.368Y-139.8
X261.368Y-142.3
X261.467Y-154.65
X261.467Y-157.15
X261.467Y-159.65
T6
X108.54Y-126.635
X108.54Y-129.175
X108.54Y-131.715
X116.16Y-126.635
X116.16Y-129.175
X116.16Y-131.715
X135.69Y-221.835
X135.69Y-224.375
X135.69Y-226.915
X137.13Y-241.235
X137.13Y-243.775
X137.13Y-246.315
X141.1Y-144.47
X141.1Y-150.47
X142.64Y-114.535
X142.64Y-117.075
X142.64Y-119.615
X143.04Y-102.985
X143.04Y-105.525
X143.04Y-108.065
X143.31Y-221.835
X143.31Y-224.375
X143.31Y-226.915
X143.34Y-90.735
X143.34Y-93.275
X143.34Y-95.815
X144.75Y-241.235
X144.75Y-243.775
X144.75Y-246.315
X150.26Y-114.535
X150.26Y-117.075
X150.26Y-119.615
X150.66Y-102.985
X150.66Y-105.525
X150.66Y-108.065
X150.96Y-90.735
X150.96Y-93.275
X150.96Y-95.815
X174.7Y-138.47
X174.7Y-156.47
X234.05Y-283.41
X234.05Y-285.95
X236.59Y-283.41
X236.59Y-285.95
X239.13Y-283.41
X239.13Y-285.95
X241.67Y-283.41
X241.67Y-285.95
X244.21Y-283.41
X244.21Y-285.95
X246.7Y-308.86
X246.7Y-311.4
X246.7Y-313.94
X246.7Y-316.48
X246.7Y-319.02
X246.7Y-321.56
X246.7Y-324.1
X246.75Y-283.41
X246.75Y-285.95
X248.4Y-297.8
X248.4Y-300.34
X249.29Y-283.41
X249.29Y-285.95
X250.94Y-297.8
X250.94Y-300.34
X253.48Y-297.8
X253.48Y-300.34
X256.02Y-297.8
X256.02Y-300.34
X258.56Y-297.8
X258.56Y-300.34
X261.1Y-297.8
X261.1Y-300.34
X261.368Y-174.5
X261.368Y-177.0
X263.64Y-297.8
X263.64Y-300.34
X264.025Y-212.125
X264.025Y-214.665
X264.025Y-217.205
X265.95Y-192.92
X265.95Y-195.46
X265.95Y-198.0
X265.95Y-200.54
X266.565Y-212.125
X266.565Y-214.665
X266.565Y-217.205
T7
X94.9Y-93.42
X94.9Y-95.96
X94.9Y-98.5
X94.9Y-107.56
X94.9Y-110.1
X94.9Y-112.64
X96.05Y-77.51
X96.05Y-80.05
X96.05Y-82.59
X98.495Y-132.76
X98.495Y-135.3
X98.495Y-137.84
X98.95Y-244.67
X98.95Y-247.21
X98.95Y-249.75
X99.3Y-222.56
X99.3Y-225.1
X99.3Y-227.64
T8
X114.812Y-180.0
X114.812Y-187.6
X115.112Y-201.39
X115.112Y-208.99
X115.172Y-156.8
X115.172Y-164.4
X151.012Y-181.65
X151.012Y-189.25
T9
X96.912Y-180.0
X97.212Y-201.39
X97.272Y-156.8
X99.512Y-187.6
X99.812Y-208.99
X99.873Y-164.4
X104.612Y-180.0
X104.912Y-201.39
X104.972Y-156.8
X133.112Y-181.65
X135.713Y-189.25
X140.812Y-181.65
X219.125Y-69.775
X219.125Y-77.275
X219.5Y-103.3
X219.5Y-110.8
X234.385Y-69.825
X234.385Y-77.275
X234.76Y-103.35
X234.76Y-110.8
X239.425Y-69.775
X239.425Y-77.275
X239.8Y-103.3
X239.8Y-110.8
X244.465Y-69.875
X244.465Y-77.275
X244.84Y-103.4
X244.84Y-110.8
T10
X74.5Y-227.3
X74.5Y-232.38
X74.65Y-173.5
X74.65Y-178.58
X74.7Y-192.2
X74.7Y-197.28
X74.7Y-247.85
X74.7Y-252.93
X74.9Y-209.1
X74.9Y-214.18
T11
X83.516Y-83.951
X83.516Y-93.476
X83.516Y-103.001
X83.541Y-112.526
X83.75Y-138.725
X83.75Y-148.25
X263.267Y-73.801
X263.267Y-83.326
X263.267Y-92.851
X263.291Y-102.376
T12
X113.54Y-49.9
X123.07Y-49.9
X132.6Y-49.9
X142.13Y-49.9
X151.66Y-49.9
T0
M30
