M48
; DRILL file {KiCad (6.0.2)} date Wed Mar  2 09:05:14 2022
; FORMAT={-:-/ absolute / inch / decimal}
; #@! TF.CreationDate,2022-03-02T09:05:14+03:00
; #@! TF.GenerationSoftware,Kicad,Pcbnew,(6.0.2)
; #@! TF.FileFunction,Plated,1,4,PTH
FMAT,2
INCH
; #@! TA.AperFunction,Plated,PTH,ViaDrill
T1C0.0118
; #@! TA.AperFunction,Plated,PTH,ViaDrill
T2C0.0157
; #@! TA.AperFunction,Plated,PTH,ComponentDrill
T3C0.0315
; #@! TA.AperFunction,Plated,PTH,ComponentDrill
T4C0.0335
; #@! TA.AperFunction,Plated,PTH,ComponentDrill
T5C0.0374
; #@! TA.AperFunction,Plated,PTH,ComponentDrill
T6C0.0394
; #@! TA.AperFunction,Plated,PTH,ComponentDrill
T7C0.0433
; #@! TA.AperFunction,Plated,PTH,ComponentDrill
T8C0.0512
; #@! TA.AperFunction,Plated,PTH,ComponentDrill
T9C0.0551
; #@! TA.AperFunction,Plated,PTH,ComponentDrill
T10C0.0591
; #@! TA.AperFunction,Plated,PTH,ComponentDrill
T11C0.0630
%
G90
G05
T1
X3.3268Y-9.5709
X3.5256Y-8.8642
X3.6299Y-9.2205
X3.7008Y-9.5768
X3.7067Y-8.8642
X3.7234Y-9.1545
X3.7953Y-9.1043
X4.0118Y-9.5768
X4.5276Y-8.8622
X4.8071Y-8.8642
X5.4724Y-3.2106
X5.4724Y-3.25
X5.4764Y-3.2992
X5.5453Y-3.2953
X5.5472Y-3.2146
X5.5512Y-3.2559
X5.9646Y-4.6024
X5.9646Y-4.7028
X6.0118Y-4.6043
X6.0157Y-4.7047
X6.061Y-4.6043
X6.0768Y-4.7047
X6.1201Y-4.6024
X6.1299Y-4.7047
X6.1358Y-5.9547
X6.1555Y-5.4882
X6.1732Y-4.6043
X6.1949Y-4.7067
X6.2972Y-8.8642
X6.6752Y-8.8681
X6.8091Y-4.2185
X7.1319Y-5.0984
X7.1339Y-4.9291
X7.1358Y-4.7165
X7.1791Y-5.4882
X7.185Y-5.9606
X7.2854Y-5.1673
X7.3091Y-4.9685
X7.3346Y-5.1654
X7.3406Y-4.7776
X7.3878Y-5.1614
X7.4429Y-5.1634
X7.5217Y-5.3425
X7.5276Y-8.8484
X7.5394Y-8.8169
X7.5433Y-8.874
X7.5768Y-8.7205
X7.5866Y-8.9587
X7.628Y-8.876
X7.7204Y-8.746
X7.7264Y-5.9626
X7.7283Y-5.0315
X7.7283Y-5.0807
X7.7323Y-5.2126
X7.7559Y-5.3406
X7.7598Y-8.7697
X7.805Y-8.7738
X8.2185Y-5.9508
X8.3406Y-5.185
X8.3445Y-4.9016
X8.3593Y-4.9951
X8.3642Y-5.065
X8.3858Y-5.1909
X8.439Y-5.0059
X8.4606Y-4.8051
X8.5157Y-4.7343
X8.5335Y-4.8307
X8.5394Y-4.7835
X8.5571Y-4.878
X8.655Y-5.0517
X8.6836Y-4.7672
X8.7191Y-4.7858
X8.747Y-4.877
X8.7539Y-5.9626
X8.7603Y-4.783
X8.7618Y-5.1437
X8.7629Y-5.0531
X8.7736Y-4.9724
X8.7795Y-4.4744
X8.7972Y-5.0315
X8.7988Y-4.9385
X8.8071Y-4.8898
X8.8346Y-8.7776
X8.876Y-8.7776
X8.878Y-5.2854
X8.9665Y-4.9823
X9.0256Y-8.7933
X9.0561Y-8.7805
X9.185Y-5.9665
X9.2244Y-5.2854
X9.2638Y-8.8858
X9.287Y-8.8602
X9.3187Y-8.8386
X9.3425Y-8.8209
X9.3642Y-8.8031
X9.3858Y-8.7854
X9.4134Y-8.8524
X9.502Y-5.2854
X9.6929Y-4.9843
X9.6929Y-5.2854
X9.8268Y-8.7028
X9.8524Y-5.9685
X10.1535Y-8.6988
X10.5512Y-8.6949
X10.5551Y-8.752
X10.6781Y-8.9045
X10.6841Y-8.7864
X10.8464Y-9.0945
X10.8612Y-8.9577
X10.9902Y-9.6142
X11.0079Y-9.3209
X11.1358Y-9.8563
X11.3563Y-9.8563
X11.4429Y-9.4803
X11.4488Y-9.2756
X11.5394Y-9.3563
X11.5581Y-9.247
X11.563Y-9.315
X11.5846Y-9.8583
X11.7697Y-9.8583
X11.8051Y-8.7087
X11.8051Y-8.8327
X11.8071Y-8.9528
X11.8071Y-9.0551
T2
X5.6043Y-3.6299
X5.6043Y-3.6693
X5.6043Y-3.7087
X5.6043Y-3.75
X5.6043Y-3.7894
X5.6043Y-3.8327
X5.6043Y-3.8701
X5.9409Y-2.5728
X5.9429Y-2.6378
X5.9764Y-4.124
X6.0197Y-2.5728
X6.0276Y-2.6339
X6.1024Y-2.6358
X6.1043Y-2.5728
X6.1555Y-3.8642
X6.1673Y-2.5807
X6.1673Y-2.6339
X6.2008Y-3.8681
X6.2402Y-2.8937
X6.3366Y-3.0079
X6.3543Y-3.6673
X6.4331Y-5.5335
X6.6535Y-5.5551
X6.998Y-4.4252
X7.25Y-3.6752
X7.2972Y-4.626
X7.3484Y-4.3898
X7.3642Y-2.4488
X7.3642Y-2.5138
X7.3642Y-2.5827
X7.3642Y-2.6654
X7.3701Y-2.7343
X7.372Y-2.8031
X7.376Y-2.8878
X7.3878Y-4.4193
X7.4213Y-5.5374
X7.4724Y-2.8878
X7.4764Y-2.8031
X7.4823Y-2.4469
X7.4862Y-2.5039
X7.4862Y-2.5827
X7.5236Y-4.7323
X7.5256Y-4.7638
X7.5748Y-2.5827
X7.5768Y-2.7146
X7.5768Y-2.8839
X7.5787Y-2.4508
X7.5787Y-2.5079
X7.5787Y-2.8051
X7.5807Y-2.6457
X7.6043Y-5.4823
X7.6122Y-4.5433
X7.616Y-4.2599
X7.6457Y-4.5098
X7.7234Y-4.4075
X7.7277Y-4.3382
X7.7303Y-4.2983
X7.8287Y-3.7323
X7.8406Y-4.2087
X7.878Y-3.7323
X7.8858Y-5.5984
X7.9193Y-4.8386
X7.9311Y-3.7323
X8.116Y-4.872
X8.1417Y-4.8386
X8.2028Y-5.2032
X8.2657Y-5.8012
X8.3583Y-3.3858
X8.5315Y-5.2067
X8.5698Y-4.4764
X8.6417Y-4.1791
X8.6831Y-4.0886
X8.7402Y-5.4724
X8.8107Y-5.0825
X8.8366Y-5.5236
X8.9016Y-4.5177
X8.9339Y-4.9186
X8.9606Y-4.8898
X8.9622Y-5.1402
X8.9862Y-5.0709
X8.9921Y-4.3327
X9.0138Y-5.4291
X9.0295Y-5.2402
X9.0531Y-4.7598
X9.061Y-5.0
X9.2874Y-4.8602
X9.5197Y-4.0079
X9.5265Y-4.872
X9.6457Y-4.1102
X9.7953Y-4.6476
X9.815Y-3.6988
X9.815Y-5.2264
X9.8189Y-3.5906
X9.8268Y-5.0886
X9.8346Y-4.0886
X10.1811Y-5.9311
X10.3819Y-5.8898
X10.4429Y-3.3169
T3
X5.3907Y-2.8366
X5.497Y-2.5413
X5.689Y-3.5925
X5.6909Y-4.9744
X5.7421Y-4.2815
X5.7953Y-3.2972
X5.7972Y-4.6791
X5.8484Y-3.9862
X6.4177Y-4.0433
X6.4177Y-4.3433
X6.5177Y-4.0433
X6.5177Y-4.3433
X7.0512Y-3.5173
X7.1575Y-3.222
X8.0866Y-3.5398
X8.1929Y-3.2445
X9.189Y-3.5512
X9.2953Y-3.2559
X9.5689Y-3.565
X9.6752Y-3.2697
X10.8138Y-5.0315
X10.8276Y-4.0531
X10.8287Y-4.6004
X11.1091Y-5.1378
X11.1228Y-4.1594
X11.124Y-4.7067
X11.3701Y-3.3996
X11.4764Y-3.1043
T4
X7.3051Y-4.1122
X7.502Y-4.1122
T5
X8.4055Y-5.7244
X8.5039Y-5.7244
X8.6024Y-5.7244
X9.3504Y-5.729
X9.4488Y-5.729
X9.5472Y-5.729
T6
X5.9897Y-4.8327
X5.9897Y-5.0295
X6.2933Y-3.1984
X6.2933Y-3.2984
X6.2933Y-3.3984
X6.5933Y-3.1984
X6.5933Y-3.2984
X6.5933Y-3.3984
X7.1471Y-4.628
X7.1471Y-5.2343
X7.3677Y-3.2884
X7.3677Y-3.3884
X7.3677Y-3.4884
X7.4272Y-5.729
X7.5256Y-5.729
X7.6677Y-3.2884
X7.6677Y-3.3884
X7.6677Y-3.4884
X7.9087Y-4.1599
X7.9087Y-4.2599
X7.9193Y-5.731
X8.0087Y-4.1599
X8.0087Y-4.2599
X8.0177Y-5.731
X8.1087Y-4.1599
X8.1087Y-4.2599
X8.2087Y-4.1599
X8.2087Y-4.2599
X8.3087Y-4.1599
X8.3087Y-4.2599
X8.4087Y-4.1599
X8.4087Y-4.2599
X8.4311Y-3.2902
X8.4311Y-3.3902
X8.4311Y-3.4902
X8.5087Y-4.1599
X8.5087Y-4.2599
X8.7311Y-3.2902
X8.7311Y-3.3902
X8.7311Y-3.4902
X8.9094Y-5.729
X9.0079Y-5.729
X9.0533Y-3.978
X9.0533Y-4.078
X9.0533Y-4.178
X9.0533Y-4.278
X9.3262Y-4.0628
X9.3262Y-4.1628
X9.3262Y-4.2628
X9.4262Y-4.0628
X9.4262Y-4.1628
X9.4262Y-4.2628
X10.5783Y-3.177
X10.5783Y-3.277
X10.5783Y-3.377
X10.8783Y-3.177
X10.8783Y-3.277
X10.8783Y-3.377
X10.8898Y-9.2524
X10.8898Y-9.3524
X10.8898Y-9.4524
X10.8898Y-9.5524
X10.8898Y-9.6524
X10.8898Y-9.7524
X10.8898Y-9.8524
X10.9567Y-8.8169
X10.9567Y-8.9169
X11.0567Y-8.8169
X11.0567Y-8.9169
X11.1567Y-8.8169
X11.1567Y-8.9169
X11.2567Y-8.8169
X11.2567Y-8.9169
X11.3567Y-8.8169
X11.3567Y-8.9169
X11.4567Y-8.8169
X11.4567Y-8.9169
X11.5567Y-8.8169
X11.5567Y-8.9169
T7
X6.7935Y-3.2205
X6.7935Y-3.3205
X6.7935Y-3.4205
X7.8425Y-3.2406
X7.8425Y-3.3406
X7.8425Y-3.4406
X8.9435Y-3.2522
X8.9435Y-3.3522
X8.9435Y-3.4522
X11.0689Y-3.1323
X11.0689Y-3.2323
X11.0689Y-3.3323
T8
X6.3543Y-5.7736
X6.5543Y-5.7736
X6.7543Y-5.7736
T9
X5.252Y-3.3937
X5.252Y-3.7283
X5.252Y-4.063
X5.252Y-4.3976
X7.4941Y-2.6949
X7.8287Y-2.6949
X8.1634Y-2.6949
X8.498Y-2.6949
X10.9705Y-2.685
X11.3051Y-2.685
T10
X5.7126Y-2.4429
X5.7126Y-2.8445
X5.9094Y-2.9429
X6.1063Y-2.4429
X6.1063Y-2.8445
X9.9409Y-2.9006
X9.9409Y-3.3022
X10.0128Y-4.7441
X10.0138Y-4.0906
X10.0246Y-5.4213
X10.1112Y-4.5472
X10.1112Y-4.9409
X10.1122Y-3.8937
X10.1122Y-4.2874
X10.123Y-5.2244
X10.123Y-5.6181
X10.1378Y-3.4006
X10.3346Y-2.9006
X10.3346Y-3.3022
X10.5128Y-4.5472
X10.5128Y-4.9409
X10.5138Y-3.8937
X10.5138Y-4.2874
X10.5246Y-5.2244
X10.5246Y-5.6181
X10.7815Y-5.6575
X10.8799Y-5.4606
X10.8799Y-5.8543
X11.2815Y-5.4606
X11.2815Y-5.8543
T11
X6.4654Y-2.4587
X6.6654Y-2.4587
X9.6242Y-2.4626
X9.8242Y-2.4626
X11.8327Y-3.975
X11.8327Y-4.175
X11.8386Y-4.5203
X11.8386Y-4.7203
X11.8386Y-5.0591
X11.8386Y-5.2591
T0
M30
