%TF.GenerationSoftware,KiCad,Pcbnew,(6.0.0)*%
%TF.CreationDate,2022-02-01T19:36:35+03:00*%
%TF.ProjectId,Steel_form_Dish_washer,53746565-6c5f-4666-9f72-6d5f44697368,rev?*%
%TF.SameCoordinates,Original*%
%TF.FileFunction,Profile,NP*%
%FSLAX46Y46*%
G04 Gerber Fmt 4.6, Leading zero omitted, Abs format (unit mm)*
G04 Created by KiCad (PCBNEW (6.0.0)) date 2022-02-01 19:36:35*
%MOMM*%
%LPD*%
G01*
G04 APERTURE LIST*
%TA.AperFunction,Profile*%
%ADD10C,0.100000*%
%TD*%
G04 APERTURE END LIST*
D10*
X69300000Y-280600000D02*
G75*
G03*
X79700000Y-291000000I10399998J-2D01*
G01*
X117400000Y-67600000D02*
G75*
G03*
X118900000Y-67600000I750000J0D01*
G01*
X165250000Y-291000000D02*
G75*
G03*
X165250000Y-293000000I0J-1000000D01*
G01*
X167000000Y-308000000D02*
G75*
G03*
X168000000Y-307000000I1J999999D01*
G01*
X278992893Y-328000000D02*
G75*
G03*
X279992893Y-327000000I1J999999D01*
G01*
X88500000Y-291000000D02*
G75*
G03*
X88500000Y-293000000I0J-1000000D01*
G01*
X50000000Y-327000000D02*
G75*
G03*
X51000000Y-328000000I999999J-1D01*
G01*
X280000000Y-294000000D02*
X279992893Y-327000000D01*
X138450000Y-42450000D02*
X138450000Y-67550000D01*
X146200000Y-42450000D02*
X146200000Y-67550000D01*
X118900000Y-42500000D02*
X118900000Y-67600000D01*
X88500000Y-291000000D02*
X123000000Y-291000000D01*
X280000000Y-294000000D02*
G75*
G03*
X279000000Y-293000000I-999999J1D01*
G01*
X123000000Y-293000000D02*
G75*
G03*
X123000000Y-291000000I0J1000000D01*
G01*
X161250000Y-293000000D02*
X127000000Y-293000000D01*
X123000000Y-293000000D02*
X88500000Y-293000000D01*
X79700000Y-291000000D02*
X84500000Y-291000000D01*
X77957107Y-307957107D02*
X167000000Y-308000000D01*
X258500000Y-291000000D02*
G75*
G03*
X268800000Y-280600000I0J10300481D01*
G01*
X136950000Y-67550000D02*
G75*
G03*
X138450000Y-67550000I750000J0D01*
G01*
X84500000Y-293000000D02*
X51000000Y-293007107D01*
X243007107Y-327892893D02*
X278992893Y-328000000D01*
X213000000Y-291000000D02*
X248250000Y-291000000D01*
X51000000Y-328000000D02*
X76000000Y-328000000D01*
X127150000Y-42550000D02*
X127150000Y-67650000D01*
X69300000Y-280600000D02*
X69300000Y-51400000D01*
X252250000Y-291000000D02*
X258500000Y-291000000D01*
X147700000Y-42450000D02*
G75*
G03*
X146200000Y-42450000I-750000J0D01*
G01*
X209000000Y-293000000D02*
G75*
G03*
X209000000Y-291000000I0J1000000D01*
G01*
X268800000Y-50600000D02*
X268800000Y-280600000D01*
X258400000Y-41000000D02*
X79700000Y-41000000D01*
X118900000Y-42500000D02*
G75*
G03*
X117400000Y-42500000I-750000J0D01*
G01*
X76000000Y-328000000D02*
G75*
G03*
X77000000Y-327000000I1J999999D01*
G01*
X79700000Y-41000000D02*
G75*
G03*
X69300000Y-51400000I-2J-10399998D01*
G01*
X127000000Y-291000000D02*
X161250000Y-291000000D01*
X136950000Y-42450000D02*
X136950000Y-67550000D01*
X209000000Y-293000000D02*
X165250000Y-293000000D01*
X241992893Y-300957107D02*
G75*
G03*
X240992893Y-299957107I-999999J1D01*
G01*
X165250000Y-291000000D02*
X209000000Y-291000000D01*
X147700000Y-42450000D02*
X147700000Y-67550000D01*
X117400000Y-42500000D02*
X117400000Y-67600000D01*
X169000000Y-299957107D02*
G75*
G03*
X168000000Y-300957107I-1J-999999D01*
G01*
X128650000Y-42550000D02*
G75*
G03*
X127150000Y-42550000I-750000J0D01*
G01*
X77957107Y-307957107D02*
G75*
G03*
X76957107Y-308957107I-1J-999999D01*
G01*
X252250000Y-291000000D02*
G75*
G03*
X252250000Y-293000000I0J-1000000D01*
G01*
X279000000Y-293000000D02*
X252250000Y-293000000D01*
X268800000Y-50600000D02*
G75*
G03*
X258400000Y-41000000I-9630770J-1D01*
G01*
X127150000Y-67650000D02*
G75*
G03*
X128650000Y-67650000I750000J0D01*
G01*
X213000000Y-291000000D02*
G75*
G03*
X213000000Y-293000000I0J-1000000D01*
G01*
X168000000Y-307000000D02*
X168000000Y-300957107D01*
X241992893Y-300957107D02*
X242007107Y-326892893D01*
X242007107Y-326892893D02*
G75*
G03*
X243007107Y-327892893I999999J-1D01*
G01*
X146200000Y-67550000D02*
G75*
G03*
X147700000Y-67550000I750000J0D01*
G01*
X248250000Y-293000000D02*
X213000000Y-293000000D01*
X77000000Y-327000000D02*
X76957107Y-308957107D01*
X127000000Y-291000000D02*
G75*
G03*
X127000000Y-293000000I0J-1000000D01*
G01*
X161250000Y-293000000D02*
G75*
G03*
X161250000Y-291000000I0J1000000D01*
G01*
X128650000Y-42550000D02*
X128650000Y-67650000D01*
X169000000Y-299957107D02*
X240992893Y-299957107D01*
X51000000Y-293007107D02*
G75*
G03*
X50000000Y-294007107I-1J-999999D01*
G01*
X138450000Y-42450000D02*
G75*
G03*
X136950000Y-42450000I-750000J0D01*
G01*
X84500000Y-293000000D02*
G75*
G03*
X84500000Y-291000000I0J1000000D01*
G01*
X50000000Y-294007107D02*
X50000000Y-327000000D01*
X248250000Y-293000000D02*
G75*
G03*
X248250000Y-291000000I0J1000000D01*
G01*
X181666666Y-168000000D02*
G75*
G03*
X181666666Y-168000000I-1666666J0D01*
G01*
X177500000Y-168000000D02*
X182500000Y-168000000D01*
X180000000Y-165500000D02*
X180000000Y-170500000D01*
X166166666Y-310500000D02*
G75*
G03*
X166166666Y-310500000I-1666666J0D01*
G01*
X162000000Y-310500000D02*
X167000000Y-310500000D01*
X164500000Y-308000000D02*
X164500000Y-313000000D01*
M02*
