%TF.GenerationSoftware,KiCad,Pcbnew,(6.0.0)*%
%TF.CreationDate,2022-02-05T09:16:33+03:00*%
%TF.ProjectId,Steel_form_Dish_washer,53746565-6c5f-4666-9f72-6d5f44697368,rev?*%
%TF.SameCoordinates,Original*%
%TF.FileFunction,Legend,Bot*%
%TF.FilePolarity,Positive*%
%FSLAX46Y46*%
G04 Gerber Fmt 4.6, Leading zero omitted, Abs format (unit mm)*
G04 Created by KiCad (PCBNEW (6.0.0)) date 2022-02-05 09:16:33*
%MOMM*%
%LPD*%
G01*
G04 APERTURE LIST*
%ADD10C,0.250000*%
%ADD11C,0.150000*%
%ADD12C,0.125000*%
%ADD13C,0.100000*%
%ADD14C,0.120000*%
G04 APERTURE END LIST*
D10*
X208564571Y-294044666D02*
X208088380Y-294044666D01*
X208659809Y-294330380D02*
X208326476Y-293330380D01*
X207993142Y-294330380D01*
X207088380Y-294235142D02*
X207136000Y-294282761D01*
X207278857Y-294330380D01*
X207374095Y-294330380D01*
X207516952Y-294282761D01*
X207612190Y-294187523D01*
X207659809Y-294092285D01*
X207707428Y-293901809D01*
X207707428Y-293758952D01*
X207659809Y-293568476D01*
X207612190Y-293473238D01*
X207516952Y-293378000D01*
X207374095Y-293330380D01*
X207278857Y-293330380D01*
X207136000Y-293378000D01*
X207088380Y-293425619D01*
X206088380Y-294330380D02*
X206421714Y-293854190D01*
X206659809Y-294330380D02*
X206659809Y-293330380D01*
X206278857Y-293330380D01*
X206183619Y-293378000D01*
X206136000Y-293425619D01*
X206088380Y-293520857D01*
X206088380Y-293663714D01*
X206136000Y-293758952D01*
X206183619Y-293806571D01*
X206278857Y-293854190D01*
X206659809Y-293854190D01*
X205469333Y-293854190D02*
X205469333Y-294330380D01*
X205802666Y-293330380D02*
X205469333Y-293854190D01*
X205136000Y-293330380D01*
X204326476Y-294330380D02*
X204802666Y-294330380D01*
X204802666Y-293330380D01*
X203993142Y-294330380D02*
X203993142Y-293330380D01*
X202945523Y-294235142D02*
X202993142Y-294282761D01*
X203136000Y-294330380D01*
X203231238Y-294330380D01*
X203374095Y-294282761D01*
X203469333Y-294187523D01*
X203516952Y-294092285D01*
X203564571Y-293901809D01*
X203564571Y-293758952D01*
X203516952Y-293568476D01*
X203469333Y-293473238D01*
X203374095Y-293378000D01*
X203231238Y-293330380D01*
X203136000Y-293330380D01*
X202993142Y-293378000D01*
X202945523Y-293425619D01*
X201755047Y-294330380D02*
X201755047Y-293330380D01*
X201374095Y-293330380D01*
X201278857Y-293378000D01*
X201231238Y-293425619D01*
X201183619Y-293520857D01*
X201183619Y-293663714D01*
X201231238Y-293758952D01*
X201278857Y-293806571D01*
X201374095Y-293854190D01*
X201755047Y-293854190D01*
X200802666Y-294044666D02*
X200326476Y-294044666D01*
X200897904Y-294330380D02*
X200564571Y-293330380D01*
X200231238Y-294330380D01*
X199897904Y-294330380D02*
X199897904Y-293330380D01*
X199659809Y-293330380D01*
X199516952Y-293378000D01*
X199421714Y-293473238D01*
X199374095Y-293568476D01*
X199326476Y-293758952D01*
X199326476Y-293901809D01*
X199374095Y-294092285D01*
X199421714Y-294187523D01*
X199516952Y-294282761D01*
X199659809Y-294330380D01*
X199897904Y-294330380D01*
X197564571Y-294235142D02*
X197612190Y-294282761D01*
X197755047Y-294330380D01*
X197850285Y-294330380D01*
X197993142Y-294282761D01*
X198088380Y-294187523D01*
X198136000Y-294092285D01*
X198183619Y-293901809D01*
X198183619Y-293758952D01*
X198136000Y-293568476D01*
X198088380Y-293473238D01*
X197993142Y-293378000D01*
X197850285Y-293330380D01*
X197755047Y-293330380D01*
X197612190Y-293378000D01*
X197564571Y-293425619D01*
X196945523Y-293330380D02*
X196755047Y-293330380D01*
X196659809Y-293378000D01*
X196564571Y-293473238D01*
X196516952Y-293663714D01*
X196516952Y-293997047D01*
X196564571Y-294187523D01*
X196659809Y-294282761D01*
X196755047Y-294330380D01*
X196945523Y-294330380D01*
X197040761Y-294282761D01*
X197136000Y-294187523D01*
X197183619Y-293997047D01*
X197183619Y-293663714D01*
X197136000Y-293473238D01*
X197040761Y-293378000D01*
X196945523Y-293330380D01*
X196088380Y-294330380D02*
X196088380Y-293330380D01*
X195516952Y-294330380D01*
X195516952Y-293330380D01*
X195040761Y-294330380D02*
X195040761Y-293330380D01*
X194469333Y-294330380D01*
X194469333Y-293330380D01*
X193993142Y-293806571D02*
X193659809Y-293806571D01*
X193516952Y-294330380D02*
X193993142Y-294330380D01*
X193993142Y-293330380D01*
X193516952Y-293330380D01*
X192516952Y-294235142D02*
X192564571Y-294282761D01*
X192707428Y-294330380D01*
X192802666Y-294330380D01*
X192945523Y-294282761D01*
X193040761Y-294187523D01*
X193088380Y-294092285D01*
X193136000Y-293901809D01*
X193136000Y-293758952D01*
X193088380Y-293568476D01*
X193040761Y-293473238D01*
X192945523Y-293378000D01*
X192802666Y-293330380D01*
X192707428Y-293330380D01*
X192564571Y-293378000D01*
X192516952Y-293425619D01*
X192231238Y-293330380D02*
X191659809Y-293330380D01*
X191945523Y-294330380D02*
X191945523Y-293330380D01*
X191136000Y-293330380D02*
X190945523Y-293330380D01*
X190850285Y-293378000D01*
X190755047Y-293473238D01*
X190707428Y-293663714D01*
X190707428Y-293997047D01*
X190755047Y-294187523D01*
X190850285Y-294282761D01*
X190945523Y-294330380D01*
X191136000Y-294330380D01*
X191231238Y-294282761D01*
X191326476Y-294187523D01*
X191374095Y-293997047D01*
X191374095Y-293663714D01*
X191326476Y-293473238D01*
X191231238Y-293378000D01*
X191136000Y-293330380D01*
X189707428Y-294330380D02*
X190040761Y-293854190D01*
X190278857Y-294330380D02*
X190278857Y-293330380D01*
X189897904Y-293330380D01*
X189802666Y-293378000D01*
X189755047Y-293425619D01*
X189707428Y-293520857D01*
X189707428Y-293663714D01*
X189755047Y-293758952D01*
X189802666Y-293806571D01*
X189897904Y-293854190D01*
X190278857Y-293854190D01*
D11*
X256441833Y-303800000D02*
X256475166Y-303900000D01*
X256475166Y-304066666D01*
X256441833Y-304133333D01*
X256408500Y-304166666D01*
X256341833Y-304200000D01*
X256275166Y-304200000D01*
X256208500Y-304166666D01*
X256175166Y-304133333D01*
X256141833Y-304066666D01*
X256108500Y-303933333D01*
X256075166Y-303866666D01*
X256041833Y-303833333D01*
X255975166Y-303800000D01*
X255908500Y-303800000D01*
X255841833Y-303833333D01*
X255808500Y-303866666D01*
X255775166Y-303933333D01*
X255775166Y-304100000D01*
X255808500Y-304200000D01*
X255775166Y-304400000D02*
X255775166Y-304800000D01*
X256475166Y-304600000D02*
X255775166Y-304600000D01*
X256275166Y-305000000D02*
X256275166Y-305333333D01*
X256475166Y-304933333D02*
X255775166Y-305166666D01*
X256475166Y-305400000D01*
X256475166Y-306033333D02*
X256141833Y-305800000D01*
X256475166Y-305633333D02*
X255775166Y-305633333D01*
X255775166Y-305900000D01*
X255808500Y-305966666D01*
X255841833Y-306000000D01*
X255908500Y-306033333D01*
X256008500Y-306033333D01*
X256075166Y-306000000D01*
X256108500Y-305966666D01*
X256141833Y-305900000D01*
X256141833Y-305633333D01*
X255775166Y-306233333D02*
X255775166Y-306633333D01*
X256475166Y-306433333D02*
X255775166Y-306433333D01*
X256541833Y-306700000D02*
X256541833Y-307233333D01*
X256108500Y-307633333D02*
X256141833Y-307733333D01*
X256175166Y-307766666D01*
X256241833Y-307800000D01*
X256341833Y-307800000D01*
X256408500Y-307766666D01*
X256441833Y-307733333D01*
X256475166Y-307666666D01*
X256475166Y-307400000D01*
X255775166Y-307400000D01*
X255775166Y-307633333D01*
X255808500Y-307700000D01*
X255841833Y-307733333D01*
X255908500Y-307766666D01*
X255975166Y-307766666D01*
X256041833Y-307733333D01*
X256075166Y-307700000D01*
X256108500Y-307633333D01*
X256108500Y-307400000D01*
X256475166Y-308433333D02*
X256475166Y-308100000D01*
X255775166Y-308100000D01*
X255775166Y-308666666D02*
X256341833Y-308666666D01*
X256408500Y-308700000D01*
X256441833Y-308733333D01*
X256475166Y-308800000D01*
X256475166Y-308933333D01*
X256441833Y-309000000D01*
X256408500Y-309033333D01*
X256341833Y-309066666D01*
X255775166Y-309066666D01*
X252883333Y-309183333D02*
X252783333Y-309216666D01*
X252616666Y-309216666D01*
X252550000Y-309183333D01*
X252516666Y-309150000D01*
X252483333Y-309083333D01*
X252483333Y-309016666D01*
X252516666Y-308950000D01*
X252550000Y-308916666D01*
X252616666Y-308883333D01*
X252750000Y-308850000D01*
X252816666Y-308816666D01*
X252850000Y-308783333D01*
X252883333Y-308716666D01*
X252883333Y-308650000D01*
X252850000Y-308583333D01*
X252816666Y-308550000D01*
X252750000Y-308516666D01*
X252583333Y-308516666D01*
X252483333Y-308550000D01*
X251783333Y-309150000D02*
X251816666Y-309183333D01*
X251916666Y-309216666D01*
X251983333Y-309216666D01*
X252083333Y-309183333D01*
X252150000Y-309116666D01*
X252183333Y-309050000D01*
X252216666Y-308916666D01*
X252216666Y-308816666D01*
X252183333Y-308683333D01*
X252150000Y-308616666D01*
X252083333Y-308550000D01*
X251983333Y-308516666D01*
X251916666Y-308516666D01*
X251816666Y-308550000D01*
X251783333Y-308583333D01*
X251083333Y-309216666D02*
X251316666Y-308883333D01*
X251483333Y-309216666D02*
X251483333Y-308516666D01*
X251216666Y-308516666D01*
X251150000Y-308550000D01*
X251116666Y-308583333D01*
X251083333Y-308650000D01*
X251083333Y-308750000D01*
X251116666Y-308816666D01*
X251150000Y-308850000D01*
X251216666Y-308883333D01*
X251483333Y-308883333D01*
X250783333Y-309216666D02*
X250783333Y-308516666D01*
X250383333Y-309216666D01*
X250383333Y-308516666D01*
X250216666Y-309283333D02*
X249683333Y-309283333D01*
X249116666Y-309216666D02*
X249350000Y-308883333D01*
X249516666Y-309216666D02*
X249516666Y-308516666D01*
X249250000Y-308516666D01*
X249183333Y-308550000D01*
X249150000Y-308583333D01*
X249116666Y-308650000D01*
X249116666Y-308750000D01*
X249150000Y-308816666D01*
X249183333Y-308850000D01*
X249250000Y-308883333D01*
X249516666Y-308883333D01*
X248850000Y-309183333D02*
X248750000Y-309216666D01*
X248583333Y-309216666D01*
X248516666Y-309183333D01*
X248483333Y-309150000D01*
X248450000Y-309083333D01*
X248450000Y-309016666D01*
X248483333Y-308950000D01*
X248516666Y-308916666D01*
X248583333Y-308883333D01*
X248716666Y-308850000D01*
X248783333Y-308816666D01*
X248816666Y-308783333D01*
X248850000Y-308716666D01*
X248850000Y-308650000D01*
X248816666Y-308583333D01*
X248783333Y-308550000D01*
X248716666Y-308516666D01*
X248550000Y-308516666D01*
X248450000Y-308550000D01*
X248250000Y-308516666D02*
X247850000Y-308516666D01*
X248050000Y-309216666D02*
X248050000Y-308516666D01*
X258533333Y-303733333D02*
X258566666Y-303833333D01*
X258566666Y-304000000D01*
X258533333Y-304066666D01*
X258500000Y-304100000D01*
X258433333Y-304133333D01*
X258366666Y-304133333D01*
X258300000Y-304100000D01*
X258266666Y-304066666D01*
X258233333Y-304000000D01*
X258200000Y-303866666D01*
X258166666Y-303800000D01*
X258133333Y-303766666D01*
X258066666Y-303733333D01*
X258000000Y-303733333D01*
X257933333Y-303766666D01*
X257900000Y-303800000D01*
X257866666Y-303866666D01*
X257866666Y-304033333D01*
X257900000Y-304133333D01*
X257866666Y-304333333D02*
X257866666Y-304733333D01*
X258566666Y-304533333D02*
X257866666Y-304533333D01*
X258366666Y-304933333D02*
X258366666Y-305266666D01*
X258566666Y-304866666D02*
X257866666Y-305100000D01*
X258566666Y-305333333D01*
X258566666Y-305966666D02*
X258233333Y-305733333D01*
X258566666Y-305566666D02*
X257866666Y-305566666D01*
X257866666Y-305833333D01*
X257900000Y-305900000D01*
X257933333Y-305933333D01*
X258000000Y-305966666D01*
X258100000Y-305966666D01*
X258166666Y-305933333D01*
X258200000Y-305900000D01*
X258233333Y-305833333D01*
X258233333Y-305566666D01*
X257866666Y-306166666D02*
X257866666Y-306566666D01*
X258566666Y-306366666D02*
X257866666Y-306366666D01*
X258633333Y-306633333D02*
X258633333Y-307166666D01*
X257900000Y-307700000D02*
X257866666Y-307633333D01*
X257866666Y-307533333D01*
X257900000Y-307433333D01*
X257966666Y-307366666D01*
X258033333Y-307333333D01*
X258166666Y-307300000D01*
X258266666Y-307300000D01*
X258400000Y-307333333D01*
X258466666Y-307366666D01*
X258533333Y-307433333D01*
X258566666Y-307533333D01*
X258566666Y-307600000D01*
X258533333Y-307700000D01*
X258500000Y-307733333D01*
X258266666Y-307733333D01*
X258266666Y-307600000D01*
X258566666Y-308433333D02*
X258233333Y-308200000D01*
X258566666Y-308033333D02*
X257866666Y-308033333D01*
X257866666Y-308300000D01*
X257900000Y-308366666D01*
X257933333Y-308400000D01*
X258000000Y-308433333D01*
X258100000Y-308433333D01*
X258166666Y-308400000D01*
X258200000Y-308366666D01*
X258233333Y-308300000D01*
X258233333Y-308033333D01*
X258566666Y-308733333D02*
X257866666Y-308733333D01*
X258566666Y-309133333D01*
X257866666Y-309133333D01*
X250111904Y-313600000D02*
X250207142Y-313552380D01*
X250350000Y-313552380D01*
X250492857Y-313600000D01*
X250588095Y-313695238D01*
X250635714Y-313790476D01*
X250683333Y-313980952D01*
X250683333Y-314123809D01*
X250635714Y-314314285D01*
X250588095Y-314409523D01*
X250492857Y-314504761D01*
X250350000Y-314552380D01*
X250254761Y-314552380D01*
X250111904Y-314504761D01*
X250064285Y-314457142D01*
X250064285Y-314123809D01*
X250254761Y-314123809D01*
X249635714Y-314552380D02*
X249635714Y-313552380D01*
X249064285Y-314552380D01*
X249064285Y-313552380D01*
X248588095Y-314552380D02*
X248588095Y-313552380D01*
X248350000Y-313552380D01*
X248207142Y-313600000D01*
X248111904Y-313695238D01*
X248064285Y-313790476D01*
X248016666Y-313980952D01*
X248016666Y-314123809D01*
X248064285Y-314314285D01*
X248111904Y-314409523D01*
X248207142Y-314504761D01*
X248350000Y-314552380D01*
X248588095Y-314552380D01*
D12*
X253426190Y-303935714D02*
X253426190Y-304030952D01*
X253450000Y-304078571D01*
X253497619Y-304126190D01*
X253592857Y-304150000D01*
X253759523Y-304150000D01*
X253854761Y-304126190D01*
X253902380Y-304078571D01*
X253926190Y-304030952D01*
X253926190Y-303935714D01*
X253902380Y-303888095D01*
X253854761Y-303840476D01*
X253759523Y-303816666D01*
X253592857Y-303816666D01*
X253497619Y-303840476D01*
X253450000Y-303888095D01*
X253426190Y-303935714D01*
X253926190Y-304364285D02*
X253426190Y-304364285D01*
X253926190Y-304650000D01*
X253426190Y-304650000D01*
X253402380Y-305245238D02*
X254045238Y-304816666D01*
X253426190Y-305507142D02*
X253426190Y-305602380D01*
X253450000Y-305650000D01*
X253497619Y-305697619D01*
X253592857Y-305721428D01*
X253759523Y-305721428D01*
X253854761Y-305697619D01*
X253902380Y-305650000D01*
X253926190Y-305602380D01*
X253926190Y-305507142D01*
X253902380Y-305459523D01*
X253854761Y-305411904D01*
X253759523Y-305388095D01*
X253592857Y-305388095D01*
X253497619Y-305411904D01*
X253450000Y-305459523D01*
X253426190Y-305507142D01*
X253664285Y-306102380D02*
X253664285Y-305935714D01*
X253926190Y-305935714D02*
X253426190Y-305935714D01*
X253426190Y-306173809D01*
X253664285Y-306530952D02*
X253664285Y-306364285D01*
X253926190Y-306364285D02*
X253426190Y-306364285D01*
X253426190Y-306602380D01*
X253973809Y-306673809D02*
X253973809Y-307054761D01*
X253450000Y-307435714D02*
X253426190Y-307388095D01*
X253426190Y-307316666D01*
X253450000Y-307245238D01*
X253497619Y-307197619D01*
X253545238Y-307173809D01*
X253640476Y-307150000D01*
X253711904Y-307150000D01*
X253807142Y-307173809D01*
X253854761Y-307197619D01*
X253902380Y-307245238D01*
X253926190Y-307316666D01*
X253926190Y-307364285D01*
X253902380Y-307435714D01*
X253878571Y-307459523D01*
X253711904Y-307459523D01*
X253711904Y-307364285D01*
X253926190Y-307959523D02*
X253688095Y-307792857D01*
X253926190Y-307673809D02*
X253426190Y-307673809D01*
X253426190Y-307864285D01*
X253450000Y-307911904D01*
X253473809Y-307935714D01*
X253521428Y-307959523D01*
X253592857Y-307959523D01*
X253640476Y-307935714D01*
X253664285Y-307911904D01*
X253688095Y-307864285D01*
X253688095Y-307673809D01*
X253926190Y-308173809D02*
X253426190Y-308173809D01*
X253926190Y-308459523D01*
X253426190Y-308459523D01*
D13*
X257609523Y-293910095D02*
X257666666Y-293891047D01*
X257761904Y-293891047D01*
X257800000Y-293910095D01*
X257819047Y-293929142D01*
X257838095Y-293967238D01*
X257838095Y-294005333D01*
X257819047Y-294043428D01*
X257800000Y-294062476D01*
X257761904Y-294081523D01*
X257685714Y-294100571D01*
X257647619Y-294119619D01*
X257628571Y-294138666D01*
X257609523Y-294176761D01*
X257609523Y-294214857D01*
X257628571Y-294252952D01*
X257647619Y-294272000D01*
X257685714Y-294291047D01*
X257780952Y-294291047D01*
X257838095Y-294272000D01*
X257952380Y-294291047D02*
X258180952Y-294291047D01*
X258066666Y-293891047D02*
X258066666Y-294291047D01*
X258295238Y-294005333D02*
X258485714Y-294005333D01*
X258257142Y-293891047D02*
X258390476Y-294291047D01*
X258523809Y-293891047D01*
X258885714Y-293891047D02*
X258752380Y-294081523D01*
X258657142Y-293891047D02*
X258657142Y-294291047D01*
X258809523Y-294291047D01*
X258847619Y-294272000D01*
X258866666Y-294252952D01*
X258885714Y-294214857D01*
X258885714Y-294157714D01*
X258866666Y-294119619D01*
X258847619Y-294100571D01*
X258809523Y-294081523D01*
X258657142Y-294081523D01*
X259000000Y-294291047D02*
X259228571Y-294291047D01*
X259114285Y-293891047D02*
X259114285Y-294291047D01*
X258142857Y-293247047D02*
X258009523Y-293437523D01*
X257914285Y-293247047D02*
X257914285Y-293647047D01*
X258066666Y-293647047D01*
X258104761Y-293628000D01*
X258123809Y-293608952D01*
X258142857Y-293570857D01*
X258142857Y-293513714D01*
X258123809Y-293475619D01*
X258104761Y-293456571D01*
X258066666Y-293437523D01*
X257914285Y-293437523D01*
X258314285Y-293456571D02*
X258447619Y-293456571D01*
X258504761Y-293247047D02*
X258314285Y-293247047D01*
X258314285Y-293647047D01*
X258504761Y-293647047D01*
X258676190Y-293247047D02*
X258676190Y-293647047D01*
X258771428Y-293647047D01*
X258828571Y-293628000D01*
X258866666Y-293589904D01*
X258885714Y-293551809D01*
X258904761Y-293475619D01*
X258904761Y-293418476D01*
X258885714Y-293342285D01*
X258866666Y-293304190D01*
X258828571Y-293266095D01*
X258771428Y-293247047D01*
X258676190Y-293247047D01*
D11*
X250161904Y-321100000D02*
X250257142Y-321052380D01*
X250400000Y-321052380D01*
X250542857Y-321100000D01*
X250638095Y-321195238D01*
X250685714Y-321290476D01*
X250733333Y-321480952D01*
X250733333Y-321623809D01*
X250685714Y-321814285D01*
X250638095Y-321909523D01*
X250542857Y-322004761D01*
X250400000Y-322052380D01*
X250304761Y-322052380D01*
X250161904Y-322004761D01*
X250114285Y-321957142D01*
X250114285Y-321623809D01*
X250304761Y-321623809D01*
X249685714Y-322052380D02*
X249685714Y-321052380D01*
X249114285Y-322052380D01*
X249114285Y-321052380D01*
X248638095Y-322052380D02*
X248638095Y-321052380D01*
X248400000Y-321052380D01*
X248257142Y-321100000D01*
X248161904Y-321195238D01*
X248114285Y-321290476D01*
X248066666Y-321480952D01*
X248066666Y-321623809D01*
X248114285Y-321814285D01*
X248161904Y-321909523D01*
X248257142Y-322004761D01*
X248400000Y-322052380D01*
X248638095Y-322052380D01*
D13*
X246000000Y-293566666D02*
X246100000Y-293533333D01*
X246266666Y-293533333D01*
X246333333Y-293566666D01*
X246366666Y-293600000D01*
X246400000Y-293666666D01*
X246400000Y-293733333D01*
X246366666Y-293800000D01*
X246333333Y-293833333D01*
X246266666Y-293866666D01*
X246133333Y-293900000D01*
X246066666Y-293933333D01*
X246033333Y-293966666D01*
X246000000Y-294033333D01*
X246000000Y-294100000D01*
X246033333Y-294166666D01*
X246066666Y-294200000D01*
X246133333Y-294233333D01*
X246300000Y-294233333D01*
X246400000Y-294200000D01*
X246700000Y-293533333D02*
X246700000Y-294233333D01*
X246866666Y-294233333D01*
X246966666Y-294200000D01*
X247033333Y-294133333D01*
X247066666Y-294066666D01*
X247100000Y-293933333D01*
X247100000Y-293833333D01*
X247066666Y-293700000D01*
X247033333Y-293633333D01*
X246966666Y-293566666D01*
X246866666Y-293533333D01*
X246700000Y-293533333D01*
X247366666Y-293733333D02*
X247700000Y-293733333D01*
X247300000Y-293533333D02*
X247533333Y-294233333D01*
X247766666Y-293533333D01*
D11*
X251830000Y-306361904D02*
X251830000Y-305885714D01*
X250547619Y-306123809D02*
X251547619Y-306123809D01*
X251830000Y-305885714D02*
X251830000Y-304885714D01*
X250547619Y-305076190D02*
X251023809Y-305409523D01*
X250547619Y-305647619D02*
X251547619Y-305647619D01*
X251547619Y-305266666D01*
X251500000Y-305171428D01*
X251452380Y-305123809D01*
X251357142Y-305076190D01*
X251214285Y-305076190D01*
X251119047Y-305123809D01*
X251071428Y-305171428D01*
X251023809Y-305266666D01*
X251023809Y-305647619D01*
X251830000Y-304885714D02*
X251830000Y-303838095D01*
X250452380Y-303980952D02*
X250500000Y-304076190D01*
X250595238Y-304171428D01*
X250738095Y-304314285D01*
X250785714Y-304409523D01*
X250785714Y-304504761D01*
X250547619Y-304457142D02*
X250595238Y-304552380D01*
X250690476Y-304647619D01*
X250880952Y-304695238D01*
X251214285Y-304695238D01*
X251404761Y-304647619D01*
X251500000Y-304552380D01*
X251547619Y-304457142D01*
X251547619Y-304266666D01*
X251500000Y-304171428D01*
X251404761Y-304076190D01*
X251214285Y-304028571D01*
X250880952Y-304028571D01*
X250690476Y-304076190D01*
X250595238Y-304171428D01*
X250547619Y-304266666D01*
X250547619Y-304457142D01*
X250514285Y-319404761D02*
X250371428Y-319452380D01*
X250133333Y-319452380D01*
X250038095Y-319404761D01*
X249990476Y-319357142D01*
X249942857Y-319261904D01*
X249942857Y-319166666D01*
X249990476Y-319071428D01*
X250038095Y-319023809D01*
X250133333Y-318976190D01*
X250323809Y-318928571D01*
X250419047Y-318880952D01*
X250466666Y-318833333D01*
X250514285Y-318738095D01*
X250514285Y-318642857D01*
X250466666Y-318547619D01*
X250419047Y-318500000D01*
X250323809Y-318452380D01*
X250085714Y-318452380D01*
X249942857Y-318500000D01*
X249514285Y-319452380D02*
X249514285Y-318452380D01*
X249276190Y-318452380D01*
X249133333Y-318500000D01*
X249038095Y-318595238D01*
X248990476Y-318690476D01*
X248942857Y-318880952D01*
X248942857Y-319023809D01*
X248990476Y-319214285D01*
X249038095Y-319309523D01*
X249133333Y-319404761D01*
X249276190Y-319452380D01*
X249514285Y-319452380D01*
X248561904Y-319166666D02*
X248085714Y-319166666D01*
X248657142Y-319452380D02*
X248323809Y-318452380D01*
X247990476Y-319452380D01*
X248045238Y-306390476D02*
X247997619Y-306247619D01*
X247997619Y-306009523D01*
X248045238Y-305914285D01*
X248092857Y-305866666D01*
X248188095Y-305819047D01*
X248283333Y-305819047D01*
X248378571Y-305866666D01*
X248426190Y-305914285D01*
X248473809Y-306009523D01*
X248521428Y-306200000D01*
X248569047Y-306295238D01*
X248616666Y-306342857D01*
X248711904Y-306390476D01*
X248807142Y-306390476D01*
X248902380Y-306342857D01*
X248950000Y-306295238D01*
X248997619Y-306200000D01*
X248997619Y-305961904D01*
X248950000Y-305819047D01*
X248092857Y-304819047D02*
X248045238Y-304866666D01*
X247997619Y-305009523D01*
X247997619Y-305104761D01*
X248045238Y-305247619D01*
X248140476Y-305342857D01*
X248235714Y-305390476D01*
X248426190Y-305438095D01*
X248569047Y-305438095D01*
X248759523Y-305390476D01*
X248854761Y-305342857D01*
X248950000Y-305247619D01*
X248997619Y-305104761D01*
X248997619Y-305009523D01*
X248950000Y-304866666D01*
X248902380Y-304819047D01*
X247997619Y-303914285D02*
X247997619Y-304390476D01*
X248997619Y-304390476D01*
D13*
X252240476Y-294291047D02*
X252316666Y-294291047D01*
X252354761Y-294272000D01*
X252392857Y-294233904D01*
X252411904Y-294157714D01*
X252411904Y-294024380D01*
X252392857Y-293948190D01*
X252354761Y-293910095D01*
X252316666Y-293891047D01*
X252240476Y-293891047D01*
X252202380Y-293910095D01*
X252164285Y-293948190D01*
X252145238Y-294024380D01*
X252145238Y-294157714D01*
X252164285Y-294233904D01*
X252202380Y-294272000D01*
X252240476Y-294291047D01*
X252583333Y-293891047D02*
X252583333Y-294291047D01*
X252811904Y-293891047D01*
X252811904Y-294291047D01*
X253288095Y-294310095D02*
X252945238Y-293795809D01*
X253497619Y-294291047D02*
X253573809Y-294291047D01*
X253611904Y-294272000D01*
X253650000Y-294233904D01*
X253669047Y-294157714D01*
X253669047Y-294024380D01*
X253650000Y-293948190D01*
X253611904Y-293910095D01*
X253573809Y-293891047D01*
X253497619Y-293891047D01*
X253459523Y-293910095D01*
X253421428Y-293948190D01*
X253402380Y-294024380D01*
X253402380Y-294157714D01*
X253421428Y-294233904D01*
X253459523Y-294272000D01*
X253497619Y-294291047D01*
X253973809Y-294100571D02*
X253840476Y-294100571D01*
X253840476Y-293891047D02*
X253840476Y-294291047D01*
X254030952Y-294291047D01*
X254316666Y-294100571D02*
X254183333Y-294100571D01*
X254183333Y-293891047D02*
X254183333Y-294291047D01*
X254373809Y-294291047D01*
X252992857Y-293247047D02*
X252859523Y-293437523D01*
X252764285Y-293247047D02*
X252764285Y-293647047D01*
X252916666Y-293647047D01*
X252954761Y-293628000D01*
X252973809Y-293608952D01*
X252992857Y-293570857D01*
X252992857Y-293513714D01*
X252973809Y-293475619D01*
X252954761Y-293456571D01*
X252916666Y-293437523D01*
X252764285Y-293437523D01*
X253164285Y-293456571D02*
X253297619Y-293456571D01*
X253354761Y-293247047D02*
X253164285Y-293247047D01*
X253164285Y-293647047D01*
X253354761Y-293647047D01*
X253526190Y-293247047D02*
X253526190Y-293647047D01*
X253621428Y-293647047D01*
X253678571Y-293628000D01*
X253716666Y-293589904D01*
X253735714Y-293551809D01*
X253754761Y-293475619D01*
X253754761Y-293418476D01*
X253735714Y-293342285D01*
X253716666Y-293304190D01*
X253678571Y-293266095D01*
X253621428Y-293247047D01*
X253526190Y-293247047D01*
D11*
X260216666Y-294233333D02*
X260650000Y-294233333D01*
X260416666Y-293966666D01*
X260516666Y-293966666D01*
X260583333Y-293933333D01*
X260616666Y-293900000D01*
X260650000Y-293833333D01*
X260650000Y-293666666D01*
X260616666Y-293600000D01*
X260583333Y-293566666D01*
X260516666Y-293533333D01*
X260316666Y-293533333D01*
X260250000Y-293566666D01*
X260216666Y-293600000D01*
X260950000Y-293600000D02*
X260983333Y-293566666D01*
X260950000Y-293533333D01*
X260916666Y-293566666D01*
X260950000Y-293600000D01*
X260950000Y-293533333D01*
X261216666Y-294233333D02*
X261650000Y-294233333D01*
X261416666Y-293966666D01*
X261516666Y-293966666D01*
X261583333Y-293933333D01*
X261616666Y-293900000D01*
X261650000Y-293833333D01*
X261650000Y-293666666D01*
X261616666Y-293600000D01*
X261583333Y-293566666D01*
X261516666Y-293533333D01*
X261316666Y-293533333D01*
X261250000Y-293566666D01*
X261216666Y-293600000D01*
X261850000Y-294233333D02*
X262083333Y-293533333D01*
X262316666Y-294233333D01*
D13*
X254890476Y-294291047D02*
X254966666Y-294291047D01*
X255004761Y-294272000D01*
X255042857Y-294233904D01*
X255061904Y-294157714D01*
X255061904Y-294024380D01*
X255042857Y-293948190D01*
X255004761Y-293910095D01*
X254966666Y-293891047D01*
X254890476Y-293891047D01*
X254852380Y-293910095D01*
X254814285Y-293948190D01*
X254795238Y-294024380D01*
X254795238Y-294157714D01*
X254814285Y-294233904D01*
X254852380Y-294272000D01*
X254890476Y-294291047D01*
X255233333Y-293891047D02*
X255233333Y-294291047D01*
X255461904Y-293891047D01*
X255461904Y-294291047D01*
X255938095Y-294310095D02*
X255595238Y-293795809D01*
X256147619Y-294291047D02*
X256223809Y-294291047D01*
X256261904Y-294272000D01*
X256300000Y-294233904D01*
X256319047Y-294157714D01*
X256319047Y-294024380D01*
X256300000Y-293948190D01*
X256261904Y-293910095D01*
X256223809Y-293891047D01*
X256147619Y-293891047D01*
X256109523Y-293910095D01*
X256071428Y-293948190D01*
X256052380Y-294024380D01*
X256052380Y-294157714D01*
X256071428Y-294233904D01*
X256109523Y-294272000D01*
X256147619Y-294291047D01*
X256623809Y-294100571D02*
X256490476Y-294100571D01*
X256490476Y-293891047D02*
X256490476Y-294291047D01*
X256680952Y-294291047D01*
X256966666Y-294100571D02*
X256833333Y-294100571D01*
X256833333Y-293891047D02*
X256833333Y-294291047D01*
X257023809Y-294291047D01*
X255557142Y-293456571D02*
X255614285Y-293437523D01*
X255633333Y-293418476D01*
X255652380Y-293380380D01*
X255652380Y-293323238D01*
X255633333Y-293285142D01*
X255614285Y-293266095D01*
X255576190Y-293247047D01*
X255423809Y-293247047D01*
X255423809Y-293647047D01*
X255557142Y-293647047D01*
X255595238Y-293628000D01*
X255614285Y-293608952D01*
X255633333Y-293570857D01*
X255633333Y-293532761D01*
X255614285Y-293494666D01*
X255595238Y-293475619D01*
X255557142Y-293456571D01*
X255423809Y-293456571D01*
X256014285Y-293247047D02*
X255823809Y-293247047D01*
X255823809Y-293647047D01*
X256147619Y-293647047D02*
X256147619Y-293323238D01*
X256166666Y-293285142D01*
X256185714Y-293266095D01*
X256223809Y-293247047D01*
X256300000Y-293247047D01*
X256338095Y-293266095D01*
X256357142Y-293285142D01*
X256376190Y-293323238D01*
X256376190Y-293647047D01*
X250126190Y-293710095D02*
X250183333Y-293691047D01*
X250278571Y-293691047D01*
X250316666Y-293710095D01*
X250335714Y-293729142D01*
X250354761Y-293767238D01*
X250354761Y-293805333D01*
X250335714Y-293843428D01*
X250316666Y-293862476D01*
X250278571Y-293881523D01*
X250202380Y-293900571D01*
X250164285Y-293919619D01*
X250145238Y-293938666D01*
X250126190Y-293976761D01*
X250126190Y-294014857D01*
X250145238Y-294052952D01*
X250164285Y-294072000D01*
X250202380Y-294091047D01*
X250297619Y-294091047D01*
X250354761Y-294072000D01*
X250754761Y-293729142D02*
X250735714Y-293710095D01*
X250678571Y-293691047D01*
X250640476Y-293691047D01*
X250583333Y-293710095D01*
X250545238Y-293748190D01*
X250526190Y-293786285D01*
X250507142Y-293862476D01*
X250507142Y-293919619D01*
X250526190Y-293995809D01*
X250545238Y-294033904D01*
X250583333Y-294072000D01*
X250640476Y-294091047D01*
X250678571Y-294091047D01*
X250735714Y-294072000D01*
X250754761Y-294052952D01*
X251154761Y-293691047D02*
X251021428Y-293881523D01*
X250926190Y-293691047D02*
X250926190Y-294091047D01*
X251078571Y-294091047D01*
X251116666Y-294072000D01*
X251135714Y-294052952D01*
X251154761Y-294014857D01*
X251154761Y-293957714D01*
X251135714Y-293919619D01*
X251116666Y-293900571D01*
X251078571Y-293881523D01*
X250926190Y-293881523D01*
X251326190Y-293691047D02*
X251326190Y-294091047D01*
X251554761Y-293691047D01*
X251554761Y-294091047D01*
X250630952Y-293047047D02*
X250497619Y-293237523D01*
X250402380Y-293047047D02*
X250402380Y-293447047D01*
X250554761Y-293447047D01*
X250592857Y-293428000D01*
X250611904Y-293408952D01*
X250630952Y-293370857D01*
X250630952Y-293313714D01*
X250611904Y-293275619D01*
X250592857Y-293256571D01*
X250554761Y-293237523D01*
X250402380Y-293237523D01*
X250783333Y-293066095D02*
X250840476Y-293047047D01*
X250935714Y-293047047D01*
X250973809Y-293066095D01*
X250992857Y-293085142D01*
X251011904Y-293123238D01*
X251011904Y-293161333D01*
X250992857Y-293199428D01*
X250973809Y-293218476D01*
X250935714Y-293237523D01*
X250859523Y-293256571D01*
X250821428Y-293275619D01*
X250802380Y-293294666D01*
X250783333Y-293332761D01*
X250783333Y-293370857D01*
X250802380Y-293408952D01*
X250821428Y-293428000D01*
X250859523Y-293447047D01*
X250954761Y-293447047D01*
X251011904Y-293428000D01*
X251126190Y-293447047D02*
X251354761Y-293447047D01*
X251240476Y-293047047D02*
X251240476Y-293447047D01*
D11*
X250061904Y-310950000D02*
X250157142Y-310902380D01*
X250300000Y-310902380D01*
X250442857Y-310950000D01*
X250538095Y-311045238D01*
X250585714Y-311140476D01*
X250633333Y-311330952D01*
X250633333Y-311473809D01*
X250585714Y-311664285D01*
X250538095Y-311759523D01*
X250442857Y-311854761D01*
X250300000Y-311902380D01*
X250204761Y-311902380D01*
X250061904Y-311854761D01*
X250014285Y-311807142D01*
X250014285Y-311473809D01*
X250204761Y-311473809D01*
X249585714Y-311902380D02*
X249585714Y-310902380D01*
X249014285Y-311902380D01*
X249014285Y-310902380D01*
X248538095Y-311902380D02*
X248538095Y-310902380D01*
X248300000Y-310902380D01*
X248157142Y-310950000D01*
X248061904Y-311045238D01*
X248014285Y-311140476D01*
X247966666Y-311330952D01*
X247966666Y-311473809D01*
X248014285Y-311664285D01*
X248061904Y-311759523D01*
X248157142Y-311854761D01*
X248300000Y-311902380D01*
X248538095Y-311902380D01*
X251026190Y-323652380D02*
X250407142Y-323652380D01*
X250740476Y-324033333D01*
X250597619Y-324033333D01*
X250502380Y-324080952D01*
X250454761Y-324128571D01*
X250407142Y-324223809D01*
X250407142Y-324461904D01*
X250454761Y-324557142D01*
X250502380Y-324604761D01*
X250597619Y-324652380D01*
X250883333Y-324652380D01*
X250978571Y-324604761D01*
X251026190Y-324557142D01*
X249978571Y-324557142D02*
X249930952Y-324604761D01*
X249978571Y-324652380D01*
X250026190Y-324604761D01*
X249978571Y-324557142D01*
X249978571Y-324652380D01*
X249597619Y-323652380D02*
X248978571Y-323652380D01*
X249311904Y-324033333D01*
X249169047Y-324033333D01*
X249073809Y-324080952D01*
X249026190Y-324128571D01*
X248978571Y-324223809D01*
X248978571Y-324461904D01*
X249026190Y-324557142D01*
X249073809Y-324604761D01*
X249169047Y-324652380D01*
X249454761Y-324652380D01*
X249550000Y-324604761D01*
X249597619Y-324557142D01*
X248692857Y-323652380D02*
X248359523Y-324652380D01*
X248026190Y-323652380D01*
X250340476Y-317004761D02*
X250197619Y-317052380D01*
X249959523Y-317052380D01*
X249864285Y-317004761D01*
X249816666Y-316957142D01*
X249769047Y-316861904D01*
X249769047Y-316766666D01*
X249816666Y-316671428D01*
X249864285Y-316623809D01*
X249959523Y-316576190D01*
X250150000Y-316528571D01*
X250245238Y-316480952D01*
X250292857Y-316433333D01*
X250340476Y-316338095D01*
X250340476Y-316242857D01*
X250292857Y-316147619D01*
X250245238Y-316100000D01*
X250150000Y-316052380D01*
X249911904Y-316052380D01*
X249769047Y-316100000D01*
X248769047Y-316957142D02*
X248816666Y-317004761D01*
X248959523Y-317052380D01*
X249054761Y-317052380D01*
X249197619Y-317004761D01*
X249292857Y-316909523D01*
X249340476Y-316814285D01*
X249388095Y-316623809D01*
X249388095Y-316480952D01*
X249340476Y-316290476D01*
X249292857Y-316195238D01*
X249197619Y-316100000D01*
X249054761Y-316052380D01*
X248959523Y-316052380D01*
X248816666Y-316100000D01*
X248769047Y-316147619D01*
X247864285Y-317052380D02*
X248340476Y-317052380D01*
X248340476Y-316052380D01*
X260859523Y-304847619D02*
X260383333Y-304847619D01*
X260335714Y-304371428D01*
X260383333Y-304419047D01*
X260478571Y-304466666D01*
X260716666Y-304466666D01*
X260811904Y-304419047D01*
X260859523Y-304371428D01*
X260907142Y-304276190D01*
X260907142Y-304038095D01*
X260859523Y-303942857D01*
X260811904Y-303895238D01*
X260716666Y-303847619D01*
X260478571Y-303847619D01*
X260383333Y-303895238D01*
X260335714Y-303942857D01*
X261192857Y-304847619D02*
X261526190Y-303847619D01*
X261859523Y-304847619D01*
X263266666Y-294200000D02*
X263200000Y-294233333D01*
X263100000Y-294233333D01*
X263000000Y-294200000D01*
X262933333Y-294133333D01*
X262900000Y-294066666D01*
X262866666Y-293933333D01*
X262866666Y-293833333D01*
X262900000Y-293700000D01*
X262933333Y-293633333D01*
X263000000Y-293566666D01*
X263100000Y-293533333D01*
X263166666Y-293533333D01*
X263266666Y-293566666D01*
X263300000Y-293600000D01*
X263300000Y-293833333D01*
X263166666Y-293833333D01*
X263600000Y-293533333D02*
X263600000Y-294233333D01*
X264000000Y-293533333D01*
X264000000Y-294233333D01*
X264333333Y-293533333D02*
X264333333Y-294233333D01*
X264500000Y-294233333D01*
X264600000Y-294200000D01*
X264666666Y-294133333D01*
X264700000Y-294066666D01*
X264733333Y-293933333D01*
X264733333Y-293833333D01*
X264700000Y-293700000D01*
X264666666Y-293633333D01*
X264600000Y-293566666D01*
X264500000Y-293533333D01*
X264333333Y-293533333D01*
X263788095Y-304800000D02*
X263692857Y-304847619D01*
X263550000Y-304847619D01*
X263407142Y-304800000D01*
X263311904Y-304704761D01*
X263264285Y-304609523D01*
X263216666Y-304419047D01*
X263216666Y-304276190D01*
X263264285Y-304085714D01*
X263311904Y-303990476D01*
X263407142Y-303895238D01*
X263550000Y-303847619D01*
X263645238Y-303847619D01*
X263788095Y-303895238D01*
X263835714Y-303942857D01*
X263835714Y-304276190D01*
X263645238Y-304276190D01*
X264264285Y-303847619D02*
X264264285Y-304847619D01*
X264835714Y-303847619D01*
X264835714Y-304847619D01*
X265311904Y-303847619D02*
X265311904Y-304847619D01*
X265550000Y-304847619D01*
X265692857Y-304800000D01*
X265788095Y-304704761D01*
X265835714Y-304609523D01*
X265883333Y-304419047D01*
X265883333Y-304276190D01*
X265835714Y-304085714D01*
X265788095Y-303990476D01*
X265692857Y-303895238D01*
X265550000Y-303847619D01*
X265311904Y-303847619D01*
%TO.C,J16*%
X243129523Y-326322380D02*
X243129523Y-327036666D01*
X243177142Y-327179523D01*
X243272380Y-327274761D01*
X243415238Y-327322380D01*
X243510476Y-327322380D01*
X242129523Y-327322380D02*
X242700952Y-327322380D01*
X242415238Y-327322380D02*
X242415238Y-326322380D01*
X242510476Y-326465238D01*
X242605714Y-326560476D01*
X242700952Y-326608095D01*
X241272380Y-326322380D02*
X241462857Y-326322380D01*
X241558095Y-326370000D01*
X241605714Y-326417619D01*
X241700952Y-326560476D01*
X241748571Y-326750952D01*
X241748571Y-327131904D01*
X241700952Y-327227142D01*
X241653333Y-327274761D01*
X241558095Y-327322380D01*
X241367619Y-327322380D01*
X241272380Y-327274761D01*
X241224761Y-327227142D01*
X241177142Y-327131904D01*
X241177142Y-326893809D01*
X241224761Y-326798571D01*
X241272380Y-326750952D01*
X241367619Y-326703333D01*
X241558095Y-326703333D01*
X241653333Y-326750952D01*
X241700952Y-326798571D01*
X241748571Y-326893809D01*
%TO.C,J18*%
X241752380Y-298260476D02*
X242466666Y-298260476D01*
X242609523Y-298212857D01*
X242704761Y-298117619D01*
X242752380Y-297974761D01*
X242752380Y-297879523D01*
X242752380Y-299260476D02*
X242752380Y-298689047D01*
X242752380Y-298974761D02*
X241752380Y-298974761D01*
X241895238Y-298879523D01*
X241990476Y-298784285D01*
X242038095Y-298689047D01*
X242180952Y-299831904D02*
X242133333Y-299736666D01*
X242085714Y-299689047D01*
X241990476Y-299641428D01*
X241942857Y-299641428D01*
X241847619Y-299689047D01*
X241800000Y-299736666D01*
X241752380Y-299831904D01*
X241752380Y-300022380D01*
X241800000Y-300117619D01*
X241847619Y-300165238D01*
X241942857Y-300212857D01*
X241990476Y-300212857D01*
X242085714Y-300165238D01*
X242133333Y-300117619D01*
X242180952Y-300022380D01*
X242180952Y-299831904D01*
X242228571Y-299736666D01*
X242276190Y-299689047D01*
X242371428Y-299641428D01*
X242561904Y-299641428D01*
X242657142Y-299689047D01*
X242704761Y-299736666D01*
X242752380Y-299831904D01*
X242752380Y-300022380D01*
X242704761Y-300117619D01*
X242657142Y-300165238D01*
X242561904Y-300212857D01*
X242371428Y-300212857D01*
X242276190Y-300165238D01*
X242228571Y-300117619D01*
X242180952Y-300022380D01*
%TO.C,U15*%
X266202380Y-308461904D02*
X267011904Y-308461904D01*
X267107142Y-308509523D01*
X267154761Y-308557142D01*
X267202380Y-308652380D01*
X267202380Y-308842857D01*
X267154761Y-308938095D01*
X267107142Y-308985714D01*
X267011904Y-309033333D01*
X266202380Y-309033333D01*
X267202380Y-310033333D02*
X267202380Y-309461904D01*
X267202380Y-309747619D02*
X266202380Y-309747619D01*
X266345238Y-309652380D01*
X266440476Y-309557142D01*
X266488095Y-309461904D01*
X266202380Y-310938095D02*
X266202380Y-310461904D01*
X266678571Y-310414285D01*
X266630952Y-310461904D01*
X266583333Y-310557142D01*
X266583333Y-310795238D01*
X266630952Y-310890476D01*
X266678571Y-310938095D01*
X266773809Y-310985714D01*
X267011904Y-310985714D01*
X267107142Y-310938095D01*
X267154761Y-310890476D01*
X267202380Y-310795238D01*
X267202380Y-310557142D01*
X267154761Y-310461904D01*
X267107142Y-310414285D01*
%TO.C,J8*%
X207905333Y-296132380D02*
X207905333Y-296846666D01*
X207952952Y-296989523D01*
X208048190Y-297084761D01*
X208191047Y-297132380D01*
X208286285Y-297132380D01*
X207286285Y-296560952D02*
X207381523Y-296513333D01*
X207429142Y-296465714D01*
X207476761Y-296370476D01*
X207476761Y-296322857D01*
X207429142Y-296227619D01*
X207381523Y-296180000D01*
X207286285Y-296132380D01*
X207095809Y-296132380D01*
X207000571Y-296180000D01*
X206952952Y-296227619D01*
X206905333Y-296322857D01*
X206905333Y-296370476D01*
X206952952Y-296465714D01*
X207000571Y-296513333D01*
X207095809Y-296560952D01*
X207286285Y-296560952D01*
X207381523Y-296608571D01*
X207429142Y-296656190D01*
X207476761Y-296751428D01*
X207476761Y-296941904D01*
X207429142Y-297037142D01*
X207381523Y-297084761D01*
X207286285Y-297132380D01*
X207095809Y-297132380D01*
X207000571Y-297084761D01*
X206952952Y-297037142D01*
X206905333Y-296941904D01*
X206905333Y-296751428D01*
X206952952Y-296656190D01*
X207000571Y-296608571D01*
X207095809Y-296560952D01*
D14*
%TO.C,J16*%
X245240000Y-309220000D02*
X245650000Y-309220000D01*
X236610000Y-323892860D02*
X245240000Y-323892860D01*
X245240000Y-314300000D02*
X245650000Y-314300000D01*
X236610000Y-324247145D02*
X245240000Y-324247145D01*
X236610000Y-310130000D02*
X245240000Y-310130000D01*
X236610000Y-323066195D02*
X245240000Y-323066195D01*
X236610000Y-324955715D02*
X245240000Y-324955715D01*
X236610000Y-323656670D02*
X245240000Y-323656670D01*
X236610000Y-317750000D02*
X245240000Y-317750000D01*
X236610000Y-324129050D02*
X245240000Y-324129050D01*
X236610000Y-324601430D02*
X245240000Y-324601430D01*
X236610000Y-323774765D02*
X245240000Y-323774765D01*
X236610000Y-323302385D02*
X245240000Y-323302385D01*
X236610000Y-324483335D02*
X245240000Y-324483335D01*
X236610000Y-325310000D02*
X245240000Y-325310000D01*
X246700000Y-325430000D02*
X247810000Y-325430000D01*
X236610000Y-323420480D02*
X245240000Y-323420480D01*
X245240000Y-316120000D02*
X245650000Y-316120000D01*
X236610000Y-312670000D02*
X245240000Y-312670000D01*
X236610000Y-325430000D02*
X245240000Y-325430000D01*
X245240000Y-319380000D02*
X245650000Y-319380000D01*
X245240000Y-321200000D02*
X245650000Y-321200000D01*
X236610000Y-322830000D02*
X245240000Y-322830000D01*
X236610000Y-324719525D02*
X245240000Y-324719525D01*
X236610000Y-324837620D02*
X245240000Y-324837620D01*
X236610000Y-322948100D02*
X245240000Y-322948100D01*
X236610000Y-315210000D02*
X245240000Y-315210000D01*
X236610000Y-307530000D02*
X245240000Y-307530000D01*
X245240000Y-323740000D02*
X245590000Y-323740000D01*
X245240000Y-313580000D02*
X245650000Y-313580000D01*
X236610000Y-325191905D02*
X245240000Y-325191905D01*
X245240000Y-316840000D02*
X245650000Y-316840000D01*
X245240000Y-324460000D02*
X245590000Y-324460000D01*
X236610000Y-323538575D02*
X245240000Y-323538575D01*
X245240000Y-311040000D02*
X245650000Y-311040000D01*
X245240000Y-311760000D02*
X245650000Y-311760000D01*
X236610000Y-323184290D02*
X245240000Y-323184290D01*
X247810000Y-325430000D02*
X247810000Y-324100000D01*
X245240000Y-321920000D02*
X245650000Y-321920000D01*
X236610000Y-324365240D02*
X245240000Y-324365240D01*
X236610000Y-320290000D02*
X245240000Y-320290000D01*
X236610000Y-325073810D02*
X245240000Y-325073810D01*
X236610000Y-324010955D02*
X245240000Y-324010955D01*
X236610000Y-325430000D02*
X236610000Y-307530000D01*
X245240000Y-308500000D02*
X245650000Y-308500000D01*
X245240000Y-325430000D02*
X245240000Y-307530000D01*
X245240000Y-318660000D02*
X245650000Y-318660000D01*
%TO.C,J18*%
X248900000Y-293120000D02*
X248400000Y-294120000D01*
X244490000Y-295820000D02*
X244490000Y-302320000D01*
X247900000Y-293120000D02*
X248900000Y-293120000D01*
X244490000Y-302320000D02*
X267550000Y-302320000D01*
X253970000Y-295820000D02*
X244490000Y-295820000D01*
X243190000Y-294510000D02*
X243190000Y-303630000D01*
X268850000Y-303630000D02*
X268850000Y-294510000D01*
X248400000Y-294120000D02*
X247900000Y-293120000D01*
X268850000Y-294510000D02*
X243190000Y-294510000D01*
X258070000Y-295820000D02*
X258070000Y-295820000D01*
X267550000Y-302320000D02*
X267550000Y-295820000D01*
X253970000Y-294510000D02*
X253970000Y-295820000D01*
X243190000Y-303630000D02*
X268850000Y-303630000D01*
X258070000Y-295820000D02*
X258070000Y-294510000D01*
X267550000Y-295820000D02*
X258070000Y-295820000D01*
%TO.C,U15*%
X265885000Y-309250000D02*
X265885000Y-312850000D01*
X265885000Y-309250000D02*
X265885000Y-307050000D01*
X259115000Y-309250000D02*
X259115000Y-311450000D01*
X259115000Y-309250000D02*
X259115000Y-307050000D01*
%TO.C,J8*%
X204652000Y-294980000D02*
X196252000Y-294980000D01*
X196252000Y-294980000D02*
X196252000Y-299380000D01*
X196252000Y-299380000D02*
X204652000Y-299380000D01*
X204652000Y-299380000D02*
X204652000Y-294980000D01*
%TD*%
M02*
