%TF.GenerationSoftware,KiCad,Pcbnew,(6.0.0)*%
%TF.CreationDate,2022-02-09T16:21:09+03:00*%
%TF.ProjectId,Steel_form_Dish_washer,53746565-6c5f-4666-9f72-6d5f44697368,rev?*%
%TF.SameCoordinates,Original*%
%TF.FileFunction,Soldermask,Bot*%
%TF.FilePolarity,Negative*%
%FSLAX46Y46*%
G04 Gerber Fmt 4.6, Leading zero omitted, Abs format (unit mm)*
G04 Created by KiCad (PCBNEW (6.0.0)) date 2022-02-09 16:21:09*
%MOMM*%
%LPD*%
G01*
G04 APERTURE LIST*
G04 Aperture macros list*
%AMRoundRect*
0 Rectangle with rounded corners*
0 $1 Rounding radius*
0 $2 $3 $4 $5 $6 $7 $8 $9 X,Y pos of 4 corners*
0 Add a 4 corners polygon primitive as box body*
4,1,4,$2,$3,$4,$5,$6,$7,$8,$9,$2,$3,0*
0 Add four circle primitives for the rounded corners*
1,1,$1+$1,$2,$3*
1,1,$1+$1,$4,$5*
1,1,$1+$1,$6,$7*
1,1,$1+$1,$8,$9*
0 Add four rect primitives between the rounded corners*
20,1,$1+$1,$2,$3,$4,$5,0*
20,1,$1+$1,$4,$5,$6,$7,0*
20,1,$1+$1,$6,$7,$8,$9,0*
20,1,$1+$1,$8,$9,$2,$3,0*%
G04 Aperture macros list end*
%ADD10C,4.300000*%
%ADD11R,2.400000X2.400000*%
%ADD12C,2.400000*%
%ADD13C,1.800000*%
%ADD14R,1.800000X1.800000*%
%ADD15C,2.250000*%
%ADD16R,1.700000X1.700000*%
%ADD17O,1.700000X1.700000*%
%ADD18R,1.600000X1.600000*%
%ADD19C,1.600000*%
%ADD20RoundRect,0.250000X0.600000X-0.600000X0.600000X0.600000X-0.600000X0.600000X-0.600000X-0.600000X0*%
%ADD21C,1.700000*%
%ADD22R,2.000000X1.905000*%
%ADD23O,2.000000X1.905000*%
%ADD24C,2.895000*%
%ADD25RoundRect,0.250000X-0.750000X0.600000X-0.750000X-0.600000X0.750000X-0.600000X0.750000X0.600000X0*%
%ADD26O,2.000000X1.700000*%
%ADD27RoundRect,0.250000X-0.725000X0.600000X-0.725000X-0.600000X0.725000X-0.600000X0.725000X0.600000X0*%
%ADD28O,1.950000X1.700000*%
%ADD29C,2.781000*%
%ADD30R,1.500000X1.500000*%
%ADD31C,1.500000*%
%ADD32R,1.850000X1.850000*%
%ADD33C,1.850000*%
%ADD34O,1.600000X1.600000*%
%ADD35R,2.600000X2.600000*%
%ADD36C,2.600000*%
%ADD37RoundRect,0.250000X-0.600000X0.600000X-0.600000X-0.600000X0.600000X-0.600000X0.600000X0.600000X0*%
%ADD38RoundRect,0.100000X0.100000X-0.637500X0.100000X0.637500X-0.100000X0.637500X-0.100000X-0.637500X0*%
%ADD39R,0.500000X4.000000*%
G04 APERTURE END LIST*
D10*
%TO.C,H8*%
X54300000Y-302100000D03*
%TD*%
D11*
%TO.C,J11*%
X74650000Y-173500000D03*
D12*
X74650000Y-178580000D03*
%TD*%
D10*
%TO.C,H9*%
X156500000Y-302000000D03*
%TD*%
D13*
%TO.C,RV11*%
X107750000Y-257500000D03*
X100250000Y-256200000D03*
%TD*%
D14*
%TO.C,K2*%
X114812500Y-180000000D03*
D13*
X114812500Y-187600000D03*
D15*
X104612500Y-180000000D03*
X96912500Y-180000000D03*
X99512500Y-187600000D03*
%TD*%
D13*
%TO.C,RV5*%
X107500000Y-194100000D03*
X100000000Y-192800000D03*
%TD*%
D16*
%TO.C,J6*%
X265950000Y-192920000D03*
D17*
X265950000Y-195460000D03*
X265950000Y-198000000D03*
X265950000Y-200540000D03*
%TD*%
D11*
%TO.C,J15*%
X74500000Y-227300000D03*
D12*
X74500000Y-232380000D03*
%TD*%
D13*
%TO.C,RV2*%
X123700000Y-80500000D03*
X122400000Y-88000000D03*
%TD*%
D18*
%TO.C,U10*%
X150260000Y-119615000D03*
D19*
X150260000Y-117075000D03*
X150260000Y-114535000D03*
X142640000Y-114535000D03*
X142640000Y-117075000D03*
X142640000Y-119615000D03*
%TD*%
D13*
%TO.C,RV8*%
X114400000Y-96100000D03*
X121900000Y-97400000D03*
%TD*%
D20*
%TO.C,J17*%
X234050000Y-285950000D03*
D21*
X234050000Y-283410000D03*
X236590000Y-285950000D03*
X236590000Y-283410000D03*
X239130000Y-285950000D03*
X239130000Y-283410000D03*
X241670000Y-285950000D03*
X241670000Y-283410000D03*
X244210000Y-285950000D03*
X244210000Y-283410000D03*
X246750000Y-285950000D03*
X246750000Y-283410000D03*
X249290000Y-285950000D03*
X249290000Y-283410000D03*
%TD*%
D22*
%TO.C,D6*%
X99300000Y-227640000D03*
D23*
X99300000Y-225100000D03*
X99300000Y-222560000D03*
%TD*%
D24*
%TO.C,J3*%
X113540000Y-49900000D03*
X123070000Y-49900000D03*
X132600000Y-49900000D03*
X142130000Y-49900000D03*
X151660000Y-49900000D03*
%TD*%
D11*
%TO.C,J9*%
X74900000Y-209100000D03*
D12*
X74900000Y-214180000D03*
%TD*%
D25*
%TO.C,J4*%
X261367500Y-174500000D03*
D26*
X261367500Y-177000000D03*
%TD*%
D13*
%TO.C,RV4*%
X107950000Y-215190000D03*
X100450000Y-213890000D03*
%TD*%
%TO.C,RV12*%
X108000000Y-235500000D03*
X100500000Y-234200000D03*
%TD*%
D22*
%TO.C,D3*%
X94900000Y-93420000D03*
D23*
X94900000Y-95960000D03*
X94900000Y-98500000D03*
%TD*%
D13*
%TO.C,RV9*%
X86750000Y-72200000D03*
X88050000Y-64700000D03*
%TD*%
D14*
%TO.C,K3*%
X115172500Y-156800000D03*
D13*
X115172500Y-164400000D03*
D15*
X104972500Y-156800000D03*
X97272500Y-156800000D03*
X99872500Y-164400000D03*
%TD*%
D22*
%TO.C,D5*%
X98950000Y-249750000D03*
D23*
X98950000Y-247210000D03*
X98950000Y-244670000D03*
%TD*%
D10*
%TO.C,H6*%
X276000000Y-302000000D03*
%TD*%
D13*
%TO.C,RV1*%
X100750000Y-49850000D03*
X93250000Y-48550000D03*
%TD*%
D27*
%TO.C,J20*%
X261400000Y-118850000D03*
D28*
X261400000Y-121350000D03*
X261400000Y-123850000D03*
%TD*%
D14*
%TO.C,K4*%
X151012500Y-181650000D03*
D13*
X151012500Y-189250000D03*
D15*
X140812500Y-181650000D03*
X133112500Y-181650000D03*
X135712500Y-189250000D03*
%TD*%
D18*
%TO.C,U9*%
X150660000Y-108065000D03*
D19*
X150660000Y-105525000D03*
X150660000Y-102985000D03*
X143040000Y-102985000D03*
X143040000Y-105525000D03*
X143040000Y-108065000D03*
%TD*%
D29*
%TO.C,J13*%
X83750000Y-138725000D03*
X83750000Y-148250000D03*
%TD*%
D22*
%TO.C,D1*%
X96050000Y-82590000D03*
D23*
X96050000Y-80050000D03*
X96050000Y-77510000D03*
%TD*%
D18*
%TO.C,U12*%
X143310000Y-226915000D03*
D19*
X143310000Y-224375000D03*
X143310000Y-221835000D03*
X135690000Y-221835000D03*
X135690000Y-224375000D03*
X135690000Y-226915000D03*
%TD*%
D18*
%TO.C,U11*%
X144750000Y-246315000D03*
D19*
X144750000Y-243775000D03*
X144750000Y-241235000D03*
X137130000Y-241235000D03*
X137130000Y-243775000D03*
X137130000Y-246315000D03*
%TD*%
D18*
%TO.C,U8*%
X116160000Y-131715000D03*
D19*
X116160000Y-129175000D03*
X116160000Y-126635000D03*
X108540000Y-126635000D03*
X108540000Y-129175000D03*
X108540000Y-131715000D03*
%TD*%
D10*
%TO.C,H3*%
X260400000Y-283200000D03*
%TD*%
D13*
%TO.C,RV7*%
X107350000Y-147750000D03*
X99850000Y-146450000D03*
%TD*%
D16*
%TO.C,J5*%
X264025000Y-212125000D03*
D17*
X266565000Y-212125000D03*
X264025000Y-214665000D03*
X266565000Y-214665000D03*
X264025000Y-217205000D03*
X266565000Y-217205000D03*
%TD*%
D18*
%TO.C,U7*%
X150960000Y-95815000D03*
D19*
X150960000Y-93275000D03*
X150960000Y-90735000D03*
X143340000Y-90735000D03*
X143340000Y-93275000D03*
X143340000Y-95815000D03*
%TD*%
D30*
%TO.C,PS1*%
X141100000Y-144470000D03*
D31*
X141100000Y-150470000D03*
X174700000Y-138470000D03*
X174700000Y-156470000D03*
%TD*%
D14*
%TO.C,K1*%
X115112500Y-201390000D03*
D13*
X115112500Y-208990000D03*
D15*
X104912500Y-201390000D03*
X97212500Y-201390000D03*
X99812500Y-208990000D03*
%TD*%
D10*
%TO.C,H4*%
X78000000Y-48500000D03*
%TD*%
D11*
%TO.C,J10*%
X74700000Y-192200000D03*
D12*
X74700000Y-197280000D03*
%TD*%
D10*
%TO.C,H2*%
X77600000Y-282900000D03*
%TD*%
%TO.C,H1*%
X259650000Y-48700000D03*
%TD*%
D27*
%TO.C,J1*%
X261367500Y-137300000D03*
D28*
X261367500Y-139800000D03*
X261367500Y-142300000D03*
%TD*%
D29*
%TO.C,J12*%
X83516500Y-83951000D03*
X83516500Y-93476000D03*
X83516500Y-103001000D03*
X83541500Y-112526000D03*
%TD*%
D27*
%TO.C,J19*%
X261600000Y-101150000D03*
D28*
X261600000Y-103650000D03*
X261600000Y-106150000D03*
%TD*%
D13*
%TO.C,RV6*%
X107610000Y-172050000D03*
X100110000Y-170750000D03*
%TD*%
D10*
%TO.C,H5*%
X54000000Y-324100000D03*
%TD*%
D32*
%TO.C,BZ1*%
X172700000Y-283800000D03*
D33*
X177700000Y-283800000D03*
%TD*%
D22*
%TO.C,D2*%
X98495000Y-137840000D03*
D23*
X98495000Y-135300000D03*
X98495000Y-132760000D03*
%TD*%
D13*
%TO.C,RV3*%
X135350000Y-81100000D03*
X142850000Y-82400000D03*
%TD*%
D27*
%TO.C,J2*%
X261467500Y-154650000D03*
D28*
X261467500Y-157150000D03*
X261467500Y-159650000D03*
%TD*%
D13*
%TO.C,RV10*%
X102050000Y-121500000D03*
X94550000Y-120200000D03*
%TD*%
D18*
%TO.C,U13*%
X167565000Y-170600000D03*
D34*
X165025000Y-170600000D03*
X165025000Y-178220000D03*
X167565000Y-178220000D03*
%TD*%
D10*
%TO.C,H7*%
X276000000Y-324000000D03*
%TD*%
D22*
%TO.C,D4*%
X94900000Y-107560000D03*
D23*
X94900000Y-110100000D03*
X94900000Y-112640000D03*
%TD*%
D11*
%TO.C,J14*%
X74700000Y-247850000D03*
D12*
X74700000Y-252930000D03*
%TD*%
D35*
%TO.C,J7*%
X263355000Y-88650000D03*
D36*
X263355000Y-83650000D03*
X263355000Y-78650000D03*
X263355000Y-73650000D03*
%TD*%
D16*
%TO.C,J16*%
X246700000Y-324100000D03*
D17*
X246700000Y-321560000D03*
X246700000Y-319020000D03*
X246700000Y-316480000D03*
X246700000Y-313940000D03*
X246700000Y-311400000D03*
X246700000Y-308860000D03*
%TD*%
D37*
%TO.C,J18*%
X248400000Y-297800000D03*
D21*
X248400000Y-300340000D03*
X250940000Y-297800000D03*
X250940000Y-300340000D03*
X253480000Y-297800000D03*
X253480000Y-300340000D03*
X256020000Y-297800000D03*
X256020000Y-300340000D03*
X258560000Y-297800000D03*
X258560000Y-300340000D03*
X261100000Y-297800000D03*
X261100000Y-300340000D03*
X263640000Y-297800000D03*
X263640000Y-300340000D03*
%TD*%
D38*
%TO.C,U15*%
X265425000Y-312112500D03*
X264775000Y-312112500D03*
X264125000Y-312112500D03*
X263475000Y-312112500D03*
X262825000Y-312112500D03*
X262175000Y-312112500D03*
X261525000Y-312112500D03*
X260875000Y-312112500D03*
X260225000Y-312112500D03*
X259575000Y-312112500D03*
X259575000Y-306387500D03*
X260225000Y-306387500D03*
X260875000Y-306387500D03*
X261525000Y-306387500D03*
X262175000Y-306387500D03*
X262825000Y-306387500D03*
X263475000Y-306387500D03*
X264125000Y-306387500D03*
X264775000Y-306387500D03*
X265425000Y-306387500D03*
%TD*%
D39*
%TO.C,J8*%
X204252000Y-297180000D03*
X203422000Y-297180000D03*
X202592000Y-297180000D03*
X201762000Y-297180000D03*
X200932000Y-297180000D03*
X200102000Y-297180000D03*
X199272000Y-297180000D03*
X198442000Y-297180000D03*
X197612000Y-297180000D03*
X196782000Y-297180000D03*
%TD*%
M02*
