M48
; DRILL file {KiCad (6.0.0)} date Tue Feb  1 18:10:27 2022
; FORMAT={-:-/ absolute / inch / decimal}
; #@! TF.CreationDate,2022-02-01T18:10:27+03:00
; #@! TF.GenerationSoftware,Kicad,Pcbnew,(6.0.0)
; #@! TF.FileFunction,Plated,1,2,PTH
FMAT,2
INCH
; #@! TA.AperFunction,Plated,PTH,ViaDrill
T1C0.0157
; #@! TA.AperFunction,Plated,PTH,ComponentDrill
T2C0.0315
; #@! TA.AperFunction,Plated,PTH,ComponentDrill
T3C0.0335
; #@! TA.AperFunction,Plated,PTH,ComponentDrill
T4C0.0354
; #@! TA.AperFunction,Plated,PTH,ComponentDrill
T5C0.0374
; #@! TA.AperFunction,Plated,PTH,ComponentDrill
T6C0.0394
; #@! TA.AperFunction,Plated,PTH,ComponentDrill
T7C0.0433
; #@! TA.AperFunction,Plated,PTH,ComponentDrill
T8C0.0472
; #@! TA.AperFunction,Plated,PTH,ComponentDrill
T9C0.0591
; #@! TA.AperFunction,Plated,PTH,ComponentDrill
T10C0.0630
; #@! TA.AperFunction,Plated,PTH,ComponentDrill
T11C0.0730
; #@! TA.AperFunction,Plated,PTH,ComponentDrill
T12C0.0760
%
G90
G05
T1
X2.1713Y-12.1555
X2.1713Y-12.4705
X2.1732Y-11.6142
X2.4902Y-11.6142
X2.5039Y-12.4764
X2.5118Y-12.748
X2.7756Y-8.6654
X2.8012Y-7.3189
X2.811Y-6.6378
X2.811Y-7.9744
X2.815Y-1.9272
X2.8169Y-10.4685
X2.8209Y-10.2205
X2.8425Y-9.4469
X2.8858Y-2.189
X2.9035Y-12.4705
X2.9035Y-12.7461
X2.9764Y-11.685
X2.9902Y-12.0118
X3.0039Y-1.6811
X3.0197Y-11.3583
X3.0276Y-10.8366
X3.0571Y-7.9606
X3.063Y-7.313
X3.063Y-8.6575
X3.063Y-9.4469
X3.0886Y-6.6339
X3.1772Y-10.4685
X3.2008Y-2.1949
X3.2835Y-1.6654
X3.4331Y-11.6929
X3.4449Y-12.0157
X3.5492Y-11.3661
X3.563Y-10.8366
X3.6831Y-1.6654
X3.9016Y-11.6909
X3.9055Y-12.0138
X3.9941Y-3.563
X4.0217Y-10.4665
X4.0472Y-3.2795
X4.0531Y-1.6693
X4.1299Y-10.8406
X4.189Y-11.3681
X4.2539Y-5.3563
X4.4606Y-7.5236
X4.5472Y-5.5295
X4.5531Y-5.3583
X4.561Y-5.7697
X4.5906Y-12.0118
X4.6102Y-11.6929
X4.6457Y-7.5551
X4.6496Y-7.9213
X4.7323Y-7.0059
X4.7697Y-7.0059
X4.813Y-9.7185
X4.8248Y-10.8445
X4.8504Y-11.3661
X4.8996Y-4.3543
X4.8996Y-10.4626
X4.9134Y-8.7539
X4.9213Y-4.3878
X4.9528Y-4.4252
X5.3189Y-8.061
X5.3228Y-8.3169
X5.3287Y-9.1594
X5.3504Y-7.7815
X5.3681Y-10.1713
X5.3701Y-10.4606
X5.374Y-9.8701
X5.3996Y-10.8406
X5.3996Y-11.3661
X5.4941Y-11.6969
X5.5256Y-12.0118
X5.6791Y-9.1732
X5.7146Y-6.3268
X5.7264Y-5.1516
X5.7264Y-5.2638
X5.7362Y-5.5394
X5.7421Y-5.9173
X5.748Y-6.1535
X5.8465Y-8.0571
X5.8504Y-7.8031
X5.8622Y-8.3031
X5.8819Y-8.6122
X5.8996Y-9.063
X5.9016Y-9.3386
X5.9035Y-10.4626
X5.9094Y-9.8701
X5.9094Y-10.1693
X5.9272Y-2.7874
X5.937Y-6.4449
X6.0177Y-11.6909
X6.0866Y-10.8366
X6.0866Y-11.3622
X6.1516Y-6.1594
X6.1634Y-6.563
X6.1673Y-5.6201
X6.1673Y-5.9213
X6.1732Y-5.1299
X6.1732Y-5.3071
X6.1732Y-6.3209
X6.2441Y-7.2972
X6.2441Y-7.5827
X6.2707Y-4.1545
X6.3386Y-3.6043
X6.3563Y-2.2185
X6.3583Y-1.6732
X6.3602Y-3.0866
X6.3622Y-2.5413
X6.437Y-8.6181
X6.4409Y-9.5768
X6.4429Y-8.8622
X6.4429Y-9.0748
X6.4429Y-9.2461
X6.4488Y-8.2343
X6.4488Y-8.4232
X6.4528Y-9.4016
X6.4803Y-11.7756
X6.4843Y-12.0197
X6.5669Y-9.8484
X6.5669Y-10.3051
X6.5689Y-10.8091
X6.6043Y-6.0157
X6.6083Y-11.3583
X6.6161Y-6.1516
X6.6417Y-6.3366
X6.6476Y-6.563
X6.6535Y-7.3287
X6.6535Y-7.5886
X6.689Y-7.0709
X6.7598Y-11.7756
X6.7618Y-8.2205
X6.7638Y-11.689
X6.7677Y-8.6555
X6.7697Y-9.2598
X6.7756Y-8.4409
X6.7795Y-8.8642
X6.7854Y-9.0728
X6.7933Y-10.7598
X6.815Y-3.5984
X6.815Y-3.8996
X6.8169Y-2.8071
X6.8406Y-1.9331
X6.8976Y-8.3209
X6.9035Y-5.1988
X6.9035Y-7.815
X6.9783Y-11.7677
X6.9921Y-5.1988
X7.002Y-7.75
X7.002Y-10.3386
X7.0079Y-9.7835
X7.0197Y-7.0925
X7.0531Y-7.0433
X7.0551Y-6.0984
X7.0748Y-6.4291
X7.0827Y-5.1988
X7.0827Y-7.3799
X7.0846Y-6.8228
X7.1102Y-7.0433
X7.1102Y-7.8248
X7.1654Y-11.7677
X7.1732Y-7.0433
X7.2224Y-5.313
X7.2343Y-5.7362
X7.252Y-8.3071
X7.252Y-9.4606
X7.2559Y-8.6122
X7.3268Y-11.687
X7.3327Y-7.8622
X7.3425Y-6.0354
X7.3543Y-1.6693
X7.3563Y-2.2126
X7.3583Y-2.5374
X7.3602Y-3.0807
X7.3622Y-7.0669
X7.3701Y-7.563
X7.372Y-3.6378
X7.376Y-8.0906
X7.3917Y-4.189
X7.3957Y-11.7677
X7.4075Y-8.0374
X7.4114Y-4.4449
X7.437Y-8.002
X7.5236Y-8.5945
X7.5354Y-8.5335
X7.5413Y-6.437
X7.5433Y-9.1811
X7.5472Y-6.6594
X7.5492Y-10.811
X7.5512Y-9.8602
X7.5512Y-10.3268
X7.563Y-11.3661
X7.5866Y-5.7402
X7.5965Y-5.2953
X7.6063Y-8.4469
X7.6201Y-8.8287
X7.626Y-7.876
X7.6378Y-11.7697
X7.6457Y-8.435
X7.6791Y-11.689
X7.7244Y-8.4803
X7.7923Y-4.9144
X7.8031Y-7.8642
X7.8051Y-8.5335
X7.8169Y-11.5866
X7.8307Y-5.5453
X7.8425Y-4.8642
X7.8661Y-11.5866
X7.8681Y-2.5551
X7.8681Y-2.8209
X7.9103Y-11.5921
X7.9144Y-4.8278
X7.9193Y-8.3701
X7.9311Y-7.8701
X7.935Y-7.7441
X7.939Y-7.5984
X7.9494Y-11.5882
X7.9646Y-8.3957
X7.9783Y-5.2913
X7.9921Y-10.815
X7.998Y-6.8012
X8.0Y-6.0492
X8.0Y-8.0295
X8.0059Y-11.3622
X8.0177Y-8.0984
X8.0354Y-8.1417
X8.063Y-8.3543
X8.0669Y-8.4646
X8.0689Y-7.939
X8.0689Y-8.5748
X8.0748Y-8.1791
X8.0925Y-1.6831
X8.1004Y-8.2283
X8.1102Y-6.6201
X8.1122Y-11.626
X8.1161Y-6.0374
X8.1161Y-8.8346
X8.1358Y-5.4705
X8.1476Y-11.7736
X8.1516Y-8.0354
X8.1693Y-9.1732
X8.1732Y-7.7598
X8.1811Y-9.4646
X8.1811Y-9.8524
X8.1831Y-8.689
X8.1831Y-10.3346
X8.187Y-2.8268
X8.1949Y-2.2854
X8.1949Y-2.5551
X8.2106Y-6.5886
X8.2106Y-7.7146
X8.2146Y-11.7756
X8.2362Y-7.8898
X8.2421Y-7.7677
X8.248Y-8.6043
X8.2638Y-8.2874
X8.2677Y-8.3563
X8.2717Y-6.4862
X8.2736Y-5.9213
X8.2776Y-7.6949
X8.2776Y-7.878
X8.2992Y-5.2835
X8.3189Y-11.7717
X8.3287Y-11.63
X8.3386Y-8.0118
X8.3642Y-11.5925
X8.3819Y-6.7303
X8.3839Y-2.5433
X8.3858Y-2.2854
X8.3917Y-11.7717
X8.3996Y-8.0886
X8.4193Y-6.876
X8.4488Y-11.3622
X8.4646Y-5.7264
X8.4646Y-5.9823
X8.5Y-6.8957
X8.5217Y-8.3563
X8.5571Y-5.2756
X8.561Y-8.3228
X8.5846Y-11.6772
X8.6161Y-6.9705
X8.6535Y-11.6102
X8.6594Y-11.7421
X8.687Y-11.3583
X8.7146Y-7.5138
X8.7224Y-9.4646
X8.7224Y-9.8524
X8.752Y-5.4173
X8.7539Y-8.3071
X8.7776Y-11.6299
X8.7815Y-10.3307
X8.7835Y-11.7441
X8.8091Y-10.8228
X8.8189Y-5.6969
X8.8268Y-5.9941
X8.8504Y-6.7402
X8.8642Y-6.9528
X8.8898Y-8.5295
X8.9001Y-11.6952
X8.9075Y-11.3563
X8.9469Y-1.6791
X8.9547Y-1.9823
X8.9913Y-11.6477
X8.9941Y-11.5905
X8.9943Y-11.7383
X9.0315Y-6.4744
X9.0512Y-7.4744
X9.1063Y-3.2323
X9.1142Y-8.2874
X9.1142Y-8.7795
X9.1181Y-3.4291
X9.1181Y-11.6673
X9.1223Y-11.7323
X9.1673Y-5.4134
X9.1831Y-10.5728
X9.1949Y-6.2283
X9.2224Y-6.622
X9.2362Y-10.5945
X9.2579Y-8.563
X9.2712Y-11.6604
X9.3169Y-7.7185
X9.3307Y-10.9528
X9.3409Y-11.6611
X9.3583Y-9.0276
X9.3661Y-11.7756
X9.376Y-6.1476
X9.4256Y-11.5929
X9.4272Y-7.6398
X9.435Y-7.3091
X9.4567Y-8.3071
X9.4606Y-6.4902
X9.4606Y-8.7795
X9.4675Y-11.6348
X9.4764Y-8.5295
X9.5217Y-6.1969
X9.5217Y-6.9134
X9.5236Y-5.5492
X9.5256Y-6.248
X9.5531Y-11.752
X9.5807Y-1.6752
X9.5807Y-1.9744
X9.5886Y-2.2874
X9.5886Y-11.6791
X9.5984Y-2.5531
X9.6063Y-5.439
X9.6161Y-6.1181
X9.6299Y-7.7264
X9.6476Y-8.0315
X9.6909Y-12.8583
X9.7008Y-3.2362
X9.7008Y-3.4331
X9.7047Y-3.6398
X9.7146Y-5.9252
X9.7244Y-6.2087
X9.7247Y-6.1395
X9.7264Y-5.3071
X9.7559Y-5.9941
X9.7627Y-5.3437
X9.7953Y-7.7697
X9.8091Y-12.1161
X9.8091Y-12.3622
X9.811Y-5.7913
X9.813Y-11.6456
X9.8209Y-7.9626
X9.8268Y-5.315
X9.8524Y-4.0709
X9.8681Y-5.3346
X9.8681Y-8.1004
X9.8976Y-7.2402
X9.9016Y-4.0709
X9.9094Y-5.7126
X9.9094Y-7.6181
X9.9409Y-5.6752
X9.9419Y-4.0896
X9.9567Y-1.9783
X9.9606Y-1.6752
X9.9606Y-2.2874
X9.9685Y-4.1161
X9.9744Y-2.5472
X9.9744Y-3.2106
X9.9744Y-3.6555
X9.9744Y-3.9311
X9.9803Y-6.9528
X10.0197Y-4.6949
X10.0197Y-4.7618
X10.0197Y-4.8071
X10.0197Y-4.8504
X10.0335Y-5.3524
X10.0433Y-12.4173
X10.0748Y-10.3051
X10.0748Y-10.5728
X10.0768Y-10.9665
X10.0827Y-8.3799
X10.0827Y-9.6181
X10.0827Y-9.9429
X10.0827Y-10.8071
X10.0886Y-8.6811
X10.0906Y-8.9469
X10.0906Y-9.1988
X10.1161Y-12.5217
X10.128Y-4.7815
X10.1319Y-4.4134
X10.1319Y-12.6378
X10.1319Y-12.8583
X10.2087Y-11.9469
X10.2657Y-7.1339
X10.2776Y-7.4724
X10.2953Y-3.4213
X10.313Y-3.8366
X10.3327Y-10.311
X10.3327Y-10.5787
X10.3346Y-10.9724
X10.3406Y-9.624
X10.3406Y-9.9488
X10.3406Y-10.813
X10.3445Y-11.9705
X10.3484Y-8.9528
X10.3484Y-9.2047
X10.3524Y-8.6496
X10.376Y-4.4055
X10.3898Y-4.7697
X10.4213Y-12.435
X10.4311Y-2.2874
X10.437Y-2.5531
X10.6063Y-12.2461
X10.6161Y-11.7933
X10.6161Y-12.8465
X10.8917Y-11.6358
X10.8957Y-12.2421
X10.8957Y-12.5354
T2
X6.497Y-6.7165
X6.497Y-7.0165
X6.597Y-6.7165
X6.597Y-7.0165
X8.637Y-3.2677
X8.637Y-3.5677
X8.737Y-3.2677
X8.737Y-3.5677
X8.837Y-3.2677
X8.837Y-3.5677
X8.937Y-3.2677
X8.937Y-3.5677
T3
X6.7992Y-11.1732
X6.9961Y-11.1732
T4
X3.4154Y-2.8425
X3.4665Y-2.5472
X3.6713Y-1.9114
X3.7224Y-4.7323
X3.9311Y-5.7657
X3.937Y-7.5906
X3.9413Y-6.7224
X3.9469Y-10.0866
X3.9547Y-8.4209
X3.9567Y-9.2205
X3.9665Y-1.9626
X4.0177Y-4.7835
X4.2264Y-5.8169
X4.2323Y-7.6417
X4.2366Y-6.7736
X4.2421Y-10.1378
X4.25Y-8.472
X4.252Y-9.2717
X4.5039Y-3.7835
X4.7992Y-3.8346
X4.8189Y-3.4646
X4.8701Y-3.1693
X5.3287Y-3.1929
X5.624Y-3.2441
X8.5571Y-2.3386
X8.6004Y-5.0059
X8.6752Y-2.1358
X8.7185Y-4.8031
X9.1102Y-5.0413
X9.1614Y-4.7461
X9.2441Y-2.372
X9.2953Y-2.0768
T5
X10.2901Y-5.4055
X10.2901Y-5.5039
X10.2901Y-5.6024
X10.294Y-6.0886
X10.294Y-6.187
X10.294Y-6.2854
T6
X4.2732Y-4.9856
X4.2732Y-5.0856
X4.2732Y-5.1856
X4.5732Y-4.9856
X4.5732Y-5.0856
X4.5732Y-5.1856
X5.3421Y-8.7337
X5.3421Y-8.8337
X5.3421Y-8.9337
X5.3988Y-9.4974
X5.3988Y-9.5974
X5.3988Y-9.6974
X5.5551Y-5.6878
X5.5551Y-5.924
X5.6157Y-4.5093
X5.6157Y-4.6093
X5.6157Y-4.7093
X5.6315Y-4.0545
X5.6315Y-4.1545
X5.6315Y-4.2545
X5.6421Y-8.7337
X5.6421Y-8.8337
X5.6421Y-8.9337
X5.6433Y-3.5722
X5.6433Y-3.6722
X5.6433Y-3.7722
X5.6988Y-9.4974
X5.6988Y-9.5974
X5.6988Y-9.6974
X5.9157Y-4.5093
X5.9157Y-4.6093
X5.9157Y-4.7093
X5.9315Y-4.0545
X5.9315Y-4.1545
X5.9315Y-4.2545
X5.9433Y-3.5722
X5.9433Y-3.6722
X5.9433Y-3.7722
X6.878Y-5.4516
X6.878Y-6.1602
X9.2146Y-11.1579
X9.2146Y-11.2579
X9.3146Y-11.1579
X9.3146Y-11.2579
X9.4146Y-11.1579
X9.4146Y-11.2579
X9.5146Y-11.1579
X9.5146Y-11.2579
X9.6146Y-11.1579
X9.6146Y-11.2579
X9.7126Y-12.1598
X9.7126Y-12.2598
X9.7126Y-12.3598
X9.7126Y-12.4598
X9.7126Y-12.5598
X9.7126Y-12.6598
X9.7126Y-12.7598
X9.7146Y-11.1579
X9.7146Y-11.2579
X9.7795Y-11.7244
X9.7795Y-11.8244
X9.8146Y-11.1579
X9.8146Y-11.2579
X9.8795Y-11.7244
X9.8795Y-11.8244
X9.9795Y-11.7244
X9.9795Y-11.8244
X10.0795Y-11.7244
X10.0795Y-11.8244
X10.1795Y-11.7244
X10.1795Y-11.8244
X10.2795Y-11.7244
X10.2795Y-11.8244
X10.2901Y-6.8701
X10.2901Y-6.9685
X10.3795Y-11.7244
X10.3795Y-11.8244
X10.3947Y-8.3514
X10.3947Y-8.4514
X10.3947Y-8.5514
X10.4705Y-7.5953
X10.4705Y-7.6953
X10.4705Y-7.7953
X10.4705Y-7.8953
X10.4947Y-8.3514
X10.4947Y-8.4514
X10.4947Y-8.5514
T7
X3.7362Y-3.678
X3.7362Y-3.778
X3.7362Y-3.878
X3.7362Y-4.2346
X3.7362Y-4.3346
X3.7362Y-4.4346
X3.7815Y-3.0516
X3.7815Y-3.1516
X3.7815Y-3.2516
X3.8778Y-5.2268
X3.8778Y-5.3268
X3.8778Y-5.4268
X3.8957Y-9.6327
X3.8957Y-9.7327
X3.8957Y-9.8327
X3.9094Y-8.7622
X3.9094Y-8.8622
X3.9094Y-8.9622
T8
X4.5202Y-7.0866
X4.5202Y-7.3858
X4.532Y-7.9287
X4.532Y-8.228
X4.5344Y-6.1732
X4.5344Y-6.4724
X5.9454Y-7.1516
X5.9454Y-7.4508
T9
X3.8155Y-7.0866
X3.8273Y-7.9287
X3.8296Y-6.1732
X3.9178Y-7.3858
X3.9296Y-8.228
X3.932Y-6.4724
X4.1186Y-7.0866
X4.1304Y-7.9287
X4.1328Y-6.1732
X5.2406Y-7.1516
X5.343Y-7.4508
X5.5438Y-7.1516
X8.627Y-2.747
X8.627Y-3.0423
X8.6417Y-4.0669
X8.6417Y-4.3622
X9.2278Y-2.749
X9.2278Y-3.0423
X9.2425Y-4.0689
X9.2425Y-4.3622
X9.4262Y-2.747
X9.4262Y-3.0423
X9.4409Y-4.0669
X9.4409Y-4.3622
X9.6246Y-2.751
X9.6246Y-3.0423
X9.6394Y-4.0709
X9.6394Y-4.3622
T10
X2.9331Y-8.9488
X2.9331Y-9.1488
X2.939Y-6.8307
X2.939Y-7.0307
X2.9409Y-7.5669
X2.9409Y-7.7669
X2.9409Y-9.7579
X2.9409Y-9.9579
X2.9488Y-8.2323
X2.9488Y-8.4323
T11
X3.2881Y-3.3052
X3.2881Y-3.6802
X3.2881Y-4.0552
X3.289Y-4.4302
X3.2972Y-5.4616
X3.2972Y-5.8366
X10.3648Y-2.9056
X10.3648Y-3.2806
X10.3648Y-3.6556
X10.3658Y-4.0306
T12
X4.4701Y-1.9646
X4.8453Y-1.9646
X5.2205Y-1.9646
X5.5957Y-1.9646
X5.9709Y-1.9646
T0
M30
