M48
; DRILL file {KiCad (6.0.2)} date Tue Feb 22 17:41:11 2022
; FORMAT={-:-/ absolute / inch / decimal}
; #@! TF.CreationDate,2022-02-22T17:41:11+03:00
; #@! TF.GenerationSoftware,Kicad,Pcbnew,(6.0.2)
; #@! TF.FileFunction,Plated,1,4,PTH
FMAT,2
INCH
; #@! TA.AperFunction,Plated,PTH,ViaDrill
T1C0.0118
; #@! TA.AperFunction,Plated,PTH,ViaDrill
T2C0.0157
; #@! TA.AperFunction,Plated,PTH,ComponentDrill
T3C0.0315
; #@! TA.AperFunction,Plated,PTH,ComponentDrill
T4C0.0335
; #@! TA.AperFunction,Plated,PTH,ComponentDrill
T5C0.0354
; #@! TA.AperFunction,Plated,PTH,ComponentDrill
T6C0.0374
; #@! TA.AperFunction,Plated,PTH,ComponentDrill
T7C0.0394
; #@! TA.AperFunction,Plated,PTH,ComponentDrill
T8C0.0433
; #@! TA.AperFunction,Plated,PTH,ComponentDrill
T9C0.0472
; #@! TA.AperFunction,Plated,PTH,ComponentDrill
T10C0.0512
; #@! TA.AperFunction,Plated,PTH,ComponentDrill
T11C0.0591
; #@! TA.AperFunction,Plated,PTH,ComponentDrill
T12C0.0630
; #@! TA.AperFunction,Plated,PTH,ComponentDrill
T13C0.0730
; #@! TA.AperFunction,Plated,PTH,ComponentDrill
T14C0.0760
%
G90
G05
T1
X3.25Y-9.4183
X3.2717Y-8.7352
X3.6594Y-9.5059
X3.7175Y-9.5404
X3.7726Y-9.5059
X4.0502Y-9.8533
X4.06Y-9.1634
X4.8307Y-8.7234
X5.1998Y-9.1339
X6.1102Y-3.0512
X6.1102Y-3.1201
X6.1102Y-3.1988
X6.1693Y-3.0512
X6.1693Y-3.1201
X6.1693Y-3.1988
X6.2283Y-3.0512
X6.2283Y-3.1201
X6.2283Y-3.1988
X6.2677Y-3.7894
X6.3258Y-3.7589
X6.4114Y-3.3425
X6.4577Y-5.5039
X6.5404Y-3.2972
X6.6594Y-5.4734
X6.6811Y-9.1388
X6.6831Y-8.7008
X6.7402Y-4.2992
X6.8858Y-5.4744
X6.8937Y-4.0394
X6.8957Y-4.0728
X6.9045Y-3.3337
X6.9321Y-4.2825
X6.935Y-4.1122
X6.937Y-4.0256
X6.9419Y-4.2333
X7.0285Y-4.1122
X7.0295Y-4.0305
X7.0295Y-4.2372
X7.1122Y-4.2343
X7.4093Y-8.7796
X7.4104Y-8.811
X7.4105Y-8.7481
X7.4606Y-8.8445
X7.5236Y-5.1063
X7.5236Y-5.2795
X7.5315Y-8.7057
X7.561Y-8.8917
X7.565Y-4.8484
X7.5728Y-5.1063
X7.5728Y-5.2815
X7.5906Y-4.9882
X7.5945Y-9.0354
X7.6171Y-8.8199
X7.6417Y-5.189
X7.6486Y-9.1427
X7.6535Y-5.3051
X7.689Y-5.4213
X7.69Y-4.3976
X7.6909Y-4.4508
X7.6969Y-4.5
X7.6969Y-4.5591
X7.7697Y-4.4183
X7.7697Y-5.5394
X7.7727Y-5.4163
X7.8071Y-5.6083
X7.8091Y-4.9843
X7.8346Y-4.3811
X7.878Y-8.7097
X7.8858Y-4.939
X7.9035Y-5.1142
X7.9203Y-8.7097
X7.9427Y-4.878
X7.9508Y-5.0472
X7.9518Y-8.7097
X7.998Y-5.0472
X8.0827Y-5.124
X8.1398Y-5.3524
X8.1457Y-5.2391
X8.1558Y-4.1125
X8.2146Y-5.3396
X8.2323Y-5.124
X8.2343Y-4.7795
X8.2913Y-5.189
X8.3602Y-4.7776
X8.3969Y-5.0327
X8.4134Y-4.75
X8.4154Y-4.7165
X8.4262Y-4.8642
X8.4265Y-5.0432
X8.4566Y-4.8558
X8.4606Y-5.0335
X8.4626Y-4.0335
X8.4921Y-5.3878
X8.5079Y-5.2126
X8.5315Y-5.6102
X8.5492Y-4.6841
X8.561Y-4.9055
X8.5689Y-4.4843
X8.5728Y-4.874
X8.5827Y-5.0492
X8.6043Y-5.2126
X8.6093Y-5.0138
X8.6112Y-4.9803
X8.6151Y-4.3996
X8.622Y-3.7165
X8.622Y-3.8681
X8.626Y-4.939
X8.6378Y-3.9783
X8.6673Y-4.935
X8.6713Y-3.9783
X8.6988Y-4.9311
X8.7224Y-4.9626
X8.7224Y-5.0787
X8.7244Y-3.9783
X8.7283Y-4.1535
X8.7451Y-4.9921
X8.747Y-4.7333
X8.7509Y-4.378
X8.7598Y-4.1518
X8.7598Y-3.998
X8.7677Y-5.0709
X8.8031Y-5.0768
X8.8265Y-5.3403
X8.8327Y-4.7421
X8.8346Y-4.7756
X8.8346Y-4.9567
X8.8406Y-5.6142
X8.8425Y-5.065
X8.8524Y-5.3209
X8.8878Y-5.2244
X8.8996Y-5.3642
X8.9055Y-5.4184
X8.9715Y-5.124
X8.972Y-5.0512
X8.9902Y-4.7618
X8.9941Y-5.3144
X8.9961Y-5.2651
X9.0098Y-5.5199
X9.0138Y-5.1772
X9.0197Y-5.0768
X9.029Y-4.7366
X9.0413Y-3.8287
X9.0512Y-5.0472
X9.0679Y-5.6122
X9.1004Y-5.1496
X9.1081Y-5.0899
X9.1476Y-4.8406
X9.1753Y-5.1228
X9.1772Y-4.8976
X9.185Y-5.378
X9.2028Y-4.7106
X9.2126Y-5.124
X9.2224Y-4.9888
X9.2795Y-5.4823
X9.3167Y-8.8469
X9.3268Y-4.7146
X9.3268Y-5.4803
X9.3287Y-8.876
X9.3759Y-8.874
X9.4026Y-8.8455
X9.4291Y-4.4587
X9.4339Y-8.8429
X9.4573Y-4.3425
X9.4573Y-4.7736
X9.4653Y-8.8402
X9.4843Y-3.8512
X9.4966Y-8.8368
X9.5236Y-4.0807
X9.5433Y-4.4272
X9.5572Y-3.869
X9.5768Y-4.6673
X9.5807Y-4.1673
X9.624Y-5.1654
X9.626Y-5.2244
X9.6299Y-4.8091
X9.6319Y-4.3051
X9.6358Y-4.7598
X9.687Y-5.5295
X9.7904Y-3.7283
X9.7913Y-4.185
X9.7923Y-3.7835
X9.7943Y-3.8376
X9.7972Y-4.1102
X9.8425Y-3.7333
X9.8435Y-3.8406
X9.8445Y-5.6476
X9.8465Y-3.7844
X9.8484Y-5.7441
X9.8701Y-4.0846
X9.8839Y-3.7343
X9.8888Y-3.7815
X9.8898Y-3.8386
X9.9006Y-8.8524
X10.3819Y-3.8386
X10.4035Y-3.869
X10.5118Y-8.8533
X10.5945Y-3.8829
X10.6122Y-3.8484
X11.0049Y-9.372
X11.0118Y-9.4203
X11.0522Y-9.4646
X11.0699Y-9.7018
X11.1043Y-9.6496
X11.1122Y-9.5492
X11.1939Y-9.4547
X11.1982Y-9.1362
X11.2333Y-4.6506
X11.2874Y-4.7047
X11.2982Y-9.4163
X11.2982Y-9.4646
X11.4183Y-9.0128
X11.4193Y-9.1526
X11.4238Y-8.9818
X11.4646Y-9.8474
X11.4665Y-9.624
X11.502Y-9.2411
X11.5297Y-9.0141
X11.5423Y-8.9852
X11.6604Y-8.8209
X11.6702Y-8.9685
X11.7008Y-8.9341
X11.9252Y-9.2411
X11.9272Y-9.626
T2
X9.0965Y-5.3169
X9.097Y-5.21
X9.6339Y-4.2598
T3
X6.374Y-4.1142
X6.374Y-4.2142
X6.674Y-4.1142
X6.674Y-4.2142
T4
X7.3051Y-4.1122
X7.502Y-4.1122
T5
X5.7421Y-4.2815
X5.7441Y-3.5925
X5.7461Y-4.9744
X5.7933Y-3.9862
X5.7953Y-3.2972
X5.7972Y-4.6791
X6.0541Y-3.665
X6.1053Y-3.3697
X7.0492Y-3.0876
X7.1004Y-2.7923
X7.9035Y-3.6457
X7.9547Y-3.3504
X8.8307Y-3.6437
X8.8819Y-3.3484
X9.7697Y-3.4508
X9.8209Y-3.1555
X10.687Y-3.6358
X10.7382Y-3.3406
X10.8138Y-5.0866
X10.8276Y-4.1083
X10.8276Y-4.5965
X11.1091Y-5.1378
X11.1228Y-4.1594
X11.1228Y-4.6476
T6
X7.3366Y-5.729
X7.435Y-5.729
X7.5335Y-5.729
X7.8957Y-5.729
X7.9941Y-5.729
X8.0925Y-5.729
X8.4055Y-5.7244
X8.5039Y-5.7244
X8.6024Y-5.7244
X9.3819Y-5.729
X9.4803Y-5.729
X9.5787Y-5.729
T7
X6.0773Y-4.7335
X6.0773Y-4.9697
X6.5035Y-3.4128
X6.5035Y-3.5128
X6.5035Y-3.6128
X6.8035Y-3.4128
X6.8035Y-3.5128
X6.8035Y-3.6128
X7.4001Y-4.4972
X7.4001Y-5.2059
X7.9087Y-4.1599
X7.9087Y-4.2599
X8.0087Y-4.1599
X8.0087Y-4.2599
X8.1087Y-4.1599
X8.1087Y-4.2599
X8.2087Y-4.1599
X8.2087Y-4.2599
X8.3087Y-4.1599
X8.3087Y-4.2599
X8.3618Y-3.3577
X8.3618Y-3.4577
X8.3618Y-3.5577
X8.4087Y-4.1599
X8.4087Y-4.2599
X8.5087Y-4.1599
X8.5087Y-4.2599
X8.6618Y-3.3577
X8.6618Y-3.4577
X8.6618Y-3.5577
X8.9094Y-5.729
X9.0079Y-5.729
X9.0533Y-3.978
X9.0533Y-4.078
X9.0533Y-4.178
X9.0533Y-4.278
X9.289Y-3.3797
X9.289Y-3.4797
X9.289Y-3.5797
X9.3262Y-4.0628
X9.3262Y-4.1628
X9.3262Y-4.2628
X9.4262Y-4.0628
X9.4262Y-4.1628
X9.4262Y-4.2628
X9.589Y-3.3797
X9.589Y-3.4797
X9.589Y-3.5797
X10.8898Y-9.2524
X10.8898Y-9.3524
X10.8898Y-9.4524
X10.8898Y-9.5524
X10.8898Y-9.6524
X10.8898Y-9.7524
X10.8898Y-9.8524
X10.9567Y-8.8169
X10.9567Y-8.9169
X11.0567Y-8.8169
X11.0567Y-8.9169
X11.1567Y-8.8169
X11.1567Y-8.9169
X11.1575Y-3.374
X11.1575Y-3.474
X11.1575Y-3.574
X11.2567Y-8.8169
X11.2567Y-8.9169
X11.3567Y-8.8169
X11.3567Y-8.9169
X11.4567Y-8.8169
X11.4567Y-8.9169
X11.4575Y-3.374
X11.4575Y-3.474
X11.4575Y-3.574
X11.5567Y-8.8169
X11.5567Y-8.9169
T8
X6.3581Y-3.4898
X6.3581Y-3.5898
X6.3581Y-3.6898
X8.2146Y-3.4224
X8.2146Y-3.5224
X8.2146Y-3.6224
X9.1378Y-3.4413
X9.1378Y-3.5413
X9.1378Y-3.6413
X11.0043Y-3.4341
X11.0043Y-3.5341
X11.0043Y-3.6341
T9
X6.5541Y-3.216
X6.8533Y-3.216
X9.8044Y-4.9831
X9.8044Y-5.2823
X9.8099Y-4.5169
X9.8099Y-4.8161
X9.8143Y-4.0181
X9.8143Y-4.3173
X10.0217Y-3.5015
X10.1457Y-5.5059
X10.1457Y-5.8051
X10.3209Y-3.5015
T10
X6.3543Y-5.7736
X6.5512Y-5.7736
X6.748Y-5.7736
X6.9449Y-5.7736
T11
X6.5541Y-2.6137
X6.8533Y-2.5113
X6.8533Y-2.8145
X10.0217Y-2.8991
X10.206Y-5.2823
X10.2115Y-4.8161
X10.2158Y-4.3173
X10.3209Y-2.7968
X10.3209Y-3.0999
X10.4068Y-4.9831
X10.4123Y-4.5169
X10.4166Y-4.0181
X10.5092Y-5.2823
X10.5147Y-4.8161
X10.519Y-4.3173
X10.5472Y-5.8051
X10.748Y-5.5059
X10.8504Y-5.8051
T12
X6.0907Y-2.5079
X6.2907Y-2.5079
X9.7994Y-2.5157
X9.9994Y-2.5157
X11.8327Y-3.975
X11.8327Y-4.175
X11.8386Y-4.5203
X11.8386Y-4.7203
X11.8386Y-5.0591
X11.8386Y-5.2591
T13
X7.9734Y-2.8816
X8.3484Y-2.8806
X8.7234Y-2.8806
X9.0984Y-2.8806
X10.8105Y-2.8688
X11.1855Y-2.8688
T14
X5.2638Y-3.3933
X5.2638Y-3.7685
X5.2638Y-4.1437
X5.2638Y-4.5189
X5.2638Y-4.8941
T0
M30
