%TF.GenerationSoftware,KiCad,Pcbnew,(6.0.0)*%
%TF.CreationDate,2022-02-09T16:21:09+03:00*%
%TF.ProjectId,Steel_form_Dish_washer,53746565-6c5f-4666-9f72-6d5f44697368,rev?*%
%TF.SameCoordinates,Original*%
%TF.FileFunction,Soldermask,Top*%
%TF.FilePolarity,Negative*%
%FSLAX46Y46*%
G04 Gerber Fmt 4.6, Leading zero omitted, Abs format (unit mm)*
G04 Created by KiCad (PCBNEW (6.0.0)) date 2022-02-09 16:21:09*
%MOMM*%
%LPD*%
G01*
G04 APERTURE LIST*
G04 Aperture macros list*
%AMRoundRect*
0 Rectangle with rounded corners*
0 $1 Rounding radius*
0 $2 $3 $4 $5 $6 $7 $8 $9 X,Y pos of 4 corners*
0 Add a 4 corners polygon primitive as box body*
4,1,4,$2,$3,$4,$5,$6,$7,$8,$9,$2,$3,0*
0 Add four circle primitives for the rounded corners*
1,1,$1+$1,$2,$3*
1,1,$1+$1,$4,$5*
1,1,$1+$1,$6,$7*
1,1,$1+$1,$8,$9*
0 Add four rect primitives between the rounded corners*
20,1,$1+$1,$2,$3,$4,$5,0*
20,1,$1+$1,$4,$5,$6,$7,0*
20,1,$1+$1,$6,$7,$8,$9,0*
20,1,$1+$1,$8,$9,$2,$3,0*%
%AMRotRect*
0 Rectangle, with rotation*
0 The origin of the aperture is its center*
0 $1 length*
0 $2 width*
0 $3 Rotation angle, in degrees counterclockwise*
0 Add horizontal line*
21,1,$1,$2,0,0,$3*%
%AMFreePoly0*
4,1,14,0.354215,0.088284,0.450784,-0.008285,0.462500,-0.036569,0.462500,-0.060000,0.450784,-0.088284,0.422500,-0.100000,-0.422500,-0.100000,-0.450784,-0.088284,-0.462500,-0.060000,-0.462500,0.060000,-0.450784,0.088284,-0.422500,0.100000,0.325931,0.100000,0.354215,0.088284,0.354215,0.088284,$1*%
%AMFreePoly1*
4,1,14,0.450784,0.088284,0.462500,0.060000,0.462500,0.036569,0.450784,0.008285,0.354215,-0.088284,0.325931,-0.100000,-0.422500,-0.100000,-0.450784,-0.088284,-0.462500,-0.060000,-0.462500,0.060000,-0.450784,0.088284,-0.422500,0.100000,0.422500,0.100000,0.450784,0.088284,0.450784,0.088284,$1*%
%AMFreePoly2*
4,1,14,0.088284,0.450784,0.100000,0.422500,0.100000,-0.422500,0.088284,-0.450784,0.060000,-0.462500,-0.060000,-0.462500,-0.088284,-0.450784,-0.100000,-0.422500,-0.100000,0.325931,-0.088284,0.354215,0.008285,0.450784,0.036569,0.462500,0.060000,0.462500,0.088284,0.450784,0.088284,0.450784,$1*%
%AMFreePoly3*
4,1,14,-0.008285,0.450784,0.088284,0.354215,0.100000,0.325931,0.100000,-0.422500,0.088284,-0.450784,0.060000,-0.462500,-0.060000,-0.462500,-0.088284,-0.450784,-0.100000,-0.422500,-0.100000,0.422500,-0.088284,0.450784,-0.060000,0.462500,-0.036569,0.462500,-0.008285,0.450784,-0.008285,0.450784,$1*%
%AMFreePoly4*
4,1,14,0.450784,0.088284,0.462500,0.060000,0.462500,-0.060000,0.450784,-0.088284,0.422500,-0.100000,-0.325931,-0.100000,-0.354215,-0.088284,-0.450784,0.008285,-0.462500,0.036569,-0.462500,0.060000,-0.450784,0.088284,-0.422500,0.100000,0.422500,0.100000,0.450784,0.088284,0.450784,0.088284,$1*%
%AMFreePoly5*
4,1,14,0.450784,0.088284,0.462500,0.060000,0.462500,-0.060000,0.450784,-0.088284,0.422500,-0.100000,-0.422500,-0.100000,-0.450784,-0.088284,-0.462500,-0.060000,-0.462500,-0.036569,-0.450784,-0.008285,-0.354215,0.088284,-0.325931,0.100000,0.422500,0.100000,0.450784,0.088284,0.450784,0.088284,$1*%
%AMFreePoly6*
4,1,14,0.088284,0.450784,0.100000,0.422500,0.100000,-0.325931,0.088284,-0.354215,-0.008285,-0.450784,-0.036569,-0.462500,-0.060000,-0.462500,-0.088284,-0.450784,-0.100000,-0.422500,-0.100000,0.422500,-0.088284,0.450784,-0.060000,0.462500,0.060000,0.462500,0.088284,0.450784,0.088284,0.450784,$1*%
%AMFreePoly7*
4,1,14,0.088284,0.450784,0.100000,0.422500,0.100000,-0.422500,0.088284,-0.450784,0.060000,-0.462500,0.036569,-0.462500,0.008285,-0.450784,-0.088284,-0.354215,-0.100000,-0.325931,-0.100000,0.422500,-0.088284,0.450784,-0.060000,0.462500,0.060000,0.462500,0.088284,0.450784,0.088284,0.450784,$1*%
G04 Aperture macros list end*
%ADD10RoundRect,0.200000X0.200000X0.275000X-0.200000X0.275000X-0.200000X-0.275000X0.200000X-0.275000X0*%
%ADD11RoundRect,0.135000X-0.135000X-0.185000X0.135000X-0.185000X0.135000X0.185000X-0.135000X0.185000X0*%
%ADD12RoundRect,0.150000X0.587500X0.150000X-0.587500X0.150000X-0.587500X-0.150000X0.587500X-0.150000X0*%
%ADD13C,4.300000*%
%ADD14R,2.400000X2.400000*%
%ADD15C,2.400000*%
%ADD16C,1.800000*%
%ADD17R,1.800000X1.800000*%
%ADD18C,2.250000*%
%ADD19RoundRect,0.140000X0.170000X-0.140000X0.170000X0.140000X-0.170000X0.140000X-0.170000X-0.140000X0*%
%ADD20RoundRect,0.140000X0.140000X0.170000X-0.140000X0.170000X-0.140000X-0.170000X0.140000X-0.170000X0*%
%ADD21R,1.700000X1.700000*%
%ADD22O,1.700000X1.700000*%
%ADD23R,1.600000X1.600000*%
%ADD24C,1.600000*%
%ADD25R,2.000000X1.500000*%
%ADD26R,2.000000X3.800000*%
%ADD27R,0.400000X0.600000*%
%ADD28R,0.500000X0.700000*%
%ADD29RoundRect,0.140000X-0.219203X-0.021213X-0.021213X-0.219203X0.219203X0.021213X0.021213X0.219203X0*%
%ADD30RoundRect,0.250000X0.600000X-0.600000X0.600000X0.600000X-0.600000X0.600000X-0.600000X-0.600000X0*%
%ADD31C,1.700000*%
%ADD32RoundRect,0.135000X-0.185000X0.135000X-0.185000X-0.135000X0.185000X-0.135000X0.185000X0.135000X0*%
%ADD33R,2.000000X1.905000*%
%ADD34O,2.000000X1.905000*%
%ADD35C,2.895000*%
%ADD36RoundRect,0.135000X0.185000X-0.135000X0.185000X0.135000X-0.185000X0.135000X-0.185000X-0.135000X0*%
%ADD37RoundRect,0.200000X-0.275000X0.200000X-0.275000X-0.200000X0.275000X-0.200000X0.275000X0.200000X0*%
%ADD38RoundRect,0.140000X0.021213X-0.219203X0.219203X-0.021213X-0.021213X0.219203X-0.219203X0.021213X0*%
%ADD39RoundRect,0.140000X-0.140000X-0.170000X0.140000X-0.170000X0.140000X0.170000X-0.140000X0.170000X0*%
%ADD40RoundRect,0.250000X-0.262500X-0.450000X0.262500X-0.450000X0.262500X0.450000X-0.262500X0.450000X0*%
%ADD41RoundRect,0.200000X-0.200000X-0.275000X0.200000X-0.275000X0.200000X0.275000X-0.200000X0.275000X0*%
%ADD42RoundRect,0.250000X-0.750000X0.600000X-0.750000X-0.600000X0.750000X-0.600000X0.750000X0.600000X0*%
%ADD43O,2.000000X1.700000*%
%ADD44RoundRect,0.075000X0.415425X0.521491X-0.521491X-0.415425X-0.415425X-0.521491X0.521491X0.415425X0*%
%ADD45RoundRect,0.075000X-0.415425X0.521491X-0.521491X0.415425X0.415425X-0.521491X0.521491X-0.415425X0*%
%ADD46RoundRect,0.135000X0.135000X0.185000X-0.135000X0.185000X-0.135000X-0.185000X0.135000X-0.185000X0*%
%ADD47R,1.000000X0.800000*%
%ADD48RoundRect,0.140000X-0.021213X0.219203X-0.219203X0.021213X0.021213X-0.219203X0.219203X-0.021213X0*%
%ADD49RoundRect,0.250000X-0.550000X1.250000X-0.550000X-1.250000X0.550000X-1.250000X0.550000X1.250000X0*%
%ADD50RoundRect,0.140000X0.219203X0.021213X0.021213X0.219203X-0.219203X-0.021213X-0.021213X-0.219203X0*%
%ADD51RoundRect,0.250000X-0.725000X0.600000X-0.725000X-0.600000X0.725000X-0.600000X0.725000X0.600000X0*%
%ADD52O,1.950000X1.700000*%
%ADD53C,2.781000*%
%ADD54RoundRect,0.012800X0.147200X-0.407200X0.147200X0.407200X-0.147200X0.407200X-0.147200X-0.407200X0*%
%ADD55RoundRect,0.012800X0.407200X-0.147200X0.407200X0.147200X-0.407200X0.147200X-0.407200X-0.147200X0*%
%ADD56R,3.250000X3.250000*%
%ADD57R,1.800000X1.100000*%
%ADD58R,1.500000X1.500000*%
%ADD59C,1.500000*%
%ADD60RoundRect,0.218750X0.256250X-0.218750X0.256250X0.218750X-0.256250X0.218750X-0.256250X-0.218750X0*%
%ADD61R,2.200000X1.500000*%
%ADD62R,2.200000X3.800000*%
%ADD63RoundRect,0.218750X0.218750X0.256250X-0.218750X0.256250X-0.218750X-0.256250X0.218750X-0.256250X0*%
%ADD64R,1.850000X1.850000*%
%ADD65C,1.850000*%
%ADD66RotRect,1.400000X1.200000X225.000000*%
%ADD67O,1.600000X1.600000*%
%ADD68FreePoly0,180.000000*%
%ADD69RoundRect,0.050000X0.412500X0.050000X-0.412500X0.050000X-0.412500X-0.050000X0.412500X-0.050000X0*%
%ADD70FreePoly1,180.000000*%
%ADD71FreePoly2,180.000000*%
%ADD72RoundRect,0.050000X0.050000X0.412500X-0.050000X0.412500X-0.050000X-0.412500X0.050000X-0.412500X0*%
%ADD73FreePoly3,180.000000*%
%ADD74FreePoly4,180.000000*%
%ADD75FreePoly5,180.000000*%
%ADD76FreePoly6,180.000000*%
%ADD77FreePoly7,180.000000*%
%ADD78R,2.600000X2.600000*%
%ADD79C,2.600000*%
%ADD80RoundRect,0.250000X-0.600000X0.600000X-0.600000X-0.600000X0.600000X-0.600000X0.600000X0.600000X0*%
G04 APERTURE END LIST*
D10*
%TO.C,R51*%
X200525000Y-232050000D03*
X198875000Y-232050000D03*
%TD*%
%TO.C,R50*%
X200550000Y-234850000D03*
X198900000Y-234850000D03*
%TD*%
%TO.C,R49*%
X200425000Y-229150000D03*
X198775000Y-229150000D03*
%TD*%
D11*
%TO.C,R48*%
X255890000Y-178450000D03*
X256910000Y-178450000D03*
%TD*%
D12*
%TO.C,Q5*%
X121275000Y-166400000D03*
X121275000Y-164500000D03*
X119400000Y-165450000D03*
%TD*%
D13*
%TO.C,H8*%
X54300000Y-302100000D03*
%TD*%
D14*
%TO.C,J11*%
X74650000Y-173500000D03*
D15*
X74650000Y-178580000D03*
%TD*%
D13*
%TO.C,H9*%
X156500000Y-302000000D03*
%TD*%
D16*
%TO.C,RV11*%
X107750000Y-257500000D03*
X100250000Y-256200000D03*
%TD*%
D17*
%TO.C,K2*%
X114812500Y-180000000D03*
D16*
X114812500Y-187600000D03*
D18*
X104612500Y-180000000D03*
X96912500Y-180000000D03*
X99512500Y-187600000D03*
%TD*%
D12*
%TO.C,Q3*%
X119937500Y-209740000D03*
X119937500Y-207840000D03*
X118062500Y-208790000D03*
%TD*%
D19*
%TO.C,C21*%
X183300000Y-158230000D03*
X183300000Y-157270000D03*
%TD*%
D16*
%TO.C,RV5*%
X107500000Y-194100000D03*
X100000000Y-192800000D03*
%TD*%
D20*
%TO.C,C14*%
X244160000Y-140150000D03*
X243200000Y-140150000D03*
%TD*%
D21*
%TO.C,J6*%
X265950000Y-192920000D03*
D22*
X265950000Y-195460000D03*
X265950000Y-198000000D03*
X265950000Y-200540000D03*
%TD*%
D11*
%TO.C,R32*%
X146740000Y-246300000D03*
X147760000Y-246300000D03*
%TD*%
D14*
%TO.C,J15*%
X74500000Y-227300000D03*
D15*
X74500000Y-232380000D03*
%TD*%
D16*
%TO.C,RV2*%
X123700000Y-80500000D03*
X122400000Y-88000000D03*
%TD*%
D23*
%TO.C,U10*%
X150260000Y-119615000D03*
D24*
X150260000Y-117075000D03*
X150260000Y-114535000D03*
X142640000Y-114535000D03*
X142640000Y-117075000D03*
X142640000Y-119615000D03*
%TD*%
D25*
%TO.C,Q1*%
X247750000Y-73550000D03*
X247750000Y-71250000D03*
D26*
X241450000Y-71250000D03*
D25*
X247750000Y-68950000D03*
%TD*%
D27*
%TO.C,U16*%
X252085000Y-313280000D03*
X252085000Y-314630000D03*
D28*
X252810000Y-313280000D03*
X252810000Y-314630000D03*
D27*
X253535000Y-313280000D03*
X253535000Y-314630000D03*
%TD*%
D11*
%TO.C,R35*%
X132540000Y-226950000D03*
X133560000Y-226950000D03*
%TD*%
D19*
%TO.C,C13*%
X189400000Y-153580000D03*
X189400000Y-152620000D03*
%TD*%
D16*
%TO.C,RV8*%
X114400000Y-96100000D03*
X121900000Y-97400000D03*
%TD*%
D29*
%TO.C,C9*%
X209010589Y-219410589D03*
X209689411Y-220089411D03*
%TD*%
D30*
%TO.C,J17*%
X234050000Y-285950000D03*
D31*
X234050000Y-283410000D03*
X236590000Y-285950000D03*
X236590000Y-283410000D03*
X239130000Y-285950000D03*
X239130000Y-283410000D03*
X241670000Y-285950000D03*
X241670000Y-283410000D03*
X244210000Y-285950000D03*
X244210000Y-283410000D03*
X246750000Y-285950000D03*
X246750000Y-283410000D03*
X249290000Y-285950000D03*
X249290000Y-283410000D03*
%TD*%
D32*
%TO.C,R39*%
X209500000Y-234940000D03*
X209500000Y-235960000D03*
%TD*%
D33*
%TO.C,D6*%
X99300000Y-227640000D03*
D34*
X99300000Y-225100000D03*
X99300000Y-222560000D03*
%TD*%
D35*
%TO.C,J3*%
X113540000Y-49900000D03*
X123070000Y-49900000D03*
X132600000Y-49900000D03*
X142130000Y-49900000D03*
X151660000Y-49900000D03*
%TD*%
D29*
%TO.C,C3*%
X215610589Y-213210589D03*
X216289411Y-213889411D03*
%TD*%
D36*
%TO.C,R20*%
X123037500Y-166760000D03*
X123037500Y-165740000D03*
%TD*%
D11*
%TO.C,R4*%
X255990000Y-177050000D03*
X257010000Y-177050000D03*
%TD*%
D14*
%TO.C,J9*%
X74900000Y-209100000D03*
D15*
X74900000Y-214180000D03*
%TD*%
D37*
%TO.C,R11*%
X65200000Y-309250000D03*
X65200000Y-310900000D03*
%TD*%
D38*
%TO.C,C5*%
X216010589Y-210389411D03*
X216689411Y-209710589D03*
%TD*%
D11*
%TO.C,R29*%
X105090000Y-131700000D03*
X106110000Y-131700000D03*
%TD*%
D39*
%TO.C,C22*%
X221265000Y-295750000D03*
X222225000Y-295750000D03*
%TD*%
D40*
%TO.C,R36*%
X151477500Y-174100000D03*
X153302500Y-174100000D03*
%TD*%
D36*
%TO.C,R17*%
X250000000Y-71950000D03*
X250000000Y-70930000D03*
%TD*%
D41*
%TO.C,R14*%
X221375000Y-294250000D03*
X223025000Y-294250000D03*
%TD*%
D42*
%TO.C,J4*%
X261367500Y-174500000D03*
D43*
X261367500Y-177000000D03*
%TD*%
D44*
%TO.C,U1*%
X214653925Y-208717767D03*
X214300372Y-208364214D03*
X213946819Y-208010660D03*
X213593265Y-207657107D03*
X213239712Y-207303553D03*
X212886158Y-206950000D03*
X212532605Y-206596447D03*
X212179052Y-206242893D03*
X211825498Y-205889340D03*
X211471945Y-205535786D03*
X211118391Y-205182233D03*
X210764838Y-204828680D03*
X210411285Y-204475126D03*
X210057731Y-204121573D03*
X209704178Y-203768020D03*
X209350625Y-203414466D03*
X208997071Y-203060913D03*
X208643518Y-202707359D03*
X208289964Y-202353806D03*
X207936411Y-202000253D03*
X207582858Y-201646699D03*
X207229304Y-201293146D03*
X206875751Y-200939592D03*
X206522197Y-200586039D03*
X206168644Y-200232486D03*
D45*
X203817514Y-200232486D03*
X203463961Y-200586039D03*
X203110407Y-200939592D03*
X202756854Y-201293146D03*
X202403300Y-201646699D03*
X202049747Y-202000253D03*
X201696194Y-202353806D03*
X201342640Y-202707359D03*
X200989087Y-203060913D03*
X200635533Y-203414466D03*
X200281980Y-203768020D03*
X199928427Y-204121573D03*
X199574873Y-204475126D03*
X199221320Y-204828680D03*
X198867767Y-205182233D03*
X198514213Y-205535786D03*
X198160660Y-205889340D03*
X197807106Y-206242893D03*
X197453553Y-206596447D03*
X197100000Y-206950000D03*
X196746446Y-207303553D03*
X196392893Y-207657107D03*
X196039339Y-208010660D03*
X195685786Y-208364214D03*
X195332233Y-208717767D03*
D44*
X195332233Y-211068897D03*
X195685786Y-211422450D03*
X196039339Y-211776004D03*
X196392893Y-212129557D03*
X196746446Y-212483111D03*
X197100000Y-212836664D03*
X197453553Y-213190217D03*
X197807106Y-213543771D03*
X198160660Y-213897324D03*
X198514213Y-214250878D03*
X198867767Y-214604431D03*
X199221320Y-214957984D03*
X199574873Y-215311538D03*
X199928427Y-215665091D03*
X200281980Y-216018644D03*
X200635533Y-216372198D03*
X200989087Y-216725751D03*
X201342640Y-217079305D03*
X201696194Y-217432858D03*
X202049747Y-217786411D03*
X202403300Y-218139965D03*
X202756854Y-218493518D03*
X203110407Y-218847072D03*
X203463961Y-219200625D03*
X203817514Y-219554178D03*
D45*
X206168644Y-219554178D03*
X206522197Y-219200625D03*
X206875751Y-218847072D03*
X207229304Y-218493518D03*
X207582858Y-218139965D03*
X207936411Y-217786411D03*
X208289964Y-217432858D03*
X208643518Y-217079305D03*
X208997071Y-216725751D03*
X209350625Y-216372198D03*
X209704178Y-216018644D03*
X210057731Y-215665091D03*
X210411285Y-215311538D03*
X210764838Y-214957984D03*
X211118391Y-214604431D03*
X211471945Y-214250878D03*
X211825498Y-213897324D03*
X212179052Y-213543771D03*
X212532605Y-213190217D03*
X212886158Y-212836664D03*
X213239712Y-212483111D03*
X213593265Y-212129557D03*
X213946819Y-211776004D03*
X214300372Y-211422450D03*
X214653925Y-211068897D03*
%TD*%
D37*
%TO.C,R12*%
X67250000Y-309275000D03*
X67250000Y-310925000D03*
%TD*%
D19*
%TO.C,C16*%
X179350000Y-158230000D03*
X179350000Y-157270000D03*
%TD*%
D16*
%TO.C,RV4*%
X107950000Y-215190000D03*
X100450000Y-213890000D03*
%TD*%
D10*
%TO.C,R9*%
X226925000Y-294400000D03*
X225275000Y-294400000D03*
%TD*%
D20*
%TO.C,C10*%
X191980000Y-158100000D03*
X191020000Y-158100000D03*
%TD*%
D11*
%TO.C,R27*%
X117890000Y-131700000D03*
X118910000Y-131700000D03*
%TD*%
D20*
%TO.C,C4*%
X202610000Y-195750000D03*
X201650000Y-195750000D03*
%TD*%
D16*
%TO.C,RV12*%
X108000000Y-235500000D03*
X100500000Y-234200000D03*
%TD*%
D33*
%TO.C,D3*%
X94900000Y-93420000D03*
D34*
X94900000Y-95960000D03*
X94900000Y-98500000D03*
%TD*%
D11*
%TO.C,R26*%
X151950000Y-119550000D03*
X152970000Y-119550000D03*
%TD*%
D46*
%TO.C,R47*%
X255120000Y-83050000D03*
X254100000Y-83050000D03*
%TD*%
D12*
%TO.C,Q4*%
X119637500Y-188450000D03*
X119637500Y-186550000D03*
X117762500Y-187500000D03*
%TD*%
D46*
%TO.C,R23*%
X121087500Y-167800000D03*
X120067500Y-167800000D03*
%TD*%
D16*
%TO.C,RV9*%
X86750000Y-72200000D03*
X88050000Y-64700000D03*
%TD*%
D47*
%TO.C,D7*%
X155665000Y-171130000D03*
X155665000Y-173670000D03*
X161815000Y-173670000D03*
X161815000Y-171130000D03*
%TD*%
D11*
%TO.C,R25*%
X152830000Y-108070000D03*
X153850000Y-108070000D03*
%TD*%
D37*
%TO.C,R10*%
X63100000Y-309175000D03*
X63100000Y-310825000D03*
%TD*%
D19*
%TO.C,C17*%
X180600000Y-158230000D03*
X180600000Y-157270000D03*
%TD*%
D17*
%TO.C,K3*%
X115172500Y-156800000D03*
D16*
X115172500Y-164400000D03*
D18*
X104972500Y-156800000D03*
X97272500Y-156800000D03*
X99872500Y-164400000D03*
%TD*%
D48*
%TO.C,C1*%
X195778822Y-195845589D03*
X195100000Y-196524411D03*
%TD*%
D49*
%TO.C,C24*%
X181500000Y-161450000D03*
X181500000Y-165850000D03*
%TD*%
D48*
%TO.C,C8*%
X197400000Y-216100000D03*
X196721178Y-216778822D03*
%TD*%
D11*
%TO.C,R24*%
X152800000Y-95800000D03*
X153820000Y-95800000D03*
%TD*%
D33*
%TO.C,D5*%
X98950000Y-249750000D03*
D34*
X98950000Y-247210000D03*
X98950000Y-244670000D03*
%TD*%
D50*
%TO.C,C7*%
X200800000Y-200800000D03*
X200121178Y-200121178D03*
%TD*%
D37*
%TO.C,R6*%
X250850000Y-309275000D03*
X250850000Y-310925000D03*
%TD*%
D46*
%TO.C,R45*%
X255700000Y-72550000D03*
X254680000Y-72550000D03*
%TD*%
D13*
%TO.C,H6*%
X276000000Y-302000000D03*
%TD*%
D11*
%TO.C,R1*%
X201690000Y-194400000D03*
X202710000Y-194400000D03*
%TD*%
D16*
%TO.C,RV1*%
X100750000Y-49850000D03*
X93250000Y-48550000D03*
%TD*%
D20*
%TO.C,C18*%
X244080000Y-141450000D03*
X243120000Y-141450000D03*
%TD*%
D51*
%TO.C,J20*%
X261400000Y-118850000D03*
D52*
X261400000Y-121350000D03*
X261400000Y-123850000D03*
%TD*%
D17*
%TO.C,K4*%
X151012500Y-181650000D03*
D16*
X151012500Y-189250000D03*
D18*
X140812500Y-181650000D03*
X133112500Y-181650000D03*
X135712500Y-189250000D03*
%TD*%
D38*
%TO.C,C6*%
X212860589Y-204139411D03*
X213539411Y-203460589D03*
%TD*%
D10*
%TO.C,R15*%
X226875000Y-297850000D03*
X225225000Y-297850000D03*
%TD*%
D19*
%TO.C,C20*%
X182050000Y-158200000D03*
X182050000Y-157240000D03*
%TD*%
D23*
%TO.C,U9*%
X150660000Y-108065000D03*
D24*
X150660000Y-105525000D03*
X150660000Y-102985000D03*
X143040000Y-102985000D03*
X143040000Y-105525000D03*
X143040000Y-108065000D03*
%TD*%
D53*
%TO.C,J13*%
X83750000Y-138725000D03*
X83750000Y-148250000D03*
%TD*%
D10*
%TO.C,R13*%
X226925000Y-296100000D03*
X225275000Y-296100000D03*
%TD*%
D33*
%TO.C,D1*%
X96050000Y-82590000D03*
D34*
X96050000Y-80050000D03*
X96050000Y-77510000D03*
%TD*%
D46*
%TO.C,R22*%
X119150000Y-189800000D03*
X118130000Y-189800000D03*
%TD*%
D23*
%TO.C,U12*%
X143310000Y-226915000D03*
D24*
X143310000Y-224375000D03*
X143310000Y-221835000D03*
X135690000Y-221835000D03*
X135690000Y-224375000D03*
X135690000Y-226915000D03*
%TD*%
D23*
%TO.C,U11*%
X144750000Y-246315000D03*
D24*
X144750000Y-243775000D03*
X144750000Y-241235000D03*
X137130000Y-241235000D03*
X137130000Y-243775000D03*
X137130000Y-246315000D03*
%TD*%
D23*
%TO.C,U8*%
X116160000Y-131715000D03*
D24*
X116160000Y-129175000D03*
X116160000Y-126635000D03*
X108540000Y-126635000D03*
X108540000Y-129175000D03*
X108540000Y-131715000D03*
%TD*%
D11*
%TO.C,R30*%
X139740000Y-108220000D03*
X140760000Y-108220000D03*
%TD*%
D39*
%TO.C,C23*%
X220870000Y-298250000D03*
X221830000Y-298250000D03*
%TD*%
D19*
%TO.C,C11*%
X252300000Y-140030000D03*
X252300000Y-139070000D03*
%TD*%
D46*
%TO.C,R42*%
X255120000Y-84450000D03*
X254100000Y-84450000D03*
%TD*%
D54*
%TO.C,U3*%
X246750000Y-141970000D03*
X247400000Y-141970000D03*
X248050000Y-141970000D03*
X248700000Y-141970000D03*
X249350000Y-141970000D03*
D55*
X250485000Y-140835000D03*
X250485000Y-140185000D03*
X250485000Y-139535000D03*
X250485000Y-138885000D03*
X250485000Y-138235000D03*
D54*
X249350000Y-137100000D03*
X248700000Y-137100000D03*
X248050000Y-137100000D03*
X247400000Y-137100000D03*
X246750000Y-137100000D03*
D55*
X245615000Y-138235000D03*
X245615000Y-138885000D03*
X245615000Y-139535000D03*
X245615000Y-140185000D03*
X245615000Y-140835000D03*
D56*
X248050000Y-139535000D03*
%TD*%
D13*
%TO.C,H3*%
X260400000Y-283200000D03*
%TD*%
D16*
%TO.C,RV7*%
X107350000Y-147750000D03*
X99850000Y-146450000D03*
%TD*%
D21*
%TO.C,J5*%
X264025000Y-212125000D03*
D22*
X266565000Y-212125000D03*
X264025000Y-214665000D03*
X266565000Y-214665000D03*
X264025000Y-217205000D03*
X266565000Y-217205000D03*
%TD*%
D40*
%TO.C,R37*%
X151427500Y-170700000D03*
X153252500Y-170700000D03*
%TD*%
D11*
%TO.C,R28*%
X139630000Y-95800000D03*
X140650000Y-95800000D03*
%TD*%
D36*
%TO.C,R18*%
X121650000Y-210060000D03*
X121650000Y-209040000D03*
%TD*%
D23*
%TO.C,U7*%
X150960000Y-95815000D03*
D24*
X150960000Y-93275000D03*
X150960000Y-90735000D03*
X143340000Y-90735000D03*
X143340000Y-93275000D03*
X143340000Y-95815000D03*
%TD*%
D57*
%TO.C,SW1*%
X231450000Y-196650000D03*
X231450000Y-192950000D03*
X225250000Y-192950000D03*
X225250000Y-196650000D03*
%TD*%
D58*
%TO.C,PS1*%
X141100000Y-144470000D03*
D59*
X141100000Y-150470000D03*
X174700000Y-138470000D03*
X174700000Y-156470000D03*
%TD*%
D17*
%TO.C,K1*%
X115112500Y-201390000D03*
D16*
X115112500Y-208990000D03*
D18*
X104912500Y-201390000D03*
X97212500Y-201390000D03*
X99812500Y-208990000D03*
%TD*%
D13*
%TO.C,H4*%
X78000000Y-48500000D03*
%TD*%
D11*
%TO.C,R41*%
X183390000Y-139650000D03*
X184410000Y-139650000D03*
%TD*%
D50*
%TO.C,C2*%
X195150000Y-201574411D03*
X194471178Y-200895589D03*
%TD*%
D19*
%TO.C,C12*%
X252450000Y-157480000D03*
X252450000Y-156520000D03*
%TD*%
D37*
%TO.C,R5*%
X172500000Y-275000000D03*
X172500000Y-276650000D03*
%TD*%
D14*
%TO.C,J10*%
X74700000Y-192200000D03*
D15*
X74700000Y-197280000D03*
%TD*%
D11*
%TO.C,R2*%
X247230000Y-144300000D03*
X248250000Y-144300000D03*
%TD*%
D13*
%TO.C,H2*%
X77600000Y-282900000D03*
%TD*%
D27*
%TO.C,U17*%
X64035000Y-313280000D03*
X64035000Y-314630000D03*
D28*
X64760000Y-313280000D03*
X64760000Y-314630000D03*
D27*
X65485000Y-313280000D03*
X65485000Y-314630000D03*
%TD*%
D13*
%TO.C,H1*%
X259650000Y-48700000D03*
%TD*%
D36*
%TO.C,R19*%
X121350000Y-188810000D03*
X121350000Y-187790000D03*
%TD*%
D60*
%TO.C,D8*%
X209500000Y-239137500D03*
X209500000Y-237562500D03*
%TD*%
D51*
%TO.C,J1*%
X261367500Y-137300000D03*
D52*
X261367500Y-139800000D03*
X261367500Y-142300000D03*
%TD*%
D46*
%TO.C,R44*%
X255720000Y-73750000D03*
X254700000Y-73750000D03*
%TD*%
D53*
%TO.C,J12*%
X83516500Y-83951000D03*
X83516500Y-93476000D03*
X83516500Y-103001000D03*
X83541500Y-112526000D03*
%TD*%
D61*
%TO.C,U2*%
X191850000Y-151700000D03*
X191850000Y-154000000D03*
X191850000Y-156300000D03*
D62*
X198150000Y-154000000D03*
%TD*%
D36*
%TO.C,R16*%
X249900000Y-74270000D03*
X249900000Y-73250000D03*
%TD*%
D11*
%TO.C,R3*%
X247340000Y-161400000D03*
X248360000Y-161400000D03*
%TD*%
D46*
%TO.C,R43*%
X255700000Y-79050000D03*
X254680000Y-79050000D03*
%TD*%
%TO.C,R46*%
X255710000Y-77550000D03*
X254690000Y-77550000D03*
%TD*%
D51*
%TO.C,J19*%
X261600000Y-101150000D03*
D52*
X261600000Y-103650000D03*
X261600000Y-106150000D03*
%TD*%
D20*
%TO.C,C19*%
X243730000Y-158650000D03*
X242770000Y-158650000D03*
%TD*%
D63*
%TO.C,D9*%
X188087500Y-139650000D03*
X186512500Y-139650000D03*
%TD*%
D16*
%TO.C,RV6*%
X107610000Y-172050000D03*
X100110000Y-170750000D03*
%TD*%
D46*
%TO.C,R21*%
X119310000Y-211190000D03*
X118290000Y-211190000D03*
%TD*%
D13*
%TO.C,H5*%
X54000000Y-324100000D03*
%TD*%
D11*
%TO.C,R31*%
X138740000Y-119350000D03*
X139760000Y-119350000D03*
%TD*%
D54*
%TO.C,U4*%
X246500000Y-159170000D03*
X247150000Y-159170000D03*
X247800000Y-159170000D03*
X248450000Y-159170000D03*
X249100000Y-159170000D03*
D55*
X250235000Y-158035000D03*
X250235000Y-157385000D03*
X250235000Y-156735000D03*
X250235000Y-156085000D03*
X250235000Y-155435000D03*
D54*
X249100000Y-154300000D03*
X248450000Y-154300000D03*
X247800000Y-154300000D03*
X247150000Y-154300000D03*
X246500000Y-154300000D03*
D55*
X245365000Y-155435000D03*
X245365000Y-156085000D03*
X245365000Y-156735000D03*
X245365000Y-157385000D03*
X245365000Y-158035000D03*
D56*
X247800000Y-156735000D03*
%TD*%
D64*
%TO.C,BZ1*%
X172700000Y-283800000D03*
D65*
X177700000Y-283800000D03*
%TD*%
D46*
%TO.C,R38*%
X165910000Y-180200000D03*
X164890000Y-180200000D03*
%TD*%
D33*
%TO.C,D2*%
X98495000Y-137840000D03*
D34*
X98495000Y-135300000D03*
X98495000Y-132760000D03*
%TD*%
D16*
%TO.C,RV3*%
X135350000Y-81100000D03*
X142850000Y-82400000D03*
%TD*%
D11*
%TO.C,R34*%
X133790000Y-246350000D03*
X134810000Y-246350000D03*
%TD*%
D37*
%TO.C,R40*%
X256900000Y-309325000D03*
X256900000Y-310975000D03*
%TD*%
D51*
%TO.C,J2*%
X261467500Y-154650000D03*
D52*
X261467500Y-157150000D03*
X261467500Y-159650000D03*
%TD*%
D66*
%TO.C,Y1*%
X196462132Y-197356497D03*
X194906497Y-198912132D03*
X196037868Y-200043503D03*
X197593503Y-198487868D03*
%TD*%
D16*
%TO.C,RV10*%
X102050000Y-121500000D03*
X94550000Y-120200000D03*
%TD*%
D23*
%TO.C,U13*%
X167565000Y-170600000D03*
D67*
X165025000Y-170600000D03*
X165025000Y-178220000D03*
X167565000Y-178220000D03*
%TD*%
D37*
%TO.C,R8*%
X254900000Y-309300000D03*
X254900000Y-310950000D03*
%TD*%
D13*
%TO.C,H7*%
X276000000Y-324000000D03*
%TD*%
D68*
%TO.C,U18*%
X219418500Y-297468000D03*
D69*
X219418500Y-297068000D03*
X219418500Y-296668000D03*
X219418500Y-296268000D03*
D70*
X219418500Y-295868000D03*
D71*
X218831000Y-295280500D03*
D72*
X218431000Y-295280500D03*
X218031000Y-295280500D03*
X217631000Y-295280500D03*
D73*
X217231000Y-295280500D03*
D74*
X216643500Y-295868000D03*
D69*
X216643500Y-296268000D03*
X216643500Y-296668000D03*
X216643500Y-297068000D03*
D75*
X216643500Y-297468000D03*
D76*
X217231000Y-298055500D03*
D72*
X217631000Y-298055500D03*
X218031000Y-298055500D03*
X218431000Y-298055500D03*
D77*
X218831000Y-298055500D03*
%TD*%
D37*
%TO.C,R7*%
X252750000Y-309325000D03*
X252750000Y-310975000D03*
%TD*%
D33*
%TO.C,D4*%
X94900000Y-107560000D03*
D34*
X94900000Y-110100000D03*
X94900000Y-112640000D03*
%TD*%
D11*
%TO.C,R33*%
X145190000Y-226950000D03*
X146210000Y-226950000D03*
%TD*%
D14*
%TO.C,J14*%
X74700000Y-247850000D03*
D15*
X74700000Y-252930000D03*
%TD*%
D20*
%TO.C,C15*%
X243780000Y-157350000D03*
X242820000Y-157350000D03*
%TD*%
D78*
%TO.C,J7*%
X263355000Y-88650000D03*
D79*
X263355000Y-83650000D03*
X263355000Y-78650000D03*
X263355000Y-73650000D03*
%TD*%
D21*
%TO.C,J16*%
X246700000Y-324100000D03*
D22*
X246700000Y-321560000D03*
X246700000Y-319020000D03*
X246700000Y-316480000D03*
X246700000Y-313940000D03*
X246700000Y-311400000D03*
X246700000Y-308860000D03*
%TD*%
D80*
%TO.C,J18*%
X248400000Y-297800000D03*
D31*
X248400000Y-300340000D03*
X250940000Y-297800000D03*
X250940000Y-300340000D03*
X253480000Y-297800000D03*
X253480000Y-300340000D03*
X256020000Y-297800000D03*
X256020000Y-300340000D03*
X258560000Y-297800000D03*
X258560000Y-300340000D03*
X261100000Y-297800000D03*
X261100000Y-300340000D03*
X263640000Y-297800000D03*
X263640000Y-300340000D03*
%TD*%
M02*
