%TF.GenerationSoftware,KiCad,Pcbnew,(6.0.2)*%
%TF.CreationDate,2022-03-02T09:05:12+03:00*%
%TF.ProjectId,Steel_form_Dish_washer,53746565-6c5f-4666-9f72-6d5f44697368,rev?*%
%TF.SameCoordinates,Original*%
%TF.FileFunction,Soldermask,Top*%
%TF.FilePolarity,Negative*%
%FSLAX46Y46*%
G04 Gerber Fmt 4.6, Leading zero omitted, Abs format (unit mm)*
G04 Created by KiCad (PCBNEW (6.0.2)) date 2022-03-02 09:05:12*
%MOMM*%
%LPD*%
G01*
G04 APERTURE LIST*
G04 Aperture macros list*
%AMRoundRect*
0 Rectangle with rounded corners*
0 $1 Rounding radius*
0 $2 $3 $4 $5 $6 $7 $8 $9 X,Y pos of 4 corners*
0 Add a 4 corners polygon primitive as box body*
4,1,4,$2,$3,$4,$5,$6,$7,$8,$9,$2,$3,0*
0 Add four circle primitives for the rounded corners*
1,1,$1+$1,$2,$3*
1,1,$1+$1,$4,$5*
1,1,$1+$1,$6,$7*
1,1,$1+$1,$8,$9*
0 Add four rect primitives between the rounded corners*
20,1,$1+$1,$2,$3,$4,$5,0*
20,1,$1+$1,$4,$5,$6,$7,0*
20,1,$1+$1,$6,$7,$8,$9,0*
20,1,$1+$1,$8,$9,$2,$3,0*%
%AMFreePoly0*
4,1,14,0.354215,0.088284,0.450784,-0.008285,0.462500,-0.036569,0.462500,-0.060000,0.450784,-0.088284,0.422500,-0.100000,-0.422500,-0.100000,-0.450784,-0.088284,-0.462500,-0.060000,-0.462500,0.060000,-0.450784,0.088284,-0.422500,0.100000,0.325931,0.100000,0.354215,0.088284,0.354215,0.088284,$1*%
%AMFreePoly1*
4,1,14,0.450784,0.088284,0.462500,0.060000,0.462500,0.036569,0.450784,0.008285,0.354215,-0.088284,0.325931,-0.100000,-0.422500,-0.100000,-0.450784,-0.088284,-0.462500,-0.060000,-0.462500,0.060000,-0.450784,0.088284,-0.422500,0.100000,0.422500,0.100000,0.450784,0.088284,0.450784,0.088284,$1*%
%AMFreePoly2*
4,1,14,0.088284,0.450784,0.100000,0.422500,0.100000,-0.422500,0.088284,-0.450784,0.060000,-0.462500,-0.060000,-0.462500,-0.088284,-0.450784,-0.100000,-0.422500,-0.100000,0.325931,-0.088284,0.354215,0.008285,0.450784,0.036569,0.462500,0.060000,0.462500,0.088284,0.450784,0.088284,0.450784,$1*%
%AMFreePoly3*
4,1,14,-0.008285,0.450784,0.088284,0.354215,0.100000,0.325931,0.100000,-0.422500,0.088284,-0.450784,0.060000,-0.462500,-0.060000,-0.462500,-0.088284,-0.450784,-0.100000,-0.422500,-0.100000,0.422500,-0.088284,0.450784,-0.060000,0.462500,-0.036569,0.462500,-0.008285,0.450784,-0.008285,0.450784,$1*%
%AMFreePoly4*
4,1,14,0.450784,0.088284,0.462500,0.060000,0.462500,-0.060000,0.450784,-0.088284,0.422500,-0.100000,-0.325931,-0.100000,-0.354215,-0.088284,-0.450784,0.008285,-0.462500,0.036569,-0.462500,0.060000,-0.450784,0.088284,-0.422500,0.100000,0.422500,0.100000,0.450784,0.088284,0.450784,0.088284,$1*%
%AMFreePoly5*
4,1,14,0.450784,0.088284,0.462500,0.060000,0.462500,-0.060000,0.450784,-0.088284,0.422500,-0.100000,-0.422500,-0.100000,-0.450784,-0.088284,-0.462500,-0.060000,-0.462500,-0.036569,-0.450784,-0.008285,-0.354215,0.088284,-0.325931,0.100000,0.422500,0.100000,0.450784,0.088284,0.450784,0.088284,$1*%
%AMFreePoly6*
4,1,14,0.088284,0.450784,0.100000,0.422500,0.100000,-0.325931,0.088284,-0.354215,-0.008285,-0.450784,-0.036569,-0.462500,-0.060000,-0.462500,-0.088284,-0.450784,-0.100000,-0.422500,-0.100000,0.422500,-0.088284,0.450784,-0.060000,0.462500,0.060000,0.462500,0.088284,0.450784,0.088284,0.450784,$1*%
%AMFreePoly7*
4,1,14,0.088284,0.450784,0.100000,0.422500,0.100000,-0.422500,0.088284,-0.450784,0.060000,-0.462500,0.036569,-0.462500,0.008285,-0.450784,-0.088284,-0.354215,-0.100000,-0.325931,-0.100000,0.422500,-0.088284,0.450784,-0.060000,0.462500,0.060000,0.462500,0.088284,0.450784,0.088284,0.450784,$1*%
G04 Aperture macros list end*
%ADD10RoundRect,0.250000X0.600000X-0.600000X0.600000X0.600000X-0.600000X0.600000X-0.600000X-0.600000X0*%
%ADD11C,1.700000*%
%ADD12RoundRect,0.200000X-0.275000X0.200000X-0.275000X-0.200000X0.275000X-0.200000X0.275000X0.200000X0*%
%ADD13RoundRect,0.135000X0.185000X-0.135000X0.185000X0.135000X-0.185000X0.135000X-0.185000X-0.135000X0*%
%ADD14C,4.300000*%
%ADD15R,2.400000X2.400000*%
%ADD16C,2.400000*%
%ADD17C,1.800000*%
%ADD18C,2.200000*%
%ADD19RoundRect,0.150000X-0.587500X-0.150000X0.587500X-0.150000X0.587500X0.150000X-0.587500X0.150000X0*%
%ADD20RoundRect,0.140000X-0.140000X-0.170000X0.140000X-0.170000X0.140000X0.170000X-0.140000X0.170000X0*%
%ADD21RoundRect,0.140000X0.170000X-0.140000X0.170000X0.140000X-0.170000X0.140000X-0.170000X-0.140000X0*%
%ADD22R,1.700000X1.700000*%
%ADD23O,1.700000X1.700000*%
%ADD24R,1.600000X1.600000*%
%ADD25C,1.600000*%
%ADD26RoundRect,0.135000X-0.185000X0.135000X-0.185000X-0.135000X0.185000X-0.135000X0.185000X0.135000X0*%
%ADD27R,2.000000X1.905000*%
%ADD28O,2.000000X1.905000*%
%ADD29RoundRect,0.135000X0.135000X0.185000X-0.135000X0.185000X-0.135000X-0.185000X0.135000X-0.185000X0*%
%ADD30RoundRect,0.250000X0.600000X0.750000X-0.600000X0.750000X-0.600000X-0.750000X0.600000X-0.750000X0*%
%ADD31O,1.700000X2.000000*%
%ADD32RoundRect,0.140000X-0.170000X0.140000X-0.170000X-0.140000X0.170000X-0.140000X0.170000X0.140000X0*%
%ADD33R,2.300000X2.000000*%
%ADD34C,2.300000*%
%ADD35RoundRect,0.135000X-0.135000X-0.185000X0.135000X-0.185000X0.135000X0.185000X-0.135000X0.185000X0*%
%ADD36O,1.600000X1.600000*%
%ADD37RoundRect,0.250000X0.550000X-1.250000X0.550000X1.250000X-0.550000X1.250000X-0.550000X-1.250000X0*%
%ADD38RoundRect,0.200000X0.275000X-0.200000X0.275000X0.200000X-0.275000X0.200000X-0.275000X-0.200000X0*%
%ADD39RoundRect,0.218750X0.256250X-0.218750X0.256250X0.218750X-0.256250X0.218750X-0.256250X-0.218750X0*%
%ADD40R,1.000000X0.800000*%
%ADD41RoundRect,0.140000X0.140000X0.170000X-0.140000X0.170000X-0.140000X-0.170000X0.140000X-0.170000X0*%
%ADD42RoundRect,0.250000X0.600000X0.725000X-0.600000X0.725000X-0.600000X-0.725000X0.600000X-0.725000X0*%
%ADD43O,1.700000X1.950000*%
%ADD44R,0.400000X0.600000*%
%ADD45R,0.500000X0.700000*%
%ADD46RoundRect,0.200000X0.200000X0.275000X-0.200000X0.275000X-0.200000X-0.275000X0.200000X-0.275000X0*%
%ADD47RoundRect,0.150000X0.587500X0.150000X-0.587500X0.150000X-0.587500X-0.150000X0.587500X-0.150000X0*%
%ADD48RoundRect,0.150000X0.725000X0.150000X-0.725000X0.150000X-0.725000X-0.150000X0.725000X-0.150000X0*%
%ADD49RoundRect,0.150000X0.150000X-0.587500X0.150000X0.587500X-0.150000X0.587500X-0.150000X-0.587500X0*%
%ADD50RoundRect,0.250000X-0.262500X-0.450000X0.262500X-0.450000X0.262500X0.450000X-0.262500X0.450000X0*%
%ADD51R,1.800000X1.100000*%
%ADD52R,0.450000X0.600000*%
%ADD53FreePoly0,0.000000*%
%ADD54RoundRect,0.050000X-0.412500X-0.050000X0.412500X-0.050000X0.412500X0.050000X-0.412500X0.050000X0*%
%ADD55FreePoly1,0.000000*%
%ADD56FreePoly2,0.000000*%
%ADD57RoundRect,0.050000X-0.050000X-0.412500X0.050000X-0.412500X0.050000X0.412500X-0.050000X0.412500X0*%
%ADD58FreePoly3,0.000000*%
%ADD59FreePoly4,0.000000*%
%ADD60FreePoly5,0.000000*%
%ADD61FreePoly6,0.000000*%
%ADD62FreePoly7,0.000000*%
%ADD63RoundRect,0.075000X0.075000X-0.662500X0.075000X0.662500X-0.075000X0.662500X-0.075000X-0.662500X0*%
%ADD64RoundRect,0.075000X0.662500X-0.075000X0.662500X0.075000X-0.662500X0.075000X-0.662500X-0.075000X0*%
%ADD65R,0.600000X0.450000*%
%ADD66R,1.500000X2.200000*%
%ADD67R,3.800000X2.200000*%
%ADD68R,1.850000X1.850000*%
%ADD69C,1.850000*%
%ADD70R,1.200000X1.400000*%
%ADD71R,2.600000X2.600000*%
%ADD72C,2.600000*%
%ADD73RoundRect,0.250000X-0.600000X0.600000X-0.600000X-0.600000X0.600000X-0.600000X0.600000X0.600000X0*%
G04 APERTURE END LIST*
D10*
%TO.C,J5*%
X200880000Y-108202500D03*
D11*
X200880000Y-105662500D03*
X203420000Y-108202500D03*
X203420000Y-105662500D03*
X205960000Y-108202500D03*
X205960000Y-105662500D03*
X208500000Y-108202500D03*
X208500000Y-105662500D03*
X211040000Y-108202500D03*
X211040000Y-105662500D03*
X213580000Y-108202500D03*
X213580000Y-105662500D03*
X216120000Y-108202500D03*
X216120000Y-105662500D03*
%TD*%
D12*
%TO.C,R50*%
X282800000Y-235350000D03*
X282800000Y-237000000D03*
%TD*%
D13*
%TO.C,R10*%
X229450000Y-132150000D03*
X229450000Y-131130000D03*
%TD*%
D14*
%TO.C,H8*%
X84200000Y-228250000D03*
%TD*%
D15*
%TO.C,J9*%
X300550000Y-100965000D03*
D16*
X300550000Y-106045000D03*
%TD*%
D14*
%TO.C,H9*%
X186400000Y-228150000D03*
%TD*%
D17*
%TO.C,RV10*%
X245750000Y-83050000D03*
X243050000Y-90550000D03*
%TD*%
D18*
%TO.C,K2*%
X256825000Y-125500000D03*
X256825000Y-115500000D03*
X267025000Y-125500000D03*
X254325000Y-120500000D03*
X267025000Y-115500000D03*
%TD*%
D19*
%TO.C,Q3*%
X249212500Y-131700000D03*
X249212500Y-133600000D03*
X251087500Y-132650000D03*
%TD*%
D20*
%TO.C,C12*%
X226570000Y-129550000D03*
X227530000Y-129550000D03*
%TD*%
D17*
%TO.C,RV5*%
X282550000Y-119550000D03*
X275050000Y-116850000D03*
%TD*%
D21*
%TO.C,C5*%
X187750000Y-133180000D03*
X187750000Y-132220000D03*
%TD*%
D22*
%TO.C,J7*%
X229955000Y-101040000D03*
D23*
X229955000Y-103580000D03*
X229955000Y-106120000D03*
X229955000Y-108660000D03*
%TD*%
D13*
%TO.C,R30*%
X167350000Y-139160000D03*
X167350000Y-138140000D03*
%TD*%
D15*
%TO.C,J16*%
X169300000Y-62450000D03*
D16*
X164220000Y-62450000D03*
%TD*%
D17*
%TO.C,RV2*%
X145850000Y-108750000D03*
X148550000Y-101250000D03*
%TD*%
D24*
%TO.C,U8*%
X268690000Y-80695000D03*
D25*
X268690000Y-83235000D03*
X268690000Y-85775000D03*
X276310000Y-85775000D03*
X276310000Y-83235000D03*
X276310000Y-80695000D03*
%TD*%
D26*
%TO.C,R32*%
X212350000Y-83550000D03*
X212350000Y-84570000D03*
%TD*%
D21*
%TO.C,C4*%
X186400000Y-133190000D03*
X186400000Y-132230000D03*
%TD*%
D18*
%TO.C,K6*%
X155100000Y-72250000D03*
X145100000Y-72250000D03*
X155100000Y-62050000D03*
X150100000Y-74750000D03*
X145100000Y-62050000D03*
%TD*%
D12*
%TO.C,R54*%
X193400000Y-228880000D03*
X193400000Y-230530000D03*
%TD*%
D17*
%TO.C,RV7*%
X236100000Y-82700000D03*
X233400000Y-90200000D03*
%TD*%
D27*
%TO.C,D13*%
X281150000Y-79560000D03*
D28*
X281150000Y-82100000D03*
X281150000Y-84640000D03*
%TD*%
D29*
%TO.C,R4*%
X200130000Y-139850000D03*
X199110000Y-139850000D03*
%TD*%
D30*
%TO.C,J3*%
X203650000Y-145567500D03*
D31*
X201150000Y-145567500D03*
%TD*%
D32*
%TO.C,C16*%
X207950000Y-122120000D03*
X207950000Y-123080000D03*
%TD*%
D33*
%TO.C,PS1*%
X152137500Y-122750000D03*
D34*
X152137500Y-127750000D03*
X181537500Y-117550000D03*
X181537500Y-132950000D03*
%TD*%
D35*
%TO.C,R15*%
X193250000Y-111050000D03*
X194270000Y-111050000D03*
%TD*%
%TO.C,R3*%
X188770000Y-136900000D03*
X189790000Y-136900000D03*
%TD*%
D15*
%TO.C,J10*%
X300700000Y-128500000D03*
D16*
X300700000Y-133580000D03*
%TD*%
D35*
%TO.C,R39*%
X264340000Y-151050000D03*
X265360000Y-151050000D03*
%TD*%
D21*
%TO.C,C18*%
X193100000Y-222430000D03*
X193100000Y-221470000D03*
%TD*%
D13*
%TO.C,R34*%
X185150000Y-83260000D03*
X185150000Y-82240000D03*
%TD*%
%TO.C,R11*%
X207850000Y-120960000D03*
X207850000Y-119940000D03*
%TD*%
D26*
%TO.C,R28*%
X171050000Y-138090000D03*
X171050000Y-139110000D03*
%TD*%
D29*
%TO.C,R43*%
X162160000Y-70300000D03*
X161140000Y-70300000D03*
%TD*%
D30*
%TO.C,J4*%
X228800000Y-145517500D03*
D31*
X226300000Y-145517500D03*
%TD*%
D24*
%TO.C,U4*%
X165550000Y-102700000D03*
D36*
X163010000Y-102700000D03*
X163010000Y-110320000D03*
X165550000Y-110320000D03*
%TD*%
D13*
%TO.C,R40*%
X250300000Y-92020000D03*
X250300000Y-91000000D03*
%TD*%
D37*
%TO.C,C7*%
X192650000Y-132500000D03*
X192650000Y-128100000D03*
%TD*%
D18*
%TO.C,K5*%
X262500000Y-83875000D03*
X252500000Y-83875000D03*
X262500000Y-73675000D03*
X257500000Y-86375000D03*
X252500000Y-73675000D03*
%TD*%
D17*
%TO.C,RV6*%
X282170000Y-130500000D03*
X274670000Y-127800000D03*
%TD*%
D35*
%TO.C,R41*%
X161190000Y-75050000D03*
X162210000Y-75050000D03*
%TD*%
D21*
%TO.C,C3*%
X185050000Y-133230000D03*
X185050000Y-132270000D03*
%TD*%
D13*
%TO.C,R31*%
X172500000Y-139160000D03*
X172500000Y-138140000D03*
%TD*%
D32*
%TO.C,C17*%
X192000000Y-228670000D03*
X192000000Y-229630000D03*
%TD*%
D17*
%TO.C,RV11*%
X139625000Y-64550000D03*
X136925000Y-72050000D03*
%TD*%
D27*
%TO.C,D7*%
X227165000Y-82605000D03*
D28*
X227165000Y-85145000D03*
X227165000Y-87685000D03*
%TD*%
D12*
%TO.C,R49*%
X280950000Y-235325000D03*
X280950000Y-236975000D03*
%TD*%
D35*
%TO.C,R23*%
X248750000Y-103000000D03*
X249770000Y-103000000D03*
%TD*%
D19*
%TO.C,Q2*%
X247372500Y-114900000D03*
X247372500Y-116800000D03*
X249247500Y-115850000D03*
%TD*%
D38*
%TO.C,R18*%
X180900000Y-108800000D03*
X180900000Y-107150000D03*
%TD*%
D39*
%TO.C,D2*%
X206450000Y-121755000D03*
X206450000Y-120180000D03*
%TD*%
D17*
%TO.C,RV8*%
X181800000Y-81840000D03*
X179100000Y-89340000D03*
%TD*%
D40*
%TO.C,D3*%
X153475000Y-104380000D03*
X153475000Y-106920000D03*
X159625000Y-106920000D03*
X159625000Y-104380000D03*
%TD*%
D35*
%TO.C,R21*%
X246740000Y-113400000D03*
X247760000Y-113400000D03*
%TD*%
%TO.C,R38*%
X264440000Y-146300000D03*
X265460000Y-146300000D03*
%TD*%
D41*
%TO.C,C8*%
X232830000Y-128300000D03*
X231870000Y-128300000D03*
%TD*%
D18*
%TO.C,K1*%
X256850000Y-108900000D03*
X256850000Y-98900000D03*
X267050000Y-108900000D03*
X254350000Y-103900000D03*
X267050000Y-98900000D03*
%TD*%
D41*
%TO.C,C14*%
X218150000Y-116650000D03*
X217190000Y-116650000D03*
%TD*%
D29*
%TO.C,R22*%
X249720000Y-130200000D03*
X248700000Y-130200000D03*
%TD*%
D26*
%TO.C,R8*%
X225250000Y-140340000D03*
X225250000Y-141360000D03*
%TD*%
D19*
%TO.C,Q1*%
X249312500Y-99550000D03*
X249312500Y-101450000D03*
X251187500Y-100500000D03*
%TD*%
D26*
%TO.C,R35*%
X223850000Y-82260000D03*
X223850000Y-83280000D03*
%TD*%
D14*
%TO.C,H6*%
X305900000Y-228150000D03*
%TD*%
D35*
%TO.C,R5*%
X199090000Y-141050000D03*
X200110000Y-141050000D03*
%TD*%
D17*
%TO.C,RV1*%
X147200000Y-83750000D03*
X144500000Y-91250000D03*
%TD*%
D20*
%TO.C,C9*%
X230090000Y-122800000D03*
X231050000Y-122800000D03*
%TD*%
D42*
%TO.C,J14*%
X218500000Y-145400000D03*
D43*
X216000000Y-145400000D03*
X213500000Y-145400000D03*
%TD*%
D44*
%TO.C,U10*%
X93335000Y-239280000D03*
X93335000Y-240630000D03*
D45*
X94060000Y-239280000D03*
X94060000Y-240630000D03*
D44*
X94785000Y-239280000D03*
X94785000Y-240630000D03*
%TD*%
D18*
%TO.C,K4*%
X276350000Y-148700000D03*
X276350000Y-138700000D03*
X286550000Y-148700000D03*
X273850000Y-143700000D03*
X286550000Y-138700000D03*
%TD*%
D46*
%TO.C,R53*%
X296950000Y-236450000D03*
X295300000Y-236450000D03*
%TD*%
D47*
%TO.C,Q6*%
X161627500Y-73650000D03*
X161627500Y-71750000D03*
X159752500Y-72700000D03*
%TD*%
D26*
%TO.C,R44*%
X266700000Y-80600000D03*
X266700000Y-81620000D03*
%TD*%
D32*
%TO.C,C11*%
X230600000Y-131130000D03*
X230600000Y-132090000D03*
%TD*%
D24*
%TO.C,U6*%
X159850000Y-81240000D03*
D25*
X159850000Y-83780000D03*
X159850000Y-86320000D03*
X167470000Y-86320000D03*
X167470000Y-83780000D03*
X167470000Y-81240000D03*
%TD*%
D46*
%TO.C,R52*%
X296925000Y-234800000D03*
X295275000Y-234800000D03*
%TD*%
D18*
%TO.C,J17*%
X287150000Y-68200000D03*
X278650000Y-68200000D03*
%TD*%
D13*
%TO.C,R42*%
X255100000Y-92060000D03*
X255100000Y-91040000D03*
%TD*%
D27*
%TO.C,D8*%
X172555000Y-81800000D03*
D28*
X172555000Y-84340000D03*
X172555000Y-86880000D03*
%TD*%
D29*
%TO.C,R19*%
X164260000Y-112250000D03*
X163240000Y-112250000D03*
%TD*%
D44*
%TO.C,U11*%
X281835000Y-239680000D03*
X281835000Y-241030000D03*
D45*
X282560000Y-239680000D03*
X282560000Y-241030000D03*
D44*
X283285000Y-239680000D03*
X283285000Y-241030000D03*
%TD*%
D29*
%TO.C,R6*%
X200180000Y-138550000D03*
X199160000Y-138550000D03*
%TD*%
D35*
%TO.C,R24*%
X246830000Y-118250000D03*
X247850000Y-118250000D03*
%TD*%
D41*
%TO.C,C1*%
X191330000Y-125150000D03*
X190370000Y-125150000D03*
%TD*%
D48*
%TO.C,U1*%
X196945000Y-140855000D03*
X196945000Y-139585000D03*
X196945000Y-138315000D03*
X196945000Y-137045000D03*
X191795000Y-137045000D03*
X191795000Y-138315000D03*
X191795000Y-139585000D03*
X191795000Y-140855000D03*
%TD*%
D14*
%TO.C,H3*%
X302700000Y-62750000D03*
%TD*%
D17*
%TO.C,RV12*%
X291500000Y-78850000D03*
X288800000Y-86350000D03*
%TD*%
D22*
%TO.C,J6*%
X239425000Y-108275000D03*
D23*
X236885000Y-108275000D03*
X239425000Y-105735000D03*
X236885000Y-105735000D03*
X239425000Y-103195000D03*
X236885000Y-103195000D03*
%TD*%
D35*
%TO.C,R12*%
X193340000Y-112300000D03*
X194360000Y-112300000D03*
%TD*%
%TO.C,R25*%
X248450000Y-135050000D03*
X249470000Y-135050000D03*
%TD*%
D49*
%TO.C,Q5*%
X251700000Y-91437500D03*
X253600000Y-91437500D03*
X252650000Y-89562500D03*
%TD*%
D50*
%TO.C,R17*%
X151875000Y-100350000D03*
X153700000Y-100350000D03*
%TD*%
D24*
%TO.C,U7*%
X187140000Y-83525000D03*
D25*
X187140000Y-86065000D03*
X187140000Y-88605000D03*
X194760000Y-88605000D03*
X194760000Y-86065000D03*
X194760000Y-83525000D03*
%TD*%
D51*
%TO.C,SW1*%
X240500000Y-119200000D03*
X234300000Y-119200000D03*
X240500000Y-115500000D03*
X234300000Y-115500000D03*
%TD*%
D18*
%TO.C,K3*%
X267325000Y-132700000D03*
X254625000Y-137700000D03*
X267325000Y-142700000D03*
X257125000Y-132700000D03*
X257125000Y-142700000D03*
%TD*%
D14*
%TO.C,H4*%
X127700000Y-147750000D03*
%TD*%
D12*
%TO.C,R47*%
X94050000Y-235850000D03*
X94050000Y-237500000D03*
%TD*%
D41*
%TO.C,C15*%
X209430000Y-133300000D03*
X208470000Y-133300000D03*
%TD*%
%TO.C,C2*%
X186580000Y-125200000D03*
X185620000Y-125200000D03*
%TD*%
D35*
%TO.C,R13*%
X193320000Y-113600000D03*
X194340000Y-113600000D03*
%TD*%
D15*
%TO.C,J11*%
X300700000Y-114815000D03*
D16*
X300700000Y-119895000D03*
%TD*%
D35*
%TO.C,R1*%
X188700000Y-138350000D03*
X189720000Y-138350000D03*
%TD*%
D14*
%TO.C,H2*%
X302700000Y-147750000D03*
%TD*%
D52*
%TO.C,D10*%
X269450000Y-147800000D03*
X269450000Y-149900000D03*
%TD*%
D53*
%TO.C,U12*%
X192612500Y-224300000D03*
D54*
X192612500Y-224700000D03*
X192612500Y-225100000D03*
X192612500Y-225500000D03*
D55*
X192612500Y-225900000D03*
D56*
X193200000Y-226487500D03*
D57*
X193600000Y-226487500D03*
X194000000Y-226487500D03*
X194400000Y-226487500D03*
D58*
X194800000Y-226487500D03*
D59*
X195387500Y-225900000D03*
D54*
X195387500Y-225500000D03*
X195387500Y-225100000D03*
X195387500Y-224700000D03*
D60*
X195387500Y-224300000D03*
D61*
X194800000Y-223712500D03*
D57*
X194400000Y-223712500D03*
X194000000Y-223712500D03*
X193600000Y-223712500D03*
D62*
X193200000Y-223712500D03*
%TD*%
D14*
%TO.C,H1*%
X127700000Y-62750000D03*
%TD*%
D50*
%TO.C,R16*%
X151825000Y-111250000D03*
X153650000Y-111250000D03*
%TD*%
D12*
%TO.C,R51*%
X284450000Y-235350000D03*
X284450000Y-237000000D03*
%TD*%
D30*
%TO.C,J1*%
X191150000Y-145517500D03*
D31*
X188650000Y-145517500D03*
%TD*%
D13*
%TO.C,R45*%
X278350000Y-81500000D03*
X278350000Y-80480000D03*
%TD*%
D18*
%TO.C,J12*%
X215850000Y-68450000D03*
X207350000Y-68450000D03*
X198850000Y-68450000D03*
X190350000Y-68450000D03*
%TD*%
D63*
%TO.C,U3*%
X211350000Y-133712500D03*
X211850000Y-133712500D03*
X212350000Y-133712500D03*
X212850000Y-133712500D03*
X213350000Y-133712500D03*
X213850000Y-133712500D03*
X214350000Y-133712500D03*
X214850000Y-133712500D03*
X215350000Y-133712500D03*
X215850000Y-133712500D03*
X216350000Y-133712500D03*
X216850000Y-133712500D03*
X217350000Y-133712500D03*
X217850000Y-133712500D03*
X218350000Y-133712500D03*
X218850000Y-133712500D03*
X219350000Y-133712500D03*
X219850000Y-133712500D03*
X220350000Y-133712500D03*
X220850000Y-133712500D03*
X221350000Y-133712500D03*
X221850000Y-133712500D03*
X222350000Y-133712500D03*
X222850000Y-133712500D03*
X223350000Y-133712500D03*
D64*
X225012500Y-132050000D03*
X225012500Y-131550000D03*
X225012500Y-131050000D03*
X225012500Y-130550000D03*
X225012500Y-130050000D03*
X225012500Y-129550000D03*
X225012500Y-129050000D03*
X225012500Y-128550000D03*
X225012500Y-128050000D03*
X225012500Y-127550000D03*
X225012500Y-127050000D03*
X225012500Y-126550000D03*
X225012500Y-126050000D03*
X225012500Y-125550000D03*
X225012500Y-125050000D03*
X225012500Y-124550000D03*
X225012500Y-124050000D03*
X225012500Y-123550000D03*
X225012500Y-123050000D03*
X225012500Y-122550000D03*
X225012500Y-122050000D03*
X225012500Y-121550000D03*
X225012500Y-121050000D03*
X225012500Y-120550000D03*
X225012500Y-120050000D03*
D63*
X223350000Y-118387500D03*
X222850000Y-118387500D03*
X222350000Y-118387500D03*
X221850000Y-118387500D03*
X221350000Y-118387500D03*
X220850000Y-118387500D03*
X220350000Y-118387500D03*
X219850000Y-118387500D03*
X219350000Y-118387500D03*
X218850000Y-118387500D03*
X218350000Y-118387500D03*
X217850000Y-118387500D03*
X217350000Y-118387500D03*
X216850000Y-118387500D03*
X216350000Y-118387500D03*
X215850000Y-118387500D03*
X215350000Y-118387500D03*
X214850000Y-118387500D03*
X214350000Y-118387500D03*
X213850000Y-118387500D03*
X213350000Y-118387500D03*
X212850000Y-118387500D03*
X212350000Y-118387500D03*
X211850000Y-118387500D03*
X211350000Y-118387500D03*
D64*
X209687500Y-120050000D03*
X209687500Y-120550000D03*
X209687500Y-121050000D03*
X209687500Y-121550000D03*
X209687500Y-122050000D03*
X209687500Y-122550000D03*
X209687500Y-123050000D03*
X209687500Y-123550000D03*
X209687500Y-124050000D03*
X209687500Y-124550000D03*
X209687500Y-125050000D03*
X209687500Y-125550000D03*
X209687500Y-126050000D03*
X209687500Y-126550000D03*
X209687500Y-127050000D03*
X209687500Y-127550000D03*
X209687500Y-128050000D03*
X209687500Y-128550000D03*
X209687500Y-129050000D03*
X209687500Y-129550000D03*
X209687500Y-130050000D03*
X209687500Y-130550000D03*
X209687500Y-131050000D03*
X209687500Y-131550000D03*
X209687500Y-132050000D03*
%TD*%
D52*
%TO.C,D5*%
X251300000Y-119500000D03*
X251300000Y-117400000D03*
%TD*%
D26*
%TO.C,R27*%
X165800000Y-138040000D03*
X165800000Y-139060000D03*
%TD*%
D29*
%TO.C,R2*%
X189740000Y-139750000D03*
X188720000Y-139750000D03*
%TD*%
D42*
%TO.C,J13*%
X242500000Y-145517500D03*
D43*
X240000000Y-145517500D03*
X237500000Y-145517500D03*
%TD*%
D65*
%TO.C,D11*%
X257200000Y-89450000D03*
X255100000Y-89450000D03*
%TD*%
D13*
%TO.C,R9*%
X192700000Y-118760000D03*
X192700000Y-117740000D03*
%TD*%
D41*
%TO.C,C10*%
X207950000Y-131300000D03*
X206990000Y-131300000D03*
%TD*%
D39*
%TO.C,D1*%
X194250000Y-119125000D03*
X194250000Y-117550000D03*
%TD*%
D17*
%TO.C,RV4*%
X282520000Y-105650000D03*
X275020000Y-102950000D03*
%TD*%
D35*
%TO.C,R20*%
X248680000Y-98050000D03*
X249700000Y-98050000D03*
%TD*%
D26*
%TO.C,R56*%
X279500000Y-235030000D03*
X279500000Y-236050000D03*
%TD*%
D14*
%TO.C,H5*%
X83900000Y-250250000D03*
%TD*%
D26*
%TO.C,R26*%
X160400000Y-138190000D03*
X160400000Y-139210000D03*
%TD*%
D66*
%TO.C,U2*%
X186230000Y-122850000D03*
X188530000Y-122850000D03*
X190830000Y-122850000D03*
D67*
X188530000Y-116550000D03*
%TD*%
D68*
%TO.C,BZ1*%
X185550000Y-104450000D03*
D69*
X190550000Y-104450000D03*
%TD*%
D35*
%TO.C,R14*%
X193240000Y-109850000D03*
X194260000Y-109850000D03*
%TD*%
D17*
%TO.C,RV3*%
X147250000Y-118850000D03*
X144550000Y-126350000D03*
%TD*%
D26*
%TO.C,R33*%
X157900000Y-81040000D03*
X157900000Y-82060000D03*
%TD*%
D18*
%TO.C,J2*%
X133400000Y-86200000D03*
X133400000Y-94700000D03*
X133400000Y-103200000D03*
X133400000Y-111700000D03*
%TD*%
D41*
%TO.C,C13*%
X215680000Y-135300000D03*
X214720000Y-135300000D03*
%TD*%
D70*
%TO.C,Y1*%
X232100000Y-126650000D03*
X232100000Y-124450000D03*
X230500000Y-124450000D03*
X230500000Y-126650000D03*
%TD*%
D17*
%TO.C,RV9*%
X208100000Y-82410000D03*
X205400000Y-89910000D03*
%TD*%
D52*
%TO.C,D6*%
X251100000Y-137350000D03*
X251100000Y-135250000D03*
%TD*%
D24*
%TO.C,U5*%
X214150000Y-83570000D03*
D25*
X214150000Y-86110000D03*
X214150000Y-88650000D03*
X221770000Y-88650000D03*
X221770000Y-86110000D03*
X221770000Y-83570000D03*
%TD*%
D26*
%TO.C,R37*%
X196700000Y-82290000D03*
X196700000Y-83310000D03*
%TD*%
D12*
%TO.C,R48*%
X95900000Y-235825000D03*
X95900000Y-237475000D03*
%TD*%
D14*
%TO.C,H7*%
X305900000Y-250150000D03*
%TD*%
D65*
%TO.C,D12*%
X158000000Y-75550000D03*
X160100000Y-75550000D03*
%TD*%
D13*
%TO.C,R36*%
X169350000Y-82240000D03*
X169350000Y-81220000D03*
%TD*%
D46*
%TO.C,R55*%
X296975000Y-238050000D03*
X295325000Y-238050000D03*
%TD*%
D26*
%TO.C,R7*%
X226450000Y-140340000D03*
X226450000Y-141360000D03*
%TD*%
D52*
%TO.C,D4*%
X251300000Y-105050000D03*
X251300000Y-102950000D03*
%TD*%
D27*
%TO.C,D9*%
X199200000Y-82310000D03*
D28*
X199200000Y-84850000D03*
X199200000Y-87390000D03*
%TD*%
D13*
%TO.C,R29*%
X161750000Y-139210000D03*
X161750000Y-138190000D03*
%TD*%
D15*
%TO.C,J15*%
X249535000Y-62550000D03*
D16*
X244455000Y-62550000D03*
%TD*%
D19*
%TO.C,Q4*%
X264960000Y-147710000D03*
X264960000Y-149610000D03*
X266835000Y-148660000D03*
%TD*%
D21*
%TO.C,C6*%
X189000000Y-133230000D03*
X189000000Y-132270000D03*
%TD*%
D71*
%TO.C,J8*%
X161400000Y-146650000D03*
D72*
X166480000Y-146650000D03*
X171560000Y-146650000D03*
%TD*%
D12*
%TO.C,R46*%
X92150000Y-235875000D03*
X92150000Y-237525000D03*
%TD*%
D22*
%TO.C,J19*%
X276600000Y-250250000D03*
D23*
X276600000Y-247710000D03*
X276600000Y-245170000D03*
X276600000Y-242630000D03*
X276600000Y-240090000D03*
X276600000Y-237550000D03*
X276600000Y-235010000D03*
%TD*%
D11*
%TO.C,J18*%
X293540000Y-226490000D03*
X293540000Y-223950000D03*
X291000000Y-226490000D03*
X291000000Y-223950000D03*
X288460000Y-226490000D03*
X288460000Y-223950000D03*
X285920000Y-226490000D03*
X285920000Y-223950000D03*
X283380000Y-226490000D03*
X283380000Y-223950000D03*
X280840000Y-226490000D03*
X280840000Y-223950000D03*
X278300000Y-226490000D03*
D73*
X278300000Y-223950000D03*
%TD*%
M02*
