M48
; DRILL file {KiCad (6.0.0)} date Fri Feb 18 09:13:17 2022
; FORMAT={-:-/ absolute / metric / decimal}
; #@! TF.CreationDate,2022-02-18T09:13:17+03:00
; #@! TF.GenerationSoftware,Kicad,Pcbnew,(6.0.0)
; #@! TF.FileFunction,Plated,1,4,PTH
FMAT,2
METRIC
; #@! TA.AperFunction,Plated,PTH,ViaDrill
T1C0.300
; #@! TA.AperFunction,Plated,PTH,ViaDrill
T2C0.400
; #@! TA.AperFunction,Plated,PTH,ComponentDrill
T3C0.800
; #@! TA.AperFunction,Plated,PTH,ComponentDrill
T4C0.850
; #@! TA.AperFunction,Plated,PTH,ComponentDrill
T5C0.900
; #@! TA.AperFunction,Plated,PTH,ComponentDrill
T6C0.950
; #@! TA.AperFunction,Plated,PTH,ComponentDrill
T7C1.000
; #@! TA.AperFunction,Plated,PTH,ComponentDrill
T8C1.100
; #@! TA.AperFunction,Plated,PTH,ComponentDrill
T9C1.200
; #@! TA.AperFunction,Plated,PTH,ComponentDrill
T10C1.300
; #@! TA.AperFunction,Plated,PTH,ComponentDrill
T11C1.500
; #@! TA.AperFunction,Plated,PTH,ComponentDrill
T12C1.600
; #@! TA.AperFunction,Plated,PTH,ComponentDrill
T13C1.854
; #@! TA.AperFunction,Plated,PTH,ComponentDrill
T14C1.930
%
G90
G05
T1
X155.2Y-77.5
X155.2Y-79.25
X155.2Y-81.25
X156.7Y-77.5
X156.7Y-79.25
X156.7Y-81.25
X158.2Y-77.5
X158.2Y-79.25
X158.2Y-81.25
X159.2Y-96.25
X160.675Y-95.475
X162.85Y-84.9
X164.025Y-139.8
X166.125Y-83.75
X169.15Y-139.025
X171.2Y-109.2
X174.9Y-139.05
X175.1Y-102.6
X175.15Y-103.45
X175.375Y-84.675
X176.075Y-108.775
X176.15Y-104.45
X176.2Y-102.25
X176.325Y-107.525
X178.525Y-104.45
X178.55Y-102.375
X178.55Y-107.625
X180.65Y-107.55
X191.1Y-129.7
X191.1Y-134.1
X192.15Y-123.15
X192.35Y-129.7
X192.35Y-134.15
X192.8Y-126.7
X194.1Y-131.8
X194.4Y-134.75
X195.3Y-137.7
X195.325Y-111.7
X195.35Y-113.05
X195.5Y-114.3
X195.5Y-115.8
X197.35Y-112.225
X197.35Y-140.7
X197.427Y-137.573
X198.3Y-142.45
X198.35Y-126.6
X199.0Y-111.28
X200.3Y-125.45
X200.75Y-129.9
X201.745Y-123.9
X201.95Y-128.2
X203.15Y-128.2
X205.3Y-130.15
X206.75Y-135.95
X206.9Y-133.073
X207.156Y-104.456
X208.65Y-135.626
X209.1Y-130.15
X209.15Y-121.4
X210.6Y-131.8
X212.35Y-121.35
X213.28Y-127.83
X213.7Y-120.65
X213.75Y-119.8
X214.026Y-123.55
X214.034Y-128.097
X214.797Y-123.337
X214.9Y-127.85
X214.95Y-102.45
X215.7Y-136.85
X216.1Y-132.4
X216.7Y-142.5
X217.15Y-118.975
X217.45Y-124.6
X217.65Y-113.9
X217.75Y-123.8
X218.0Y-128.25
X218.55Y-132.4
X218.675Y-127.35
X218.724Y-126.5
X218.823Y-111.75
X219.0Y-94.4
X219.0Y-98.25
X219.1Y-125.45
X219.4Y-101.05
X220.15Y-125.35
X220.25Y-101.05
X220.95Y-125.25
X221.55Y-126.05
X221.55Y-129.0
X221.6Y-101.05
X221.7Y-105.5
X222.125Y-126.8
X222.175Y-120.225
X222.273Y-111.2
X222.498Y-105.457
X222.5Y-101.55
X222.7Y-128.8
X223.6Y-128.95
X224.193Y-135.643
X224.35Y-120.45
X224.4Y-121.3
X224.4Y-125.9
X224.55Y-142.6
X224.6Y-128.65
X224.85Y-135.15
X225.75Y-132.7
X226.05Y-136.25
X226.2Y-137.626
X227.875Y-130.15
X227.89Y-128.3
X228.35Y-120.95
X228.45Y-134.987
X228.5Y-133.733
X228.875Y-141.675
X228.95Y-131.5
X229.1Y-128.95
X229.337Y-120.309
X229.65Y-97.25
X229.9Y-128.2
X230.325Y-142.55
X231.15Y-130.8
X231.346Y-129.285
X232.35Y-122.95
X233.053Y-130.12
X233.1Y-124.4
X233.3Y-136.6
X233.75Y-119.65
X234.0Y-130.15
X234.25Y-126.716
X235.7Y-139.25
X236.9Y-119.75
X236.9Y-139.2
X239.5Y-113.25
X240.216Y-110.3
X240.216Y-121.25
X240.9Y-97.82
X241.9Y-103.65
X242.4Y-112.45
X242.753Y-98.273
X243.25Y-118.55
X243.35Y-105.85
X244.45Y-131.2
X244.5Y-132.7
X244.6Y-122.15
X244.65Y-109.35
X244.75Y-120.9
X246.05Y-140.45
X248.675Y-94.7
X248.7Y-106.3
X248.725Y-96.1
X248.775Y-97.475
X248.85Y-104.4
X250.0Y-94.825
X250.025Y-97.55
X250.05Y-143.45
X250.1Y-96.125
X250.15Y-145.9
X250.7Y-103.75
X251.05Y-94.85
X251.175Y-96.05
X251.2Y-97.5
X263.7Y-97.5
X264.25Y-98.273
X269.1Y-98.625
X269.55Y-97.75
X285.325Y-118.125
X286.7Y-119.5
T2
X231.05Y-135.05
X231.063Y-132.333
X244.7Y-108.2
T3
X161.9Y-104.5
X161.9Y-107.04
X169.52Y-104.5
X169.52Y-107.04
T4
X185.55Y-104.45
X190.55Y-104.45
T5
X145.85Y-108.75
X145.9Y-91.25
X145.95Y-126.35
X147.15Y-101.25
X147.2Y-83.75
X147.25Y-118.85
X153.775Y-93.09
X155.075Y-85.59
X179.05Y-78.425
X180.35Y-70.925
X200.75Y-92.6
X202.05Y-85.1
X224.3Y-92.55
X225.6Y-85.05
X248.15Y-87.65
X249.45Y-80.15
X271.45Y-92.35
X272.75Y-84.85
X274.67Y-129.2
X275.02Y-104.35
X275.02Y-116.75
X282.17Y-130.5
X282.52Y-105.65
X282.52Y-118.05
T6
X186.35Y-145.517
X188.85Y-145.517
X191.35Y-145.517
X200.55Y-145.517
X203.05Y-145.517
X205.55Y-145.517
X213.5Y-145.4
X216.0Y-145.4
X218.5Y-145.4
X238.3Y-145.517
X240.8Y-145.517
X243.3Y-145.517
T7
X154.362Y-120.23
X154.362Y-126.23
X165.19Y-86.685
X165.19Y-89.225
X165.19Y-91.765
X172.81Y-86.685
X172.81Y-89.225
X172.81Y-91.765
X187.963Y-114.23
X187.963Y-132.23
X200.88Y-105.662
X200.88Y-108.203
X203.42Y-105.662
X203.42Y-108.203
X205.96Y-105.662
X205.96Y-108.203
X208.5Y-105.662
X208.5Y-108.203
X211.04Y-105.662
X211.04Y-108.203
X212.39Y-85.285
X212.39Y-87.825
X212.39Y-90.365
X213.58Y-105.662
X213.58Y-108.203
X216.12Y-105.662
X216.12Y-108.203
X220.01Y-85.285
X220.01Y-87.825
X220.01Y-90.365
X226.3Y-145.517
X228.8Y-145.517
X229.955Y-101.04
X229.955Y-103.58
X229.955Y-106.12
X229.955Y-108.66
X235.94Y-85.845
X235.94Y-88.385
X235.94Y-90.925
X236.885Y-103.195
X236.885Y-105.735
X236.885Y-108.275
X239.425Y-103.195
X239.425Y-105.735
X239.425Y-108.275
X243.56Y-85.845
X243.56Y-88.385
X243.56Y-90.925
X283.4Y-85.7
X283.4Y-88.24
X283.4Y-90.78
X291.02Y-85.7
X291.02Y-88.24
X291.02Y-90.78
T8
X161.495Y-88.64
X161.495Y-91.18
X161.495Y-93.72
X208.65Y-86.93
X208.65Y-89.47
X208.65Y-92.01
X232.1Y-87.41
X232.1Y-89.95
X232.1Y-92.49
X279.51Y-87.225
X279.51Y-89.765
X279.51Y-92.305
T9
X166.475Y-81.688
X174.075Y-81.688
X249.032Y-126.57
X249.032Y-134.17
X249.172Y-114.73
X249.172Y-122.33
X249.282Y-102.06
X249.282Y-109.66
X254.55Y-88.938
X257.7Y-139.85
X257.7Y-147.45
X262.15Y-88.938
T10
X161.4Y-146.65
X166.4Y-146.65
X171.4Y-146.65
X176.4Y-146.65
T11
X166.475Y-66.388
X174.075Y-63.787
X174.075Y-71.487
X254.55Y-73.638
X259.233Y-134.17
X259.373Y-122.33
X259.483Y-109.66
X262.15Y-71.037
X262.15Y-78.737
X264.332Y-126.57
X264.472Y-114.73
X264.582Y-102.06
X266.933Y-134.17
X267.072Y-122.33
X267.183Y-109.66
X267.9Y-147.45
X273.0Y-139.85
X275.6Y-147.45
T12
X154.705Y-63.7
X159.785Y-63.7
X248.905Y-63.9
X253.985Y-63.9
X300.55Y-100.965
X300.55Y-106.045
X300.7Y-114.815
X300.7Y-119.895
X300.7Y-128.5
X300.7Y-133.58
T13
X202.524Y-73.191
X212.049Y-73.166
X221.574Y-73.166
X231.099Y-73.166
X274.587Y-72.868
X284.111Y-72.868
T14
X133.7Y-86.19
X133.7Y-95.72
X133.7Y-105.25
X133.7Y-114.78
X133.7Y-124.31
T0
M30
