%TF.GenerationSoftware,KiCad,Pcbnew,(6.0.0)*%
%TF.CreationDate,2022-02-18T09:12:49+03:00*%
%TF.ProjectId,Steel_form_Dish_washer PART 1,53746565-6c5f-4666-9f72-6d5f44697368,rev?*%
%TF.SameCoordinates,Original*%
%TF.FileFunction,Paste,Top*%
%TF.FilePolarity,Positive*%
%FSLAX46Y46*%
G04 Gerber Fmt 4.6, Leading zero omitted, Abs format (unit mm)*
G04 Created by KiCad (PCBNEW (6.0.0)) date 2022-02-18 09:12:49*
%MOMM*%
%LPD*%
G01*
G04 APERTURE LIST*
G04 Aperture macros list*
%AMRoundRect*
0 Rectangle with rounded corners*
0 $1 Rounding radius*
0 $2 $3 $4 $5 $6 $7 $8 $9 X,Y pos of 4 corners*
0 Add a 4 corners polygon primitive as box body*
4,1,4,$2,$3,$4,$5,$6,$7,$8,$9,$2,$3,0*
0 Add four circle primitives for the rounded corners*
1,1,$1+$1,$2,$3*
1,1,$1+$1,$4,$5*
1,1,$1+$1,$6,$7*
1,1,$1+$1,$8,$9*
0 Add four rect primitives between the rounded corners*
20,1,$1+$1,$2,$3,$4,$5,0*
20,1,$1+$1,$4,$5,$6,$7,0*
20,1,$1+$1,$6,$7,$8,$9,0*
20,1,$1+$1,$8,$9,$2,$3,0*%
G04 Aperture macros list end*
%ADD10C,0.010000*%
%ADD11RoundRect,0.135000X-0.135000X-0.185000X0.135000X-0.185000X0.135000X0.185000X-0.135000X0.185000X0*%
%ADD12RoundRect,0.150000X0.587500X0.150000X-0.587500X0.150000X-0.587500X-0.150000X0.587500X-0.150000X0*%
%ADD13RoundRect,0.140000X-0.170000X0.140000X-0.170000X-0.140000X0.170000X-0.140000X0.170000X0.140000X0*%
%ADD14RoundRect,0.135000X-0.185000X0.135000X-0.185000X-0.135000X0.185000X-0.135000X0.185000X0.135000X0*%
%ADD15RoundRect,0.140000X0.140000X0.170000X-0.140000X0.170000X-0.140000X-0.170000X0.140000X-0.170000X0*%
%ADD16RoundRect,0.135000X0.185000X-0.135000X0.185000X0.135000X-0.185000X0.135000X-0.185000X-0.135000X0*%
%ADD17RoundRect,0.140000X-0.140000X-0.170000X0.140000X-0.170000X0.140000X0.170000X-0.140000X0.170000X0*%
%ADD18RoundRect,0.250000X0.450000X-0.262500X0.450000X0.262500X-0.450000X0.262500X-0.450000X-0.262500X0*%
%ADD19RoundRect,0.075000X0.075000X-0.662500X0.075000X0.662500X-0.075000X0.662500X-0.075000X-0.662500X0*%
%ADD20RoundRect,0.075000X0.662500X-0.075000X0.662500X0.075000X-0.662500X0.075000X-0.662500X-0.075000X0*%
%ADD21RoundRect,0.140000X0.170000X-0.140000X0.170000X0.140000X-0.170000X0.140000X-0.170000X-0.140000X0*%
%ADD22RoundRect,0.135000X0.135000X0.185000X-0.135000X0.185000X-0.135000X-0.185000X0.135000X-0.185000X0*%
%ADD23RoundRect,0.218750X0.256250X-0.218750X0.256250X0.218750X-0.256250X0.218750X-0.256250X-0.218750X0*%
%ADD24R,1.000000X0.800000*%
%ADD25RoundRect,0.012800X0.407200X0.147200X-0.407200X0.147200X-0.407200X-0.147200X0.407200X-0.147200X0*%
%ADD26RoundRect,0.012800X0.147200X0.407200X-0.147200X0.407200X-0.147200X-0.407200X0.147200X-0.407200X0*%
%ADD27RoundRect,0.250000X-0.450000X0.262500X-0.450000X-0.262500X0.450000X-0.262500X0.450000X0.262500X0*%
%ADD28R,1.800000X1.100000*%
%ADD29RoundRect,0.200000X0.275000X-0.200000X0.275000X0.200000X-0.275000X0.200000X-0.275000X-0.200000X0*%
%ADD30R,1.500000X2.200000*%
%ADD31R,3.800000X2.200000*%
%ADD32RoundRect,0.012800X-0.407200X-0.147200X0.407200X-0.147200X0.407200X0.147200X-0.407200X0.147200X0*%
%ADD33RoundRect,0.012800X-0.147200X-0.407200X0.147200X-0.407200X0.147200X0.407200X-0.147200X0.407200X0*%
%ADD34RoundRect,0.250000X-0.550000X1.250000X-0.550000X-1.250000X0.550000X-1.250000X0.550000X1.250000X0*%
%ADD35R,1.200000X1.400000*%
%ADD36R,2.000000X1.500000*%
%ADD37R,2.000000X3.800000*%
G04 APERTURE END LIST*
D10*
%TO.C,U1*%
X236345000Y-134740000D02*
X234285000Y-134740000D01*
X234285000Y-134740000D02*
X234285000Y-132680000D01*
X234285000Y-132680000D02*
X236345000Y-132680000D01*
X236345000Y-132680000D02*
X236345000Y-134740000D01*
G36*
X236345000Y-134740000D02*
G01*
X234285000Y-134740000D01*
X234285000Y-132680000D01*
X236345000Y-132680000D01*
X236345000Y-134740000D01*
G37*
X236345000Y-134740000D02*
X234285000Y-134740000D01*
X234285000Y-132680000D01*
X236345000Y-132680000D01*
X236345000Y-134740000D01*
%TO.C,U2*%
X202535000Y-132670000D02*
X204595000Y-132670000D01*
X204595000Y-132670000D02*
X204595000Y-134730000D01*
X204595000Y-134730000D02*
X202535000Y-134730000D01*
X202535000Y-134730000D02*
X202535000Y-132670000D01*
G36*
X204595000Y-134730000D02*
G01*
X202535000Y-134730000D01*
X202535000Y-132670000D01*
X204595000Y-132670000D01*
X204595000Y-134730000D01*
G37*
X204595000Y-134730000D02*
X202535000Y-134730000D01*
X202535000Y-132670000D01*
X204595000Y-132670000D01*
X204595000Y-134730000D01*
%TD*%
D11*
%TO.C,R50*%
X162175000Y-83475000D03*
X163195000Y-83475000D03*
%TD*%
%TO.C,R10*%
X193230000Y-113100000D03*
X194250000Y-113100000D03*
%TD*%
D12*
%TO.C,Q3*%
X246297500Y-131305000D03*
X246297500Y-129405000D03*
X244422500Y-130355000D03*
%TD*%
D13*
%TO.C,C12*%
X191100000Y-132440000D03*
X191100000Y-133400000D03*
%TD*%
%TO.C,C5*%
X236900000Y-137580000D03*
X236900000Y-138540000D03*
%TD*%
D14*
%TO.C,R30*%
X166175000Y-138640000D03*
X166175000Y-139660000D03*
%TD*%
%TO.C,R32*%
X172325000Y-138675000D03*
X172325000Y-139695000D03*
%TD*%
D15*
%TO.C,C4*%
X194475000Y-126670000D03*
X193515000Y-126670000D03*
%TD*%
%TO.C,C22*%
X219330000Y-113900000D03*
X218370000Y-113900000D03*
%TD*%
D16*
%TO.C,R4*%
X198800000Y-123960000D03*
X198800000Y-122940000D03*
%TD*%
D13*
%TO.C,C16*%
X209175000Y-128270000D03*
X209175000Y-129230000D03*
%TD*%
D11*
%TO.C,R15*%
X245480000Y-109350000D03*
X246500000Y-109350000D03*
%TD*%
D14*
%TO.C,R3*%
X226300000Y-141940000D03*
X226300000Y-142960000D03*
%TD*%
D17*
%TO.C,C18*%
X216870000Y-132410000D03*
X217830000Y-132410000D03*
%TD*%
D14*
%TO.C,R34*%
X281660000Y-89755000D03*
X281660000Y-90775000D03*
%TD*%
D18*
%TO.C,R11*%
X151475000Y-108900000D03*
X151475000Y-107075000D03*
%TD*%
D16*
%TO.C,R28*%
X246025000Y-142150000D03*
X246025000Y-141130000D03*
%TD*%
D19*
%TO.C,U4*%
X212400000Y-130792500D03*
X212900000Y-130792500D03*
X213400000Y-130792500D03*
X213900000Y-130792500D03*
X214400000Y-130792500D03*
X214900000Y-130792500D03*
X215400000Y-130792500D03*
X215900000Y-130792500D03*
X216400000Y-130792500D03*
X216900000Y-130792500D03*
X217400000Y-130792500D03*
X217900000Y-130792500D03*
X218400000Y-130792500D03*
X218900000Y-130792500D03*
X219400000Y-130792500D03*
X219900000Y-130792500D03*
X220400000Y-130792500D03*
X220900000Y-130792500D03*
X221400000Y-130792500D03*
X221900000Y-130792500D03*
X222400000Y-130792500D03*
X222900000Y-130792500D03*
X223400000Y-130792500D03*
X223900000Y-130792500D03*
X224400000Y-130792500D03*
D20*
X226062500Y-129130000D03*
X226062500Y-128630000D03*
X226062500Y-128130000D03*
X226062500Y-127630000D03*
X226062500Y-127130000D03*
X226062500Y-126630000D03*
X226062500Y-126130000D03*
X226062500Y-125630000D03*
X226062500Y-125130000D03*
X226062500Y-124630000D03*
X226062500Y-124130000D03*
X226062500Y-123630000D03*
X226062500Y-123130000D03*
X226062500Y-122630000D03*
X226062500Y-122130000D03*
X226062500Y-121630000D03*
X226062500Y-121130000D03*
X226062500Y-120630000D03*
X226062500Y-120130000D03*
X226062500Y-119630000D03*
X226062500Y-119130000D03*
X226062500Y-118630000D03*
X226062500Y-118130000D03*
X226062500Y-117630000D03*
X226062500Y-117130000D03*
D19*
X224400000Y-115467500D03*
X223900000Y-115467500D03*
X223400000Y-115467500D03*
X222900000Y-115467500D03*
X222400000Y-115467500D03*
X221900000Y-115467500D03*
X221400000Y-115467500D03*
X220900000Y-115467500D03*
X220400000Y-115467500D03*
X219900000Y-115467500D03*
X219400000Y-115467500D03*
X218900000Y-115467500D03*
X218400000Y-115467500D03*
X217900000Y-115467500D03*
X217400000Y-115467500D03*
X216900000Y-115467500D03*
X216400000Y-115467500D03*
X215900000Y-115467500D03*
X215400000Y-115467500D03*
X214900000Y-115467500D03*
X214400000Y-115467500D03*
X213900000Y-115467500D03*
X213400000Y-115467500D03*
X212900000Y-115467500D03*
X212400000Y-115467500D03*
D20*
X210737500Y-117130000D03*
X210737500Y-117630000D03*
X210737500Y-118130000D03*
X210737500Y-118630000D03*
X210737500Y-119130000D03*
X210737500Y-119630000D03*
X210737500Y-120130000D03*
X210737500Y-120630000D03*
X210737500Y-121130000D03*
X210737500Y-121630000D03*
X210737500Y-122130000D03*
X210737500Y-122630000D03*
X210737500Y-123130000D03*
X210737500Y-123630000D03*
X210737500Y-124130000D03*
X210737500Y-124630000D03*
X210737500Y-125130000D03*
X210737500Y-125630000D03*
X210737500Y-126130000D03*
X210737500Y-126630000D03*
X210737500Y-127130000D03*
X210737500Y-127630000D03*
X210737500Y-128130000D03*
X210737500Y-128630000D03*
X210737500Y-129130000D03*
%TD*%
D21*
%TO.C,C7*%
X191100000Y-131430000D03*
X191100000Y-130470000D03*
%TD*%
D17*
%TO.C,C3*%
X196770000Y-126620000D03*
X197730000Y-126620000D03*
%TD*%
D22*
%TO.C,R31*%
X291020000Y-93065000D03*
X290000000Y-93065000D03*
%TD*%
D13*
%TO.C,C17*%
X228930000Y-129795000D03*
X228930000Y-130755000D03*
%TD*%
D22*
%TO.C,R49*%
X261415000Y-95200000D03*
X260395000Y-95200000D03*
%TD*%
%TO.C,R23*%
X220010000Y-92750000D03*
X218990000Y-92750000D03*
%TD*%
D12*
%TO.C,Q2*%
X246497500Y-119480000D03*
X246497500Y-117580000D03*
X244622500Y-118530000D03*
%TD*%
D22*
%TO.C,R18*%
X246515000Y-108150000D03*
X245495000Y-108150000D03*
%TD*%
D23*
%TO.C,D2*%
X207800000Y-118737500D03*
X207800000Y-117162500D03*
%TD*%
D24*
%TO.C,D3*%
X153475000Y-104380000D03*
X153475000Y-106920000D03*
X159625000Y-106920000D03*
X159625000Y-104380000D03*
%TD*%
D22*
%TO.C,R21*%
X243560000Y-93210000D03*
X242540000Y-93210000D03*
%TD*%
D21*
%TO.C,C8*%
X192350000Y-131430000D03*
X192350000Y-130470000D03*
%TD*%
D15*
%TO.C,C14*%
X231580000Y-128200000D03*
X230620000Y-128200000D03*
%TD*%
D13*
%TO.C,C21*%
X210600000Y-130095000D03*
X210600000Y-131055000D03*
%TD*%
D22*
%TO.C,R22*%
X172870000Y-94050000D03*
X171850000Y-94050000D03*
%TD*%
D11*
%TO.C,R8*%
X193240000Y-114350000D03*
X194260000Y-114350000D03*
%TD*%
D12*
%TO.C,Q1*%
X246522500Y-106805000D03*
X246522500Y-104905000D03*
X244647500Y-105855000D03*
%TD*%
D13*
%TO.C,C20*%
X209180000Y-119120000D03*
X209180000Y-120080000D03*
%TD*%
D16*
%TO.C,R5*%
X230100000Y-130800000D03*
X230100000Y-129780000D03*
%TD*%
D13*
%TO.C,C9*%
X235730000Y-137570000D03*
X235730000Y-138530000D03*
%TD*%
D12*
%TO.C,Q6*%
X260927500Y-93700000D03*
X260927500Y-91800000D03*
X259052500Y-92750000D03*
%TD*%
D13*
%TO.C,C19*%
X227900000Y-126600000D03*
X227900000Y-127560000D03*
%TD*%
%TO.C,C11*%
X192350000Y-132470000D03*
X192350000Y-133430000D03*
%TD*%
D22*
%TO.C,R19*%
X246495000Y-120880000D03*
X245475000Y-120880000D03*
%TD*%
D16*
%TO.C,R6*%
X209150000Y-118100000D03*
X209150000Y-117080000D03*
%TD*%
D14*
%TO.C,R24*%
X234250000Y-89950000D03*
X234250000Y-90970000D03*
%TD*%
D15*
%TO.C,C1*%
X235830000Y-129700000D03*
X234870000Y-129700000D03*
%TD*%
D25*
%TO.C,U1*%
X237750000Y-135010000D03*
X237750000Y-134360000D03*
X237750000Y-133710000D03*
X237750000Y-133060000D03*
X237750000Y-132410000D03*
D26*
X236615000Y-131275000D03*
X235965000Y-131275000D03*
X235315000Y-131275000D03*
X234665000Y-131275000D03*
X234015000Y-131275000D03*
D25*
X232880000Y-132410000D03*
X232880000Y-133060000D03*
X232880000Y-133710000D03*
X232880000Y-134360000D03*
X232880000Y-135010000D03*
D26*
X234015000Y-136145000D03*
X234665000Y-136145000D03*
X235315000Y-136145000D03*
X235965000Y-136145000D03*
X236615000Y-136145000D03*
%TD*%
D27*
%TO.C,R12*%
X151300000Y-102562500D03*
X151300000Y-104387500D03*
%TD*%
D14*
%TO.C,R25*%
X163550000Y-91030000D03*
X163550000Y-92050000D03*
%TD*%
D12*
%TO.C,Q5*%
X162637500Y-80500000D03*
X162637500Y-78600000D03*
X160762500Y-79550000D03*
%TD*%
D11*
%TO.C,R17*%
X245250000Y-133855000D03*
X246270000Y-133855000D03*
%TD*%
D28*
%TO.C,SW1*%
X238400000Y-119750000D03*
X232200000Y-119750000D03*
X238400000Y-116050000D03*
X232200000Y-116050000D03*
%TD*%
D16*
%TO.C,R47*%
X177875000Y-139685000D03*
X177875000Y-138665000D03*
%TD*%
D17*
%TO.C,C15*%
X230620000Y-122800000D03*
X231580000Y-122800000D03*
%TD*%
%TO.C,C2*%
X203020000Y-137500000D03*
X203980000Y-137500000D03*
%TD*%
D29*
%TO.C,R13*%
X180550000Y-106100000D03*
X180550000Y-104450000D03*
%TD*%
D16*
%TO.C,R1*%
X239500000Y-134860000D03*
X239500000Y-133840000D03*
%TD*%
D11*
%TO.C,R16*%
X245475000Y-122080000D03*
X246495000Y-122080000D03*
%TD*%
%TO.C,R51*%
X260390000Y-96350000D03*
X261410000Y-96350000D03*
%TD*%
D16*
%TO.C,R45*%
X167875000Y-139660000D03*
X167875000Y-138640000D03*
%TD*%
D30*
%TO.C,U3*%
X192170000Y-124740000D03*
X194470000Y-124740000D03*
X196770000Y-124740000D03*
D31*
X194470000Y-118440000D03*
%TD*%
D14*
%TO.C,R27*%
X244900000Y-141130000D03*
X244900000Y-142150000D03*
%TD*%
%TO.C,R2*%
X199730000Y-133220000D03*
X199730000Y-134240000D03*
%TD*%
D11*
%TO.C,R9*%
X193190000Y-115850000D03*
X194210000Y-115850000D03*
%TD*%
D21*
%TO.C,C10*%
X201950000Y-129910000D03*
X201950000Y-128950000D03*
%TD*%
D23*
%TO.C,D1*%
X200300000Y-124497500D03*
X200300000Y-122922500D03*
%TD*%
D22*
%TO.C,R20*%
X246295000Y-132680000D03*
X245275000Y-132680000D03*
%TD*%
D14*
%TO.C,R26*%
X210750000Y-89440000D03*
X210750000Y-90460000D03*
%TD*%
D32*
%TO.C,U2*%
X201130000Y-132400000D03*
X201130000Y-133050000D03*
X201130000Y-133700000D03*
X201130000Y-134350000D03*
X201130000Y-135000000D03*
D33*
X202265000Y-136135000D03*
X202915000Y-136135000D03*
X203565000Y-136135000D03*
X204215000Y-136135000D03*
X204865000Y-136135000D03*
D32*
X206000000Y-135000000D03*
X206000000Y-134350000D03*
X206000000Y-133700000D03*
X206000000Y-133050000D03*
X206000000Y-132400000D03*
D33*
X204865000Y-131265000D03*
X204215000Y-131265000D03*
X203565000Y-131265000D03*
X202915000Y-131265000D03*
X202265000Y-131265000D03*
%TD*%
D22*
%TO.C,R14*%
X170550000Y-109200000D03*
X169530000Y-109200000D03*
%TD*%
D14*
%TO.C,R33*%
X176350000Y-138675000D03*
X176350000Y-139695000D03*
%TD*%
D34*
%TO.C,C13*%
X195950000Y-130350000D03*
X195950000Y-134750000D03*
%TD*%
D35*
%TO.C,Y1*%
X231900000Y-126600000D03*
X231900000Y-124400000D03*
X230300000Y-124400000D03*
X230300000Y-126600000D03*
%TD*%
D22*
%TO.C,R48*%
X163170000Y-82175000D03*
X162150000Y-82175000D03*
%TD*%
D11*
%TO.C,R7*%
X193240000Y-111700000D03*
X194260000Y-111700000D03*
%TD*%
D16*
%TO.C,R29*%
X227975000Y-142970000D03*
X227975000Y-141950000D03*
%TD*%
D36*
%TO.C,Q4*%
X247900000Y-142150000D03*
D37*
X254200000Y-144450000D03*
D36*
X247900000Y-144450000D03*
X247900000Y-146750000D03*
%TD*%
D21*
%TO.C,C6*%
X203140000Y-129910000D03*
X203140000Y-128950000D03*
%TD*%
D16*
%TO.C,R46*%
X173900000Y-139685000D03*
X173900000Y-138665000D03*
%TD*%
M02*
