G04 #@! TF.GenerationSoftware,KiCad,Pcbnew,(6.0.2)*
G04 #@! TF.CreationDate,2022-03-03T13:43:38+03:00*
G04 #@! TF.ProjectId,Steel_form_Dish_washer PART 1,53746565-6c5f-4666-9f72-6d5f44697368,rev?*
G04 #@! TF.SameCoordinates,Original*
G04 #@! TF.FileFunction,Soldermask,Top*
G04 #@! TF.FilePolarity,Negative*
%FSLAX46Y46*%
G04 Gerber Fmt 4.6, Leading zero omitted, Abs format (unit mm)*
G04 Created by KiCad (PCBNEW (6.0.2)) date 2022-03-03 13:43:38*
%MOMM*%
%LPD*%
G01*
G04 APERTURE LIST*
G04 Aperture macros list*
%AMRoundRect*
0 Rectangle with rounded corners*
0 $1 Rounding radius*
0 $2 $3 $4 $5 $6 $7 $8 $9 X,Y pos of 4 corners*
0 Add a 4 corners polygon primitive as box body*
4,1,4,$2,$3,$4,$5,$6,$7,$8,$9,$2,$3,0*
0 Add four circle primitives for the rounded corners*
1,1,$1+$1,$2,$3*
1,1,$1+$1,$4,$5*
1,1,$1+$1,$6,$7*
1,1,$1+$1,$8,$9*
0 Add four rect primitives between the rounded corners*
20,1,$1+$1,$2,$3,$4,$5,0*
20,1,$1+$1,$4,$5,$6,$7,0*
20,1,$1+$1,$6,$7,$8,$9,0*
20,1,$1+$1,$8,$9,$2,$3,0*%
G04 Aperture macros list end*
%ADD10RoundRect,0.135000X0.185000X-0.135000X0.185000X0.135000X-0.185000X0.135000X-0.185000X-0.135000X0*%
%ADD11R,2.400000X2.400000*%
%ADD12C,2.400000*%
%ADD13C,1.800000*%
%ADD14C,2.200000*%
%ADD15RoundRect,0.150000X-0.587500X-0.150000X0.587500X-0.150000X0.587500X0.150000X-0.587500X0.150000X0*%
%ADD16RoundRect,0.140000X-0.140000X-0.170000X0.140000X-0.170000X0.140000X0.170000X-0.140000X0.170000X0*%
%ADD17RoundRect,0.140000X0.170000X-0.140000X0.170000X0.140000X-0.170000X0.140000X-0.170000X-0.140000X0*%
%ADD18R,1.700000X1.700000*%
%ADD19O,1.700000X1.700000*%
%ADD20R,1.600000X1.600000*%
%ADD21C,1.600000*%
%ADD22RoundRect,0.135000X-0.185000X0.135000X-0.185000X-0.135000X0.185000X-0.135000X0.185000X0.135000X0*%
%ADD23RoundRect,0.250000X0.600000X-0.600000X0.600000X0.600000X-0.600000X0.600000X-0.600000X-0.600000X0*%
%ADD24C,1.700000*%
%ADD25R,2.000000X1.905000*%
%ADD26O,2.000000X1.905000*%
%ADD27RoundRect,0.135000X0.135000X0.185000X-0.135000X0.185000X-0.135000X-0.185000X0.135000X-0.185000X0*%
%ADD28RoundRect,0.250000X0.600000X0.750000X-0.600000X0.750000X-0.600000X-0.750000X0.600000X-0.750000X0*%
%ADD29O,1.700000X2.000000*%
%ADD30RoundRect,0.140000X-0.170000X0.140000X-0.170000X-0.140000X0.170000X-0.140000X0.170000X0.140000X0*%
%ADD31R,2.300000X2.000000*%
%ADD32C,2.300000*%
%ADD33RoundRect,0.135000X-0.135000X-0.185000X0.135000X-0.185000X0.135000X0.185000X-0.135000X0.185000X0*%
%ADD34O,1.600000X1.600000*%
%ADD35RoundRect,0.250000X0.550000X-1.250000X0.550000X1.250000X-0.550000X1.250000X-0.550000X-1.250000X0*%
%ADD36RoundRect,0.200000X0.275000X-0.200000X0.275000X0.200000X-0.275000X0.200000X-0.275000X-0.200000X0*%
%ADD37RoundRect,0.218750X0.256250X-0.218750X0.256250X0.218750X-0.256250X0.218750X-0.256250X-0.218750X0*%
%ADD38R,1.000000X0.800000*%
%ADD39RoundRect,0.140000X0.140000X0.170000X-0.140000X0.170000X-0.140000X-0.170000X0.140000X-0.170000X0*%
%ADD40RoundRect,0.250000X0.600000X0.725000X-0.600000X0.725000X-0.600000X-0.725000X0.600000X-0.725000X0*%
%ADD41O,1.700000X1.950000*%
%ADD42RoundRect,0.150000X0.587500X0.150000X-0.587500X0.150000X-0.587500X-0.150000X0.587500X-0.150000X0*%
%ADD43RoundRect,0.150000X0.725000X0.150000X-0.725000X0.150000X-0.725000X-0.150000X0.725000X-0.150000X0*%
%ADD44C,4.300000*%
%ADD45RoundRect,0.150000X0.150000X-0.587500X0.150000X0.587500X-0.150000X0.587500X-0.150000X-0.587500X0*%
%ADD46RoundRect,0.250000X-0.262500X-0.450000X0.262500X-0.450000X0.262500X0.450000X-0.262500X0.450000X0*%
%ADD47R,1.800000X1.100000*%
%ADD48R,0.450000X0.600000*%
%ADD49RoundRect,0.075000X0.075000X-0.662500X0.075000X0.662500X-0.075000X0.662500X-0.075000X-0.662500X0*%
%ADD50RoundRect,0.075000X0.662500X-0.075000X0.662500X0.075000X-0.662500X0.075000X-0.662500X-0.075000X0*%
%ADD51R,0.600000X0.450000*%
%ADD52R,1.500000X2.200000*%
%ADD53R,3.800000X2.200000*%
%ADD54R,1.850000X1.850000*%
%ADD55C,1.850000*%
%ADD56R,1.200000X1.400000*%
%ADD57R,2.600000X2.600000*%
%ADD58C,2.600000*%
G04 APERTURE END LIST*
D10*
X229450000Y-132150000D03*
X229450000Y-131130000D03*
D11*
X300550000Y-100965000D03*
D12*
X300550000Y-106045000D03*
D13*
X245750000Y-83050000D03*
X243050000Y-90550000D03*
D14*
X256825000Y-125500000D03*
X256825000Y-115500000D03*
X267025000Y-125500000D03*
X254325000Y-120500000D03*
X267025000Y-115500000D03*
D15*
X249212500Y-131700000D03*
X249212500Y-133600000D03*
X251087500Y-132650000D03*
D16*
X226570000Y-129550000D03*
X227530000Y-129550000D03*
D13*
X282550000Y-119550000D03*
X275050000Y-116850000D03*
D17*
X187750000Y-133180000D03*
X187750000Y-132220000D03*
D18*
X229955000Y-101040000D03*
D19*
X229955000Y-103580000D03*
X229955000Y-106120000D03*
X229955000Y-108660000D03*
D10*
X167350000Y-139160000D03*
X167350000Y-138140000D03*
D11*
X169135000Y-64150000D03*
D12*
X164055000Y-64150000D03*
D13*
X145850000Y-108750000D03*
X148550000Y-101250000D03*
D20*
X268690000Y-80695000D03*
D21*
X268690000Y-83235000D03*
X268690000Y-85775000D03*
X276310000Y-85775000D03*
X276310000Y-83235000D03*
X276310000Y-80695000D03*
D22*
X212350000Y-83550000D03*
X212350000Y-84570000D03*
D17*
X186400000Y-133190000D03*
X186400000Y-132230000D03*
D14*
X155100000Y-72250000D03*
X145100000Y-72250000D03*
X155100000Y-62050000D03*
X150100000Y-74750000D03*
X145100000Y-62050000D03*
D13*
X236100000Y-82700000D03*
X233400000Y-90200000D03*
D23*
X200880000Y-108202500D03*
D24*
X200880000Y-105662500D03*
X203420000Y-108202500D03*
X203420000Y-105662500D03*
X205960000Y-108202500D03*
X205960000Y-105662500D03*
X208500000Y-108202500D03*
X208500000Y-105662500D03*
X211040000Y-108202500D03*
X211040000Y-105662500D03*
X213580000Y-108202500D03*
X213580000Y-105662500D03*
X216120000Y-108202500D03*
X216120000Y-105662500D03*
D25*
X281150000Y-79560000D03*
D26*
X281150000Y-82100000D03*
X281150000Y-84640000D03*
D27*
X200130000Y-139850000D03*
X199110000Y-139850000D03*
D28*
X203650000Y-145567500D03*
D29*
X201150000Y-145567500D03*
D30*
X207950000Y-122120000D03*
X207950000Y-123080000D03*
D31*
X152137500Y-122750000D03*
D32*
X152137500Y-127750000D03*
X181537500Y-117550000D03*
X181537500Y-132950000D03*
D33*
X193250000Y-111050000D03*
X194270000Y-111050000D03*
X188770000Y-136900000D03*
X189790000Y-136900000D03*
D11*
X300700000Y-128500000D03*
D12*
X300700000Y-133580000D03*
D33*
X264340000Y-151050000D03*
X265360000Y-151050000D03*
D10*
X185150000Y-83260000D03*
X185150000Y-82240000D03*
X207850000Y-120960000D03*
X207850000Y-119940000D03*
D22*
X171050000Y-138090000D03*
X171050000Y-139110000D03*
D10*
X163250000Y-73510000D03*
X163250000Y-72490000D03*
D28*
X228800000Y-145517500D03*
D29*
X226300000Y-145517500D03*
D20*
X165550000Y-102700000D03*
D34*
X163010000Y-102700000D03*
X163010000Y-110320000D03*
X165550000Y-110320000D03*
D10*
X250300000Y-92020000D03*
X250300000Y-91000000D03*
D35*
X192650000Y-132500000D03*
X192650000Y-128100000D03*
D14*
X262500000Y-83875000D03*
X252500000Y-83875000D03*
X262500000Y-73675000D03*
X257500000Y-86375000D03*
X252500000Y-73675000D03*
D13*
X282170000Y-130500000D03*
X274670000Y-127800000D03*
D33*
X161190000Y-75050000D03*
X162210000Y-75050000D03*
D17*
X185050000Y-133230000D03*
X185050000Y-132270000D03*
D10*
X172500000Y-139160000D03*
X172500000Y-138140000D03*
D13*
X139625000Y-64550000D03*
X136925000Y-72050000D03*
D25*
X227165000Y-82605000D03*
D26*
X227165000Y-85145000D03*
X227165000Y-87685000D03*
D33*
X248750000Y-103000000D03*
X249770000Y-103000000D03*
D15*
X247372500Y-114900000D03*
X247372500Y-116800000D03*
X249247500Y-115850000D03*
D36*
X180900000Y-108800000D03*
X180900000Y-107150000D03*
D37*
X206450000Y-121755000D03*
X206450000Y-120180000D03*
D13*
X181800000Y-81840000D03*
X179100000Y-89340000D03*
D38*
X153475000Y-104380000D03*
X153475000Y-106920000D03*
X159625000Y-106920000D03*
X159625000Y-104380000D03*
D33*
X246740000Y-113400000D03*
X247760000Y-113400000D03*
X264440000Y-146300000D03*
X265460000Y-146300000D03*
D39*
X232125000Y-130000000D03*
X231165000Y-130000000D03*
D14*
X256850000Y-108900000D03*
X256850000Y-98900000D03*
X267050000Y-108900000D03*
X254350000Y-103900000D03*
X267050000Y-98900000D03*
D39*
X218150000Y-116650000D03*
X217190000Y-116650000D03*
D27*
X249720000Y-130200000D03*
X248700000Y-130200000D03*
D22*
X225250000Y-140340000D03*
X225250000Y-141360000D03*
D15*
X249312500Y-99550000D03*
X249312500Y-101450000D03*
X251187500Y-100500000D03*
D22*
X223850000Y-82260000D03*
X223850000Y-83280000D03*
D33*
X199090000Y-141050000D03*
X200110000Y-141050000D03*
D13*
X147200000Y-83750000D03*
X144500000Y-91250000D03*
D16*
X231220000Y-124675000D03*
X232180000Y-124675000D03*
D40*
X218500000Y-145517500D03*
D41*
X216000000Y-145517500D03*
X213500000Y-145517500D03*
D14*
X276350000Y-148700000D03*
X276350000Y-138700000D03*
X286550000Y-148700000D03*
X273850000Y-143700000D03*
X286550000Y-138700000D03*
D42*
X161627500Y-73650000D03*
X161627500Y-71750000D03*
X159752500Y-72700000D03*
D22*
X266700000Y-80600000D03*
X266700000Y-81620000D03*
D30*
X230600000Y-131130000D03*
X230600000Y-132090000D03*
D20*
X159850000Y-81240000D03*
D21*
X159850000Y-83780000D03*
X159850000Y-86320000D03*
X167470000Y-86320000D03*
X167470000Y-83780000D03*
X167470000Y-81240000D03*
D14*
X287150000Y-69800000D03*
X278650000Y-69800000D03*
D10*
X255100000Y-92060000D03*
X255100000Y-91040000D03*
D25*
X172555000Y-81800000D03*
D26*
X172555000Y-84340000D03*
X172555000Y-86880000D03*
D27*
X164260000Y-112250000D03*
X163240000Y-112250000D03*
X200180000Y-138550000D03*
X199160000Y-138550000D03*
D33*
X246830000Y-118250000D03*
X247850000Y-118250000D03*
D39*
X191330000Y-125150000D03*
X190370000Y-125150000D03*
D43*
X196945000Y-140855000D03*
X196945000Y-139585000D03*
X196945000Y-138315000D03*
X196945000Y-137045000D03*
X191795000Y-137045000D03*
X191795000Y-138315000D03*
X191795000Y-139585000D03*
X191795000Y-140855000D03*
D44*
X302700000Y-62750000D03*
D13*
X291500000Y-78850000D03*
X288800000Y-86350000D03*
D18*
X239425000Y-108275000D03*
D19*
X236885000Y-108275000D03*
X239425000Y-105735000D03*
X236885000Y-105735000D03*
X239425000Y-103195000D03*
X236885000Y-103195000D03*
D33*
X193340000Y-112300000D03*
X194360000Y-112300000D03*
X248450000Y-135050000D03*
X249470000Y-135050000D03*
D45*
X251700000Y-91437500D03*
X253600000Y-91437500D03*
X252650000Y-89562500D03*
D46*
X151875000Y-100350000D03*
X153700000Y-100350000D03*
D20*
X187140000Y-83525000D03*
D21*
X187140000Y-86065000D03*
X187140000Y-88605000D03*
X194760000Y-88605000D03*
X194760000Y-86065000D03*
X194760000Y-83525000D03*
D47*
X240425000Y-115625000D03*
X234225000Y-115625000D03*
X234225000Y-119325000D03*
X240425000Y-119325000D03*
D14*
X257125000Y-142700000D03*
X257125000Y-132700000D03*
X267325000Y-142700000D03*
X254625000Y-137700000D03*
X267325000Y-132700000D03*
D44*
X127700000Y-147750000D03*
D39*
X209430000Y-133300000D03*
X208470000Y-133300000D03*
X186580000Y-125200000D03*
X185620000Y-125200000D03*
D33*
X193320000Y-113600000D03*
X194340000Y-113600000D03*
D11*
X300700000Y-114815000D03*
D12*
X300700000Y-119895000D03*
D33*
X188700000Y-138350000D03*
X189720000Y-138350000D03*
D44*
X302700000Y-147750000D03*
D48*
X269450000Y-147800000D03*
X269450000Y-149900000D03*
D44*
X127700000Y-62750000D03*
D46*
X151825000Y-111250000D03*
X153650000Y-111250000D03*
D28*
X191150000Y-145517500D03*
D29*
X188650000Y-145517500D03*
D10*
X278350000Y-81500000D03*
X278350000Y-80480000D03*
D14*
X215800000Y-69850000D03*
X207300000Y-69850000D03*
X198800000Y-69850000D03*
X190300000Y-69850000D03*
D49*
X211350000Y-133712500D03*
X211850000Y-133712500D03*
X212350000Y-133712500D03*
X212850000Y-133712500D03*
X213350000Y-133712500D03*
X213850000Y-133712500D03*
X214350000Y-133712500D03*
X214850000Y-133712500D03*
X215350000Y-133712500D03*
X215850000Y-133712500D03*
X216350000Y-133712500D03*
X216850000Y-133712500D03*
X217350000Y-133712500D03*
X217850000Y-133712500D03*
X218350000Y-133712500D03*
X218850000Y-133712500D03*
X219350000Y-133712500D03*
X219850000Y-133712500D03*
X220350000Y-133712500D03*
X220850000Y-133712500D03*
X221350000Y-133712500D03*
X221850000Y-133712500D03*
X222350000Y-133712500D03*
X222850000Y-133712500D03*
X223350000Y-133712500D03*
D50*
X225012500Y-132050000D03*
X225012500Y-131550000D03*
X225012500Y-131050000D03*
X225012500Y-130550000D03*
X225012500Y-130050000D03*
X225012500Y-129550000D03*
X225012500Y-129050000D03*
X225012500Y-128550000D03*
X225012500Y-128050000D03*
X225012500Y-127550000D03*
X225012500Y-127050000D03*
X225012500Y-126550000D03*
X225012500Y-126050000D03*
X225012500Y-125550000D03*
X225012500Y-125050000D03*
X225012500Y-124550000D03*
X225012500Y-124050000D03*
X225012500Y-123550000D03*
X225012500Y-123050000D03*
X225012500Y-122550000D03*
X225012500Y-122050000D03*
X225012500Y-121550000D03*
X225012500Y-121050000D03*
X225012500Y-120550000D03*
X225012500Y-120050000D03*
D49*
X223350000Y-118387500D03*
X222850000Y-118387500D03*
X222350000Y-118387500D03*
X221850000Y-118387500D03*
X221350000Y-118387500D03*
X220850000Y-118387500D03*
X220350000Y-118387500D03*
X219850000Y-118387500D03*
X219350000Y-118387500D03*
X218850000Y-118387500D03*
X218350000Y-118387500D03*
X217850000Y-118387500D03*
X217350000Y-118387500D03*
X216850000Y-118387500D03*
X216350000Y-118387500D03*
X215850000Y-118387500D03*
X215350000Y-118387500D03*
X214850000Y-118387500D03*
X214350000Y-118387500D03*
X213850000Y-118387500D03*
X213350000Y-118387500D03*
X212850000Y-118387500D03*
X212350000Y-118387500D03*
X211850000Y-118387500D03*
X211350000Y-118387500D03*
D50*
X209687500Y-120050000D03*
X209687500Y-120550000D03*
X209687500Y-121050000D03*
X209687500Y-121550000D03*
X209687500Y-122050000D03*
X209687500Y-122550000D03*
X209687500Y-123050000D03*
X209687500Y-123550000D03*
X209687500Y-124050000D03*
X209687500Y-124550000D03*
X209687500Y-125050000D03*
X209687500Y-125550000D03*
X209687500Y-126050000D03*
X209687500Y-126550000D03*
X209687500Y-127050000D03*
X209687500Y-127550000D03*
X209687500Y-128050000D03*
X209687500Y-128550000D03*
X209687500Y-129050000D03*
X209687500Y-129550000D03*
X209687500Y-130050000D03*
X209687500Y-130550000D03*
X209687500Y-131050000D03*
X209687500Y-131550000D03*
X209687500Y-132050000D03*
D48*
X251300000Y-119500000D03*
X251300000Y-117400000D03*
D22*
X165800000Y-138040000D03*
X165800000Y-139060000D03*
D27*
X189740000Y-139750000D03*
X188720000Y-139750000D03*
D40*
X242500000Y-145517500D03*
D41*
X240000000Y-145517500D03*
X237500000Y-145517500D03*
D51*
X257200000Y-89450000D03*
X255100000Y-89450000D03*
D10*
X192700000Y-118760000D03*
X192700000Y-117740000D03*
D39*
X207950000Y-131300000D03*
X206990000Y-131300000D03*
D37*
X194250000Y-119125000D03*
X194250000Y-117550000D03*
D13*
X282520000Y-105650000D03*
X275020000Y-102950000D03*
D33*
X248680000Y-98050000D03*
X249700000Y-98050000D03*
D22*
X160400000Y-138190000D03*
X160400000Y-139210000D03*
D52*
X186230000Y-122850000D03*
X188530000Y-122850000D03*
X190830000Y-122850000D03*
D53*
X188530000Y-116550000D03*
D54*
X185550000Y-104450000D03*
D55*
X190550000Y-104450000D03*
D33*
X193240000Y-109850000D03*
X194260000Y-109850000D03*
D13*
X147250000Y-118850000D03*
X144550000Y-126350000D03*
D22*
X157900000Y-81040000D03*
X157900000Y-82060000D03*
D14*
X135200000Y-86100000D03*
X135200000Y-94600000D03*
X135200000Y-103100000D03*
X135200000Y-111600000D03*
D39*
X215680000Y-135300000D03*
X214720000Y-135300000D03*
D56*
X232500000Y-128425000D03*
X232500000Y-126225000D03*
X230900000Y-126225000D03*
X230900000Y-128425000D03*
D13*
X208100000Y-82410000D03*
X205400000Y-89910000D03*
D48*
X251100000Y-137350000D03*
X251100000Y-135250000D03*
D20*
X214150000Y-83570000D03*
D21*
X214150000Y-86110000D03*
X214150000Y-88650000D03*
X221770000Y-88650000D03*
X221770000Y-86110000D03*
X221770000Y-83570000D03*
D22*
X196700000Y-82290000D03*
X196700000Y-83310000D03*
D51*
X158000000Y-75550000D03*
X160100000Y-75550000D03*
D10*
X169350000Y-82240000D03*
X169350000Y-81220000D03*
D22*
X226450000Y-140340000D03*
X226450000Y-141360000D03*
D48*
X251300000Y-105050000D03*
X251300000Y-102950000D03*
D25*
X199200000Y-82310000D03*
D26*
X199200000Y-84850000D03*
X199200000Y-87390000D03*
D10*
X161750000Y-139210000D03*
X161750000Y-138190000D03*
D11*
X249335000Y-64250000D03*
D12*
X244255000Y-64250000D03*
D15*
X264960000Y-147710000D03*
X264960000Y-149610000D03*
X266835000Y-148660000D03*
D17*
X189000000Y-133230000D03*
X189000000Y-132270000D03*
D57*
X161400000Y-146650000D03*
D58*
X166480000Y-146650000D03*
X171560000Y-146650000D03*
M02*
