%TF.GenerationSoftware,KiCad,Pcbnew,(6.0.2)*%
%TF.CreationDate,2022-03-02T09:10:53+03:00*%
%TF.ProjectId,Steel_form_Dish_washer PART 1,53746565-6c5f-4666-9f72-6d5f44697368,rev?*%
%TF.SameCoordinates,Original*%
%TF.FileFunction,Paste,Top*%
%TF.FilePolarity,Positive*%
%FSLAX46Y46*%
G04 Gerber Fmt 4.6, Leading zero omitted, Abs format (unit mm)*
G04 Created by KiCad (PCBNEW (6.0.2)) date 2022-03-02 09:10:53*
%MOMM*%
%LPD*%
G01*
G04 APERTURE LIST*
G04 Aperture macros list*
%AMRoundRect*
0 Rectangle with rounded corners*
0 $1 Rounding radius*
0 $2 $3 $4 $5 $6 $7 $8 $9 X,Y pos of 4 corners*
0 Add a 4 corners polygon primitive as box body*
4,1,4,$2,$3,$4,$5,$6,$7,$8,$9,$2,$3,0*
0 Add four circle primitives for the rounded corners*
1,1,$1+$1,$2,$3*
1,1,$1+$1,$4,$5*
1,1,$1+$1,$6,$7*
1,1,$1+$1,$8,$9*
0 Add four rect primitives between the rounded corners*
20,1,$1+$1,$2,$3,$4,$5,0*
20,1,$1+$1,$4,$5,$6,$7,0*
20,1,$1+$1,$6,$7,$8,$9,0*
20,1,$1+$1,$8,$9,$2,$3,0*%
G04 Aperture macros list end*
%ADD10RoundRect,0.135000X0.185000X-0.135000X0.185000X0.135000X-0.185000X0.135000X-0.185000X-0.135000X0*%
%ADD11RoundRect,0.150000X-0.587500X-0.150000X0.587500X-0.150000X0.587500X0.150000X-0.587500X0.150000X0*%
%ADD12RoundRect,0.140000X-0.140000X-0.170000X0.140000X-0.170000X0.140000X0.170000X-0.140000X0.170000X0*%
%ADD13RoundRect,0.140000X0.170000X-0.140000X0.170000X0.140000X-0.170000X0.140000X-0.170000X-0.140000X0*%
%ADD14RoundRect,0.135000X-0.185000X0.135000X-0.185000X-0.135000X0.185000X-0.135000X0.185000X0.135000X0*%
%ADD15RoundRect,0.135000X0.135000X0.185000X-0.135000X0.185000X-0.135000X-0.185000X0.135000X-0.185000X0*%
%ADD16RoundRect,0.140000X-0.170000X0.140000X-0.170000X-0.140000X0.170000X-0.140000X0.170000X0.140000X0*%
%ADD17RoundRect,0.135000X-0.135000X-0.185000X0.135000X-0.185000X0.135000X0.185000X-0.135000X0.185000X0*%
%ADD18RoundRect,0.250000X0.550000X-1.250000X0.550000X1.250000X-0.550000X1.250000X-0.550000X-1.250000X0*%
%ADD19RoundRect,0.200000X0.275000X-0.200000X0.275000X0.200000X-0.275000X0.200000X-0.275000X-0.200000X0*%
%ADD20RoundRect,0.218750X0.256250X-0.218750X0.256250X0.218750X-0.256250X0.218750X-0.256250X-0.218750X0*%
%ADD21R,1.000000X0.800000*%
%ADD22RoundRect,0.140000X0.140000X0.170000X-0.140000X0.170000X-0.140000X-0.170000X0.140000X-0.170000X0*%
%ADD23RoundRect,0.150000X0.587500X0.150000X-0.587500X0.150000X-0.587500X-0.150000X0.587500X-0.150000X0*%
%ADD24RoundRect,0.150000X0.725000X0.150000X-0.725000X0.150000X-0.725000X-0.150000X0.725000X-0.150000X0*%
%ADD25RoundRect,0.150000X0.150000X-0.587500X0.150000X0.587500X-0.150000X0.587500X-0.150000X-0.587500X0*%
%ADD26RoundRect,0.250000X-0.262500X-0.450000X0.262500X-0.450000X0.262500X0.450000X-0.262500X0.450000X0*%
%ADD27R,1.800000X1.100000*%
%ADD28R,0.450000X0.600000*%
%ADD29RoundRect,0.075000X0.075000X-0.662500X0.075000X0.662500X-0.075000X0.662500X-0.075000X-0.662500X0*%
%ADD30RoundRect,0.075000X0.662500X-0.075000X0.662500X0.075000X-0.662500X0.075000X-0.662500X-0.075000X0*%
%ADD31R,0.600000X0.450000*%
%ADD32R,1.500000X2.200000*%
%ADD33R,3.800000X2.200000*%
%ADD34R,1.200000X1.400000*%
G04 APERTURE END LIST*
D10*
%TO.C,R10*%
X229450000Y-132150000D03*
X229450000Y-131130000D03*
%TD*%
D11*
%TO.C,Q3*%
X249212500Y-131700000D03*
X249212500Y-133600000D03*
X251087500Y-132650000D03*
%TD*%
D12*
%TO.C,C12*%
X226570000Y-129550000D03*
X227530000Y-129550000D03*
%TD*%
D13*
%TO.C,C5*%
X187750000Y-133180000D03*
X187750000Y-132220000D03*
%TD*%
D10*
%TO.C,R30*%
X167350000Y-139160000D03*
X167350000Y-138140000D03*
%TD*%
D14*
%TO.C,R32*%
X212350000Y-83550000D03*
X212350000Y-84570000D03*
%TD*%
D13*
%TO.C,C4*%
X186400000Y-133190000D03*
X186400000Y-132230000D03*
%TD*%
D15*
%TO.C,R4*%
X200130000Y-139850000D03*
X199110000Y-139850000D03*
%TD*%
D16*
%TO.C,C16*%
X207950000Y-122120000D03*
X207950000Y-123080000D03*
%TD*%
D17*
%TO.C,R15*%
X193250000Y-111050000D03*
X194270000Y-111050000D03*
%TD*%
%TO.C,R3*%
X188770000Y-136900000D03*
X189790000Y-136900000D03*
%TD*%
%TO.C,R39*%
X264340000Y-151050000D03*
X265360000Y-151050000D03*
%TD*%
D10*
%TO.C,R34*%
X185150000Y-83260000D03*
X185150000Y-82240000D03*
%TD*%
%TO.C,R11*%
X207850000Y-120960000D03*
X207850000Y-119940000D03*
%TD*%
D14*
%TO.C,R28*%
X171050000Y-138090000D03*
X171050000Y-139110000D03*
%TD*%
D15*
%TO.C,R43*%
X162160000Y-70300000D03*
X161140000Y-70300000D03*
%TD*%
D10*
%TO.C,R40*%
X250300000Y-92020000D03*
X250300000Y-91000000D03*
%TD*%
D18*
%TO.C,C7*%
X192650000Y-132500000D03*
X192650000Y-128100000D03*
%TD*%
D17*
%TO.C,R41*%
X161190000Y-75050000D03*
X162210000Y-75050000D03*
%TD*%
D13*
%TO.C,C3*%
X185050000Y-133230000D03*
X185050000Y-132270000D03*
%TD*%
D10*
%TO.C,R31*%
X172500000Y-139160000D03*
X172500000Y-138140000D03*
%TD*%
D17*
%TO.C,R23*%
X248750000Y-103000000D03*
X249770000Y-103000000D03*
%TD*%
D11*
%TO.C,Q2*%
X247372500Y-114900000D03*
X247372500Y-116800000D03*
X249247500Y-115850000D03*
%TD*%
D19*
%TO.C,R18*%
X180900000Y-108800000D03*
X180900000Y-107150000D03*
%TD*%
D20*
%TO.C,D2*%
X206450000Y-121755000D03*
X206450000Y-120180000D03*
%TD*%
D21*
%TO.C,D3*%
X153475000Y-104380000D03*
X153475000Y-106920000D03*
X159625000Y-106920000D03*
X159625000Y-104380000D03*
%TD*%
D17*
%TO.C,R21*%
X246740000Y-113400000D03*
X247760000Y-113400000D03*
%TD*%
%TO.C,R38*%
X264440000Y-146300000D03*
X265460000Y-146300000D03*
%TD*%
D22*
%TO.C,C8*%
X232830000Y-128300000D03*
X231870000Y-128300000D03*
%TD*%
%TO.C,C14*%
X218150000Y-116650000D03*
X217190000Y-116650000D03*
%TD*%
D15*
%TO.C,R22*%
X249720000Y-130200000D03*
X248700000Y-130200000D03*
%TD*%
D14*
%TO.C,R8*%
X225250000Y-140340000D03*
X225250000Y-141360000D03*
%TD*%
D11*
%TO.C,Q1*%
X249312500Y-99550000D03*
X249312500Y-101450000D03*
X251187500Y-100500000D03*
%TD*%
D14*
%TO.C,R35*%
X223850000Y-82260000D03*
X223850000Y-83280000D03*
%TD*%
D17*
%TO.C,R5*%
X199090000Y-141050000D03*
X200110000Y-141050000D03*
%TD*%
D12*
%TO.C,C9*%
X230090000Y-122800000D03*
X231050000Y-122800000D03*
%TD*%
D23*
%TO.C,Q6*%
X161627500Y-73650000D03*
X161627500Y-71750000D03*
X159752500Y-72700000D03*
%TD*%
D14*
%TO.C,R44*%
X266700000Y-80600000D03*
X266700000Y-81620000D03*
%TD*%
D16*
%TO.C,C11*%
X230600000Y-131130000D03*
X230600000Y-132090000D03*
%TD*%
D10*
%TO.C,R42*%
X255100000Y-92060000D03*
X255100000Y-91040000D03*
%TD*%
D15*
%TO.C,R19*%
X164260000Y-112250000D03*
X163240000Y-112250000D03*
%TD*%
%TO.C,R6*%
X200180000Y-138550000D03*
X199160000Y-138550000D03*
%TD*%
D17*
%TO.C,R24*%
X246830000Y-118250000D03*
X247850000Y-118250000D03*
%TD*%
D22*
%TO.C,C1*%
X191330000Y-125150000D03*
X190370000Y-125150000D03*
%TD*%
D24*
%TO.C,U1*%
X196945000Y-140855000D03*
X196945000Y-139585000D03*
X196945000Y-138315000D03*
X196945000Y-137045000D03*
X191795000Y-137045000D03*
X191795000Y-138315000D03*
X191795000Y-139585000D03*
X191795000Y-140855000D03*
%TD*%
D17*
%TO.C,R12*%
X193340000Y-112300000D03*
X194360000Y-112300000D03*
%TD*%
%TO.C,R25*%
X248450000Y-135050000D03*
X249470000Y-135050000D03*
%TD*%
D25*
%TO.C,Q5*%
X251700000Y-91437500D03*
X253600000Y-91437500D03*
X252650000Y-89562500D03*
%TD*%
D26*
%TO.C,R17*%
X151875000Y-100350000D03*
X153700000Y-100350000D03*
%TD*%
D27*
%TO.C,SW1*%
X234300000Y-115500000D03*
X234300000Y-119200000D03*
X240500000Y-119200000D03*
X240500000Y-115500000D03*
%TD*%
D22*
%TO.C,C15*%
X209430000Y-133300000D03*
X208470000Y-133300000D03*
%TD*%
%TO.C,C2*%
X186580000Y-125200000D03*
X185620000Y-125200000D03*
%TD*%
D17*
%TO.C,R13*%
X193320000Y-113600000D03*
X194340000Y-113600000D03*
%TD*%
%TO.C,R1*%
X188700000Y-138350000D03*
X189720000Y-138350000D03*
%TD*%
D28*
%TO.C,D10*%
X269450000Y-147800000D03*
X269450000Y-149900000D03*
%TD*%
D26*
%TO.C,R16*%
X151825000Y-111250000D03*
X153650000Y-111250000D03*
%TD*%
D10*
%TO.C,R45*%
X278350000Y-81500000D03*
X278350000Y-80480000D03*
%TD*%
D29*
%TO.C,U3*%
X211350000Y-133712500D03*
X211850000Y-133712500D03*
X212350000Y-133712500D03*
X212850000Y-133712500D03*
X213350000Y-133712500D03*
X213850000Y-133712500D03*
X214350000Y-133712500D03*
X214850000Y-133712500D03*
X215350000Y-133712500D03*
X215850000Y-133712500D03*
X216350000Y-133712500D03*
X216850000Y-133712500D03*
X217350000Y-133712500D03*
X217850000Y-133712500D03*
X218350000Y-133712500D03*
X218850000Y-133712500D03*
X219350000Y-133712500D03*
X219850000Y-133712500D03*
X220350000Y-133712500D03*
X220850000Y-133712500D03*
X221350000Y-133712500D03*
X221850000Y-133712500D03*
X222350000Y-133712500D03*
X222850000Y-133712500D03*
X223350000Y-133712500D03*
D30*
X225012500Y-132050000D03*
X225012500Y-131550000D03*
X225012500Y-131050000D03*
X225012500Y-130550000D03*
X225012500Y-130050000D03*
X225012500Y-129550000D03*
X225012500Y-129050000D03*
X225012500Y-128550000D03*
X225012500Y-128050000D03*
X225012500Y-127550000D03*
X225012500Y-127050000D03*
X225012500Y-126550000D03*
X225012500Y-126050000D03*
X225012500Y-125550000D03*
X225012500Y-125050000D03*
X225012500Y-124550000D03*
X225012500Y-124050000D03*
X225012500Y-123550000D03*
X225012500Y-123050000D03*
X225012500Y-122550000D03*
X225012500Y-122050000D03*
X225012500Y-121550000D03*
X225012500Y-121050000D03*
X225012500Y-120550000D03*
X225012500Y-120050000D03*
D29*
X223350000Y-118387500D03*
X222850000Y-118387500D03*
X222350000Y-118387500D03*
X221850000Y-118387500D03*
X221350000Y-118387500D03*
X220850000Y-118387500D03*
X220350000Y-118387500D03*
X219850000Y-118387500D03*
X219350000Y-118387500D03*
X218850000Y-118387500D03*
X218350000Y-118387500D03*
X217850000Y-118387500D03*
X217350000Y-118387500D03*
X216850000Y-118387500D03*
X216350000Y-118387500D03*
X215850000Y-118387500D03*
X215350000Y-118387500D03*
X214850000Y-118387500D03*
X214350000Y-118387500D03*
X213850000Y-118387500D03*
X213350000Y-118387500D03*
X212850000Y-118387500D03*
X212350000Y-118387500D03*
X211850000Y-118387500D03*
X211350000Y-118387500D03*
D30*
X209687500Y-120050000D03*
X209687500Y-120550000D03*
X209687500Y-121050000D03*
X209687500Y-121550000D03*
X209687500Y-122050000D03*
X209687500Y-122550000D03*
X209687500Y-123050000D03*
X209687500Y-123550000D03*
X209687500Y-124050000D03*
X209687500Y-124550000D03*
X209687500Y-125050000D03*
X209687500Y-125550000D03*
X209687500Y-126050000D03*
X209687500Y-126550000D03*
X209687500Y-127050000D03*
X209687500Y-127550000D03*
X209687500Y-128050000D03*
X209687500Y-128550000D03*
X209687500Y-129050000D03*
X209687500Y-129550000D03*
X209687500Y-130050000D03*
X209687500Y-130550000D03*
X209687500Y-131050000D03*
X209687500Y-131550000D03*
X209687500Y-132050000D03*
%TD*%
D28*
%TO.C,D5*%
X251300000Y-119500000D03*
X251300000Y-117400000D03*
%TD*%
D14*
%TO.C,R27*%
X165800000Y-138040000D03*
X165800000Y-139060000D03*
%TD*%
D15*
%TO.C,R2*%
X189740000Y-139750000D03*
X188720000Y-139750000D03*
%TD*%
D31*
%TO.C,D11*%
X257200000Y-89450000D03*
X255100000Y-89450000D03*
%TD*%
D10*
%TO.C,R9*%
X192700000Y-118760000D03*
X192700000Y-117740000D03*
%TD*%
D22*
%TO.C,C10*%
X207950000Y-131300000D03*
X206990000Y-131300000D03*
%TD*%
D20*
%TO.C,D1*%
X194250000Y-119125000D03*
X194250000Y-117550000D03*
%TD*%
D17*
%TO.C,R20*%
X248680000Y-98050000D03*
X249700000Y-98050000D03*
%TD*%
D14*
%TO.C,R26*%
X160400000Y-138190000D03*
X160400000Y-139210000D03*
%TD*%
D32*
%TO.C,U2*%
X186230000Y-122850000D03*
X188530000Y-122850000D03*
X190830000Y-122850000D03*
D33*
X188530000Y-116550000D03*
%TD*%
D17*
%TO.C,R14*%
X193240000Y-109850000D03*
X194260000Y-109850000D03*
%TD*%
D14*
%TO.C,R33*%
X157900000Y-81040000D03*
X157900000Y-82060000D03*
%TD*%
D22*
%TO.C,C13*%
X215680000Y-135300000D03*
X214720000Y-135300000D03*
%TD*%
D34*
%TO.C,Y1*%
X232100000Y-126650000D03*
X232100000Y-124450000D03*
X230500000Y-124450000D03*
X230500000Y-126650000D03*
%TD*%
D28*
%TO.C,D6*%
X251100000Y-137350000D03*
X251100000Y-135250000D03*
%TD*%
D14*
%TO.C,R37*%
X196700000Y-82290000D03*
X196700000Y-83310000D03*
%TD*%
D31*
%TO.C,D12*%
X158000000Y-75550000D03*
X160100000Y-75550000D03*
%TD*%
D10*
%TO.C,R36*%
X169350000Y-82240000D03*
X169350000Y-81220000D03*
%TD*%
D14*
%TO.C,R7*%
X226450000Y-140340000D03*
X226450000Y-141360000D03*
%TD*%
D28*
%TO.C,D4*%
X251300000Y-105050000D03*
X251300000Y-102950000D03*
%TD*%
D10*
%TO.C,R29*%
X161750000Y-139210000D03*
X161750000Y-138190000D03*
%TD*%
D11*
%TO.C,Q4*%
X264960000Y-147710000D03*
X264960000Y-149610000D03*
X266835000Y-148660000D03*
%TD*%
D13*
%TO.C,C6*%
X189000000Y-133230000D03*
X189000000Y-132270000D03*
%TD*%
M02*
