M48
; DRILL file {KiCad (6.0.2)} date Wed Mar  2 13:09:49 2022
; FORMAT={-:-/ absolute / metric / decimal}
; #@! TF.CreationDate,2022-03-02T13:09:49+03:00
; #@! TF.GenerationSoftware,Kicad,Pcbnew,(6.0.2)
; #@! TF.FileFunction,Plated,1,4,PTH
FMAT,2
METRIC
; #@! TA.AperFunction,Plated,PTH,ViaDrill
T1C0.300
; #@! TA.AperFunction,Plated,PTH,ViaDrill
T2C0.400
; #@! TA.AperFunction,Plated,PTH,ComponentDrill
T3C0.800
; #@! TA.AperFunction,Plated,PTH,ComponentDrill
T4C0.850
; #@! TA.AperFunction,Plated,PTH,ComponentDrill
T5C0.950
; #@! TA.AperFunction,Plated,PTH,ComponentDrill
T6C1.000
; #@! TA.AperFunction,Plated,PTH,ComponentDrill
T7C1.100
; #@! TA.AperFunction,Plated,PTH,ComponentDrill
T8C1.300
; #@! TA.AperFunction,Plated,PTH,ComponentDrill
T9C1.400
; #@! TA.AperFunction,Plated,PTH,ComponentDrill
T10C1.500
; #@! TA.AperFunction,Plated,PTH,ComponentDrill
T11C1.600
%
G90
G05
T1
X139.0Y-81.55
X139.0Y-82.55
X139.1Y-83.8
X140.85Y-83.7
X140.9Y-81.65
X141.0Y-82.7
X151.5Y-116.9
X151.5Y-119.45
X152.7Y-116.95
X152.8Y-119.5
X153.95Y-116.95
X154.35Y-119.5
X155.45Y-116.9
X155.7Y-119.5
X155.85Y-151.25
X156.35Y-139.4
X156.8Y-116.95
X157.35Y-119.55
X172.95Y-107.15
X181.25Y-119.8
X182.35Y-139.4
X182.5Y-151.4
X185.05Y-131.25
X185.65Y-126.2
X186.3Y-131.2
X186.45Y-121.35
X187.65Y-131.1
X189.05Y-131.15
X191.05Y-135.7
X196.25Y-151.45
X196.3Y-127.8
X196.3Y-129.05
X197.0Y-135.65
X208.75Y-151.15
X211.85Y-131.7
X211.95Y-124.5
X212.325Y-126.875
X212.45Y-128.65
X213.0Y-131.85
X214.35Y-127.15
X214.9Y-122.05
X216.75Y-122.7
X217.35Y-123.9
X217.75Y-120.8
X219.837Y-128.313
X220.563Y-121.087
X221.464Y-121.559
X222.175Y-123.875
X222.35Y-151.45
X222.511Y-121.489
X222.55Y-130.65
X222.576Y-128.35
X222.85Y-126.3
X223.45Y-127.8
X223.489Y-125.439
X223.7Y-124.2
X225.5Y-134.25
X233.3Y-151.55
X234.3Y-134.25
X241.35Y-134.25
X246.2Y-126.6
X246.2Y-134.25
X250.25Y-151.6
T2
X142.35Y-92.2
X142.35Y-93.2
X142.35Y-94.2
X142.35Y-95.25
X142.35Y-96.25
X142.35Y-97.35
X142.35Y-98.3
X150.9Y-65.35
X150.95Y-67.0
X151.8Y-104.75
X152.9Y-65.35
X153.1Y-66.9
X154.25Y-70.0
X155.0Y-66.95
X155.05Y-65.35
X156.35Y-98.15
X156.65Y-65.55
X156.65Y-66.9
X157.5Y-98.25
X163.4Y-140.55
X166.0Y-79.15
X169.0Y-141.1
X169.05Y-80.1
X169.325Y-102.2
X175.7Y-102.5
X177.75Y-112.4
X181.626Y-110.773
X184.15Y-93.35
X185.35Y-117.5
X185.425Y-111.875
X187.05Y-62.2
X187.05Y-63.85
X187.05Y-65.6
X187.05Y-67.7
X187.2Y-69.45
X187.25Y-71.2
X187.35Y-73.35
X187.65Y-112.25
X188.5Y-140.65
X189.5Y-113.624
X190.05Y-62.15
X190.15Y-63.6
X190.15Y-65.6
X190.3Y-102.0
X191.1Y-120.2
X191.15Y-121.0
X192.4Y-65.6
X192.45Y-68.95
X192.45Y-73.25
X192.5Y-62.25
X192.5Y-63.7
X192.5Y-71.25
X192.55Y-67.2
X192.7Y-126.05
X193.15Y-139.25
X193.35Y-115.4
X193.447Y-108.203
X194.2Y-114.55
X196.173Y-111.95
X196.285Y-110.191
X196.35Y-109.177
X199.15Y-106.9
X200.3Y-142.2
X201.15Y-122.9
X206.145Y-123.749
X206.8Y-122.9
X208.351Y-132.162
X209.95Y-147.35
X212.3Y-86.0
X216.55Y-101.55
X216.7Y-132.25
X217.673Y-113.7
X218.6Y-147.85
X219.55Y-104.727
X220.05Y-102.6
X222.0Y-138.999
X222.736Y-110.414
X223.793Y-129.095
X224.45Y-140.3
X226.92Y-124.932
X227.6Y-124.2
X227.639Y-130.561
X228.1Y-110.05
X228.4Y-129.55
X228.95Y-137.9
X228.95Y-147.85
X229.35Y-133.1
X229.95Y-120.9
X233.025Y-124.6
X235.9Y-123.45
X241.8Y-101.8
X241.974Y-123.75
X245.0Y-104.4
X245.85Y-101.8
X248.8Y-118.05
X249.3Y-93.95
X249.3Y-132.75
X249.4Y-91.2
X249.6Y-129.25
X249.8Y-103.85
X253.6Y-93.15
X258.6Y-150.65
X262.5Y-125.6
X262.5Y-142.65
X263.7Y-149.6
X265.25Y-84.25
T3
X136.925Y-72.05
X139.625Y-64.55
X144.5Y-91.25
X144.55Y-126.35
X145.85Y-108.75
X147.2Y-83.75
X147.25Y-118.85
X148.55Y-101.25
X163.01Y-102.7
X163.01Y-110.32
X165.55Y-102.7
X165.55Y-110.32
X179.1Y-89.34
X181.8Y-81.84
X205.4Y-89.91
X208.1Y-82.41
X233.4Y-90.2
X236.1Y-82.7
X243.05Y-90.55
X245.75Y-83.05
X274.67Y-127.8
X275.02Y-102.95
X275.05Y-116.85
X282.17Y-130.5
X282.52Y-105.65
X282.55Y-119.55
X288.8Y-86.35
X291.5Y-78.85
T4
X185.55Y-104.45
X190.55Y-104.45
T5
X213.5Y-145.517
X216.0Y-145.517
X218.5Y-145.517
X237.5Y-145.517
X240.0Y-145.517
X242.5Y-145.517
T6
X152.137Y-122.75
X152.137Y-127.75
X159.85Y-81.24
X159.85Y-83.78
X159.85Y-86.32
X167.47Y-81.24
X167.47Y-83.78
X167.47Y-86.32
X181.537Y-117.55
X181.537Y-132.95
X187.14Y-83.525
X187.14Y-86.065
X187.14Y-88.605
X188.65Y-145.517
X191.15Y-145.517
X194.76Y-83.525
X194.76Y-86.065
X194.76Y-88.605
X200.88Y-105.662
X200.88Y-108.203
X201.15Y-145.567
X203.42Y-105.662
X203.42Y-108.203
X203.65Y-145.567
X205.96Y-105.662
X205.96Y-108.203
X208.5Y-105.662
X208.5Y-108.203
X211.04Y-105.662
X211.04Y-108.203
X213.58Y-105.662
X213.58Y-108.203
X214.15Y-83.57
X214.15Y-86.11
X214.15Y-88.65
X216.12Y-105.662
X216.12Y-108.203
X221.77Y-83.57
X221.77Y-86.11
X221.77Y-88.65
X226.3Y-145.517
X228.8Y-145.517
X229.955Y-101.04
X229.955Y-103.58
X229.955Y-106.12
X229.955Y-108.66
X236.885Y-103.195
X236.885Y-105.735
X236.885Y-108.275
X239.425Y-103.195
X239.425Y-105.735
X239.425Y-108.275
X268.69Y-80.695
X268.69Y-83.235
X268.69Y-85.775
X276.31Y-80.695
X276.31Y-83.235
X276.31Y-85.775
T7
X172.555Y-81.8
X172.555Y-84.34
X172.555Y-86.88
X199.2Y-82.31
X199.2Y-84.85
X199.2Y-87.39
X227.165Y-82.605
X227.165Y-85.145
X227.165Y-87.685
X281.15Y-79.56
X281.15Y-82.1
X281.15Y-84.64
T8
X161.4Y-146.65
X166.48Y-146.65
X171.56Y-146.65
T9
X135.2Y-86.1
X135.2Y-94.6
X135.2Y-103.1
X135.2Y-111.6
X190.3Y-69.85
X198.8Y-69.85
X207.3Y-69.85
X215.8Y-69.85
X278.65Y-69.8
X287.15Y-69.8
T10
X145.1Y-62.05
X145.1Y-72.25
X150.1Y-74.75
X155.1Y-62.05
X155.1Y-72.25
X252.5Y-73.675
X252.5Y-83.875
X254.325Y-120.5
X254.35Y-103.9
X254.625Y-137.7
X256.825Y-115.5
X256.825Y-125.5
X256.85Y-98.9
X256.85Y-108.9
X257.125Y-132.7
X257.125Y-142.7
X257.5Y-86.375
X262.5Y-73.675
X262.5Y-83.875
X267.025Y-115.5
X267.025Y-125.5
X267.05Y-98.9
X267.05Y-108.9
X267.325Y-132.7
X267.325Y-142.7
X273.85Y-143.7
X276.35Y-138.7
X276.35Y-148.7
X286.55Y-138.7
X286.55Y-148.7
T11
X164.055Y-64.15
X169.135Y-64.15
X244.255Y-64.25
X249.335Y-64.25
X300.55Y-100.965
X300.55Y-106.045
X300.7Y-114.815
X300.7Y-119.895
X300.7Y-128.5
X300.7Y-133.58
T0
M30
