%TF.GenerationSoftware,KiCad,Pcbnew,(6.0.0)*%
%TF.CreationDate,2022-02-18T09:15:22+03:00*%
%TF.ProjectId,Steel_form_Dish_washer PART 2,53746565-6c5f-4666-9f72-6d5f44697368,rev?*%
%TF.SameCoordinates,Original*%
%TF.FileFunction,Copper,L4,Bot*%
%TF.FilePolarity,Positive*%
%FSLAX46Y46*%
G04 Gerber Fmt 4.6, Leading zero omitted, Abs format (unit mm)*
G04 Created by KiCad (PCBNEW (6.0.0)) date 2022-02-18 09:15:22*
%MOMM*%
%LPD*%
G01*
G04 APERTURE LIST*
G04 Aperture macros list*
%AMRoundRect*
0 Rectangle with rounded corners*
0 $1 Rounding radius*
0 $2 $3 $4 $5 $6 $7 $8 $9 X,Y pos of 4 corners*
0 Add a 4 corners polygon primitive as box body*
4,1,4,$2,$3,$4,$5,$6,$7,$8,$9,$2,$3,0*
0 Add four circle primitives for the rounded corners*
1,1,$1+$1,$2,$3*
1,1,$1+$1,$4,$5*
1,1,$1+$1,$6,$7*
1,1,$1+$1,$8,$9*
0 Add four rect primitives between the rounded corners*
20,1,$1+$1,$2,$3,$4,$5,0*
20,1,$1+$1,$4,$5,$6,$7,0*
20,1,$1+$1,$6,$7,$8,$9,0*
20,1,$1+$1,$8,$9,$2,$3,0*%
G04 Aperture macros list end*
%TA.AperFunction,ComponentPad*%
%ADD10R,1.700000X1.700000*%
%TD*%
%TA.AperFunction,ComponentPad*%
%ADD11O,1.700000X1.700000*%
%TD*%
%TA.AperFunction,SMDPad,CuDef*%
%ADD12RoundRect,0.200000X0.200000X0.275000X-0.200000X0.275000X-0.200000X-0.275000X0.200000X-0.275000X0*%
%TD*%
%TA.AperFunction,ComponentPad*%
%ADD13RoundRect,0.250000X-0.600000X0.600000X-0.600000X-0.600000X0.600000X-0.600000X0.600000X0.600000X0*%
%TD*%
%TA.AperFunction,ComponentPad*%
%ADD14C,1.700000*%
%TD*%
%TA.AperFunction,SMDPad,CuDef*%
%ADD15RoundRect,0.100000X0.637500X0.100000X-0.637500X0.100000X-0.637500X-0.100000X0.637500X-0.100000X0*%
%TD*%
%TA.AperFunction,SMDPad,CuDef*%
%ADD16R,0.500000X4.000000*%
%TD*%
%TA.AperFunction,ViaPad*%
%ADD17C,0.600000*%
%TD*%
%TA.AperFunction,Conductor*%
%ADD18C,0.200000*%
%TD*%
%TA.AperFunction,Conductor*%
%ADD19C,0.304800*%
%TD*%
%TA.AperFunction,Conductor*%
%ADD20C,0.254000*%
%TD*%
%TA.AperFunction,Conductor*%
%ADD21C,0.500000*%
%TD*%
G04 APERTURE END LIST*
D10*
%TO.P,J19,1,Pin_1*%
%TO.N,+3V3*%
X276600000Y-250250000D03*
D11*
%TO.P,J19,2,Pin_2*%
%TO.N,GND*%
X276600000Y-247710000D03*
%TO.P,J19,3,Pin_3*%
%TO.N,/PCB 2/SDA*%
X276600000Y-245170000D03*
%TO.P,J19,4,Pin_4*%
%TO.N,/PCB 2/SCL*%
X276600000Y-242630000D03*
%TO.P,J19,5,Pin_5*%
%TO.N,GND*%
X276600000Y-240090000D03*
%TO.P,J19,6,Pin_6*%
X276600000Y-237550000D03*
%TO.P,J19,7,Pin_7*%
%TO.N,/PCB 2/SCREEN_RST*%
X276600000Y-235010000D03*
%TD*%
D12*
%TO.P,R44,1*%
%TO.N,+3V3*%
X286950000Y-238200000D03*
%TO.P,R44,2*%
%TO.N,/PCB 2/~{IRQ}*%
X285300000Y-238200000D03*
%TD*%
D13*
%TO.P,J18,1,Pin_1*%
%TO.N,+5V*%
X278300000Y-223950000D03*
D14*
%TO.P,J18,2,Pin_2*%
%TO.N,GND*%
X278300000Y-226490000D03*
%TO.P,J18,3,Pin_3*%
%TO.N,/PCB 2/mcu_~{IRQ}*%
X280840000Y-223950000D03*
%TO.P,J18,4,Pin_4*%
%TO.N,+3V3*%
X280840000Y-226490000D03*
%TO.P,J18,5,Pin_5*%
%TO.N,/PCB 2/mcu_SDA*%
X283380000Y-223950000D03*
%TO.P,J18,6,Pin_6*%
%TO.N,/PCB 2/mcu_SCL*%
X283380000Y-226490000D03*
%TO.P,J18,7,Pin_7*%
%TO.N,/PCB 2/RGB_ON{slash}OFF_BLU*%
X285920000Y-223950000D03*
%TO.P,J18,8,Pin_8*%
%TO.N,/PCB 2/RGB_ON{slash}OFF_RED*%
X285920000Y-226490000D03*
%TO.P,J18,9,Pin_9*%
%TO.N,/PCB 2/RGB_ON{slash}OFF_GRN*%
X288460000Y-223950000D03*
%TO.P,J18,10,Pin_10*%
%TO.N,/PCB 2/START_BLU*%
X288460000Y-226490000D03*
%TO.P,J18,11,Pin_11*%
%TO.N,/PCB 2/START_RED*%
X291000000Y-223950000D03*
%TO.P,J18,12,Pin_12*%
%TO.N,/PCB 2/START_GRN*%
X291000000Y-226490000D03*
%TO.P,J18,13,Pin_13*%
%TO.N,/PCB 2/mcu_SCREEN_RST*%
X293540000Y-223950000D03*
%TO.P,J18,14,Pin_14*%
%TO.N,GND*%
X293540000Y-226490000D03*
%TD*%
D15*
%TO.P,U12,1,A1*%
%TO.N,/PCB 2/SDA*%
X286812500Y-230925000D03*
%TO.P,U12,2,VCCA*%
%TO.N,+3V3*%
X286812500Y-231575000D03*
%TO.P,U12,3,A2*%
%TO.N,/PCB 2/SCL*%
X286812500Y-232225000D03*
%TO.P,U12,4,A3*%
%TO.N,/PCB 2/~{IRQ}*%
X286812500Y-232875000D03*
%TO.P,U12,5,A4*%
%TO.N,/PCB 2/SCREEN_RST*%
X286812500Y-233525000D03*
%TO.P,U12,6,A5*%
%TO.N,unconnected-(U12-Pad6)*%
X286812500Y-234175000D03*
%TO.P,U12,7,A6*%
%TO.N,unconnected-(U12-Pad7)*%
X286812500Y-234825000D03*
%TO.P,U12,8,A7*%
%TO.N,unconnected-(U12-Pad8)*%
X286812500Y-235475000D03*
%TO.P,U12,9,A8*%
%TO.N,unconnected-(U12-Pad9)*%
X286812500Y-236125000D03*
%TO.P,U12,10,OE*%
%TO.N,+3V3*%
X286812500Y-236775000D03*
%TO.P,U12,11,GND*%
%TO.N,GND*%
X281087500Y-236775000D03*
%TO.P,U12,12,B8*%
%TO.N,unconnected-(U12-Pad12)*%
X281087500Y-236125000D03*
%TO.P,U12,13,B7*%
%TO.N,unconnected-(U12-Pad13)*%
X281087500Y-235475000D03*
%TO.P,U12,14,B6*%
%TO.N,unconnected-(U12-Pad14)*%
X281087500Y-234825000D03*
%TO.P,U12,15,B5*%
%TO.N,unconnected-(U12-Pad15)*%
X281087500Y-234175000D03*
%TO.P,U12,16,B4*%
%TO.N,/PCB 2/mcu_SCREEN_RST*%
X281087500Y-233525000D03*
%TO.P,U12,17,B3*%
%TO.N,/PCB 2/mcu_~{IRQ}*%
X281087500Y-232875000D03*
%TO.P,U12,18,B2*%
%TO.N,/PCB 2/mcu_SCL*%
X281087500Y-232225000D03*
%TO.P,U12,19,VCCB*%
%TO.N,+5V*%
X281087500Y-231575000D03*
%TO.P,U12,20,B1*%
%TO.N,/PCB 2/mcu_SDA*%
X281087500Y-230925000D03*
%TD*%
D16*
%TO.P,J20,1,Pin_1*%
%TO.N,/PCB 2/ON{slash}OFF*%
X234175000Y-223375000D03*
%TO.P,J20,2,Pin_2*%
%TO.N,/PCB 2/MENU*%
X233345000Y-223375000D03*
%TO.P,J20,3,Pin_3*%
%TO.N,/PCB 2/BACK*%
X232515000Y-223375000D03*
%TO.P,J20,4,Pin_4*%
%TO.N,/PCB 2/LEFT*%
X231685000Y-223375000D03*
%TO.P,J20,5,Pin_5*%
%TO.N,/PCB 2/SET*%
X230855000Y-223375000D03*
%TO.P,J20,6,Pin_6*%
%TO.N,/PCB 2/RIGHT*%
X230025000Y-223375000D03*
%TO.P,J20,7,Pin_7*%
%TO.N,/PCB 2/START*%
X229195000Y-223375000D03*
%TO.P,J20,8,Pin_8*%
%TO.N,GND*%
X228365000Y-223375000D03*
%TO.P,J20,9,Pin_9*%
X227535000Y-223375000D03*
%TO.P,J20,10,Pin_10*%
X226705000Y-223375000D03*
%TD*%
D17*
%TO.N,GND*%
X132075000Y-232000000D03*
X192900000Y-229500000D03*
X169750000Y-221000000D03*
X302950000Y-244500000D03*
X193475000Y-224025000D03*
X292150000Y-234725000D03*
X267000000Y-224875000D03*
X192050000Y-225850000D03*
X291200000Y-250125000D03*
X302900000Y-234725000D03*
X191299500Y-221125000D03*
X102875000Y-250275000D03*
X280725000Y-240400000D03*
X103125000Y-232750000D03*
X95825000Y-241450000D03*
X284325000Y-240150000D03*
X94425000Y-242325000D03*
X92950000Y-241450000D03*
X189500000Y-224650000D03*
X82550000Y-239225000D03*
X169700000Y-232125000D03*
X194275000Y-232225000D03*
X291250000Y-244450000D03*
X251475000Y-224850000D03*
X83100000Y-221875000D03*
X122700000Y-221575000D03*
%TO.N,+3V3*%
X286975000Y-239175000D03*
X282250000Y-242550500D03*
X281175000Y-246425000D03*
X286975000Y-240400000D03*
X282050000Y-245100000D03*
X279700000Y-239275000D03*
%TO.N,/PCB 2/ON{slash}OFF*%
X238149011Y-225399714D03*
%TO.N,/PCB 2/MENU*%
X236950000Y-225450500D03*
%TO.N,/PCB 2/BACK*%
X236644042Y-224711857D03*
%TO.N,/PCB 2/LEFT*%
X238825000Y-224675000D03*
%TO.N,/PCB 2/SET*%
X239621736Y-224608551D03*
%TO.N,/PCB 2/RIGHT*%
X240418482Y-224542217D03*
%TO.N,/PCB 2/START*%
X241213119Y-224454152D03*
%TO.N,/PCB 2/SCREEN_RST*%
X279525000Y-238050000D03*
%TO.N,/PCB 2/RGB_ON{slash}OFF_RED*%
X296423539Y-227800000D03*
X290025000Y-228925000D03*
X292853811Y-228957149D03*
X201175497Y-221225500D03*
X188197447Y-223000972D03*
%TO.N,/PCB 2/RGB_ON{slash}OFF_BLU*%
X290165545Y-228137948D03*
X200100000Y-221225500D03*
X188225818Y-222201974D03*
X293175000Y-228225000D03*
X297200000Y-226925000D03*
%TO.N,/PCB 2/RGB_ON{slash}OFF_GRN*%
X296175000Y-224050000D03*
X188225000Y-223800000D03*
X201975000Y-221225500D03*
%TO.N,/PCB 2/START_GRN*%
X290050000Y-232475000D03*
%TO.N,/PCB 2/~{IRQ}*%
X284435238Y-232060238D03*
%TD*%
D18*
%TO.N,GND*%
X228365000Y-223375000D02*
X226705000Y-223375000D01*
%TO.N,+5V*%
X278300000Y-223950000D02*
X279500000Y-225150000D01*
X281087500Y-231575000D02*
X280025000Y-231575000D01*
X279500000Y-231050000D02*
X279500000Y-230425000D01*
X279500000Y-225150000D02*
X279500000Y-230425000D01*
X280025000Y-231575000D02*
X279500000Y-231050000D01*
D19*
%TO.N,+3V3*%
X281175000Y-249475000D02*
X280400000Y-250250000D01*
D20*
X288826520Y-232276520D02*
X288826520Y-243823480D01*
D19*
X286975000Y-239175000D02*
X286950000Y-239250000D01*
D21*
X279700000Y-239275000D02*
X284547862Y-239275000D01*
D19*
X286975000Y-240900000D02*
X286975000Y-241875000D01*
X280400000Y-250250000D02*
X276600000Y-250250000D01*
D20*
X288125000Y-231575000D02*
X288826520Y-232276520D01*
D19*
X286812500Y-236775000D02*
X286950000Y-236912500D01*
D21*
X286275000Y-242575000D02*
X282274500Y-242575000D01*
X284547862Y-239275000D02*
X286172862Y-240900000D01*
X282274500Y-242575000D02*
X282250000Y-242550500D01*
X286975000Y-241875000D02*
X286275000Y-242575000D01*
D20*
X287550000Y-245100000D02*
X282050000Y-245100000D01*
D21*
X286172862Y-240900000D02*
X286975000Y-240900000D01*
D20*
X286812500Y-231575000D02*
X288125000Y-231575000D01*
X288826520Y-243823480D02*
X287550000Y-245100000D01*
D19*
X286975000Y-240400000D02*
X286975000Y-240900000D01*
X286950000Y-239250000D02*
X286950000Y-238200000D01*
X281175000Y-246425000D02*
X281175000Y-249475000D01*
X286950000Y-236912500D02*
X286950000Y-238200000D01*
D21*
X286975000Y-240400000D02*
X286975000Y-241875000D01*
D18*
%TO.N,/PCB 2/ON{slash}OFF*%
X237475000Y-223375000D02*
X238149011Y-224049011D01*
X234175000Y-223375000D02*
X237475000Y-223375000D01*
X238149011Y-224049011D02*
X238149011Y-225399714D01*
%TO.N,/PCB 2/MENU*%
X233345000Y-223475000D02*
X233345000Y-225495000D01*
X233345000Y-225495000D02*
X233524511Y-225674511D01*
X235874511Y-225674511D02*
X236650489Y-225674511D01*
X236874500Y-225450500D02*
X236950000Y-225450500D01*
X235974511Y-225674511D02*
X235975000Y-225675000D01*
X236650489Y-225674511D02*
X236874500Y-225450500D01*
X233524511Y-225674511D02*
X235874511Y-225674511D01*
%TO.N,/PCB 2/BACK*%
X237549511Y-225024511D02*
X237236857Y-224711857D01*
X232515000Y-223375000D02*
X232515000Y-225715000D01*
X232515000Y-225715000D02*
X232874519Y-226074519D01*
X237549511Y-225750489D02*
X237549511Y-225024511D01*
X237236857Y-224711857D02*
X236644042Y-224711857D01*
X237225481Y-226074519D02*
X237549511Y-225750489D01*
X232874519Y-226074519D02*
X237225481Y-226074519D01*
%TO.N,/PCB 2/LEFT*%
X231685000Y-223375000D02*
X231685000Y-221265000D01*
X238075000Y-220875000D02*
X238825000Y-221625000D01*
X238825000Y-221625000D02*
X238825000Y-224675000D01*
X231685000Y-221265000D02*
X232075000Y-220875000D01*
X232075000Y-220875000D02*
X238075000Y-220875000D01*
%TO.N,/PCB 2/SET*%
X231449520Y-220475480D02*
X239050480Y-220475480D01*
X230855000Y-223375000D02*
X230855000Y-221070000D01*
X230855000Y-221070000D02*
X231449520Y-220475480D01*
X239050480Y-220475480D02*
X239621736Y-221046736D01*
X239621736Y-221046736D02*
X239621736Y-224608551D01*
%TO.N,/PCB 2/RIGHT*%
X230025000Y-223375000D02*
X230025000Y-220750000D01*
X240418482Y-220718482D02*
X240418482Y-224542217D01*
X230774040Y-220000960D02*
X239700960Y-220000960D01*
X239700960Y-220000960D02*
X240418482Y-220718482D01*
X230025000Y-220750000D02*
X230774040Y-220000960D01*
%TO.N,/PCB 2/START*%
X229195000Y-220680000D02*
X230273559Y-219601441D01*
X230273559Y-219601441D02*
X240501441Y-219601441D01*
X229195000Y-223375000D02*
X229195000Y-220680000D01*
X241213119Y-220313119D02*
X241213119Y-224454152D01*
X240501441Y-219601441D02*
X241213119Y-220313119D01*
%TO.N,/PCB 2/SCREEN_RST*%
X286812500Y-233525000D02*
X286159994Y-233525000D01*
X278650000Y-235550000D02*
X278110000Y-235010000D01*
X284900000Y-234000000D02*
X284900000Y-237200000D01*
X278110000Y-235010000D02*
X276600000Y-235010000D01*
X284050000Y-238050000D02*
X279525000Y-238050000D01*
X279150000Y-238050000D02*
X278650000Y-237550000D01*
X286134994Y-233500000D02*
X285400000Y-233500000D01*
X285400000Y-233500000D02*
X284900000Y-234000000D01*
X279525000Y-238050000D02*
X279150000Y-238050000D01*
X278650000Y-237550000D02*
X278650000Y-235550000D01*
X284900000Y-237200000D02*
X284050000Y-238050000D01*
X286159994Y-233525000D02*
X286134994Y-233500000D01*
%TO.N,/PCB 2/SCL*%
X287825000Y-232225000D02*
X288400000Y-232800000D01*
X277120000Y-243150000D02*
X276600000Y-242630000D01*
X288400000Y-241750000D02*
X287000000Y-243150000D01*
X286812500Y-232225000D02*
X287825000Y-232225000D01*
X287000000Y-243150000D02*
X277120000Y-243150000D01*
X288400000Y-232800000D02*
X288400000Y-241750000D01*
%TO.N,/PCB 2/SDA*%
X286812500Y-230925000D02*
X288475000Y-230925000D01*
X279520000Y-245170000D02*
X276600000Y-245170000D01*
X287950000Y-245750000D02*
X280100000Y-245750000D01*
X289253040Y-244446960D02*
X287950000Y-245750000D01*
X280100000Y-245750000D02*
X279520000Y-245170000D01*
X288475000Y-230925000D02*
X289253040Y-231703040D01*
X289253040Y-231703040D02*
X289253040Y-244446960D01*
%TO.N,/PCB 2/mcu_SDA*%
X282075000Y-225255000D02*
X282075000Y-228450000D01*
X281087500Y-229437500D02*
X281087500Y-230925000D01*
X282075000Y-228450000D02*
X281087500Y-229437500D01*
X283380000Y-223950000D02*
X282075000Y-225255000D01*
%TO.N,/PCB 2/mcu_SCREEN_RST*%
X285200000Y-222650000D02*
X292600000Y-222650000D01*
X284675000Y-223175000D02*
X285200000Y-222650000D01*
X282475000Y-233525000D02*
X283700000Y-232300000D01*
X281087500Y-233525000D02*
X282475000Y-233525000D01*
X293540000Y-223590000D02*
X293540000Y-223950000D01*
X292600000Y-222650000D02*
X293540000Y-223590000D01*
X283700000Y-231947654D02*
X284675000Y-230972654D01*
X283700000Y-232300000D02*
X283700000Y-231947654D01*
X284675000Y-230972654D02*
X284675000Y-223175000D01*
%TO.N,/PCB 2/RGB_ON{slash}OFF_RED*%
X285920000Y-227995000D02*
X285920000Y-226490000D01*
X289900000Y-229050000D02*
X286975000Y-229050000D01*
X294715006Y-227800000D02*
X293557857Y-228957149D01*
X200499028Y-223000972D02*
X201000000Y-222500000D01*
X286975000Y-229050000D02*
X285920000Y-227995000D01*
X293557857Y-228957149D02*
X292853811Y-228957149D01*
X201000000Y-222500000D02*
X201175497Y-222324503D01*
X201175497Y-222324503D02*
X201175497Y-221225500D01*
X188197447Y-223000972D02*
X200499028Y-223000972D01*
X290025000Y-228925000D02*
X289900000Y-229050000D01*
X296423539Y-227800000D02*
X294715006Y-227800000D01*
%TO.N,/PCB 2/RGB_ON{slash}OFF_BLU*%
X188225818Y-222201974D02*
X199573026Y-222201974D01*
X296950000Y-227175000D02*
X294775000Y-227175000D01*
X293725000Y-228225000D02*
X293175000Y-228225000D01*
X200000000Y-221775000D02*
X200100000Y-221675000D01*
X199573026Y-222201974D02*
X200000000Y-221775000D01*
X287250000Y-225280000D02*
X285920000Y-223950000D01*
X294775000Y-227175000D02*
X293725000Y-228225000D01*
X297200000Y-226925000D02*
X296950000Y-227175000D01*
X290165545Y-228137948D02*
X288482293Y-228137948D01*
X200100000Y-221675000D02*
X200100000Y-221225500D01*
X287250000Y-226905655D02*
X287250000Y-225280000D01*
X288482293Y-228137948D02*
X287250000Y-226905655D01*
%TO.N,/PCB 2/mcu_SCL*%
X282525000Y-232225000D02*
X283380000Y-231370000D01*
X281087500Y-232225000D02*
X282525000Y-232225000D01*
X283380000Y-231370000D02*
X283380000Y-226490000D01*
%TO.N,/PCB 2/mcu_~{IRQ}*%
X280840000Y-222990000D02*
X280840000Y-223950000D01*
X278334994Y-233550000D02*
X276300480Y-231515486D01*
X280200000Y-232875000D02*
X279525000Y-233550000D01*
X281087500Y-232875000D02*
X280200000Y-232875000D01*
X277306896Y-222400960D02*
X280250960Y-222400960D01*
X279525000Y-233550000D02*
X278334994Y-233550000D01*
X280250960Y-222400960D02*
X280840000Y-222990000D01*
X276300480Y-223407376D02*
X277306896Y-222400960D01*
X276300480Y-231515486D02*
X276300480Y-223407376D01*
%TO.N,/PCB 2/RGB_ON{slash}OFF_GRN*%
X295075000Y-225150000D02*
X289660000Y-225150000D01*
X201975000Y-223025000D02*
X201975000Y-221225500D01*
X188246257Y-223800000D02*
X188645765Y-223400492D01*
X289660000Y-225150000D02*
X288460000Y-223950000D01*
X188645765Y-223400492D02*
X201599508Y-223400492D01*
X188225000Y-223800000D02*
X188246257Y-223800000D01*
X296175000Y-224050000D02*
X295075000Y-225150000D01*
X201599508Y-223400492D02*
X201975000Y-223025000D01*
%TO.N,/PCB 2/START_GRN*%
X291000000Y-231525000D02*
X291000000Y-226490000D01*
X290050000Y-232475000D02*
X291000000Y-231525000D01*
%TO.N,/PCB 2/~{IRQ}*%
X288000000Y-238625000D02*
X288000000Y-239425000D01*
X287272838Y-239725000D02*
X287222838Y-239775000D01*
X287222838Y-239775000D02*
X285825000Y-239775000D01*
X287475000Y-232875000D02*
X288000000Y-233400000D01*
X285250000Y-232875000D02*
X284435238Y-232060238D01*
X287700000Y-239725000D02*
X287272838Y-239725000D01*
X288000000Y-239425000D02*
X287700000Y-239725000D01*
X286812500Y-232875000D02*
X285250000Y-232875000D01*
X288000000Y-233400000D02*
X288000000Y-236300000D01*
X288000000Y-236300000D02*
X288000000Y-238625000D01*
X285300000Y-239250000D02*
X285300000Y-238200000D01*
X285825000Y-239775000D02*
X285300000Y-239250000D01*
X286812500Y-232875000D02*
X287475000Y-232875000D01*
%TD*%
%TA.AperFunction,Conductor*%
%TO.N,GND*%
G36*
X305900000Y-219505146D02*
G01*
X305913824Y-219500654D01*
X305913864Y-219500666D01*
X305913865Y-219500641D01*
X306254029Y-219516368D01*
X306265618Y-219517442D01*
X306610859Y-219565601D01*
X306622299Y-219567740D01*
X306961625Y-219647548D01*
X306972801Y-219650728D01*
X307138064Y-219706119D01*
X307303318Y-219761507D01*
X307314170Y-219765711D01*
X307633055Y-219906512D01*
X307643473Y-219911700D01*
X307947990Y-220081315D01*
X307957885Y-220087441D01*
X308245469Y-220284441D01*
X308254757Y-220291455D01*
X308522938Y-220514149D01*
X308531538Y-220521990D01*
X308778010Y-220768462D01*
X308785851Y-220777062D01*
X309008545Y-221045243D01*
X309015559Y-221054531D01*
X309212559Y-221342115D01*
X309218684Y-221352008D01*
X309248872Y-221406206D01*
X309388300Y-221656527D01*
X309393488Y-221666945D01*
X309534289Y-221985830D01*
X309538493Y-221996682D01*
X309585097Y-222135727D01*
X309641454Y-222303873D01*
X309649269Y-222327190D01*
X309652452Y-222338375D01*
X309711873Y-222591019D01*
X309732260Y-222677701D01*
X309734399Y-222689141D01*
X309764159Y-222902481D01*
X309778372Y-223004370D01*
X309782558Y-223034382D01*
X309783632Y-223045971D01*
X309799359Y-223386135D01*
X309794854Y-223400000D01*
X309800000Y-223415838D01*
X309800000Y-250384162D01*
X309794854Y-250400000D01*
X309799346Y-250413824D01*
X309799334Y-250413864D01*
X309799359Y-250413865D01*
X309788057Y-250658330D01*
X309783632Y-250754029D01*
X309782558Y-250765618D01*
X309734399Y-251110859D01*
X309732260Y-251122299D01*
X309664496Y-251410418D01*
X309652454Y-251461616D01*
X309649272Y-251472801D01*
X309636664Y-251510418D01*
X309538493Y-251803318D01*
X309534289Y-251814170D01*
X309393488Y-252133055D01*
X309388300Y-252143473D01*
X309218685Y-252447990D01*
X309212559Y-252457885D01*
X309015559Y-252745469D01*
X309008545Y-252754757D01*
X308785851Y-253022938D01*
X308778010Y-253031538D01*
X308531538Y-253278010D01*
X308522938Y-253285851D01*
X308254757Y-253508545D01*
X308245469Y-253515559D01*
X307957885Y-253712559D01*
X307947990Y-253718685D01*
X307643473Y-253888300D01*
X307633055Y-253893488D01*
X307314170Y-254034289D01*
X307303318Y-254038493D01*
X307197115Y-254074089D01*
X306972801Y-254149272D01*
X306961625Y-254152452D01*
X306643732Y-254227219D01*
X306622299Y-254232260D01*
X306610859Y-254234399D01*
X306265618Y-254282558D01*
X306254029Y-254283632D01*
X305913865Y-254299359D01*
X305900000Y-254294854D01*
X305884162Y-254300000D01*
X275915838Y-254300000D01*
X275900000Y-254294854D01*
X275886176Y-254299346D01*
X275886136Y-254299334D01*
X275886135Y-254299359D01*
X275545971Y-254283632D01*
X275534382Y-254282558D01*
X275189141Y-254234399D01*
X275177701Y-254232260D01*
X275156268Y-254227219D01*
X274838375Y-254152452D01*
X274827199Y-254149272D01*
X274602885Y-254074089D01*
X274496682Y-254038493D01*
X274485830Y-254034289D01*
X274166945Y-253893488D01*
X274156527Y-253888300D01*
X273852010Y-253718685D01*
X273842115Y-253712559D01*
X273554531Y-253515559D01*
X273545243Y-253508545D01*
X273277062Y-253285851D01*
X273268462Y-253278010D01*
X273021990Y-253031538D01*
X273014149Y-253022938D01*
X272791455Y-252754757D01*
X272784441Y-252745469D01*
X272587441Y-252457885D01*
X272581315Y-252447990D01*
X272411700Y-252143473D01*
X272406512Y-252133055D01*
X272265711Y-251814170D01*
X272261507Y-251803318D01*
X272163336Y-251510418D01*
X272150728Y-251472801D01*
X272147546Y-251461616D01*
X272135505Y-251410418D01*
X272067740Y-251122299D01*
X272065601Y-251110859D01*
X272017442Y-250765618D01*
X272016368Y-250754029D01*
X272011984Y-250659207D01*
X272000641Y-250413865D01*
X272005146Y-250400000D01*
X272000000Y-250384162D01*
X272000000Y-247444183D01*
X275264389Y-247444183D01*
X275265912Y-247452607D01*
X275278292Y-247456000D01*
X277918344Y-247456000D01*
X277931875Y-247452027D01*
X277933180Y-247442947D01*
X277891214Y-247275875D01*
X277887894Y-247266124D01*
X277802972Y-247070814D01*
X277798105Y-247061739D01*
X277682426Y-246882926D01*
X277676136Y-246874757D01*
X277532806Y-246717240D01*
X277525273Y-246710215D01*
X277358139Y-246578222D01*
X277349552Y-246572517D01*
X277163117Y-246469599D01*
X277153705Y-246465369D01*
X276962031Y-246397493D01*
X276904495Y-246355899D01*
X276878579Y-246289801D01*
X276892513Y-246220185D01*
X276941872Y-246169154D01*
X276970206Y-246157362D01*
X276975790Y-246155803D01*
X276975799Y-246155800D01*
X276981725Y-246154145D01*
X276987214Y-246151372D01*
X276987220Y-246151370D01*
X277160116Y-246064033D01*
X277165610Y-246061258D01*
X277172923Y-246055545D01*
X277249412Y-245995785D01*
X277327951Y-245934424D01*
X277334410Y-245926942D01*
X277458540Y-245783134D01*
X277458540Y-245783133D01*
X277462564Y-245778472D01*
X277483387Y-245741818D01*
X277561276Y-245604707D01*
X277564323Y-245599344D01*
X277576059Y-245564066D01*
X277578500Y-245556727D01*
X277618982Y-245498403D01*
X277684571Y-245471224D01*
X277698058Y-245470500D01*
X279343339Y-245470500D01*
X279411460Y-245490502D01*
X279432434Y-245507405D01*
X279850481Y-245925452D01*
X279852237Y-245927486D01*
X279854575Y-245932269D01*
X279863104Y-245940181D01*
X279863105Y-245940182D01*
X279890477Y-245965573D01*
X279893882Y-245968853D01*
X279907277Y-245982248D01*
X279911247Y-245984972D01*
X279913895Y-245987297D01*
X279921428Y-245994285D01*
X279936646Y-246008401D01*
X279947453Y-246012713D01*
X279951438Y-246015232D01*
X279962247Y-246021004D01*
X279966552Y-246022911D01*
X279976146Y-246029493D01*
X280000099Y-246035177D01*
X280000136Y-246035186D01*
X280017732Y-246040751D01*
X280040622Y-246049883D01*
X280046915Y-246050500D01*
X280049997Y-246050500D01*
X280053067Y-246050650D01*
X280053056Y-246050866D01*
X280064431Y-246052198D01*
X280073745Y-246052653D01*
X280085066Y-246055340D01*
X280096595Y-246053771D01*
X280096596Y-246053771D01*
X280112173Y-246051651D01*
X280129164Y-246050500D01*
X280599512Y-246050500D01*
X280667633Y-246070502D01*
X280714126Y-246124158D01*
X280724230Y-246194432D01*
X280713567Y-246230049D01*
X280691447Y-246277163D01*
X280689142Y-246291968D01*
X280672629Y-246398027D01*
X280669391Y-246418823D01*
X280670555Y-246427725D01*
X280670555Y-246427728D01*
X280676031Y-246469599D01*
X280687980Y-246560979D01*
X280745720Y-246692203D01*
X280792552Y-246747917D01*
X280821072Y-246812930D01*
X280822100Y-246828990D01*
X280822100Y-249276634D01*
X280802098Y-249344755D01*
X280785195Y-249365729D01*
X280290729Y-249860195D01*
X280228417Y-249894221D01*
X280201634Y-249897100D01*
X277776500Y-249897100D01*
X277708379Y-249877098D01*
X277661886Y-249823442D01*
X277650500Y-249771100D01*
X277650500Y-249380252D01*
X277638867Y-249321769D01*
X277594552Y-249255448D01*
X277528231Y-249211133D01*
X277516062Y-249208712D01*
X277516061Y-249208712D01*
X277475816Y-249200707D01*
X277469748Y-249199500D01*
X277190107Y-249199500D01*
X277121986Y-249179498D01*
X277075493Y-249125842D01*
X277065389Y-249055568D01*
X277094883Y-248990988D01*
X277134675Y-248960349D01*
X277293090Y-248882742D01*
X277301945Y-248877464D01*
X277475328Y-248753792D01*
X277483200Y-248747139D01*
X277634052Y-248596812D01*
X277640730Y-248588965D01*
X277765003Y-248416020D01*
X277770313Y-248407183D01*
X277864670Y-248216267D01*
X277868469Y-248206672D01*
X277930377Y-248002910D01*
X277932555Y-247992837D01*
X277933986Y-247981962D01*
X277931775Y-247967778D01*
X277918617Y-247964000D01*
X275283225Y-247964000D01*
X275269694Y-247967973D01*
X275268257Y-247977966D01*
X275298565Y-248112446D01*
X275301645Y-248122275D01*
X275381770Y-248319603D01*
X275386413Y-248328794D01*
X275497694Y-248510388D01*
X275503777Y-248518699D01*
X275643213Y-248679667D01*
X275650580Y-248686883D01*
X275814434Y-248822916D01*
X275822881Y-248828831D01*
X276006756Y-248936279D01*
X276016043Y-248940729D01*
X276055484Y-248955790D01*
X276111987Y-248998778D01*
X276136280Y-249065489D01*
X276120650Y-249134743D01*
X276070059Y-249184554D01*
X276010535Y-249199500D01*
X275730252Y-249199500D01*
X275724184Y-249200707D01*
X275683939Y-249208712D01*
X275683938Y-249208712D01*
X275671769Y-249211133D01*
X275605448Y-249255448D01*
X275561133Y-249321769D01*
X275549500Y-249380252D01*
X275549500Y-251119748D01*
X275550707Y-251125816D01*
X275556349Y-251154178D01*
X275561133Y-251178231D01*
X275605448Y-251244552D01*
X275671769Y-251288867D01*
X275683938Y-251291288D01*
X275683939Y-251291288D01*
X275724184Y-251299293D01*
X275730252Y-251300500D01*
X277469748Y-251300500D01*
X277475816Y-251299293D01*
X277516061Y-251291288D01*
X277516062Y-251291288D01*
X277528231Y-251288867D01*
X277594552Y-251244552D01*
X277638867Y-251178231D01*
X277643652Y-251154178D01*
X277649293Y-251125816D01*
X277650500Y-251119748D01*
X277650500Y-250728900D01*
X277670502Y-250660779D01*
X277724158Y-250614286D01*
X277776500Y-250602900D01*
X280348917Y-250602900D01*
X280368430Y-250604977D01*
X280372968Y-250605191D01*
X280383146Y-250607382D01*
X280403467Y-250604977D01*
X280413642Y-250603773D01*
X280418950Y-250603460D01*
X280418939Y-250603328D01*
X280424117Y-250602900D01*
X280429318Y-250602900D01*
X280434447Y-250602046D01*
X280434450Y-250602046D01*
X280446814Y-250599988D01*
X280452693Y-250599151D01*
X280455759Y-250598788D01*
X280499817Y-250593574D01*
X280507493Y-250589888D01*
X280515891Y-250588490D01*
X280557660Y-250565953D01*
X280562933Y-250563265D01*
X280605725Y-250542717D01*
X280609699Y-250539377D01*
X280611637Y-250537439D01*
X280613253Y-250535957D01*
X280613715Y-250535708D01*
X280613741Y-250535737D01*
X280613868Y-250535625D01*
X280619286Y-250532702D01*
X280653208Y-250496005D01*
X280656637Y-250492439D01*
X281099805Y-250049271D01*
X303496668Y-250049271D01*
X303496755Y-250053273D01*
X303496755Y-250053280D01*
X303503261Y-250351448D01*
X303503349Y-250355465D01*
X303548883Y-250658330D01*
X303549979Y-250662190D01*
X303549980Y-250662195D01*
X303577705Y-250759847D01*
X303632531Y-250952953D01*
X303752937Y-251234560D01*
X303908149Y-251498585D01*
X304095651Y-251740747D01*
X304312404Y-251957122D01*
X304315585Y-251959576D01*
X304315586Y-251959577D01*
X304551701Y-252141739D01*
X304551705Y-252141742D01*
X304554894Y-252144202D01*
X304558373Y-252146239D01*
X304735179Y-252249763D01*
X304819189Y-252298953D01*
X304822874Y-252300521D01*
X304822878Y-252300523D01*
X304942666Y-252351493D01*
X305101006Y-252418867D01*
X305395775Y-252502001D01*
X305599391Y-252532250D01*
X305695419Y-252546516D01*
X305695421Y-252546516D01*
X305698718Y-252547006D01*
X305702049Y-252547146D01*
X305702053Y-252547146D01*
X305738737Y-252548683D01*
X305782084Y-252550500D01*
X305977474Y-252550500D01*
X306100915Y-252542626D01*
X306201639Y-252536201D01*
X306201644Y-252536200D01*
X306205647Y-252535945D01*
X306209584Y-252535183D01*
X306209586Y-252535183D01*
X306502401Y-252478530D01*
X306502405Y-252478529D01*
X306506338Y-252477768D01*
X306797200Y-252381856D01*
X307073518Y-252249763D01*
X307240818Y-252141739D01*
X307327439Y-252085809D01*
X307327440Y-252085808D01*
X307330812Y-252083631D01*
X307359327Y-252059577D01*
X307561849Y-251888734D01*
X307564910Y-251886152D01*
X307772019Y-251660529D01*
X307948780Y-251410418D01*
X308092328Y-251139874D01*
X308113976Y-251082432D01*
X308198919Y-250857044D01*
X308198921Y-250857038D01*
X308200336Y-250853283D01*
X308221952Y-250762195D01*
X308270124Y-250559207D01*
X308270125Y-250559202D01*
X308271053Y-250555291D01*
X308303332Y-250250729D01*
X308301119Y-250149271D01*
X308296739Y-249948552D01*
X308296739Y-249948547D01*
X308296651Y-249944535D01*
X308251117Y-249641670D01*
X308249021Y-249634285D01*
X308196878Y-249450632D01*
X308167469Y-249347047D01*
X308161865Y-249333939D01*
X308112304Y-249218026D01*
X308047063Y-249065440D01*
X307891851Y-248801415D01*
X307704349Y-248559253D01*
X307487596Y-248342878D01*
X307469341Y-248328794D01*
X307248299Y-248158261D01*
X307248295Y-248158258D01*
X307245106Y-248155798D01*
X307068538Y-248052413D01*
X306984275Y-248003075D01*
X306984272Y-248003073D01*
X306980811Y-248001047D01*
X306977126Y-247999479D01*
X306977122Y-247999477D01*
X306790051Y-247919878D01*
X306698994Y-247881133D01*
X306404225Y-247797999D01*
X306174014Y-247763799D01*
X306104581Y-247753484D01*
X306104579Y-247753484D01*
X306101282Y-247752994D01*
X306097951Y-247752854D01*
X306097947Y-247752854D01*
X306061263Y-247751317D01*
X306017916Y-247749500D01*
X305822526Y-247749500D01*
X305699085Y-247757374D01*
X305598361Y-247763799D01*
X305598356Y-247763800D01*
X305594353Y-247764055D01*
X305590416Y-247764817D01*
X305590414Y-247764817D01*
X305297599Y-247821470D01*
X305297595Y-247821471D01*
X305293662Y-247822232D01*
X305002800Y-247918144D01*
X304726482Y-248050237D01*
X304469188Y-248216369D01*
X304466123Y-248218954D01*
X304466121Y-248218956D01*
X304419528Y-248258261D01*
X304235090Y-248413848D01*
X304146472Y-248510388D01*
X304067140Y-248596812D01*
X304027981Y-248639471D01*
X304025667Y-248642746D01*
X304025664Y-248642749D01*
X303959398Y-248736513D01*
X303851220Y-248889582D01*
X303707672Y-249160126D01*
X303706257Y-249163882D01*
X303706256Y-249163883D01*
X303624713Y-249380252D01*
X303599664Y-249446717D01*
X303594160Y-249469912D01*
X303535877Y-249715509D01*
X303528947Y-249744709D01*
X303496668Y-250049271D01*
X281099805Y-250049271D01*
X281388415Y-249760661D01*
X281403684Y-249748328D01*
X281407038Y-249745276D01*
X281415790Y-249739625D01*
X281434808Y-249715501D01*
X281438334Y-249711534D01*
X281438233Y-249711448D01*
X281441591Y-249707485D01*
X281445269Y-249703807D01*
X281455584Y-249689373D01*
X281459135Y-249684643D01*
X281482077Y-249655541D01*
X281488525Y-249647362D01*
X281491347Y-249639327D01*
X281496296Y-249632401D01*
X281499278Y-249622430D01*
X281499280Y-249622426D01*
X281509897Y-249586924D01*
X281511721Y-249581308D01*
X281527452Y-249536513D01*
X281527900Y-249531341D01*
X281527900Y-249528637D01*
X281527996Y-249526405D01*
X281528146Y-249525905D01*
X281528184Y-249525907D01*
X281528194Y-249525743D01*
X281529959Y-249519842D01*
X281527997Y-249469911D01*
X281527900Y-249464965D01*
X281527900Y-246829558D01*
X281547902Y-246761437D01*
X281560485Y-246745003D01*
X281588176Y-246714411D01*
X281588181Y-246714404D01*
X281594200Y-246707754D01*
X281656710Y-246578733D01*
X281680496Y-246437354D01*
X281680647Y-246425000D01*
X281660323Y-246283082D01*
X281636211Y-246230049D01*
X281635575Y-246228651D01*
X281625589Y-246158360D01*
X281655190Y-246093829D01*
X281714980Y-246055545D01*
X281750276Y-246050500D01*
X287897634Y-246050500D01*
X287900307Y-246050696D01*
X287905342Y-246052425D01*
X287916964Y-246051989D01*
X287916966Y-246051989D01*
X287954255Y-246050589D01*
X287958981Y-246050500D01*
X287977948Y-246050500D01*
X287982683Y-246049618D01*
X287986209Y-246049390D01*
X287989949Y-246049249D01*
X288017208Y-246048226D01*
X288027893Y-246043636D01*
X288032493Y-246042599D01*
X288044214Y-246039038D01*
X288048617Y-246037339D01*
X288060053Y-246035209D01*
X288081041Y-246022272D01*
X288097411Y-246013769D01*
X288111888Y-246007549D01*
X288111892Y-246007547D01*
X288120063Y-246004036D01*
X288124949Y-246000022D01*
X288127134Y-245997837D01*
X288129397Y-245995785D01*
X288129542Y-245995945D01*
X288138549Y-245988825D01*
X288145444Y-245982573D01*
X288155348Y-245976468D01*
X288171916Y-245954680D01*
X288183110Y-245941861D01*
X289428492Y-244696479D01*
X289430526Y-244694723D01*
X289435309Y-244692385D01*
X289468613Y-244656483D01*
X289471893Y-244653078D01*
X289485288Y-244639683D01*
X289488012Y-244635713D01*
X289490337Y-244633065D01*
X289503530Y-244618842D01*
X289511441Y-244610314D01*
X289515753Y-244599507D01*
X289518272Y-244595522D01*
X289524044Y-244584713D01*
X289525951Y-244580408D01*
X289532533Y-244570814D01*
X289538226Y-244546824D01*
X289543791Y-244529228D01*
X289549626Y-244514602D01*
X289552923Y-244506338D01*
X289553540Y-244500045D01*
X289553540Y-244496963D01*
X289553690Y-244493893D01*
X289553906Y-244493904D01*
X289555238Y-244482529D01*
X289555693Y-244473215D01*
X289558380Y-244461894D01*
X289554691Y-244434787D01*
X289553540Y-244417796D01*
X289553540Y-232981058D01*
X289573542Y-232912937D01*
X289627198Y-232866444D01*
X289697472Y-232856340D01*
X289749359Y-232876171D01*
X289821919Y-232924471D01*
X289832313Y-232931390D01*
X289969157Y-232974142D01*
X289978129Y-232974306D01*
X289978132Y-232974307D01*
X290043463Y-232975504D01*
X290112499Y-232976770D01*
X290121533Y-232974307D01*
X290242158Y-232941421D01*
X290242160Y-232941420D01*
X290250817Y-232939060D01*
X290372991Y-232864045D01*
X290469200Y-232757754D01*
X290505351Y-232683139D01*
X290527795Y-232636814D01*
X290527795Y-232636813D01*
X290531710Y-232628733D01*
X290555496Y-232487354D01*
X290555647Y-232475000D01*
X290554958Y-232470186D01*
X290554957Y-232470177D01*
X290554475Y-232466810D01*
X290554656Y-232465556D01*
X290554641Y-232465323D01*
X290554690Y-232465320D01*
X290564623Y-232396543D01*
X290590109Y-232359862D01*
X291175452Y-231774519D01*
X291177486Y-231772763D01*
X291182269Y-231770425D01*
X291192455Y-231759445D01*
X291215573Y-231734523D01*
X291218853Y-231731118D01*
X291232248Y-231717723D01*
X291234972Y-231713753D01*
X291237297Y-231711105D01*
X291250490Y-231696882D01*
X291258401Y-231688354D01*
X291262713Y-231677547D01*
X291265232Y-231673562D01*
X291271004Y-231662753D01*
X291272911Y-231658448D01*
X291279493Y-231648854D01*
X291285186Y-231624864D01*
X291290751Y-231607268D01*
X291296586Y-231592642D01*
X291299883Y-231584378D01*
X291300500Y-231578085D01*
X291300500Y-231575003D01*
X291300650Y-231571933D01*
X291300866Y-231571944D01*
X291302198Y-231560569D01*
X291302653Y-231551255D01*
X291305340Y-231539934D01*
X291303629Y-231527357D01*
X291301651Y-231512827D01*
X291300500Y-231495836D01*
X291300500Y-227591279D01*
X291320502Y-227523158D01*
X291374158Y-227476665D01*
X291377015Y-227475460D01*
X291381725Y-227474145D01*
X291565610Y-227381258D01*
X291603762Y-227351451D01*
X291715844Y-227263883D01*
X291727951Y-227254424D01*
X291732737Y-227248880D01*
X291858540Y-227103134D01*
X291858540Y-227103133D01*
X291862564Y-227098472D01*
X291867817Y-227089226D01*
X291934500Y-226971842D01*
X291964323Y-226919344D01*
X291975526Y-226885667D01*
X291988496Y-226846678D01*
X292028978Y-226788354D01*
X292094566Y-226761175D01*
X292164437Y-226773770D01*
X292216406Y-226822141D01*
X292230971Y-226858751D01*
X292238564Y-226892444D01*
X292241645Y-226902275D01*
X292321770Y-227099603D01*
X292326413Y-227108794D01*
X292406460Y-227239420D01*
X292416916Y-227248880D01*
X292425694Y-227245096D01*
X293450905Y-226219885D01*
X293513217Y-226185859D01*
X293584032Y-226190924D01*
X293629095Y-226219885D01*
X293810115Y-226400905D01*
X293844141Y-226463217D01*
X293839076Y-226534032D01*
X293810115Y-226579095D01*
X292786737Y-227602473D01*
X292779977Y-227614853D01*
X292785258Y-227621907D01*
X292821720Y-227643214D01*
X292870444Y-227694852D01*
X292883515Y-227764635D01*
X292856784Y-227830407D01*
X292848037Y-227839453D01*
X292847280Y-227839930D01*
X292844174Y-227843446D01*
X292844170Y-227843451D01*
X292837144Y-227851407D01*
X292752377Y-227947388D01*
X292691447Y-228077163D01*
X292690066Y-228086035D01*
X292671172Y-228207386D01*
X292669391Y-228218823D01*
X292670555Y-228227725D01*
X292670555Y-228227728D01*
X292686816Y-228352079D01*
X292687980Y-228360979D01*
X292689703Y-228364896D01*
X292688787Y-228433525D01*
X292649610Y-228492733D01*
X292635611Y-228502977D01*
X292597548Y-228526993D01*
X292526091Y-228572079D01*
X292520149Y-228578807D01*
X292520148Y-228578808D01*
X292514218Y-228585523D01*
X292431188Y-228679537D01*
X292370258Y-228809312D01*
X292363412Y-228853283D01*
X292352246Y-228925000D01*
X292348202Y-228950972D01*
X292366791Y-229093128D01*
X292424531Y-229224352D01*
X292430308Y-229231225D01*
X292430309Y-229231226D01*
X292500928Y-229315238D01*
X292516781Y-229334097D01*
X292636124Y-229413539D01*
X292772968Y-229456291D01*
X292781940Y-229456455D01*
X292781943Y-229456456D01*
X292847274Y-229457653D01*
X292916310Y-229458919D01*
X292925344Y-229456456D01*
X293045969Y-229423570D01*
X293045971Y-229423569D01*
X293054628Y-229421209D01*
X293176802Y-229346194D01*
X293184200Y-229338021D01*
X293219434Y-229299095D01*
X293279977Y-229262013D01*
X293312850Y-229257649D01*
X293505491Y-229257649D01*
X293508164Y-229257845D01*
X293513199Y-229259574D01*
X293524821Y-229259138D01*
X293524823Y-229259138D01*
X293562112Y-229257738D01*
X293566838Y-229257649D01*
X293585805Y-229257649D01*
X293590540Y-229256767D01*
X293594066Y-229256539D01*
X293597806Y-229256398D01*
X293625065Y-229255375D01*
X293635750Y-229250785D01*
X293640350Y-229249748D01*
X293652071Y-229246187D01*
X293656474Y-229244488D01*
X293667910Y-229242358D01*
X293688898Y-229229421D01*
X293705268Y-229220918D01*
X293719745Y-229214698D01*
X293719749Y-229214696D01*
X293727920Y-229211185D01*
X293732806Y-229207171D01*
X293734991Y-229204986D01*
X293737254Y-229202934D01*
X293737399Y-229203094D01*
X293746406Y-229195974D01*
X293753301Y-229189722D01*
X293763205Y-229183617D01*
X293779773Y-229161829D01*
X293790967Y-229149010D01*
X294802572Y-228137405D01*
X294864884Y-228103379D01*
X294891667Y-228100500D01*
X295963560Y-228100500D01*
X296031681Y-228120502D01*
X296060009Y-228145422D01*
X296086509Y-228176948D01*
X296104682Y-228189045D01*
X296197348Y-228250729D01*
X296205852Y-228256390D01*
X296342696Y-228299142D01*
X296351668Y-228299306D01*
X296351671Y-228299307D01*
X296417002Y-228300504D01*
X296486038Y-228301770D01*
X296495072Y-228299307D01*
X296615697Y-228266421D01*
X296615699Y-228266420D01*
X296624356Y-228264060D01*
X296746530Y-228189045D01*
X296842739Y-228082754D01*
X296858961Y-228049271D01*
X303496668Y-228049271D01*
X303496755Y-228053273D01*
X303496755Y-228053280D01*
X303503261Y-228351448D01*
X303503349Y-228355465D01*
X303548883Y-228658330D01*
X303549979Y-228662190D01*
X303549980Y-228662195D01*
X303578372Y-228762195D01*
X303632531Y-228952953D01*
X303752937Y-229234560D01*
X303908149Y-229498585D01*
X304095651Y-229740747D01*
X304312404Y-229957122D01*
X304315585Y-229959576D01*
X304315586Y-229959577D01*
X304551701Y-230141739D01*
X304551705Y-230141742D01*
X304554894Y-230144202D01*
X304558373Y-230146239D01*
X304735179Y-230249763D01*
X304819189Y-230298953D01*
X304822874Y-230300521D01*
X304822878Y-230300523D01*
X304942666Y-230351493D01*
X305101006Y-230418867D01*
X305395775Y-230502001D01*
X305593164Y-230531325D01*
X305695419Y-230546516D01*
X305695421Y-230546516D01*
X305698718Y-230547006D01*
X305702049Y-230547146D01*
X305702053Y-230547146D01*
X305738737Y-230548683D01*
X305782084Y-230550500D01*
X305977474Y-230550500D01*
X306100915Y-230542626D01*
X306201639Y-230536201D01*
X306201644Y-230536200D01*
X306205647Y-230535945D01*
X306209584Y-230535183D01*
X306209586Y-230535183D01*
X306502401Y-230478530D01*
X306502405Y-230478529D01*
X306506338Y-230477768D01*
X306797200Y-230381856D01*
X307073518Y-230249763D01*
X307330812Y-230083631D01*
X307359327Y-230059577D01*
X307561849Y-229888734D01*
X307564910Y-229886152D01*
X307772019Y-229660529D01*
X307948780Y-229410418D01*
X308092328Y-229139874D01*
X308115370Y-229078733D01*
X308198919Y-228857044D01*
X308198921Y-228857038D01*
X308200336Y-228853283D01*
X308221952Y-228762195D01*
X308270124Y-228559207D01*
X308270125Y-228559202D01*
X308271053Y-228555291D01*
X308303332Y-228250729D01*
X308303084Y-228239323D01*
X308296739Y-227948552D01*
X308296739Y-227948547D01*
X308296651Y-227944535D01*
X308251117Y-227641670D01*
X308250019Y-227637800D01*
X308200769Y-227464334D01*
X308167469Y-227347047D01*
X308047063Y-227065440D01*
X307891851Y-226801415D01*
X307704349Y-226559253D01*
X307513292Y-226368529D01*
X307490437Y-226345714D01*
X307487596Y-226342878D01*
X307456589Y-226318956D01*
X307248299Y-226158261D01*
X307248295Y-226158258D01*
X307245106Y-226155798D01*
X307148917Y-226099477D01*
X306984275Y-226003075D01*
X306984272Y-226003073D01*
X306980811Y-226001047D01*
X306977126Y-225999479D01*
X306977122Y-225999477D01*
X306798535Y-225923488D01*
X306698994Y-225881133D01*
X306404225Y-225797999D01*
X306161844Y-225761991D01*
X306104581Y-225753484D01*
X306104579Y-225753484D01*
X306101282Y-225752994D01*
X306097951Y-225752854D01*
X306097947Y-225752854D01*
X306058692Y-225751209D01*
X306017916Y-225749500D01*
X305822526Y-225749500D01*
X305699085Y-225757374D01*
X305598361Y-225763799D01*
X305598356Y-225763800D01*
X305594353Y-225764055D01*
X305590416Y-225764817D01*
X305590414Y-225764817D01*
X305297599Y-225821470D01*
X305297595Y-225821471D01*
X305293662Y-225822232D01*
X305002800Y-225918144D01*
X304726482Y-226050237D01*
X304469188Y-226216369D01*
X304466123Y-226218954D01*
X304466121Y-226218956D01*
X304373672Y-226296944D01*
X304235090Y-226413848D01*
X304027981Y-226639471D01*
X304025667Y-226642746D01*
X304025664Y-226642749D01*
X304014000Y-226659253D01*
X303851220Y-226889582D01*
X303707672Y-227160126D01*
X303706257Y-227163882D01*
X303706256Y-227163883D01*
X303601284Y-227442419D01*
X303599664Y-227446717D01*
X303594452Y-227468680D01*
X303534638Y-227720729D01*
X303528947Y-227744709D01*
X303496668Y-228049271D01*
X296858961Y-228049271D01*
X296905249Y-227953733D01*
X296929035Y-227812354D01*
X296929186Y-227800000D01*
X296917834Y-227720729D01*
X296910135Y-227666968D01*
X296910134Y-227666965D01*
X296908862Y-227658082D01*
X296905148Y-227649914D01*
X296902627Y-227641292D01*
X296904299Y-227640803D01*
X296895813Y-227581044D01*
X296925417Y-227516514D01*
X296985210Y-227478234D01*
X296994356Y-227476751D01*
X296994236Y-227476220D01*
X297005586Y-227473662D01*
X297017208Y-227473226D01*
X297027892Y-227468636D01*
X297032493Y-227467599D01*
X297044214Y-227464038D01*
X297048617Y-227462339D01*
X297060053Y-227460209D01*
X297081041Y-227447272D01*
X297097403Y-227438772D01*
X297099823Y-227437732D01*
X297106018Y-227435070D01*
X297158072Y-227424855D01*
X297262499Y-227426770D01*
X297271163Y-227424408D01*
X297392158Y-227391421D01*
X297392160Y-227391420D01*
X297400817Y-227389060D01*
X297522991Y-227314045D01*
X297619200Y-227207754D01*
X297658052Y-227127563D01*
X297677795Y-227086814D01*
X297677795Y-227086813D01*
X297681710Y-227078733D01*
X297705496Y-226937354D01*
X297705647Y-226925000D01*
X297695678Y-226855390D01*
X297686596Y-226791968D01*
X297686595Y-226791965D01*
X297685323Y-226783082D01*
X297625984Y-226652572D01*
X297562672Y-226579095D01*
X297538260Y-226550763D01*
X297538257Y-226550760D01*
X297532400Y-226543963D01*
X297412095Y-226465985D01*
X297274739Y-226424907D01*
X297265763Y-226424852D01*
X297265762Y-226424852D01*
X297205555Y-226424484D01*
X297131376Y-226424031D01*
X296993529Y-226463428D01*
X296872280Y-226539930D01*
X296866338Y-226546658D01*
X296866337Y-226546659D01*
X296839149Y-226577444D01*
X296777377Y-226647388D01*
X296768845Y-226665560D01*
X296722929Y-226763358D01*
X296716447Y-226777163D01*
X296715142Y-226785545D01*
X296676235Y-226844634D01*
X296611331Y-226873409D01*
X296594784Y-226874500D01*
X295002846Y-226874500D01*
X294934725Y-226854498D01*
X294888232Y-226800842D01*
X294877924Y-226732054D01*
X294900590Y-226559887D01*
X294901109Y-226553212D01*
X294902572Y-226493364D01*
X294902378Y-226486646D01*
X294884781Y-226272604D01*
X294883096Y-226262424D01*
X294831214Y-226055875D01*
X294827894Y-226046124D01*
X294742972Y-225850814D01*
X294738105Y-225841739D01*
X294622426Y-225662925D01*
X294615075Y-225653380D01*
X294589358Y-225587206D01*
X294603500Y-225517632D01*
X294653011Y-225466748D01*
X294714902Y-225450500D01*
X295022634Y-225450500D01*
X295025307Y-225450696D01*
X295030342Y-225452425D01*
X295041964Y-225451989D01*
X295041966Y-225451989D01*
X295079255Y-225450589D01*
X295083981Y-225450500D01*
X295102948Y-225450500D01*
X295107683Y-225449618D01*
X295111209Y-225449390D01*
X295114949Y-225449249D01*
X295142208Y-225448226D01*
X295152893Y-225443636D01*
X295157493Y-225442599D01*
X295169214Y-225439038D01*
X295173617Y-225437339D01*
X295185053Y-225435209D01*
X295206041Y-225422272D01*
X295222411Y-225413769D01*
X295236888Y-225407549D01*
X295236892Y-225407547D01*
X295245063Y-225404036D01*
X295249949Y-225400022D01*
X295252134Y-225397837D01*
X295254397Y-225395785D01*
X295254542Y-225395945D01*
X295263549Y-225388825D01*
X295270444Y-225382573D01*
X295280348Y-225376468D01*
X295296916Y-225354680D01*
X295308110Y-225341861D01*
X296062843Y-224587128D01*
X296125155Y-224553102D01*
X296154247Y-224550244D01*
X296191711Y-224550930D01*
X296237499Y-224551770D01*
X296246163Y-224549408D01*
X296367158Y-224516421D01*
X296367160Y-224516420D01*
X296375817Y-224514060D01*
X296497991Y-224439045D01*
X296504038Y-224432365D01*
X296583961Y-224344066D01*
X296594200Y-224332754D01*
X296647142Y-224223481D01*
X296652795Y-224211814D01*
X296652795Y-224211813D01*
X296656710Y-224203733D01*
X296680496Y-224062354D01*
X296680647Y-224050000D01*
X296666861Y-223953733D01*
X296661596Y-223916968D01*
X296661595Y-223916965D01*
X296660323Y-223908082D01*
X296600984Y-223777572D01*
X296555391Y-223724659D01*
X296513260Y-223675763D01*
X296513257Y-223675760D01*
X296507400Y-223668963D01*
X296387095Y-223590985D01*
X296249739Y-223549907D01*
X296240763Y-223549852D01*
X296240762Y-223549852D01*
X296180555Y-223549484D01*
X296106376Y-223549031D01*
X295968529Y-223588428D01*
X295847280Y-223664930D01*
X295841338Y-223671658D01*
X295841337Y-223671659D01*
X295815431Y-223700992D01*
X295752377Y-223772388D01*
X295691447Y-223902163D01*
X295687247Y-223929137D01*
X295672935Y-224021063D01*
X295669391Y-224043823D01*
X295671383Y-224059052D01*
X295660384Y-224129192D01*
X295635542Y-224164487D01*
X294987434Y-224812595D01*
X294925122Y-224846621D01*
X294898339Y-224849500D01*
X294426564Y-224849500D01*
X294358443Y-224829498D01*
X294311950Y-224775842D01*
X294301846Y-224705568D01*
X294331183Y-224641169D01*
X294398535Y-224563141D01*
X294398540Y-224563134D01*
X294402564Y-224558472D01*
X294407308Y-224550122D01*
X294457569Y-224461645D01*
X294504323Y-224379344D01*
X294569351Y-224183863D01*
X294595171Y-223979474D01*
X294595583Y-223950000D01*
X294575480Y-223744970D01*
X294515935Y-223547749D01*
X294419218Y-223365849D01*
X294312111Y-223234523D01*
X294292906Y-223210975D01*
X294292903Y-223210972D01*
X294289011Y-223206200D01*
X294279169Y-223198058D01*
X294135025Y-223078811D01*
X294135021Y-223078809D01*
X294130275Y-223074882D01*
X293949055Y-222976897D01*
X293752254Y-222915977D01*
X293746129Y-222915333D01*
X293746128Y-222915333D01*
X293553498Y-222895087D01*
X293553496Y-222895087D01*
X293547369Y-222894443D01*
X293351378Y-222912279D01*
X293281725Y-222898533D01*
X293250864Y-222875893D01*
X292849519Y-222474548D01*
X292847763Y-222472514D01*
X292845425Y-222467731D01*
X292827523Y-222451124D01*
X292809523Y-222434427D01*
X292806118Y-222431147D01*
X292792723Y-222417752D01*
X292788753Y-222415028D01*
X292786105Y-222412703D01*
X292771881Y-222399508D01*
X292771878Y-222399506D01*
X292763354Y-222391599D01*
X292752550Y-222387289D01*
X292748561Y-222384767D01*
X292737773Y-222379006D01*
X292733448Y-222377089D01*
X292723854Y-222370508D01*
X292712535Y-222367822D01*
X292712533Y-222367821D01*
X292699873Y-222364817D01*
X292682276Y-222359252D01*
X292667638Y-222353412D01*
X292667635Y-222353411D01*
X292659378Y-222350117D01*
X292653085Y-222349500D01*
X292650006Y-222349500D01*
X292646933Y-222349350D01*
X292646944Y-222349134D01*
X292635569Y-222347802D01*
X292626254Y-222347346D01*
X292614934Y-222344660D01*
X292603405Y-222346229D01*
X292603404Y-222346229D01*
X292587827Y-222348349D01*
X292570836Y-222349500D01*
X285252366Y-222349500D01*
X285249693Y-222349304D01*
X285244658Y-222347575D01*
X285233036Y-222348011D01*
X285233034Y-222348011D01*
X285195745Y-222349411D01*
X285191019Y-222349500D01*
X285172052Y-222349500D01*
X285167317Y-222350382D01*
X285163791Y-222350610D01*
X285160051Y-222350751D01*
X285132792Y-222351774D01*
X285122107Y-222356364D01*
X285117507Y-222357401D01*
X285105786Y-222360962D01*
X285101383Y-222362661D01*
X285089947Y-222364791D01*
X285068961Y-222377727D01*
X285052589Y-222386231D01*
X285038112Y-222392451D01*
X285038108Y-222392453D01*
X285029937Y-222395964D01*
X285025051Y-222399978D01*
X285022866Y-222402163D01*
X285020603Y-222404215D01*
X285020458Y-222404055D01*
X285011451Y-222411175D01*
X285004556Y-222417427D01*
X284994652Y-222423532D01*
X284978084Y-222445320D01*
X284966890Y-222458139D01*
X284499548Y-222925481D01*
X284497514Y-222927237D01*
X284492731Y-222929575D01*
X284484819Y-222938104D01*
X284484818Y-222938105D01*
X284459427Y-222965477D01*
X284456147Y-222968882D01*
X284442752Y-222982277D01*
X284440028Y-222986247D01*
X284437703Y-222988895D01*
X284424508Y-223003119D01*
X284424506Y-223003122D01*
X284416599Y-223011646D01*
X284412289Y-223022450D01*
X284409767Y-223026439D01*
X284404006Y-223037227D01*
X284402089Y-223041552D01*
X284395508Y-223051146D01*
X284392822Y-223062465D01*
X284392821Y-223062467D01*
X284389817Y-223075127D01*
X284384252Y-223092724D01*
X284378450Y-223107268D01*
X284375117Y-223115622D01*
X284374500Y-223121915D01*
X284374500Y-223124994D01*
X284374350Y-223128067D01*
X284374134Y-223128056D01*
X284372802Y-223139432D01*
X284372347Y-223148744D01*
X284369660Y-223160066D01*
X284369967Y-223162323D01*
X284348659Y-223223640D01*
X284292797Y-223267457D01*
X284222113Y-223274117D01*
X284159050Y-223241505D01*
X284148472Y-223230060D01*
X284132912Y-223210981D01*
X284132903Y-223210971D01*
X284129011Y-223206200D01*
X284119169Y-223198058D01*
X283975025Y-223078811D01*
X283975021Y-223078809D01*
X283970275Y-223074882D01*
X283789055Y-222976897D01*
X283592254Y-222915977D01*
X283586129Y-222915333D01*
X283586128Y-222915333D01*
X283393498Y-222895087D01*
X283393496Y-222895087D01*
X283387369Y-222894443D01*
X283303307Y-222902093D01*
X283188342Y-222912555D01*
X283188339Y-222912556D01*
X283182203Y-222913114D01*
X282984572Y-222971280D01*
X282979107Y-222974137D01*
X282893287Y-223019003D01*
X282802002Y-223066726D01*
X282797201Y-223070586D01*
X282797198Y-223070588D01*
X282654178Y-223185579D01*
X282641447Y-223195815D01*
X282509024Y-223353630D01*
X282506058Y-223359026D01*
X282506053Y-223359033D01*
X282463444Y-223436540D01*
X282409776Y-223534162D01*
X282347484Y-223730532D01*
X282346798Y-223736649D01*
X282346797Y-223736653D01*
X282329144Y-223894036D01*
X282324520Y-223935262D01*
X282325328Y-223944881D01*
X282335600Y-224067203D01*
X282341759Y-224140553D01*
X282343458Y-224146478D01*
X282395161Y-224326787D01*
X282398544Y-224338586D01*
X282401359Y-224344063D01*
X282401362Y-224344071D01*
X282413542Y-224367771D01*
X282426889Y-224437502D01*
X282400418Y-224503379D01*
X282390570Y-224514459D01*
X281899548Y-225005481D01*
X281897514Y-225007237D01*
X281892731Y-225009575D01*
X281884819Y-225018104D01*
X281884818Y-225018105D01*
X281859427Y-225045477D01*
X281856147Y-225048882D01*
X281842752Y-225062277D01*
X281840028Y-225066247D01*
X281837703Y-225068895D01*
X281824508Y-225083119D01*
X281824506Y-225083122D01*
X281816599Y-225091646D01*
X281812289Y-225102450D01*
X281809767Y-225106439D01*
X281804006Y-225117227D01*
X281802089Y-225121552D01*
X281795508Y-225131146D01*
X281792822Y-225142465D01*
X281792821Y-225142467D01*
X281789817Y-225155127D01*
X281784252Y-225172724D01*
X281779041Y-225185786D01*
X281775117Y-225195622D01*
X281774500Y-225201915D01*
X281774500Y-225204994D01*
X281774350Y-225208067D01*
X281774134Y-225208056D01*
X281772802Y-225219431D01*
X281772346Y-225228746D01*
X281769660Y-225240066D01*
X281771229Y-225251595D01*
X281771229Y-225251596D01*
X281773349Y-225267173D01*
X281774500Y-225284164D01*
X281774500Y-225631886D01*
X281754498Y-225700007D01*
X281700842Y-225746500D01*
X281630568Y-225756604D01*
X281568185Y-225728971D01*
X281435025Y-225618811D01*
X281435021Y-225618809D01*
X281430275Y-225614882D01*
X281249055Y-225516897D01*
X281052254Y-225455977D01*
X281046129Y-225455333D01*
X281046128Y-225455333D01*
X280853498Y-225435087D01*
X280853496Y-225435087D01*
X280847369Y-225434443D01*
X280778087Y-225440748D01*
X280648342Y-225452555D01*
X280648339Y-225452556D01*
X280642203Y-225453114D01*
X280444572Y-225511280D01*
X280439107Y-225514137D01*
X280390774Y-225539405D01*
X280262002Y-225606726D01*
X280257201Y-225610586D01*
X280257198Y-225610588D01*
X280113051Y-225726485D01*
X280101447Y-225735815D01*
X280070258Y-225772985D01*
X280023021Y-225829279D01*
X279963912Y-225868606D01*
X279892924Y-225869732D01*
X279832596Y-225832301D01*
X279802083Y-225768196D01*
X279800500Y-225748288D01*
X279800500Y-225202366D01*
X279800696Y-225199693D01*
X279802425Y-225194658D01*
X279801748Y-225176605D01*
X279800589Y-225145744D01*
X279800500Y-225141018D01*
X279800500Y-225122052D01*
X279799619Y-225117317D01*
X279799390Y-225113790D01*
X279798662Y-225094415D01*
X279798226Y-225082791D01*
X279793634Y-225072104D01*
X279792595Y-225067492D01*
X279789043Y-225055800D01*
X279787339Y-225051383D01*
X279785209Y-225039947D01*
X279772272Y-225018959D01*
X279763769Y-225002589D01*
X279757549Y-224988112D01*
X279757547Y-224988108D01*
X279754036Y-224979937D01*
X279750022Y-224975051D01*
X279747837Y-224972866D01*
X279745785Y-224970603D01*
X279745945Y-224970458D01*
X279738825Y-224961451D01*
X279732573Y-224954556D01*
X279726468Y-224944652D01*
X279704680Y-224928084D01*
X279691861Y-224916890D01*
X279387405Y-224612434D01*
X279353379Y-224550122D01*
X279350500Y-224523339D01*
X279350500Y-223296166D01*
X279348806Y-223278248D01*
X279348242Y-223272278D01*
X279348242Y-223272277D01*
X279347519Y-223264631D01*
X279302634Y-223136816D01*
X279297042Y-223129246D01*
X279297041Y-223129243D01*
X279227742Y-223035421D01*
X279222150Y-223027850D01*
X279178807Y-222995836D01*
X279120757Y-222952959D01*
X279120754Y-222952958D01*
X279113184Y-222947366D01*
X279104302Y-222944247D01*
X279095973Y-222939837D01*
X279097420Y-222937104D01*
X279052624Y-222904899D01*
X279026537Y-222838869D01*
X279040288Y-222769217D01*
X279089514Y-222718057D01*
X279152019Y-222701460D01*
X280074299Y-222701460D01*
X280142420Y-222721462D01*
X280163394Y-222738365D01*
X280291680Y-222866651D01*
X280325706Y-222928963D01*
X280320641Y-222999778D01*
X280278094Y-223056614D01*
X280271577Y-223061179D01*
X280267463Y-223063871D01*
X280262002Y-223066726D01*
X280257202Y-223070586D01*
X280257201Y-223070586D01*
X280115125Y-223184818D01*
X280101447Y-223195815D01*
X279969024Y-223353630D01*
X279966058Y-223359026D01*
X279966053Y-223359033D01*
X279923444Y-223436540D01*
X279869776Y-223534162D01*
X279807484Y-223730532D01*
X279806798Y-223736649D01*
X279806797Y-223736653D01*
X279789144Y-223894036D01*
X279784520Y-223935262D01*
X279785328Y-223944881D01*
X279795600Y-224067203D01*
X279801759Y-224140553D01*
X279803458Y-224146478D01*
X279855161Y-224326787D01*
X279858544Y-224338586D01*
X279861359Y-224344063D01*
X279861360Y-224344066D01*
X279948725Y-224514060D01*
X279952712Y-224521818D01*
X280080677Y-224683270D01*
X280085370Y-224687264D01*
X280085371Y-224687265D01*
X280232634Y-224812595D01*
X280237564Y-224816791D01*
X280417398Y-224917297D01*
X280484461Y-224939087D01*
X280607471Y-224979056D01*
X280607475Y-224979057D01*
X280613329Y-224980959D01*
X280817894Y-225005351D01*
X280824029Y-225004879D01*
X280824031Y-225004879D01*
X280884565Y-225000221D01*
X281023300Y-224989546D01*
X281029230Y-224987890D01*
X281029232Y-224987890D01*
X281162732Y-224950616D01*
X281221725Y-224934145D01*
X281227214Y-224931372D01*
X281227220Y-224931370D01*
X281389169Y-224849563D01*
X281405610Y-224841258D01*
X281433891Y-224819163D01*
X281563101Y-224718213D01*
X281567951Y-224714424D01*
X281575596Y-224705568D01*
X281698540Y-224563134D01*
X281698540Y-224563133D01*
X281702564Y-224558472D01*
X281707308Y-224550122D01*
X281757569Y-224461645D01*
X281804323Y-224379344D01*
X281869351Y-224183863D01*
X281895171Y-223979474D01*
X281895583Y-223950000D01*
X281875480Y-223744970D01*
X281815935Y-223547749D01*
X281719218Y-223365849D01*
X281612111Y-223234523D01*
X281592906Y-223210975D01*
X281592903Y-223210972D01*
X281589011Y-223206200D01*
X281579169Y-223198058D01*
X281435025Y-223078811D01*
X281435021Y-223078809D01*
X281430275Y-223074882D01*
X281249055Y-222976897D01*
X281243172Y-222975076D01*
X281243170Y-222975075D01*
X281206617Y-222963760D01*
X281147457Y-222924509D01*
X281127091Y-222890052D01*
X281125209Y-222879947D01*
X281112272Y-222858959D01*
X281103769Y-222842589D01*
X281097549Y-222828112D01*
X281097547Y-222828108D01*
X281094036Y-222819937D01*
X281090022Y-222815051D01*
X281087837Y-222812866D01*
X281085785Y-222810603D01*
X281085945Y-222810458D01*
X281078825Y-222801451D01*
X281072573Y-222794556D01*
X281066468Y-222784652D01*
X281044680Y-222768084D01*
X281031861Y-222756890D01*
X280500479Y-222225508D01*
X280498723Y-222223474D01*
X280496385Y-222218691D01*
X280476271Y-222200032D01*
X280460483Y-222185387D01*
X280457078Y-222182107D01*
X280443683Y-222168712D01*
X280439713Y-222165988D01*
X280437065Y-222163663D01*
X280422841Y-222150468D01*
X280422838Y-222150466D01*
X280414314Y-222142559D01*
X280403510Y-222138249D01*
X280399521Y-222135727D01*
X280388733Y-222129966D01*
X280384408Y-222128049D01*
X280374814Y-222121468D01*
X280363495Y-222118782D01*
X280363493Y-222118781D01*
X280350833Y-222115777D01*
X280333236Y-222110212D01*
X280318598Y-222104372D01*
X280318595Y-222104371D01*
X280310338Y-222101077D01*
X280304045Y-222100460D01*
X280300966Y-222100460D01*
X280297893Y-222100310D01*
X280297904Y-222100094D01*
X280286529Y-222098762D01*
X280277214Y-222098306D01*
X280265894Y-222095620D01*
X280254365Y-222097189D01*
X280254364Y-222097189D01*
X280238787Y-222099309D01*
X280221796Y-222100460D01*
X277359262Y-222100460D01*
X277356589Y-222100264D01*
X277351554Y-222098535D01*
X277339932Y-222098971D01*
X277339930Y-222098971D01*
X277302641Y-222100371D01*
X277297915Y-222100460D01*
X277278948Y-222100460D01*
X277274213Y-222101342D01*
X277270687Y-222101570D01*
X277266947Y-222101711D01*
X277239688Y-222102734D01*
X277229003Y-222107324D01*
X277224403Y-222108361D01*
X277212682Y-222111922D01*
X277208279Y-222113621D01*
X277196843Y-222115751D01*
X277175857Y-222128687D01*
X277159485Y-222137191D01*
X277145008Y-222143411D01*
X277145004Y-222143413D01*
X277136833Y-222146924D01*
X277131947Y-222150938D01*
X277129762Y-222153123D01*
X277127499Y-222155175D01*
X277127354Y-222155015D01*
X277118347Y-222162135D01*
X277111452Y-222168387D01*
X277101548Y-222174492D01*
X277084980Y-222196280D01*
X277073786Y-222209099D01*
X276125028Y-223157857D01*
X276122994Y-223159613D01*
X276118211Y-223161951D01*
X276110299Y-223170480D01*
X276110298Y-223170481D01*
X276084907Y-223197853D01*
X276081627Y-223201258D01*
X276068232Y-223214653D01*
X276065508Y-223218623D01*
X276063183Y-223221271D01*
X276049988Y-223235495D01*
X276049986Y-223235498D01*
X276042079Y-223244022D01*
X276037769Y-223254826D01*
X276035247Y-223258815D01*
X276029486Y-223269603D01*
X276027569Y-223273928D01*
X276020988Y-223283522D01*
X276018302Y-223294841D01*
X276018301Y-223294843D01*
X276015297Y-223307503D01*
X276009732Y-223325100D01*
X276005719Y-223335159D01*
X276000597Y-223347998D01*
X275999980Y-223354291D01*
X275999980Y-223357370D01*
X275999830Y-223360443D01*
X275999614Y-223360432D01*
X275998282Y-223371807D01*
X275997826Y-223381122D01*
X275995140Y-223392442D01*
X275996709Y-223403971D01*
X275996709Y-223403972D01*
X275998829Y-223419549D01*
X275999980Y-223436540D01*
X275999980Y-231463120D01*
X275999784Y-231465793D01*
X275998055Y-231470828D01*
X275998491Y-231482450D01*
X275998491Y-231482452D01*
X275999891Y-231519741D01*
X275999980Y-231524467D01*
X275999980Y-231543434D01*
X276000862Y-231548169D01*
X276001090Y-231551695D01*
X276002254Y-231582694D01*
X276006844Y-231593379D01*
X276007881Y-231597979D01*
X276011442Y-231609700D01*
X276013141Y-231614103D01*
X276015271Y-231625539D01*
X276021375Y-231635441D01*
X276028207Y-231646525D01*
X276036711Y-231662897D01*
X276042931Y-231677374D01*
X276042933Y-231677378D01*
X276046444Y-231685549D01*
X276050458Y-231690435D01*
X276052643Y-231692620D01*
X276054695Y-231694883D01*
X276054535Y-231695028D01*
X276061655Y-231704035D01*
X276067907Y-231710930D01*
X276074012Y-231720834D01*
X276095800Y-231737402D01*
X276108619Y-231748596D01*
X278085478Y-233725456D01*
X278087232Y-233727487D01*
X278089569Y-233732269D01*
X278098098Y-233740181D01*
X278098099Y-233740182D01*
X278125457Y-233765560D01*
X278128862Y-233768840D01*
X278142270Y-233782248D01*
X278146249Y-233784978D01*
X278148878Y-233787286D01*
X278171640Y-233808401D01*
X278182447Y-233812712D01*
X278186442Y-233815238D01*
X278197236Y-233821001D01*
X278201548Y-233822912D01*
X278211140Y-233829492D01*
X278222457Y-233832178D01*
X278222458Y-233832178D01*
X278235121Y-233835183D01*
X278252718Y-233840748D01*
X278267356Y-233846588D01*
X278267359Y-233846589D01*
X278275616Y-233849883D01*
X278281909Y-233850500D01*
X278284988Y-233850500D01*
X278288061Y-233850650D01*
X278288050Y-233850866D01*
X278299425Y-233852198D01*
X278308740Y-233852654D01*
X278320060Y-233855340D01*
X278331589Y-233853771D01*
X278331590Y-233853771D01*
X278347167Y-233851651D01*
X278364158Y-233850500D01*
X279472634Y-233850500D01*
X279475307Y-233850696D01*
X279480342Y-233852425D01*
X279491964Y-233851989D01*
X279491966Y-233851989D01*
X279529255Y-233850589D01*
X279533981Y-233850500D01*
X279552948Y-233850500D01*
X279557683Y-233849618D01*
X279561209Y-233849390D01*
X279564949Y-233849249D01*
X279592208Y-233848226D01*
X279602893Y-233843636D01*
X279607493Y-233842599D01*
X279619214Y-233839038D01*
X279623617Y-233837339D01*
X279635053Y-233835209D01*
X279656041Y-233822272D01*
X279672411Y-233813769D01*
X279686888Y-233807549D01*
X279686892Y-233807547D01*
X279695063Y-233804036D01*
X279699949Y-233800022D01*
X279702134Y-233797837D01*
X279704397Y-233795785D01*
X279704542Y-233795945D01*
X279713549Y-233788825D01*
X279720444Y-233782573D01*
X279730348Y-233776468D01*
X279746916Y-233754680D01*
X279758110Y-233741861D01*
X279934405Y-233565566D01*
X279996717Y-233531540D01*
X280067532Y-233536605D01*
X280124368Y-233579152D01*
X280149179Y-233645672D01*
X280149500Y-233654661D01*
X280149500Y-233669646D01*
X280152618Y-233695846D01*
X280156456Y-233704486D01*
X280156456Y-233704487D01*
X280198061Y-233798153D01*
X280194199Y-233799868D01*
X280209353Y-233846146D01*
X280195046Y-233901088D01*
X280197759Y-233902287D01*
X280152494Y-234004673D01*
X280149500Y-234030354D01*
X280149500Y-234319646D01*
X280152618Y-234345846D01*
X280156456Y-234354486D01*
X280156456Y-234354487D01*
X280198061Y-234448153D01*
X280194199Y-234449868D01*
X280209353Y-234496146D01*
X280195046Y-234551088D01*
X280197759Y-234552287D01*
X280152494Y-234654673D01*
X280149500Y-234680354D01*
X280149500Y-234969646D01*
X280152618Y-234995846D01*
X280156456Y-235004486D01*
X280156456Y-235004487D01*
X280198061Y-235098153D01*
X280194199Y-235099868D01*
X280209353Y-235146146D01*
X280195046Y-235201088D01*
X280197759Y-235202287D01*
X280152494Y-235304673D01*
X280149500Y-235330354D01*
X280149500Y-235619646D01*
X280152618Y-235645846D01*
X280156456Y-235654486D01*
X280156456Y-235654487D01*
X280198061Y-235748153D01*
X280194199Y-235749868D01*
X280209353Y-235796146D01*
X280195046Y-235851088D01*
X280197759Y-235852287D01*
X280152494Y-235954673D01*
X280149500Y-235980354D01*
X280149500Y-236077079D01*
X280129498Y-236145200D01*
X280100205Y-236177041D01*
X280022917Y-236236347D01*
X280011344Y-236247920D01*
X279923941Y-236361824D01*
X279915753Y-236376007D01*
X279860811Y-236508649D01*
X279856572Y-236524469D01*
X279852284Y-236557040D01*
X279854495Y-236571222D01*
X279867652Y-236575000D01*
X282306965Y-236575000D01*
X282320736Y-236570956D01*
X282322765Y-236557417D01*
X282318428Y-236524467D01*
X282314190Y-236508652D01*
X282259247Y-236376007D01*
X282251059Y-236361824D01*
X282163656Y-236247920D01*
X282152083Y-236236347D01*
X282074795Y-236177041D01*
X282032928Y-236119703D01*
X282025500Y-236077079D01*
X282025500Y-235980354D01*
X282022382Y-235954154D01*
X282011190Y-235928956D01*
X281976939Y-235851847D01*
X281980801Y-235850132D01*
X281965647Y-235803854D01*
X281979954Y-235748912D01*
X281977241Y-235747713D01*
X282018675Y-235653992D01*
X282022506Y-235645327D01*
X282025500Y-235619646D01*
X282025500Y-235330354D01*
X282022382Y-235304154D01*
X281976939Y-235201847D01*
X281980801Y-235200132D01*
X281965647Y-235153854D01*
X281979954Y-235098912D01*
X281977241Y-235097713D01*
X282018675Y-235003992D01*
X282022506Y-234995327D01*
X282025500Y-234969646D01*
X282025500Y-234680354D01*
X282022382Y-234654154D01*
X281976939Y-234551847D01*
X281980801Y-234550132D01*
X281965647Y-234503854D01*
X281979954Y-234448912D01*
X281977241Y-234447713D01*
X282018675Y-234353992D01*
X282022506Y-234345327D01*
X282025500Y-234319646D01*
X282025500Y-234030354D01*
X282022382Y-234004154D01*
X282018544Y-233995513D01*
X282016039Y-233986400D01*
X282019425Y-233985469D01*
X282012339Y-233932277D01*
X282042499Y-233868006D01*
X282102620Y-233830243D01*
X282136864Y-233825500D01*
X282422634Y-233825500D01*
X282425307Y-233825696D01*
X282430342Y-233827425D01*
X282441964Y-233826989D01*
X282441966Y-233826989D01*
X282479255Y-233825589D01*
X282483981Y-233825500D01*
X282502948Y-233825500D01*
X282507683Y-233824618D01*
X282511209Y-233824390D01*
X282514949Y-233824249D01*
X282542208Y-233823226D01*
X282552893Y-233818636D01*
X282557493Y-233817599D01*
X282569214Y-233814038D01*
X282573617Y-233812339D01*
X282585053Y-233810209D01*
X282606041Y-233797272D01*
X282622411Y-233788769D01*
X282636888Y-233782549D01*
X282636892Y-233782547D01*
X282645063Y-233779036D01*
X282649949Y-233775022D01*
X282652134Y-233772837D01*
X282654397Y-233770785D01*
X282654542Y-233770945D01*
X282663549Y-233763825D01*
X282670444Y-233757573D01*
X282680348Y-233751468D01*
X282696916Y-233729680D01*
X282708110Y-233716861D01*
X283875452Y-232549519D01*
X283877486Y-232547763D01*
X283882269Y-232545425D01*
X283896353Y-232530243D01*
X283915573Y-232509523D01*
X283918853Y-232506118D01*
X283932248Y-232492723D01*
X283934972Y-232488753D01*
X283937297Y-232486105D01*
X283953851Y-232468259D01*
X284014843Y-232431919D01*
X284085799Y-232434323D01*
X284116047Y-232449061D01*
X284198738Y-232504105D01*
X284217551Y-232516628D01*
X284354395Y-232559380D01*
X284363367Y-232559544D01*
X284363370Y-232559545D01*
X284442729Y-232560999D01*
X284461471Y-232561343D01*
X284529213Y-232582590D01*
X284548256Y-232598227D01*
X285000481Y-233050452D01*
X285002237Y-233052486D01*
X285004575Y-233057269D01*
X285013104Y-233065181D01*
X285013105Y-233065182D01*
X285040477Y-233090573D01*
X285043882Y-233093853D01*
X285057276Y-233107247D01*
X285061245Y-233109969D01*
X285063889Y-233112291D01*
X285078115Y-233125488D01*
X285078118Y-233125490D01*
X285086646Y-233133401D01*
X285097450Y-233137712D01*
X285107285Y-233143929D01*
X285105644Y-233146525D01*
X285147121Y-233179069D01*
X285170417Y-233246135D01*
X285153755Y-233315149D01*
X285133662Y-233341366D01*
X284724545Y-233750484D01*
X284722515Y-233752237D01*
X284717731Y-233754575D01*
X284709819Y-233763104D01*
X284709818Y-233763105D01*
X284684427Y-233790477D01*
X284681147Y-233793882D01*
X284667752Y-233807277D01*
X284665028Y-233811247D01*
X284662703Y-233813895D01*
X284649508Y-233828119D01*
X284649506Y-233828122D01*
X284641599Y-233836646D01*
X284637289Y-233847450D01*
X284634767Y-233851439D01*
X284629006Y-233862227D01*
X284627089Y-233866552D01*
X284620508Y-233876146D01*
X284617822Y-233887465D01*
X284617821Y-233887467D01*
X284614817Y-233900127D01*
X284609252Y-233917724D01*
X284600117Y-233940622D01*
X284599500Y-233946915D01*
X284599500Y-233949994D01*
X284599350Y-233953067D01*
X284599134Y-233953056D01*
X284597802Y-233964431D01*
X284597346Y-233973746D01*
X284594660Y-233985066D01*
X284596229Y-233996595D01*
X284596229Y-233996596D01*
X284598349Y-234012173D01*
X284599500Y-234029164D01*
X284599500Y-237023339D01*
X284579498Y-237091460D01*
X284562595Y-237112434D01*
X283962434Y-237712595D01*
X283900122Y-237746621D01*
X283873339Y-237749500D01*
X279984549Y-237749500D01*
X279916428Y-237729498D01*
X279889096Y-237705748D01*
X279863259Y-237675763D01*
X279857400Y-237668963D01*
X279737095Y-237590985D01*
X279599739Y-237549907D01*
X279590763Y-237549852D01*
X279590762Y-237549852D01*
X279530555Y-237549484D01*
X279456376Y-237549031D01*
X279318529Y-237588428D01*
X279310940Y-237593216D01*
X279310936Y-237593218D01*
X279277898Y-237614063D01*
X279209613Y-237633497D01*
X279141662Y-237612927D01*
X279121569Y-237596597D01*
X278987405Y-237462434D01*
X278953380Y-237400122D01*
X278950500Y-237373338D01*
X278950500Y-236992583D01*
X279852235Y-236992583D01*
X279856572Y-237025533D01*
X279860810Y-237041348D01*
X279915753Y-237173993D01*
X279923941Y-237188176D01*
X280011344Y-237302080D01*
X280022920Y-237313656D01*
X280136824Y-237401059D01*
X280151007Y-237409247D01*
X280283650Y-237464190D01*
X280299468Y-237468428D01*
X280406066Y-237482462D01*
X280414275Y-237483000D01*
X280869385Y-237483000D01*
X280884624Y-237478525D01*
X280885829Y-237477135D01*
X280887500Y-237469452D01*
X280887500Y-237464884D01*
X281287500Y-237464884D01*
X281291975Y-237480123D01*
X281293365Y-237481328D01*
X281301048Y-237482999D01*
X281760723Y-237482999D01*
X281768935Y-237482461D01*
X281875533Y-237468428D01*
X281891348Y-237464190D01*
X282023993Y-237409247D01*
X282038176Y-237401059D01*
X282152080Y-237313656D01*
X282163656Y-237302080D01*
X282251059Y-237188176D01*
X282259247Y-237173993D01*
X282314189Y-237041351D01*
X282318428Y-237025531D01*
X282322716Y-236992960D01*
X282320505Y-236978778D01*
X282307348Y-236975000D01*
X281305615Y-236975000D01*
X281290376Y-236979475D01*
X281289171Y-236980865D01*
X281287500Y-236988548D01*
X281287500Y-237464884D01*
X280887500Y-237464884D01*
X280887500Y-236993115D01*
X280883025Y-236977876D01*
X280881635Y-236976671D01*
X280873952Y-236975000D01*
X279868035Y-236975000D01*
X279854264Y-236979044D01*
X279852235Y-236992583D01*
X278950500Y-236992583D01*
X278950500Y-235602366D01*
X278950696Y-235599693D01*
X278952425Y-235594658D01*
X278951738Y-235576341D01*
X278950589Y-235545744D01*
X278950500Y-235541018D01*
X278950500Y-235522052D01*
X278949619Y-235517317D01*
X278949390Y-235513790D01*
X278948662Y-235494415D01*
X278948226Y-235482791D01*
X278943634Y-235472104D01*
X278942595Y-235467492D01*
X278939043Y-235455800D01*
X278937339Y-235451383D01*
X278935209Y-235439947D01*
X278922272Y-235418959D01*
X278913769Y-235402589D01*
X278907549Y-235388112D01*
X278907547Y-235388108D01*
X278904036Y-235379937D01*
X278900022Y-235375051D01*
X278897837Y-235372866D01*
X278895785Y-235370603D01*
X278895945Y-235370458D01*
X278888825Y-235361451D01*
X278882573Y-235354556D01*
X278876468Y-235344652D01*
X278854680Y-235328084D01*
X278841861Y-235316890D01*
X278359519Y-234834548D01*
X278357763Y-234832514D01*
X278355425Y-234827731D01*
X278319523Y-234794427D01*
X278316118Y-234791147D01*
X278302723Y-234777752D01*
X278298753Y-234775028D01*
X278296105Y-234772703D01*
X278281881Y-234759508D01*
X278281878Y-234759506D01*
X278273354Y-234751599D01*
X278262550Y-234747289D01*
X278258561Y-234744767D01*
X278247773Y-234739006D01*
X278243448Y-234737089D01*
X278233854Y-234730508D01*
X278222535Y-234727822D01*
X278222533Y-234727821D01*
X278209873Y-234724817D01*
X278192276Y-234719252D01*
X278177638Y-234713412D01*
X278177635Y-234713411D01*
X278169378Y-234710117D01*
X278163085Y-234709500D01*
X278160006Y-234709500D01*
X278156933Y-234709350D01*
X278156944Y-234709134D01*
X278145569Y-234707802D01*
X278136254Y-234707346D01*
X278124934Y-234704660D01*
X278113405Y-234706229D01*
X278113404Y-234706229D01*
X278097827Y-234708349D01*
X278080836Y-234709500D01*
X277700231Y-234709500D01*
X277632110Y-234689498D01*
X277585617Y-234635842D01*
X277579608Y-234619915D01*
X277577715Y-234613645D01*
X277575935Y-234607749D01*
X277479218Y-234425849D01*
X277387613Y-234313530D01*
X277352906Y-234270975D01*
X277352903Y-234270972D01*
X277349011Y-234266200D01*
X277331786Y-234251950D01*
X277195025Y-234138811D01*
X277195021Y-234138809D01*
X277190275Y-234134882D01*
X277009055Y-234036897D01*
X276812254Y-233975977D01*
X276806129Y-233975333D01*
X276806128Y-233975333D01*
X276613498Y-233955087D01*
X276613496Y-233955087D01*
X276607369Y-233954443D01*
X276520529Y-233962346D01*
X276408342Y-233972555D01*
X276408339Y-233972556D01*
X276402203Y-233973114D01*
X276204572Y-234031280D01*
X276022002Y-234126726D01*
X276017201Y-234130586D01*
X276017198Y-234130588D01*
X275885010Y-234236870D01*
X275861447Y-234255815D01*
X275729024Y-234413630D01*
X275726056Y-234419028D01*
X275726053Y-234419033D01*
X275653456Y-234551088D01*
X275629776Y-234594162D01*
X275567484Y-234790532D01*
X275566798Y-234796649D01*
X275566797Y-234796653D01*
X275563311Y-234827731D01*
X275544520Y-234995262D01*
X275545036Y-235001406D01*
X275557838Y-235153854D01*
X275561759Y-235200553D01*
X275563458Y-235206478D01*
X275615541Y-235388112D01*
X275618544Y-235398586D01*
X275621359Y-235404063D01*
X275621360Y-235404066D01*
X275709897Y-235576341D01*
X275712712Y-235581818D01*
X275840677Y-235743270D01*
X275845370Y-235747264D01*
X275845371Y-235747265D01*
X275966240Y-235850132D01*
X275997564Y-235876791D01*
X276177398Y-235977297D01*
X276242437Y-235998429D01*
X276301042Y-236038502D01*
X276328680Y-236103898D01*
X276316574Y-236173855D01*
X276268568Y-236226162D01*
X276242646Y-236238027D01*
X276076868Y-236292212D01*
X276067359Y-236296209D01*
X275878463Y-236394542D01*
X275869738Y-236400036D01*
X275699433Y-236527905D01*
X275691726Y-236534748D01*
X275544590Y-236688717D01*
X275538104Y-236696727D01*
X275418098Y-236872649D01*
X275413000Y-236881623D01*
X275323338Y-237074783D01*
X275319775Y-237084470D01*
X275264389Y-237284183D01*
X275265912Y-237292607D01*
X275278292Y-237296000D01*
X277918344Y-237296000D01*
X277931875Y-237292027D01*
X277933180Y-237282947D01*
X277891214Y-237115875D01*
X277887894Y-237106124D01*
X277802972Y-236910814D01*
X277798105Y-236901739D01*
X277682426Y-236722926D01*
X277676136Y-236714757D01*
X277532806Y-236557240D01*
X277525273Y-236550215D01*
X277358139Y-236418222D01*
X277349552Y-236412517D01*
X277163117Y-236309599D01*
X277153705Y-236305369D01*
X276962031Y-236237493D01*
X276904495Y-236195899D01*
X276878579Y-236129801D01*
X276892513Y-236060185D01*
X276941872Y-236009154D01*
X276970206Y-235997362D01*
X276975790Y-235995803D01*
X276975799Y-235995800D01*
X276981725Y-235994145D01*
X276987214Y-235991372D01*
X276987220Y-235991370D01*
X277160116Y-235904033D01*
X277165610Y-235901258D01*
X277327951Y-235774424D01*
X277350628Y-235748153D01*
X277458540Y-235623134D01*
X277458540Y-235623133D01*
X277462564Y-235618472D01*
X277471714Y-235602366D01*
X277533038Y-235494415D01*
X277564323Y-235439344D01*
X277576550Y-235402589D01*
X277578500Y-235396727D01*
X277618982Y-235338403D01*
X277684571Y-235311224D01*
X277698058Y-235310500D01*
X277933338Y-235310500D01*
X278001459Y-235330502D01*
X278022434Y-235347405D01*
X278312596Y-235637568D01*
X278346621Y-235699880D01*
X278349500Y-235726663D01*
X278349500Y-237497634D01*
X278349304Y-237500307D01*
X278347575Y-237505342D01*
X278348011Y-237516964D01*
X278348011Y-237516966D01*
X278349411Y-237554255D01*
X278349500Y-237558981D01*
X278349500Y-237577948D01*
X278350382Y-237582683D01*
X278350610Y-237586209D01*
X278351774Y-237617208D01*
X278356364Y-237627893D01*
X278357401Y-237632493D01*
X278360962Y-237644214D01*
X278362661Y-237648617D01*
X278364791Y-237660053D01*
X278370895Y-237669955D01*
X278377727Y-237681039D01*
X278386231Y-237697411D01*
X278392451Y-237711888D01*
X278392453Y-237711892D01*
X278395964Y-237720063D01*
X278399978Y-237724949D01*
X278402163Y-237727134D01*
X278404215Y-237729397D01*
X278404055Y-237729542D01*
X278411175Y-237738549D01*
X278417427Y-237745444D01*
X278423532Y-237755348D01*
X278445320Y-237771916D01*
X278458139Y-237783110D01*
X278900481Y-238225452D01*
X278902237Y-238227486D01*
X278904575Y-238232269D01*
X278913104Y-238240181D01*
X278913105Y-238240182D01*
X278940477Y-238265573D01*
X278943882Y-238268853D01*
X278957277Y-238282248D01*
X278961247Y-238284972D01*
X278963895Y-238287297D01*
X278971428Y-238294285D01*
X278986646Y-238308401D01*
X278997453Y-238312713D01*
X279001438Y-238315232D01*
X279012247Y-238321004D01*
X279016552Y-238322911D01*
X279026146Y-238329493D01*
X279050099Y-238335177D01*
X279050136Y-238335186D01*
X279067732Y-238340751D01*
X279090622Y-238349883D01*
X279092938Y-238350110D01*
X279151565Y-238384013D01*
X279156764Y-238389824D01*
X279165318Y-238400000D01*
X279187970Y-238426948D01*
X279307313Y-238506390D01*
X279444157Y-238549142D01*
X279453129Y-238549306D01*
X279453132Y-238549307D01*
X279500559Y-238550176D01*
X279516601Y-238550470D01*
X279584343Y-238571717D01*
X279603417Y-238594563D01*
X279616939Y-238565426D01*
X279678515Y-238526956D01*
X279678783Y-238526883D01*
X279725817Y-238514060D01*
X279847991Y-238439045D01*
X279858941Y-238426948D01*
X279890623Y-238391946D01*
X279951166Y-238354864D01*
X279984039Y-238350500D01*
X283997634Y-238350500D01*
X284000307Y-238350696D01*
X284005342Y-238352425D01*
X284016964Y-238351989D01*
X284016966Y-238351989D01*
X284054255Y-238350589D01*
X284058981Y-238350500D01*
X284077948Y-238350500D01*
X284082683Y-238349618D01*
X284086209Y-238349390D01*
X284089949Y-238349249D01*
X284117208Y-238348226D01*
X284127893Y-238343636D01*
X284132493Y-238342599D01*
X284144214Y-238339038D01*
X284148617Y-238337339D01*
X284160053Y-238335209D01*
X284181041Y-238322272D01*
X284197411Y-238313769D01*
X284211888Y-238307549D01*
X284211892Y-238307547D01*
X284220063Y-238304036D01*
X284224949Y-238300022D01*
X284227134Y-238297837D01*
X284229397Y-238295785D01*
X284229542Y-238295945D01*
X284238549Y-238288825D01*
X284245444Y-238282573D01*
X284255348Y-238276468D01*
X284271916Y-238254680D01*
X284283110Y-238241861D01*
X284484405Y-238040566D01*
X284546717Y-238006540D01*
X284617532Y-238011605D01*
X284674368Y-238054152D01*
X284699179Y-238120672D01*
X284699500Y-238129661D01*
X284699501Y-238316748D01*
X284699501Y-238506518D01*
X284700276Y-238511409D01*
X284700276Y-238511412D01*
X284709827Y-238571717D01*
X284714354Y-238600304D01*
X284718857Y-238609142D01*
X284718858Y-238609144D01*
X284735470Y-238641746D01*
X284748575Y-238711522D01*
X284721876Y-238777307D01*
X284663849Y-238818214D01*
X284617499Y-238824049D01*
X284617470Y-238824791D01*
X284614982Y-238824693D01*
X284612525Y-238824500D01*
X284559846Y-238824500D01*
X284554899Y-238824403D01*
X284497868Y-238822162D01*
X284490762Y-238824046D01*
X284482515Y-238824500D01*
X279955192Y-238824500D01*
X279912364Y-238815084D01*
X279912095Y-238815985D01*
X279774739Y-238774907D01*
X279765763Y-238774852D01*
X279765762Y-238774852D01*
X279738831Y-238774688D01*
X279710887Y-238774517D01*
X279642891Y-238754099D01*
X279622538Y-238730318D01*
X279607987Y-238760693D01*
X279548916Y-238797598D01*
X279529841Y-238803050D01*
X279493529Y-238813428D01*
X279372280Y-238889930D01*
X279277377Y-238997388D01*
X279216447Y-239127163D01*
X279194391Y-239268823D01*
X279195555Y-239277725D01*
X279195555Y-239277728D01*
X279200379Y-239314614D01*
X279212980Y-239410979D01*
X279270720Y-239542203D01*
X279362970Y-239651948D01*
X279370447Y-239656925D01*
X279473465Y-239725500D01*
X279482313Y-239731390D01*
X279619157Y-239774142D01*
X279628129Y-239774306D01*
X279628132Y-239774307D01*
X279693463Y-239775504D01*
X279762499Y-239776770D01*
X279771533Y-239774307D01*
X279892155Y-239741422D01*
X279892158Y-239741421D01*
X279900817Y-239739060D01*
X279906546Y-239735542D01*
X279955042Y-239725500D01*
X284309069Y-239725500D01*
X284377190Y-239745502D01*
X284398164Y-239762405D01*
X285830109Y-241194350D01*
X285839963Y-241205439D01*
X285855155Y-241224709D01*
X285860990Y-241232110D01*
X285868737Y-241237465D01*
X285868739Y-241237466D01*
X285909237Y-241265455D01*
X285912449Y-241267750D01*
X285959678Y-241302634D01*
X285966494Y-241305027D01*
X285972431Y-241309131D01*
X285981411Y-241311971D01*
X285981413Y-241311972D01*
X285995032Y-241316279D01*
X286028381Y-241326826D01*
X286032112Y-241328071D01*
X286078599Y-241344396D01*
X286078601Y-241344396D01*
X286087493Y-241347519D01*
X286094681Y-241347801D01*
X286094740Y-241347812D01*
X286101592Y-241349980D01*
X286108199Y-241350500D01*
X286160878Y-241350500D01*
X286165824Y-241350597D01*
X286222856Y-241352838D01*
X286229962Y-241350954D01*
X286238209Y-241350500D01*
X286398500Y-241350500D01*
X286466621Y-241370502D01*
X286513114Y-241424158D01*
X286524500Y-241476500D01*
X286524500Y-241636207D01*
X286504498Y-241704328D01*
X286487595Y-241725302D01*
X286125302Y-242087595D01*
X286062990Y-242121621D01*
X286036207Y-242124500D01*
X282550293Y-242124500D01*
X282481762Y-242104233D01*
X282462095Y-242091485D01*
X282324739Y-242050407D01*
X282315763Y-242050352D01*
X282315762Y-242050352D01*
X282255555Y-242049984D01*
X282181376Y-242049531D01*
X282043529Y-242088928D01*
X281922280Y-242165430D01*
X281827377Y-242272888D01*
X281766447Y-242402663D01*
X281744391Y-242544323D01*
X281762980Y-242686479D01*
X281765154Y-242691420D01*
X281764231Y-242760607D01*
X281725055Y-242819816D01*
X281660086Y-242848445D01*
X281643819Y-242849500D01*
X277774084Y-242849500D01*
X277705963Y-242829498D01*
X277659470Y-242775842D01*
X277649077Y-242707709D01*
X277655171Y-242659474D01*
X277655583Y-242630000D01*
X277635480Y-242424970D01*
X277575935Y-242227749D01*
X277479218Y-242045849D01*
X277390601Y-241937194D01*
X277352906Y-241890975D01*
X277352903Y-241890972D01*
X277349011Y-241886200D01*
X277331786Y-241871950D01*
X277195025Y-241758811D01*
X277195021Y-241758809D01*
X277190275Y-241754882D01*
X277053091Y-241680707D01*
X277014474Y-241659827D01*
X277009055Y-241656897D01*
X276958183Y-241641150D01*
X276899025Y-241601899D01*
X276870477Y-241536895D01*
X276881605Y-241466776D01*
X276928876Y-241413804D01*
X276959235Y-241400099D01*
X277092255Y-241360191D01*
X277101842Y-241356433D01*
X277293095Y-241262739D01*
X277301945Y-241257464D01*
X277475328Y-241133792D01*
X277483200Y-241127139D01*
X277634052Y-240976812D01*
X277640730Y-240968965D01*
X277765003Y-240796020D01*
X277770313Y-240787183D01*
X277864670Y-240596267D01*
X277868469Y-240586672D01*
X277930377Y-240382910D01*
X277932555Y-240372837D01*
X277933986Y-240361962D01*
X277931775Y-240347778D01*
X277918617Y-240344000D01*
X275283225Y-240344000D01*
X275269694Y-240347973D01*
X275268257Y-240357966D01*
X275298565Y-240492446D01*
X275301645Y-240502275D01*
X275381770Y-240699603D01*
X275386413Y-240708794D01*
X275497694Y-240890388D01*
X275503777Y-240898699D01*
X275643213Y-241059667D01*
X275650580Y-241066883D01*
X275814434Y-241202916D01*
X275822881Y-241208831D01*
X276006756Y-241316279D01*
X276016042Y-241320729D01*
X276215001Y-241396703D01*
X276229866Y-241401022D01*
X276229289Y-241403008D01*
X276284260Y-241432082D01*
X276319110Y-241493936D01*
X276314988Y-241564813D01*
X276273201Y-241622209D01*
X276231930Y-241643228D01*
X276210489Y-241649538D01*
X276210484Y-241649540D01*
X276204572Y-241651280D01*
X276199107Y-241654137D01*
X276133574Y-241688397D01*
X276022002Y-241746726D01*
X276017201Y-241750586D01*
X276017198Y-241750588D01*
X275866254Y-241871950D01*
X275861447Y-241875815D01*
X275729024Y-242033630D01*
X275726056Y-242039028D01*
X275726053Y-242039033D01*
X275652867Y-242172159D01*
X275629776Y-242214162D01*
X275567484Y-242410532D01*
X275566798Y-242416649D01*
X275566797Y-242416653D01*
X275553472Y-242535450D01*
X275544520Y-242615262D01*
X275561759Y-242820553D01*
X275618544Y-243018586D01*
X275712712Y-243201818D01*
X275840677Y-243363270D01*
X275845370Y-243367264D01*
X275845371Y-243367265D01*
X275974558Y-243477211D01*
X275997564Y-243496791D01*
X276177398Y-243597297D01*
X276272238Y-243628112D01*
X276367471Y-243659056D01*
X276367475Y-243659057D01*
X276373329Y-243660959D01*
X276577894Y-243685351D01*
X276584029Y-243684879D01*
X276584031Y-243684879D01*
X276640039Y-243680569D01*
X276783300Y-243669546D01*
X276789230Y-243667890D01*
X276789232Y-243667890D01*
X276975797Y-243615800D01*
X276975796Y-243615800D01*
X276981725Y-243614145D01*
X276987214Y-243611372D01*
X276987220Y-243611370D01*
X277160116Y-243524033D01*
X277165610Y-243521258D01*
X277170462Y-243517467D01*
X277170467Y-243517464D01*
X277221989Y-243477211D01*
X277287983Y-243451033D01*
X277299562Y-243450500D01*
X286947634Y-243450500D01*
X286950307Y-243450696D01*
X286955342Y-243452425D01*
X286966964Y-243451989D01*
X286966966Y-243451989D01*
X287004255Y-243450589D01*
X287008981Y-243450500D01*
X287027948Y-243450500D01*
X287032683Y-243449618D01*
X287036209Y-243449390D01*
X287039949Y-243449249D01*
X287067208Y-243448226D01*
X287077893Y-243443636D01*
X287082493Y-243442599D01*
X287094214Y-243439038D01*
X287098617Y-243437339D01*
X287110053Y-243435209D01*
X287131041Y-243422272D01*
X287147411Y-243413769D01*
X287161888Y-243407549D01*
X287161892Y-243407547D01*
X287170063Y-243404036D01*
X287174949Y-243400022D01*
X287177134Y-243397837D01*
X287179397Y-243395785D01*
X287179542Y-243395945D01*
X287188549Y-243388825D01*
X287195444Y-243382573D01*
X287205348Y-243376468D01*
X287221916Y-243354680D01*
X287233110Y-243341861D01*
X288283925Y-242291046D01*
X288346237Y-242257020D01*
X288417052Y-242262085D01*
X288473888Y-242304632D01*
X288498699Y-242371152D01*
X288499020Y-242380141D01*
X288499020Y-243635635D01*
X288479018Y-243703756D01*
X288462115Y-243724730D01*
X287451251Y-244735595D01*
X287388939Y-244769620D01*
X287362156Y-244772500D01*
X282486284Y-244772500D01*
X282418163Y-244752498D01*
X282390832Y-244728748D01*
X282382400Y-244718963D01*
X282262095Y-244640985D01*
X282124739Y-244599907D01*
X282115763Y-244599852D01*
X282115762Y-244599852D01*
X282055555Y-244599484D01*
X281981376Y-244599031D01*
X281843529Y-244638428D01*
X281722280Y-244714930D01*
X281627377Y-244822388D01*
X281566447Y-244952163D01*
X281544391Y-245093823D01*
X281562980Y-245235979D01*
X281566596Y-245244196D01*
X281579162Y-245272755D01*
X281588288Y-245343162D01*
X281557901Y-245407327D01*
X281497647Y-245444878D01*
X281463832Y-245449500D01*
X280276661Y-245449500D01*
X280208540Y-245429498D01*
X280187566Y-245412595D01*
X279769519Y-244994548D01*
X279767763Y-244992514D01*
X279765425Y-244987731D01*
X279736647Y-244961035D01*
X279729523Y-244954427D01*
X279726118Y-244951147D01*
X279712723Y-244937752D01*
X279708753Y-244935028D01*
X279706105Y-244932703D01*
X279691881Y-244919508D01*
X279691878Y-244919506D01*
X279683354Y-244911599D01*
X279672550Y-244907289D01*
X279668561Y-244904767D01*
X279657773Y-244899006D01*
X279653448Y-244897089D01*
X279643854Y-244890508D01*
X279632535Y-244887822D01*
X279632533Y-244887821D01*
X279619873Y-244884817D01*
X279602276Y-244879252D01*
X279587638Y-244873412D01*
X279587635Y-244873411D01*
X279579378Y-244870117D01*
X279573085Y-244869500D01*
X279570006Y-244869500D01*
X279566933Y-244869350D01*
X279566944Y-244869134D01*
X279555569Y-244867802D01*
X279546254Y-244867346D01*
X279534934Y-244864660D01*
X279523405Y-244866229D01*
X279523404Y-244866229D01*
X279507827Y-244868349D01*
X279490836Y-244869500D01*
X277700231Y-244869500D01*
X277632110Y-244849498D01*
X277585617Y-244795842D01*
X277579608Y-244779915D01*
X277577715Y-244773645D01*
X277575935Y-244767749D01*
X277479218Y-244585849D01*
X277394757Y-244482290D01*
X277352906Y-244430975D01*
X277352903Y-244430972D01*
X277349011Y-244426200D01*
X277342173Y-244420543D01*
X277195025Y-244298811D01*
X277195021Y-244298809D01*
X277190275Y-244294882D01*
X277009055Y-244196897D01*
X276812254Y-244135977D01*
X276806129Y-244135333D01*
X276806128Y-244135333D01*
X276613498Y-244115087D01*
X276613496Y-244115087D01*
X276607369Y-244114443D01*
X276520529Y-244122346D01*
X276408342Y-244132555D01*
X276408339Y-244132556D01*
X276402203Y-244133114D01*
X276204572Y-244191280D01*
X276022002Y-244286726D01*
X276017201Y-244290586D01*
X276017198Y-244290588D01*
X275866254Y-244411950D01*
X275861447Y-244415815D01*
X275729024Y-244573630D01*
X275726056Y-244579028D01*
X275726053Y-244579033D01*
X275639983Y-244735595D01*
X275629776Y-244754162D01*
X275567484Y-244950532D01*
X275566798Y-244956649D01*
X275566797Y-244956653D01*
X275545207Y-245149137D01*
X275544520Y-245155262D01*
X275545036Y-245161406D01*
X275560299Y-245343162D01*
X275561759Y-245360553D01*
X275618544Y-245558586D01*
X275621359Y-245564063D01*
X275621360Y-245564066D01*
X275642247Y-245604707D01*
X275712712Y-245741818D01*
X275840677Y-245903270D01*
X275845370Y-245907264D01*
X275845371Y-245907265D01*
X275974014Y-246016748D01*
X275997564Y-246036791D01*
X276002942Y-246039797D01*
X276002944Y-246039798D01*
X276087481Y-246087044D01*
X276177398Y-246137297D01*
X276242437Y-246158429D01*
X276301042Y-246198502D01*
X276328680Y-246263898D01*
X276316574Y-246333855D01*
X276268568Y-246386162D01*
X276242646Y-246398027D01*
X276076868Y-246452212D01*
X276067359Y-246456209D01*
X275878463Y-246554542D01*
X275869738Y-246560036D01*
X275699433Y-246687905D01*
X275691726Y-246694748D01*
X275544590Y-246848717D01*
X275538104Y-246856727D01*
X275418098Y-247032649D01*
X275413000Y-247041623D01*
X275323338Y-247234783D01*
X275319775Y-247244470D01*
X275264389Y-247444183D01*
X272000000Y-247444183D01*
X272000000Y-239824183D01*
X275264389Y-239824183D01*
X275265912Y-239832607D01*
X275278292Y-239836000D01*
X276327885Y-239836000D01*
X276343124Y-239831525D01*
X276344329Y-239830135D01*
X276346000Y-239822452D01*
X276346000Y-239817885D01*
X276854000Y-239817885D01*
X276858475Y-239833124D01*
X276859865Y-239834329D01*
X276867548Y-239836000D01*
X277918344Y-239836000D01*
X277931875Y-239832027D01*
X277933180Y-239822947D01*
X277891214Y-239655875D01*
X277887894Y-239646124D01*
X277802972Y-239450814D01*
X277798105Y-239441739D01*
X277682426Y-239262926D01*
X277676136Y-239254757D01*
X277532806Y-239097240D01*
X277525273Y-239090215D01*
X277358139Y-238958222D01*
X277349552Y-238952517D01*
X277312116Y-238931851D01*
X277262146Y-238881419D01*
X277247374Y-238811976D01*
X277272490Y-238745571D01*
X277299842Y-238718964D01*
X277475327Y-238593792D01*
X277483200Y-238587139D01*
X277634052Y-238436812D01*
X277640730Y-238428965D01*
X277765003Y-238256020D01*
X277770313Y-238247183D01*
X277864670Y-238056267D01*
X277868469Y-238046672D01*
X277930377Y-237842910D01*
X277932555Y-237832837D01*
X277933986Y-237821962D01*
X277931775Y-237807778D01*
X277918617Y-237804000D01*
X276872115Y-237804000D01*
X276856876Y-237808475D01*
X276855671Y-237809865D01*
X276854000Y-237817548D01*
X276854000Y-239817885D01*
X276346000Y-239817885D01*
X276346000Y-237822115D01*
X276341525Y-237806876D01*
X276340135Y-237805671D01*
X276332452Y-237804000D01*
X275283225Y-237804000D01*
X275269694Y-237807973D01*
X275268257Y-237817966D01*
X275298565Y-237952446D01*
X275301645Y-237962275D01*
X275381770Y-238159603D01*
X275386413Y-238168794D01*
X275497694Y-238350388D01*
X275503777Y-238358699D01*
X275643213Y-238519667D01*
X275650580Y-238526883D01*
X275814434Y-238662916D01*
X275822881Y-238668831D01*
X275892479Y-238709501D01*
X275941203Y-238761140D01*
X275954274Y-238830923D01*
X275927543Y-238896694D01*
X275887087Y-238930053D01*
X275878462Y-238934542D01*
X275869738Y-238940036D01*
X275699433Y-239067905D01*
X275691726Y-239074748D01*
X275544590Y-239228717D01*
X275538104Y-239236727D01*
X275418098Y-239412649D01*
X275413000Y-239421623D01*
X275323338Y-239614783D01*
X275319775Y-239624470D01*
X275264389Y-239824183D01*
X272000000Y-239824183D01*
X272000000Y-230415838D01*
X272005146Y-230400000D01*
X272004252Y-230397248D01*
X271999780Y-230300523D01*
X271987004Y-230024187D01*
X271987003Y-230024180D01*
X271986870Y-230021296D01*
X271961241Y-229837563D01*
X271934897Y-229648710D01*
X271934896Y-229648707D01*
X271934494Y-229645822D01*
X271877188Y-229402171D01*
X271848365Y-229279622D01*
X271848363Y-229279616D01*
X271847697Y-229276783D01*
X271727219Y-228917327D01*
X271574089Y-228570521D01*
X271536528Y-228503085D01*
X271391035Y-228241876D01*
X271389613Y-228239323D01*
X271175365Y-227926559D01*
X271173517Y-227924333D01*
X271173509Y-227924323D01*
X270935030Y-227637134D01*
X270935027Y-227637131D01*
X270933173Y-227634898D01*
X270665102Y-227366827D01*
X270662866Y-227364970D01*
X270375677Y-227126491D01*
X270375667Y-227126483D01*
X270373441Y-227124635D01*
X270060677Y-226910387D01*
X269998046Y-226875502D01*
X269732036Y-226727335D01*
X269732032Y-226727333D01*
X269729479Y-226725911D01*
X269382673Y-226572781D01*
X269023217Y-226452303D01*
X269020384Y-226451637D01*
X269020378Y-226451635D01*
X268848738Y-226411266D01*
X268654178Y-226365506D01*
X268651293Y-226365104D01*
X268651290Y-226365103D01*
X268406442Y-226330949D01*
X268278704Y-226313130D01*
X268275820Y-226312997D01*
X268275813Y-226312996D01*
X267929255Y-226296973D01*
X267929254Y-226296973D01*
X267902752Y-226295748D01*
X267900000Y-226294854D01*
X267884162Y-226300000D01*
X237729161Y-226300000D01*
X237661040Y-226279998D01*
X237614547Y-226226342D01*
X237604443Y-226156068D01*
X237633937Y-226091488D01*
X237640066Y-226084905D01*
X237724963Y-226000008D01*
X237726997Y-225998252D01*
X237731780Y-225995914D01*
X237745492Y-225981133D01*
X237765084Y-225960012D01*
X237768364Y-225956607D01*
X237781759Y-225943212D01*
X237784483Y-225939242D01*
X237786808Y-225936594D01*
X237799999Y-225922373D01*
X237807912Y-225913843D01*
X237809077Y-225910924D01*
X237858238Y-225867677D01*
X237928435Y-225857048D01*
X237949004Y-225861627D01*
X238068168Y-225898856D01*
X238077140Y-225899020D01*
X238077143Y-225899021D01*
X238142474Y-225900218D01*
X238211510Y-225901484D01*
X238220174Y-225899122D01*
X238341169Y-225866135D01*
X238341171Y-225866134D01*
X238349828Y-225863774D01*
X238472002Y-225788759D01*
X238494595Y-225763799D01*
X238562189Y-225689121D01*
X238568211Y-225682468D01*
X238616449Y-225582905D01*
X238626806Y-225561528D01*
X238626806Y-225561527D01*
X238630721Y-225553447D01*
X238654507Y-225412068D01*
X238654658Y-225399714D01*
X238643021Y-225318457D01*
X238653163Y-225248190D01*
X238699686Y-225194560D01*
X238770058Y-225174617D01*
X238796830Y-225175108D01*
X238887499Y-225176770D01*
X238896163Y-225174408D01*
X239017158Y-225141421D01*
X239017160Y-225141420D01*
X239025817Y-225139060D01*
X239147991Y-225064045D01*
X239170901Y-225038734D01*
X239231444Y-225001653D01*
X239302424Y-225003190D01*
X239334130Y-225018399D01*
X239404049Y-225064941D01*
X239540893Y-225107693D01*
X239549865Y-225107857D01*
X239549868Y-225107858D01*
X239615199Y-225109055D01*
X239684235Y-225110321D01*
X239693269Y-225107858D01*
X239813894Y-225074972D01*
X239813896Y-225074971D01*
X239822553Y-225072611D01*
X239944727Y-224997596D01*
X239951586Y-224990018D01*
X239967577Y-224972352D01*
X240028121Y-224935271D01*
X240099101Y-224936809D01*
X240130806Y-224952018D01*
X240200795Y-224998607D01*
X240337639Y-225041359D01*
X240346611Y-225041523D01*
X240346614Y-225041524D01*
X240411945Y-225042721D01*
X240480981Y-225043987D01*
X240490015Y-225041524D01*
X240610640Y-225008638D01*
X240610642Y-225008637D01*
X240619299Y-225006277D01*
X240741473Y-224931262D01*
X240747496Y-224924608D01*
X240775804Y-224893334D01*
X240836347Y-224856253D01*
X240907327Y-224857791D01*
X240939038Y-224873003D01*
X240987955Y-224905565D01*
X240995432Y-224910542D01*
X241132276Y-224953294D01*
X241141248Y-224953458D01*
X241141251Y-224953459D01*
X241206582Y-224954656D01*
X241275618Y-224955922D01*
X241284652Y-224953459D01*
X241405277Y-224920573D01*
X241405279Y-224920572D01*
X241413936Y-224918212D01*
X241536110Y-224843197D01*
X241632319Y-224736906D01*
X241694829Y-224607885D01*
X241718615Y-224466506D01*
X241718766Y-224454152D01*
X241707215Y-224373491D01*
X241699715Y-224321120D01*
X241699714Y-224321117D01*
X241698442Y-224312234D01*
X241693685Y-224301770D01*
X241677612Y-224266421D01*
X241639103Y-224181724D01*
X241545519Y-224073115D01*
X241548051Y-224070933D01*
X241518610Y-224024797D01*
X241513619Y-223989687D01*
X241513619Y-220365489D01*
X241513815Y-220362814D01*
X241515545Y-220357777D01*
X241513708Y-220308848D01*
X241513619Y-220304122D01*
X241513619Y-220285171D01*
X241512737Y-220280438D01*
X241512509Y-220276911D01*
X241511782Y-220257539D01*
X241511781Y-220257537D01*
X241511345Y-220245911D01*
X241506751Y-220235219D01*
X241505714Y-220230616D01*
X241502157Y-220218906D01*
X241500458Y-220214503D01*
X241498328Y-220203066D01*
X241492225Y-220193165D01*
X241492224Y-220193162D01*
X241485390Y-220182075D01*
X241476886Y-220165704D01*
X241470665Y-220151225D01*
X241470663Y-220151222D01*
X241467155Y-220143057D01*
X241463142Y-220138170D01*
X241460947Y-220135975D01*
X241458889Y-220133705D01*
X241459051Y-220133558D01*
X241451954Y-220124580D01*
X241445690Y-220117673D01*
X241439587Y-220107771D01*
X241417808Y-220091210D01*
X241404987Y-220080015D01*
X241040067Y-219715096D01*
X241006042Y-219652783D01*
X241011106Y-219581968D01*
X241053653Y-219525132D01*
X241120173Y-219500321D01*
X241129162Y-219500000D01*
X305884162Y-219500000D01*
X305900000Y-219505146D01*
G37*
%TD.AperFunction*%
%TA.AperFunction,Conductor*%
G36*
X277202237Y-223034756D02*
G01*
X277259073Y-223077303D01*
X277283884Y-223143823D01*
X277277088Y-223194560D01*
X277252481Y-223264631D01*
X277251758Y-223272277D01*
X277251758Y-223272278D01*
X277251194Y-223278248D01*
X277249500Y-223296166D01*
X277249500Y-224603834D01*
X277252481Y-224635369D01*
X277297366Y-224763184D01*
X277302958Y-224770754D01*
X277302959Y-224770757D01*
X277352234Y-224837469D01*
X277377850Y-224872150D01*
X277394794Y-224884665D01*
X277479243Y-224947041D01*
X277479246Y-224947042D01*
X277486816Y-224952634D01*
X277614631Y-224997519D01*
X277622277Y-224998242D01*
X277622278Y-224998242D01*
X277628248Y-224998806D01*
X277646166Y-225000500D01*
X277705233Y-225000500D01*
X277773354Y-225020502D01*
X277819847Y-225074158D01*
X277829951Y-225144432D01*
X277800457Y-225209012D01*
X277763413Y-225238263D01*
X277578466Y-225334540D01*
X277569734Y-225340039D01*
X277549677Y-225355099D01*
X277541223Y-225366427D01*
X277547968Y-225378758D01*
X278570115Y-226400905D01*
X278604141Y-226463217D01*
X278599076Y-226534032D01*
X278570115Y-226579095D01*
X277546737Y-227602473D01*
X277539977Y-227614853D01*
X277545258Y-227621907D01*
X277706756Y-227716279D01*
X277716042Y-227720729D01*
X277915001Y-227796703D01*
X277924899Y-227799579D01*
X278133595Y-227842038D01*
X278143823Y-227843257D01*
X278356650Y-227851062D01*
X278366936Y-227850595D01*
X278578185Y-227823534D01*
X278588262Y-227821392D01*
X278792255Y-227760191D01*
X278801842Y-227756433D01*
X278993095Y-227662739D01*
X279006388Y-227654815D01*
X279007227Y-227656222D01*
X279067405Y-227635341D01*
X279136413Y-227652024D01*
X279185447Y-227703368D01*
X279199500Y-227761193D01*
X279199500Y-230997634D01*
X279199304Y-231000307D01*
X279197575Y-231005342D01*
X279198011Y-231016964D01*
X279198011Y-231016966D01*
X279199411Y-231054255D01*
X279199500Y-231058981D01*
X279199500Y-231077948D01*
X279200382Y-231082683D01*
X279200610Y-231086209D01*
X279201774Y-231117208D01*
X279206364Y-231127893D01*
X279207401Y-231132493D01*
X279210962Y-231144214D01*
X279212661Y-231148617D01*
X279214791Y-231160053D01*
X279220895Y-231169955D01*
X279227727Y-231181039D01*
X279236231Y-231197411D01*
X279242451Y-231211888D01*
X279242453Y-231211892D01*
X279245964Y-231220063D01*
X279249978Y-231224949D01*
X279252163Y-231227134D01*
X279254215Y-231229397D01*
X279254055Y-231229542D01*
X279261175Y-231238549D01*
X279267427Y-231245444D01*
X279273532Y-231255348D01*
X279295320Y-231271916D01*
X279308139Y-231283110D01*
X279775481Y-231750452D01*
X279777237Y-231752486D01*
X279779575Y-231757269D01*
X279788104Y-231765181D01*
X279788105Y-231765182D01*
X279815477Y-231790573D01*
X279818882Y-231793853D01*
X279832277Y-231807248D01*
X279836247Y-231809972D01*
X279838895Y-231812297D01*
X279853119Y-231825492D01*
X279853122Y-231825494D01*
X279861646Y-231833401D01*
X279872450Y-231837711D01*
X279876439Y-231840233D01*
X279887227Y-231845994D01*
X279891552Y-231847911D01*
X279901146Y-231854492D01*
X279912465Y-231857178D01*
X279912467Y-231857179D01*
X279925127Y-231860183D01*
X279942724Y-231865748D01*
X279957362Y-231871588D01*
X279957365Y-231871589D01*
X279965622Y-231874883D01*
X279971915Y-231875500D01*
X279974994Y-231875500D01*
X279978067Y-231875650D01*
X279978056Y-231875866D01*
X279989431Y-231877198D01*
X279998746Y-231877654D01*
X280010066Y-231880340D01*
X280021595Y-231878771D01*
X280033212Y-231879339D01*
X280033135Y-231880908D01*
X280090434Y-231889587D01*
X280143739Y-231936482D01*
X280163228Y-232004751D01*
X280158796Y-232036944D01*
X280156326Y-232046006D01*
X280152494Y-232054673D01*
X280149500Y-232080354D01*
X280149500Y-232369646D01*
X280152618Y-232395846D01*
X280161953Y-232416861D01*
X280164099Y-232421693D01*
X280173471Y-232492068D01*
X280143308Y-232556339D01*
X280097083Y-232588462D01*
X280089947Y-232589791D01*
X280070389Y-232601847D01*
X280068961Y-232602727D01*
X280052589Y-232611231D01*
X280038112Y-232617451D01*
X280038108Y-232617453D01*
X280029937Y-232620964D01*
X280025051Y-232624978D01*
X280022866Y-232627163D01*
X280020603Y-232629215D01*
X280020458Y-232629055D01*
X280011451Y-232636175D01*
X280004556Y-232642427D01*
X279994652Y-232648532D01*
X279978084Y-232670320D01*
X279966890Y-232683139D01*
X279437434Y-233212595D01*
X279375122Y-233246621D01*
X279348339Y-233249500D01*
X278511655Y-233249500D01*
X278443534Y-233229498D01*
X278422560Y-233212595D01*
X276637885Y-231427920D01*
X276603859Y-231365608D01*
X276600980Y-231338825D01*
X276600980Y-226461863D01*
X276938050Y-226461863D01*
X276950309Y-226674477D01*
X276951745Y-226684697D01*
X276998565Y-226892446D01*
X277001645Y-226902275D01*
X277081770Y-227099603D01*
X277086413Y-227108794D01*
X277166460Y-227239420D01*
X277176916Y-227248880D01*
X277185694Y-227245096D01*
X277927978Y-226502812D01*
X277935592Y-226488868D01*
X277935461Y-226487035D01*
X277931210Y-226480420D01*
X277189849Y-225739059D01*
X277178313Y-225732759D01*
X277166031Y-225742382D01*
X277118089Y-225812662D01*
X277113004Y-225821613D01*
X277023338Y-226014783D01*
X277019775Y-226024470D01*
X276962864Y-226229681D01*
X276960933Y-226239800D01*
X276938302Y-226451574D01*
X276938050Y-226461863D01*
X276600980Y-226461863D01*
X276600980Y-223584037D01*
X276620982Y-223515916D01*
X276637885Y-223494942D01*
X277069110Y-223063717D01*
X277131422Y-223029691D01*
X277202237Y-223034756D01*
G37*
%TD.AperFunction*%
%TA.AperFunction,Conductor*%
G36*
X229713958Y-219520002D02*
G01*
X229760451Y-219573658D01*
X229770555Y-219643932D01*
X229741061Y-219708512D01*
X229734933Y-219715095D01*
X229019545Y-220430484D01*
X229017515Y-220432237D01*
X229012731Y-220434575D01*
X229004819Y-220443104D01*
X229004818Y-220443105D01*
X228979427Y-220470477D01*
X228976147Y-220473882D01*
X228962752Y-220487277D01*
X228960028Y-220491247D01*
X228957703Y-220493895D01*
X228944508Y-220508119D01*
X228944506Y-220508122D01*
X228936599Y-220516646D01*
X228932289Y-220527450D01*
X228929767Y-220531439D01*
X228924006Y-220542227D01*
X228922089Y-220546552D01*
X228915508Y-220556146D01*
X228912822Y-220567465D01*
X228912821Y-220567467D01*
X228909817Y-220580127D01*
X228904252Y-220597724D01*
X228898412Y-220612362D01*
X228895117Y-220620622D01*
X228894500Y-220626915D01*
X228894500Y-220629994D01*
X228894350Y-220633067D01*
X228894134Y-220633056D01*
X228892802Y-220644431D01*
X228892346Y-220653746D01*
X228889660Y-220665066D01*
X228891229Y-220676595D01*
X228891229Y-220676596D01*
X228893349Y-220692173D01*
X228894500Y-220709164D01*
X228894500Y-220755543D01*
X228874498Y-220823664D01*
X228820842Y-220870157D01*
X228750568Y-220880261D01*
X228739354Y-220878126D01*
X228717352Y-220872895D01*
X228666486Y-220867369D01*
X228659672Y-220867000D01*
X228633115Y-220867000D01*
X228617876Y-220871475D01*
X228616671Y-220872865D01*
X228615000Y-220880548D01*
X228615000Y-225864884D01*
X228619475Y-225880123D01*
X228620865Y-225881328D01*
X228628548Y-225882999D01*
X228659669Y-225882999D01*
X228666490Y-225882629D01*
X228717352Y-225877105D01*
X228732604Y-225873479D01*
X228853054Y-225828324D01*
X228868649Y-225819786D01*
X228970724Y-225743285D01*
X228983285Y-225730724D01*
X229061820Y-225625935D01*
X229118679Y-225583420D01*
X229162646Y-225575500D01*
X229464748Y-225575500D01*
X229470816Y-225574293D01*
X229511061Y-225566288D01*
X229511062Y-225566288D01*
X229523231Y-225563867D01*
X229533548Y-225556973D01*
X229533551Y-225556972D01*
X229539997Y-225552665D01*
X229607749Y-225531449D01*
X229680003Y-225552665D01*
X229686449Y-225556972D01*
X229686452Y-225556973D01*
X229696769Y-225563867D01*
X229708938Y-225566288D01*
X229708939Y-225566288D01*
X229749184Y-225574293D01*
X229755252Y-225575500D01*
X230294748Y-225575500D01*
X230300816Y-225574293D01*
X230341061Y-225566288D01*
X230341062Y-225566288D01*
X230353231Y-225563867D01*
X230363548Y-225556973D01*
X230363551Y-225556972D01*
X230369997Y-225552665D01*
X230437749Y-225531449D01*
X230510003Y-225552665D01*
X230516449Y-225556972D01*
X230516452Y-225556973D01*
X230526769Y-225563867D01*
X230538938Y-225566288D01*
X230538939Y-225566288D01*
X230579184Y-225574293D01*
X230585252Y-225575500D01*
X231124748Y-225575500D01*
X231130816Y-225574293D01*
X231171061Y-225566288D01*
X231171062Y-225566288D01*
X231183231Y-225563867D01*
X231193548Y-225556973D01*
X231193551Y-225556972D01*
X231199997Y-225552665D01*
X231267749Y-225531449D01*
X231340003Y-225552665D01*
X231346449Y-225556972D01*
X231346452Y-225556973D01*
X231356769Y-225563867D01*
X231368938Y-225566288D01*
X231368939Y-225566288D01*
X231409184Y-225574293D01*
X231415252Y-225575500D01*
X231954748Y-225575500D01*
X231960816Y-225574293D01*
X232001061Y-225566288D01*
X232001062Y-225566288D01*
X232013231Y-225563867D01*
X232023547Y-225556974D01*
X232035017Y-225552223D01*
X232036152Y-225554964D01*
X232085851Y-225539405D01*
X232154317Y-225558191D01*
X232201758Y-225611011D01*
X232210723Y-225670412D01*
X232212575Y-225670342D01*
X232214411Y-225719255D01*
X232214500Y-225723981D01*
X232214500Y-225742948D01*
X232215382Y-225747683D01*
X232215610Y-225751209D01*
X232215751Y-225754949D01*
X232216774Y-225782208D01*
X232221364Y-225792893D01*
X232222401Y-225797493D01*
X232225962Y-225809214D01*
X232227661Y-225813617D01*
X232229791Y-225825053D01*
X232242727Y-225846039D01*
X232251231Y-225862411D01*
X232257451Y-225876888D01*
X232257453Y-225876892D01*
X232260964Y-225885063D01*
X232264978Y-225889949D01*
X232267163Y-225892134D01*
X232269215Y-225894397D01*
X232269055Y-225894542D01*
X232276175Y-225903549D01*
X232282427Y-225910444D01*
X232288532Y-225920348D01*
X232310320Y-225936916D01*
X232323139Y-225948110D01*
X232459934Y-226084905D01*
X232493960Y-226147217D01*
X232488895Y-226218032D01*
X232446348Y-226274868D01*
X232379828Y-226299679D01*
X232370839Y-226300000D01*
X198915838Y-226300000D01*
X198915838Y-226299581D01*
X198915044Y-226299742D01*
X198900000Y-226294854D01*
X198897533Y-226295656D01*
X198738851Y-226306056D01*
X198629422Y-226313228D01*
X198629417Y-226313229D01*
X198625307Y-226313498D01*
X198621267Y-226314302D01*
X198621264Y-226314302D01*
X198359359Y-226366398D01*
X198359353Y-226366400D01*
X198355314Y-226367203D01*
X198351410Y-226368528D01*
X198351407Y-226368529D01*
X198101887Y-226453230D01*
X198094640Y-226455690D01*
X198031079Y-226487035D01*
X197851451Y-226575617D01*
X197851446Y-226575620D01*
X197847747Y-226577444D01*
X197618858Y-226730383D01*
X197537861Y-226801415D01*
X197415340Y-226908863D01*
X197411889Y-226911889D01*
X197230383Y-227118858D01*
X197077444Y-227347747D01*
X197075620Y-227351446D01*
X197075617Y-227351451D01*
X197016481Y-227471368D01*
X196955690Y-227594640D01*
X196954364Y-227598545D01*
X196954364Y-227598546D01*
X196870663Y-227845122D01*
X196867203Y-227855314D01*
X196866400Y-227859353D01*
X196866398Y-227859359D01*
X196820677Y-228089214D01*
X196813498Y-228125307D01*
X196813229Y-228129417D01*
X196813228Y-228129422D01*
X196797415Y-228370699D01*
X196795656Y-228397533D01*
X196794854Y-228400000D01*
X196799546Y-228414439D01*
X196799118Y-228429323D01*
X196800000Y-228435457D01*
X196800000Y-232384162D01*
X196794854Y-232400000D01*
X196798872Y-232412365D01*
X196798642Y-232413147D01*
X196799136Y-232413179D01*
X196784285Y-232639758D01*
X196782134Y-232656098D01*
X196736870Y-232883658D01*
X196732605Y-232899575D01*
X196706457Y-232976605D01*
X196658026Y-233119277D01*
X196651719Y-233134504D01*
X196549102Y-233342593D01*
X196540861Y-233356867D01*
X196411962Y-233549777D01*
X196401929Y-233562853D01*
X196248948Y-233737294D01*
X196237294Y-233748948D01*
X196062853Y-233901929D01*
X196049777Y-233911962D01*
X195985236Y-233955087D01*
X195856863Y-234040863D01*
X195842596Y-234049100D01*
X195800992Y-234069617D01*
X195634504Y-234151719D01*
X195619277Y-234158026D01*
X195509428Y-234195315D01*
X195399575Y-234232605D01*
X195383661Y-234236869D01*
X195307845Y-234251950D01*
X195156098Y-234282134D01*
X195139758Y-234284285D01*
X194913179Y-234299136D01*
X194913168Y-234298973D01*
X194912892Y-234299043D01*
X194900000Y-234294854D01*
X194884162Y-234300000D01*
X110915838Y-234300000D01*
X110900000Y-234294854D01*
X110897248Y-234295748D01*
X110876914Y-234296688D01*
X110524187Y-234312996D01*
X110524180Y-234312997D01*
X110521296Y-234313130D01*
X110448009Y-234323353D01*
X110148710Y-234365103D01*
X110148707Y-234365104D01*
X110145822Y-234365506D01*
X109961309Y-234408903D01*
X109779622Y-234451635D01*
X109779616Y-234451637D01*
X109776783Y-234452303D01*
X109417327Y-234572781D01*
X109070521Y-234725911D01*
X109067968Y-234727333D01*
X109067964Y-234727335D01*
X108900559Y-234820579D01*
X108739323Y-234910387D01*
X108426559Y-235124635D01*
X108424333Y-235126483D01*
X108424323Y-235126491D01*
X108161602Y-235344652D01*
X108134898Y-235366827D01*
X107866827Y-235634898D01*
X107864973Y-235637131D01*
X107864970Y-235637134D01*
X107626491Y-235924323D01*
X107626483Y-235924333D01*
X107624635Y-235926559D01*
X107410387Y-236239323D01*
X107408965Y-236241876D01*
X107250988Y-236525500D01*
X107225911Y-236570521D01*
X107072781Y-236917327D01*
X106952303Y-237276783D01*
X106951637Y-237279616D01*
X106951635Y-237279622D01*
X106926096Y-237388209D01*
X106865506Y-237645822D01*
X106865104Y-237648707D01*
X106865103Y-237648710D01*
X106853848Y-237729397D01*
X106813130Y-238021296D01*
X106812997Y-238024180D01*
X106812996Y-238024187D01*
X106797708Y-238354864D01*
X106795748Y-238397248D01*
X106794854Y-238400000D01*
X106800000Y-238415838D01*
X106800000Y-250384162D01*
X106794854Y-250400000D01*
X106799346Y-250413824D01*
X106799334Y-250413864D01*
X106799359Y-250413865D01*
X106788057Y-250658330D01*
X106783632Y-250754029D01*
X106782558Y-250765618D01*
X106734399Y-251110859D01*
X106732260Y-251122299D01*
X106664496Y-251410418D01*
X106652454Y-251461616D01*
X106649272Y-251472801D01*
X106636664Y-251510418D01*
X106538493Y-251803318D01*
X106534289Y-251814170D01*
X106393488Y-252133055D01*
X106388300Y-252143473D01*
X106218685Y-252447990D01*
X106212559Y-252457885D01*
X106015559Y-252745469D01*
X106008545Y-252754757D01*
X105785851Y-253022938D01*
X105778010Y-253031538D01*
X105531538Y-253278010D01*
X105522938Y-253285851D01*
X105254757Y-253508545D01*
X105245469Y-253515559D01*
X104957885Y-253712559D01*
X104947990Y-253718685D01*
X104643473Y-253888300D01*
X104633055Y-253893488D01*
X104314170Y-254034289D01*
X104303318Y-254038493D01*
X104197115Y-254074089D01*
X103972801Y-254149272D01*
X103961625Y-254152452D01*
X103643732Y-254227219D01*
X103622299Y-254232260D01*
X103610859Y-254234399D01*
X103265618Y-254282558D01*
X103254029Y-254283632D01*
X102915245Y-254299295D01*
X102915244Y-254299295D01*
X102913865Y-254299359D01*
X102900000Y-254294854D01*
X102884235Y-254299976D01*
X95492238Y-254288916D01*
X83920663Y-254271603D01*
X83920662Y-254271603D01*
X83915909Y-254271596D01*
X83900000Y-254266427D01*
X83886176Y-254270919D01*
X83886136Y-254270907D01*
X83886135Y-254270932D01*
X83545971Y-254255205D01*
X83534382Y-254254131D01*
X83189141Y-254205972D01*
X83177701Y-254203833D01*
X83156268Y-254198792D01*
X82838375Y-254124025D01*
X82827199Y-254120845D01*
X82602885Y-254045662D01*
X82496682Y-254010066D01*
X82485830Y-254005862D01*
X82166945Y-253865061D01*
X82156527Y-253859873D01*
X81852010Y-253690258D01*
X81842115Y-253684132D01*
X81554531Y-253487132D01*
X81545243Y-253480118D01*
X81277062Y-253257424D01*
X81268462Y-253249583D01*
X81021990Y-253003111D01*
X81014149Y-252994511D01*
X80791455Y-252726330D01*
X80784441Y-252717042D01*
X80587441Y-252429458D01*
X80581315Y-252419563D01*
X80559347Y-252380122D01*
X80513006Y-252296925D01*
X80411700Y-252115046D01*
X80406512Y-252104628D01*
X80265711Y-251785743D01*
X80261507Y-251774891D01*
X80171676Y-251506874D01*
X80150728Y-251444374D01*
X80147546Y-251433189D01*
X80142191Y-251410418D01*
X80067740Y-251093872D01*
X80065601Y-251082432D01*
X80017442Y-250737191D01*
X80016368Y-250725602D01*
X80010264Y-250593574D01*
X80000641Y-250385438D01*
X80005146Y-250371573D01*
X80000000Y-250355735D01*
X80000000Y-250149271D01*
X81496668Y-250149271D01*
X81496755Y-250153273D01*
X81496755Y-250153280D01*
X81503261Y-250451448D01*
X81503349Y-250455465D01*
X81548883Y-250758330D01*
X81549979Y-250762190D01*
X81549980Y-250762195D01*
X81576909Y-250857044D01*
X81632531Y-251052953D01*
X81752937Y-251334560D01*
X81908149Y-251598585D01*
X82095651Y-251840747D01*
X82312404Y-252057122D01*
X82315585Y-252059576D01*
X82315586Y-252059577D01*
X82551701Y-252241739D01*
X82551705Y-252241742D01*
X82554894Y-252244202D01*
X82567346Y-252251493D01*
X82789990Y-252381856D01*
X82819189Y-252398953D01*
X82822874Y-252400521D01*
X82822878Y-252400523D01*
X82934434Y-252447990D01*
X83101006Y-252518867D01*
X83395775Y-252602001D01*
X83616338Y-252634768D01*
X83695419Y-252646516D01*
X83695421Y-252646516D01*
X83698718Y-252647006D01*
X83702049Y-252647146D01*
X83702053Y-252647146D01*
X83738737Y-252648683D01*
X83782084Y-252650500D01*
X83977474Y-252650500D01*
X84100915Y-252642626D01*
X84201639Y-252636201D01*
X84201644Y-252636200D01*
X84205647Y-252635945D01*
X84209584Y-252635183D01*
X84209586Y-252635183D01*
X84502401Y-252578530D01*
X84502405Y-252578529D01*
X84506338Y-252577768D01*
X84797200Y-252481856D01*
X85073518Y-252349763D01*
X85330812Y-252183631D01*
X85377553Y-252144202D01*
X85561849Y-251988734D01*
X85564910Y-251986152D01*
X85772019Y-251760529D01*
X85783991Y-251743590D01*
X85888914Y-251595126D01*
X85948780Y-251510418D01*
X86092328Y-251239874D01*
X86111672Y-251188547D01*
X86198919Y-250957044D01*
X86198921Y-250957038D01*
X86200336Y-250953283D01*
X86244871Y-250765618D01*
X86270124Y-250659207D01*
X86270125Y-250659202D01*
X86271053Y-250655291D01*
X86303332Y-250350729D01*
X86301238Y-250254718D01*
X86296739Y-250048552D01*
X86296739Y-250048547D01*
X86296651Y-250044535D01*
X86251117Y-249741670D01*
X86243690Y-249715509D01*
X86191401Y-249531341D01*
X86167469Y-249447047D01*
X86047063Y-249165440D01*
X85891851Y-248901415D01*
X85704349Y-248659253D01*
X85487596Y-248442878D01*
X85354796Y-248340423D01*
X85248299Y-248258261D01*
X85248295Y-248258258D01*
X85245106Y-248255798D01*
X85068538Y-248152413D01*
X84984275Y-248103075D01*
X84984272Y-248103073D01*
X84980811Y-248101047D01*
X84977126Y-248099479D01*
X84977122Y-248099477D01*
X84790051Y-248019878D01*
X84698994Y-247981133D01*
X84404225Y-247897999D01*
X84174014Y-247863799D01*
X84104581Y-247853484D01*
X84104579Y-247853484D01*
X84101282Y-247852994D01*
X84097951Y-247852854D01*
X84097947Y-247852854D01*
X84061263Y-247851317D01*
X84017916Y-247849500D01*
X83822526Y-247849500D01*
X83699085Y-247857374D01*
X83598361Y-247863799D01*
X83598356Y-247863800D01*
X83594353Y-247864055D01*
X83590416Y-247864817D01*
X83590414Y-247864817D01*
X83297599Y-247921470D01*
X83297595Y-247921471D01*
X83293662Y-247922232D01*
X83002800Y-248018144D01*
X82726482Y-248150237D01*
X82469188Y-248316369D01*
X82466123Y-248318954D01*
X82466121Y-248318956D01*
X82437763Y-248342878D01*
X82235090Y-248513848D01*
X82027981Y-248739471D01*
X82025667Y-248742746D01*
X82025664Y-248742749D01*
X82017860Y-248753792D01*
X81851220Y-248989582D01*
X81707672Y-249260126D01*
X81706257Y-249263882D01*
X81706256Y-249263883D01*
X81603510Y-249536513D01*
X81599664Y-249546717D01*
X81598735Y-249550632D01*
X81548893Y-249760661D01*
X81528947Y-249844709D01*
X81496668Y-250149271D01*
X80000000Y-250149271D01*
X80000000Y-228149271D01*
X81796668Y-228149271D01*
X81796755Y-228153273D01*
X81796755Y-228153280D01*
X81803049Y-228441719D01*
X81803349Y-228455465D01*
X81848883Y-228758330D01*
X81849979Y-228762190D01*
X81849980Y-228762195D01*
X81876909Y-228857044D01*
X81932531Y-229052953D01*
X81934111Y-229056649D01*
X81934112Y-229056651D01*
X81953223Y-229101348D01*
X82052937Y-229334560D01*
X82208149Y-229598585D01*
X82395651Y-229840747D01*
X82612404Y-230057122D01*
X82615585Y-230059576D01*
X82615586Y-230059577D01*
X82851701Y-230241739D01*
X82851705Y-230241742D01*
X82854894Y-230244202D01*
X82867346Y-230251493D01*
X83089990Y-230381856D01*
X83119189Y-230398953D01*
X83122874Y-230400521D01*
X83122878Y-230400523D01*
X83158871Y-230415838D01*
X83401006Y-230518867D01*
X83695775Y-230602001D01*
X83873556Y-230628412D01*
X83995419Y-230646516D01*
X83995421Y-230646516D01*
X83998718Y-230647006D01*
X84002049Y-230647146D01*
X84002053Y-230647146D01*
X84038737Y-230648683D01*
X84082084Y-230650500D01*
X84277474Y-230650500D01*
X84400915Y-230642626D01*
X84501639Y-230636201D01*
X84501644Y-230636200D01*
X84505647Y-230635945D01*
X84509584Y-230635183D01*
X84509586Y-230635183D01*
X84802401Y-230578530D01*
X84802405Y-230578529D01*
X84806338Y-230577768D01*
X85097200Y-230481856D01*
X85373518Y-230349763D01*
X85630812Y-230183631D01*
X85677553Y-230144202D01*
X85861849Y-229988734D01*
X85864910Y-229986152D01*
X86072019Y-229760529D01*
X86083991Y-229743590D01*
X86223605Y-229546040D01*
X86248780Y-229510418D01*
X86392328Y-229239874D01*
X86397762Y-229225456D01*
X86498919Y-228957044D01*
X86498921Y-228957038D01*
X86500336Y-228953283D01*
X86540727Y-228783082D01*
X86570124Y-228659207D01*
X86570125Y-228659202D01*
X86571053Y-228655291D01*
X86572864Y-228638209D01*
X86586518Y-228509378D01*
X86603332Y-228350729D01*
X86602823Y-228327369D01*
X86596755Y-228049271D01*
X183996668Y-228049271D01*
X183996755Y-228053273D01*
X183996755Y-228053280D01*
X184003261Y-228351448D01*
X184003349Y-228355465D01*
X184048883Y-228658330D01*
X184049979Y-228662190D01*
X184049980Y-228662195D01*
X184078372Y-228762195D01*
X184132531Y-228952953D01*
X184252937Y-229234560D01*
X184408149Y-229498585D01*
X184595651Y-229740747D01*
X184812404Y-229957122D01*
X184815585Y-229959576D01*
X184815586Y-229959577D01*
X185051701Y-230141739D01*
X185051705Y-230141742D01*
X185054894Y-230144202D01*
X185058373Y-230146239D01*
X185235179Y-230249763D01*
X185319189Y-230298953D01*
X185322874Y-230300521D01*
X185322878Y-230300523D01*
X185442666Y-230351493D01*
X185601006Y-230418867D01*
X185895775Y-230502001D01*
X186093164Y-230531325D01*
X186195419Y-230546516D01*
X186195421Y-230546516D01*
X186198718Y-230547006D01*
X186202049Y-230547146D01*
X186202053Y-230547146D01*
X186238737Y-230548683D01*
X186282084Y-230550500D01*
X186477474Y-230550500D01*
X186600915Y-230542626D01*
X186701639Y-230536201D01*
X186701644Y-230536200D01*
X186705647Y-230535945D01*
X186709584Y-230535183D01*
X186709586Y-230535183D01*
X187002401Y-230478530D01*
X187002405Y-230478529D01*
X187006338Y-230477768D01*
X187297200Y-230381856D01*
X187573518Y-230249763D01*
X187830812Y-230083631D01*
X187859327Y-230059577D01*
X188061849Y-229888734D01*
X188064910Y-229886152D01*
X188272019Y-229660529D01*
X188448780Y-229410418D01*
X188592328Y-229139874D01*
X188615370Y-229078733D01*
X188698919Y-228857044D01*
X188698921Y-228857038D01*
X188700336Y-228853283D01*
X188721952Y-228762195D01*
X188770124Y-228559207D01*
X188770125Y-228559202D01*
X188771053Y-228555291D01*
X188803332Y-228250729D01*
X188803084Y-228239323D01*
X188796739Y-227948552D01*
X188796739Y-227948547D01*
X188796651Y-227944535D01*
X188751117Y-227641670D01*
X188750019Y-227637800D01*
X188700769Y-227464334D01*
X188667469Y-227347047D01*
X188547063Y-227065440D01*
X188391851Y-226801415D01*
X188204349Y-226559253D01*
X188013292Y-226368529D01*
X187990437Y-226345714D01*
X187987596Y-226342878D01*
X187956589Y-226318956D01*
X187748299Y-226158261D01*
X187748295Y-226158258D01*
X187745106Y-226155798D01*
X187648917Y-226099477D01*
X187484275Y-226003075D01*
X187484272Y-226003073D01*
X187480811Y-226001047D01*
X187477126Y-225999479D01*
X187477122Y-225999477D01*
X187298535Y-225923488D01*
X187198994Y-225881133D01*
X186904225Y-225797999D01*
X186661844Y-225761991D01*
X186604581Y-225753484D01*
X186604579Y-225753484D01*
X186601282Y-225752994D01*
X186597951Y-225752854D01*
X186597947Y-225752854D01*
X186558692Y-225751209D01*
X186517916Y-225749500D01*
X186322526Y-225749500D01*
X186199085Y-225757374D01*
X186098361Y-225763799D01*
X186098356Y-225763800D01*
X186094353Y-225764055D01*
X186090416Y-225764817D01*
X186090414Y-225764817D01*
X185797599Y-225821470D01*
X185797595Y-225821471D01*
X185793662Y-225822232D01*
X185502800Y-225918144D01*
X185226482Y-226050237D01*
X184969188Y-226216369D01*
X184966123Y-226218954D01*
X184966121Y-226218956D01*
X184873672Y-226296944D01*
X184735090Y-226413848D01*
X184527981Y-226639471D01*
X184525667Y-226642746D01*
X184525664Y-226642749D01*
X184514000Y-226659253D01*
X184351220Y-226889582D01*
X184207672Y-227160126D01*
X184206257Y-227163882D01*
X184206256Y-227163883D01*
X184101284Y-227442419D01*
X184099664Y-227446717D01*
X184094452Y-227468680D01*
X184034638Y-227720729D01*
X184028947Y-227744709D01*
X183996668Y-228049271D01*
X86596755Y-228049271D01*
X86596739Y-228048552D01*
X86596739Y-228048547D01*
X86596651Y-228044535D01*
X86551117Y-227741670D01*
X86540243Y-227703368D01*
X86490642Y-227528668D01*
X86467469Y-227447047D01*
X86462349Y-227435071D01*
X86434051Y-227368888D01*
X86347063Y-227165440D01*
X86191851Y-226901415D01*
X86004349Y-226659253D01*
X85844818Y-226500000D01*
X85790437Y-226445714D01*
X85787596Y-226442878D01*
X85784414Y-226440423D01*
X85548299Y-226258261D01*
X85548295Y-226258258D01*
X85545106Y-226255798D01*
X85508834Y-226234560D01*
X85284275Y-226103075D01*
X85284272Y-226103073D01*
X85280811Y-226101047D01*
X85277126Y-226099479D01*
X85277122Y-226099477D01*
X85090051Y-226019878D01*
X84998994Y-225981133D01*
X84704225Y-225897999D01*
X84455052Y-225860982D01*
X84404581Y-225853484D01*
X84404579Y-225853484D01*
X84401282Y-225852994D01*
X84397951Y-225852854D01*
X84397947Y-225852854D01*
X84361263Y-225851317D01*
X84317916Y-225849500D01*
X84122526Y-225849500D01*
X84004199Y-225857048D01*
X83898361Y-225863799D01*
X83898356Y-225863800D01*
X83894353Y-225864055D01*
X83890416Y-225864817D01*
X83890414Y-225864817D01*
X83597599Y-225921470D01*
X83597595Y-225921471D01*
X83593662Y-225922232D01*
X83302800Y-226018144D01*
X83026482Y-226150237D01*
X83017451Y-226156068D01*
X82774053Y-226313228D01*
X82769188Y-226316369D01*
X82766123Y-226318954D01*
X82766121Y-226318956D01*
X82737763Y-226342878D01*
X82535090Y-226513848D01*
X82407749Y-226652572D01*
X82343391Y-226722684D01*
X82327981Y-226739471D01*
X82325667Y-226742746D01*
X82325664Y-226742749D01*
X82312642Y-226761175D01*
X82151220Y-226989582D01*
X82055953Y-227169132D01*
X82017074Y-227242407D01*
X82007672Y-227260126D01*
X82006257Y-227263882D01*
X82006256Y-227263883D01*
X81908543Y-227523158D01*
X81899664Y-227546717D01*
X81898735Y-227550632D01*
X81847950Y-227764635D01*
X81828947Y-227844709D01*
X81796668Y-228149271D01*
X80000000Y-228149271D01*
X80000000Y-225419669D01*
X225947001Y-225419669D01*
X225947371Y-225426490D01*
X225952895Y-225477352D01*
X225956521Y-225492604D01*
X226001676Y-225613054D01*
X226010214Y-225628649D01*
X226086715Y-225730724D01*
X226099276Y-225743285D01*
X226201351Y-225819786D01*
X226216946Y-225828324D01*
X226337394Y-225873478D01*
X226352649Y-225877105D01*
X226403514Y-225882631D01*
X226410328Y-225883000D01*
X226436885Y-225883000D01*
X226452124Y-225878525D01*
X226453329Y-225877135D01*
X226455000Y-225869452D01*
X226455000Y-225864884D01*
X226955000Y-225864884D01*
X226959475Y-225880123D01*
X226960865Y-225881328D01*
X226968548Y-225882999D01*
X226999669Y-225882999D01*
X227006490Y-225882629D01*
X227057352Y-225877105D01*
X227072600Y-225873480D01*
X227075769Y-225872292D01*
X227078410Y-225872099D01*
X227080293Y-225871651D01*
X227080365Y-225871956D01*
X227146577Y-225867109D01*
X227164231Y-225872292D01*
X227167397Y-225873479D01*
X227182649Y-225877105D01*
X227233514Y-225882631D01*
X227240328Y-225883000D01*
X227266885Y-225883000D01*
X227282124Y-225878525D01*
X227283329Y-225877135D01*
X227285000Y-225869452D01*
X227285000Y-225864884D01*
X227785000Y-225864884D01*
X227789475Y-225880123D01*
X227790865Y-225881328D01*
X227798548Y-225882999D01*
X227829669Y-225882999D01*
X227836490Y-225882629D01*
X227887352Y-225877105D01*
X227902600Y-225873480D01*
X227905769Y-225872292D01*
X227908410Y-225872099D01*
X227910293Y-225871651D01*
X227910365Y-225871956D01*
X227976577Y-225867109D01*
X227994231Y-225872292D01*
X227997397Y-225873479D01*
X228012649Y-225877105D01*
X228063514Y-225882631D01*
X228070328Y-225883000D01*
X228096885Y-225883000D01*
X228112124Y-225878525D01*
X228113329Y-225877135D01*
X228115000Y-225869452D01*
X228115000Y-223643115D01*
X228110525Y-223627876D01*
X228109135Y-223626671D01*
X228101452Y-223625000D01*
X227803115Y-223625000D01*
X227787876Y-223629475D01*
X227786671Y-223630865D01*
X227785000Y-223638548D01*
X227785000Y-225864884D01*
X227285000Y-225864884D01*
X227285000Y-223643115D01*
X227280525Y-223627876D01*
X227279135Y-223626671D01*
X227271452Y-223625000D01*
X226973115Y-223625000D01*
X226957876Y-223629475D01*
X226956671Y-223630865D01*
X226955000Y-223638548D01*
X226955000Y-225864884D01*
X226455000Y-225864884D01*
X226455000Y-223643115D01*
X226450525Y-223627876D01*
X226449135Y-223626671D01*
X226441452Y-223625000D01*
X225965116Y-223625000D01*
X225949877Y-223629475D01*
X225948672Y-223630865D01*
X225947001Y-223638548D01*
X225947001Y-225419669D01*
X80000000Y-225419669D01*
X80000000Y-223415838D01*
X80005146Y-223400000D01*
X80000654Y-223386176D01*
X80000666Y-223386136D01*
X80000641Y-223386135D01*
X80008495Y-223216258D01*
X80016368Y-223045971D01*
X80017442Y-223034382D01*
X80021629Y-223004370D01*
X80022965Y-222994795D01*
X187691838Y-222994795D01*
X187693002Y-223003697D01*
X187693002Y-223003700D01*
X187698530Y-223045971D01*
X187710427Y-223136951D01*
X187720317Y-223159427D01*
X187751862Y-223231118D01*
X187768167Y-223268175D01*
X187824475Y-223335162D01*
X187852995Y-223400175D01*
X187841839Y-223470290D01*
X187822465Y-223499641D01*
X187808323Y-223515655D01*
X187802377Y-223522388D01*
X187741447Y-223652163D01*
X187733831Y-223701081D01*
X187720853Y-223784434D01*
X187719391Y-223793823D01*
X187720555Y-223802725D01*
X187720555Y-223802728D01*
X187722441Y-223817147D01*
X187737980Y-223935979D01*
X187741597Y-223944199D01*
X187790289Y-224054859D01*
X187795720Y-224067203D01*
X187801497Y-224074076D01*
X187801498Y-224074077D01*
X187874716Y-224161180D01*
X187887970Y-224176948D01*
X187913198Y-224193741D01*
X187998142Y-224250285D01*
X188007313Y-224256390D01*
X188144157Y-224299142D01*
X188153129Y-224299306D01*
X188153132Y-224299307D01*
X188218463Y-224300504D01*
X188287499Y-224301770D01*
X188296533Y-224299307D01*
X188417158Y-224266421D01*
X188417160Y-224266420D01*
X188425817Y-224264060D01*
X188547991Y-224189045D01*
X188644200Y-224082754D01*
X188679089Y-224010743D01*
X188702795Y-223961814D01*
X188702795Y-223961813D01*
X188706710Y-223953733D01*
X188722226Y-223861508D01*
X188729690Y-223817147D01*
X188729690Y-223817142D01*
X188730496Y-223812354D01*
X188731108Y-223812457D01*
X188755822Y-223749676D01*
X188813416Y-223708161D01*
X188855312Y-223700992D01*
X201547142Y-223700992D01*
X201549815Y-223701188D01*
X201554850Y-223702917D01*
X201566472Y-223702481D01*
X201566474Y-223702481D01*
X201603763Y-223701081D01*
X201608489Y-223700992D01*
X201627456Y-223700992D01*
X201632191Y-223700110D01*
X201635717Y-223699882D01*
X201639457Y-223699741D01*
X201666716Y-223698718D01*
X201677401Y-223694128D01*
X201682001Y-223693091D01*
X201693722Y-223689530D01*
X201698125Y-223687831D01*
X201709561Y-223685701D01*
X201730549Y-223672764D01*
X201746919Y-223664261D01*
X201761396Y-223658041D01*
X201761400Y-223658039D01*
X201769571Y-223654528D01*
X201774457Y-223650514D01*
X201776642Y-223648329D01*
X201778905Y-223646277D01*
X201779050Y-223646437D01*
X201788057Y-223639317D01*
X201794952Y-223633065D01*
X201804856Y-223626960D01*
X201821424Y-223605172D01*
X201832618Y-223592353D01*
X202150452Y-223274519D01*
X202152486Y-223272763D01*
X202157269Y-223270425D01*
X202166982Y-223259955D01*
X202190573Y-223234523D01*
X202193853Y-223231118D01*
X202207248Y-223217723D01*
X202209972Y-223213753D01*
X202212297Y-223211105D01*
X202222094Y-223200543D01*
X202233401Y-223188354D01*
X202237713Y-223177547D01*
X202240232Y-223173562D01*
X202246004Y-223162753D01*
X202247911Y-223158448D01*
X202254493Y-223148854D01*
X202260186Y-223124864D01*
X202265751Y-223107268D01*
X202265904Y-223106885D01*
X225947000Y-223106885D01*
X225951475Y-223122124D01*
X225952865Y-223123329D01*
X225960548Y-223125000D01*
X226436885Y-223125000D01*
X226452124Y-223120525D01*
X226453329Y-223119135D01*
X226455000Y-223111452D01*
X226455000Y-223106885D01*
X226955000Y-223106885D01*
X226959475Y-223122124D01*
X226960865Y-223123329D01*
X226968548Y-223125000D01*
X227266885Y-223125000D01*
X227282124Y-223120525D01*
X227283329Y-223119135D01*
X227285000Y-223111452D01*
X227285000Y-223106885D01*
X227785000Y-223106885D01*
X227789475Y-223122124D01*
X227790865Y-223123329D01*
X227798548Y-223125000D01*
X228096885Y-223125000D01*
X228112124Y-223120525D01*
X228113329Y-223119135D01*
X228115000Y-223111452D01*
X228115000Y-220885116D01*
X228110525Y-220869877D01*
X228109135Y-220868672D01*
X228101452Y-220867001D01*
X228070331Y-220867001D01*
X228063510Y-220867371D01*
X228012648Y-220872895D01*
X227997400Y-220876520D01*
X227994231Y-220877708D01*
X227991590Y-220877901D01*
X227989707Y-220878349D01*
X227989635Y-220878044D01*
X227923423Y-220882891D01*
X227905769Y-220877708D01*
X227902603Y-220876521D01*
X227887351Y-220872895D01*
X227836486Y-220867369D01*
X227829672Y-220867000D01*
X227803115Y-220867000D01*
X227787876Y-220871475D01*
X227786671Y-220872865D01*
X227785000Y-220880548D01*
X227785000Y-223106885D01*
X227285000Y-223106885D01*
X227285000Y-220885116D01*
X227280525Y-220869877D01*
X227279135Y-220868672D01*
X227271452Y-220867001D01*
X227240331Y-220867001D01*
X227233510Y-220867371D01*
X227182648Y-220872895D01*
X227167400Y-220876520D01*
X227164231Y-220877708D01*
X227161590Y-220877901D01*
X227159707Y-220878349D01*
X227159635Y-220878044D01*
X227093423Y-220882891D01*
X227075769Y-220877708D01*
X227072603Y-220876521D01*
X227057351Y-220872895D01*
X227006486Y-220867369D01*
X226999672Y-220867000D01*
X226973115Y-220867000D01*
X226957876Y-220871475D01*
X226956671Y-220872865D01*
X226955000Y-220880548D01*
X226955000Y-223106885D01*
X226455000Y-223106885D01*
X226455000Y-220885116D01*
X226450525Y-220869877D01*
X226449135Y-220868672D01*
X226441452Y-220867001D01*
X226410331Y-220867001D01*
X226403510Y-220867371D01*
X226352648Y-220872895D01*
X226337396Y-220876521D01*
X226216946Y-220921676D01*
X226201351Y-220930214D01*
X226099276Y-221006715D01*
X226086715Y-221019276D01*
X226010214Y-221121351D01*
X226001676Y-221136946D01*
X225956522Y-221257394D01*
X225952895Y-221272649D01*
X225947369Y-221323514D01*
X225947000Y-221330328D01*
X225947000Y-223106885D01*
X202265904Y-223106885D01*
X202271586Y-223092642D01*
X202274883Y-223084378D01*
X202275500Y-223078085D01*
X202275500Y-223075003D01*
X202275650Y-223071933D01*
X202275866Y-223071944D01*
X202277198Y-223060569D01*
X202277653Y-223051255D01*
X202280340Y-223039934D01*
X202278696Y-223027850D01*
X202276651Y-223012827D01*
X202275500Y-222995836D01*
X202275500Y-221687949D01*
X202295502Y-221619828D01*
X202308085Y-221603394D01*
X202388176Y-221514911D01*
X202388181Y-221514904D01*
X202394200Y-221508254D01*
X202443642Y-221406206D01*
X202452795Y-221387314D01*
X202452795Y-221387313D01*
X202456710Y-221379233D01*
X202480496Y-221237854D01*
X202480647Y-221225500D01*
X202467587Y-221134302D01*
X202461596Y-221092468D01*
X202461595Y-221092465D01*
X202460323Y-221083582D01*
X202400984Y-220953072D01*
X202338246Y-220880261D01*
X202313260Y-220851263D01*
X202313257Y-220851260D01*
X202307400Y-220844463D01*
X202187095Y-220766485D01*
X202049739Y-220725407D01*
X202040763Y-220725352D01*
X202040762Y-220725352D01*
X201980555Y-220724984D01*
X201906376Y-220724531D01*
X201768529Y-220763928D01*
X201647280Y-220840430D01*
X201646184Y-220838693D01*
X201592060Y-220862831D01*
X201521878Y-220852103D01*
X201506706Y-220843691D01*
X201395130Y-220771371D01*
X201395131Y-220771371D01*
X201387592Y-220766485D01*
X201250236Y-220725407D01*
X201241260Y-220725352D01*
X201241259Y-220725352D01*
X201181052Y-220724984D01*
X201106873Y-220724531D01*
X200969026Y-220763928D01*
X200847777Y-220840430D01*
X200841835Y-220847158D01*
X200841834Y-220847159D01*
X200819105Y-220872895D01*
X200752874Y-220947888D01*
X200749059Y-220956014D01*
X200744131Y-220963516D01*
X200741467Y-220961766D01*
X200704828Y-221003161D01*
X200636500Y-221022445D01*
X200568594Y-221001727D01*
X200531678Y-220964338D01*
X200529700Y-220961245D01*
X200525984Y-220953072D01*
X200503139Y-220926559D01*
X200438260Y-220851263D01*
X200438257Y-220851260D01*
X200432400Y-220844463D01*
X200312095Y-220766485D01*
X200174739Y-220725407D01*
X200165763Y-220725352D01*
X200165762Y-220725352D01*
X200105555Y-220724984D01*
X200031376Y-220724531D01*
X199893529Y-220763928D01*
X199772280Y-220840430D01*
X199766338Y-220847158D01*
X199766337Y-220847159D01*
X199743608Y-220872895D01*
X199677377Y-220947888D01*
X199616447Y-221077663D01*
X199607217Y-221136946D01*
X199597509Y-221199299D01*
X199594391Y-221219323D01*
X199595555Y-221228225D01*
X199595555Y-221228228D01*
X199596814Y-221237854D01*
X199612980Y-221361479D01*
X199616597Y-221369699D01*
X199654103Y-221454937D01*
X199670720Y-221492703D01*
X199681585Y-221505629D01*
X199710107Y-221570641D01*
X199698952Y-221640756D01*
X199674230Y-221675799D01*
X199485460Y-221864569D01*
X199423148Y-221898595D01*
X199396365Y-221901474D01*
X188685367Y-221901474D01*
X188617246Y-221881472D01*
X188589914Y-221857722D01*
X188564077Y-221827737D01*
X188558218Y-221820937D01*
X188437913Y-221742959D01*
X188300557Y-221701881D01*
X188291581Y-221701826D01*
X188291580Y-221701826D01*
X188231373Y-221701458D01*
X188157194Y-221701005D01*
X188019347Y-221740402D01*
X187898098Y-221816904D01*
X187892156Y-221823632D01*
X187892155Y-221823633D01*
X187862049Y-221857722D01*
X187803195Y-221924362D01*
X187742265Y-222054137D01*
X187734699Y-222102734D01*
X187721830Y-222185387D01*
X187720209Y-222195797D01*
X187721373Y-222204699D01*
X187721373Y-222204702D01*
X187729503Y-222266875D01*
X187738798Y-222337953D01*
X187796538Y-222469177D01*
X187824119Y-222501988D01*
X187825561Y-222503704D01*
X187854082Y-222568719D01*
X187842926Y-222638834D01*
X187823552Y-222668186D01*
X187774824Y-222723360D01*
X187713894Y-222853135D01*
X187707362Y-222895087D01*
X187693559Y-222983742D01*
X187691838Y-222994795D01*
X80022965Y-222994795D01*
X80035841Y-222902481D01*
X80065601Y-222689141D01*
X80067740Y-222677701D01*
X80088127Y-222591019D01*
X80147548Y-222338375D01*
X80150731Y-222327190D01*
X80158547Y-222303873D01*
X80214903Y-222135727D01*
X80261507Y-221996682D01*
X80265711Y-221985830D01*
X80406512Y-221666945D01*
X80411700Y-221656527D01*
X80551128Y-221406206D01*
X80581316Y-221352008D01*
X80587441Y-221342115D01*
X80784441Y-221054531D01*
X80791455Y-221045243D01*
X81014149Y-220777062D01*
X81021990Y-220768462D01*
X81268462Y-220521990D01*
X81277062Y-220514149D01*
X81545243Y-220291455D01*
X81554531Y-220284441D01*
X81842115Y-220087441D01*
X81852010Y-220081315D01*
X82156527Y-219911700D01*
X82166945Y-219906512D01*
X82485830Y-219765711D01*
X82496682Y-219761507D01*
X82661936Y-219706119D01*
X82827199Y-219650728D01*
X82838375Y-219647548D01*
X83177701Y-219567740D01*
X83189141Y-219565601D01*
X83534382Y-219517442D01*
X83545971Y-219516368D01*
X83886135Y-219500641D01*
X83900000Y-219505146D01*
X83915838Y-219500000D01*
X229645837Y-219500000D01*
X229713958Y-219520002D01*
G37*
%TD.AperFunction*%
%TD*%
M02*
