M48
; DRILL file {KiCad (6.0.0)} date Fri Feb 18 09:15:26 2022
; FORMAT={-:-/ absolute / metric / decimal}
; #@! TF.CreationDate,2022-02-18T09:15:26+03:00
; #@! TF.GenerationSoftware,Kicad,Pcbnew,(6.0.0)
; #@! TF.FileFunction,Plated,1,4,PTH
FMAT,2
METRIC
; #@! TA.AperFunction,Plated,PTH,ViaDrill
T1C0.300
; #@! TA.AperFunction,Plated,PTH,ComponentDrill
T2C1.000
%
G90
G05
T1
X82.55Y-239.225
X83.1Y-221.875
X92.95Y-241.45
X94.425Y-242.325
X95.825Y-241.45
X102.875Y-250.275
X103.125Y-232.75
X122.7Y-221.575
X132.075Y-232.0
X169.7Y-232.125
X169.75Y-221.0
X188.197Y-223.001
X188.225Y-223.8
X188.226Y-222.202
X189.5Y-224.65
X191.299Y-221.125
X192.05Y-225.85
X192.9Y-229.5
X193.475Y-224.025
X194.275Y-232.225
X200.1Y-221.225
X201.175Y-221.225
X201.975Y-221.225
X236.644Y-224.712
X236.95Y-225.45
X238.149Y-225.4
X238.825Y-224.675
X239.622Y-224.609
X240.418Y-224.542
X241.213Y-224.454
X251.475Y-224.85
X267.0Y-224.875
X279.525Y-238.05
X279.7Y-239.275
X280.725Y-240.4
X281.175Y-246.425
X282.05Y-245.1
X282.25Y-242.55
X284.325Y-240.15
X284.435Y-232.06
X286.975Y-239.175
X286.975Y-240.4
X290.025Y-228.925
X290.05Y-232.475
X290.166Y-228.138
X291.2Y-250.125
X291.25Y-244.45
X292.15Y-234.725
X292.854Y-228.957
X293.175Y-228.225
X296.175Y-224.05
X296.424Y-227.8
X297.2Y-226.925
X302.9Y-234.725
X302.95Y-244.5
T2
X276.6Y-235.01
X276.6Y-237.55
X276.6Y-240.09
X276.6Y-242.63
X276.6Y-245.17
X276.6Y-247.71
X276.6Y-250.25
X278.3Y-223.95
X278.3Y-226.49
X280.84Y-223.95
X280.84Y-226.49
X283.38Y-223.95
X283.38Y-226.49
X285.92Y-223.95
X285.92Y-226.49
X288.46Y-223.95
X288.46Y-226.49
X291.0Y-223.95
X291.0Y-226.49
X293.54Y-223.95
X293.54Y-226.49
T0
M30
