%TF.GenerationSoftware,KiCad,Pcbnew,(6.0.0)*%
%TF.CreationDate,2022-02-18T09:15:22+03:00*%
%TF.ProjectId,Steel_form_Dish_washer PART 2,53746565-6c5f-4666-9f72-6d5f44697368,rev?*%
%TF.SameCoordinates,Original*%
%TF.FileFunction,Profile,NP*%
%FSLAX46Y46*%
G04 Gerber Fmt 4.6, Leading zero omitted, Abs format (unit mm)*
G04 Created by KiCad (PCBNEW (6.0.0)) date 2022-02-18 09:15:22*
%MOMM*%
%LPD*%
G01*
G04 APERTURE LIST*
%TA.AperFunction,Profile*%
%ADD10C,0.100000*%
%TD*%
G04 APERTURE END LIST*
D10*
X194900000Y-234400000D02*
X110900000Y-234400000D01*
X79900000Y-250371573D02*
X79900000Y-223400000D01*
X198900000Y-226400000D02*
G75*
G03*
X196900000Y-228400000I-1J-1999999D01*
G01*
X271900000Y-250400000D02*
X271900000Y-230400000D01*
X271900000Y-230400000D02*
G75*
G03*
X267900000Y-226400000I-4000000J0D01*
G01*
X309900000Y-223400000D02*
X309900000Y-250400000D01*
X194900000Y-234400000D02*
G75*
G03*
X196900000Y-232400000I1J1999999D01*
G01*
X271900000Y-250400000D02*
G75*
G03*
X275900000Y-254400000I4000000J0D01*
G01*
X305900000Y-254400000D02*
X275900000Y-254400000D01*
X267900000Y-226400000D02*
X198900000Y-226400000D01*
X309900000Y-223400000D02*
G75*
G03*
X305900000Y-219400000I-4000000J0D01*
G01*
X83900000Y-219400000D02*
X305900000Y-219400000D01*
X196900000Y-228400000D02*
X196900000Y-232400000D01*
X110900000Y-234400000D02*
G75*
G03*
X106900000Y-238400000I0J-4000000D01*
G01*
X106900000Y-238400000D02*
X106900000Y-250400000D01*
X83900000Y-219400000D02*
G75*
G03*
X79900000Y-223400000I0J-4000000D01*
G01*
X102900000Y-254400000D02*
G75*
G03*
X106900000Y-250400000I0J4000000D01*
G01*
X79900000Y-250371573D02*
G75*
G03*
X83900000Y-254371573I4000000J0D01*
G01*
X102900000Y-254400000D02*
X83900000Y-254371573D01*
X305900000Y-254400000D02*
G75*
G03*
X309900000Y-250400000I0J4000000D01*
G01*
M02*
