G04 #@! TF.GenerationSoftware,KiCad,Pcbnew,(6.0.2)*
G04 #@! TF.CreationDate,2022-03-03T13:42:42+03:00*
G04 #@! TF.ProjectId,Steel_form_Dish_washer PART 2,53746565-6c5f-4666-9f72-6d5f44697368,rev?*
G04 #@! TF.SameCoordinates,Original*
G04 #@! TF.FileFunction,Copper,L4,Bot*
G04 #@! TF.FilePolarity,Positive*
%FSLAX46Y46*%
G04 Gerber Fmt 4.6, Leading zero omitted, Abs format (unit mm)*
G04 Created by KiCad (PCBNEW (6.0.2)) date 2022-03-03 13:42:42*
%MOMM*%
%LPD*%
G01*
G04 APERTURE LIST*
G04 Aperture macros list*
%AMRoundRect*
0 Rectangle with rounded corners*
0 $1 Rounding radius*
0 $2 $3 $4 $5 $6 $7 $8 $9 X,Y pos of 4 corners*
0 Add a 4 corners polygon primitive as box body*
4,1,4,$2,$3,$4,$5,$6,$7,$8,$9,$2,$3,0*
0 Add four circle primitives for the rounded corners*
1,1,$1+$1,$2,$3*
1,1,$1+$1,$4,$5*
1,1,$1+$1,$6,$7*
1,1,$1+$1,$8,$9*
0 Add four rect primitives between the rounded corners*
20,1,$1+$1,$2,$3,$4,$5,0*
20,1,$1+$1,$4,$5,$6,$7,0*
20,1,$1+$1,$6,$7,$8,$9,0*
20,1,$1+$1,$8,$9,$2,$3,0*%
G04 Aperture macros list end*
G04 #@! TA.AperFunction,ComponentPad*
%ADD10R,1.700000X1.700000*%
G04 #@! TD*
G04 #@! TA.AperFunction,ComponentPad*
%ADD11O,1.700000X1.700000*%
G04 #@! TD*
G04 #@! TA.AperFunction,SMDPad,CuDef*
%ADD12RoundRect,0.100000X0.637500X0.100000X-0.637500X0.100000X-0.637500X-0.100000X0.637500X-0.100000X0*%
G04 #@! TD*
G04 #@! TA.AperFunction,ComponentPad*
%ADD13RoundRect,0.250000X-0.600000X0.600000X-0.600000X-0.600000X0.600000X-0.600000X0.600000X0.600000X0*%
G04 #@! TD*
G04 #@! TA.AperFunction,ComponentPad*
%ADD14C,1.700000*%
G04 #@! TD*
G04 #@! TA.AperFunction,SMDPad,CuDef*
%ADD15R,0.500000X4.000000*%
G04 #@! TD*
G04 #@! TA.AperFunction,ViaPad*
%ADD16C,0.500000*%
G04 #@! TD*
G04 #@! TA.AperFunction,Conductor*
%ADD17C,0.254000*%
G04 #@! TD*
G04 #@! TA.AperFunction,Conductor*
%ADD18C,0.500000*%
G04 #@! TD*
G04 #@! TA.AperFunction,Conductor*
%ADD19C,0.200000*%
G04 #@! TD*
G04 APERTURE END LIST*
D10*
X276600000Y-250250000D03*
D11*
X276600000Y-247710000D03*
X276600000Y-245170000D03*
X276600000Y-242630000D03*
X276600000Y-240090000D03*
X276600000Y-237550000D03*
X276600000Y-235010000D03*
D12*
X291912500Y-234925000D03*
X291912500Y-235575000D03*
X291912500Y-236225000D03*
X291912500Y-236875000D03*
X291912500Y-237525000D03*
X291912500Y-238175000D03*
X291912500Y-238825000D03*
X291912500Y-239475000D03*
X291912500Y-240125000D03*
X291912500Y-240775000D03*
X286187500Y-240775000D03*
X286187500Y-240125000D03*
X286187500Y-239475000D03*
X286187500Y-238825000D03*
X286187500Y-238175000D03*
X286187500Y-237525000D03*
X286187500Y-236875000D03*
X286187500Y-236225000D03*
X286187500Y-235575000D03*
X286187500Y-234925000D03*
D13*
X278300000Y-223950000D03*
D14*
X278300000Y-226490000D03*
X280840000Y-223950000D03*
X280840000Y-226490000D03*
X283380000Y-223950000D03*
X283380000Y-226490000D03*
X285920000Y-223950000D03*
X285920000Y-226490000D03*
X288460000Y-223950000D03*
X288460000Y-226490000D03*
X291000000Y-223950000D03*
X291000000Y-226490000D03*
X293540000Y-223950000D03*
X293540000Y-226490000D03*
D15*
X234175000Y-223375000D03*
X233345000Y-223375000D03*
X232515000Y-223375000D03*
X231685000Y-223375000D03*
X230855000Y-223375000D03*
X230025000Y-223375000D03*
X229195000Y-223375000D03*
X228365000Y-223375000D03*
X227535000Y-223375000D03*
X226705000Y-223375000D03*
D16*
X299850000Y-221200000D03*
X192450000Y-221500000D03*
X89550000Y-225150000D03*
X193750000Y-225450000D03*
X249600000Y-221050000D03*
X299850000Y-224350000D03*
X94150000Y-225150000D03*
X288450000Y-250350000D03*
X299900000Y-227400000D03*
X268000000Y-220850000D03*
X159950000Y-225150000D03*
X239100000Y-224850000D03*
X282850000Y-250350000D03*
X84500000Y-243100000D03*
X122100000Y-225150000D03*
X169550000Y-225250000D03*
X257900000Y-220950000D03*
X299900000Y-230000000D03*
X192700000Y-227550000D03*
X94000000Y-243250000D03*
X115000000Y-225100000D03*
X298950000Y-250400000D03*
X294250000Y-250400000D03*
X101900000Y-243250000D03*
X290650000Y-240800000D03*
X268100000Y-222300000D03*
X290800000Y-235600000D03*
X275875000Y-227525000D03*
X235889262Y-225049500D03*
X236693779Y-224500000D03*
X237300000Y-224050000D03*
X237850000Y-223600000D03*
X238400000Y-223150000D03*
X230025000Y-223025000D03*
X229250000Y-223350500D03*
X279600000Y-236750000D03*
X225450000Y-222950980D03*
X191200000Y-224750000D03*
X279150000Y-244200000D03*
X293700000Y-236600000D03*
X191600000Y-225400000D03*
X235300000Y-225700000D03*
X271225000Y-226175000D03*
X293575000Y-234875000D03*
X198247989Y-222853511D03*
X271375000Y-223175000D03*
X94575000Y-232525000D03*
X92200000Y-234200000D03*
X197100000Y-222750000D03*
X196099250Y-222149250D03*
X96400000Y-231250000D03*
X224400000Y-222950980D03*
X191500000Y-223950000D03*
X293100000Y-237650000D03*
X275499500Y-231000000D03*
D17*
X279650000Y-231900000D02*
X279650000Y-225300000D01*
X283325000Y-235575000D02*
X279650000Y-231900000D01*
X279650000Y-225300000D02*
X278300000Y-223950000D01*
X286187500Y-235575000D02*
X283325000Y-235575000D01*
D18*
X268650000Y-222300000D02*
X273850000Y-227500000D01*
X273850000Y-227500000D02*
X275850000Y-227500000D01*
X268100000Y-222300000D02*
X268650000Y-222300000D01*
D17*
X291912500Y-235575000D02*
X290825000Y-235575000D01*
X290825000Y-235575000D02*
X290800000Y-235600000D01*
X290675000Y-240775000D02*
X290650000Y-240800000D01*
X291912500Y-240775000D02*
X290675000Y-240775000D01*
D18*
X275850000Y-227500000D02*
X275875000Y-227525000D01*
D19*
X234175000Y-221525000D02*
X234175000Y-223375000D01*
X234250000Y-221450000D02*
X234175000Y-221525000D01*
X234175000Y-221675000D02*
X234350000Y-221500000D01*
X235950717Y-224987545D02*
X235950717Y-222050717D01*
X234175000Y-223375000D02*
X234175000Y-221675000D01*
X235350000Y-221450000D02*
X234250000Y-221450000D01*
X235950717Y-222050717D02*
X235350000Y-221450000D01*
X235515006Y-221050000D02*
X233700000Y-221050000D01*
X236719279Y-224474500D02*
X236650000Y-224405221D01*
X233345000Y-221405000D02*
X233345000Y-223375000D01*
X236650000Y-224405221D02*
X236650000Y-222184994D01*
X233700000Y-221050000D02*
X233345000Y-221405000D01*
X236650000Y-222184994D02*
X235515006Y-221050000D01*
X235680012Y-220650000D02*
X233200000Y-220650000D01*
X237300000Y-224050000D02*
X237300000Y-222269988D01*
X237300000Y-222269988D02*
X235680012Y-220650000D01*
X233200000Y-220650000D02*
X232515000Y-221335000D01*
X232515000Y-221335000D02*
X232515000Y-223375000D01*
X231685000Y-221175000D02*
X231685000Y-223375000D01*
X232609520Y-220250480D02*
X231685000Y-221175000D01*
X235950480Y-220250480D02*
X232609520Y-220250480D01*
X237850000Y-223600000D02*
X237737104Y-223487104D01*
X237737104Y-223487104D02*
X237737104Y-222037104D01*
X237737104Y-222037104D02*
X235950480Y-220250480D01*
X230855000Y-221175000D02*
X230855000Y-223375000D01*
X236115967Y-219850961D02*
X232179039Y-219850961D01*
X238400000Y-223150000D02*
X238400000Y-222134994D01*
X232179039Y-219850961D02*
X230855000Y-221175000D01*
X238400000Y-222134994D02*
X236115967Y-219850961D01*
X230025000Y-223375000D02*
X230025000Y-222825000D01*
X229195000Y-223375000D02*
X229249500Y-223375000D01*
D17*
X282500000Y-237400000D02*
X282500000Y-240500000D01*
X281850000Y-236750000D02*
X282500000Y-237400000D01*
X287650000Y-242300000D02*
X289250000Y-240700000D01*
X278950000Y-236350000D02*
X279350000Y-236750000D01*
X279350000Y-236750000D02*
X279600000Y-236750000D01*
X289250000Y-238700000D02*
X290425000Y-237525000D01*
X289250000Y-240700000D02*
X289250000Y-238700000D01*
X284300000Y-242300000D02*
X287650000Y-242300000D01*
X282500000Y-240500000D02*
X284300000Y-242300000D01*
X277610000Y-235010000D02*
X278950000Y-236350000D01*
X276600000Y-235010000D02*
X277610000Y-235010000D01*
X290425000Y-237525000D02*
X291912500Y-237525000D01*
X279600000Y-236750000D02*
X281850000Y-236750000D01*
D19*
X191535300Y-224719600D02*
X191230400Y-224719600D01*
D17*
X293700000Y-236500000D02*
X293425000Y-236225000D01*
X293425000Y-236225000D02*
X291912500Y-236225000D01*
D19*
X191535300Y-224719600D02*
X193869600Y-224719600D01*
D17*
X276600000Y-242630000D02*
X278170000Y-244200000D01*
D19*
X195000000Y-225850000D02*
X197500000Y-225850000D01*
X197500000Y-225850000D02*
X197700000Y-225650000D01*
D17*
X278170000Y-244200000D02*
X279150000Y-244200000D01*
X291000000Y-244200000D02*
X293700000Y-241500000D01*
X293700000Y-236600000D02*
X293700000Y-236500000D01*
X293700000Y-241500000D02*
X293700000Y-236600000D01*
D19*
X197700000Y-225650000D02*
X197700000Y-225600000D01*
D17*
X279150000Y-244200000D02*
X291000000Y-244200000D01*
D19*
X193869600Y-224719600D02*
X194550000Y-225400000D01*
X225450000Y-224850000D02*
X224700000Y-225600000D01*
X194550000Y-225400000D02*
X195000000Y-225850000D01*
X225450000Y-222950980D02*
X225450000Y-224850000D01*
X191230400Y-224719600D02*
X191200000Y-224750000D01*
X197700000Y-225600000D02*
X224700000Y-225600000D01*
X193250000Y-226300000D02*
X192350000Y-225400000D01*
D17*
X278050000Y-244800000D02*
X278050000Y-245150000D01*
D19*
X271250480Y-226200480D02*
X274250000Y-229200000D01*
X235000000Y-226050000D02*
X198000000Y-226050000D01*
D17*
X274250000Y-243200000D02*
X274856511Y-243806511D01*
D19*
X235200000Y-225800000D02*
X235200000Y-225850000D01*
D17*
X294300000Y-235700000D02*
X293525000Y-234925000D01*
D19*
X235200000Y-225850000D02*
X235000000Y-226050000D01*
X235350000Y-225650000D02*
X235300000Y-225700000D01*
D17*
X294300000Y-241800000D02*
X294300000Y-235700000D01*
X277056511Y-243806511D02*
X278050000Y-244800000D01*
X293525000Y-234925000D02*
X291912500Y-234925000D01*
D19*
X274250000Y-229200000D02*
X274250000Y-243200000D01*
X197750000Y-226300000D02*
X193250000Y-226300000D01*
X192350000Y-225400000D02*
X191600000Y-225400000D01*
X235300000Y-225700000D02*
X235200000Y-225800000D01*
D17*
X278030000Y-245170000D02*
X290930000Y-245170000D01*
X290930000Y-245170000D02*
X294300000Y-241800000D01*
X276600000Y-245170000D02*
X278030000Y-245170000D01*
D19*
X198000000Y-226050000D02*
X197750000Y-226300000D01*
D17*
X274856511Y-243806511D02*
X277056511Y-243806511D01*
X278050000Y-245150000D02*
X278030000Y-245170000D01*
X286187500Y-234925000D02*
X287425000Y-234925000D01*
X283150000Y-229800000D02*
X282050000Y-228700000D01*
X287600000Y-234750000D02*
X287600000Y-233000000D01*
X287425000Y-234925000D02*
X287600000Y-234750000D01*
X282050000Y-225280000D02*
X283380000Y-223950000D01*
X284400000Y-229800000D02*
X283150000Y-229800000D01*
X282050000Y-228700000D02*
X282050000Y-225280000D01*
X287600000Y-233000000D02*
X284400000Y-229800000D01*
X293540000Y-223950000D02*
X292363489Y-225126511D01*
X289950000Y-235100000D02*
X289950000Y-236500000D01*
X292363489Y-225126511D02*
X292363489Y-232686511D01*
X289950000Y-236500000D02*
X288950000Y-237500000D01*
X292363489Y-232686511D02*
X289950000Y-235100000D01*
X286212500Y-237500000D02*
X286187500Y-237525000D01*
X288950000Y-237500000D02*
X286212500Y-237500000D01*
X284556511Y-223743489D02*
X284556511Y-223556511D01*
X284556511Y-222756511D02*
X284556511Y-223743489D01*
X181250000Y-223350000D02*
X197751500Y-223350000D01*
X283550000Y-221750000D02*
X284556511Y-222756511D01*
X285920000Y-226490000D02*
X284556511Y-225126511D01*
X284556511Y-225126511D02*
X284556511Y-223743489D01*
X94600000Y-232500000D02*
X172100000Y-232500000D01*
X197751500Y-223350000D02*
X198125750Y-222975750D01*
X271400000Y-223150000D02*
X272800000Y-221750000D01*
D19*
X197751500Y-223350000D02*
X198247989Y-222853511D01*
D17*
X172100000Y-232500000D02*
X181250000Y-223350000D01*
X272800000Y-221750000D02*
X283550000Y-221750000D01*
X198125750Y-222975750D02*
X198150000Y-222951500D01*
X174050000Y-229250000D02*
X171400000Y-231900000D01*
X92200000Y-233100000D02*
X92200000Y-234200000D01*
X180550000Y-222750000D02*
X174050000Y-229250000D01*
X197100000Y-222750000D02*
X180550000Y-222750000D01*
X93400000Y-231900000D02*
X92200000Y-233100000D01*
X171400000Y-231900000D02*
X93400000Y-231900000D01*
X284850000Y-229050000D02*
X284250000Y-229050000D01*
X288400000Y-235800000D02*
X288400000Y-232600000D01*
X286187500Y-236225000D02*
X287975000Y-236225000D01*
X283380000Y-228180000D02*
X283380000Y-226490000D01*
X288400000Y-232600000D02*
X284850000Y-229050000D01*
X284250000Y-229050000D02*
X283380000Y-228180000D01*
X287975000Y-236225000D02*
X288400000Y-235800000D01*
X276650000Y-230100000D02*
X276650000Y-223200000D01*
X276650000Y-223200000D02*
X277500000Y-222350000D01*
X286187500Y-236875000D02*
X283425000Y-236875000D01*
X277500000Y-222350000D02*
X279240000Y-222350000D01*
X279240000Y-222350000D02*
X280840000Y-223950000D01*
X283425000Y-236875000D02*
X276650000Y-230100000D01*
X96400000Y-231250000D02*
X170550000Y-231250000D01*
X179600000Y-222200000D02*
X196048500Y-222200000D01*
X196048500Y-222200000D02*
X196099250Y-222149250D01*
X170550000Y-231250000D02*
X179600000Y-222200000D01*
D19*
X280100000Y-242750000D02*
X280500000Y-243150000D01*
X194035086Y-224320080D02*
X195065006Y-225350000D01*
X280100000Y-238550000D02*
X280100000Y-242750000D01*
X191500000Y-223950000D02*
X191979920Y-223950000D01*
X224400000Y-224300000D02*
X223600000Y-225100000D01*
X224400000Y-222950980D02*
X224400000Y-224300000D01*
X197350000Y-225350000D02*
X197600000Y-225100000D01*
D17*
X292825000Y-236875000D02*
X293200000Y-237250000D01*
D19*
X277850000Y-236300000D02*
X280100000Y-238550000D01*
X275450489Y-235486144D02*
X276264345Y-236300000D01*
X192350000Y-224320080D02*
X194035086Y-224320080D01*
D17*
X287650000Y-243150000D02*
X291150000Y-243150000D01*
D19*
X195065006Y-225350000D02*
X197350000Y-225350000D01*
D17*
X293200000Y-237250000D02*
X293200000Y-237498500D01*
D19*
X275474500Y-231000000D02*
X275450489Y-231024011D01*
X275450489Y-231024011D02*
X275450489Y-235486144D01*
X191979920Y-223950000D02*
X192350000Y-224320080D01*
D17*
X291912500Y-236875000D02*
X292825000Y-236875000D01*
X291150000Y-243150000D02*
X293150000Y-241150000D01*
X293148500Y-241148500D02*
X293148500Y-237550000D01*
D19*
X276264345Y-236300000D02*
X277850000Y-236300000D01*
D17*
X293200000Y-237498500D02*
X293148500Y-237550000D01*
D19*
X280500000Y-243150000D02*
X287650000Y-243150000D01*
X197600000Y-225100000D02*
X223600000Y-225100000D01*
D17*
X293150000Y-241150000D02*
X293148500Y-241148500D01*
G04 #@! TA.AperFunction,Conductor*
G36*
X305900000Y-219505146D02*
G01*
X305913824Y-219500654D01*
X305913864Y-219500666D01*
X305913865Y-219500641D01*
X306254029Y-219516368D01*
X306265618Y-219517442D01*
X306610859Y-219565601D01*
X306622299Y-219567740D01*
X306961625Y-219647548D01*
X306972801Y-219650728D01*
X307042291Y-219674019D01*
X307303318Y-219761507D01*
X307314170Y-219765711D01*
X307633055Y-219906512D01*
X307643473Y-219911700D01*
X307947990Y-220081315D01*
X307957885Y-220087441D01*
X308245469Y-220284441D01*
X308254757Y-220291455D01*
X308522938Y-220514149D01*
X308531538Y-220521990D01*
X308778010Y-220768462D01*
X308785851Y-220777062D01*
X309008545Y-221045243D01*
X309015559Y-221054531D01*
X309212559Y-221342115D01*
X309218685Y-221352010D01*
X309388300Y-221656527D01*
X309393488Y-221666945D01*
X309534289Y-221985830D01*
X309538493Y-221996682D01*
X309573680Y-222101664D01*
X309641276Y-222303341D01*
X309649269Y-222327190D01*
X309652452Y-222338375D01*
X309715015Y-222604379D01*
X309732260Y-222677701D01*
X309734399Y-222689141D01*
X309782558Y-223034382D01*
X309783632Y-223045971D01*
X309799359Y-223386135D01*
X309794854Y-223400000D01*
X309800000Y-223415838D01*
X309800000Y-250384162D01*
X309794854Y-250400000D01*
X309799346Y-250413824D01*
X309799334Y-250413864D01*
X309799359Y-250413865D01*
X309788057Y-250658330D01*
X309783632Y-250754029D01*
X309782558Y-250765618D01*
X309734399Y-251110859D01*
X309732260Y-251122299D01*
X309664496Y-251410418D01*
X309652454Y-251461616D01*
X309649272Y-251472801D01*
X309636664Y-251510418D01*
X309538493Y-251803318D01*
X309534289Y-251814170D01*
X309393488Y-252133055D01*
X309388300Y-252143473D01*
X309218685Y-252447990D01*
X309212559Y-252457885D01*
X309015559Y-252745469D01*
X309008545Y-252754757D01*
X308785851Y-253022938D01*
X308778010Y-253031538D01*
X308531538Y-253278010D01*
X308522938Y-253285851D01*
X308254757Y-253508545D01*
X308245469Y-253515559D01*
X307957885Y-253712559D01*
X307947990Y-253718685D01*
X307643473Y-253888300D01*
X307633055Y-253893488D01*
X307314170Y-254034289D01*
X307303318Y-254038493D01*
X307197115Y-254074089D01*
X306972801Y-254149272D01*
X306961625Y-254152452D01*
X306643732Y-254227219D01*
X306622299Y-254232260D01*
X306610859Y-254234399D01*
X306265618Y-254282558D01*
X306254029Y-254283632D01*
X305913865Y-254299359D01*
X305900000Y-254294854D01*
X305884162Y-254300000D01*
X275915838Y-254300000D01*
X275900000Y-254294854D01*
X275886176Y-254299346D01*
X275886136Y-254299334D01*
X275886135Y-254299359D01*
X275545971Y-254283632D01*
X275534382Y-254282558D01*
X275189141Y-254234399D01*
X275177701Y-254232260D01*
X275156268Y-254227219D01*
X274838375Y-254152452D01*
X274827199Y-254149272D01*
X274602885Y-254074089D01*
X274496682Y-254038493D01*
X274485830Y-254034289D01*
X274166945Y-253893488D01*
X274156527Y-253888300D01*
X273852010Y-253718685D01*
X273842115Y-253712559D01*
X273554531Y-253515559D01*
X273545243Y-253508545D01*
X273277062Y-253285851D01*
X273268462Y-253278010D01*
X273021990Y-253031538D01*
X273014149Y-253022938D01*
X272791455Y-252754757D01*
X272784441Y-252745469D01*
X272587441Y-252457885D01*
X272581315Y-252447990D01*
X272411700Y-252143473D01*
X272406512Y-252133055D01*
X272265711Y-251814170D01*
X272261507Y-251803318D01*
X272163336Y-251510418D01*
X272150728Y-251472801D01*
X272147546Y-251461616D01*
X272135505Y-251410418D01*
X272067740Y-251122299D01*
X272065601Y-251110859D01*
X272017442Y-250765618D01*
X272016368Y-250754029D01*
X272011984Y-250659207D01*
X272000641Y-250413865D01*
X272005146Y-250400000D01*
X272000000Y-250384162D01*
X272000000Y-247977966D01*
X275268257Y-247977966D01*
X275298565Y-248112446D01*
X275301645Y-248122275D01*
X275381770Y-248319603D01*
X275386413Y-248328794D01*
X275497694Y-248510388D01*
X275503777Y-248518699D01*
X275643213Y-248679667D01*
X275650580Y-248686883D01*
X275814434Y-248822916D01*
X275822881Y-248828831D01*
X276006756Y-248936279D01*
X276016043Y-248940729D01*
X276055484Y-248955790D01*
X276111987Y-248998778D01*
X276136280Y-249065489D01*
X276120650Y-249134743D01*
X276070059Y-249184554D01*
X276010535Y-249199500D01*
X275730252Y-249199500D01*
X275724184Y-249200707D01*
X275683939Y-249208712D01*
X275683938Y-249208712D01*
X275671769Y-249211133D01*
X275605448Y-249255448D01*
X275561133Y-249321769D01*
X275549500Y-249380252D01*
X275549500Y-251119748D01*
X275550707Y-251125816D01*
X275556349Y-251154178D01*
X275561133Y-251178231D01*
X275605448Y-251244552D01*
X275671769Y-251288867D01*
X275683938Y-251291288D01*
X275683939Y-251291288D01*
X275724184Y-251299293D01*
X275730252Y-251300500D01*
X277469748Y-251300500D01*
X277475816Y-251299293D01*
X277516061Y-251291288D01*
X277516062Y-251291288D01*
X277528231Y-251288867D01*
X277594552Y-251244552D01*
X277638867Y-251178231D01*
X277643652Y-251154178D01*
X277649293Y-251125816D01*
X277650500Y-251119748D01*
X277650500Y-250049271D01*
X303496668Y-250049271D01*
X303496755Y-250053273D01*
X303496755Y-250053280D01*
X303503261Y-250351448D01*
X303503349Y-250355465D01*
X303548883Y-250658330D01*
X303549979Y-250662190D01*
X303549980Y-250662195D01*
X303577705Y-250759847D01*
X303632531Y-250952953D01*
X303752937Y-251234560D01*
X303908149Y-251498585D01*
X304095651Y-251740747D01*
X304312404Y-251957122D01*
X304315585Y-251959576D01*
X304315586Y-251959577D01*
X304551701Y-252141739D01*
X304551705Y-252141742D01*
X304554894Y-252144202D01*
X304558373Y-252146239D01*
X304735179Y-252249763D01*
X304819189Y-252298953D01*
X304822874Y-252300521D01*
X304822878Y-252300523D01*
X304942666Y-252351493D01*
X305101006Y-252418867D01*
X305395775Y-252502001D01*
X305599391Y-252532250D01*
X305695419Y-252546516D01*
X305695421Y-252546516D01*
X305698718Y-252547006D01*
X305702049Y-252547146D01*
X305702053Y-252547146D01*
X305738737Y-252548683D01*
X305782084Y-252550500D01*
X305977474Y-252550500D01*
X306100915Y-252542626D01*
X306201639Y-252536201D01*
X306201644Y-252536200D01*
X306205647Y-252535945D01*
X306209584Y-252535183D01*
X306209586Y-252535183D01*
X306502401Y-252478530D01*
X306502405Y-252478529D01*
X306506338Y-252477768D01*
X306797200Y-252381856D01*
X307073518Y-252249763D01*
X307240818Y-252141739D01*
X307327439Y-252085809D01*
X307327440Y-252085808D01*
X307330812Y-252083631D01*
X307359327Y-252059577D01*
X307561849Y-251888734D01*
X307564910Y-251886152D01*
X307772019Y-251660529D01*
X307948780Y-251410418D01*
X308092328Y-251139874D01*
X308113976Y-251082432D01*
X308198919Y-250857044D01*
X308198921Y-250857038D01*
X308200336Y-250853283D01*
X308221952Y-250762195D01*
X308270124Y-250559207D01*
X308270125Y-250559202D01*
X308271053Y-250555291D01*
X308303332Y-250250729D01*
X308301119Y-250149271D01*
X308296739Y-249948552D01*
X308296739Y-249948547D01*
X308296651Y-249944535D01*
X308251117Y-249641670D01*
X308224159Y-249546717D01*
X308196878Y-249450632D01*
X308167469Y-249347047D01*
X308161865Y-249333939D01*
X308112304Y-249218026D01*
X308047063Y-249065440D01*
X307891851Y-248801415D01*
X307704349Y-248559253D01*
X307487596Y-248342878D01*
X307469341Y-248328794D01*
X307248299Y-248158261D01*
X307248295Y-248158258D01*
X307245106Y-248155798D01*
X307068538Y-248052413D01*
X306984275Y-248003075D01*
X306984272Y-248003073D01*
X306980811Y-248001047D01*
X306977126Y-247999479D01*
X306977122Y-247999477D01*
X306790051Y-247919878D01*
X306698994Y-247881133D01*
X306404225Y-247797999D01*
X306174014Y-247763799D01*
X306104581Y-247753484D01*
X306104579Y-247753484D01*
X306101282Y-247752994D01*
X306097951Y-247752854D01*
X306097947Y-247752854D01*
X306061263Y-247751317D01*
X306017916Y-247749500D01*
X305822526Y-247749500D01*
X305699085Y-247757374D01*
X305598361Y-247763799D01*
X305598356Y-247763800D01*
X305594353Y-247764055D01*
X305590416Y-247764817D01*
X305590414Y-247764817D01*
X305297599Y-247821470D01*
X305297595Y-247821471D01*
X305293662Y-247822232D01*
X305002800Y-247918144D01*
X304726482Y-248050237D01*
X304469188Y-248216369D01*
X304466123Y-248218954D01*
X304466121Y-248218956D01*
X304419528Y-248258261D01*
X304235090Y-248413848D01*
X304146472Y-248510388D01*
X304067140Y-248596812D01*
X304027981Y-248639471D01*
X304025667Y-248642746D01*
X304025664Y-248642749D01*
X303959398Y-248736513D01*
X303851220Y-248889582D01*
X303707672Y-249160126D01*
X303706257Y-249163882D01*
X303706256Y-249163883D01*
X303624713Y-249380252D01*
X303599664Y-249446717D01*
X303598735Y-249450632D01*
X303554317Y-249637805D01*
X303528947Y-249744709D01*
X303496668Y-250049271D01*
X277650500Y-250049271D01*
X277650500Y-249380252D01*
X277638867Y-249321769D01*
X277594552Y-249255448D01*
X277528231Y-249211133D01*
X277516062Y-249208712D01*
X277516061Y-249208712D01*
X277475816Y-249200707D01*
X277469748Y-249199500D01*
X277190107Y-249199500D01*
X277121986Y-249179498D01*
X277075493Y-249125842D01*
X277065389Y-249055568D01*
X277094883Y-248990988D01*
X277134675Y-248960349D01*
X277293090Y-248882742D01*
X277301945Y-248877464D01*
X277475328Y-248753792D01*
X277483200Y-248747139D01*
X277634052Y-248596812D01*
X277640730Y-248588965D01*
X277765003Y-248416020D01*
X277770313Y-248407183D01*
X277864670Y-248216267D01*
X277868469Y-248206672D01*
X277930377Y-248002910D01*
X277932555Y-247992837D01*
X277933986Y-247981962D01*
X277931775Y-247967778D01*
X277918617Y-247964000D01*
X275283225Y-247964000D01*
X275269694Y-247967973D01*
X275268257Y-247977966D01*
X272000000Y-247977966D01*
X272000000Y-230415838D01*
X272005146Y-230400000D01*
X272004252Y-230397248D01*
X272001956Y-230347587D01*
X271987004Y-230024187D01*
X271987003Y-230024180D01*
X271986870Y-230021296D01*
X271961241Y-229837563D01*
X271934897Y-229648710D01*
X271934896Y-229648707D01*
X271934494Y-229645822D01*
X271878294Y-229406874D01*
X271848365Y-229279622D01*
X271848363Y-229279616D01*
X271847697Y-229276783D01*
X271727219Y-228917327D01*
X271574089Y-228570521D01*
X271556498Y-228538938D01*
X271391035Y-228241876D01*
X271389613Y-228239323D01*
X271175365Y-227926559D01*
X271173517Y-227924333D01*
X271173509Y-227924323D01*
X270935030Y-227637134D01*
X270935027Y-227637131D01*
X270933173Y-227634898D01*
X270665102Y-227366827D01*
X270662866Y-227364970D01*
X270375677Y-227126491D01*
X270375667Y-227126483D01*
X270373441Y-227124635D01*
X270060677Y-226910387D01*
X269813722Y-226772834D01*
X269732036Y-226727335D01*
X269732032Y-226727333D01*
X269729479Y-226725911D01*
X269382673Y-226572781D01*
X269023217Y-226452303D01*
X269020384Y-226451637D01*
X269020378Y-226451635D01*
X268831833Y-226407290D01*
X268654178Y-226365506D01*
X268651293Y-226365104D01*
X268651290Y-226365103D01*
X268406442Y-226330949D01*
X268278704Y-226313130D01*
X268275820Y-226312997D01*
X268275813Y-226312996D01*
X267929255Y-226296973D01*
X267929254Y-226296973D01*
X267902752Y-226295748D01*
X267900000Y-226294854D01*
X267884162Y-226300000D01*
X235629867Y-226300000D01*
X235561746Y-226279998D01*
X235515253Y-226226342D01*
X235505149Y-226156068D01*
X235534643Y-226091488D01*
X235563939Y-226066625D01*
X235583072Y-226054878D01*
X235583075Y-226054875D01*
X235590724Y-226050179D01*
X235598189Y-226041932D01*
X235671300Y-225961161D01*
X235671303Y-225961157D01*
X235677322Y-225954507D01*
X235733588Y-225838375D01*
X235735267Y-225828399D01*
X235754190Y-225715917D01*
X235754997Y-225711120D01*
X235755133Y-225700000D01*
X235747066Y-225643673D01*
X235757210Y-225573406D01*
X235803733Y-225519777D01*
X235874103Y-225499834D01*
X235878422Y-225499913D01*
X235945517Y-225501143D01*
X236007767Y-225484171D01*
X236061354Y-225469562D01*
X236061355Y-225469562D01*
X236070017Y-225467200D01*
X236077667Y-225462503D01*
X236077669Y-225462502D01*
X236172334Y-225404378D01*
X236172337Y-225404375D01*
X236179986Y-225399679D01*
X236198931Y-225378749D01*
X236260562Y-225310661D01*
X236260565Y-225310657D01*
X236266584Y-225304007D01*
X236322850Y-225187875D01*
X236326236Y-225167752D01*
X236343452Y-225065417D01*
X236344259Y-225060620D01*
X236344395Y-225049500D01*
X236343704Y-225044674D01*
X236343534Y-225042065D01*
X236359067Y-224972789D01*
X236409587Y-224922907D01*
X236479056Y-224908257D01*
X236506842Y-224913609D01*
X236612443Y-224946601D01*
X236621012Y-224949278D01*
X236629982Y-224949442D01*
X236629986Y-224949443D01*
X236688721Y-224950519D01*
X236750034Y-224951643D01*
X236824394Y-224931370D01*
X236865871Y-224920062D01*
X236865872Y-224920062D01*
X236874534Y-224917700D01*
X236882184Y-224913003D01*
X236882186Y-224913002D01*
X236976851Y-224854878D01*
X236976854Y-224854875D01*
X236984503Y-224850179D01*
X236992578Y-224841258D01*
X237065079Y-224761161D01*
X237065082Y-224761157D01*
X237071101Y-224754507D01*
X237127367Y-224638375D01*
X237129129Y-224627906D01*
X237132991Y-224604945D01*
X237164017Y-224541087D01*
X237224643Y-224504140D01*
X237259552Y-224499870D01*
X237356255Y-224501643D01*
X237418505Y-224484671D01*
X237472092Y-224470062D01*
X237472093Y-224470062D01*
X237480755Y-224467700D01*
X237488405Y-224463003D01*
X237488407Y-224463002D01*
X237583072Y-224404878D01*
X237583075Y-224404875D01*
X237590724Y-224400179D01*
X237596750Y-224393522D01*
X237671300Y-224311161D01*
X237671303Y-224311157D01*
X237677322Y-224304507D01*
X237733588Y-224188375D01*
X237739039Y-224155974D01*
X237770065Y-224092115D01*
X237830690Y-224055168D01*
X237865602Y-224050898D01*
X237874581Y-224051062D01*
X237906255Y-224051643D01*
X237988090Y-224029332D01*
X238022092Y-224020062D01*
X238022093Y-224020062D01*
X238030755Y-224017700D01*
X238038405Y-224013003D01*
X238038407Y-224013002D01*
X238133072Y-223954878D01*
X238133075Y-223954875D01*
X238140724Y-223950179D01*
X238148665Y-223941406D01*
X238221300Y-223861161D01*
X238221303Y-223861157D01*
X238227322Y-223854507D01*
X238283588Y-223738375D01*
X238289039Y-223705974D01*
X238320065Y-223642115D01*
X238380690Y-223605168D01*
X238415602Y-223600898D01*
X238424581Y-223601062D01*
X238456255Y-223601643D01*
X238532628Y-223580821D01*
X238572092Y-223570062D01*
X238572093Y-223570062D01*
X238580755Y-223567700D01*
X238588405Y-223563003D01*
X238588407Y-223563002D01*
X238683072Y-223504878D01*
X238683075Y-223504875D01*
X238690724Y-223500179D01*
X238713249Y-223475294D01*
X238771300Y-223411161D01*
X238771303Y-223411157D01*
X238777322Y-223404507D01*
X238833588Y-223288375D01*
X238835208Y-223278750D01*
X238854190Y-223165917D01*
X238854997Y-223161120D01*
X238855133Y-223150000D01*
X238845392Y-223081984D01*
X238838112Y-223031145D01*
X238838111Y-223031142D01*
X238836839Y-223022259D01*
X238819006Y-222983037D01*
X238787145Y-222912962D01*
X238787143Y-222912959D01*
X238783428Y-222904788D01*
X238731047Y-222843996D01*
X238701733Y-222779334D01*
X238700500Y-222761749D01*
X238700500Y-222294440D01*
X267644901Y-222294440D01*
X267651074Y-222341645D01*
X267651820Y-222349052D01*
X267655383Y-222399384D01*
X267658783Y-222408172D01*
X267659214Y-222410101D01*
X267660552Y-222414130D01*
X267661633Y-222422394D01*
X267668522Y-222438050D01*
X267682443Y-222469688D01*
X267684607Y-222474924D01*
X267704261Y-222525726D01*
X267710092Y-222533123D01*
X267711212Y-222535086D01*
X267711229Y-222535110D01*
X267713605Y-222540510D01*
X267749537Y-222583257D01*
X267751997Y-222586278D01*
X267788128Y-222632110D01*
X267794034Y-222636192D01*
X267796639Y-222639291D01*
X267803756Y-222644028D01*
X267803758Y-222644030D01*
X267846676Y-222672598D01*
X267848497Y-222673833D01*
X267899569Y-222709131D01*
X267903360Y-222710330D01*
X267904060Y-222710796D01*
X267909828Y-222712598D01*
X267909830Y-222712599D01*
X267925841Y-222717601D01*
X267967743Y-222730692D01*
X268028730Y-222749980D01*
X268035337Y-222750500D01*
X268092736Y-222750500D01*
X268095045Y-222750521D01*
X268147282Y-222751479D01*
X268147285Y-222751479D01*
X268156255Y-222751643D01*
X268159709Y-222750701D01*
X268162952Y-222750500D01*
X268411207Y-222750500D01*
X268479328Y-222770502D01*
X268500302Y-222787405D01*
X271225642Y-225512746D01*
X271259668Y-225575058D01*
X271254603Y-225645874D01*
X271212056Y-225702709D01*
X271162890Y-225722884D01*
X271163231Y-225724078D01*
X271047786Y-225757072D01*
X271047784Y-225757073D01*
X271039155Y-225759539D01*
X271031565Y-225764328D01*
X270954422Y-225813002D01*
X270930019Y-225828399D01*
X270924076Y-225835128D01*
X270924075Y-225835129D01*
X270897856Y-225864817D01*
X270844596Y-225925122D01*
X270840782Y-225933245D01*
X270840781Y-225933247D01*
X270821475Y-225974368D01*
X270789754Y-226041932D01*
X270783467Y-226082310D01*
X270771282Y-226160567D01*
X270771282Y-226160571D01*
X270769901Y-226169440D01*
X270771065Y-226178342D01*
X270771065Y-226178345D01*
X270785468Y-226288489D01*
X270785469Y-226288493D01*
X270786633Y-226297394D01*
X270805566Y-226340423D01*
X270817350Y-226367203D01*
X270838605Y-226415510D01*
X270844382Y-226422383D01*
X270844383Y-226422384D01*
X270890451Y-226477188D01*
X270921639Y-226514291D01*
X270929116Y-226519268D01*
X271019590Y-226579492D01*
X271029060Y-226585796D01*
X271117938Y-226613564D01*
X271140147Y-226620502D01*
X271152233Y-226624278D01*
X271161205Y-226624442D01*
X271161208Y-226624443D01*
X271198252Y-226625122D01*
X271200287Y-226625159D01*
X271268029Y-226646407D01*
X271287072Y-226662043D01*
X273912595Y-229287566D01*
X273946621Y-229349878D01*
X273949500Y-229376661D01*
X273949500Y-243041562D01*
X273937696Y-243094809D01*
X273928780Y-243113930D01*
X273927819Y-243124915D01*
X273920668Y-243206646D01*
X273918713Y-243228984D01*
X273948606Y-243340543D01*
X273954928Y-243349571D01*
X273954928Y-243349572D01*
X273974929Y-243378136D01*
X273998163Y-243411317D01*
X274002053Y-243415207D01*
X274610935Y-244024090D01*
X274618360Y-244032193D01*
X274642751Y-244061261D01*
X274652297Y-244066772D01*
X274652299Y-244066774D01*
X274675613Y-244080234D01*
X274684882Y-244086139D01*
X274715968Y-244107905D01*
X274726612Y-244110757D01*
X274729858Y-244112271D01*
X274733226Y-244113497D01*
X274742772Y-244119008D01*
X274777821Y-244125188D01*
X274780144Y-244125598D01*
X274790867Y-244127975D01*
X274827527Y-244137798D01*
X274838511Y-244136837D01*
X274838512Y-244136837D01*
X274865322Y-244134491D01*
X274876305Y-244134011D01*
X275854144Y-244134011D01*
X275922265Y-244154013D01*
X275968758Y-244207669D01*
X275978862Y-244277943D01*
X275949368Y-244342523D01*
X275933096Y-244358208D01*
X275861447Y-244415815D01*
X275729024Y-244573630D01*
X275726056Y-244579028D01*
X275726053Y-244579033D01*
X275643585Y-244729044D01*
X275629776Y-244754162D01*
X275567484Y-244950532D01*
X275544520Y-245155262D01*
X275561759Y-245360553D01*
X275563458Y-245366478D01*
X275601296Y-245498434D01*
X275618544Y-245558586D01*
X275621359Y-245564063D01*
X275621360Y-245564066D01*
X275642247Y-245604707D01*
X275712712Y-245741818D01*
X275840677Y-245903270D01*
X275997564Y-246036791D01*
X276177398Y-246137297D01*
X276242437Y-246158429D01*
X276301042Y-246198502D01*
X276328680Y-246263898D01*
X276316574Y-246333855D01*
X276268568Y-246386162D01*
X276242646Y-246398027D01*
X276076868Y-246452212D01*
X276067359Y-246456209D01*
X275878463Y-246554542D01*
X275869738Y-246560036D01*
X275699433Y-246687905D01*
X275691726Y-246694748D01*
X275544590Y-246848717D01*
X275538104Y-246856727D01*
X275418098Y-247032649D01*
X275413000Y-247041623D01*
X275323338Y-247234783D01*
X275319775Y-247244470D01*
X275264389Y-247444183D01*
X275265912Y-247452607D01*
X275278292Y-247456000D01*
X277918344Y-247456000D01*
X277931875Y-247452027D01*
X277933180Y-247442947D01*
X277891214Y-247275875D01*
X277887894Y-247266124D01*
X277802972Y-247070814D01*
X277798105Y-247061739D01*
X277682426Y-246882926D01*
X277676136Y-246874757D01*
X277532806Y-246717240D01*
X277525273Y-246710215D01*
X277358139Y-246578222D01*
X277349552Y-246572517D01*
X277163117Y-246469599D01*
X277153705Y-246465369D01*
X276962031Y-246397493D01*
X276904495Y-246355899D01*
X276878579Y-246289801D01*
X276892513Y-246220185D01*
X276941872Y-246169154D01*
X276970206Y-246157362D01*
X276975790Y-246155803D01*
X276975799Y-246155800D01*
X276981725Y-246154145D01*
X276987214Y-246151372D01*
X276987220Y-246151370D01*
X277160116Y-246064033D01*
X277165610Y-246061258D01*
X277327951Y-245934424D01*
X277462564Y-245778472D01*
X277483387Y-245741818D01*
X277561276Y-245604707D01*
X277564323Y-245599344D01*
X277569518Y-245583727D01*
X277610001Y-245525403D01*
X277675589Y-245498224D01*
X277689076Y-245497500D01*
X278010206Y-245497500D01*
X278021189Y-245497980D01*
X278047997Y-245500326D01*
X278047999Y-245500326D01*
X278058984Y-245501287D01*
X278069637Y-245498433D01*
X278074820Y-245497979D01*
X278085801Y-245497500D01*
X290910206Y-245497500D01*
X290921189Y-245497980D01*
X290947999Y-245500326D01*
X290948000Y-245500326D01*
X290958984Y-245501287D01*
X290995644Y-245491464D01*
X291006367Y-245489087D01*
X291008690Y-245488677D01*
X291043739Y-245482497D01*
X291053285Y-245476986D01*
X291056653Y-245475760D01*
X291059899Y-245474246D01*
X291070543Y-245471394D01*
X291101635Y-245449623D01*
X291110894Y-245443725D01*
X291134211Y-245430263D01*
X291143760Y-245424750D01*
X291168160Y-245395671D01*
X291175587Y-245387567D01*
X294517573Y-242045582D01*
X294525677Y-242038155D01*
X294546306Y-242020845D01*
X294554750Y-242013760D01*
X294573730Y-241980886D01*
X294579622Y-241971639D01*
X294601395Y-241940543D01*
X294604248Y-241929894D01*
X294605756Y-241926660D01*
X294606983Y-241923288D01*
X294612497Y-241913739D01*
X294619087Y-241876367D01*
X294621462Y-241865653D01*
X294631287Y-241828984D01*
X294627980Y-241791189D01*
X294627500Y-241780206D01*
X294627500Y-235719809D01*
X294627979Y-235708827D01*
X294630327Y-235681993D01*
X294630327Y-235681991D01*
X294631287Y-235671016D01*
X294621462Y-235634347D01*
X294619086Y-235623629D01*
X294618177Y-235618472D01*
X294612497Y-235586261D01*
X294606983Y-235576712D01*
X294605756Y-235573340D01*
X294604248Y-235570106D01*
X294601395Y-235559457D01*
X294579622Y-235528361D01*
X294573730Y-235519114D01*
X294554750Y-235486240D01*
X294525682Y-235461850D01*
X294517576Y-235454422D01*
X294064309Y-235001155D01*
X294030283Y-234938843D01*
X294029260Y-234895811D01*
X294028755Y-234895766D01*
X294029153Y-234891330D01*
X294029149Y-234891162D01*
X294029190Y-234890920D01*
X294029191Y-234890913D01*
X294029997Y-234886120D01*
X294030133Y-234875000D01*
X294022392Y-234820946D01*
X294013112Y-234756145D01*
X294013111Y-234756142D01*
X294011839Y-234747259D01*
X294006845Y-234736275D01*
X293962145Y-234637962D01*
X293962143Y-234637959D01*
X293958428Y-234629788D01*
X293930607Y-234597500D01*
X293880051Y-234538826D01*
X293880049Y-234538824D01*
X293874193Y-234532028D01*
X293765906Y-234461841D01*
X293757311Y-234459271D01*
X293757310Y-234459270D01*
X293650874Y-234427438D01*
X293650872Y-234427438D01*
X293642273Y-234424866D01*
X293633298Y-234424811D01*
X293633297Y-234424811D01*
X293578641Y-234424477D01*
X293513231Y-234424078D01*
X293501475Y-234427438D01*
X293397786Y-234457072D01*
X293397784Y-234457073D01*
X293389155Y-234459539D01*
X293381565Y-234464328D01*
X293298661Y-234516637D01*
X293280019Y-234528399D01*
X293274076Y-234535128D01*
X293274075Y-234535129D01*
X293256607Y-234554908D01*
X293196521Y-234592726D01*
X293162166Y-234597500D01*
X292794080Y-234597500D01*
X292726560Y-234576600D01*
X292722713Y-234572759D01*
X292620327Y-234527494D01*
X292594646Y-234524500D01*
X291292844Y-234524500D01*
X291224723Y-234504498D01*
X291178230Y-234450842D01*
X291168126Y-234380568D01*
X291197620Y-234315988D01*
X291203749Y-234309405D01*
X291431512Y-234081643D01*
X292581062Y-232932093D01*
X292589166Y-232924666D01*
X292609794Y-232907357D01*
X292618239Y-232900271D01*
X292637212Y-232867409D01*
X292643115Y-232858144D01*
X292658560Y-232836085D01*
X292658561Y-232836083D01*
X292664883Y-232827054D01*
X292667735Y-232816410D01*
X292669249Y-232813164D01*
X292670475Y-232809796D01*
X292675986Y-232800250D01*
X292682576Y-232762878D01*
X292684955Y-232752146D01*
X292686521Y-232746305D01*
X292694776Y-232715495D01*
X292691469Y-232677700D01*
X292690989Y-232666717D01*
X292690989Y-228049271D01*
X303496668Y-228049271D01*
X303496755Y-228053273D01*
X303496755Y-228053280D01*
X303503261Y-228351448D01*
X303503349Y-228355465D01*
X303548883Y-228658330D01*
X303549979Y-228662190D01*
X303549980Y-228662195D01*
X303586191Y-228789737D01*
X303632531Y-228952953D01*
X303752937Y-229234560D01*
X303908149Y-229498585D01*
X304095651Y-229740747D01*
X304312404Y-229957122D01*
X304315585Y-229959576D01*
X304315586Y-229959577D01*
X304551701Y-230141739D01*
X304551705Y-230141742D01*
X304554894Y-230144202D01*
X304558373Y-230146239D01*
X304788347Y-230280894D01*
X304819189Y-230298953D01*
X304822874Y-230300521D01*
X304822878Y-230300523D01*
X304942666Y-230351493D01*
X305101006Y-230418867D01*
X305395775Y-230502001D01*
X305616337Y-230534768D01*
X305695419Y-230546516D01*
X305695421Y-230546516D01*
X305698718Y-230547006D01*
X305702049Y-230547146D01*
X305702053Y-230547146D01*
X305738737Y-230548683D01*
X305782084Y-230550500D01*
X305977474Y-230550500D01*
X306100915Y-230542626D01*
X306201639Y-230536201D01*
X306201644Y-230536200D01*
X306205647Y-230535945D01*
X306209584Y-230535183D01*
X306209586Y-230535183D01*
X306502401Y-230478530D01*
X306502405Y-230478529D01*
X306506338Y-230477768D01*
X306797200Y-230381856D01*
X307073518Y-230249763D01*
X307330812Y-230083631D01*
X307359327Y-230059577D01*
X307484142Y-229954286D01*
X307564910Y-229886152D01*
X307772019Y-229660529D01*
X307948780Y-229410418D01*
X308092328Y-229139874D01*
X308094997Y-229132792D01*
X308198919Y-228857044D01*
X308198921Y-228857038D01*
X308200336Y-228853283D01*
X308221952Y-228762195D01*
X308270124Y-228559207D01*
X308270125Y-228559202D01*
X308271053Y-228555291D01*
X308303332Y-228250729D01*
X308303084Y-228239323D01*
X308296739Y-227948552D01*
X308296739Y-227948547D01*
X308296651Y-227944535D01*
X308295689Y-227938133D01*
X308291195Y-227908244D01*
X308251117Y-227641670D01*
X308249195Y-227634898D01*
X308196699Y-227450000D01*
X308167469Y-227347047D01*
X308164468Y-227340027D01*
X308127866Y-227254424D01*
X308047063Y-227065440D01*
X307891851Y-226801415D01*
X307704349Y-226559253D01*
X307545724Y-226400905D01*
X307490437Y-226345714D01*
X307487596Y-226342878D01*
X307456589Y-226318956D01*
X307248299Y-226158261D01*
X307248295Y-226158258D01*
X307245106Y-226155798D01*
X307208834Y-226134560D01*
X306984275Y-226003075D01*
X306984272Y-226003073D01*
X306980811Y-226001047D01*
X306977126Y-225999479D01*
X306977122Y-225999477D01*
X306786563Y-225918394D01*
X306698994Y-225881133D01*
X306404225Y-225797999D01*
X306160834Y-225761841D01*
X306104581Y-225753484D01*
X306104579Y-225753484D01*
X306101282Y-225752994D01*
X306097951Y-225752854D01*
X306097947Y-225752854D01*
X306061263Y-225751317D01*
X306017916Y-225749500D01*
X305822526Y-225749500D01*
X305703823Y-225757072D01*
X305598361Y-225763799D01*
X305598356Y-225763800D01*
X305594353Y-225764055D01*
X305590416Y-225764817D01*
X305590414Y-225764817D01*
X305297599Y-225821470D01*
X305297595Y-225821471D01*
X305293662Y-225822232D01*
X305002800Y-225918144D01*
X304726482Y-226050237D01*
X304723112Y-226052413D01*
X304516036Y-226186120D01*
X304469188Y-226216369D01*
X304466123Y-226218954D01*
X304466121Y-226218956D01*
X304373637Y-226296973D01*
X304235090Y-226413848D01*
X304089199Y-226572781D01*
X304041119Y-226625159D01*
X304027981Y-226639471D01*
X304025667Y-226642746D01*
X304025664Y-226642749D01*
X304003288Y-226674411D01*
X303851220Y-226889582D01*
X303744468Y-227090777D01*
X303711099Y-227153668D01*
X303707672Y-227160126D01*
X303706257Y-227163882D01*
X303706256Y-227163883D01*
X303614200Y-227408148D01*
X303599664Y-227446717D01*
X303598735Y-227450632D01*
X303534638Y-227720729D01*
X303528947Y-227744709D01*
X303496668Y-228049271D01*
X292690989Y-228049271D01*
X292690989Y-227786385D01*
X292710991Y-227718264D01*
X292764647Y-227671771D01*
X292834921Y-227661667D01*
X292880559Y-227677597D01*
X292946756Y-227716279D01*
X292956042Y-227720729D01*
X293155001Y-227796703D01*
X293164899Y-227799579D01*
X293373595Y-227842038D01*
X293383823Y-227843257D01*
X293596650Y-227851062D01*
X293606936Y-227850595D01*
X293818185Y-227823534D01*
X293828262Y-227821392D01*
X294032255Y-227760191D01*
X294041842Y-227756433D01*
X294233098Y-227662738D01*
X294241944Y-227657465D01*
X294289247Y-227623723D01*
X294297648Y-227613023D01*
X294290660Y-227599870D01*
X293269885Y-226579095D01*
X293235859Y-226516783D01*
X293237694Y-226491132D01*
X293904408Y-226491132D01*
X293904539Y-226492965D01*
X293908790Y-226499580D01*
X294650474Y-227241264D01*
X294662484Y-227247823D01*
X294674223Y-227238855D01*
X294705004Y-227196019D01*
X294710315Y-227187180D01*
X294804670Y-226996267D01*
X294808469Y-226986672D01*
X294870376Y-226782915D01*
X294872555Y-226772834D01*
X294900590Y-226559887D01*
X294901109Y-226553212D01*
X294902572Y-226493364D01*
X294902378Y-226486646D01*
X294884781Y-226272604D01*
X294883096Y-226262424D01*
X294831214Y-226055875D01*
X294827894Y-226046124D01*
X294742972Y-225850814D01*
X294738105Y-225841739D01*
X294673063Y-225741197D01*
X294662377Y-225731995D01*
X294652812Y-225736398D01*
X293912022Y-226477188D01*
X293904408Y-226491132D01*
X293237694Y-226491132D01*
X293240924Y-226445968D01*
X293269885Y-226400905D01*
X294293389Y-225377401D01*
X294300410Y-225364544D01*
X294293611Y-225355213D01*
X294289554Y-225352518D01*
X294103117Y-225249599D01*
X294093705Y-225245369D01*
X293902031Y-225177493D01*
X293844495Y-225135899D01*
X293818579Y-225069801D01*
X293832513Y-225000185D01*
X293881872Y-224949154D01*
X293910206Y-224937362D01*
X293915790Y-224935803D01*
X293915799Y-224935800D01*
X293921725Y-224934145D01*
X293927214Y-224931372D01*
X293927220Y-224931370D01*
X294078647Y-224854878D01*
X294105610Y-224841258D01*
X294112045Y-224836231D01*
X294195848Y-224770757D01*
X294267951Y-224714424D01*
X294303415Y-224673339D01*
X294398540Y-224563134D01*
X294398540Y-224563133D01*
X294402564Y-224558472D01*
X294408497Y-224548029D01*
X294456599Y-224463354D01*
X294504323Y-224379344D01*
X294569351Y-224183863D01*
X294595171Y-223979474D01*
X294595583Y-223950000D01*
X294575480Y-223744970D01*
X294515935Y-223547749D01*
X294419218Y-223365849D01*
X294324641Y-223249886D01*
X294292906Y-223210975D01*
X294292903Y-223210972D01*
X294289011Y-223206200D01*
X294271230Y-223191490D01*
X294135025Y-223078811D01*
X294135021Y-223078809D01*
X294130275Y-223074882D01*
X293949055Y-222976897D01*
X293752254Y-222915977D01*
X293746129Y-222915333D01*
X293746128Y-222915333D01*
X293553498Y-222895087D01*
X293553496Y-222895087D01*
X293547369Y-222894443D01*
X293460529Y-222902346D01*
X293348342Y-222912555D01*
X293348339Y-222912556D01*
X293342203Y-222913114D01*
X293144572Y-222971280D01*
X293139107Y-222974137D01*
X293128223Y-222979827D01*
X292962002Y-223066726D01*
X292957201Y-223070586D01*
X292957198Y-223070588D01*
X292813505Y-223186120D01*
X292801447Y-223195815D01*
X292669024Y-223353630D01*
X292666056Y-223359028D01*
X292666053Y-223359033D01*
X292631226Y-223422384D01*
X292569776Y-223534162D01*
X292507484Y-223730532D01*
X292506798Y-223736649D01*
X292506797Y-223736653D01*
X292497125Y-223822885D01*
X292484520Y-223935262D01*
X292486053Y-223953522D01*
X292498598Y-224102905D01*
X292501759Y-224140553D01*
X292503458Y-224146478D01*
X292555626Y-224328408D01*
X292558544Y-224338586D01*
X292561360Y-224344065D01*
X292563630Y-224349799D01*
X292562088Y-224350409D01*
X292573925Y-224412297D01*
X292547446Y-224478171D01*
X292537608Y-224489238D01*
X292145922Y-224880924D01*
X292137818Y-224888351D01*
X292108739Y-224912751D01*
X292103226Y-224922300D01*
X292089764Y-224945617D01*
X292083866Y-224954876D01*
X292062095Y-224985968D01*
X292059243Y-224996612D01*
X292057729Y-224999858D01*
X292056503Y-225003226D01*
X292050992Y-225012772D01*
X292045827Y-225042065D01*
X292044402Y-225050144D01*
X292042025Y-225060867D01*
X292032202Y-225097527D01*
X292033163Y-225108510D01*
X292035509Y-225135322D01*
X292035989Y-225146305D01*
X292035989Y-225744220D01*
X292015987Y-225812341D01*
X291962331Y-225858834D01*
X291892057Y-225868938D01*
X291827477Y-225839444D01*
X291812346Y-225823856D01*
X291752906Y-225750975D01*
X291752903Y-225750972D01*
X291749011Y-225746200D01*
X291743868Y-225741945D01*
X291595025Y-225618811D01*
X291595021Y-225618809D01*
X291590275Y-225614882D01*
X291409055Y-225516897D01*
X291212254Y-225455977D01*
X291206129Y-225455333D01*
X291206128Y-225455333D01*
X291013498Y-225435087D01*
X291013496Y-225435087D01*
X291007369Y-225434443D01*
X290920529Y-225442346D01*
X290808342Y-225452555D01*
X290808339Y-225452556D01*
X290802203Y-225453114D01*
X290604572Y-225511280D01*
X290599107Y-225514137D01*
X290597313Y-225515075D01*
X290422002Y-225606726D01*
X290417201Y-225610586D01*
X290417198Y-225610588D01*
X290275065Y-225724866D01*
X290261447Y-225735815D01*
X290129024Y-225893630D01*
X290126056Y-225899028D01*
X290126053Y-225899033D01*
X290040377Y-226054878D01*
X290029776Y-226074162D01*
X289967484Y-226270532D01*
X289966798Y-226276649D01*
X289966797Y-226276653D01*
X289951222Y-226415510D01*
X289944520Y-226475262D01*
X289947029Y-226505146D01*
X289960205Y-226662043D01*
X289961759Y-226680553D01*
X289963458Y-226686478D01*
X289996416Y-226801415D01*
X290018544Y-226878586D01*
X290021359Y-226884063D01*
X290021360Y-226884066D01*
X290109518Y-227055604D01*
X290112712Y-227061818D01*
X290240677Y-227223270D01*
X290245370Y-227227264D01*
X290245371Y-227227265D01*
X290392372Y-227352372D01*
X290397564Y-227356791D01*
X290402942Y-227359797D01*
X290402944Y-227359798D01*
X290469973Y-227397259D01*
X290577398Y-227457297D01*
X290672238Y-227488113D01*
X290767471Y-227519056D01*
X290767475Y-227519057D01*
X290773329Y-227520959D01*
X290977894Y-227545351D01*
X290984029Y-227544879D01*
X290984031Y-227544879D01*
X291040039Y-227540569D01*
X291183300Y-227529546D01*
X291189230Y-227527890D01*
X291189232Y-227527890D01*
X291327499Y-227489285D01*
X291381725Y-227474145D01*
X291387214Y-227471372D01*
X291387220Y-227471370D01*
X291544313Y-227392016D01*
X291565610Y-227381258D01*
X291570514Y-227377427D01*
X291695486Y-227279788D01*
X291727951Y-227254424D01*
X291759012Y-227218439D01*
X291814607Y-227154032D01*
X291874260Y-227115534D01*
X291945256Y-227115398D01*
X292005056Y-227153668D01*
X292034672Y-227218192D01*
X292035989Y-227236362D01*
X292035989Y-232498666D01*
X292015987Y-232566787D01*
X291999084Y-232587761D01*
X289732433Y-234854413D01*
X289724329Y-234861840D01*
X289695250Y-234886240D01*
X289689737Y-234895789D01*
X289676275Y-234919106D01*
X289670377Y-234928365D01*
X289648606Y-234959457D01*
X289645754Y-234970101D01*
X289644240Y-234973347D01*
X289643014Y-234976715D01*
X289637503Y-234986261D01*
X289635589Y-234997117D01*
X289630913Y-235023633D01*
X289628536Y-235034356D01*
X289618713Y-235071016D01*
X289619674Y-235081999D01*
X289622020Y-235108811D01*
X289622500Y-235119794D01*
X289622500Y-236312154D01*
X289602498Y-236380275D01*
X289585596Y-236401249D01*
X288851251Y-237135595D01*
X288788938Y-237169620D01*
X288762155Y-237172500D01*
X287249222Y-237172500D01*
X287181101Y-237152498D01*
X287134608Y-237098842D01*
X287124070Y-237031908D01*
X287125500Y-237019646D01*
X287125500Y-236730354D01*
X287122382Y-236704154D01*
X287123183Y-236704059D01*
X287124277Y-236640912D01*
X287163690Y-236581860D01*
X287228772Y-236553491D01*
X287244540Y-236552500D01*
X287955206Y-236552500D01*
X287966189Y-236552980D01*
X287992999Y-236555326D01*
X287993000Y-236555326D01*
X288003984Y-236556287D01*
X288040644Y-236546464D01*
X288051367Y-236544087D01*
X288053690Y-236543677D01*
X288088739Y-236537497D01*
X288098285Y-236531986D01*
X288101653Y-236530760D01*
X288104899Y-236529246D01*
X288115543Y-236526394D01*
X288146635Y-236504623D01*
X288155894Y-236498725D01*
X288179211Y-236485263D01*
X288188760Y-236479750D01*
X288213155Y-236450677D01*
X288220581Y-236442573D01*
X288617579Y-236045576D01*
X288625683Y-236038150D01*
X288646306Y-236020845D01*
X288654750Y-236013760D01*
X288673730Y-235980886D01*
X288679622Y-235971639D01*
X288701395Y-235940543D01*
X288704248Y-235929894D01*
X288705756Y-235926660D01*
X288706983Y-235923288D01*
X288712497Y-235913739D01*
X288719087Y-235876367D01*
X288721462Y-235865653D01*
X288731287Y-235828984D01*
X288727980Y-235791189D01*
X288727500Y-235780206D01*
X288727500Y-232619797D01*
X288727979Y-232608815D01*
X288730326Y-232581993D01*
X288730326Y-232581991D01*
X288731286Y-232571016D01*
X288721464Y-232534358D01*
X288719088Y-232523640D01*
X288714412Y-232497118D01*
X288714411Y-232497115D01*
X288712497Y-232486261D01*
X288706984Y-232476713D01*
X288705763Y-232473358D01*
X288704248Y-232470108D01*
X288701394Y-232459457D01*
X288679628Y-232428371D01*
X288673723Y-232419102D01*
X288660263Y-232395788D01*
X288660261Y-232395786D01*
X288654750Y-232386240D01*
X288625677Y-232361845D01*
X288617573Y-232354418D01*
X285095587Y-228832433D01*
X285088160Y-228824329D01*
X285070846Y-228803695D01*
X285063760Y-228795250D01*
X285030895Y-228776275D01*
X285021635Y-228770377D01*
X284990543Y-228748606D01*
X284979899Y-228745754D01*
X284976653Y-228744240D01*
X284973285Y-228743014D01*
X284963739Y-228737503D01*
X284926368Y-228730913D01*
X284915644Y-228728536D01*
X284878984Y-228718713D01*
X284868000Y-228719674D01*
X284867999Y-228719674D01*
X284841189Y-228722020D01*
X284830206Y-228722500D01*
X284437846Y-228722500D01*
X284369725Y-228702498D01*
X284348751Y-228685596D01*
X283744405Y-228081251D01*
X283710380Y-228018938D01*
X283707500Y-227992155D01*
X283707500Y-227579052D01*
X283727502Y-227510931D01*
X283776690Y-227466586D01*
X283940112Y-227384036D01*
X283940118Y-227384032D01*
X283945610Y-227381258D01*
X283950514Y-227377427D01*
X284075486Y-227279788D01*
X284107951Y-227254424D01*
X284119311Y-227241264D01*
X284238540Y-227103134D01*
X284238540Y-227103133D01*
X284242564Y-227098472D01*
X284246936Y-227090777D01*
X284291349Y-227012595D01*
X284344323Y-226919344D01*
X284409351Y-226723863D01*
X284435171Y-226519474D01*
X284435583Y-226490000D01*
X284415480Y-226284970D01*
X284355935Y-226087749D01*
X284259218Y-225905849D01*
X284183494Y-225813002D01*
X284132906Y-225750975D01*
X284132903Y-225750972D01*
X284129011Y-225746200D01*
X284123868Y-225741945D01*
X283975025Y-225618811D01*
X283975021Y-225618809D01*
X283970275Y-225614882D01*
X283789055Y-225516897D01*
X283592254Y-225455977D01*
X283586129Y-225455333D01*
X283586128Y-225455333D01*
X283393498Y-225435087D01*
X283393496Y-225435087D01*
X283387369Y-225434443D01*
X283300529Y-225442346D01*
X283188342Y-225452555D01*
X283188339Y-225452556D01*
X283182203Y-225453114D01*
X282984572Y-225511280D01*
X282979107Y-225514137D01*
X282977313Y-225515075D01*
X282802002Y-225606726D01*
X282797201Y-225610586D01*
X282797198Y-225610588D01*
X282655065Y-225724866D01*
X282641447Y-225735815D01*
X282600020Y-225785186D01*
X282540911Y-225824511D01*
X282469924Y-225825637D01*
X282409596Y-225788205D01*
X282379083Y-225724100D01*
X282377500Y-225704193D01*
X282377500Y-225467844D01*
X282397502Y-225399723D01*
X282414405Y-225378749D01*
X282841256Y-224951898D01*
X282903568Y-224917872D01*
X282969287Y-224921160D01*
X283147471Y-224979056D01*
X283147475Y-224979057D01*
X283153329Y-224980959D01*
X283357894Y-225005351D01*
X283364029Y-225004879D01*
X283364031Y-225004879D01*
X283424565Y-225000221D01*
X283563300Y-224989546D01*
X283569230Y-224987890D01*
X283569232Y-224987890D01*
X283707524Y-224949278D01*
X283761725Y-224934145D01*
X283767214Y-224931372D01*
X283767220Y-224931370D01*
X283918647Y-224854878D01*
X283945610Y-224841258D01*
X283952045Y-224836231D01*
X284025438Y-224778890D01*
X284091432Y-224752713D01*
X284161103Y-224766371D01*
X284212330Y-224815527D01*
X284229011Y-224878180D01*
X284229011Y-225106717D01*
X284228531Y-225117700D01*
X284225224Y-225155495D01*
X284233901Y-225187875D01*
X284235045Y-225192146D01*
X284237424Y-225202878D01*
X284244014Y-225240250D01*
X284249525Y-225249796D01*
X284250751Y-225253164D01*
X284252265Y-225256410D01*
X284255117Y-225267054D01*
X284276888Y-225298146D01*
X284282786Y-225307405D01*
X284284666Y-225310661D01*
X284301761Y-225340271D01*
X284319568Y-225355213D01*
X284330833Y-225364665D01*
X284338937Y-225372092D01*
X284917576Y-225950731D01*
X284951602Y-226013043D01*
X284948583Y-226077922D01*
X284887484Y-226270532D01*
X284886798Y-226276649D01*
X284886797Y-226276653D01*
X284871222Y-226415510D01*
X284864520Y-226475262D01*
X284867029Y-226505146D01*
X284880205Y-226662043D01*
X284881759Y-226680553D01*
X284883458Y-226686478D01*
X284916416Y-226801415D01*
X284938544Y-226878586D01*
X284941359Y-226884063D01*
X284941360Y-226884066D01*
X285029518Y-227055604D01*
X285032712Y-227061818D01*
X285160677Y-227223270D01*
X285165370Y-227227264D01*
X285165371Y-227227265D01*
X285312372Y-227352372D01*
X285317564Y-227356791D01*
X285322942Y-227359797D01*
X285322944Y-227359798D01*
X285389973Y-227397259D01*
X285497398Y-227457297D01*
X285592238Y-227488113D01*
X285687471Y-227519056D01*
X285687475Y-227519057D01*
X285693329Y-227520959D01*
X285897894Y-227545351D01*
X285904029Y-227544879D01*
X285904031Y-227544879D01*
X285960039Y-227540569D01*
X286103300Y-227529546D01*
X286109230Y-227527890D01*
X286109232Y-227527890D01*
X286247499Y-227489285D01*
X286301725Y-227474145D01*
X286307214Y-227471372D01*
X286307220Y-227471370D01*
X286464313Y-227392016D01*
X286485610Y-227381258D01*
X286490514Y-227377427D01*
X286615486Y-227279788D01*
X286647951Y-227254424D01*
X286659311Y-227241264D01*
X286778540Y-227103134D01*
X286778540Y-227103133D01*
X286782564Y-227098472D01*
X286786936Y-227090777D01*
X286831349Y-227012595D01*
X286884323Y-226919344D01*
X286949351Y-226723863D01*
X286975171Y-226519474D01*
X286975583Y-226490000D01*
X286974138Y-226475262D01*
X287404520Y-226475262D01*
X287407029Y-226505146D01*
X287420205Y-226662043D01*
X287421759Y-226680553D01*
X287423458Y-226686478D01*
X287456416Y-226801415D01*
X287478544Y-226878586D01*
X287481359Y-226884063D01*
X287481360Y-226884066D01*
X287569518Y-227055604D01*
X287572712Y-227061818D01*
X287700677Y-227223270D01*
X287705370Y-227227264D01*
X287705371Y-227227265D01*
X287852372Y-227352372D01*
X287857564Y-227356791D01*
X287862942Y-227359797D01*
X287862944Y-227359798D01*
X287929973Y-227397259D01*
X288037398Y-227457297D01*
X288132238Y-227488113D01*
X288227471Y-227519056D01*
X288227475Y-227519057D01*
X288233329Y-227520959D01*
X288437894Y-227545351D01*
X288444029Y-227544879D01*
X288444031Y-227544879D01*
X288500039Y-227540569D01*
X288643300Y-227529546D01*
X288649230Y-227527890D01*
X288649232Y-227527890D01*
X288787499Y-227489285D01*
X288841725Y-227474145D01*
X288847214Y-227471372D01*
X288847220Y-227471370D01*
X289004313Y-227392016D01*
X289025610Y-227381258D01*
X289030514Y-227377427D01*
X289155486Y-227279788D01*
X289187951Y-227254424D01*
X289199311Y-227241264D01*
X289318540Y-227103134D01*
X289318540Y-227103133D01*
X289322564Y-227098472D01*
X289326936Y-227090777D01*
X289371349Y-227012595D01*
X289424323Y-226919344D01*
X289489351Y-226723863D01*
X289515171Y-226519474D01*
X289515583Y-226490000D01*
X289495480Y-226284970D01*
X289435935Y-226087749D01*
X289339218Y-225905849D01*
X289263494Y-225813002D01*
X289212906Y-225750975D01*
X289212903Y-225750972D01*
X289209011Y-225746200D01*
X289203868Y-225741945D01*
X289055025Y-225618811D01*
X289055021Y-225618809D01*
X289050275Y-225614882D01*
X288869055Y-225516897D01*
X288672254Y-225455977D01*
X288666129Y-225455333D01*
X288666128Y-225455333D01*
X288473498Y-225435087D01*
X288473496Y-225435087D01*
X288467369Y-225434443D01*
X288380529Y-225442346D01*
X288268342Y-225452555D01*
X288268339Y-225452556D01*
X288262203Y-225453114D01*
X288064572Y-225511280D01*
X288059107Y-225514137D01*
X288057313Y-225515075D01*
X287882002Y-225606726D01*
X287877201Y-225610586D01*
X287877198Y-225610588D01*
X287735065Y-225724866D01*
X287721447Y-225735815D01*
X287589024Y-225893630D01*
X287586056Y-225899028D01*
X287586053Y-225899033D01*
X287500377Y-226054878D01*
X287489776Y-226074162D01*
X287427484Y-226270532D01*
X287426798Y-226276649D01*
X287426797Y-226276653D01*
X287411222Y-226415510D01*
X287404520Y-226475262D01*
X286974138Y-226475262D01*
X286955480Y-226284970D01*
X286895935Y-226087749D01*
X286799218Y-225905849D01*
X286723494Y-225813002D01*
X286672906Y-225750975D01*
X286672903Y-225750972D01*
X286669011Y-225746200D01*
X286663868Y-225741945D01*
X286515025Y-225618811D01*
X286515021Y-225618809D01*
X286510275Y-225614882D01*
X286329055Y-225516897D01*
X286132254Y-225455977D01*
X286126129Y-225455333D01*
X286126128Y-225455333D01*
X285933498Y-225435087D01*
X285933496Y-225435087D01*
X285927369Y-225434443D01*
X285840529Y-225442346D01*
X285728342Y-225452555D01*
X285728339Y-225452556D01*
X285722203Y-225453114D01*
X285686755Y-225463547D01*
X285530480Y-225509541D01*
X285530478Y-225509542D01*
X285524572Y-225511280D01*
X285519113Y-225514134D01*
X285516794Y-225515071D01*
X285446141Y-225522046D01*
X285380496Y-225487342D01*
X284920916Y-225027762D01*
X284886890Y-224965450D01*
X284884011Y-224938667D01*
X284884011Y-224696027D01*
X284904013Y-224627906D01*
X284957669Y-224581413D01*
X285027943Y-224571309D01*
X285092523Y-224600803D01*
X285108756Y-224617762D01*
X285160677Y-224683270D01*
X285165370Y-224687264D01*
X285165371Y-224687265D01*
X285298030Y-224800166D01*
X285317564Y-224816791D01*
X285322942Y-224819797D01*
X285322944Y-224819798D01*
X285396980Y-224861175D01*
X285497398Y-224917297D01*
X285563168Y-224938667D01*
X285687471Y-224979056D01*
X285687475Y-224979057D01*
X285693329Y-224980959D01*
X285897894Y-225005351D01*
X285904029Y-225004879D01*
X285904031Y-225004879D01*
X285964565Y-225000221D01*
X286103300Y-224989546D01*
X286109230Y-224987890D01*
X286109232Y-224987890D01*
X286247524Y-224949278D01*
X286301725Y-224934145D01*
X286307214Y-224931372D01*
X286307220Y-224931370D01*
X286458647Y-224854878D01*
X286485610Y-224841258D01*
X286492045Y-224836231D01*
X286575848Y-224770757D01*
X286647951Y-224714424D01*
X286683415Y-224673339D01*
X286778540Y-224563134D01*
X286778540Y-224563133D01*
X286782564Y-224558472D01*
X286788497Y-224548029D01*
X286836599Y-224463354D01*
X286884323Y-224379344D01*
X286949351Y-224183863D01*
X286975171Y-223979474D01*
X286975583Y-223950000D01*
X286974138Y-223935262D01*
X287404520Y-223935262D01*
X287406053Y-223953522D01*
X287418598Y-224102905D01*
X287421759Y-224140553D01*
X287423458Y-224146478D01*
X287475626Y-224328408D01*
X287478544Y-224338586D01*
X287481359Y-224344063D01*
X287481360Y-224344066D01*
X287565737Y-224508247D01*
X287572712Y-224521818D01*
X287700677Y-224683270D01*
X287705370Y-224687264D01*
X287705371Y-224687265D01*
X287838030Y-224800166D01*
X287857564Y-224816791D01*
X287862942Y-224819797D01*
X287862944Y-224819798D01*
X287936980Y-224861175D01*
X288037398Y-224917297D01*
X288103168Y-224938667D01*
X288227471Y-224979056D01*
X288227475Y-224979057D01*
X288233329Y-224980959D01*
X288437894Y-225005351D01*
X288444029Y-225004879D01*
X288444031Y-225004879D01*
X288504565Y-225000221D01*
X288643300Y-224989546D01*
X288649230Y-224987890D01*
X288649232Y-224987890D01*
X288787524Y-224949278D01*
X288841725Y-224934145D01*
X288847214Y-224931372D01*
X288847220Y-224931370D01*
X288998647Y-224854878D01*
X289025610Y-224841258D01*
X289032045Y-224836231D01*
X289115848Y-224770757D01*
X289187951Y-224714424D01*
X289223415Y-224673339D01*
X289318540Y-224563134D01*
X289318540Y-224563133D01*
X289322564Y-224558472D01*
X289328497Y-224548029D01*
X289376599Y-224463354D01*
X289424323Y-224379344D01*
X289489351Y-224183863D01*
X289515171Y-223979474D01*
X289515583Y-223950000D01*
X289514138Y-223935262D01*
X289944520Y-223935262D01*
X289946053Y-223953522D01*
X289958598Y-224102905D01*
X289961759Y-224140553D01*
X289963458Y-224146478D01*
X290015626Y-224328408D01*
X290018544Y-224338586D01*
X290021359Y-224344063D01*
X290021360Y-224344066D01*
X290105737Y-224508247D01*
X290112712Y-224521818D01*
X290240677Y-224683270D01*
X290245370Y-224687264D01*
X290245371Y-224687265D01*
X290378030Y-224800166D01*
X290397564Y-224816791D01*
X290402942Y-224819797D01*
X290402944Y-224819798D01*
X290476980Y-224861175D01*
X290577398Y-224917297D01*
X290643168Y-224938667D01*
X290767471Y-224979056D01*
X290767475Y-224979057D01*
X290773329Y-224980959D01*
X290977894Y-225005351D01*
X290984029Y-225004879D01*
X290984031Y-225004879D01*
X291044565Y-225000221D01*
X291183300Y-224989546D01*
X291189230Y-224987890D01*
X291189232Y-224987890D01*
X291327524Y-224949278D01*
X291381725Y-224934145D01*
X291387214Y-224931372D01*
X291387220Y-224931370D01*
X291538647Y-224854878D01*
X291565610Y-224841258D01*
X291572045Y-224836231D01*
X291655848Y-224770757D01*
X291727951Y-224714424D01*
X291763415Y-224673339D01*
X291858540Y-224563134D01*
X291858540Y-224563133D01*
X291862564Y-224558472D01*
X291868497Y-224548029D01*
X291916599Y-224463354D01*
X291964323Y-224379344D01*
X292029351Y-224183863D01*
X292055171Y-223979474D01*
X292055583Y-223950000D01*
X292035480Y-223744970D01*
X291975935Y-223547749D01*
X291879218Y-223365849D01*
X291784641Y-223249886D01*
X291752906Y-223210975D01*
X291752903Y-223210972D01*
X291749011Y-223206200D01*
X291731230Y-223191490D01*
X291595025Y-223078811D01*
X291595021Y-223078809D01*
X291590275Y-223074882D01*
X291409055Y-222976897D01*
X291212254Y-222915977D01*
X291206129Y-222915333D01*
X291206128Y-222915333D01*
X291013498Y-222895087D01*
X291013496Y-222895087D01*
X291007369Y-222894443D01*
X290920529Y-222902346D01*
X290808342Y-222912555D01*
X290808339Y-222912556D01*
X290802203Y-222913114D01*
X290604572Y-222971280D01*
X290599107Y-222974137D01*
X290588223Y-222979827D01*
X290422002Y-223066726D01*
X290417201Y-223070586D01*
X290417198Y-223070588D01*
X290273505Y-223186120D01*
X290261447Y-223195815D01*
X290129024Y-223353630D01*
X290126056Y-223359028D01*
X290126053Y-223359033D01*
X290091226Y-223422384D01*
X290029776Y-223534162D01*
X289967484Y-223730532D01*
X289966798Y-223736649D01*
X289966797Y-223736653D01*
X289957125Y-223822885D01*
X289944520Y-223935262D01*
X289514138Y-223935262D01*
X289495480Y-223744970D01*
X289435935Y-223547749D01*
X289339218Y-223365849D01*
X289244641Y-223249886D01*
X289212906Y-223210975D01*
X289212903Y-223210972D01*
X289209011Y-223206200D01*
X289191230Y-223191490D01*
X289055025Y-223078811D01*
X289055021Y-223078809D01*
X289050275Y-223074882D01*
X288869055Y-222976897D01*
X288672254Y-222915977D01*
X288666129Y-222915333D01*
X288666128Y-222915333D01*
X288473498Y-222895087D01*
X288473496Y-222895087D01*
X288467369Y-222894443D01*
X288380529Y-222902346D01*
X288268342Y-222912555D01*
X288268339Y-222912556D01*
X288262203Y-222913114D01*
X288064572Y-222971280D01*
X288059107Y-222974137D01*
X288048223Y-222979827D01*
X287882002Y-223066726D01*
X287877201Y-223070586D01*
X287877198Y-223070588D01*
X287733505Y-223186120D01*
X287721447Y-223195815D01*
X287589024Y-223353630D01*
X287586056Y-223359028D01*
X287586053Y-223359033D01*
X287551226Y-223422384D01*
X287489776Y-223534162D01*
X287427484Y-223730532D01*
X287426798Y-223736649D01*
X287426797Y-223736653D01*
X287417125Y-223822885D01*
X287404520Y-223935262D01*
X286974138Y-223935262D01*
X286955480Y-223744970D01*
X286895935Y-223547749D01*
X286799218Y-223365849D01*
X286704641Y-223249886D01*
X286672906Y-223210975D01*
X286672903Y-223210972D01*
X286669011Y-223206200D01*
X286651230Y-223191490D01*
X286515025Y-223078811D01*
X286515021Y-223078809D01*
X286510275Y-223074882D01*
X286329055Y-222976897D01*
X286132254Y-222915977D01*
X286126129Y-222915333D01*
X286126128Y-222915333D01*
X285933498Y-222895087D01*
X285933496Y-222895087D01*
X285927369Y-222894443D01*
X285840529Y-222902346D01*
X285728342Y-222912555D01*
X285728339Y-222912556D01*
X285722203Y-222913114D01*
X285524572Y-222971280D01*
X285519107Y-222974137D01*
X285508223Y-222979827D01*
X285342002Y-223066726D01*
X285337201Y-223070586D01*
X285337198Y-223070588D01*
X285193505Y-223186120D01*
X285181447Y-223195815D01*
X285106531Y-223285097D01*
X285047423Y-223324422D01*
X284976435Y-223325548D01*
X284916108Y-223288117D01*
X284885594Y-223224012D01*
X284884011Y-223204104D01*
X284884011Y-222776320D01*
X284884490Y-222765338D01*
X284886838Y-222738504D01*
X284886838Y-222738502D01*
X284887798Y-222727527D01*
X284877973Y-222690858D01*
X284875597Y-222680140D01*
X284875167Y-222677701D01*
X284869008Y-222642772D01*
X284863495Y-222633224D01*
X284862267Y-222629850D01*
X284860759Y-222626615D01*
X284857906Y-222615968D01*
X284836133Y-222584872D01*
X284830241Y-222575625D01*
X284811261Y-222542751D01*
X284782188Y-222518356D01*
X284774084Y-222510929D01*
X283795587Y-221532433D01*
X283788160Y-221524329D01*
X283770846Y-221503695D01*
X283763760Y-221495250D01*
X283730895Y-221476275D01*
X283721630Y-221470374D01*
X283690543Y-221448606D01*
X283679899Y-221445754D01*
X283676653Y-221444240D01*
X283673285Y-221443014D01*
X283663739Y-221437503D01*
X283626368Y-221430913D01*
X283615644Y-221428536D01*
X283578984Y-221418713D01*
X283568000Y-221419674D01*
X283567999Y-221419674D01*
X283541189Y-221422020D01*
X283530206Y-221422500D01*
X272819794Y-221422500D01*
X272808811Y-221422020D01*
X272782001Y-221419674D01*
X272782000Y-221419674D01*
X272771016Y-221418713D01*
X272734356Y-221428536D01*
X272723632Y-221430913D01*
X272686261Y-221437503D01*
X272676715Y-221443014D01*
X272673347Y-221444240D01*
X272670101Y-221445754D01*
X272659457Y-221448606D01*
X272650430Y-221454927D01*
X272650426Y-221454929D01*
X272628367Y-221470374D01*
X272619102Y-221476277D01*
X272586240Y-221495250D01*
X272579154Y-221503695D01*
X272561845Y-221524323D01*
X272554418Y-221532427D01*
X271960834Y-222126012D01*
X271399127Y-222687719D01*
X271336815Y-222721744D01*
X271327133Y-222723458D01*
X271322207Y-222724133D01*
X271313231Y-222724078D01*
X271271475Y-222736012D01*
X271197786Y-222757072D01*
X271197784Y-222757073D01*
X271189155Y-222759539D01*
X271181565Y-222764328D01*
X271111486Y-222808545D01*
X271080019Y-222828399D01*
X270994596Y-222925122D01*
X270990782Y-222933245D01*
X270990781Y-222933247D01*
X270971145Y-222975071D01*
X270939754Y-223041932D01*
X270934825Y-223073589D01*
X270921282Y-223160567D01*
X270921282Y-223160571D01*
X270919901Y-223169440D01*
X270921065Y-223178342D01*
X270921065Y-223178345D01*
X270935468Y-223288489D01*
X270935469Y-223288493D01*
X270936633Y-223297394D01*
X270940250Y-223305614D01*
X270983764Y-223404507D01*
X270988605Y-223415510D01*
X270994382Y-223422383D01*
X270994383Y-223422384D01*
X271065859Y-223507415D01*
X271071639Y-223514291D01*
X271179060Y-223585796D01*
X271302233Y-223624278D01*
X271311203Y-223624442D01*
X271311207Y-223624443D01*
X271369942Y-223625519D01*
X271431255Y-223626643D01*
X271493505Y-223609672D01*
X271547092Y-223595062D01*
X271547093Y-223595062D01*
X271555755Y-223592700D01*
X271563405Y-223588003D01*
X271563407Y-223588002D01*
X271658072Y-223529878D01*
X271658075Y-223529875D01*
X271665724Y-223525179D01*
X271671750Y-223518522D01*
X271746300Y-223436161D01*
X271746303Y-223436157D01*
X271752322Y-223429507D01*
X271808588Y-223313375D01*
X271811049Y-223298750D01*
X271823915Y-223222271D01*
X271859074Y-223154080D01*
X272898750Y-222114405D01*
X272961062Y-222080379D01*
X272987845Y-222077500D01*
X277005156Y-222077500D01*
X277073277Y-222097502D01*
X277119770Y-222151158D01*
X277129874Y-222221432D01*
X277100380Y-222286012D01*
X277094251Y-222292595D01*
X276432433Y-222954413D01*
X276424329Y-222961840D01*
X276395250Y-222986240D01*
X276389737Y-222995789D01*
X276376275Y-223019106D01*
X276370377Y-223028365D01*
X276348606Y-223059457D01*
X276345754Y-223070101D01*
X276344240Y-223073347D01*
X276343014Y-223076715D01*
X276337503Y-223086261D01*
X276333061Y-223111452D01*
X276330913Y-223123633D01*
X276328536Y-223134356D01*
X276318713Y-223171016D01*
X276319674Y-223181999D01*
X276322020Y-223208811D01*
X276322500Y-223219794D01*
X276322500Y-227038658D01*
X276302498Y-227106779D01*
X276248842Y-227153272D01*
X276178568Y-227163376D01*
X276124864Y-227142312D01*
X276113627Y-227134546D01*
X276110403Y-227132243D01*
X276070758Y-227102960D01*
X276070757Y-227102959D01*
X276063184Y-227097366D01*
X276056368Y-227094973D01*
X276050431Y-227090869D01*
X276041451Y-227088029D01*
X276041449Y-227088028D01*
X276021283Y-227081650D01*
X275994481Y-227073174D01*
X275990750Y-227071929D01*
X275944263Y-227055604D01*
X275944261Y-227055604D01*
X275935369Y-227052481D01*
X275928181Y-227052199D01*
X275928122Y-227052188D01*
X275921270Y-227050020D01*
X275914663Y-227049500D01*
X275861984Y-227049500D01*
X275857037Y-227049403D01*
X275800006Y-227047162D01*
X275792900Y-227049046D01*
X275784653Y-227049500D01*
X274088794Y-227049500D01*
X274020673Y-227029498D01*
X273999699Y-227012595D01*
X268992753Y-222005650D01*
X268982899Y-221994561D01*
X268967707Y-221975291D01*
X268967705Y-221975289D01*
X268961872Y-221967890D01*
X268954125Y-221962535D01*
X268954123Y-221962534D01*
X268913625Y-221934545D01*
X268910403Y-221932243D01*
X268870758Y-221902960D01*
X268870757Y-221902959D01*
X268863184Y-221897366D01*
X268856368Y-221894973D01*
X268850431Y-221890869D01*
X268841451Y-221888029D01*
X268841449Y-221888028D01*
X268818954Y-221880914D01*
X268794481Y-221873174D01*
X268790750Y-221871929D01*
X268744263Y-221855604D01*
X268744261Y-221855604D01*
X268735369Y-221852481D01*
X268728181Y-221852199D01*
X268728122Y-221852188D01*
X268721270Y-221850020D01*
X268714663Y-221849500D01*
X268661984Y-221849500D01*
X268657037Y-221849403D01*
X268600006Y-221847162D01*
X268592900Y-221849046D01*
X268584653Y-221849500D01*
X268107778Y-221849500D01*
X268107009Y-221849498D01*
X268038231Y-221849078D01*
X268029607Y-221851543D01*
X268029604Y-221851543D01*
X268011963Y-221856585D01*
X267996074Y-221860035D01*
X267975347Y-221863151D01*
X267975345Y-221863152D01*
X267966038Y-221864551D01*
X267957553Y-221868625D01*
X267957548Y-221868627D01*
X267949132Y-221872669D01*
X267929217Y-221880235D01*
X267914155Y-221884539D01*
X267887616Y-221901284D01*
X267874941Y-221908295D01*
X267843921Y-221923191D01*
X267837002Y-221929587D01*
X267833127Y-221933169D01*
X267814835Y-221947206D01*
X267805019Y-221953399D01*
X267782825Y-221978530D01*
X267781577Y-221979943D01*
X267772664Y-221989060D01*
X267754717Y-222005650D01*
X267744444Y-222015146D01*
X267739101Y-222024346D01*
X267727319Y-222040682D01*
X267725536Y-222043396D01*
X267719596Y-222050122D01*
X267706742Y-222077500D01*
X267702821Y-222085851D01*
X267697721Y-222095586D01*
X267693629Y-222102632D01*
X267676404Y-222132287D01*
X267674278Y-222141460D01*
X267671749Y-222147847D01*
X267670951Y-222150151D01*
X267671193Y-222150225D01*
X267668570Y-222158804D01*
X267664754Y-222166932D01*
X267659512Y-222200595D01*
X267658057Y-222209941D01*
X267656303Y-222219005D01*
X267654362Y-222227378D01*
X267645815Y-222264255D01*
X267646480Y-222273647D01*
X267646303Y-222275893D01*
X267646371Y-222278232D01*
X267646282Y-222285571D01*
X267644901Y-222294440D01*
X238700500Y-222294440D01*
X238700500Y-222187360D01*
X238700696Y-222184687D01*
X238702425Y-222179652D01*
X238701882Y-222165167D01*
X238700589Y-222130738D01*
X238700500Y-222126012D01*
X238700500Y-222107046D01*
X238699619Y-222102311D01*
X238699390Y-222098784D01*
X238698904Y-222085851D01*
X238698226Y-222067785D01*
X238693634Y-222057098D01*
X238692595Y-222052486D01*
X238689043Y-222040794D01*
X238687339Y-222036377D01*
X238685209Y-222024941D01*
X238672272Y-222003953D01*
X238663769Y-221987583D01*
X238657549Y-221973106D01*
X238657547Y-221973102D01*
X238654036Y-221964931D01*
X238650022Y-221960045D01*
X238647837Y-221957860D01*
X238645785Y-221955597D01*
X238645945Y-221955452D01*
X238638825Y-221946445D01*
X238632573Y-221939550D01*
X238626468Y-221929646D01*
X238604680Y-221913078D01*
X238591861Y-221901884D01*
X236405072Y-219715095D01*
X236371046Y-219652783D01*
X236376111Y-219581968D01*
X236418658Y-219525132D01*
X236485178Y-219500321D01*
X236494167Y-219500000D01*
X305884162Y-219500000D01*
X305900000Y-219505146D01*
G37*
G04 #@! TD.AperFunction*
G04 #@! TA.AperFunction,Conductor*
G36*
X276266782Y-227899559D02*
G01*
X276312164Y-227954158D01*
X276322500Y-228004137D01*
X276322500Y-230080206D01*
X276322020Y-230091189D01*
X276320156Y-230112497D01*
X276318713Y-230128984D01*
X276323337Y-230146239D01*
X276328534Y-230165635D01*
X276330913Y-230176367D01*
X276337503Y-230213739D01*
X276343014Y-230223285D01*
X276344240Y-230226653D01*
X276345754Y-230229899D01*
X276348606Y-230240543D01*
X276370377Y-230271635D01*
X276376275Y-230280894D01*
X276395250Y-230313760D01*
X276403695Y-230320846D01*
X276424329Y-230338160D01*
X276432433Y-230345587D01*
X283179418Y-237092573D01*
X283186845Y-237100677D01*
X283211240Y-237129750D01*
X283221364Y-237135595D01*
X283244099Y-237148721D01*
X283253367Y-237154626D01*
X283275426Y-237170071D01*
X283275428Y-237170072D01*
X283284457Y-237176394D01*
X283295101Y-237179246D01*
X283298347Y-237180760D01*
X283301715Y-237181986D01*
X283311261Y-237187497D01*
X283334388Y-237191575D01*
X283348633Y-237194087D01*
X283359356Y-237196464D01*
X283396016Y-237206287D01*
X283407000Y-237205326D01*
X283407001Y-237205326D01*
X283433811Y-237202980D01*
X283444794Y-237202500D01*
X285130500Y-237202500D01*
X285198621Y-237222502D01*
X285245114Y-237276158D01*
X285255218Y-237346432D01*
X285254405Y-237350350D01*
X285252494Y-237354673D01*
X285249500Y-237380354D01*
X285249500Y-237669646D01*
X285252618Y-237695846D01*
X285256456Y-237704486D01*
X285256456Y-237704487D01*
X285298061Y-237798153D01*
X285294199Y-237799868D01*
X285309353Y-237846146D01*
X285295046Y-237901088D01*
X285297759Y-237902287D01*
X285252494Y-238004673D01*
X285249500Y-238030354D01*
X285249500Y-238319646D01*
X285252618Y-238345846D01*
X285256456Y-238354486D01*
X285256456Y-238354487D01*
X285298061Y-238448153D01*
X285294199Y-238449868D01*
X285309353Y-238496146D01*
X285295046Y-238551088D01*
X285297759Y-238552287D01*
X285252494Y-238654673D01*
X285249500Y-238680354D01*
X285249500Y-238969646D01*
X285252618Y-238995846D01*
X285256456Y-239004486D01*
X285256456Y-239004487D01*
X285298061Y-239098153D01*
X285294199Y-239099868D01*
X285309353Y-239146146D01*
X285295046Y-239201088D01*
X285297759Y-239202287D01*
X285252494Y-239304673D01*
X285249500Y-239330354D01*
X285249500Y-239619646D01*
X285252618Y-239645846D01*
X285256456Y-239654486D01*
X285256456Y-239654487D01*
X285298061Y-239748153D01*
X285294199Y-239749868D01*
X285309353Y-239796146D01*
X285295046Y-239851088D01*
X285297759Y-239852287D01*
X285252494Y-239954673D01*
X285249500Y-239980354D01*
X285249500Y-240077079D01*
X285229498Y-240145200D01*
X285200205Y-240177041D01*
X285122917Y-240236347D01*
X285111344Y-240247920D01*
X285023941Y-240361824D01*
X285015753Y-240376007D01*
X284960811Y-240508649D01*
X284956572Y-240524469D01*
X284952284Y-240557040D01*
X284954495Y-240571222D01*
X284967652Y-240575000D01*
X287406965Y-240575000D01*
X287420736Y-240570956D01*
X287422765Y-240557417D01*
X287418428Y-240524467D01*
X287414190Y-240508652D01*
X287359247Y-240376007D01*
X287351059Y-240361824D01*
X287263656Y-240247920D01*
X287252083Y-240236347D01*
X287174795Y-240177041D01*
X287132928Y-240119703D01*
X287125500Y-240077079D01*
X287125500Y-239980354D01*
X287122382Y-239954154D01*
X287076939Y-239851847D01*
X287080801Y-239850132D01*
X287065647Y-239803854D01*
X287079954Y-239748912D01*
X287077241Y-239747713D01*
X287118675Y-239653992D01*
X287122506Y-239645327D01*
X287125500Y-239619646D01*
X287125500Y-239330354D01*
X287122382Y-239304154D01*
X287076939Y-239201847D01*
X287080801Y-239200132D01*
X287065647Y-239153854D01*
X287079954Y-239098912D01*
X287077241Y-239097713D01*
X287118675Y-239003992D01*
X287122506Y-238995327D01*
X287125500Y-238969646D01*
X287125500Y-238680354D01*
X287122382Y-238654154D01*
X287076939Y-238551847D01*
X287080801Y-238550132D01*
X287065647Y-238503854D01*
X287079954Y-238448912D01*
X287077241Y-238447713D01*
X287085053Y-238430043D01*
X287122506Y-238345327D01*
X287125500Y-238319646D01*
X287125500Y-238030354D01*
X287122382Y-238004154D01*
X287118544Y-237995514D01*
X287116175Y-237986894D01*
X287117408Y-237915908D01*
X287156823Y-237856857D01*
X287221906Y-237828490D01*
X287237669Y-237827500D01*
X288930206Y-237827500D01*
X288941189Y-237827980D01*
X288967999Y-237830326D01*
X288968000Y-237830326D01*
X288978984Y-237831287D01*
X289015644Y-237821464D01*
X289026367Y-237819087D01*
X289032724Y-237817966D01*
X289063739Y-237812497D01*
X289073285Y-237806986D01*
X289076653Y-237805760D01*
X289079899Y-237804246D01*
X289090543Y-237801394D01*
X289121635Y-237779623D01*
X289130894Y-237773725D01*
X289154211Y-237760263D01*
X289163760Y-237754750D01*
X289188160Y-237725671D01*
X289195576Y-237717578D01*
X290167585Y-236745570D01*
X290175677Y-236738155D01*
X290196306Y-236720845D01*
X290204750Y-236713760D01*
X290223730Y-236680886D01*
X290229622Y-236671639D01*
X290251395Y-236640543D01*
X290254248Y-236629894D01*
X290255756Y-236626660D01*
X290256983Y-236623288D01*
X290262497Y-236613739D01*
X290269087Y-236576367D01*
X290271462Y-236565653D01*
X290281287Y-236528984D01*
X290278881Y-236501476D01*
X290277979Y-236491173D01*
X290277500Y-236480191D01*
X290277500Y-236023327D01*
X290297502Y-235955206D01*
X290351158Y-235908713D01*
X290421432Y-235898609D01*
X290487484Y-235929398D01*
X290490861Y-235932418D01*
X290496639Y-235939291D01*
X290604060Y-236010796D01*
X290675934Y-236033251D01*
X290718124Y-236046432D01*
X290727233Y-236049278D01*
X290850810Y-236051543D01*
X290918552Y-236072790D01*
X290964054Y-236127289D01*
X290974500Y-236177522D01*
X290974500Y-236369646D01*
X290977618Y-236395846D01*
X290981456Y-236404486D01*
X290981456Y-236404487D01*
X291023061Y-236498153D01*
X291019199Y-236499868D01*
X291034353Y-236546146D01*
X291020046Y-236601088D01*
X291022759Y-236602287D01*
X290977494Y-236704673D01*
X290974500Y-236730354D01*
X290974500Y-237019646D01*
X290976920Y-237039981D01*
X290976920Y-237039984D01*
X290977618Y-237045846D01*
X290976817Y-237045941D01*
X290975723Y-237109088D01*
X290936310Y-237168140D01*
X290871228Y-237196509D01*
X290855460Y-237197500D01*
X290444794Y-237197500D01*
X290433811Y-237197020D01*
X290407001Y-237194674D01*
X290407000Y-237194674D01*
X290396016Y-237193713D01*
X290359356Y-237203536D01*
X290348632Y-237205913D01*
X290311261Y-237212503D01*
X290301715Y-237218014D01*
X290298347Y-237219240D01*
X290295101Y-237220754D01*
X290284457Y-237223606D01*
X290275428Y-237229928D01*
X290275426Y-237229929D01*
X290253367Y-237245374D01*
X290244102Y-237251277D01*
X290211240Y-237270250D01*
X290204154Y-237278695D01*
X290186845Y-237299323D01*
X290179418Y-237307427D01*
X289032433Y-238454413D01*
X289024329Y-238461840D01*
X288995250Y-238486240D01*
X288989737Y-238495789D01*
X288976275Y-238519106D01*
X288970377Y-238528365D01*
X288948606Y-238559457D01*
X288945754Y-238570101D01*
X288944240Y-238573347D01*
X288943014Y-238576715D01*
X288937503Y-238586261D01*
X288935589Y-238597117D01*
X288930913Y-238623633D01*
X288928536Y-238634356D01*
X288918713Y-238671016D01*
X288919674Y-238681999D01*
X288922020Y-238708811D01*
X288922500Y-238719794D01*
X288922500Y-240512155D01*
X288902498Y-240580276D01*
X288885595Y-240601250D01*
X287551251Y-241935595D01*
X287488939Y-241969620D01*
X287462156Y-241972500D01*
X284487845Y-241972500D01*
X284419724Y-241952498D01*
X284398750Y-241935595D01*
X283455737Y-240992583D01*
X284952235Y-240992583D01*
X284956572Y-241025533D01*
X284960810Y-241041348D01*
X285015753Y-241173993D01*
X285023941Y-241188176D01*
X285111344Y-241302080D01*
X285122920Y-241313656D01*
X285236824Y-241401059D01*
X285251007Y-241409247D01*
X285383650Y-241464190D01*
X285399468Y-241468428D01*
X285506066Y-241482462D01*
X285514275Y-241483000D01*
X285969385Y-241483000D01*
X285984624Y-241478525D01*
X285985829Y-241477135D01*
X285987500Y-241469452D01*
X285987500Y-241464884D01*
X286387500Y-241464884D01*
X286391975Y-241480123D01*
X286393365Y-241481328D01*
X286401048Y-241482999D01*
X286860723Y-241482999D01*
X286868935Y-241482461D01*
X286975533Y-241468428D01*
X286991348Y-241464190D01*
X287123993Y-241409247D01*
X287138176Y-241401059D01*
X287252080Y-241313656D01*
X287263656Y-241302080D01*
X287351059Y-241188176D01*
X287359247Y-241173993D01*
X287414189Y-241041351D01*
X287418428Y-241025531D01*
X287422716Y-240992960D01*
X287420505Y-240978778D01*
X287407348Y-240975000D01*
X286405615Y-240975000D01*
X286390376Y-240979475D01*
X286389171Y-240980865D01*
X286387500Y-240988548D01*
X286387500Y-241464884D01*
X285987500Y-241464884D01*
X285987500Y-240993115D01*
X285983025Y-240977876D01*
X285981635Y-240976671D01*
X285973952Y-240975000D01*
X284968035Y-240975000D01*
X284954264Y-240979044D01*
X284952235Y-240992583D01*
X283455737Y-240992583D01*
X282864405Y-240401251D01*
X282830380Y-240338939D01*
X282827500Y-240312156D01*
X282827500Y-237419794D01*
X282827980Y-237408811D01*
X282830326Y-237381999D01*
X282831287Y-237371016D01*
X282821464Y-237334356D01*
X282819087Y-237323633D01*
X282814411Y-237297117D01*
X282812497Y-237286261D01*
X282806986Y-237276715D01*
X282805760Y-237273347D01*
X282804246Y-237270101D01*
X282801394Y-237259457D01*
X282795071Y-237250426D01*
X282779626Y-237228367D01*
X282773721Y-237219099D01*
X282765557Y-237204958D01*
X282754750Y-237186240D01*
X282725682Y-237161849D01*
X282717579Y-237154424D01*
X282095581Y-236532427D01*
X282088154Y-236524322D01*
X282070846Y-236503695D01*
X282063760Y-236495250D01*
X282030895Y-236476275D01*
X282021635Y-236470377D01*
X281990543Y-236448606D01*
X281979899Y-236445754D01*
X281976653Y-236444240D01*
X281973285Y-236443014D01*
X281963739Y-236437503D01*
X281926368Y-236430913D01*
X281915644Y-236428536D01*
X281878984Y-236418713D01*
X281868000Y-236419674D01*
X281867999Y-236419674D01*
X281841189Y-236422020D01*
X281830206Y-236422500D01*
X279960327Y-236422500D01*
X279891795Y-236402233D01*
X279889297Y-236400614D01*
X279790906Y-236336841D01*
X279782311Y-236334271D01*
X279782310Y-236334270D01*
X279675874Y-236302438D01*
X279675872Y-236302438D01*
X279667273Y-236299866D01*
X279658298Y-236299811D01*
X279658297Y-236299811D01*
X279603641Y-236299477D01*
X279538231Y-236299078D01*
X279472643Y-236317823D01*
X279401649Y-236317311D01*
X279348924Y-236285769D01*
X279201837Y-236138682D01*
X277855587Y-234792433D01*
X277848160Y-234784329D01*
X277833900Y-234767335D01*
X277823760Y-234755250D01*
X277790895Y-234736275D01*
X277781635Y-234730377D01*
X277750543Y-234708606D01*
X277739899Y-234705754D01*
X277736653Y-234704240D01*
X277733285Y-234703014D01*
X277723739Y-234697503D01*
X277686368Y-234690913D01*
X277675638Y-234688534D01*
X277660410Y-234684454D01*
X277599787Y-234647504D01*
X277577134Y-234611721D01*
X277575935Y-234607749D01*
X277479218Y-234425849D01*
X277387579Y-234313489D01*
X277352906Y-234270975D01*
X277352903Y-234270972D01*
X277349011Y-234266200D01*
X277336458Y-234255815D01*
X277195025Y-234138811D01*
X277195021Y-234138809D01*
X277190275Y-234134882D01*
X277009055Y-234036897D01*
X276812254Y-233975977D01*
X276806129Y-233975333D01*
X276806128Y-233975333D01*
X276613498Y-233955087D01*
X276613496Y-233955087D01*
X276607369Y-233954443D01*
X276520529Y-233962346D01*
X276408342Y-233972555D01*
X276408339Y-233972556D01*
X276402203Y-233973114D01*
X276204572Y-234031280D01*
X276199107Y-234034137D01*
X276131241Y-234069617D01*
X276022002Y-234126726D01*
X275972650Y-234166406D01*
X275955941Y-234179840D01*
X275890318Y-234206936D01*
X275820464Y-234194252D01*
X275768556Y-234145816D01*
X275750989Y-234081643D01*
X275750989Y-231440255D01*
X275770991Y-231372134D01*
X275790335Y-231350280D01*
X275790224Y-231350179D01*
X275870800Y-231261161D01*
X275870803Y-231261157D01*
X275876822Y-231254507D01*
X275933088Y-231138375D01*
X275954497Y-231011120D01*
X275954633Y-231000000D01*
X275943122Y-230919621D01*
X275937612Y-230881145D01*
X275937611Y-230881142D01*
X275936339Y-230872259D01*
X275921366Y-230839328D01*
X275886645Y-230762962D01*
X275886643Y-230762959D01*
X275882928Y-230754788D01*
X275798693Y-230657028D01*
X275690406Y-230586841D01*
X275681811Y-230584271D01*
X275681810Y-230584270D01*
X275575374Y-230552438D01*
X275575372Y-230552438D01*
X275566773Y-230549866D01*
X275557798Y-230549811D01*
X275557797Y-230549811D01*
X275503141Y-230549477D01*
X275437731Y-230549078D01*
X275425975Y-230552438D01*
X275322286Y-230582072D01*
X275322284Y-230582073D01*
X275313655Y-230584539D01*
X275204519Y-230653399D01*
X275119096Y-230750122D01*
X275115282Y-230758245D01*
X275115281Y-230758247D01*
X275096111Y-230799078D01*
X275064254Y-230866932D01*
X275059322Y-230898608D01*
X275045782Y-230985567D01*
X275045782Y-230985571D01*
X275044401Y-230994440D01*
X275045565Y-231003342D01*
X275045565Y-231003345D01*
X275059968Y-231113489D01*
X275059969Y-231113493D01*
X275061133Y-231122394D01*
X275113105Y-231240510D01*
X275120441Y-231249237D01*
X275121406Y-231251437D01*
X275123625Y-231255002D01*
X275123110Y-231255322D01*
X275148961Y-231314251D01*
X275149989Y-231330311D01*
X275149989Y-235433778D01*
X275149793Y-235436451D01*
X275148064Y-235441486D01*
X275148500Y-235453108D01*
X275148500Y-235453110D01*
X275149900Y-235490399D01*
X275149989Y-235495125D01*
X275149989Y-235514092D01*
X275150871Y-235518827D01*
X275151099Y-235522353D01*
X275152263Y-235553352D01*
X275156853Y-235564037D01*
X275157890Y-235568637D01*
X275161451Y-235580358D01*
X275163150Y-235584761D01*
X275165280Y-235596197D01*
X275171384Y-235606099D01*
X275178216Y-235617183D01*
X275186720Y-235633555D01*
X275192940Y-235648032D01*
X275192942Y-235648036D01*
X275196453Y-235656207D01*
X275200467Y-235661093D01*
X275202652Y-235663278D01*
X275204704Y-235665541D01*
X275204544Y-235665686D01*
X275211664Y-235674693D01*
X275217916Y-235681588D01*
X275224021Y-235691492D01*
X275245608Y-235707907D01*
X275245796Y-235708050D01*
X275258625Y-235719251D01*
X275806859Y-236267486D01*
X275840884Y-236329798D01*
X275835819Y-236400614D01*
X275793416Y-236457341D01*
X275699433Y-236527905D01*
X275691726Y-236534748D01*
X275544590Y-236688717D01*
X275538104Y-236696727D01*
X275418098Y-236872649D01*
X275413000Y-236881623D01*
X275323338Y-237074783D01*
X275319775Y-237084470D01*
X275264389Y-237284183D01*
X275265912Y-237292607D01*
X275278292Y-237296000D01*
X277918344Y-237296000D01*
X277931875Y-237292027D01*
X277933180Y-237282947D01*
X277891214Y-237115875D01*
X277886227Y-237101226D01*
X277887618Y-237100752D01*
X277879632Y-237036957D01*
X277910298Y-236972925D01*
X277970715Y-236935638D01*
X278041700Y-236936934D01*
X278093096Y-236968067D01*
X279762595Y-238637566D01*
X279796621Y-238699878D01*
X279799500Y-238726661D01*
X279799500Y-242697634D01*
X279799304Y-242700307D01*
X279797575Y-242705342D01*
X279798011Y-242716964D01*
X279798011Y-242716966D01*
X279799411Y-242754255D01*
X279799500Y-242758981D01*
X279799500Y-242777948D01*
X279800382Y-242782683D01*
X279800610Y-242786209D01*
X279801774Y-242817208D01*
X279806364Y-242827893D01*
X279807401Y-242832493D01*
X279810962Y-242844214D01*
X279812661Y-242848617D01*
X279814791Y-242860053D01*
X279820895Y-242869955D01*
X279827727Y-242881039D01*
X279836231Y-242897411D01*
X279842451Y-242911888D01*
X279842453Y-242911892D01*
X279845964Y-242920063D01*
X279849978Y-242924949D01*
X279852163Y-242927134D01*
X279854215Y-242929397D01*
X279854055Y-242929542D01*
X279861175Y-242938549D01*
X279867427Y-242945444D01*
X279873532Y-242955348D01*
X279895119Y-242971763D01*
X279895307Y-242971906D01*
X279908136Y-242983107D01*
X280250488Y-243325460D01*
X280252237Y-243327486D01*
X280254575Y-243332269D01*
X280290490Y-243365585D01*
X280293869Y-243368841D01*
X280307276Y-243382248D01*
X280311255Y-243384978D01*
X280313884Y-243387286D01*
X280336646Y-243408401D01*
X280347453Y-243412712D01*
X280351448Y-243415238D01*
X280362242Y-243421001D01*
X280366554Y-243422912D01*
X280376146Y-243429492D01*
X280387463Y-243432178D01*
X280387464Y-243432178D01*
X280400127Y-243435183D01*
X280417724Y-243440748D01*
X280432362Y-243446588D01*
X280432365Y-243446589D01*
X280440622Y-243449883D01*
X280446915Y-243450500D01*
X280449994Y-243450500D01*
X280453067Y-243450650D01*
X280453056Y-243450866D01*
X280464431Y-243452198D01*
X280473746Y-243452654D01*
X280485066Y-243455340D01*
X280496595Y-243453771D01*
X280496596Y-243453771D01*
X280512173Y-243451651D01*
X280529164Y-243450500D01*
X287486679Y-243450500D01*
X287528147Y-243457812D01*
X287536261Y-243462497D01*
X287547114Y-243464411D01*
X287547115Y-243464411D01*
X287579051Y-243470042D01*
X287621348Y-243477500D01*
X290955156Y-243477500D01*
X291023277Y-243497502D01*
X291069770Y-243551158D01*
X291079874Y-243621432D01*
X291050380Y-243686012D01*
X291044251Y-243692595D01*
X290901251Y-243835595D01*
X290838939Y-243869621D01*
X290812156Y-243872500D01*
X279510327Y-243872500D01*
X279441795Y-243852233D01*
X279416125Y-243835595D01*
X279340906Y-243786841D01*
X279332311Y-243784271D01*
X279332310Y-243784270D01*
X279225874Y-243752438D01*
X279225872Y-243752438D01*
X279217273Y-243749866D01*
X279208298Y-243749811D01*
X279208297Y-243749811D01*
X279153641Y-243749477D01*
X279088231Y-243749078D01*
X279076475Y-243752438D01*
X278972786Y-243782072D01*
X278972784Y-243782073D01*
X278964155Y-243784539D01*
X278956565Y-243789328D01*
X278855553Y-243853062D01*
X278788317Y-243872500D01*
X278357845Y-243872500D01*
X278289724Y-243852498D01*
X278268750Y-243835595D01*
X277601421Y-243168266D01*
X277567395Y-243105954D01*
X277570958Y-243039399D01*
X277618191Y-242897411D01*
X277629351Y-242863863D01*
X277655171Y-242659474D01*
X277655583Y-242630000D01*
X277635480Y-242424970D01*
X277575935Y-242227749D01*
X277479218Y-242045849D01*
X277389297Y-241935595D01*
X277352906Y-241890975D01*
X277352903Y-241890972D01*
X277349011Y-241886200D01*
X277331786Y-241871950D01*
X277195025Y-241758811D01*
X277195021Y-241758809D01*
X277190275Y-241754882D01*
X277009055Y-241656897D01*
X276958183Y-241641150D01*
X276899025Y-241601899D01*
X276870477Y-241536895D01*
X276881605Y-241466776D01*
X276928876Y-241413804D01*
X276959235Y-241400099D01*
X277092255Y-241360191D01*
X277101842Y-241356433D01*
X277293095Y-241262739D01*
X277301945Y-241257464D01*
X277475328Y-241133792D01*
X277483200Y-241127139D01*
X277634052Y-240976812D01*
X277640730Y-240968965D01*
X277765003Y-240796020D01*
X277770313Y-240787183D01*
X277864670Y-240596267D01*
X277868469Y-240586672D01*
X277930377Y-240382910D01*
X277932555Y-240372837D01*
X277933986Y-240361962D01*
X277931775Y-240347778D01*
X277918617Y-240344000D01*
X275283225Y-240344000D01*
X275269694Y-240347973D01*
X275268257Y-240357966D01*
X275298565Y-240492446D01*
X275301645Y-240502275D01*
X275381770Y-240699603D01*
X275386413Y-240708794D01*
X275497694Y-240890388D01*
X275503777Y-240898699D01*
X275643213Y-241059667D01*
X275650580Y-241066883D01*
X275814434Y-241202916D01*
X275822881Y-241208831D01*
X276006756Y-241316279D01*
X276016042Y-241320729D01*
X276215001Y-241396703D01*
X276229866Y-241401022D01*
X276229289Y-241403008D01*
X276284260Y-241432082D01*
X276319110Y-241493936D01*
X276314988Y-241564813D01*
X276273201Y-241622209D01*
X276231930Y-241643228D01*
X276210489Y-241649538D01*
X276210484Y-241649540D01*
X276204572Y-241651280D01*
X276022002Y-241746726D01*
X276017201Y-241750586D01*
X276017198Y-241750588D01*
X276006971Y-241758811D01*
X275861447Y-241875815D01*
X275729024Y-242033630D01*
X275726056Y-242039028D01*
X275726053Y-242039033D01*
X275719315Y-242051290D01*
X275629776Y-242214162D01*
X275567484Y-242410532D01*
X275566798Y-242416649D01*
X275566797Y-242416653D01*
X275545651Y-242605181D01*
X275544520Y-242615262D01*
X275545036Y-242621406D01*
X275557694Y-242772140D01*
X275561759Y-242820553D01*
X275563458Y-242826478D01*
X275616638Y-243011938D01*
X275618544Y-243018586D01*
X275621359Y-243024063D01*
X275621360Y-243024066D01*
X275709897Y-243196341D01*
X275712712Y-243201818D01*
X275742687Y-243239637D01*
X275770514Y-243274746D01*
X275797152Y-243340556D01*
X275783981Y-243410321D01*
X275735184Y-243461890D01*
X275671769Y-243479011D01*
X275044357Y-243479011D01*
X274976236Y-243459009D01*
X274955262Y-243442107D01*
X274587405Y-243074251D01*
X274553380Y-243011938D01*
X274550500Y-242985155D01*
X274550500Y-239824183D01*
X275264389Y-239824183D01*
X275265912Y-239832607D01*
X275278292Y-239836000D01*
X276327885Y-239836000D01*
X276343124Y-239831525D01*
X276344329Y-239830135D01*
X276346000Y-239822452D01*
X276346000Y-239817885D01*
X276854000Y-239817885D01*
X276858475Y-239833124D01*
X276859865Y-239834329D01*
X276867548Y-239836000D01*
X277918344Y-239836000D01*
X277931875Y-239832027D01*
X277933180Y-239822947D01*
X277891214Y-239655875D01*
X277887894Y-239646124D01*
X277802972Y-239450814D01*
X277798105Y-239441739D01*
X277682426Y-239262926D01*
X277676136Y-239254757D01*
X277532806Y-239097240D01*
X277525273Y-239090215D01*
X277358139Y-238958222D01*
X277349552Y-238952517D01*
X277312116Y-238931851D01*
X277262146Y-238881419D01*
X277247374Y-238811976D01*
X277272490Y-238745571D01*
X277299842Y-238718964D01*
X277475327Y-238593792D01*
X277483200Y-238587139D01*
X277634052Y-238436812D01*
X277640730Y-238428965D01*
X277765003Y-238256020D01*
X277770313Y-238247183D01*
X277864670Y-238056267D01*
X277868469Y-238046672D01*
X277930377Y-237842910D01*
X277932555Y-237832837D01*
X277933986Y-237821962D01*
X277931775Y-237807778D01*
X277918617Y-237804000D01*
X276872115Y-237804000D01*
X276856876Y-237808475D01*
X276855671Y-237809865D01*
X276854000Y-237817548D01*
X276854000Y-239817885D01*
X276346000Y-239817885D01*
X276346000Y-237822115D01*
X276341525Y-237806876D01*
X276340135Y-237805671D01*
X276332452Y-237804000D01*
X275283225Y-237804000D01*
X275269694Y-237807973D01*
X275268257Y-237817966D01*
X275298565Y-237952446D01*
X275301645Y-237962275D01*
X275381770Y-238159603D01*
X275386413Y-238168794D01*
X275497694Y-238350388D01*
X275503777Y-238358699D01*
X275643213Y-238519667D01*
X275650580Y-238526883D01*
X275814434Y-238662916D01*
X275822881Y-238668831D01*
X275892479Y-238709501D01*
X275941203Y-238761140D01*
X275954274Y-238830923D01*
X275927543Y-238896694D01*
X275887087Y-238930053D01*
X275878462Y-238934542D01*
X275869738Y-238940036D01*
X275699433Y-239067905D01*
X275691726Y-239074748D01*
X275544590Y-239228717D01*
X275538104Y-239236727D01*
X275418098Y-239412649D01*
X275413000Y-239421623D01*
X275323338Y-239614783D01*
X275319775Y-239624470D01*
X275264389Y-239824183D01*
X274550500Y-239824183D01*
X274550500Y-229252366D01*
X274550696Y-229249693D01*
X274552425Y-229244658D01*
X274551908Y-229230868D01*
X274550589Y-229195745D01*
X274550500Y-229191019D01*
X274550500Y-229172052D01*
X274549618Y-229167317D01*
X274549390Y-229163791D01*
X274548662Y-229144415D01*
X274548226Y-229132792D01*
X274543636Y-229122107D01*
X274542599Y-229117507D01*
X274539038Y-229105786D01*
X274537339Y-229101383D01*
X274535209Y-229089947D01*
X274522272Y-229068959D01*
X274513769Y-229052589D01*
X274507549Y-229038112D01*
X274507547Y-229038108D01*
X274504036Y-229029937D01*
X274500022Y-229025051D01*
X274497837Y-229022866D01*
X274495785Y-229020603D01*
X274495945Y-229020458D01*
X274488825Y-229011451D01*
X274482573Y-229004556D01*
X274476468Y-228994652D01*
X274454680Y-228978084D01*
X274441861Y-228966890D01*
X273628673Y-228153702D01*
X273594647Y-228091390D01*
X273599712Y-228020575D01*
X273642259Y-227963739D01*
X273708779Y-227938928D01*
X273746248Y-227943947D01*
X273746498Y-227942636D01*
X273755751Y-227944402D01*
X273764631Y-227947520D01*
X273771816Y-227947803D01*
X273771889Y-227947817D01*
X273778730Y-227949980D01*
X273785337Y-227950500D01*
X273837991Y-227950500D01*
X273842937Y-227950597D01*
X273899994Y-227952839D01*
X273907103Y-227950954D01*
X273915352Y-227950500D01*
X275705450Y-227950500D01*
X275747195Y-227957617D01*
X275789631Y-227972519D01*
X275797606Y-227972832D01*
X275802233Y-227974278D01*
X275811207Y-227974442D01*
X275811210Y-227974443D01*
X275861200Y-227975359D01*
X275863837Y-227975435D01*
X275893820Y-227976613D01*
X275924994Y-227977838D01*
X275929614Y-227976613D01*
X275931255Y-227976643D01*
X275936838Y-227975121D01*
X275993027Y-227959802D01*
X275993875Y-227959574D01*
X276020670Y-227952469D01*
X276055936Y-227943118D01*
X276063926Y-227938135D01*
X276063931Y-227938133D01*
X276110541Y-227909065D01*
X276111226Y-227908641D01*
X276130572Y-227896762D01*
X276199086Y-227878164D01*
X276266782Y-227899559D01*
G37*
G04 #@! TD.AperFunction*
G04 #@! TA.AperFunction,Conductor*
G36*
X277167532Y-223249789D02*
G01*
X277224368Y-223292336D01*
X277249179Y-223358856D01*
X277249500Y-223367845D01*
X277249500Y-224603834D01*
X277252481Y-224635369D01*
X277297366Y-224763184D01*
X277302958Y-224770754D01*
X277302959Y-224770757D01*
X277336027Y-224815527D01*
X277377850Y-224872150D01*
X277385421Y-224877742D01*
X277479243Y-224947041D01*
X277479246Y-224947042D01*
X277486816Y-224952634D01*
X277614631Y-224997519D01*
X277622277Y-224998242D01*
X277622278Y-224998242D01*
X277628248Y-224998806D01*
X277646166Y-225000500D01*
X277705233Y-225000500D01*
X277773354Y-225020502D01*
X277819847Y-225074158D01*
X277829951Y-225144432D01*
X277800457Y-225209012D01*
X277763413Y-225238263D01*
X277578466Y-225334540D01*
X277569734Y-225340039D01*
X277549677Y-225355099D01*
X277541223Y-225366427D01*
X277547968Y-225378758D01*
X278570115Y-226400905D01*
X278604141Y-226463217D01*
X278599076Y-226534032D01*
X278570115Y-226579095D01*
X277546737Y-227602473D01*
X277539977Y-227614853D01*
X277545258Y-227621907D01*
X277706756Y-227716279D01*
X277716042Y-227720729D01*
X277915001Y-227796703D01*
X277924899Y-227799579D01*
X278133595Y-227842038D01*
X278143823Y-227843257D01*
X278356650Y-227851062D01*
X278366936Y-227850595D01*
X278578185Y-227823534D01*
X278588262Y-227821392D01*
X278792255Y-227760191D01*
X278801842Y-227756433D01*
X278993095Y-227662739D01*
X279001945Y-227657464D01*
X279123332Y-227570880D01*
X279190406Y-227547606D01*
X279259414Y-227564290D01*
X279308448Y-227615634D01*
X279322500Y-227673459D01*
X279322500Y-231880206D01*
X279322020Y-231891189D01*
X279318713Y-231928984D01*
X279328093Y-231963988D01*
X279328534Y-231965635D01*
X279330912Y-231976365D01*
X279334602Y-231997290D01*
X279326734Y-232067850D01*
X279281968Y-232122954D01*
X279214517Y-232145108D01*
X279145795Y-232127279D01*
X279121422Y-232108267D01*
X277014405Y-230001251D01*
X276980380Y-229938939D01*
X276977500Y-229912156D01*
X276977500Y-227352372D01*
X276997502Y-227284251D01*
X277051158Y-227237758D01*
X277121432Y-227227654D01*
X277164220Y-227247751D01*
X277175281Y-227249584D01*
X277185694Y-227245096D01*
X277927978Y-226502812D01*
X277935592Y-226488868D01*
X277935461Y-226487035D01*
X277931210Y-226480420D01*
X277189849Y-225739059D01*
X277177132Y-225732115D01*
X277115248Y-225756758D01*
X277045559Y-225743195D01*
X276994266Y-225694108D01*
X276977500Y-225631307D01*
X276977500Y-223387845D01*
X276997502Y-223319724D01*
X277014405Y-223298750D01*
X277034405Y-223278750D01*
X277096717Y-223244724D01*
X277167532Y-223249789D01*
G37*
G04 #@! TD.AperFunction*
G04 #@! TA.AperFunction,Conductor*
G36*
X231868960Y-219520002D02*
G01*
X231915453Y-219573658D01*
X231925557Y-219643932D01*
X231896063Y-219708512D01*
X231889934Y-219715095D01*
X230679548Y-220925481D01*
X230677514Y-220927237D01*
X230672731Y-220929575D01*
X230664819Y-220938104D01*
X230664818Y-220938105D01*
X230639427Y-220965477D01*
X230636147Y-220968882D01*
X230622752Y-220982277D01*
X230620028Y-220986247D01*
X230617703Y-220988895D01*
X230604508Y-221003119D01*
X230604506Y-221003122D01*
X230596599Y-221011646D01*
X230592289Y-221022450D01*
X230589767Y-221026439D01*
X230584006Y-221037227D01*
X230582089Y-221041552D01*
X230575508Y-221051146D01*
X230572822Y-221062465D01*
X230572821Y-221062467D01*
X230569817Y-221075127D01*
X230564252Y-221092724D01*
X230555117Y-221115622D01*
X230554695Y-221119925D01*
X230520295Y-221179415D01*
X230457168Y-221211904D01*
X230386498Y-221205107D01*
X230363731Y-221193102D01*
X230363546Y-221193025D01*
X230353231Y-221186133D01*
X230341062Y-221183712D01*
X230341061Y-221183712D01*
X230300816Y-221175707D01*
X230294748Y-221174500D01*
X229755252Y-221174500D01*
X229749184Y-221175707D01*
X229708939Y-221183712D01*
X229708938Y-221183712D01*
X229696769Y-221186133D01*
X229686452Y-221193027D01*
X229686449Y-221193028D01*
X229680003Y-221197335D01*
X229612251Y-221218551D01*
X229539997Y-221197335D01*
X229533551Y-221193028D01*
X229533548Y-221193027D01*
X229523231Y-221186133D01*
X229511062Y-221183712D01*
X229511061Y-221183712D01*
X229470816Y-221175707D01*
X229464748Y-221174500D01*
X229162646Y-221174500D01*
X229094525Y-221154498D01*
X229061820Y-221124065D01*
X228983285Y-221019276D01*
X228970724Y-221006715D01*
X228868649Y-220930214D01*
X228853054Y-220921676D01*
X228732606Y-220876522D01*
X228717351Y-220872895D01*
X228666486Y-220867369D01*
X228659672Y-220867000D01*
X228633115Y-220867000D01*
X228617876Y-220871475D01*
X228616671Y-220872865D01*
X228615000Y-220880548D01*
X228615000Y-223499000D01*
X228594998Y-223567121D01*
X228541342Y-223613614D01*
X228489000Y-223625000D01*
X226581000Y-223625000D01*
X226512879Y-223604998D01*
X226466386Y-223551342D01*
X226455000Y-223499000D01*
X226455000Y-223106885D01*
X226955000Y-223106885D01*
X226959475Y-223122124D01*
X226960865Y-223123329D01*
X226968548Y-223125000D01*
X227266885Y-223125000D01*
X227282124Y-223120525D01*
X227283329Y-223119135D01*
X227285000Y-223111452D01*
X227285000Y-223106885D01*
X227785000Y-223106885D01*
X227789475Y-223122124D01*
X227790865Y-223123329D01*
X227798548Y-223125000D01*
X228096885Y-223125000D01*
X228112124Y-223120525D01*
X228113329Y-223119135D01*
X228115000Y-223111452D01*
X228115000Y-220885116D01*
X228110525Y-220869877D01*
X228109135Y-220868672D01*
X228101452Y-220867001D01*
X228070331Y-220867001D01*
X228063510Y-220867371D01*
X228012648Y-220872895D01*
X227997400Y-220876520D01*
X227994231Y-220877708D01*
X227991590Y-220877901D01*
X227989707Y-220878349D01*
X227989635Y-220878044D01*
X227923423Y-220882891D01*
X227905769Y-220877708D01*
X227902603Y-220876521D01*
X227887351Y-220872895D01*
X227836486Y-220867369D01*
X227829672Y-220867000D01*
X227803115Y-220867000D01*
X227787876Y-220871475D01*
X227786671Y-220872865D01*
X227785000Y-220880548D01*
X227785000Y-223106885D01*
X227285000Y-223106885D01*
X227285000Y-220885116D01*
X227280525Y-220869877D01*
X227279135Y-220868672D01*
X227271452Y-220867001D01*
X227240331Y-220867001D01*
X227233510Y-220867371D01*
X227182648Y-220872895D01*
X227167400Y-220876520D01*
X227164231Y-220877708D01*
X227161590Y-220877901D01*
X227159707Y-220878349D01*
X227159635Y-220878044D01*
X227093423Y-220882891D01*
X227075769Y-220877708D01*
X227072603Y-220876521D01*
X227057351Y-220872895D01*
X227006486Y-220867369D01*
X226999672Y-220867000D01*
X226973115Y-220867000D01*
X226957876Y-220871475D01*
X226956671Y-220872865D01*
X226955000Y-220880548D01*
X226955000Y-223106885D01*
X226455000Y-223106885D01*
X226455000Y-220885116D01*
X226450525Y-220869877D01*
X226449135Y-220868672D01*
X226441452Y-220867001D01*
X226410331Y-220867001D01*
X226403510Y-220867371D01*
X226352648Y-220872895D01*
X226337396Y-220876521D01*
X226216946Y-220921676D01*
X226201351Y-220930214D01*
X226099276Y-221006715D01*
X226086715Y-221019276D01*
X226010214Y-221121351D01*
X226001676Y-221136946D01*
X225956522Y-221257394D01*
X225952895Y-221272649D01*
X225947369Y-221323514D01*
X225947000Y-221330328D01*
X225947000Y-222505132D01*
X225926998Y-222573253D01*
X225873342Y-222619746D01*
X225803068Y-222629850D01*
X225750628Y-222605795D01*
X225749193Y-222608008D01*
X225640906Y-222537821D01*
X225632311Y-222535251D01*
X225632310Y-222535250D01*
X225525874Y-222503418D01*
X225525872Y-222503418D01*
X225517273Y-222500846D01*
X225508298Y-222500791D01*
X225508297Y-222500791D01*
X225453641Y-222500457D01*
X225388231Y-222500058D01*
X225336559Y-222514826D01*
X225272786Y-222533052D01*
X225272784Y-222533053D01*
X225264155Y-222535519D01*
X225256565Y-222540308D01*
X225166865Y-222596905D01*
X225155019Y-222604379D01*
X225149076Y-222611108D01*
X225149075Y-222611109D01*
X225124186Y-222639291D01*
X225069596Y-222701102D01*
X225065781Y-222709227D01*
X225065780Y-222709229D01*
X225039029Y-222766207D01*
X224991973Y-222819370D01*
X224923645Y-222838652D01*
X224855739Y-222817932D01*
X224810273Y-222764811D01*
X224810204Y-222764659D01*
X224783428Y-222705768D01*
X224753842Y-222671432D01*
X224705051Y-222614806D01*
X224705049Y-222614804D01*
X224699193Y-222608008D01*
X224590906Y-222537821D01*
X224582311Y-222535251D01*
X224582310Y-222535250D01*
X224475874Y-222503418D01*
X224475872Y-222503418D01*
X224467273Y-222500846D01*
X224458298Y-222500791D01*
X224458297Y-222500791D01*
X224403641Y-222500457D01*
X224338231Y-222500058D01*
X224286559Y-222514826D01*
X224222786Y-222533052D01*
X224222784Y-222533053D01*
X224214155Y-222535519D01*
X224206565Y-222540308D01*
X224116865Y-222596905D01*
X224105019Y-222604379D01*
X224099076Y-222611108D01*
X224099075Y-222611109D01*
X224074186Y-222639291D01*
X224019596Y-222701102D01*
X224015782Y-222709225D01*
X224015781Y-222709227D01*
X223996453Y-222750395D01*
X223964754Y-222817912D01*
X223961525Y-222838652D01*
X223946282Y-222936547D01*
X223946282Y-222936551D01*
X223944901Y-222945420D01*
X223946065Y-222954322D01*
X223946065Y-222954325D01*
X223960468Y-223064469D01*
X223960469Y-223064473D01*
X223961633Y-223073374D01*
X223981378Y-223118248D01*
X223999912Y-223160369D01*
X224013605Y-223191490D01*
X224019382Y-223198363D01*
X224019383Y-223198364D01*
X224069951Y-223258522D01*
X224098472Y-223323538D01*
X224099500Y-223339597D01*
X224099500Y-224123339D01*
X224079498Y-224191460D01*
X224062595Y-224212434D01*
X223512434Y-224762595D01*
X223450122Y-224796621D01*
X223423339Y-224799500D01*
X197652366Y-224799500D01*
X197649693Y-224799304D01*
X197644658Y-224797575D01*
X197633036Y-224798011D01*
X197633034Y-224798011D01*
X197595744Y-224799411D01*
X197591018Y-224799500D01*
X197572052Y-224799500D01*
X197567317Y-224800381D01*
X197563790Y-224800610D01*
X197559254Y-224800780D01*
X197532791Y-224801774D01*
X197522104Y-224806366D01*
X197517492Y-224807405D01*
X197505800Y-224810957D01*
X197501383Y-224812661D01*
X197489947Y-224814791D01*
X197468961Y-224827727D01*
X197452589Y-224836231D01*
X197438112Y-224842451D01*
X197438108Y-224842453D01*
X197429937Y-224845964D01*
X197425051Y-224849978D01*
X197422866Y-224852163D01*
X197420603Y-224854215D01*
X197420458Y-224854055D01*
X197411451Y-224861175D01*
X197404556Y-224867427D01*
X197394652Y-224873532D01*
X197378084Y-224895320D01*
X197366890Y-224908139D01*
X197262434Y-225012595D01*
X197200122Y-225046621D01*
X197173339Y-225049500D01*
X195241667Y-225049500D01*
X195173546Y-225029498D01*
X195152572Y-225012595D01*
X194284605Y-224144628D01*
X194282849Y-224142594D01*
X194280511Y-224137811D01*
X194244609Y-224104507D01*
X194241204Y-224101227D01*
X194227809Y-224087832D01*
X194223839Y-224085108D01*
X194221191Y-224082783D01*
X194206967Y-224069588D01*
X194206964Y-224069586D01*
X194198440Y-224061679D01*
X194187636Y-224057369D01*
X194183647Y-224054847D01*
X194172859Y-224049086D01*
X194168534Y-224047169D01*
X194158940Y-224040588D01*
X194147621Y-224037902D01*
X194147619Y-224037901D01*
X194134959Y-224034897D01*
X194117362Y-224029332D01*
X194102724Y-224023492D01*
X194102721Y-224023491D01*
X194094464Y-224020197D01*
X194088171Y-224019580D01*
X194085092Y-224019580D01*
X194082019Y-224019430D01*
X194082030Y-224019214D01*
X194070655Y-224017882D01*
X194061340Y-224017426D01*
X194050020Y-224014740D01*
X194038491Y-224016309D01*
X194038490Y-224016309D01*
X194022913Y-224018429D01*
X194005922Y-224019580D01*
X192526661Y-224019580D01*
X192458540Y-223999578D01*
X192437566Y-223982675D01*
X192347486Y-223892595D01*
X192313460Y-223830283D01*
X192318525Y-223759468D01*
X192361072Y-223702632D01*
X192427592Y-223677821D01*
X192436581Y-223677500D01*
X197731706Y-223677500D01*
X197742689Y-223677980D01*
X197769499Y-223680326D01*
X197769500Y-223680326D01*
X197780484Y-223681287D01*
X197817144Y-223671464D01*
X197827867Y-223669087D01*
X197830190Y-223668677D01*
X197865239Y-223662497D01*
X197874785Y-223656986D01*
X197878153Y-223655760D01*
X197881399Y-223654246D01*
X197892043Y-223651394D01*
X197923135Y-223629623D01*
X197932394Y-223623725D01*
X197955711Y-223610263D01*
X197965260Y-223604750D01*
X197989655Y-223575677D01*
X197997081Y-223567573D01*
X198224009Y-223340646D01*
X198286321Y-223306621D01*
X198295824Y-223305000D01*
X198304244Y-223305154D01*
X198312900Y-223302794D01*
X198312901Y-223302794D01*
X198420081Y-223273573D01*
X198420082Y-223273573D01*
X198428744Y-223271211D01*
X198436394Y-223266514D01*
X198436396Y-223266513D01*
X198531061Y-223208389D01*
X198531064Y-223208386D01*
X198538713Y-223203690D01*
X198554617Y-223186120D01*
X198619289Y-223114672D01*
X198619292Y-223114668D01*
X198625311Y-223108018D01*
X198681577Y-222991886D01*
X198683233Y-222982046D01*
X198702179Y-222869428D01*
X198702986Y-222864631D01*
X198703122Y-222853511D01*
X198692499Y-222779334D01*
X198686101Y-222734656D01*
X198686100Y-222734653D01*
X198684828Y-222725770D01*
X198679449Y-222713940D01*
X198635134Y-222616473D01*
X198635132Y-222616470D01*
X198631417Y-222608299D01*
X198579031Y-222547502D01*
X198553040Y-222517337D01*
X198553038Y-222517335D01*
X198547182Y-222510539D01*
X198438895Y-222440352D01*
X198430300Y-222437782D01*
X198430299Y-222437781D01*
X198323863Y-222405949D01*
X198323861Y-222405949D01*
X198315262Y-222403377D01*
X198306287Y-222403322D01*
X198306286Y-222403322D01*
X198251630Y-222402988D01*
X198186220Y-222402589D01*
X198139565Y-222415923D01*
X198070775Y-222435583D01*
X198070773Y-222435584D01*
X198062144Y-222438050D01*
X198054554Y-222442839D01*
X197963781Y-222500113D01*
X197953008Y-222506910D01*
X197947065Y-222513639D01*
X197947064Y-222513640D01*
X197925708Y-222537821D01*
X197867585Y-222603633D01*
X197863771Y-222611756D01*
X197863770Y-222611758D01*
X197850662Y-222639678D01*
X197812743Y-222720443D01*
X197810530Y-222734656D01*
X197805405Y-222767570D01*
X197775160Y-222831802D01*
X197714990Y-222869486D01*
X197643998Y-222868658D01*
X197584724Y-222829580D01*
X197555987Y-222764659D01*
X197555171Y-222756372D01*
X197555073Y-222754873D01*
X197555133Y-222750000D01*
X197552359Y-222730624D01*
X197538112Y-222631145D01*
X197538111Y-222631142D01*
X197536839Y-222622259D01*
X197533125Y-222614090D01*
X197487145Y-222512962D01*
X197487143Y-222512959D01*
X197483428Y-222504788D01*
X197425923Y-222438050D01*
X197405051Y-222413826D01*
X197405049Y-222413824D01*
X197399193Y-222407028D01*
X197290906Y-222336841D01*
X197282311Y-222334271D01*
X197282310Y-222334270D01*
X197175874Y-222302438D01*
X197175872Y-222302438D01*
X197167273Y-222299866D01*
X197158298Y-222299811D01*
X197158297Y-222299811D01*
X197103641Y-222299477D01*
X197038231Y-222299078D01*
X196976193Y-222316809D01*
X196922786Y-222332072D01*
X196922784Y-222332073D01*
X196914155Y-222334539D01*
X196906565Y-222339328D01*
X196805553Y-222403062D01*
X196738317Y-222422500D01*
X196659116Y-222422500D01*
X196590995Y-222402498D01*
X196544502Y-222348842D01*
X196534862Y-222275596D01*
X196553440Y-222165167D01*
X196554247Y-222160370D01*
X196554383Y-222149250D01*
X196541351Y-222058249D01*
X196537362Y-222030395D01*
X196537361Y-222030392D01*
X196536089Y-222021509D01*
X196530289Y-222008752D01*
X196486395Y-221912212D01*
X196486393Y-221912209D01*
X196482678Y-221904038D01*
X196439934Y-221854431D01*
X196404301Y-221813076D01*
X196404299Y-221813074D01*
X196398443Y-221806278D01*
X196290156Y-221736091D01*
X196281561Y-221733521D01*
X196281560Y-221733520D01*
X196175124Y-221701688D01*
X196175122Y-221701688D01*
X196166523Y-221699116D01*
X196157548Y-221699061D01*
X196157547Y-221699061D01*
X196102891Y-221698727D01*
X196037481Y-221698328D01*
X196025725Y-221701688D01*
X195922036Y-221731322D01*
X195922034Y-221731323D01*
X195913405Y-221733789D01*
X195804269Y-221802649D01*
X195780194Y-221829909D01*
X195720112Y-221867726D01*
X195685755Y-221872500D01*
X179619794Y-221872500D01*
X179608811Y-221872020D01*
X179582001Y-221869674D01*
X179582000Y-221869674D01*
X179571016Y-221868713D01*
X179534347Y-221878538D01*
X179523633Y-221880913D01*
X179486261Y-221887503D01*
X179476712Y-221893017D01*
X179473340Y-221894244D01*
X179470106Y-221895752D01*
X179459457Y-221898605D01*
X179428361Y-221920378D01*
X179419114Y-221926270D01*
X179386240Y-221945250D01*
X179379155Y-221953694D01*
X179361845Y-221974323D01*
X179354418Y-221982427D01*
X174890878Y-226445968D01*
X170451251Y-230885595D01*
X170388939Y-230919621D01*
X170362156Y-230922500D01*
X96760327Y-230922500D01*
X96691795Y-230902233D01*
X96666125Y-230885595D01*
X96590906Y-230836841D01*
X96582311Y-230834271D01*
X96582310Y-230834270D01*
X96475874Y-230802438D01*
X96475872Y-230802438D01*
X96467273Y-230799866D01*
X96458298Y-230799811D01*
X96458297Y-230799811D01*
X96403641Y-230799477D01*
X96338231Y-230799078D01*
X96326475Y-230802438D01*
X96222786Y-230832072D01*
X96222784Y-230832073D01*
X96214155Y-230834539D01*
X96206565Y-230839328D01*
X96133237Y-230885595D01*
X96105019Y-230903399D01*
X96099076Y-230910128D01*
X96099075Y-230910129D01*
X96032451Y-230985567D01*
X96019596Y-231000122D01*
X95964754Y-231116932D01*
X95960158Y-231146450D01*
X95946282Y-231235567D01*
X95946282Y-231235571D01*
X95944901Y-231244440D01*
X95946065Y-231253342D01*
X95946065Y-231253345D01*
X95960468Y-231363489D01*
X95960469Y-231363493D01*
X95961633Y-231372394D01*
X95971913Y-231395756D01*
X95981040Y-231466160D01*
X95950654Y-231530325D01*
X95890401Y-231567877D01*
X95856583Y-231572500D01*
X93419796Y-231572500D01*
X93408814Y-231572021D01*
X93371015Y-231568714D01*
X93360369Y-231571567D01*
X93360366Y-231571567D01*
X93334370Y-231578533D01*
X93323637Y-231580913D01*
X93316267Y-231582213D01*
X93286261Y-231587503D01*
X93276712Y-231593016D01*
X93273353Y-231594238D01*
X93270106Y-231595752D01*
X93259457Y-231598606D01*
X93250429Y-231604928D01*
X93250428Y-231604928D01*
X93228372Y-231620372D01*
X93219102Y-231626277D01*
X93195788Y-231639737D01*
X93195786Y-231639739D01*
X93186240Y-231645250D01*
X93179154Y-231653695D01*
X93161845Y-231674323D01*
X93154418Y-231682427D01*
X91982433Y-232854413D01*
X91974329Y-232861840D01*
X91945250Y-232886240D01*
X91939737Y-232895789D01*
X91926275Y-232919106D01*
X91920377Y-232928365D01*
X91898606Y-232959457D01*
X91895754Y-232970101D01*
X91894240Y-232973347D01*
X91893014Y-232976715D01*
X91887503Y-232986261D01*
X91885589Y-232997117D01*
X91880913Y-233023633D01*
X91878536Y-233034356D01*
X91868713Y-233071016D01*
X91869674Y-233081999D01*
X91872020Y-233108811D01*
X91872500Y-233119794D01*
X91872500Y-233842546D01*
X91852498Y-233910667D01*
X91840942Y-233925953D01*
X91819596Y-233950122D01*
X91764754Y-234066932D01*
X91755889Y-234123869D01*
X91746282Y-234185567D01*
X91746282Y-234185571D01*
X91744901Y-234194440D01*
X91746065Y-234203342D01*
X91746065Y-234203345D01*
X91760468Y-234313489D01*
X91760469Y-234313493D01*
X91761633Y-234322394D01*
X91765250Y-234330614D01*
X91806722Y-234424866D01*
X91813605Y-234440510D01*
X91819382Y-234447383D01*
X91819383Y-234447384D01*
X91886827Y-234527618D01*
X91896639Y-234539291D01*
X91904116Y-234544268D01*
X91991309Y-234602308D01*
X92004060Y-234610796D01*
X92127233Y-234649278D01*
X92136203Y-234649442D01*
X92136207Y-234649443D01*
X92194942Y-234650519D01*
X92256255Y-234651643D01*
X92336417Y-234629788D01*
X92372092Y-234620062D01*
X92372093Y-234620062D01*
X92380755Y-234617700D01*
X92388405Y-234613003D01*
X92388407Y-234613002D01*
X92483072Y-234554878D01*
X92483075Y-234554875D01*
X92490724Y-234550179D01*
X92500281Y-234539621D01*
X92571300Y-234461161D01*
X92571303Y-234461157D01*
X92577322Y-234454507D01*
X92633588Y-234338375D01*
X92637355Y-234315988D01*
X92654190Y-234215917D01*
X92654997Y-234211120D01*
X92655133Y-234200000D01*
X92636839Y-234072259D01*
X92619933Y-234035075D01*
X92595311Y-233980923D01*
X92583428Y-233954788D01*
X92558046Y-233925330D01*
X92528733Y-233860671D01*
X92527500Y-233843085D01*
X92527500Y-233287844D01*
X92547502Y-233219723D01*
X92564401Y-233198753D01*
X93498752Y-232264403D01*
X93561062Y-232230379D01*
X93587845Y-232227500D01*
X94021077Y-232227500D01*
X94089198Y-232247502D01*
X94135691Y-232301158D01*
X94145795Y-232371432D01*
X94142542Y-232385993D01*
X94139754Y-232391932D01*
X94138374Y-232400798D01*
X94138373Y-232400800D01*
X94121282Y-232510567D01*
X94121282Y-232510571D01*
X94119901Y-232519440D01*
X94121065Y-232528342D01*
X94121065Y-232528345D01*
X94135468Y-232638489D01*
X94135469Y-232638493D01*
X94136633Y-232647394D01*
X94140250Y-232655614D01*
X94183871Y-232754750D01*
X94188605Y-232765510D01*
X94194382Y-232772383D01*
X94194383Y-232772384D01*
X94233641Y-232819087D01*
X94271639Y-232864291D01*
X94295055Y-232879878D01*
X94368932Y-232929054D01*
X94379060Y-232935796D01*
X94454794Y-232959457D01*
X94491789Y-232971015D01*
X94502233Y-232974278D01*
X94511203Y-232974442D01*
X94511207Y-232974443D01*
X94569942Y-232975519D01*
X94631255Y-232976643D01*
X94727402Y-232950430D01*
X94747092Y-232945062D01*
X94747093Y-232945062D01*
X94755755Y-232942700D01*
X94763405Y-232938003D01*
X94763407Y-232938002D01*
X94858072Y-232879878D01*
X94858075Y-232879875D01*
X94865724Y-232875179D01*
X94871749Y-232868523D01*
X94878655Y-232862789D01*
X94879586Y-232863910D01*
X94931913Y-232831863D01*
X94964782Y-232827500D01*
X172080206Y-232827500D01*
X172091189Y-232827980D01*
X172117999Y-232830326D01*
X172118000Y-232830326D01*
X172128984Y-232831287D01*
X172165644Y-232821464D01*
X172176367Y-232819087D01*
X172178690Y-232818677D01*
X172213739Y-232812497D01*
X172223285Y-232806986D01*
X172226653Y-232805760D01*
X172229899Y-232804246D01*
X172240543Y-232801394D01*
X172271635Y-232779623D01*
X172280894Y-232773725D01*
X172304211Y-232760263D01*
X172313760Y-232754750D01*
X172338160Y-232725671D01*
X172345587Y-232717567D01*
X177013884Y-228049271D01*
X183996668Y-228049271D01*
X183996755Y-228053273D01*
X183996755Y-228053280D01*
X184003261Y-228351448D01*
X184003349Y-228355465D01*
X184048883Y-228658330D01*
X184049979Y-228662190D01*
X184049980Y-228662195D01*
X184086191Y-228789737D01*
X184132531Y-228952953D01*
X184252937Y-229234560D01*
X184408149Y-229498585D01*
X184595651Y-229740747D01*
X184812404Y-229957122D01*
X184815585Y-229959576D01*
X184815586Y-229959577D01*
X185051701Y-230141739D01*
X185051705Y-230141742D01*
X185054894Y-230144202D01*
X185058373Y-230146239D01*
X185288347Y-230280894D01*
X185319189Y-230298953D01*
X185322874Y-230300521D01*
X185322878Y-230300523D01*
X185442666Y-230351493D01*
X185601006Y-230418867D01*
X185895775Y-230502001D01*
X186116337Y-230534768D01*
X186195419Y-230546516D01*
X186195421Y-230546516D01*
X186198718Y-230547006D01*
X186202049Y-230547146D01*
X186202053Y-230547146D01*
X186238737Y-230548683D01*
X186282084Y-230550500D01*
X186477474Y-230550500D01*
X186600915Y-230542626D01*
X186701639Y-230536201D01*
X186701644Y-230536200D01*
X186705647Y-230535945D01*
X186709584Y-230535183D01*
X186709586Y-230535183D01*
X187002401Y-230478530D01*
X187002405Y-230478529D01*
X187006338Y-230477768D01*
X187297200Y-230381856D01*
X187573518Y-230249763D01*
X187830812Y-230083631D01*
X187859327Y-230059577D01*
X187984142Y-229954286D01*
X188064910Y-229886152D01*
X188272019Y-229660529D01*
X188448780Y-229410418D01*
X188592328Y-229139874D01*
X188594997Y-229132792D01*
X188698919Y-228857044D01*
X188698921Y-228857038D01*
X188700336Y-228853283D01*
X188721952Y-228762195D01*
X188770124Y-228559207D01*
X188770125Y-228559202D01*
X188771053Y-228555291D01*
X188803332Y-228250729D01*
X188803084Y-228239323D01*
X188796739Y-227948552D01*
X188796739Y-227948547D01*
X188796651Y-227944535D01*
X188795689Y-227938133D01*
X188791195Y-227908244D01*
X188751117Y-227641670D01*
X188749195Y-227634898D01*
X188696699Y-227450000D01*
X188667469Y-227347047D01*
X188664468Y-227340027D01*
X188627866Y-227254424D01*
X188547063Y-227065440D01*
X188391851Y-226801415D01*
X188204349Y-226559253D01*
X188045724Y-226400905D01*
X187990437Y-226345714D01*
X187987596Y-226342878D01*
X187956589Y-226318956D01*
X187748299Y-226158261D01*
X187748295Y-226158258D01*
X187745106Y-226155798D01*
X187708834Y-226134560D01*
X187484275Y-226003075D01*
X187484272Y-226003073D01*
X187480811Y-226001047D01*
X187477126Y-225999479D01*
X187477122Y-225999477D01*
X187286563Y-225918394D01*
X187198994Y-225881133D01*
X186904225Y-225797999D01*
X186660834Y-225761841D01*
X186604581Y-225753484D01*
X186604579Y-225753484D01*
X186601282Y-225752994D01*
X186597951Y-225752854D01*
X186597947Y-225752854D01*
X186561263Y-225751317D01*
X186517916Y-225749500D01*
X186322526Y-225749500D01*
X186203823Y-225757072D01*
X186098361Y-225763799D01*
X186098356Y-225763800D01*
X186094353Y-225764055D01*
X186090416Y-225764817D01*
X186090414Y-225764817D01*
X185797599Y-225821470D01*
X185797595Y-225821471D01*
X185793662Y-225822232D01*
X185502800Y-225918144D01*
X185226482Y-226050237D01*
X185223112Y-226052413D01*
X185016036Y-226186120D01*
X184969188Y-226216369D01*
X184966123Y-226218954D01*
X184966121Y-226218956D01*
X184873637Y-226296973D01*
X184735090Y-226413848D01*
X184589199Y-226572781D01*
X184541119Y-226625159D01*
X184527981Y-226639471D01*
X184525667Y-226642746D01*
X184525664Y-226642749D01*
X184503288Y-226674411D01*
X184351220Y-226889582D01*
X184244468Y-227090777D01*
X184211099Y-227153668D01*
X184207672Y-227160126D01*
X184206257Y-227163882D01*
X184206256Y-227163883D01*
X184114200Y-227408148D01*
X184099664Y-227446717D01*
X184098735Y-227450632D01*
X184034638Y-227720729D01*
X184028947Y-227744709D01*
X183996668Y-228049271D01*
X177013884Y-228049271D01*
X181348750Y-223714405D01*
X181411062Y-223680379D01*
X181437845Y-223677500D01*
X190939327Y-223677500D01*
X191007448Y-223697502D01*
X191053941Y-223751158D01*
X191063827Y-223822885D01*
X191046282Y-223935567D01*
X191046282Y-223935571D01*
X191044901Y-223944440D01*
X191046065Y-223953342D01*
X191046065Y-223953345D01*
X191060468Y-224063489D01*
X191060469Y-224063493D01*
X191061633Y-224072394D01*
X191074320Y-224101227D01*
X191100620Y-224160999D01*
X191109746Y-224231406D01*
X191079359Y-224295571D01*
X191030118Y-224326485D01*
X191030978Y-224328408D01*
X191022786Y-224332072D01*
X191014155Y-224334539D01*
X190905019Y-224403399D01*
X190899076Y-224410128D01*
X190899075Y-224410129D01*
X190870545Y-224442433D01*
X190819596Y-224500122D01*
X190764754Y-224616932D01*
X190760755Y-224642616D01*
X190746282Y-224735567D01*
X190746282Y-224735571D01*
X190744901Y-224744440D01*
X190746065Y-224753342D01*
X190746065Y-224753345D01*
X190760468Y-224863489D01*
X190760469Y-224863493D01*
X190761633Y-224872394D01*
X190768528Y-224888064D01*
X190807635Y-224976941D01*
X190813605Y-224990510D01*
X190819382Y-224997383D01*
X190819383Y-224997384D01*
X190877946Y-225067053D01*
X190896639Y-225089291D01*
X190931076Y-225112214D01*
X190962680Y-225133251D01*
X191004060Y-225160796D01*
X191069430Y-225181219D01*
X191128487Y-225220625D01*
X191156864Y-225285704D01*
X191156356Y-225320869D01*
X191153371Y-225340039D01*
X191147343Y-225378758D01*
X191144901Y-225394440D01*
X191146065Y-225403342D01*
X191146065Y-225403345D01*
X191160468Y-225513489D01*
X191160469Y-225513493D01*
X191161633Y-225522394D01*
X191181230Y-225566932D01*
X191209556Y-225631307D01*
X191213605Y-225640510D01*
X191219382Y-225647383D01*
X191219383Y-225647384D01*
X191288407Y-225729498D01*
X191296639Y-225739291D01*
X191404060Y-225810796D01*
X191527233Y-225849278D01*
X191536203Y-225849442D01*
X191536207Y-225849443D01*
X191594942Y-225850519D01*
X191656255Y-225851643D01*
X191755773Y-225824511D01*
X191772092Y-225820062D01*
X191772093Y-225820062D01*
X191780755Y-225817700D01*
X191788405Y-225813003D01*
X191788407Y-225813002D01*
X191883072Y-225754878D01*
X191883075Y-225754875D01*
X191890724Y-225750179D01*
X191898177Y-225741945D01*
X191899977Y-225740843D01*
X191903655Y-225737789D01*
X191904096Y-225738320D01*
X191958720Y-225704864D01*
X191991592Y-225700500D01*
X192173338Y-225700500D01*
X192241459Y-225720502D01*
X192262434Y-225737405D01*
X192642728Y-226117700D01*
X193000488Y-226475460D01*
X193002237Y-226477486D01*
X193004575Y-226482269D01*
X193040490Y-226515585D01*
X193043869Y-226518841D01*
X193057276Y-226532248D01*
X193061255Y-226534978D01*
X193063884Y-226537286D01*
X193086646Y-226558401D01*
X193097453Y-226562712D01*
X193101448Y-226565238D01*
X193112242Y-226571001D01*
X193116554Y-226572912D01*
X193126146Y-226579492D01*
X193137463Y-226582178D01*
X193137464Y-226582178D01*
X193150127Y-226585183D01*
X193167724Y-226590748D01*
X193182362Y-226596588D01*
X193182365Y-226596589D01*
X193190622Y-226599883D01*
X193196915Y-226600500D01*
X193199994Y-226600500D01*
X193203067Y-226600650D01*
X193203056Y-226600866D01*
X193214431Y-226602198D01*
X193223746Y-226602654D01*
X193235066Y-226605340D01*
X193246595Y-226603771D01*
X193246596Y-226603771D01*
X193262173Y-226601651D01*
X193279164Y-226600500D01*
X197432187Y-226600500D01*
X197500308Y-226620502D01*
X197546801Y-226674158D01*
X197556905Y-226744432D01*
X197527411Y-226809012D01*
X197515264Y-226821232D01*
X197415223Y-226908965D01*
X197411889Y-226911889D01*
X197230383Y-227118858D01*
X197077444Y-227347747D01*
X197075620Y-227351446D01*
X197075617Y-227351451D01*
X197021264Y-227461669D01*
X196955690Y-227594640D01*
X196954364Y-227598545D01*
X196954364Y-227598546D01*
X196871710Y-227842038D01*
X196867203Y-227855314D01*
X196866400Y-227859353D01*
X196866398Y-227859359D01*
X196814302Y-228121264D01*
X196813498Y-228125307D01*
X196813229Y-228129417D01*
X196813228Y-228129422D01*
X196798370Y-228356129D01*
X196795656Y-228397533D01*
X196794854Y-228400000D01*
X196799546Y-228414439D01*
X196799118Y-228429323D01*
X196800000Y-228435457D01*
X196800000Y-232384162D01*
X196794854Y-232400000D01*
X196798872Y-232412365D01*
X196798642Y-232413147D01*
X196799136Y-232413179D01*
X196784285Y-232639758D01*
X196782134Y-232656098D01*
X196778435Y-232674693D01*
X196738557Y-232875179D01*
X196736870Y-232883658D01*
X196732605Y-232899575D01*
X196719561Y-232938002D01*
X196658026Y-233119277D01*
X196651719Y-233134504D01*
X196549102Y-233342593D01*
X196540861Y-233356867D01*
X196411962Y-233549777D01*
X196401929Y-233562853D01*
X196248948Y-233737294D01*
X196237294Y-233748948D01*
X196062853Y-233901929D01*
X196049777Y-233911962D01*
X195985236Y-233955087D01*
X195856863Y-234040863D01*
X195842596Y-234049100D01*
X195736047Y-234101644D01*
X195634504Y-234151719D01*
X195619277Y-234158026D01*
X195555015Y-234179840D01*
X195399575Y-234232605D01*
X195383661Y-234236869D01*
X195288414Y-234255815D01*
X195156098Y-234282134D01*
X195139758Y-234284285D01*
X194913179Y-234299136D01*
X194913168Y-234298973D01*
X194912892Y-234299043D01*
X194900000Y-234294854D01*
X194884162Y-234300000D01*
X110915838Y-234300000D01*
X110900000Y-234294854D01*
X110897248Y-234295748D01*
X110876914Y-234296688D01*
X110524187Y-234312996D01*
X110524180Y-234312997D01*
X110521296Y-234313130D01*
X110500808Y-234315988D01*
X110148710Y-234365103D01*
X110148707Y-234365104D01*
X110145822Y-234365506D01*
X109943624Y-234413062D01*
X109779622Y-234451635D01*
X109779616Y-234451637D01*
X109776783Y-234452303D01*
X109417327Y-234572781D01*
X109070521Y-234725911D01*
X109067968Y-234727333D01*
X109067964Y-234727335D01*
X108773537Y-234891330D01*
X108739323Y-234910387D01*
X108426559Y-235124635D01*
X108424333Y-235126483D01*
X108424323Y-235126491D01*
X108166106Y-235340912D01*
X108134898Y-235366827D01*
X107866827Y-235634898D01*
X107864973Y-235637131D01*
X107864970Y-235637134D01*
X107626491Y-235924323D01*
X107626483Y-235924333D01*
X107624635Y-235926559D01*
X107410387Y-236239323D01*
X107408965Y-236241876D01*
X107228013Y-236566748D01*
X107225911Y-236570521D01*
X107072781Y-236917327D01*
X106952303Y-237276783D01*
X106865506Y-237645822D01*
X106865104Y-237648707D01*
X106865103Y-237648710D01*
X106841005Y-237821466D01*
X106813130Y-238021296D01*
X106812997Y-238024180D01*
X106812996Y-238024187D01*
X106797355Y-238362497D01*
X106795748Y-238397248D01*
X106794854Y-238400000D01*
X106800000Y-238415838D01*
X106800000Y-250384162D01*
X106794854Y-250400000D01*
X106799346Y-250413824D01*
X106799334Y-250413864D01*
X106799359Y-250413865D01*
X106788057Y-250658330D01*
X106783632Y-250754029D01*
X106782558Y-250765618D01*
X106734399Y-251110859D01*
X106732260Y-251122299D01*
X106664496Y-251410418D01*
X106652454Y-251461616D01*
X106649272Y-251472801D01*
X106636664Y-251510418D01*
X106538493Y-251803318D01*
X106534289Y-251814170D01*
X106393488Y-252133055D01*
X106388300Y-252143473D01*
X106218685Y-252447990D01*
X106212559Y-252457885D01*
X106015559Y-252745469D01*
X106008545Y-252754757D01*
X105785851Y-253022938D01*
X105778010Y-253031538D01*
X105531538Y-253278010D01*
X105522938Y-253285851D01*
X105254757Y-253508545D01*
X105245469Y-253515559D01*
X104957885Y-253712559D01*
X104947990Y-253718685D01*
X104643473Y-253888300D01*
X104633055Y-253893488D01*
X104314170Y-254034289D01*
X104303318Y-254038493D01*
X104197115Y-254074089D01*
X103972801Y-254149272D01*
X103961625Y-254152452D01*
X103643732Y-254227219D01*
X103622299Y-254232260D01*
X103610859Y-254234399D01*
X103265618Y-254282558D01*
X103254029Y-254283632D01*
X102915245Y-254299295D01*
X102915244Y-254299295D01*
X102913865Y-254299359D01*
X102900000Y-254294854D01*
X102884235Y-254299976D01*
X95492238Y-254288916D01*
X83920663Y-254271603D01*
X83920662Y-254271603D01*
X83915909Y-254271596D01*
X83900000Y-254266427D01*
X83886176Y-254270919D01*
X83886136Y-254270907D01*
X83886135Y-254270932D01*
X83545971Y-254255205D01*
X83534382Y-254254131D01*
X83189141Y-254205972D01*
X83177701Y-254203833D01*
X83156268Y-254198792D01*
X82838375Y-254124025D01*
X82827199Y-254120845D01*
X82602885Y-254045662D01*
X82496682Y-254010066D01*
X82485830Y-254005862D01*
X82166945Y-253865061D01*
X82156527Y-253859873D01*
X81852010Y-253690258D01*
X81842115Y-253684132D01*
X81554531Y-253487132D01*
X81545243Y-253480118D01*
X81277062Y-253257424D01*
X81268462Y-253249583D01*
X81021990Y-253003111D01*
X81014149Y-252994511D01*
X80791455Y-252726330D01*
X80784441Y-252717042D01*
X80587441Y-252429458D01*
X80581315Y-252419563D01*
X80559347Y-252380122D01*
X80513006Y-252296925D01*
X80411700Y-252115046D01*
X80406512Y-252104628D01*
X80265711Y-251785743D01*
X80261507Y-251774891D01*
X80171676Y-251506874D01*
X80150728Y-251444374D01*
X80147546Y-251433189D01*
X80142191Y-251410418D01*
X80067740Y-251093872D01*
X80065601Y-251082432D01*
X80017442Y-250737191D01*
X80016368Y-250725602D01*
X80001955Y-250413864D01*
X80000641Y-250385438D01*
X80005146Y-250371573D01*
X80000000Y-250355735D01*
X80000000Y-250149271D01*
X81496668Y-250149271D01*
X81496755Y-250153273D01*
X81496755Y-250153280D01*
X81503261Y-250451448D01*
X81503349Y-250455465D01*
X81548883Y-250758330D01*
X81549979Y-250762190D01*
X81549980Y-250762195D01*
X81576909Y-250857044D01*
X81632531Y-251052953D01*
X81752937Y-251334560D01*
X81908149Y-251598585D01*
X82095651Y-251840747D01*
X82312404Y-252057122D01*
X82315585Y-252059576D01*
X82315586Y-252059577D01*
X82551701Y-252241739D01*
X82551705Y-252241742D01*
X82554894Y-252244202D01*
X82567346Y-252251493D01*
X82789990Y-252381856D01*
X82819189Y-252398953D01*
X82822874Y-252400521D01*
X82822878Y-252400523D01*
X82934434Y-252447990D01*
X83101006Y-252518867D01*
X83395775Y-252602001D01*
X83616338Y-252634768D01*
X83695419Y-252646516D01*
X83695421Y-252646516D01*
X83698718Y-252647006D01*
X83702049Y-252647146D01*
X83702053Y-252647146D01*
X83738737Y-252648683D01*
X83782084Y-252650500D01*
X83977474Y-252650500D01*
X84100915Y-252642626D01*
X84201639Y-252636201D01*
X84201644Y-252636200D01*
X84205647Y-252635945D01*
X84209584Y-252635183D01*
X84209586Y-252635183D01*
X84502401Y-252578530D01*
X84502405Y-252578529D01*
X84506338Y-252577768D01*
X84797200Y-252481856D01*
X85073518Y-252349763D01*
X85330812Y-252183631D01*
X85377553Y-252144202D01*
X85561849Y-251988734D01*
X85564910Y-251986152D01*
X85772019Y-251760529D01*
X85783991Y-251743590D01*
X85888914Y-251595126D01*
X85948780Y-251510418D01*
X86092328Y-251239874D01*
X86111672Y-251188547D01*
X86198919Y-250957044D01*
X86198921Y-250957038D01*
X86200336Y-250953283D01*
X86244871Y-250765618D01*
X86270124Y-250659207D01*
X86270125Y-250659202D01*
X86271053Y-250655291D01*
X86303332Y-250350729D01*
X86301238Y-250254718D01*
X86296739Y-250048552D01*
X86296739Y-250048547D01*
X86296651Y-250044535D01*
X86251117Y-249741670D01*
X86222726Y-249641670D01*
X86168568Y-249450919D01*
X86167469Y-249447047D01*
X86047063Y-249165440D01*
X85891851Y-248901415D01*
X85704349Y-248659253D01*
X85487596Y-248442878D01*
X85354796Y-248340423D01*
X85248299Y-248258261D01*
X85248295Y-248258258D01*
X85245106Y-248255798D01*
X85068538Y-248152413D01*
X84984275Y-248103075D01*
X84984272Y-248103073D01*
X84980811Y-248101047D01*
X84977126Y-248099479D01*
X84977122Y-248099477D01*
X84790051Y-248019878D01*
X84698994Y-247981133D01*
X84404225Y-247897999D01*
X84174014Y-247863799D01*
X84104581Y-247853484D01*
X84104579Y-247853484D01*
X84101282Y-247852994D01*
X84097951Y-247852854D01*
X84097947Y-247852854D01*
X84061263Y-247851317D01*
X84017916Y-247849500D01*
X83822526Y-247849500D01*
X83699085Y-247857374D01*
X83598361Y-247863799D01*
X83598356Y-247863800D01*
X83594353Y-247864055D01*
X83590416Y-247864817D01*
X83590414Y-247864817D01*
X83297599Y-247921470D01*
X83297595Y-247921471D01*
X83293662Y-247922232D01*
X83002800Y-248018144D01*
X82726482Y-248150237D01*
X82469188Y-248316369D01*
X82466123Y-248318954D01*
X82466121Y-248318956D01*
X82437763Y-248342878D01*
X82235090Y-248513848D01*
X82027981Y-248739471D01*
X82025667Y-248742746D01*
X82025664Y-248742749D01*
X82017860Y-248753792D01*
X81851220Y-248989582D01*
X81707672Y-249260126D01*
X81706257Y-249263882D01*
X81706256Y-249263883D01*
X81635768Y-249450919D01*
X81599664Y-249546717D01*
X81598735Y-249550632D01*
X81554317Y-249737805D01*
X81528947Y-249844709D01*
X81496668Y-250149271D01*
X80000000Y-250149271D01*
X80000000Y-228149271D01*
X81796668Y-228149271D01*
X81796755Y-228153273D01*
X81796755Y-228153280D01*
X81802912Y-228435457D01*
X81803349Y-228455465D01*
X81848883Y-228758330D01*
X81849979Y-228762190D01*
X81849980Y-228762195D01*
X81876909Y-228857044D01*
X81932531Y-229052953D01*
X81934111Y-229056649D01*
X81934112Y-229056651D01*
X81944115Y-229080045D01*
X82052937Y-229334560D01*
X82208149Y-229598585D01*
X82395651Y-229840747D01*
X82612404Y-230057122D01*
X82615585Y-230059576D01*
X82615586Y-230059577D01*
X82851701Y-230241739D01*
X82851705Y-230241742D01*
X82854894Y-230244202D01*
X82867346Y-230251493D01*
X83089990Y-230381856D01*
X83119189Y-230398953D01*
X83122874Y-230400521D01*
X83122878Y-230400523D01*
X83158871Y-230415838D01*
X83401006Y-230518867D01*
X83695775Y-230602001D01*
X83916338Y-230634768D01*
X83995419Y-230646516D01*
X83995421Y-230646516D01*
X83998718Y-230647006D01*
X84002049Y-230647146D01*
X84002053Y-230647146D01*
X84036941Y-230648608D01*
X84082084Y-230650500D01*
X84277474Y-230650500D01*
X84400915Y-230642626D01*
X84501639Y-230636201D01*
X84501644Y-230636200D01*
X84505647Y-230635945D01*
X84509584Y-230635183D01*
X84509586Y-230635183D01*
X84802401Y-230578530D01*
X84802405Y-230578529D01*
X84806338Y-230577768D01*
X85097200Y-230481856D01*
X85373518Y-230349763D01*
X85542671Y-230240543D01*
X85627439Y-230185809D01*
X85627440Y-230185808D01*
X85630812Y-230183631D01*
X85645844Y-230170951D01*
X85826648Y-230018429D01*
X85864910Y-229986152D01*
X86072019Y-229760529D01*
X86083991Y-229743590D01*
X86224163Y-229545250D01*
X86248780Y-229510418D01*
X86392328Y-229239874D01*
X86417888Y-229172052D01*
X86498919Y-228957044D01*
X86498921Y-228957038D01*
X86500336Y-228953283D01*
X86530938Y-228824329D01*
X86570124Y-228659207D01*
X86570125Y-228659202D01*
X86571053Y-228655291D01*
X86603332Y-228350729D01*
X86602871Y-228329570D01*
X86596739Y-228048552D01*
X86596739Y-228048547D01*
X86596651Y-228044535D01*
X86551117Y-227741670D01*
X86531593Y-227672901D01*
X86490892Y-227529546D01*
X86467469Y-227447047D01*
X86347063Y-227165440D01*
X86191851Y-226901415D01*
X86004349Y-226659253D01*
X85842712Y-226497898D01*
X85790437Y-226445714D01*
X85787596Y-226442878D01*
X85746621Y-226411266D01*
X85548299Y-226258261D01*
X85548295Y-226258258D01*
X85545106Y-226255798D01*
X85408666Y-226175909D01*
X85284275Y-226103075D01*
X85284272Y-226103073D01*
X85280811Y-226101047D01*
X85277126Y-226099479D01*
X85277122Y-226099477D01*
X85090051Y-226019878D01*
X84998994Y-225981133D01*
X84704225Y-225897999D01*
X84440593Y-225858834D01*
X84404581Y-225853484D01*
X84404579Y-225853484D01*
X84401282Y-225852994D01*
X84397951Y-225852854D01*
X84397947Y-225852854D01*
X84361263Y-225851317D01*
X84317916Y-225849500D01*
X84122526Y-225849500D01*
X83999085Y-225857374D01*
X83898361Y-225863799D01*
X83898356Y-225863800D01*
X83894353Y-225864055D01*
X83890416Y-225864817D01*
X83890414Y-225864817D01*
X83597599Y-225921470D01*
X83597595Y-225921471D01*
X83593662Y-225922232D01*
X83302800Y-226018144D01*
X83026482Y-226150237D01*
X83017451Y-226156068D01*
X82785845Y-226305614D01*
X82769188Y-226316369D01*
X82766123Y-226318954D01*
X82766121Y-226318956D01*
X82737763Y-226342878D01*
X82535090Y-226513848D01*
X82327981Y-226739471D01*
X82325667Y-226742746D01*
X82325664Y-226742749D01*
X82311099Y-226763358D01*
X82151220Y-226989582D01*
X82007672Y-227260126D01*
X82006257Y-227263882D01*
X82006256Y-227263883D01*
X81909097Y-227521688D01*
X81899664Y-227546717D01*
X81898735Y-227550632D01*
X81833816Y-227824193D01*
X81828947Y-227844709D01*
X81796668Y-228149271D01*
X80000000Y-228149271D01*
X80000000Y-223415838D01*
X80005146Y-223400000D01*
X80000654Y-223386176D01*
X80000666Y-223386136D01*
X80000641Y-223386135D01*
X80015556Y-223063539D01*
X80016368Y-223045971D01*
X80017442Y-223034382D01*
X80065601Y-222689141D01*
X80067740Y-222677701D01*
X80084985Y-222604379D01*
X80147548Y-222338375D01*
X80150731Y-222327190D01*
X80158725Y-222303341D01*
X80226320Y-222101664D01*
X80261507Y-221996682D01*
X80265711Y-221985830D01*
X80406512Y-221666945D01*
X80411700Y-221656527D01*
X80581315Y-221352010D01*
X80587441Y-221342115D01*
X80784441Y-221054531D01*
X80791455Y-221045243D01*
X81014149Y-220777062D01*
X81021990Y-220768462D01*
X81268462Y-220521990D01*
X81277062Y-220514149D01*
X81545243Y-220291455D01*
X81554531Y-220284441D01*
X81842115Y-220087441D01*
X81852010Y-220081315D01*
X82156527Y-219911700D01*
X82166945Y-219906512D01*
X82485830Y-219765711D01*
X82496682Y-219761507D01*
X82757709Y-219674019D01*
X82827199Y-219650728D01*
X82838375Y-219647548D01*
X83177701Y-219567740D01*
X83189141Y-219565601D01*
X83534382Y-219517442D01*
X83545971Y-219516368D01*
X83886135Y-219500641D01*
X83900000Y-219505146D01*
X83915838Y-219500000D01*
X231800839Y-219500000D01*
X231868960Y-219520002D01*
G37*
G04 #@! TD.AperFunction*
G04 #@! TA.AperFunction,Conductor*
G36*
X193761060Y-225040102D02*
G01*
X193782034Y-225057005D01*
X194509434Y-225784405D01*
X194543460Y-225846717D01*
X194538395Y-225917532D01*
X194495848Y-225974368D01*
X194429328Y-225999179D01*
X194420339Y-225999500D01*
X193426661Y-225999500D01*
X193358540Y-225979498D01*
X193337566Y-225962595D01*
X192610166Y-225235195D01*
X192576140Y-225172883D01*
X192581205Y-225102068D01*
X192623752Y-225045232D01*
X192690272Y-225020421D01*
X192699261Y-225020100D01*
X193692939Y-225020100D01*
X193761060Y-225040102D01*
G37*
G04 #@! TD.AperFunction*
M02*
