%TF.GenerationSoftware,KiCad,Pcbnew,(6.0.2)*%
%TF.CreationDate,2022-03-02T13:17:23+03:00*%
%TF.ProjectId,Steel_form_Dish_washer PART 2,53746565-6c5f-4666-9f72-6d5f44697368,rev?*%
%TF.SameCoordinates,Original*%
%TF.FileFunction,Copper,L1,Top*%
%TF.FilePolarity,Positive*%
%FSLAX46Y46*%
G04 Gerber Fmt 4.6, Leading zero omitted, Abs format (unit mm)*
G04 Created by KiCad (PCBNEW (6.0.2)) date 2022-03-02 13:17:23*
%MOMM*%
%LPD*%
G01*
G04 APERTURE LIST*
G04 Aperture macros list*
%AMRoundRect*
0 Rectangle with rounded corners*
0 $1 Rounding radius*
0 $2 $3 $4 $5 $6 $7 $8 $9 X,Y pos of 4 corners*
0 Add a 4 corners polygon primitive as box body*
4,1,4,$2,$3,$4,$5,$6,$7,$8,$9,$2,$3,0*
0 Add four circle primitives for the rounded corners*
1,1,$1+$1,$2,$3*
1,1,$1+$1,$4,$5*
1,1,$1+$1,$6,$7*
1,1,$1+$1,$8,$9*
0 Add four rect primitives between the rounded corners*
20,1,$1+$1,$2,$3,$4,$5,0*
20,1,$1+$1,$4,$5,$6,$7,0*
20,1,$1+$1,$6,$7,$8,$9,0*
20,1,$1+$1,$8,$9,$2,$3,0*%
%AMFreePoly0*
4,1,14,0.354215,0.088284,0.450784,-0.008285,0.462500,-0.036569,0.462500,-0.060000,0.450784,-0.088284,0.422500,-0.100000,-0.422500,-0.100000,-0.450784,-0.088284,-0.462500,-0.060000,-0.462500,0.060000,-0.450784,0.088284,-0.422500,0.100000,0.325931,0.100000,0.354215,0.088284,0.354215,0.088284,$1*%
%AMFreePoly1*
4,1,14,0.450784,0.088284,0.462500,0.060000,0.462500,0.036569,0.450784,0.008285,0.354215,-0.088284,0.325931,-0.100000,-0.422500,-0.100000,-0.450784,-0.088284,-0.462500,-0.060000,-0.462500,0.060000,-0.450784,0.088284,-0.422500,0.100000,0.422500,0.100000,0.450784,0.088284,0.450784,0.088284,$1*%
%AMFreePoly2*
4,1,14,0.088284,0.450784,0.100000,0.422500,0.100000,-0.422500,0.088284,-0.450784,0.060000,-0.462500,-0.060000,-0.462500,-0.088284,-0.450784,-0.100000,-0.422500,-0.100000,0.325931,-0.088284,0.354215,0.008285,0.450784,0.036569,0.462500,0.060000,0.462500,0.088284,0.450784,0.088284,0.450784,$1*%
%AMFreePoly3*
4,1,14,-0.008285,0.450784,0.088284,0.354215,0.100000,0.325931,0.100000,-0.422500,0.088284,-0.450784,0.060000,-0.462500,-0.060000,-0.462500,-0.088284,-0.450784,-0.100000,-0.422500,-0.100000,0.422500,-0.088284,0.450784,-0.060000,0.462500,-0.036569,0.462500,-0.008285,0.450784,-0.008285,0.450784,$1*%
%AMFreePoly4*
4,1,14,0.450784,0.088284,0.462500,0.060000,0.462500,-0.060000,0.450784,-0.088284,0.422500,-0.100000,-0.325931,-0.100000,-0.354215,-0.088284,-0.450784,0.008285,-0.462500,0.036569,-0.462500,0.060000,-0.450784,0.088284,-0.422500,0.100000,0.422500,0.100000,0.450784,0.088284,0.450784,0.088284,$1*%
%AMFreePoly5*
4,1,14,0.450784,0.088284,0.462500,0.060000,0.462500,-0.060000,0.450784,-0.088284,0.422500,-0.100000,-0.422500,-0.100000,-0.450784,-0.088284,-0.462500,-0.060000,-0.462500,-0.036569,-0.450784,-0.008285,-0.354215,0.088284,-0.325931,0.100000,0.422500,0.100000,0.450784,0.088284,0.450784,0.088284,$1*%
%AMFreePoly6*
4,1,14,0.088284,0.450784,0.100000,0.422500,0.100000,-0.325931,0.088284,-0.354215,-0.008285,-0.450784,-0.036569,-0.462500,-0.060000,-0.462500,-0.088284,-0.450784,-0.100000,-0.422500,-0.100000,0.422500,-0.088284,0.450784,-0.060000,0.462500,0.060000,0.462500,0.088284,0.450784,0.088284,0.450784,$1*%
%AMFreePoly7*
4,1,14,0.088284,0.450784,0.100000,0.422500,0.100000,-0.422500,0.088284,-0.450784,0.060000,-0.462500,0.036569,-0.462500,0.008285,-0.450784,-0.088284,-0.354215,-0.100000,-0.325931,-0.100000,0.422500,-0.088284,0.450784,-0.060000,0.462500,0.060000,0.462500,0.088284,0.450784,0.088284,0.450784,$1*%
G04 Aperture macros list end*
%TA.AperFunction,SMDPad,CuDef*%
%ADD10RoundRect,0.200000X-0.275000X0.200000X-0.275000X-0.200000X0.275000X-0.200000X0.275000X0.200000X0*%
%TD*%
%TA.AperFunction,SMDPad,CuDef*%
%ADD11RoundRect,0.140000X0.170000X-0.140000X0.170000X0.140000X-0.170000X0.140000X-0.170000X-0.140000X0*%
%TD*%
%TA.AperFunction,SMDPad,CuDef*%
%ADD12RoundRect,0.140000X-0.170000X0.140000X-0.170000X-0.140000X0.170000X-0.140000X0.170000X0.140000X0*%
%TD*%
%TA.AperFunction,SMDPad,CuDef*%
%ADD13R,0.400000X0.600000*%
%TD*%
%TA.AperFunction,SMDPad,CuDef*%
%ADD14R,0.500000X0.700000*%
%TD*%
%TA.AperFunction,SMDPad,CuDef*%
%ADD15RoundRect,0.200000X0.200000X0.275000X-0.200000X0.275000X-0.200000X-0.275000X0.200000X-0.275000X0*%
%TD*%
%TA.AperFunction,SMDPad,CuDef*%
%ADD16FreePoly0,0.000000*%
%TD*%
%TA.AperFunction,SMDPad,CuDef*%
%ADD17RoundRect,0.050000X-0.412500X-0.050000X0.412500X-0.050000X0.412500X0.050000X-0.412500X0.050000X0*%
%TD*%
%TA.AperFunction,SMDPad,CuDef*%
%ADD18FreePoly1,0.000000*%
%TD*%
%TA.AperFunction,SMDPad,CuDef*%
%ADD19FreePoly2,0.000000*%
%TD*%
%TA.AperFunction,SMDPad,CuDef*%
%ADD20RoundRect,0.050000X-0.050000X-0.412500X0.050000X-0.412500X0.050000X0.412500X-0.050000X0.412500X0*%
%TD*%
%TA.AperFunction,SMDPad,CuDef*%
%ADD21FreePoly3,0.000000*%
%TD*%
%TA.AperFunction,SMDPad,CuDef*%
%ADD22FreePoly4,0.000000*%
%TD*%
%TA.AperFunction,SMDPad,CuDef*%
%ADD23FreePoly5,0.000000*%
%TD*%
%TA.AperFunction,SMDPad,CuDef*%
%ADD24FreePoly6,0.000000*%
%TD*%
%TA.AperFunction,SMDPad,CuDef*%
%ADD25FreePoly7,0.000000*%
%TD*%
%TA.AperFunction,SMDPad,CuDef*%
%ADD26RoundRect,0.135000X-0.185000X0.135000X-0.185000X-0.135000X0.185000X-0.135000X0.185000X0.135000X0*%
%TD*%
%TA.AperFunction,ComponentPad*%
%ADD27R,1.700000X1.700000*%
%TD*%
%TA.AperFunction,ComponentPad*%
%ADD28O,1.700000X1.700000*%
%TD*%
%TA.AperFunction,ComponentPad*%
%ADD29RoundRect,0.250000X-0.600000X0.600000X-0.600000X-0.600000X0.600000X-0.600000X0.600000X0.600000X0*%
%TD*%
%TA.AperFunction,ComponentPad*%
%ADD30C,1.700000*%
%TD*%
%TA.AperFunction,ViaPad*%
%ADD31C,0.500000*%
%TD*%
%TA.AperFunction,Conductor*%
%ADD32C,0.200000*%
%TD*%
%TA.AperFunction,Conductor*%
%ADD33C,0.500000*%
%TD*%
%TA.AperFunction,Conductor*%
%ADD34C,0.254000*%
%TD*%
%TA.AperFunction,Conductor*%
%ADD35C,0.304800*%
%TD*%
G04 APERTURE END LIST*
D10*
%TO.P,R50,1*%
%TO.N,/PCB 2/START_RED*%
X282800000Y-235350000D03*
%TO.P,R50,2*%
%TO.N,Net-(R50-Pad2)*%
X282800000Y-237000000D03*
%TD*%
%TO.P,R54,1*%
%TO.N,Net-(R54-Pad1)*%
X193400000Y-228880000D03*
%TO.P,R54,2*%
%TO.N,GND*%
X193400000Y-230530000D03*
%TD*%
D11*
%TO.P,C18,1*%
%TO.N,+3V3*%
X193100000Y-222430000D03*
%TO.P,C18,2*%
%TO.N,GND*%
X193100000Y-221470000D03*
%TD*%
D12*
%TO.P,C17,1*%
%TO.N,Net-(C17-Pad1)*%
X192000000Y-228670000D03*
%TO.P,C17,2*%
%TO.N,GND*%
X192000000Y-229630000D03*
%TD*%
D10*
%TO.P,R49,1*%
%TO.N,/PCB 2/START_BLU*%
X280950000Y-235325000D03*
%TO.P,R49,2*%
%TO.N,Net-(R49-Pad2)*%
X280950000Y-236975000D03*
%TD*%
D13*
%TO.P,U10,1,RA*%
%TO.N,Net-(R46-Pad2)*%
X93335000Y-239280000D03*
%TO.P,U10,2,RK*%
%TO.N,GND*%
X93335000Y-240630000D03*
D14*
%TO.P,U10,3,GA*%
%TO.N,Net-(R47-Pad2)*%
X94060000Y-239280000D03*
%TO.P,U10,4,GK*%
%TO.N,GND*%
X94060000Y-240630000D03*
D13*
%TO.P,U10,5,BA*%
%TO.N,Net-(R48-Pad2)*%
X94785000Y-239280000D03*
%TO.P,U10,6,BK*%
%TO.N,GND*%
X94785000Y-240630000D03*
%TD*%
D15*
%TO.P,R53,1*%
%TO.N,+3V3*%
X296950000Y-236450000D03*
%TO.P,R53,2*%
%TO.N,/PCB 2/SCL*%
X295300000Y-236450000D03*
%TD*%
%TO.P,R52,1*%
%TO.N,+3V3*%
X296925000Y-234800000D03*
%TO.P,R52,2*%
%TO.N,/PCB 2/SDA*%
X295275000Y-234800000D03*
%TD*%
D13*
%TO.P,U11,1,RA*%
%TO.N,Net-(R49-Pad2)*%
X281835000Y-239680000D03*
%TO.P,U11,2,RK*%
%TO.N,GND*%
X281835000Y-241030000D03*
D14*
%TO.P,U11,3,GA*%
%TO.N,Net-(R50-Pad2)*%
X282560000Y-239680000D03*
%TO.P,U11,4,GK*%
%TO.N,GND*%
X282560000Y-241030000D03*
D13*
%TO.P,U11,5,BA*%
%TO.N,Net-(R51-Pad2)*%
X283285000Y-239680000D03*
%TO.P,U11,6,BK*%
%TO.N,GND*%
X283285000Y-241030000D03*
%TD*%
D10*
%TO.P,R47,1*%
%TO.N,/PCB 2/RGB_ON{slash}OFF_RED*%
X94050000Y-235850000D03*
%TO.P,R47,2*%
%TO.N,Net-(R47-Pad2)*%
X94050000Y-237500000D03*
%TD*%
D16*
%TO.P,U12,1,~{IRQ}*%
%TO.N,/PCB 2/~{IRQ}*%
X192612500Y-224300000D03*
D17*
%TO.P,U12,2,SCL*%
%TO.N,/PCB 2/SCL*%
X192612500Y-224700000D03*
%TO.P,U12,3,SDA*%
%TO.N,/PCB 2/SDA*%
X192612500Y-225100000D03*
%TO.P,U12,4,ADDR*%
%TO.N,GND*%
X192612500Y-225500000D03*
D18*
%TO.P,U12,5,VREG*%
%TO.N,Net-(C17-Pad1)*%
X192612500Y-225900000D03*
D19*
%TO.P,U12,6,VSS*%
%TO.N,GND*%
X193200000Y-226487500D03*
D20*
%TO.P,U12,7,REXT*%
%TO.N,Net-(R54-Pad1)*%
X193600000Y-226487500D03*
%TO.P,U12,8,ELE0*%
%TO.N,/PCB 2/ON{slash}OFF*%
X194000000Y-226487500D03*
%TO.P,U12,9,ELE1*%
%TO.N,/PCB 2/MENU*%
X194400000Y-226487500D03*
D21*
%TO.P,U12,10,ELE2*%
%TO.N,/PCB 2/BACK*%
X194800000Y-226487500D03*
D22*
%TO.P,U12,11,ELE3*%
%TO.N,/PCB 2/LEFT*%
X195387500Y-225900000D03*
D17*
%TO.P,U12,12,LED0/ELE4*%
%TO.N,/PCB 2/SET*%
X195387500Y-225500000D03*
%TO.P,U12,13,LED1/ELE5*%
%TO.N,/PCB 2/RIGHT*%
X195387500Y-225100000D03*
%TO.P,U12,14,LED2/ELE6*%
%TO.N,/PCB 2/START*%
X195387500Y-224700000D03*
D23*
%TO.P,U12,15,LED3/ELE7*%
%TO.N,unconnected-(U12-Pad15)*%
X195387500Y-224300000D03*
D24*
%TO.P,U12,16,LED4/ELE8*%
%TO.N,unconnected-(U12-Pad16)*%
X194800000Y-223712500D03*
D20*
%TO.P,U12,17,LED5/ELE9*%
%TO.N,unconnected-(U12-Pad17)*%
X194400000Y-223712500D03*
%TO.P,U12,18,LED6/ELE10*%
%TO.N,unconnected-(U12-Pad18)*%
X194000000Y-223712500D03*
%TO.P,U12,19,LED7/ELE11*%
%TO.N,unconnected-(U12-Pad19)*%
X193600000Y-223712500D03*
D25*
%TO.P,U12,20,VDD*%
%TO.N,+3V3*%
X193200000Y-223712500D03*
%TD*%
D10*
%TO.P,R51,1*%
%TO.N,/PCB 2/START_GRN*%
X284450000Y-235350000D03*
%TO.P,R51,2*%
%TO.N,Net-(R51-Pad2)*%
X284450000Y-237000000D03*
%TD*%
D26*
%TO.P,R56,1*%
%TO.N,+3V3*%
X279500000Y-235030000D03*
%TO.P,R56,2*%
%TO.N,/PCB 2/SCREEN_RST*%
X279500000Y-236050000D03*
%TD*%
D10*
%TO.P,R48,1*%
%TO.N,/PCB 2/RGB_ON{slash}OFF_GRN*%
X95900000Y-235825000D03*
%TO.P,R48,2*%
%TO.N,Net-(R48-Pad2)*%
X95900000Y-237475000D03*
%TD*%
D15*
%TO.P,R55,1*%
%TO.N,+3V3*%
X296975000Y-238050000D03*
%TO.P,R55,2*%
%TO.N,/PCB 2/~{IRQ}*%
X295325000Y-238050000D03*
%TD*%
D10*
%TO.P,R46,1*%
%TO.N,/PCB 2/RGB_ON{slash}OFF_BLU*%
X92150000Y-235875000D03*
%TO.P,R46,2*%
%TO.N,Net-(R46-Pad2)*%
X92150000Y-237525000D03*
%TD*%
D27*
%TO.P,J19,1,Pin_1*%
%TO.N,+3V3*%
X276600000Y-250250000D03*
D28*
%TO.P,J19,2,Pin_2*%
%TO.N,GND*%
X276600000Y-247710000D03*
%TO.P,J19,3,Pin_3*%
%TO.N,/PCB 2/SDA*%
X276600000Y-245170000D03*
%TO.P,J19,4,Pin_4*%
%TO.N,/PCB 2/SCL*%
X276600000Y-242630000D03*
%TO.P,J19,5,Pin_5*%
%TO.N,GND*%
X276600000Y-240090000D03*
%TO.P,J19,6,Pin_6*%
X276600000Y-237550000D03*
%TO.P,J19,7,Pin_7*%
%TO.N,/PCB 2/SCREEN_RST*%
X276600000Y-235010000D03*
%TD*%
D29*
%TO.P,J18,1,Pin_1*%
%TO.N,+5V*%
X278300000Y-223950000D03*
D30*
%TO.P,J18,2,Pin_2*%
%TO.N,GND*%
X278300000Y-226490000D03*
%TO.P,J18,3,Pin_3*%
%TO.N,/PCB 2/mcu_~{IRQ}*%
X280840000Y-223950000D03*
%TO.P,J18,4,Pin_4*%
%TO.N,+3V3*%
X280840000Y-226490000D03*
%TO.P,J18,5,Pin_5*%
%TO.N,/PCB 2/mcu_SDA*%
X283380000Y-223950000D03*
%TO.P,J18,6,Pin_6*%
%TO.N,/PCB 2/mcu_SCL*%
X283380000Y-226490000D03*
%TO.P,J18,7,Pin_7*%
%TO.N,/PCB 2/RGB_ON{slash}OFF_BLU*%
X285920000Y-223950000D03*
%TO.P,J18,8,Pin_8*%
%TO.N,/PCB 2/RGB_ON{slash}OFF_RED*%
X285920000Y-226490000D03*
%TO.P,J18,9,Pin_9*%
%TO.N,/PCB 2/RGB_ON{slash}OFF_GRN*%
X288460000Y-223950000D03*
%TO.P,J18,10,Pin_10*%
%TO.N,/PCB 2/START_BLU*%
X288460000Y-226490000D03*
%TO.P,J18,11,Pin_11*%
%TO.N,/PCB 2/START_RED*%
X291000000Y-223950000D03*
%TO.P,J18,12,Pin_12*%
%TO.N,/PCB 2/START_GRN*%
X291000000Y-226490000D03*
%TO.P,J18,13,Pin_13*%
%TO.N,/PCB 2/mcu_SCREEN_RST*%
X293540000Y-223950000D03*
%TO.P,J18,14,Pin_14*%
%TO.N,GND*%
X293540000Y-226490000D03*
%TD*%
D31*
%TO.N,GND*%
X299850000Y-221200000D03*
X192450000Y-221500000D03*
X89550000Y-225150000D03*
X193750000Y-225450000D03*
X249600000Y-221050000D03*
X299850000Y-224350000D03*
X94150000Y-225150000D03*
X288450000Y-250350000D03*
X299900000Y-227400000D03*
X268000000Y-220850000D03*
X159950000Y-225150000D03*
X239100000Y-224850000D03*
X282850000Y-250350000D03*
X84500000Y-243100000D03*
X122100000Y-225150000D03*
X169550000Y-225250000D03*
X257900000Y-220950000D03*
X299900000Y-230000000D03*
X192700000Y-227550000D03*
X94000000Y-243250000D03*
X115000000Y-225100000D03*
X298950000Y-250400000D03*
X294250000Y-250400000D03*
X101900000Y-243250000D03*
%TO.N,+3V3*%
X290650000Y-240800000D03*
X268100000Y-222300000D03*
X290800000Y-235600000D03*
X275875000Y-227525000D03*
%TO.N,/PCB 2/ON{slash}OFF*%
X235889262Y-225049500D03*
%TO.N,/PCB 2/MENU*%
X236693779Y-224500000D03*
%TO.N,/PCB 2/BACK*%
X237300000Y-224050000D03*
%TO.N,/PCB 2/LEFT*%
X237850000Y-223600000D03*
%TO.N,/PCB 2/SET*%
X238400000Y-223150000D03*
%TO.N,/PCB 2/RIGHT*%
X230025000Y-223025000D03*
%TO.N,/PCB 2/START*%
X229250000Y-223350500D03*
%TO.N,/PCB 2/SCREEN_RST*%
X279600000Y-236750000D03*
%TO.N,/PCB 2/SCL*%
X225450000Y-222950980D03*
X191200000Y-224750000D03*
X279150000Y-244200000D03*
X293700000Y-236600000D03*
%TO.N,/PCB 2/SDA*%
X191600000Y-225400000D03*
X235300000Y-225700000D03*
X271225000Y-226175000D03*
X293575000Y-234875000D03*
%TO.N,/PCB 2/RGB_ON{slash}OFF_RED*%
X198247989Y-222853511D03*
X271375000Y-223175000D03*
X94575000Y-232525000D03*
%TO.N,/PCB 2/RGB_ON{slash}OFF_BLU*%
X92200000Y-234200000D03*
X197100000Y-222750000D03*
%TO.N,/PCB 2/RGB_ON{slash}OFF_GRN*%
X196099250Y-222149250D03*
X96400000Y-231250000D03*
%TO.N,/PCB 2/~{IRQ}*%
X224400000Y-222950980D03*
X191500000Y-223950000D03*
X293100000Y-237650000D03*
X275499500Y-231000000D03*
%TD*%
D32*
%TO.N,GND*%
X193700000Y-225500000D02*
X193750000Y-225450000D01*
D33*
X193100000Y-221470000D02*
X192480000Y-221470000D01*
D32*
X193200000Y-226487500D02*
X193200000Y-227050000D01*
D33*
X192480000Y-221470000D02*
X192450000Y-221500000D01*
D32*
X193200000Y-227050000D02*
X192700000Y-227550000D01*
X193650000Y-225500000D02*
X193700000Y-225500000D01*
X192612500Y-225500000D02*
X193650000Y-225500000D01*
D33*
%TO.N,+3V3*%
X291800000Y-235600000D02*
X293750000Y-233650000D01*
X297100000Y-233850000D02*
X297100000Y-234625000D01*
X194720000Y-222430000D02*
X193100000Y-222430000D01*
X278500000Y-237300000D02*
X278500000Y-235903364D01*
X279450000Y-231850000D02*
X279450000Y-234980000D01*
X268100000Y-222300000D02*
X242900000Y-222300000D01*
X280840000Y-229510000D02*
X277860000Y-229510000D01*
X278700000Y-250100000D02*
X278700000Y-246100000D01*
X280840000Y-230460000D02*
X279450000Y-231850000D01*
X196150000Y-221000000D02*
X194720000Y-222430000D01*
X298200000Y-240800000D02*
X298300000Y-240700000D01*
D32*
X193200000Y-222530000D02*
X193100000Y-222430000D01*
D33*
X276600000Y-250250000D02*
X278550000Y-250250000D01*
X290800000Y-235600000D02*
X291800000Y-235600000D01*
X298500000Y-235350000D02*
X297950000Y-234800000D01*
X224268238Y-219966440D02*
X223234678Y-221000000D01*
X298350000Y-236450000D02*
X298500000Y-236300000D01*
X240750000Y-220150000D02*
X231798070Y-220150000D01*
D32*
X193200000Y-223712500D02*
X193200000Y-222530000D01*
D33*
X290650000Y-240800000D02*
X298200000Y-240800000D01*
X297950000Y-234800000D02*
X296925000Y-234800000D01*
X298500000Y-240500000D02*
X298500000Y-237850000D01*
X279450000Y-234980000D02*
X279500000Y-235030000D01*
X298300000Y-238050000D02*
X298500000Y-237850000D01*
X293750000Y-233650000D02*
X296900000Y-233650000D01*
X242900000Y-222300000D02*
X240750000Y-220150000D01*
X297100000Y-234625000D02*
X296925000Y-234800000D01*
X298500000Y-237850000D02*
X298500000Y-236300000D01*
X298500000Y-236300000D02*
X298500000Y-235350000D01*
X278500000Y-235903364D02*
X279373364Y-235030000D01*
X280600000Y-244200000D02*
X280600000Y-239400000D01*
X278700000Y-246100000D02*
X280600000Y-244200000D01*
X280600000Y-239400000D02*
X278500000Y-237300000D01*
X279373364Y-235030000D02*
X279500000Y-235030000D01*
X231798070Y-220150000D02*
X231614510Y-219966440D01*
X298300000Y-240700000D02*
X298500000Y-240500000D01*
X223234678Y-221000000D02*
X196150000Y-221000000D01*
X292900000Y-246100000D02*
X298300000Y-240700000D01*
X280840000Y-229510000D02*
X280840000Y-230460000D01*
X296975000Y-238050000D02*
X298300000Y-238050000D01*
X296950000Y-236450000D02*
X298350000Y-236450000D01*
X231614510Y-219966440D02*
X224268238Y-219966440D01*
X278550000Y-250250000D02*
X278700000Y-250100000D01*
X280840000Y-226490000D02*
X280840000Y-229510000D01*
X277860000Y-229510000D02*
X275875000Y-227525000D01*
X296900000Y-233650000D02*
X297100000Y-233850000D01*
X278700000Y-246100000D02*
X292900000Y-246100000D01*
D32*
%TO.N,/PCB 2/ON{slash}OFF*%
X230427430Y-225897600D02*
X198283324Y-225897600D01*
X235350000Y-225000000D02*
X235839762Y-225000000D01*
X231325030Y-225000000D02*
X230427430Y-225897600D01*
X196280924Y-227900000D02*
X195600000Y-227900000D01*
X194000000Y-227550000D02*
X194350000Y-227900000D01*
X194000000Y-226487500D02*
X194000000Y-227550000D01*
X235839762Y-225000000D02*
X235889262Y-225049500D01*
X198283324Y-225897600D02*
X196280924Y-227900000D01*
X235889262Y-225000000D02*
X235350000Y-225000000D01*
X194350000Y-227900000D02*
X195600000Y-227900000D01*
X235350000Y-225000000D02*
X231325030Y-225000000D01*
X195050000Y-227900000D02*
X195600000Y-227900000D01*
%TO.N,/PCB 2/MENU*%
X198026882Y-225498080D02*
X196024962Y-227500000D01*
X194400000Y-227384994D02*
X194400000Y-226487500D01*
X194515006Y-227500000D02*
X194400000Y-227384994D01*
X231260024Y-224500000D02*
X230261944Y-225498080D01*
X236693779Y-224500000D02*
X231260024Y-224500000D01*
X236719279Y-224474500D02*
X236693779Y-224500000D01*
X196024962Y-227500000D02*
X194515006Y-227500000D01*
X230261944Y-225498080D02*
X198026882Y-225498080D01*
%TO.N,/PCB 2/BACK*%
X230096458Y-225098560D02*
X197861409Y-225098560D01*
X231245018Y-223950000D02*
X230096458Y-225098560D01*
X197861409Y-225098560D02*
X196472469Y-226487500D01*
X237300000Y-224050000D02*
X237200000Y-223950000D01*
X237200000Y-223950000D02*
X231245018Y-223950000D01*
X196472469Y-226487500D02*
X194800000Y-226487500D01*
%TO.N,/PCB 2/LEFT*%
X196494975Y-225900000D02*
X195387500Y-225900000D01*
X229930972Y-224699040D02*
X197695935Y-224699040D01*
X237850000Y-223600000D02*
X237750000Y-223500000D01*
X237750000Y-223500000D02*
X231130012Y-223500000D01*
X197695935Y-224699040D02*
X196494975Y-225900000D01*
X231130012Y-223500000D02*
X229930972Y-224699040D01*
%TO.N,/PCB 2/SET*%
X238300000Y-223050000D02*
X231015006Y-223050000D01*
X238400000Y-223150000D02*
X238300000Y-223050000D01*
X196280630Y-225499510D02*
X195387990Y-225499510D01*
X229765486Y-224299520D02*
X197480620Y-224299520D01*
X195387990Y-225499510D02*
X195387500Y-225500000D01*
X197480620Y-224299520D02*
X196280630Y-225499510D01*
X231015006Y-223050000D02*
X229765486Y-224299520D01*
%TO.N,/PCB 2/RIGHT*%
X197315147Y-223900000D02*
X229600000Y-223900000D01*
X230025000Y-223475000D02*
X230025000Y-223025000D01*
X229600000Y-223900000D02*
X230025000Y-223475000D01*
X196115146Y-225100000D02*
X197315147Y-223900000D01*
X195387500Y-225100000D02*
X196115146Y-225100000D01*
%TO.N,/PCB 2/START*%
X229250000Y-223375500D02*
X229125020Y-223500480D01*
X195950153Y-224700000D02*
X197125076Y-223525076D01*
X228799520Y-223500480D02*
X228949500Y-223350500D01*
X195387500Y-224700000D02*
X195950153Y-224700000D01*
X197149672Y-223500480D02*
X197125076Y-223525076D01*
X228949500Y-223350500D02*
X229250000Y-223350500D01*
X229125020Y-223500480D02*
X228799520Y-223500480D01*
X228799520Y-223500480D02*
X197149672Y-223500480D01*
D34*
%TO.N,/PCB 2/SCREEN_RST*%
X279500000Y-236400000D02*
X279500000Y-236050000D01*
X279600000Y-236750000D02*
X279600000Y-236500000D01*
X279600000Y-236500000D02*
X279500000Y-236400000D01*
D32*
%TO.N,/PCB 2/SCL*%
X274950000Y-228700000D02*
X274950000Y-240950000D01*
X225625000Y-222950980D02*
X225450000Y-222950980D01*
X225799958Y-222776022D02*
X229142151Y-222776021D01*
X229142151Y-222776021D02*
X229642150Y-222276022D01*
X191200000Y-224750000D02*
X191250000Y-224700000D01*
D34*
X295300000Y-236450000D02*
X293750000Y-236450000D01*
D32*
X238768074Y-222483080D02*
X241434994Y-225150000D01*
X192612500Y-224700000D02*
X191700000Y-224700000D01*
D34*
X274950000Y-240950000D02*
X275400000Y-241400000D01*
D32*
X191700000Y-224700000D02*
X191554900Y-224700000D01*
X230576022Y-222276022D02*
X230783080Y-222483080D01*
X225687990Y-222887990D02*
X225799958Y-222776022D01*
D34*
X279150000Y-242400000D02*
X279150000Y-244200000D01*
X278150000Y-241400000D02*
X279150000Y-242400000D01*
X293750000Y-236450000D02*
X293700000Y-236500000D01*
D32*
X271400000Y-225150000D02*
X274950000Y-228700000D01*
X225687990Y-222887990D02*
X225625000Y-222950980D01*
X191554900Y-224700000D02*
X191535300Y-224719600D01*
X225600000Y-222975980D02*
X225687990Y-222887990D01*
X191250000Y-224700000D02*
X191700000Y-224700000D01*
X229642150Y-222276022D02*
X230576022Y-222276022D01*
X230783080Y-222483080D02*
X238768074Y-222483080D01*
X241434994Y-225150000D02*
X271400000Y-225150000D01*
D34*
X275400000Y-241400000D02*
X278150000Y-241400000D01*
%TO.N,/PCB 2/SDA*%
X293575000Y-234875000D02*
X293525000Y-234925000D01*
D32*
X235350000Y-225650000D02*
X270700000Y-225650000D01*
X192612500Y-225100000D02*
X191900000Y-225100000D01*
D34*
X295275000Y-234800000D02*
X293650000Y-234800000D01*
D32*
X270700000Y-225650000D02*
X271225000Y-226175000D01*
D34*
X293650000Y-234800000D02*
X293575000Y-234875000D01*
D32*
X191900000Y-225100000D02*
X191600000Y-225400000D01*
D34*
%TO.N,/PCB 2/RGB_ON{slash}OFF_RED*%
X231207040Y-221657040D02*
X231000000Y-221450000D01*
X271400000Y-223150000D02*
X271375000Y-223175000D01*
X94575000Y-232525000D02*
X94050000Y-233050000D01*
X223537850Y-222853511D02*
X198247989Y-222853511D01*
X94050000Y-233050000D02*
X94050000Y-235850000D01*
X231000000Y-221450000D02*
X224941362Y-221450000D01*
X271375000Y-223175000D02*
X270450000Y-224100000D01*
X94600000Y-232500000D02*
X94575000Y-232525000D01*
X241650000Y-224100000D02*
X239207040Y-221657040D01*
X224941362Y-221450000D02*
X223537850Y-222853511D01*
X270450000Y-224100000D02*
X241650000Y-224100000D01*
X239207040Y-221657040D02*
X231207040Y-221657040D01*
%TO.N,/PCB 2/RGB_ON{slash}OFF_BLU*%
X231187854Y-220996480D02*
X224753520Y-220996480D01*
X224753520Y-220996480D02*
X223696480Y-222053520D01*
X285920000Y-223950000D02*
X284420000Y-222450000D01*
X284420000Y-222450000D02*
X270900000Y-222450000D01*
X239503520Y-221203520D02*
X231394894Y-221203520D01*
X92200000Y-235825000D02*
X92150000Y-235875000D01*
X241800000Y-223500000D02*
X239503520Y-221203520D01*
X269850000Y-223500000D02*
X241800000Y-223500000D01*
X223696480Y-222053520D02*
X197796480Y-222053520D01*
X197796480Y-222053520D02*
X197100000Y-222750000D01*
X270900000Y-222450000D02*
X269850000Y-223500000D01*
X92200000Y-234200000D02*
X92200000Y-235825000D01*
X231394894Y-221203520D02*
X231187854Y-220996480D01*
%TO.N,/PCB 2/START_RED*%
X282800000Y-233813839D02*
X289750000Y-226863839D01*
X289750000Y-226863839D02*
X289750000Y-225200000D01*
X289750000Y-225200000D02*
X291000000Y-223950000D01*
X282800000Y-235350000D02*
X282800000Y-233813839D01*
%TO.N,/PCB 2/RGB_ON{slash}OFF_GRN*%
X96400000Y-231250000D02*
X95900000Y-231750000D01*
X196648500Y-221600000D02*
X196099250Y-222149250D01*
X286860000Y-222350000D02*
X285750000Y-222350000D01*
X270400000Y-221900000D02*
X269350000Y-222950000D01*
X196074250Y-222174250D02*
X196050000Y-222198500D01*
X95900000Y-231750000D02*
X95900000Y-235825000D01*
X231582748Y-220750000D02*
X231375708Y-220542960D01*
X285750000Y-222350000D02*
X285300000Y-221900000D01*
X288460000Y-223950000D02*
X286860000Y-222350000D01*
X196099250Y-222149250D02*
X196074250Y-222174250D01*
X269350000Y-222950000D02*
X242000000Y-222950000D01*
X239800000Y-220750000D02*
X231582748Y-220750000D01*
X223450000Y-221600000D02*
X196648500Y-221600000D01*
X285300000Y-221900000D02*
X270400000Y-221900000D01*
X242000000Y-222950000D02*
X239800000Y-220750000D01*
X224507040Y-220542960D02*
X223450000Y-221600000D01*
X231375708Y-220542960D02*
X224507040Y-220542960D01*
%TO.N,/PCB 2/START_BLU*%
X288460000Y-226490000D02*
X280950000Y-234000000D01*
X280950000Y-234000000D02*
X280950000Y-235325000D01*
%TO.N,/PCB 2/START_GRN*%
X284450000Y-233040000D02*
X284450000Y-235350000D01*
X291000000Y-226490000D02*
X284450000Y-233040000D01*
%TO.N,/PCB 2/~{IRQ}*%
X275474500Y-230125500D02*
X275474500Y-230975000D01*
D32*
X224400000Y-222950980D02*
X224974469Y-222376511D01*
X230741517Y-221876511D02*
X230948566Y-222083560D01*
D34*
X275474500Y-230975000D02*
X275499500Y-231000000D01*
X295325000Y-238050000D02*
X293500000Y-238050000D01*
D32*
X238933560Y-222083560D02*
X241600000Y-224750000D01*
X230948566Y-222083560D02*
X238933560Y-222083560D01*
X229476667Y-221876511D02*
X230741517Y-221876511D01*
X191850000Y-224300000D02*
X191500000Y-223950000D01*
X241600000Y-224750000D02*
X271700000Y-224750000D01*
X271700000Y-224750000D02*
X275474500Y-228524500D01*
D34*
X293500000Y-238050000D02*
X293100000Y-237650000D01*
D32*
X275474500Y-228524500D02*
X275474500Y-230125500D01*
X224974469Y-222376511D02*
X228976667Y-222376511D01*
X228976667Y-222376511D02*
X229476667Y-221876511D01*
X192612500Y-224300000D02*
X191850000Y-224300000D01*
%TO.N,Net-(C17-Pad1)*%
X192150000Y-225900000D02*
X192612500Y-225900000D01*
X192000000Y-228670000D02*
X192000000Y-228200000D01*
X191800000Y-226250000D02*
X192150000Y-225900000D01*
X192000000Y-228200000D02*
X191800000Y-228000000D01*
X191800000Y-228000000D02*
X191800000Y-226250000D01*
D35*
%TO.N,Net-(R46-Pad2)*%
X93335000Y-238935000D02*
X93335000Y-239280000D01*
X92150000Y-237750000D02*
X93335000Y-238935000D01*
X92150000Y-237525000D02*
X92150000Y-237750000D01*
%TO.N,Net-(R47-Pad2)*%
X94060000Y-239280000D02*
X94060000Y-237510000D01*
X94060000Y-237510000D02*
X94050000Y-237500000D01*
%TO.N,Net-(R48-Pad2)*%
X95200000Y-238400000D02*
X95600000Y-238400000D01*
X95900000Y-238100000D02*
X95900000Y-237475000D01*
X94785000Y-239280000D02*
X94785000Y-238815000D01*
X95600000Y-238400000D02*
X95900000Y-238100000D01*
X94785000Y-238815000D02*
X95200000Y-238400000D01*
%TO.N,Net-(R49-Pad2)*%
X280950000Y-238100000D02*
X280950000Y-236975000D01*
X281835000Y-239680000D02*
X281835000Y-238985000D01*
X281835000Y-238985000D02*
X280950000Y-238100000D01*
%TO.N,Net-(R50-Pad2)*%
X282560000Y-238640000D02*
X282800000Y-238400000D01*
X282800000Y-238400000D02*
X282800000Y-237000000D01*
X282560000Y-239680000D02*
X282560000Y-238640000D01*
%TO.N,Net-(R51-Pad2)*%
X283285000Y-239680000D02*
X283285000Y-238865000D01*
X283950000Y-238200000D02*
X284150000Y-238200000D01*
X283950000Y-238200000D02*
X284200000Y-238200000D01*
X283300000Y-238850000D02*
X283950000Y-238200000D01*
X284450000Y-237900000D02*
X284450000Y-237000000D01*
X283285000Y-238865000D02*
X283300000Y-238850000D01*
X284150000Y-238200000D02*
X284450000Y-237900000D01*
D32*
%TO.N,Net-(R54-Pad1)*%
X193400000Y-228880000D02*
X193400000Y-227950000D01*
X193600000Y-227750000D02*
X193600000Y-226487500D01*
X193400000Y-227950000D02*
X193600000Y-227750000D01*
%TD*%
%TA.AperFunction,Conductor*%
%TO.N,GND*%
G36*
X305900000Y-219505146D02*
G01*
X305913824Y-219500654D01*
X305913864Y-219500666D01*
X305913865Y-219500641D01*
X306244772Y-219515940D01*
X306254029Y-219516368D01*
X306265618Y-219517442D01*
X306610859Y-219565601D01*
X306622299Y-219567740D01*
X306961625Y-219647548D01*
X306972801Y-219650728D01*
X307111340Y-219697162D01*
X307303318Y-219761507D01*
X307314170Y-219765711D01*
X307633055Y-219906512D01*
X307643473Y-219911700D01*
X307947990Y-220081315D01*
X307957885Y-220087441D01*
X308245469Y-220284441D01*
X308254757Y-220291455D01*
X308522938Y-220514149D01*
X308531538Y-220521990D01*
X308778010Y-220768462D01*
X308785851Y-220777062D01*
X309008545Y-221045243D01*
X309015559Y-221054531D01*
X309212559Y-221342115D01*
X309218685Y-221352010D01*
X309388300Y-221656527D01*
X309393488Y-221666945D01*
X309534289Y-221985830D01*
X309538493Y-221996682D01*
X309587473Y-222142816D01*
X309645841Y-222316961D01*
X309649269Y-222327190D01*
X309652452Y-222338375D01*
X309716313Y-222609900D01*
X309732260Y-222677701D01*
X309734399Y-222689141D01*
X309782558Y-223034382D01*
X309783632Y-223045971D01*
X309799359Y-223386135D01*
X309794854Y-223400000D01*
X309800000Y-223415838D01*
X309800000Y-250384162D01*
X309794854Y-250400000D01*
X309799346Y-250413824D01*
X309799334Y-250413864D01*
X309799359Y-250413865D01*
X309788057Y-250658330D01*
X309783632Y-250754029D01*
X309782558Y-250765618D01*
X309734399Y-251110859D01*
X309732260Y-251122299D01*
X309664496Y-251410418D01*
X309652454Y-251461616D01*
X309649272Y-251472801D01*
X309636664Y-251510418D01*
X309538493Y-251803318D01*
X309534289Y-251814170D01*
X309393488Y-252133055D01*
X309388300Y-252143473D01*
X309218685Y-252447990D01*
X309212559Y-252457885D01*
X309015559Y-252745469D01*
X309008545Y-252754757D01*
X308785851Y-253022938D01*
X308778010Y-253031538D01*
X308531538Y-253278010D01*
X308522938Y-253285851D01*
X308254757Y-253508545D01*
X308245469Y-253515559D01*
X307957885Y-253712559D01*
X307947990Y-253718685D01*
X307643473Y-253888300D01*
X307633055Y-253893488D01*
X307314170Y-254034289D01*
X307303318Y-254038493D01*
X307197115Y-254074089D01*
X306972801Y-254149272D01*
X306961625Y-254152452D01*
X306643732Y-254227219D01*
X306622299Y-254232260D01*
X306610859Y-254234399D01*
X306265618Y-254282558D01*
X306254029Y-254283632D01*
X305913865Y-254299359D01*
X305900000Y-254294854D01*
X305884162Y-254300000D01*
X275915838Y-254300000D01*
X275900000Y-254294854D01*
X275886176Y-254299346D01*
X275886136Y-254299334D01*
X275886135Y-254299359D01*
X275545971Y-254283632D01*
X275534382Y-254282558D01*
X275189141Y-254234399D01*
X275177701Y-254232260D01*
X275156268Y-254227219D01*
X274838375Y-254152452D01*
X274827199Y-254149272D01*
X274602885Y-254074089D01*
X274496682Y-254038493D01*
X274485830Y-254034289D01*
X274166945Y-253893488D01*
X274156527Y-253888300D01*
X273852010Y-253718685D01*
X273842115Y-253712559D01*
X273554531Y-253515559D01*
X273545243Y-253508545D01*
X273277062Y-253285851D01*
X273268462Y-253278010D01*
X273021990Y-253031538D01*
X273014149Y-253022938D01*
X272791455Y-252754757D01*
X272784441Y-252745469D01*
X272587441Y-252457885D01*
X272581315Y-252447990D01*
X272411700Y-252143473D01*
X272406512Y-252133055D01*
X272265711Y-251814170D01*
X272261507Y-251803318D01*
X272163336Y-251510418D01*
X272150728Y-251472801D01*
X272147546Y-251461616D01*
X272135505Y-251410418D01*
X272067740Y-251122299D01*
X272065601Y-251110859D01*
X272017442Y-250765618D01*
X272016368Y-250754029D01*
X272011984Y-250659207D01*
X272000641Y-250413865D01*
X272005146Y-250400000D01*
X272000000Y-250384162D01*
X272000000Y-247444183D01*
X275264389Y-247444183D01*
X275265912Y-247452607D01*
X275278292Y-247456000D01*
X277918344Y-247456000D01*
X277931875Y-247452027D01*
X277933180Y-247442947D01*
X277891214Y-247275875D01*
X277887894Y-247266124D01*
X277802972Y-247070814D01*
X277798105Y-247061739D01*
X277682426Y-246882926D01*
X277676136Y-246874757D01*
X277532806Y-246717240D01*
X277525273Y-246710215D01*
X277358139Y-246578222D01*
X277349552Y-246572517D01*
X277163117Y-246469599D01*
X277153705Y-246465369D01*
X276962031Y-246397493D01*
X276904495Y-246355899D01*
X276878579Y-246289801D01*
X276892513Y-246220185D01*
X276941872Y-246169154D01*
X276970206Y-246157362D01*
X276975790Y-246155803D01*
X276975799Y-246155800D01*
X276981725Y-246154145D01*
X276987214Y-246151372D01*
X276987220Y-246151370D01*
X277160116Y-246064033D01*
X277165610Y-246061258D01*
X277185556Y-246045675D01*
X277323101Y-245938213D01*
X277327951Y-245934424D01*
X277363162Y-245893632D01*
X277458540Y-245783134D01*
X277458540Y-245783133D01*
X277462564Y-245778472D01*
X277474622Y-245757247D01*
X277561276Y-245604707D01*
X277564323Y-245599344D01*
X277629351Y-245403863D01*
X277655171Y-245199474D01*
X277655583Y-245170000D01*
X277635480Y-244964970D01*
X277575935Y-244767749D01*
X277479218Y-244585849D01*
X277378199Y-244461988D01*
X277352906Y-244430975D01*
X277352903Y-244430972D01*
X277349011Y-244426200D01*
X277335742Y-244415223D01*
X277195025Y-244298811D01*
X277195021Y-244298809D01*
X277190275Y-244294882D01*
X277026368Y-244206258D01*
X277014474Y-244199827D01*
X277009055Y-244196897D01*
X276812254Y-244135977D01*
X276806129Y-244135333D01*
X276806128Y-244135333D01*
X276613498Y-244115087D01*
X276613496Y-244115087D01*
X276607369Y-244114443D01*
X276520529Y-244122346D01*
X276408342Y-244132555D01*
X276408339Y-244132556D01*
X276402203Y-244133114D01*
X276204572Y-244191280D01*
X276199107Y-244194137D01*
X276113287Y-244239003D01*
X276022002Y-244286726D01*
X276017201Y-244290586D01*
X276017198Y-244290588D01*
X275880684Y-244400348D01*
X275861447Y-244415815D01*
X275729024Y-244573630D01*
X275726056Y-244579028D01*
X275726053Y-244579033D01*
X275632743Y-244748765D01*
X275629776Y-244754162D01*
X275567484Y-244950532D01*
X275566798Y-244956649D01*
X275566797Y-244956653D01*
X275545207Y-245149137D01*
X275544520Y-245155262D01*
X275561759Y-245360553D01*
X275618544Y-245558586D01*
X275621359Y-245564063D01*
X275621360Y-245564066D01*
X275665267Y-245649500D01*
X275712712Y-245741818D01*
X275840677Y-245903270D01*
X275997564Y-246036791D01*
X276177398Y-246137297D01*
X276242437Y-246158429D01*
X276301042Y-246198502D01*
X276328680Y-246263898D01*
X276316574Y-246333855D01*
X276268568Y-246386162D01*
X276242646Y-246398027D01*
X276076868Y-246452212D01*
X276067359Y-246456209D01*
X275878463Y-246554542D01*
X275869738Y-246560036D01*
X275699433Y-246687905D01*
X275691726Y-246694748D01*
X275544590Y-246848717D01*
X275538104Y-246856727D01*
X275418098Y-247032649D01*
X275413000Y-247041623D01*
X275323338Y-247234783D01*
X275319775Y-247244470D01*
X275264389Y-247444183D01*
X272000000Y-247444183D01*
X272000000Y-230415838D01*
X272005146Y-230400000D01*
X272004252Y-230397248D01*
X272002779Y-230365396D01*
X271987004Y-230024187D01*
X271987003Y-230024180D01*
X271986870Y-230021296D01*
X271951094Y-229764824D01*
X271934897Y-229648710D01*
X271934896Y-229648707D01*
X271934494Y-229645822D01*
X271847697Y-229276783D01*
X271727219Y-228917327D01*
X271574089Y-228570521D01*
X271566856Y-228557534D01*
X271391035Y-228241876D01*
X271389613Y-228239323D01*
X271175365Y-227926559D01*
X271173517Y-227924333D01*
X271173509Y-227924323D01*
X270935030Y-227637134D01*
X270935027Y-227637131D01*
X270933173Y-227634898D01*
X270665102Y-227366827D01*
X270662866Y-227364970D01*
X270375677Y-227126491D01*
X270375667Y-227126483D01*
X270373441Y-227124635D01*
X270060677Y-226910387D01*
X269960411Y-226854539D01*
X269732036Y-226727335D01*
X269732032Y-226727333D01*
X269729479Y-226725911D01*
X269382673Y-226572781D01*
X269023217Y-226452303D01*
X269020384Y-226451637D01*
X269020378Y-226451635D01*
X268831833Y-226407290D01*
X268654178Y-226365506D01*
X268651293Y-226365104D01*
X268651290Y-226365103D01*
X268402710Y-226330428D01*
X268278704Y-226313130D01*
X268275820Y-226312997D01*
X268275813Y-226312996D01*
X267929255Y-226296973D01*
X267929254Y-226296973D01*
X267902752Y-226295748D01*
X267900000Y-226294854D01*
X267884162Y-226300000D01*
X235629867Y-226300000D01*
X235561746Y-226279998D01*
X235515253Y-226226342D01*
X235505149Y-226156068D01*
X235534643Y-226091488D01*
X235563939Y-226066625D01*
X235583072Y-226054878D01*
X235583075Y-226054875D01*
X235590724Y-226050179D01*
X235600580Y-226039291D01*
X235643435Y-225991945D01*
X235703978Y-225954863D01*
X235736850Y-225950500D01*
X270523339Y-225950500D01*
X270591460Y-225970502D01*
X270612434Y-225987405D01*
X270735918Y-226110889D01*
X270769944Y-226173201D01*
X270771758Y-226183642D01*
X270786633Y-226297394D01*
X270797218Y-226321450D01*
X270820548Y-226374471D01*
X270838605Y-226415510D01*
X270844382Y-226422383D01*
X270844383Y-226422384D01*
X270861610Y-226442878D01*
X270921639Y-226514291D01*
X271029060Y-226585796D01*
X271152233Y-226624278D01*
X271161203Y-226624442D01*
X271161207Y-226624443D01*
X271219942Y-226625519D01*
X271281255Y-226626643D01*
X271343505Y-226609672D01*
X271397092Y-226595062D01*
X271397093Y-226595062D01*
X271405755Y-226592700D01*
X271413405Y-226588003D01*
X271413407Y-226588002D01*
X271508072Y-226529878D01*
X271508075Y-226529875D01*
X271515724Y-226525179D01*
X271521750Y-226518522D01*
X271596300Y-226436161D01*
X271596303Y-226436157D01*
X271602322Y-226429507D01*
X271658588Y-226313375D01*
X271661348Y-226296973D01*
X271679190Y-226190917D01*
X271679997Y-226186120D01*
X271680133Y-226175000D01*
X271679442Y-226170176D01*
X271679188Y-226166271D01*
X271694721Y-226096994D01*
X271745242Y-226047113D01*
X271814711Y-226032464D01*
X271881072Y-226057698D01*
X271894017Y-226068988D01*
X274612595Y-228787566D01*
X274646621Y-228849878D01*
X274649500Y-228876661D01*
X274649500Y-240791562D01*
X274637696Y-240844809D01*
X274628780Y-240863930D01*
X274625789Y-240898115D01*
X274622946Y-240930611D01*
X274618713Y-240978984D01*
X274648606Y-241090543D01*
X274654928Y-241099571D01*
X274654928Y-241099572D01*
X274692826Y-241153695D01*
X274698163Y-241161317D01*
X274702053Y-241165207D01*
X275154424Y-241617579D01*
X275161849Y-241625682D01*
X275186240Y-241654750D01*
X275195786Y-241660261D01*
X275195788Y-241660263D01*
X275219102Y-241673723D01*
X275228371Y-241679628D01*
X275259457Y-241701394D01*
X275270101Y-241704246D01*
X275273347Y-241705760D01*
X275276715Y-241706986D01*
X275286261Y-241712497D01*
X275321310Y-241718677D01*
X275323633Y-241719087D01*
X275334356Y-241721464D01*
X275371016Y-241731287D01*
X275382000Y-241730326D01*
X275382001Y-241730326D01*
X275408811Y-241727980D01*
X275419794Y-241727500D01*
X275715691Y-241727500D01*
X275783812Y-241747502D01*
X275830305Y-241801158D01*
X275840409Y-241871432D01*
X275812213Y-241934489D01*
X275729024Y-242033630D01*
X275726056Y-242039028D01*
X275726053Y-242039033D01*
X275719315Y-242051290D01*
X275629776Y-242214162D01*
X275567484Y-242410532D01*
X275566798Y-242416649D01*
X275566797Y-242416653D01*
X275553449Y-242535655D01*
X275544520Y-242615262D01*
X275561759Y-242820553D01*
X275618544Y-243018586D01*
X275621359Y-243024063D01*
X275621360Y-243024066D01*
X275642247Y-243064707D01*
X275712712Y-243201818D01*
X275840677Y-243363270D01*
X275997564Y-243496791D01*
X276177398Y-243597297D01*
X276272238Y-243628112D01*
X276367471Y-243659056D01*
X276367475Y-243659057D01*
X276373329Y-243660959D01*
X276577894Y-243685351D01*
X276584029Y-243684879D01*
X276584031Y-243684879D01*
X276640039Y-243680569D01*
X276783300Y-243669546D01*
X276789230Y-243667890D01*
X276789232Y-243667890D01*
X276975797Y-243615800D01*
X276975796Y-243615800D01*
X276981725Y-243614145D01*
X276987214Y-243611372D01*
X276987220Y-243611370D01*
X277160116Y-243524033D01*
X277165610Y-243521258D01*
X277327951Y-243394424D01*
X277462564Y-243238472D01*
X277483387Y-243201818D01*
X277561276Y-243064707D01*
X277564323Y-243059344D01*
X277629351Y-242863863D01*
X277655171Y-242659474D01*
X277655583Y-242630000D01*
X277635480Y-242424970D01*
X277575935Y-242227749D01*
X277479218Y-242045849D01*
X277469253Y-242033630D01*
X277387291Y-241933136D01*
X277359737Y-241867704D01*
X277371932Y-241797763D01*
X277420005Y-241745518D01*
X277484934Y-241727500D01*
X277962155Y-241727500D01*
X278030276Y-241747502D01*
X278051251Y-241764405D01*
X278785596Y-242498751D01*
X278819621Y-242561063D01*
X278822500Y-242587846D01*
X278822500Y-243842546D01*
X278802498Y-243910667D01*
X278790942Y-243925953D01*
X278769596Y-243950122D01*
X278765782Y-243958245D01*
X278765781Y-243958247D01*
X278763568Y-243962961D01*
X278714754Y-244066932D01*
X278707256Y-244115087D01*
X278696282Y-244185567D01*
X278696282Y-244185571D01*
X278694901Y-244194440D01*
X278696065Y-244203342D01*
X278696065Y-244203345D01*
X278710468Y-244313489D01*
X278710469Y-244313493D01*
X278711633Y-244322394D01*
X278736211Y-244378251D01*
X278759410Y-244430975D01*
X278763605Y-244440510D01*
X278769382Y-244447383D01*
X278769383Y-244447384D01*
X278823591Y-244511872D01*
X278846639Y-244539291D01*
X278954060Y-244610796D01*
X279077233Y-244649278D01*
X279086203Y-244649442D01*
X279086207Y-244649443D01*
X279206255Y-244651643D01*
X279206203Y-244654467D01*
X279262018Y-244663565D01*
X279314791Y-244711058D01*
X279333510Y-244779542D01*
X279312231Y-244847275D01*
X279296627Y-244866270D01*
X278405650Y-245757247D01*
X278394561Y-245767101D01*
X278375291Y-245782293D01*
X278375289Y-245782295D01*
X278367890Y-245788128D01*
X278362536Y-245795875D01*
X278356692Y-245802098D01*
X278351360Y-245808753D01*
X278344444Y-245815146D01*
X278326357Y-245846286D01*
X278318759Y-245857852D01*
X278297366Y-245886816D01*
X278294973Y-245893632D01*
X278290869Y-245899569D01*
X278288029Y-245908549D01*
X278284271Y-245916219D01*
X278281133Y-245924145D01*
X278276404Y-245932287D01*
X278274279Y-245941456D01*
X278274278Y-245941458D01*
X278268273Y-245967367D01*
X278264412Y-245980658D01*
X278252481Y-246014631D01*
X278252199Y-246021818D01*
X278252187Y-246021880D01*
X278250020Y-246028730D01*
X278249500Y-246035337D01*
X278249500Y-246037808D01*
X278249469Y-246038599D01*
X278248518Y-246045675D01*
X278248681Y-246045688D01*
X278247942Y-246055077D01*
X278245815Y-246064255D01*
X278248358Y-246100167D01*
X278248576Y-246114012D01*
X278247162Y-246149994D01*
X278249046Y-246157100D01*
X278249500Y-246165347D01*
X278249500Y-249673500D01*
X278229498Y-249741621D01*
X278175842Y-249788114D01*
X278123500Y-249799500D01*
X277776500Y-249799500D01*
X277708379Y-249779498D01*
X277661886Y-249725842D01*
X277650500Y-249673500D01*
X277650500Y-249380252D01*
X277638867Y-249321769D01*
X277594552Y-249255448D01*
X277528231Y-249211133D01*
X277516062Y-249208712D01*
X277516061Y-249208712D01*
X277475816Y-249200707D01*
X277469748Y-249199500D01*
X277190107Y-249199500D01*
X277121986Y-249179498D01*
X277075493Y-249125842D01*
X277065389Y-249055568D01*
X277094883Y-248990988D01*
X277134675Y-248960349D01*
X277293090Y-248882742D01*
X277301945Y-248877464D01*
X277475328Y-248753792D01*
X277483200Y-248747139D01*
X277634052Y-248596812D01*
X277640730Y-248588965D01*
X277765003Y-248416020D01*
X277770313Y-248407183D01*
X277864670Y-248216267D01*
X277868469Y-248206672D01*
X277930377Y-248002910D01*
X277932555Y-247992837D01*
X277933986Y-247981962D01*
X277931775Y-247967778D01*
X277918617Y-247964000D01*
X275283225Y-247964000D01*
X275269694Y-247967973D01*
X275268257Y-247977966D01*
X275298565Y-248112446D01*
X275301645Y-248122275D01*
X275381770Y-248319603D01*
X275386413Y-248328794D01*
X275497694Y-248510388D01*
X275503777Y-248518699D01*
X275643213Y-248679667D01*
X275650580Y-248686883D01*
X275814434Y-248822916D01*
X275822881Y-248828831D01*
X276006756Y-248936279D01*
X276016043Y-248940729D01*
X276055484Y-248955790D01*
X276111987Y-248998778D01*
X276136280Y-249065489D01*
X276120650Y-249134743D01*
X276070059Y-249184554D01*
X276010535Y-249199500D01*
X275730252Y-249199500D01*
X275724184Y-249200707D01*
X275683939Y-249208712D01*
X275683938Y-249208712D01*
X275671769Y-249211133D01*
X275605448Y-249255448D01*
X275561133Y-249321769D01*
X275549500Y-249380252D01*
X275549500Y-251119748D01*
X275550707Y-251125816D01*
X275556349Y-251154178D01*
X275561133Y-251178231D01*
X275605448Y-251244552D01*
X275671769Y-251288867D01*
X275683938Y-251291288D01*
X275683939Y-251291288D01*
X275724184Y-251299293D01*
X275730252Y-251300500D01*
X277469748Y-251300500D01*
X277475816Y-251299293D01*
X277516061Y-251291288D01*
X277516062Y-251291288D01*
X277528231Y-251288867D01*
X277594552Y-251244552D01*
X277638867Y-251178231D01*
X277643652Y-251154178D01*
X277649293Y-251125816D01*
X277650500Y-251119748D01*
X277650500Y-250826500D01*
X277670502Y-250758379D01*
X277724158Y-250711886D01*
X277776500Y-250700500D01*
X278515780Y-250700500D01*
X278530589Y-250701373D01*
X278564310Y-250705364D01*
X278573574Y-250703672D01*
X278573575Y-250703672D01*
X278622001Y-250694828D01*
X278625904Y-250694178D01*
X278674645Y-250686850D01*
X278674646Y-250686850D01*
X278683962Y-250685449D01*
X278690475Y-250682321D01*
X278697573Y-250681025D01*
X278749647Y-250653975D01*
X278753137Y-250652232D01*
X278806079Y-250626809D01*
X278811365Y-250621923D01*
X278811413Y-250621890D01*
X278817788Y-250618579D01*
X278822828Y-250614275D01*
X278860055Y-250577048D01*
X278863621Y-250573618D01*
X278883447Y-250555291D01*
X278905556Y-250534854D01*
X278909249Y-250528495D01*
X278914766Y-250522337D01*
X278994350Y-250442753D01*
X279005439Y-250432899D01*
X279024709Y-250417707D01*
X279024711Y-250417705D01*
X279032110Y-250411872D01*
X279038414Y-250402752D01*
X279065455Y-250363625D01*
X279067757Y-250360403D01*
X279071405Y-250355465D01*
X279102634Y-250313184D01*
X279105027Y-250306368D01*
X279109131Y-250300431D01*
X279126826Y-250244481D01*
X279128071Y-250240750D01*
X279144396Y-250194263D01*
X279144396Y-250194261D01*
X279147519Y-250185369D01*
X279147801Y-250178181D01*
X279147812Y-250178122D01*
X279149980Y-250171270D01*
X279150500Y-250164663D01*
X279150500Y-250111984D01*
X279150597Y-250107037D01*
X279152468Y-250059415D01*
X279152838Y-250050006D01*
X279152643Y-250049271D01*
X303496668Y-250049271D01*
X303496755Y-250053273D01*
X303496755Y-250053280D01*
X303503261Y-250351448D01*
X303503349Y-250355465D01*
X303548883Y-250658330D01*
X303549979Y-250662190D01*
X303549980Y-250662195D01*
X303577288Y-250758379D01*
X303632531Y-250952953D01*
X303752937Y-251234560D01*
X303908149Y-251498585D01*
X304095651Y-251740747D01*
X304312404Y-251957122D01*
X304315585Y-251959576D01*
X304315586Y-251959577D01*
X304551701Y-252141739D01*
X304551705Y-252141742D01*
X304554894Y-252144202D01*
X304558373Y-252146239D01*
X304735179Y-252249763D01*
X304819189Y-252298953D01*
X304822874Y-252300521D01*
X304822878Y-252300523D01*
X304942666Y-252351493D01*
X305101006Y-252418867D01*
X305395775Y-252502001D01*
X305599391Y-252532250D01*
X305695419Y-252546516D01*
X305695421Y-252546516D01*
X305698718Y-252547006D01*
X305702049Y-252547146D01*
X305702053Y-252547146D01*
X305738737Y-252548683D01*
X305782084Y-252550500D01*
X305977474Y-252550500D01*
X306100915Y-252542626D01*
X306201639Y-252536201D01*
X306201644Y-252536200D01*
X306205647Y-252535945D01*
X306209584Y-252535183D01*
X306209586Y-252535183D01*
X306502401Y-252478530D01*
X306502405Y-252478529D01*
X306506338Y-252477768D01*
X306797200Y-252381856D01*
X307073518Y-252249763D01*
X307240818Y-252141739D01*
X307327439Y-252085809D01*
X307327440Y-252085808D01*
X307330812Y-252083631D01*
X307359327Y-252059577D01*
X307561849Y-251888734D01*
X307564910Y-251886152D01*
X307772019Y-251660529D01*
X307948780Y-251410418D01*
X308092328Y-251139874D01*
X308113976Y-251082432D01*
X308198919Y-250857044D01*
X308198921Y-250857038D01*
X308200336Y-250853283D01*
X308221952Y-250762195D01*
X308270124Y-250559207D01*
X308270125Y-250559202D01*
X308271053Y-250555291D01*
X308303332Y-250250729D01*
X308303197Y-250244505D01*
X308296739Y-249948552D01*
X308296739Y-249948547D01*
X308296651Y-249944535D01*
X308251117Y-249641670D01*
X308224159Y-249546717D01*
X308196878Y-249450632D01*
X308167469Y-249347047D01*
X308161865Y-249333939D01*
X308112304Y-249218026D01*
X308047063Y-249065440D01*
X307891851Y-248801415D01*
X307704349Y-248559253D01*
X307487596Y-248342878D01*
X307469341Y-248328794D01*
X307248299Y-248158261D01*
X307248295Y-248158258D01*
X307245106Y-248155798D01*
X307068538Y-248052413D01*
X306984275Y-248003075D01*
X306984272Y-248003073D01*
X306980811Y-248001047D01*
X306977126Y-247999479D01*
X306977122Y-247999477D01*
X306790051Y-247919878D01*
X306698994Y-247881133D01*
X306404225Y-247797999D01*
X306174014Y-247763799D01*
X306104581Y-247753484D01*
X306104579Y-247753484D01*
X306101282Y-247752994D01*
X306097951Y-247752854D01*
X306097947Y-247752854D01*
X306061263Y-247751317D01*
X306017916Y-247749500D01*
X305822526Y-247749500D01*
X305699085Y-247757374D01*
X305598361Y-247763799D01*
X305598356Y-247763800D01*
X305594353Y-247764055D01*
X305590416Y-247764817D01*
X305590414Y-247764817D01*
X305297599Y-247821470D01*
X305297595Y-247821471D01*
X305293662Y-247822232D01*
X305002800Y-247918144D01*
X304726482Y-248050237D01*
X304469188Y-248216369D01*
X304466123Y-248218954D01*
X304466121Y-248218956D01*
X304419528Y-248258261D01*
X304235090Y-248413848D01*
X304146472Y-248510388D01*
X304067140Y-248596812D01*
X304027981Y-248639471D01*
X304025667Y-248642746D01*
X304025664Y-248642749D01*
X303959398Y-248736513D01*
X303851220Y-248889582D01*
X303707672Y-249160126D01*
X303706257Y-249163882D01*
X303706256Y-249163883D01*
X303624713Y-249380252D01*
X303599664Y-249446717D01*
X303598735Y-249450632D01*
X303554317Y-249637805D01*
X303528947Y-249744709D01*
X303496668Y-250049271D01*
X279152643Y-250049271D01*
X279150954Y-250042900D01*
X279150500Y-250034653D01*
X279150500Y-246676500D01*
X279170502Y-246608379D01*
X279224158Y-246561886D01*
X279276500Y-246550500D01*
X292865780Y-246550500D01*
X292880589Y-246551373D01*
X292914310Y-246555364D01*
X292923574Y-246553672D01*
X292923575Y-246553672D01*
X292972001Y-246544828D01*
X292975904Y-246544178D01*
X293024645Y-246536850D01*
X293024646Y-246536850D01*
X293033962Y-246535449D01*
X293040475Y-246532321D01*
X293047573Y-246531025D01*
X293099647Y-246503975D01*
X293103137Y-246502232D01*
X293156079Y-246476809D01*
X293161365Y-246471923D01*
X293161413Y-246471890D01*
X293167788Y-246468579D01*
X293172828Y-246464275D01*
X293210055Y-246427048D01*
X293213621Y-246423618D01*
X293248641Y-246391246D01*
X293255556Y-246384854D01*
X293259249Y-246378495D01*
X293264766Y-246372337D01*
X298510055Y-241127048D01*
X298513621Y-241123618D01*
X298548641Y-241091246D01*
X298555556Y-241084854D01*
X298559249Y-241078495D01*
X298564766Y-241072337D01*
X298794350Y-240842753D01*
X298805439Y-240832899D01*
X298824711Y-240817706D01*
X298824715Y-240817702D01*
X298832110Y-240811872D01*
X298837464Y-240804125D01*
X298837468Y-240804121D01*
X298865477Y-240763596D01*
X298867758Y-240760402D01*
X298902635Y-240713183D01*
X298905029Y-240706366D01*
X298909131Y-240700431D01*
X298926812Y-240644525D01*
X298928060Y-240640785D01*
X298944400Y-240594255D01*
X298944401Y-240594252D01*
X298947520Y-240585369D01*
X298947803Y-240578184D01*
X298947817Y-240578111D01*
X298949980Y-240571270D01*
X298950500Y-240564663D01*
X298950500Y-240511994D01*
X298950597Y-240507048D01*
X298952468Y-240459415D01*
X298952838Y-240450006D01*
X298950954Y-240442900D01*
X298950500Y-240434653D01*
X298950500Y-237861994D01*
X298950597Y-237857048D01*
X298951844Y-237825304D01*
X298952838Y-237800006D01*
X298950954Y-237792900D01*
X298950500Y-237784653D01*
X298950500Y-236311984D01*
X298950597Y-236307037D01*
X298951056Y-236295353D01*
X298952838Y-236250006D01*
X298950954Y-236242900D01*
X298950500Y-236234653D01*
X298950500Y-235384219D01*
X298951373Y-235369410D01*
X298954257Y-235345042D01*
X298955364Y-235335689D01*
X298953310Y-235324443D01*
X298944826Y-235277988D01*
X298944176Y-235274084D01*
X298936849Y-235225348D01*
X298936848Y-235225346D01*
X298935449Y-235216038D01*
X298932322Y-235209525D01*
X298931025Y-235202426D01*
X298921734Y-235184539D01*
X298903982Y-235150363D01*
X298902214Y-235146825D01*
X298880887Y-235102413D01*
X298880887Y-235102412D01*
X298876809Y-235093921D01*
X298871924Y-235088636D01*
X298871891Y-235088588D01*
X298868579Y-235082211D01*
X298864275Y-235077172D01*
X298827048Y-235039945D01*
X298823618Y-235036379D01*
X298798766Y-235009494D01*
X298784854Y-234994444D01*
X298778495Y-234990751D01*
X298772337Y-234985234D01*
X298292753Y-234505650D01*
X298282899Y-234494561D01*
X298267707Y-234475291D01*
X298267705Y-234475289D01*
X298261872Y-234467890D01*
X298254125Y-234462535D01*
X298254123Y-234462534D01*
X298213625Y-234434545D01*
X298210403Y-234432243D01*
X298201747Y-234425849D01*
X298179604Y-234409494D01*
X298170758Y-234402960D01*
X298170757Y-234402959D01*
X298163184Y-234397366D01*
X298156368Y-234394973D01*
X298150431Y-234390869D01*
X298141451Y-234388029D01*
X298141449Y-234388028D01*
X298121283Y-234381650D01*
X298094481Y-234373174D01*
X298090750Y-234371929D01*
X298044263Y-234355604D01*
X298044261Y-234355604D01*
X298035369Y-234352481D01*
X298028181Y-234352199D01*
X298028122Y-234352188D01*
X298021270Y-234350020D01*
X298014663Y-234349500D01*
X297961984Y-234349500D01*
X297957037Y-234349403D01*
X297900006Y-234347162D01*
X297892900Y-234349046D01*
X297884653Y-234349500D01*
X297676500Y-234349500D01*
X297608379Y-234329498D01*
X297561886Y-234275842D01*
X297550500Y-234223500D01*
X297550500Y-233884220D01*
X297551373Y-233869411D01*
X297554257Y-233845043D01*
X297555364Y-233835690D01*
X297553672Y-233826426D01*
X297553672Y-233826422D01*
X297544827Y-233777989D01*
X297544178Y-233774088D01*
X297536851Y-233725355D01*
X297536849Y-233725347D01*
X297535449Y-233716038D01*
X297532323Y-233709528D01*
X297531026Y-233702427D01*
X297503982Y-233650363D01*
X297502214Y-233646825D01*
X297480886Y-233602411D01*
X297476809Y-233593921D01*
X297471922Y-233588635D01*
X297471895Y-233588595D01*
X297468580Y-233582212D01*
X297464275Y-233577172D01*
X297427048Y-233539945D01*
X297423618Y-233536379D01*
X297391246Y-233501359D01*
X297384854Y-233494444D01*
X297378495Y-233490751D01*
X297372337Y-233485234D01*
X297242753Y-233355650D01*
X297232899Y-233344561D01*
X297217707Y-233325291D01*
X297217705Y-233325289D01*
X297211872Y-233317890D01*
X297204125Y-233312535D01*
X297204123Y-233312534D01*
X297167875Y-233287482D01*
X297163615Y-233284538D01*
X297160403Y-233282243D01*
X297154785Y-233278093D01*
X297113184Y-233247366D01*
X297106368Y-233244973D01*
X297100431Y-233240869D01*
X297091451Y-233238029D01*
X297091449Y-233238028D01*
X297059247Y-233227844D01*
X297044481Y-233223174D01*
X297040750Y-233221929D01*
X296994263Y-233205604D01*
X296994261Y-233205604D01*
X296985369Y-233202481D01*
X296978181Y-233202199D01*
X296978122Y-233202188D01*
X296971270Y-233200020D01*
X296964663Y-233199500D01*
X296911984Y-233199500D01*
X296907037Y-233199403D01*
X296850006Y-233197162D01*
X296842900Y-233199046D01*
X296834653Y-233199500D01*
X293784219Y-233199500D01*
X293769410Y-233198627D01*
X293745042Y-233195743D01*
X293735689Y-233194636D01*
X293726425Y-233196328D01*
X293726423Y-233196328D01*
X293677988Y-233205174D01*
X293674084Y-233205824D01*
X293625348Y-233213151D01*
X293625346Y-233213152D01*
X293616038Y-233214551D01*
X293609525Y-233217678D01*
X293602426Y-233218975D01*
X293594067Y-233223317D01*
X293550363Y-233246018D01*
X293546825Y-233247786D01*
X293536051Y-233252960D01*
X293493921Y-233273191D01*
X293488636Y-233278076D01*
X293488589Y-233278108D01*
X293482211Y-233281421D01*
X293477172Y-233285725D01*
X293439945Y-233322952D01*
X293436380Y-233326381D01*
X293394444Y-233365146D01*
X293390751Y-233371505D01*
X293385234Y-233377663D01*
X291650302Y-235112595D01*
X291587990Y-235146621D01*
X291561207Y-235149500D01*
X290807778Y-235149500D01*
X290807009Y-235149498D01*
X290738231Y-235149078D01*
X290729607Y-235151543D01*
X290729604Y-235151543D01*
X290711963Y-235156585D01*
X290696074Y-235160035D01*
X290675347Y-235163151D01*
X290675345Y-235163152D01*
X290666038Y-235164551D01*
X290657553Y-235168625D01*
X290657548Y-235168627D01*
X290649132Y-235172669D01*
X290629217Y-235180235D01*
X290614155Y-235184539D01*
X290587616Y-235201284D01*
X290574941Y-235208295D01*
X290543921Y-235223191D01*
X290535967Y-235230544D01*
X290533127Y-235233169D01*
X290514835Y-235247206D01*
X290505019Y-235253399D01*
X290481577Y-235279943D01*
X290472664Y-235289060D01*
X290467475Y-235293857D01*
X290444444Y-235315146D01*
X290439101Y-235324346D01*
X290427319Y-235340682D01*
X290425536Y-235343396D01*
X290419596Y-235350122D01*
X290407077Y-235376786D01*
X290402821Y-235385851D01*
X290397721Y-235395586D01*
X290383256Y-235420491D01*
X290376404Y-235432287D01*
X290374278Y-235441460D01*
X290371749Y-235447847D01*
X290370951Y-235450151D01*
X290371193Y-235450225D01*
X290368570Y-235458804D01*
X290364754Y-235466932D01*
X290361028Y-235490863D01*
X290358057Y-235509941D01*
X290356303Y-235519005D01*
X290345815Y-235564255D01*
X290346480Y-235573647D01*
X290346303Y-235575893D01*
X290346371Y-235578232D01*
X290346282Y-235585571D01*
X290344901Y-235594440D01*
X290351074Y-235641645D01*
X290351820Y-235649052D01*
X290355383Y-235699384D01*
X290358783Y-235708172D01*
X290359214Y-235710101D01*
X290360552Y-235714130D01*
X290361633Y-235722394D01*
X290382443Y-235769688D01*
X290384607Y-235774924D01*
X290404261Y-235825726D01*
X290410092Y-235833123D01*
X290411212Y-235835086D01*
X290411229Y-235835110D01*
X290413605Y-235840510D01*
X290449537Y-235883257D01*
X290451997Y-235886278D01*
X290488128Y-235932110D01*
X290494034Y-235936192D01*
X290496639Y-235939291D01*
X290503756Y-235944028D01*
X290503758Y-235944030D01*
X290546676Y-235972598D01*
X290548497Y-235973833D01*
X290599569Y-236009131D01*
X290603360Y-236010330D01*
X290604060Y-236010796D01*
X290609828Y-236012598D01*
X290609830Y-236012599D01*
X290645143Y-236023631D01*
X290667743Y-236030692D01*
X290728730Y-236049980D01*
X290735337Y-236050500D01*
X290792736Y-236050500D01*
X290795045Y-236050521D01*
X290847282Y-236051479D01*
X290847285Y-236051479D01*
X290856255Y-236051643D01*
X290859709Y-236050701D01*
X290862952Y-236050500D01*
X291765780Y-236050500D01*
X291780589Y-236051373D01*
X291782220Y-236051566D01*
X291814310Y-236055364D01*
X291823574Y-236053672D01*
X291823575Y-236053672D01*
X291872001Y-236044828D01*
X291875904Y-236044178D01*
X291924645Y-236036850D01*
X291924646Y-236036850D01*
X291933962Y-236035449D01*
X291940475Y-236032321D01*
X291947573Y-236031025D01*
X291999647Y-236003975D01*
X292003137Y-236002232D01*
X292056079Y-235976809D01*
X292061365Y-235971923D01*
X292061413Y-235971890D01*
X292067788Y-235968579D01*
X292072828Y-235964275D01*
X292110055Y-235927048D01*
X292113621Y-235923618D01*
X292132523Y-235906145D01*
X292155556Y-235884854D01*
X292159249Y-235878495D01*
X292164766Y-235872337D01*
X292976775Y-235060328D01*
X293039087Y-235026302D01*
X293109902Y-235031367D01*
X293166738Y-235073914D01*
X293181197Y-235098675D01*
X293188605Y-235115510D01*
X293194382Y-235122383D01*
X293194383Y-235122384D01*
X293260700Y-235201278D01*
X293271639Y-235214291D01*
X293379060Y-235285796D01*
X293465459Y-235312789D01*
X293489683Y-235320357D01*
X293502233Y-235324278D01*
X293511203Y-235324442D01*
X293511207Y-235324443D01*
X293569942Y-235325519D01*
X293631255Y-235326643D01*
X293720041Y-235302437D01*
X293747092Y-235295062D01*
X293747093Y-235295062D01*
X293755755Y-235292700D01*
X293763405Y-235288003D01*
X293763407Y-235288002D01*
X293858072Y-235229878D01*
X293858075Y-235229875D01*
X293865724Y-235225179D01*
X293916626Y-235168943D01*
X293977167Y-235131864D01*
X294010039Y-235127500D01*
X294575785Y-235127500D01*
X294643906Y-235147502D01*
X294689286Y-235199873D01*
X294689354Y-235200304D01*
X294692372Y-235206228D01*
X294692374Y-235206232D01*
X294713253Y-235247208D01*
X294746950Y-235313342D01*
X294836658Y-235403050D01*
X294949696Y-235460646D01*
X294959485Y-235462196D01*
X294959487Y-235462197D01*
X294986849Y-235466530D01*
X295043481Y-235475500D01*
X295274953Y-235475500D01*
X295506518Y-235475499D01*
X295511412Y-235474724D01*
X295590506Y-235462198D01*
X295590508Y-235462197D01*
X295600304Y-235460646D01*
X295713342Y-235403050D01*
X295803050Y-235313342D01*
X295860646Y-235200304D01*
X295863534Y-235182074D01*
X295868556Y-235150363D01*
X295875500Y-235106519D01*
X295875499Y-234493482D01*
X295874394Y-234486502D01*
X295862198Y-234409494D01*
X295862197Y-234409492D01*
X295860646Y-234399696D01*
X295847137Y-234373182D01*
X295803050Y-234286658D01*
X295805778Y-234285268D01*
X295787376Y-234233695D01*
X295803455Y-234164543D01*
X295854368Y-234115062D01*
X295913170Y-234100500D01*
X296286830Y-234100500D01*
X296354951Y-234120502D01*
X296401444Y-234174158D01*
X296411548Y-234244432D01*
X296394844Y-234285585D01*
X296396950Y-234286658D01*
X296339354Y-234399696D01*
X296324500Y-234493481D01*
X296324501Y-235106518D01*
X296325276Y-235111409D01*
X296325276Y-235111412D01*
X296337616Y-235189327D01*
X296339354Y-235200304D01*
X296343855Y-235209137D01*
X296343857Y-235209142D01*
X296354423Y-235229878D01*
X296396950Y-235313342D01*
X296486658Y-235403050D01*
X296599696Y-235460646D01*
X296609485Y-235462196D01*
X296609487Y-235462197D01*
X296636849Y-235466530D01*
X296693481Y-235475500D01*
X296924953Y-235475500D01*
X297156518Y-235475499D01*
X297161412Y-235474724D01*
X297240506Y-235462198D01*
X297240508Y-235462197D01*
X297250304Y-235460646D01*
X297363342Y-235403050D01*
X297453050Y-235313342D01*
X297457553Y-235304504D01*
X297459055Y-235302437D01*
X297515278Y-235259084D01*
X297560990Y-235250500D01*
X297711207Y-235250500D01*
X297779328Y-235270502D01*
X297800302Y-235287405D01*
X298012595Y-235499698D01*
X298046621Y-235562010D01*
X298049500Y-235588793D01*
X298049500Y-235873500D01*
X298029498Y-235941621D01*
X297975842Y-235988114D01*
X297923500Y-235999500D01*
X297585990Y-235999500D01*
X297517869Y-235979498D01*
X297484055Y-235947563D01*
X297482553Y-235945496D01*
X297478050Y-235936658D01*
X297388342Y-235846950D01*
X297275304Y-235789354D01*
X297265515Y-235787804D01*
X297265513Y-235787803D01*
X297238151Y-235783470D01*
X297181519Y-235774500D01*
X296950047Y-235774500D01*
X296718482Y-235774501D01*
X296713589Y-235775276D01*
X296713588Y-235775276D01*
X296634494Y-235787802D01*
X296634492Y-235787803D01*
X296624696Y-235789354D01*
X296511658Y-235846950D01*
X296421950Y-235936658D01*
X296364354Y-236049696D01*
X296362804Y-236059485D01*
X296362803Y-236059487D01*
X296360099Y-236076563D01*
X296349500Y-236143481D01*
X296349501Y-236756518D01*
X296350276Y-236761409D01*
X296350276Y-236761412D01*
X296362562Y-236838986D01*
X296364354Y-236850304D01*
X296368855Y-236859137D01*
X296368857Y-236859142D01*
X296376683Y-236874501D01*
X296421950Y-236963342D01*
X296511658Y-237053050D01*
X296624696Y-237110646D01*
X296634485Y-237112196D01*
X296634487Y-237112197D01*
X296675590Y-237118707D01*
X296718481Y-237125500D01*
X296723420Y-237125500D01*
X296725795Y-237125687D01*
X296792136Y-237150972D01*
X296834276Y-237208111D01*
X296838834Y-237278961D01*
X296804364Y-237341028D01*
X296735618Y-237375746D01*
X296698761Y-237381584D01*
X296659493Y-237387802D01*
X296659490Y-237387803D01*
X296649696Y-237389354D01*
X296536658Y-237446950D01*
X296446950Y-237536658D01*
X296389354Y-237649696D01*
X296374500Y-237743481D01*
X296374501Y-238356518D01*
X296375276Y-238361409D01*
X296375276Y-238361412D01*
X296385975Y-238428965D01*
X296389354Y-238450304D01*
X296393855Y-238459137D01*
X296393857Y-238459142D01*
X296401964Y-238475052D01*
X296446950Y-238563342D01*
X296536658Y-238653050D01*
X296649696Y-238710646D01*
X296659485Y-238712196D01*
X296659487Y-238712197D01*
X296681694Y-238715714D01*
X296743481Y-238725500D01*
X296974953Y-238725500D01*
X297206518Y-238725499D01*
X297228372Y-238722038D01*
X297290506Y-238712198D01*
X297290508Y-238712197D01*
X297300304Y-238710646D01*
X297413342Y-238653050D01*
X297503050Y-238563342D01*
X297507553Y-238554504D01*
X297509055Y-238552437D01*
X297565278Y-238509084D01*
X297610990Y-238500500D01*
X297923500Y-238500500D01*
X297991621Y-238520502D01*
X298038114Y-238574158D01*
X298049500Y-238626500D01*
X298049500Y-240223500D01*
X298029498Y-240291621D01*
X297975842Y-240338114D01*
X297923500Y-240349500D01*
X290657778Y-240349500D01*
X290657009Y-240349498D01*
X290588231Y-240349078D01*
X290579607Y-240351543D01*
X290579604Y-240351543D01*
X290561963Y-240356585D01*
X290546074Y-240360035D01*
X290525347Y-240363151D01*
X290525345Y-240363152D01*
X290516038Y-240364551D01*
X290507553Y-240368625D01*
X290507548Y-240368627D01*
X290499132Y-240372669D01*
X290479217Y-240380235D01*
X290464155Y-240384539D01*
X290437616Y-240401284D01*
X290424941Y-240408295D01*
X290393921Y-240423191D01*
X290387002Y-240429587D01*
X290383127Y-240433169D01*
X290364835Y-240447206D01*
X290355019Y-240453399D01*
X290334749Y-240476351D01*
X290331577Y-240479943D01*
X290322664Y-240489060D01*
X290301361Y-240508752D01*
X290294444Y-240515146D01*
X290289101Y-240524346D01*
X290277319Y-240540682D01*
X290275536Y-240543396D01*
X290269596Y-240550122D01*
X290262769Y-240564663D01*
X290252821Y-240585851D01*
X290247721Y-240595586D01*
X290247326Y-240596267D01*
X290226404Y-240632287D01*
X290224278Y-240641460D01*
X290221749Y-240647847D01*
X290220951Y-240650151D01*
X290221193Y-240650225D01*
X290218570Y-240658804D01*
X290214754Y-240666932D01*
X290213373Y-240675802D01*
X290208057Y-240709941D01*
X290206303Y-240719005D01*
X290195815Y-240764255D01*
X290196480Y-240773647D01*
X290196303Y-240775893D01*
X290196371Y-240778232D01*
X290196282Y-240785571D01*
X290194901Y-240794440D01*
X290201074Y-240841645D01*
X290201820Y-240849052D01*
X290205383Y-240899384D01*
X290208783Y-240908172D01*
X290209214Y-240910101D01*
X290210552Y-240914130D01*
X290211633Y-240922394D01*
X290215249Y-240930611D01*
X290232443Y-240969688D01*
X290234607Y-240974924D01*
X290254261Y-241025726D01*
X290260092Y-241033123D01*
X290261212Y-241035086D01*
X290261229Y-241035110D01*
X290263605Y-241040510D01*
X290299537Y-241083257D01*
X290301997Y-241086278D01*
X290338128Y-241132110D01*
X290344034Y-241136192D01*
X290346639Y-241139291D01*
X290353756Y-241144028D01*
X290353758Y-241144030D01*
X290396676Y-241172598D01*
X290398497Y-241173833D01*
X290449569Y-241209131D01*
X290453360Y-241210330D01*
X290454060Y-241210796D01*
X290459828Y-241212598D01*
X290459830Y-241212599D01*
X290495143Y-241223631D01*
X290517743Y-241230692D01*
X290578730Y-241249980D01*
X290585337Y-241250500D01*
X290642736Y-241250500D01*
X290645045Y-241250521D01*
X290697282Y-241251479D01*
X290697285Y-241251479D01*
X290706255Y-241251643D01*
X290709709Y-241250701D01*
X290712952Y-241250500D01*
X296808207Y-241250500D01*
X296876328Y-241270502D01*
X296922821Y-241324158D01*
X296932925Y-241394432D01*
X296903431Y-241459012D01*
X296897302Y-241465595D01*
X292750302Y-245612595D01*
X292687990Y-245646621D01*
X292661207Y-245649500D01*
X280091793Y-245649500D01*
X280023672Y-245629498D01*
X279977179Y-245575842D01*
X279967075Y-245505568D01*
X279996569Y-245440988D01*
X280002698Y-245434405D01*
X280894350Y-244542753D01*
X280905439Y-244532899D01*
X280924711Y-244517706D01*
X280924715Y-244517702D01*
X280932110Y-244511872D01*
X280937464Y-244504125D01*
X280937468Y-244504121D01*
X280965477Y-244463596D01*
X280967758Y-244460402D01*
X281002635Y-244413183D01*
X281005029Y-244406366D01*
X281009131Y-244400431D01*
X281026812Y-244344525D01*
X281028060Y-244340785D01*
X281044400Y-244294255D01*
X281044401Y-244294252D01*
X281047520Y-244285369D01*
X281047803Y-244278184D01*
X281047817Y-244278111D01*
X281049980Y-244271270D01*
X281050500Y-244264663D01*
X281050500Y-244211994D01*
X281050597Y-244207048D01*
X281052468Y-244159415D01*
X281052838Y-244150006D01*
X281050954Y-244142900D01*
X281050500Y-244134653D01*
X281050500Y-241773699D01*
X281070502Y-241705578D01*
X281124158Y-241659085D01*
X281194432Y-241648981D01*
X281259012Y-241678475D01*
X281265595Y-241684604D01*
X281279276Y-241698285D01*
X281381351Y-241774786D01*
X281396946Y-241783324D01*
X281517394Y-241828478D01*
X281532649Y-241832105D01*
X281583514Y-241837631D01*
X281590328Y-241838000D01*
X281616885Y-241838000D01*
X281632124Y-241833525D01*
X281633329Y-241832135D01*
X281635000Y-241824452D01*
X281635000Y-241819884D01*
X282035000Y-241819884D01*
X282039475Y-241835123D01*
X282040865Y-241836328D01*
X282048548Y-241837999D01*
X282061575Y-241837999D01*
X282105805Y-241846017D01*
X282192394Y-241878478D01*
X282207649Y-241882105D01*
X282258514Y-241887631D01*
X282265328Y-241888000D01*
X282291885Y-241888000D01*
X282307124Y-241883525D01*
X282308329Y-241882135D01*
X282310000Y-241874452D01*
X282310000Y-241869884D01*
X282810000Y-241869884D01*
X282814475Y-241885123D01*
X282815865Y-241886328D01*
X282823548Y-241887999D01*
X282854669Y-241887999D01*
X282861490Y-241887629D01*
X282912352Y-241882105D01*
X282927604Y-241878479D01*
X283014193Y-241846018D01*
X283058423Y-241838000D01*
X283066885Y-241838000D01*
X283082124Y-241833525D01*
X283083329Y-241832135D01*
X283085000Y-241824452D01*
X283085000Y-241819884D01*
X283485000Y-241819884D01*
X283489475Y-241835123D01*
X283490865Y-241836328D01*
X283498548Y-241837999D01*
X283529669Y-241837999D01*
X283536490Y-241837629D01*
X283587352Y-241832105D01*
X283602604Y-241828479D01*
X283723054Y-241783324D01*
X283738649Y-241774786D01*
X283840724Y-241698285D01*
X283853285Y-241685724D01*
X283929786Y-241583649D01*
X283938324Y-241568054D01*
X283983478Y-241447606D01*
X283987105Y-241432351D01*
X283992631Y-241381486D01*
X283993000Y-241374672D01*
X283993000Y-241248115D01*
X283988525Y-241232876D01*
X283987135Y-241231671D01*
X283979452Y-241230000D01*
X283503115Y-241230000D01*
X283487876Y-241234475D01*
X283486671Y-241235865D01*
X283485000Y-241243548D01*
X283485000Y-241819884D01*
X283085000Y-241819884D01*
X283085000Y-241298115D01*
X283080525Y-241282876D01*
X283079135Y-241281671D01*
X283071452Y-241280000D01*
X282828115Y-241280000D01*
X282812876Y-241284475D01*
X282811671Y-241285865D01*
X282810000Y-241293548D01*
X282810000Y-241869884D01*
X282310000Y-241869884D01*
X282310000Y-241298115D01*
X282305525Y-241282876D01*
X282304135Y-241281671D01*
X282296452Y-241280000D01*
X282053115Y-241280000D01*
X282037876Y-241284475D01*
X282036671Y-241285865D01*
X282035000Y-241293548D01*
X282035000Y-241819884D01*
X281635000Y-241819884D01*
X281635000Y-240956000D01*
X281655002Y-240887879D01*
X281708658Y-240841386D01*
X281727164Y-240837360D01*
X281726502Y-240835104D01*
X281759124Y-240825526D01*
X281760889Y-240823488D01*
X281820615Y-240785104D01*
X281856114Y-240780000D01*
X283261095Y-240780000D01*
X283329216Y-240800002D01*
X283343607Y-240810775D01*
X283363865Y-240828329D01*
X283371548Y-240830000D01*
X283974884Y-240830000D01*
X283990123Y-240825525D01*
X283991328Y-240824135D01*
X283992999Y-240816452D01*
X283992999Y-240685331D01*
X283992629Y-240678510D01*
X283987105Y-240627648D01*
X283983479Y-240612396D01*
X283938324Y-240491946D01*
X283929786Y-240476351D01*
X283853285Y-240374276D01*
X283840724Y-240361715D01*
X283738649Y-240285214D01*
X283723051Y-240276675D01*
X283715851Y-240273975D01*
X283659087Y-240231332D01*
X283634389Y-240164770D01*
X283649598Y-240095421D01*
X283655318Y-240085991D01*
X283666974Y-240068547D01*
X283673867Y-240058231D01*
X283685500Y-239999748D01*
X283685500Y-239360252D01*
X283673867Y-239301769D01*
X283659135Y-239279721D01*
X283637900Y-239209719D01*
X283637900Y-239063366D01*
X283657902Y-238995245D01*
X283674805Y-238974271D01*
X284055806Y-238593270D01*
X284118118Y-238559244D01*
X284133218Y-238557980D01*
X284133147Y-238557382D01*
X284163642Y-238553773D01*
X284178450Y-238552900D01*
X284229318Y-238552900D01*
X284257995Y-238548127D01*
X284305619Y-238540200D01*
X284305620Y-238540200D01*
X284315891Y-238538490D01*
X284419286Y-238482702D01*
X284440772Y-238459459D01*
X284491967Y-238404075D01*
X284499035Y-238396429D01*
X284526284Y-238334794D01*
X284552429Y-238296647D01*
X284663415Y-238185661D01*
X284678684Y-238173328D01*
X284682038Y-238170276D01*
X284690790Y-238164625D01*
X284709808Y-238140501D01*
X284713334Y-238136534D01*
X284713233Y-238136448D01*
X284716591Y-238132485D01*
X284720269Y-238128807D01*
X284730584Y-238114373D01*
X284734135Y-238109643D01*
X284754318Y-238084041D01*
X284763525Y-238072362D01*
X284766347Y-238064327D01*
X284771296Y-238057401D01*
X284774278Y-238047430D01*
X284774280Y-238047426D01*
X284784897Y-238011924D01*
X284786721Y-238006308D01*
X284802452Y-237961513D01*
X284802900Y-237956341D01*
X284802900Y-237953637D01*
X284802996Y-237951405D01*
X284803146Y-237950905D01*
X284803184Y-237950907D01*
X284803194Y-237950743D01*
X284804959Y-237944842D01*
X284802997Y-237894911D01*
X284802900Y-237889965D01*
X284802900Y-237687013D01*
X284815400Y-237644440D01*
X292644901Y-237644440D01*
X292646065Y-237653342D01*
X292646065Y-237653345D01*
X292660468Y-237763489D01*
X292660469Y-237763493D01*
X292661633Y-237772394D01*
X292713605Y-237890510D01*
X292719382Y-237897383D01*
X292719383Y-237897384D01*
X292779575Y-237968991D01*
X292796639Y-237989291D01*
X292813247Y-238000346D01*
X292895577Y-238055149D01*
X292904060Y-238060796D01*
X292982982Y-238085453D01*
X293005356Y-238092443D01*
X293027233Y-238099278D01*
X293036206Y-238099443D01*
X293036209Y-238099443D01*
X293036391Y-238099446D01*
X293036564Y-238099500D01*
X293045070Y-238100878D01*
X293044871Y-238102106D01*
X293104134Y-238120694D01*
X293123175Y-238136330D01*
X293254418Y-238267573D01*
X293261844Y-238275676D01*
X293286240Y-238304750D01*
X293295786Y-238310261D01*
X293295788Y-238310263D01*
X293319102Y-238323723D01*
X293328372Y-238329628D01*
X293343912Y-238340509D01*
X293359457Y-238351394D01*
X293370106Y-238354248D01*
X293373353Y-238355762D01*
X293376712Y-238356984D01*
X293386261Y-238362497D01*
X293416267Y-238367787D01*
X293423637Y-238369087D01*
X293434370Y-238371467D01*
X293460366Y-238378433D01*
X293460369Y-238378433D01*
X293471015Y-238381286D01*
X293508814Y-238377979D01*
X293519796Y-238377500D01*
X294625785Y-238377500D01*
X294693906Y-238397502D01*
X294739286Y-238449873D01*
X294739354Y-238450304D01*
X294742372Y-238456228D01*
X294742374Y-238456232D01*
X294754849Y-238480715D01*
X294796950Y-238563342D01*
X294886658Y-238653050D01*
X294999696Y-238710646D01*
X295009485Y-238712196D01*
X295009487Y-238712197D01*
X295031694Y-238715714D01*
X295093481Y-238725500D01*
X295324953Y-238725500D01*
X295556518Y-238725499D01*
X295578372Y-238722038D01*
X295640506Y-238712198D01*
X295640508Y-238712197D01*
X295650304Y-238710646D01*
X295763342Y-238653050D01*
X295853050Y-238563342D01*
X295910646Y-238450304D01*
X295925500Y-238356519D01*
X295925499Y-237743482D01*
X295919008Y-237702498D01*
X295912198Y-237659494D01*
X295912197Y-237659492D01*
X295910646Y-237649696D01*
X295853050Y-237536658D01*
X295763342Y-237446950D01*
X295650304Y-237389354D01*
X295640515Y-237387804D01*
X295640513Y-237387803D01*
X295599410Y-237381293D01*
X295556519Y-237374500D01*
X295551580Y-237374500D01*
X295549205Y-237374313D01*
X295482864Y-237349028D01*
X295440724Y-237291889D01*
X295436166Y-237221039D01*
X295470636Y-237158972D01*
X295539382Y-237124254D01*
X295576239Y-237118416D01*
X295615507Y-237112198D01*
X295615510Y-237112197D01*
X295625304Y-237110646D01*
X295636625Y-237104878D01*
X295667215Y-237089291D01*
X295738342Y-237053050D01*
X295828050Y-236963342D01*
X295885646Y-236850304D01*
X295900500Y-236756519D01*
X295900499Y-236143482D01*
X295897028Y-236121566D01*
X295887198Y-236059494D01*
X295887197Y-236059492D01*
X295885646Y-236049696D01*
X295879943Y-236038502D01*
X295864977Y-236009131D01*
X295828050Y-235936658D01*
X295738342Y-235846950D01*
X295625304Y-235789354D01*
X295615515Y-235787804D01*
X295615513Y-235787803D01*
X295588151Y-235783470D01*
X295531519Y-235774500D01*
X295300047Y-235774500D01*
X295068482Y-235774501D01*
X295063589Y-235775276D01*
X295063588Y-235775276D01*
X294984494Y-235787802D01*
X294984492Y-235787803D01*
X294974696Y-235789354D01*
X294861658Y-235846950D01*
X294771950Y-235936658D01*
X294714354Y-236049696D01*
X294711769Y-236048379D01*
X294680544Y-236094043D01*
X294615147Y-236121679D01*
X294600785Y-236122500D01*
X293769794Y-236122500D01*
X293758811Y-236122020D01*
X293732001Y-236119674D01*
X293732000Y-236119674D01*
X293721016Y-236118713D01*
X293684347Y-236128538D01*
X293673633Y-236130913D01*
X293636261Y-236137503D01*
X293626712Y-236143016D01*
X293623345Y-236144242D01*
X293620108Y-236145751D01*
X293609457Y-236148605D01*
X293600425Y-236154929D01*
X293590434Y-236159588D01*
X293590014Y-236158688D01*
X293568143Y-236169109D01*
X293522788Y-236182071D01*
X293522784Y-236182073D01*
X293514155Y-236184539D01*
X293506565Y-236189328D01*
X293412817Y-236248479D01*
X293405019Y-236253399D01*
X293399076Y-236260128D01*
X293399075Y-236260129D01*
X293357647Y-236307037D01*
X293319596Y-236350122D01*
X293315782Y-236358245D01*
X293315781Y-236358247D01*
X293296049Y-236400275D01*
X293264754Y-236466932D01*
X293260454Y-236494551D01*
X293246282Y-236585567D01*
X293246282Y-236585571D01*
X293244901Y-236594440D01*
X293246065Y-236603342D01*
X293246065Y-236603345D01*
X293260468Y-236713489D01*
X293260469Y-236713493D01*
X293261633Y-236722394D01*
X293313605Y-236840510D01*
X293319382Y-236847383D01*
X293319383Y-236847384D01*
X293375677Y-236914354D01*
X293396639Y-236939291D01*
X293504060Y-237010796D01*
X293586839Y-237036658D01*
X293616866Y-237046039D01*
X293627233Y-237049278D01*
X293636203Y-237049442D01*
X293636207Y-237049443D01*
X293694942Y-237050519D01*
X293756255Y-237051643D01*
X293818505Y-237034671D01*
X293872092Y-237020062D01*
X293872093Y-237020062D01*
X293880755Y-237017700D01*
X293888405Y-237013003D01*
X293888407Y-237013002D01*
X293983072Y-236954878D01*
X293983075Y-236954875D01*
X293990724Y-236950179D01*
X293997720Y-236942450D01*
X294071300Y-236861161D01*
X294071303Y-236861157D01*
X294077322Y-236854507D01*
X294081233Y-236846434D01*
X294086257Y-236838986D01*
X294087890Y-236840087D01*
X294127908Y-236795977D01*
X294193595Y-236777500D01*
X294600785Y-236777500D01*
X294668906Y-236797502D01*
X294714286Y-236849873D01*
X294714354Y-236850304D01*
X294717372Y-236856228D01*
X294717374Y-236856232D01*
X294726683Y-236874501D01*
X294771950Y-236963342D01*
X294861658Y-237053050D01*
X294974696Y-237110646D01*
X294984485Y-237112196D01*
X294984487Y-237112197D01*
X295025590Y-237118707D01*
X295068481Y-237125500D01*
X295073420Y-237125500D01*
X295075795Y-237125687D01*
X295142136Y-237150972D01*
X295184276Y-237208111D01*
X295188834Y-237278961D01*
X295154364Y-237341028D01*
X295085618Y-237375746D01*
X295048761Y-237381584D01*
X295009493Y-237387802D01*
X295009490Y-237387803D01*
X294999696Y-237389354D01*
X294886658Y-237446950D01*
X294796950Y-237536658D01*
X294739354Y-237649696D01*
X294736769Y-237648379D01*
X294705544Y-237694043D01*
X294640147Y-237721679D01*
X294625785Y-237722500D01*
X293687846Y-237722500D01*
X293619725Y-237702498D01*
X293598753Y-237685598D01*
X293583475Y-237670321D01*
X293549448Y-237608010D01*
X293547846Y-237599118D01*
X293536839Y-237522259D01*
X293528105Y-237503050D01*
X293487145Y-237412962D01*
X293487143Y-237412959D01*
X293483428Y-237404788D01*
X293439562Y-237353879D01*
X293405051Y-237313826D01*
X293405049Y-237313824D01*
X293399193Y-237307028D01*
X293290906Y-237236841D01*
X293282311Y-237234271D01*
X293282310Y-237234270D01*
X293175874Y-237202438D01*
X293175872Y-237202438D01*
X293167273Y-237199866D01*
X293158298Y-237199811D01*
X293158297Y-237199811D01*
X293103641Y-237199477D01*
X293038231Y-237199078D01*
X293001811Y-237209487D01*
X292922786Y-237232072D01*
X292922784Y-237232073D01*
X292914155Y-237234539D01*
X292906565Y-237239328D01*
X292816746Y-237296000D01*
X292805019Y-237303399D01*
X292799076Y-237310128D01*
X292799075Y-237310129D01*
X292746501Y-237369658D01*
X292719596Y-237400122D01*
X292715782Y-237408245D01*
X292715781Y-237408247D01*
X292709324Y-237422000D01*
X292664754Y-237516932D01*
X292659985Y-237547563D01*
X292646282Y-237635567D01*
X292646282Y-237635571D01*
X292644901Y-237644440D01*
X284815400Y-237644440D01*
X284822902Y-237618892D01*
X284871697Y-237574746D01*
X284954509Y-237532551D01*
X284954511Y-237532550D01*
X284963342Y-237528050D01*
X285053050Y-237438342D01*
X285110646Y-237325304D01*
X285112388Y-237314310D01*
X285118896Y-237273213D01*
X285125500Y-237231519D01*
X285125499Y-236768482D01*
X285122572Y-236750000D01*
X285112198Y-236684494D01*
X285112197Y-236684492D01*
X285110646Y-236674696D01*
X285103984Y-236661620D01*
X285083928Y-236622259D01*
X285053050Y-236561658D01*
X284963342Y-236471950D01*
X284850304Y-236414354D01*
X284840515Y-236412804D01*
X284840513Y-236412803D01*
X284807345Y-236407550D01*
X284756519Y-236399500D01*
X284450062Y-236399500D01*
X284143482Y-236399501D01*
X284138589Y-236400276D01*
X284138588Y-236400276D01*
X284059494Y-236412802D01*
X284059492Y-236412803D01*
X284049696Y-236414354D01*
X284040859Y-236418857D01*
X284040858Y-236418857D01*
X284027823Y-236425499D01*
X283936658Y-236471950D01*
X283846950Y-236561658D01*
X283789354Y-236674696D01*
X283774500Y-236768481D01*
X283774501Y-237231518D01*
X283775276Y-237236409D01*
X283775276Y-237236412D01*
X283786951Y-237310129D01*
X283789354Y-237325304D01*
X283846950Y-237438342D01*
X283936658Y-237528050D01*
X283945489Y-237532550D01*
X283945491Y-237532551D01*
X284028303Y-237574746D01*
X284079918Y-237623495D01*
X284097100Y-237687013D01*
X284097100Y-237701634D01*
X284077098Y-237769755D01*
X284060195Y-237790729D01*
X284044195Y-237806729D01*
X283981883Y-237840755D01*
X283966783Y-237842019D01*
X283966854Y-237842617D01*
X283936354Y-237846227D01*
X283931051Y-237846540D01*
X283931062Y-237846672D01*
X283925884Y-237847100D01*
X283920682Y-237847100D01*
X283903187Y-237850012D01*
X283897343Y-237850844D01*
X283873036Y-237853721D01*
X283860523Y-237855202D01*
X283860522Y-237855202D01*
X283850183Y-237856426D01*
X283842506Y-237860112D01*
X283834109Y-237861510D01*
X283824950Y-237866452D01*
X283824947Y-237866453D01*
X283792352Y-237884041D01*
X283787060Y-237886737D01*
X283744275Y-237907282D01*
X283740301Y-237910623D01*
X283738368Y-237912556D01*
X283736747Y-237914043D01*
X283736298Y-237914285D01*
X283736270Y-237914254D01*
X283736134Y-237914373D01*
X283730714Y-237917298D01*
X283723644Y-237924946D01*
X283723643Y-237924947D01*
X283696793Y-237953994D01*
X283693363Y-237957561D01*
X283367995Y-238282929D01*
X283305683Y-238316955D01*
X283234868Y-238311890D01*
X283178032Y-238269343D01*
X283153221Y-238202823D01*
X283152900Y-238193834D01*
X283152900Y-237687013D01*
X283172902Y-237618892D01*
X283221697Y-237574746D01*
X283304509Y-237532551D01*
X283304511Y-237532550D01*
X283313342Y-237528050D01*
X283403050Y-237438342D01*
X283460646Y-237325304D01*
X283462388Y-237314310D01*
X283468896Y-237273213D01*
X283475500Y-237231519D01*
X283475499Y-236768482D01*
X283472572Y-236750000D01*
X283462198Y-236684494D01*
X283462197Y-236684492D01*
X283460646Y-236674696D01*
X283453984Y-236661620D01*
X283433928Y-236622259D01*
X283403050Y-236561658D01*
X283313342Y-236471950D01*
X283200304Y-236414354D01*
X283190515Y-236412804D01*
X283190513Y-236412803D01*
X283157345Y-236407550D01*
X283106519Y-236399500D01*
X282800062Y-236399500D01*
X282493482Y-236399501D01*
X282488589Y-236400276D01*
X282488588Y-236400276D01*
X282409494Y-236412802D01*
X282409492Y-236412803D01*
X282399696Y-236414354D01*
X282390859Y-236418857D01*
X282390858Y-236418857D01*
X282377823Y-236425499D01*
X282286658Y-236471950D01*
X282196950Y-236561658D01*
X282139354Y-236674696D01*
X282124500Y-236768481D01*
X282124501Y-237231518D01*
X282125276Y-237236409D01*
X282125276Y-237236412D01*
X282136951Y-237310129D01*
X282139354Y-237325304D01*
X282196950Y-237438342D01*
X282286658Y-237528050D01*
X282295489Y-237532550D01*
X282295491Y-237532551D01*
X282378303Y-237574746D01*
X282429918Y-237623495D01*
X282447100Y-237687013D01*
X282447100Y-238201634D01*
X282427098Y-238269755D01*
X282410195Y-238290729D01*
X282346585Y-238354339D01*
X282331316Y-238366672D01*
X282327962Y-238369724D01*
X282319210Y-238375375D01*
X282300192Y-238399499D01*
X282296666Y-238403466D01*
X282296767Y-238403552D01*
X282293409Y-238407515D01*
X282289731Y-238411193D01*
X282279416Y-238425627D01*
X282275865Y-238430357D01*
X282246475Y-238467638D01*
X282243653Y-238475673D01*
X282238704Y-238482599D01*
X282235722Y-238492570D01*
X282235720Y-238492574D01*
X282225103Y-238528076D01*
X282223279Y-238533692D01*
X282207548Y-238578487D01*
X282207100Y-238583659D01*
X282207100Y-238584237D01*
X282173585Y-238645933D01*
X282111347Y-238680093D01*
X282040520Y-238675182D01*
X281995202Y-238646126D01*
X281339805Y-237990729D01*
X281305779Y-237928417D01*
X281302900Y-237901634D01*
X281302900Y-237662013D01*
X281322902Y-237593892D01*
X281371697Y-237549746D01*
X281454509Y-237507551D01*
X281454511Y-237507550D01*
X281463342Y-237503050D01*
X281553050Y-237413342D01*
X281610646Y-237300304D01*
X281614027Y-237278961D01*
X281618861Y-237248434D01*
X281625500Y-237206519D01*
X281625499Y-236743482D01*
X281620749Y-236713489D01*
X281612198Y-236659494D01*
X281612197Y-236659492D01*
X281610646Y-236649696D01*
X281553050Y-236536658D01*
X281463342Y-236446950D01*
X281350304Y-236389354D01*
X281340515Y-236387804D01*
X281340513Y-236387803D01*
X281307345Y-236382550D01*
X281256519Y-236374500D01*
X280950062Y-236374500D01*
X280643482Y-236374501D01*
X280638589Y-236375276D01*
X280638588Y-236375276D01*
X280559494Y-236387802D01*
X280559492Y-236387803D01*
X280549696Y-236389354D01*
X280436658Y-236446950D01*
X280346950Y-236536658D01*
X280289354Y-236649696D01*
X280287803Y-236659489D01*
X280284964Y-236668226D01*
X280244891Y-236726832D01*
X280179494Y-236754469D01*
X280109537Y-236742362D01*
X280057231Y-236694356D01*
X280040404Y-236647153D01*
X280039503Y-236640863D01*
X280036839Y-236622259D01*
X280033125Y-236614090D01*
X279987145Y-236512962D01*
X279987143Y-236512959D01*
X279983428Y-236504788D01*
X279977566Y-236497985D01*
X279975370Y-236494551D01*
X279955519Y-236426386D01*
X279967324Y-236373415D01*
X280009994Y-236281910D01*
X280009994Y-236281909D01*
X280014068Y-236273173D01*
X280020500Y-236224316D01*
X280020500Y-235875684D01*
X280019889Y-235871039D01*
X280017520Y-235853050D01*
X280014068Y-235826827D01*
X279989888Y-235774972D01*
X279968725Y-235729589D01*
X279968725Y-235729588D01*
X279964065Y-235719596D01*
X279880404Y-235635935D01*
X279881092Y-235635247D01*
X279843131Y-235587753D01*
X279835823Y-235517133D01*
X279867856Y-235453774D01*
X279877496Y-235445421D01*
X279880404Y-235444065D01*
X279964065Y-235360404D01*
X279970339Y-235346950D01*
X280009994Y-235261910D01*
X280009994Y-235261909D01*
X280014068Y-235253173D01*
X280020500Y-235204316D01*
X280020500Y-235093481D01*
X280274500Y-235093481D01*
X280274501Y-235556518D01*
X280275276Y-235561409D01*
X280275276Y-235561412D01*
X280287499Y-235638588D01*
X280289354Y-235650304D01*
X280346950Y-235763342D01*
X280436658Y-235853050D01*
X280549696Y-235910646D01*
X280559485Y-235912196D01*
X280559487Y-235912197D01*
X280586849Y-235916530D01*
X280643481Y-235925500D01*
X280949938Y-235925500D01*
X281256518Y-235925499D01*
X281263944Y-235924323D01*
X281340506Y-235912198D01*
X281340508Y-235912197D01*
X281350304Y-235910646D01*
X281378407Y-235896327D01*
X281405445Y-235882550D01*
X281463342Y-235853050D01*
X281553050Y-235763342D01*
X281610646Y-235650304D01*
X281612320Y-235639739D01*
X281618084Y-235603341D01*
X281625500Y-235556519D01*
X281625499Y-235093482D01*
X281622400Y-235073914D01*
X281612198Y-235009494D01*
X281612197Y-235009492D01*
X281610646Y-234999696D01*
X281553050Y-234886658D01*
X281463342Y-234796950D01*
X281350304Y-234739354D01*
X281351621Y-234736769D01*
X281305957Y-234705544D01*
X281278321Y-234640147D01*
X281277500Y-234625785D01*
X281277500Y-234187844D01*
X281297502Y-234119723D01*
X281314405Y-234098749D01*
X287921257Y-227491898D01*
X287983569Y-227457872D01*
X288049287Y-227461160D01*
X288117199Y-227483226D01*
X288227471Y-227519056D01*
X288227475Y-227519057D01*
X288233329Y-227520959D01*
X288239441Y-227521688D01*
X288239442Y-227521688D01*
X288329833Y-227532466D01*
X288395106Y-227560393D01*
X288434919Y-227619176D01*
X288436631Y-227690152D01*
X288404009Y-227746675D01*
X282582433Y-233568252D01*
X282574329Y-233575679D01*
X282545250Y-233600079D01*
X282539737Y-233609628D01*
X282526275Y-233632945D01*
X282520377Y-233642204D01*
X282498606Y-233673296D01*
X282495754Y-233683940D01*
X282494240Y-233687186D01*
X282493014Y-233690554D01*
X282487503Y-233700100D01*
X282485589Y-233710956D01*
X282480913Y-233737472D01*
X282478536Y-233748195D01*
X282468713Y-233784855D01*
X282469674Y-233795838D01*
X282472020Y-233822650D01*
X282472500Y-233833633D01*
X282472500Y-234650785D01*
X282452498Y-234718906D01*
X282400127Y-234764286D01*
X282399696Y-234764354D01*
X282393772Y-234767372D01*
X282393768Y-234767374D01*
X282363706Y-234782692D01*
X282286658Y-234821950D01*
X282196950Y-234911658D01*
X282139354Y-235024696D01*
X282137804Y-235034485D01*
X282137803Y-235034487D01*
X282137013Y-235039474D01*
X282124500Y-235118481D01*
X282124501Y-235581518D01*
X282125276Y-235586409D01*
X282125276Y-235586412D01*
X282136794Y-235659137D01*
X282139354Y-235675304D01*
X282196950Y-235788342D01*
X282286658Y-235878050D01*
X282399696Y-235935646D01*
X282409485Y-235937196D01*
X282409487Y-235937197D01*
X282436849Y-235941530D01*
X282493481Y-235950500D01*
X282799938Y-235950500D01*
X283106518Y-235950499D01*
X283125057Y-235947563D01*
X283190506Y-235937198D01*
X283190508Y-235937197D01*
X283200304Y-235935646D01*
X283212086Y-235929643D01*
X283249369Y-235910646D01*
X283313342Y-235878050D01*
X283403050Y-235788342D01*
X283460646Y-235675304D01*
X283475500Y-235581519D01*
X283475499Y-235118482D01*
X283472363Y-235098681D01*
X283462198Y-235034494D01*
X283462197Y-235034492D01*
X283460646Y-235024696D01*
X283403050Y-234911658D01*
X283313342Y-234821950D01*
X283200304Y-234764354D01*
X283201621Y-234761769D01*
X283155957Y-234730544D01*
X283128321Y-234665147D01*
X283127500Y-234650785D01*
X283127500Y-234001683D01*
X283147502Y-233933562D01*
X283164405Y-233912588D01*
X283907405Y-233169588D01*
X283969717Y-233135562D01*
X284040532Y-233140627D01*
X284097368Y-233183174D01*
X284122179Y-233249694D01*
X284122500Y-233258683D01*
X284122500Y-234650785D01*
X284102498Y-234718906D01*
X284050127Y-234764286D01*
X284049696Y-234764354D01*
X284043772Y-234767372D01*
X284043768Y-234767374D01*
X284013706Y-234782692D01*
X283936658Y-234821950D01*
X283846950Y-234911658D01*
X283789354Y-235024696D01*
X283787804Y-235034485D01*
X283787803Y-235034487D01*
X283787013Y-235039474D01*
X283774500Y-235118481D01*
X283774501Y-235581518D01*
X283775276Y-235586409D01*
X283775276Y-235586412D01*
X283786794Y-235659137D01*
X283789354Y-235675304D01*
X283846950Y-235788342D01*
X283936658Y-235878050D01*
X284049696Y-235935646D01*
X284059485Y-235937196D01*
X284059487Y-235937197D01*
X284086849Y-235941530D01*
X284143481Y-235950500D01*
X284449938Y-235950500D01*
X284756518Y-235950499D01*
X284775057Y-235947563D01*
X284840506Y-235937198D01*
X284840508Y-235937197D01*
X284850304Y-235935646D01*
X284862086Y-235929643D01*
X284899369Y-235910646D01*
X284963342Y-235878050D01*
X285053050Y-235788342D01*
X285110646Y-235675304D01*
X285125500Y-235581519D01*
X285125499Y-235118482D01*
X285122363Y-235098681D01*
X285112198Y-235034494D01*
X285112197Y-235034492D01*
X285110646Y-235024696D01*
X285053050Y-234911658D01*
X284963342Y-234821950D01*
X284850304Y-234764354D01*
X284851621Y-234761769D01*
X284805957Y-234730544D01*
X284778321Y-234665147D01*
X284777500Y-234650785D01*
X284777500Y-233227844D01*
X284797502Y-233159723D01*
X284814405Y-233138749D01*
X289903884Y-228049271D01*
X303496668Y-228049271D01*
X303496755Y-228053273D01*
X303496755Y-228053280D01*
X303503261Y-228351448D01*
X303503349Y-228355465D01*
X303548883Y-228658330D01*
X303549979Y-228662190D01*
X303549980Y-228662195D01*
X303578372Y-228762195D01*
X303632531Y-228952953D01*
X303752937Y-229234560D01*
X303908149Y-229498585D01*
X304095651Y-229740747D01*
X304098499Y-229743590D01*
X304262233Y-229907038D01*
X304312404Y-229957122D01*
X304315585Y-229959576D01*
X304315586Y-229959577D01*
X304551701Y-230141739D01*
X304551705Y-230141742D01*
X304554894Y-230144202D01*
X304558373Y-230146239D01*
X304802751Y-230289328D01*
X304819189Y-230298953D01*
X304822874Y-230300521D01*
X304822878Y-230300523D01*
X304939799Y-230350273D01*
X305101006Y-230418867D01*
X305395775Y-230502001D01*
X305592794Y-230531270D01*
X305695419Y-230546516D01*
X305695421Y-230546516D01*
X305698718Y-230547006D01*
X305702049Y-230547146D01*
X305702053Y-230547146D01*
X305738737Y-230548683D01*
X305782084Y-230550500D01*
X305977474Y-230550500D01*
X306100915Y-230542626D01*
X306201639Y-230536201D01*
X306201644Y-230536200D01*
X306205647Y-230535945D01*
X306209584Y-230535183D01*
X306209586Y-230535183D01*
X306502401Y-230478530D01*
X306502405Y-230478529D01*
X306506338Y-230477768D01*
X306797200Y-230381856D01*
X307073518Y-230249763D01*
X307301815Y-230102354D01*
X307327439Y-230085809D01*
X307327440Y-230085808D01*
X307330812Y-230083631D01*
X307359327Y-230059577D01*
X307504135Y-229937420D01*
X307564910Y-229886152D01*
X307720005Y-229717193D01*
X307769304Y-229663487D01*
X307769306Y-229663485D01*
X307772019Y-229660529D01*
X307839990Y-229564353D01*
X307878107Y-229510418D01*
X307948780Y-229410418D01*
X308086690Y-229150500D01*
X308090445Y-229143423D01*
X308090445Y-229143422D01*
X308092328Y-229139874D01*
X308109909Y-229093224D01*
X308198919Y-228857044D01*
X308198921Y-228857038D01*
X308200336Y-228853283D01*
X308221952Y-228762195D01*
X308270124Y-228559207D01*
X308270125Y-228559202D01*
X308271053Y-228555291D01*
X308303332Y-228250729D01*
X308303084Y-228239323D01*
X308296739Y-227948552D01*
X308296739Y-227948547D01*
X308296651Y-227944535D01*
X308251117Y-227641670D01*
X308249195Y-227634898D01*
X308196358Y-227448799D01*
X308167469Y-227347047D01*
X308164046Y-227339040D01*
X308121451Y-227239420D01*
X308047063Y-227065440D01*
X307891851Y-226801415D01*
X307704349Y-226559253D01*
X307519244Y-226374471D01*
X307490437Y-226345714D01*
X307487596Y-226342878D01*
X307471459Y-226330428D01*
X307248299Y-226158261D01*
X307248295Y-226158258D01*
X307245106Y-226155798D01*
X307180514Y-226117978D01*
X306984275Y-226003075D01*
X306984272Y-226003073D01*
X306980811Y-226001047D01*
X306977126Y-225999479D01*
X306977122Y-225999477D01*
X306790051Y-225919878D01*
X306698994Y-225881133D01*
X306404225Y-225797999D01*
X306154426Y-225760889D01*
X306104581Y-225753484D01*
X306104579Y-225753484D01*
X306101282Y-225752994D01*
X306097951Y-225752854D01*
X306097947Y-225752854D01*
X306061263Y-225751317D01*
X306017916Y-225749500D01*
X305822526Y-225749500D01*
X305699085Y-225757374D01*
X305598361Y-225763799D01*
X305598356Y-225763800D01*
X305594353Y-225764055D01*
X305590416Y-225764817D01*
X305590414Y-225764817D01*
X305297599Y-225821470D01*
X305297595Y-225821471D01*
X305293662Y-225822232D01*
X305002800Y-225918144D01*
X304726482Y-226050237D01*
X304723112Y-226052413D01*
X304481380Y-226208497D01*
X304469188Y-226216369D01*
X304466123Y-226218954D01*
X304466121Y-226218956D01*
X304373637Y-226296973D01*
X304235090Y-226413848D01*
X304089199Y-226572781D01*
X304041925Y-226624281D01*
X304027981Y-226639471D01*
X304025667Y-226642746D01*
X304025664Y-226642749D01*
X304014000Y-226659253D01*
X303851220Y-226889582D01*
X303757272Y-227066646D01*
X303717204Y-227142162D01*
X303707672Y-227160126D01*
X303706257Y-227163882D01*
X303706256Y-227163883D01*
X303601553Y-227441705D01*
X303599664Y-227446717D01*
X303595666Y-227463563D01*
X303529952Y-227740476D01*
X303528947Y-227744709D01*
X303496668Y-228049271D01*
X289903884Y-228049271D01*
X290338302Y-227614853D01*
X292779977Y-227614853D01*
X292785258Y-227621907D01*
X292946756Y-227716279D01*
X292956042Y-227720729D01*
X293155001Y-227796703D01*
X293164899Y-227799579D01*
X293373595Y-227842038D01*
X293383823Y-227843257D01*
X293596650Y-227851062D01*
X293606936Y-227850595D01*
X293818185Y-227823534D01*
X293828262Y-227821392D01*
X294032255Y-227760191D01*
X294041842Y-227756433D01*
X294233098Y-227662738D01*
X294241944Y-227657465D01*
X294289247Y-227623723D01*
X294297648Y-227613023D01*
X294290660Y-227599870D01*
X293552812Y-226862022D01*
X293538868Y-226854408D01*
X293537035Y-226854539D01*
X293530420Y-226858790D01*
X292786737Y-227602473D01*
X292779977Y-227614853D01*
X290338302Y-227614853D01*
X290461257Y-227491898D01*
X290523569Y-227457872D01*
X290589287Y-227461160D01*
X290657199Y-227483226D01*
X290767471Y-227519056D01*
X290767475Y-227519057D01*
X290773329Y-227520959D01*
X290977894Y-227545351D01*
X290984029Y-227544879D01*
X290984031Y-227544879D01*
X291056404Y-227539310D01*
X291183300Y-227529546D01*
X291189230Y-227527890D01*
X291189232Y-227527890D01*
X291375797Y-227475800D01*
X291375796Y-227475800D01*
X291381725Y-227474145D01*
X291387214Y-227471372D01*
X291387220Y-227471370D01*
X291519952Y-227404322D01*
X291565610Y-227381258D01*
X291604443Y-227350919D01*
X291699093Y-227276970D01*
X291727951Y-227254424D01*
X291732737Y-227248880D01*
X291858540Y-227103134D01*
X291858540Y-227103133D01*
X291862564Y-227098472D01*
X291870123Y-227085167D01*
X291920485Y-226996512D01*
X291964323Y-226919344D01*
X291975313Y-226886307D01*
X291988496Y-226846678D01*
X292028978Y-226788354D01*
X292094566Y-226761175D01*
X292164437Y-226773770D01*
X292216406Y-226822141D01*
X292230971Y-226858751D01*
X292238564Y-226892444D01*
X292241645Y-226902275D01*
X292321770Y-227099603D01*
X292326413Y-227108794D01*
X292406460Y-227239420D01*
X292416916Y-227248880D01*
X292425694Y-227245096D01*
X293167978Y-226502812D01*
X293174356Y-226491132D01*
X293904408Y-226491132D01*
X293904539Y-226492965D01*
X293908790Y-226499580D01*
X294650474Y-227241264D01*
X294662484Y-227247823D01*
X294674223Y-227238855D01*
X294705004Y-227196019D01*
X294710315Y-227187180D01*
X294804670Y-226996267D01*
X294808469Y-226986672D01*
X294870376Y-226782915D01*
X294872555Y-226772834D01*
X294900590Y-226559887D01*
X294901109Y-226553212D01*
X294902572Y-226493364D01*
X294902378Y-226486646D01*
X294884781Y-226272604D01*
X294883096Y-226262424D01*
X294831214Y-226055875D01*
X294827894Y-226046124D01*
X294742972Y-225850814D01*
X294738105Y-225841739D01*
X294673063Y-225741197D01*
X294662377Y-225731995D01*
X294652812Y-225736398D01*
X293912022Y-226477188D01*
X293904408Y-226491132D01*
X293174356Y-226491132D01*
X293175592Y-226488868D01*
X293175461Y-226487035D01*
X293171210Y-226480420D01*
X292429849Y-225739059D01*
X292418313Y-225732759D01*
X292406031Y-225742382D01*
X292358089Y-225812662D01*
X292353004Y-225821613D01*
X292263338Y-226014783D01*
X292259775Y-226024470D01*
X292231012Y-226128185D01*
X292193533Y-226188483D01*
X292129405Y-226218946D01*
X292058986Y-226209903D01*
X292004636Y-226164224D01*
X291988973Y-226130933D01*
X291987528Y-226126146D01*
X291975935Y-226087749D01*
X291879218Y-225905849D01*
X291792148Y-225799091D01*
X291752906Y-225750975D01*
X291752903Y-225750972D01*
X291749011Y-225746200D01*
X291744262Y-225742271D01*
X291595025Y-225618811D01*
X291595021Y-225618809D01*
X291590275Y-225614882D01*
X291409055Y-225516897D01*
X291212254Y-225455977D01*
X291206129Y-225455333D01*
X291206128Y-225455333D01*
X291013498Y-225435087D01*
X291013496Y-225435087D01*
X291007369Y-225434443D01*
X290920529Y-225442346D01*
X290808342Y-225452555D01*
X290808339Y-225452556D01*
X290802203Y-225453114D01*
X290604572Y-225511280D01*
X290422002Y-225606726D01*
X290417201Y-225610586D01*
X290417198Y-225610588D01*
X290349734Y-225664831D01*
X290312908Y-225694440D01*
X290282452Y-225718927D01*
X290216830Y-225746023D01*
X290146975Y-225733340D01*
X290095067Y-225684904D01*
X290077500Y-225620730D01*
X290077500Y-225387845D01*
X290097502Y-225319724D01*
X290114405Y-225298750D01*
X290461257Y-224951898D01*
X290523569Y-224917872D01*
X290589287Y-224921160D01*
X290667586Y-224946601D01*
X290767471Y-224979056D01*
X290767475Y-224979057D01*
X290773329Y-224980959D01*
X290977894Y-225005351D01*
X290984029Y-225004879D01*
X290984031Y-225004879D01*
X291044565Y-225000221D01*
X291183300Y-224989546D01*
X291189230Y-224987890D01*
X291189232Y-224987890D01*
X291327524Y-224949278D01*
X291381725Y-224934145D01*
X291387214Y-224931372D01*
X291387220Y-224931370D01*
X291547949Y-224850179D01*
X291565610Y-224841258D01*
X291727951Y-224714424D01*
X291789934Y-224642616D01*
X291858540Y-224563134D01*
X291858540Y-224563133D01*
X291862564Y-224558472D01*
X291876224Y-224534427D01*
X291910762Y-224473629D01*
X291964323Y-224379344D01*
X292029351Y-224183863D01*
X292055171Y-223979474D01*
X292055583Y-223950000D01*
X292054138Y-223935262D01*
X292484520Y-223935262D01*
X292486053Y-223953522D01*
X292494822Y-224057939D01*
X292501759Y-224140553D01*
X292503458Y-224146478D01*
X292556845Y-224332660D01*
X292558544Y-224338586D01*
X292561359Y-224344063D01*
X292561360Y-224344066D01*
X292649031Y-224514655D01*
X292652712Y-224521818D01*
X292780677Y-224683270D01*
X292785370Y-224687264D01*
X292785371Y-224687265D01*
X292888077Y-224774674D01*
X292937564Y-224816791D01*
X292942942Y-224819797D01*
X292942944Y-224819798D01*
X293021120Y-224863489D01*
X293117398Y-224917297D01*
X293182437Y-224938429D01*
X293241042Y-224978502D01*
X293268680Y-225043898D01*
X293256574Y-225113855D01*
X293208568Y-225166162D01*
X293182646Y-225178027D01*
X293016868Y-225232212D01*
X293007359Y-225236209D01*
X292818466Y-225334540D01*
X292809734Y-225340039D01*
X292789677Y-225355099D01*
X292781223Y-225366427D01*
X292787968Y-225378758D01*
X293527188Y-226117978D01*
X293541132Y-226125592D01*
X293542965Y-226125461D01*
X293549580Y-226121210D01*
X294293389Y-225377401D01*
X294300410Y-225364544D01*
X294293611Y-225355213D01*
X294289554Y-225352518D01*
X294103117Y-225249599D01*
X294093705Y-225245369D01*
X293902031Y-225177493D01*
X293844495Y-225135899D01*
X293818579Y-225069801D01*
X293832513Y-225000185D01*
X293881872Y-224949154D01*
X293910206Y-224937362D01*
X293915790Y-224935803D01*
X293915799Y-224935800D01*
X293921725Y-224934145D01*
X293927214Y-224931372D01*
X293927220Y-224931370D01*
X294087949Y-224850179D01*
X294105610Y-224841258D01*
X294267951Y-224714424D01*
X294329934Y-224642616D01*
X294398540Y-224563134D01*
X294398540Y-224563133D01*
X294402564Y-224558472D01*
X294416224Y-224534427D01*
X294450762Y-224473629D01*
X294504323Y-224379344D01*
X294569351Y-224183863D01*
X294595171Y-223979474D01*
X294595583Y-223950000D01*
X294575480Y-223744970D01*
X294515935Y-223547749D01*
X294419218Y-223365849D01*
X294335346Y-223263012D01*
X294292906Y-223210975D01*
X294292903Y-223210972D01*
X294289011Y-223206200D01*
X294282704Y-223200982D01*
X294135025Y-223078811D01*
X294135021Y-223078809D01*
X294130275Y-223074882D01*
X293949055Y-222976897D01*
X293752254Y-222915977D01*
X293746129Y-222915333D01*
X293746128Y-222915333D01*
X293553498Y-222895087D01*
X293553496Y-222895087D01*
X293547369Y-222894443D01*
X293464692Y-222901967D01*
X293348342Y-222912555D01*
X293348339Y-222912556D01*
X293342203Y-222913114D01*
X293144572Y-222971280D01*
X293139107Y-222974137D01*
X293137313Y-222975075D01*
X292962002Y-223066726D01*
X292957201Y-223070586D01*
X292957198Y-223070588D01*
X292819680Y-223181155D01*
X292801447Y-223195815D01*
X292669024Y-223353630D01*
X292666056Y-223359028D01*
X292666053Y-223359033D01*
X292588630Y-223499866D01*
X292569776Y-223534162D01*
X292567913Y-223540035D01*
X292513058Y-223712962D01*
X292507484Y-223730532D01*
X292506798Y-223736649D01*
X292506797Y-223736653D01*
X292497195Y-223822259D01*
X292484520Y-223935262D01*
X292054138Y-223935262D01*
X292035480Y-223744970D01*
X291975935Y-223547749D01*
X291879218Y-223365849D01*
X291795346Y-223263012D01*
X291752906Y-223210975D01*
X291752903Y-223210972D01*
X291749011Y-223206200D01*
X291742704Y-223200982D01*
X291595025Y-223078811D01*
X291595021Y-223078809D01*
X291590275Y-223074882D01*
X291409055Y-222976897D01*
X291212254Y-222915977D01*
X291206129Y-222915333D01*
X291206128Y-222915333D01*
X291013498Y-222895087D01*
X291013496Y-222895087D01*
X291007369Y-222894443D01*
X290924692Y-222901967D01*
X290808342Y-222912555D01*
X290808339Y-222912556D01*
X290802203Y-222913114D01*
X290604572Y-222971280D01*
X290599107Y-222974137D01*
X290597313Y-222975075D01*
X290422002Y-223066726D01*
X290417201Y-223070586D01*
X290417198Y-223070588D01*
X290279680Y-223181155D01*
X290261447Y-223195815D01*
X290129024Y-223353630D01*
X290126056Y-223359028D01*
X290126053Y-223359033D01*
X290048630Y-223499866D01*
X290029776Y-223534162D01*
X290027913Y-223540035D01*
X289973058Y-223712962D01*
X289967484Y-223730532D01*
X289966798Y-223736649D01*
X289966797Y-223736653D01*
X289957195Y-223822259D01*
X289944520Y-223935262D01*
X289946053Y-223953522D01*
X289954822Y-224057939D01*
X289961759Y-224140553D01*
X290018544Y-224338586D01*
X290021364Y-224344072D01*
X290023629Y-224349794D01*
X290022087Y-224350404D01*
X290033926Y-224412294D01*
X290007446Y-224478168D01*
X289997609Y-224489236D01*
X289532427Y-224954419D01*
X289524323Y-224961845D01*
X289495250Y-224986240D01*
X289489737Y-224995789D01*
X289476275Y-225019106D01*
X289470377Y-225028365D01*
X289448606Y-225059457D01*
X289445754Y-225070101D01*
X289444240Y-225073347D01*
X289443014Y-225076715D01*
X289437503Y-225086261D01*
X289435589Y-225097117D01*
X289430913Y-225123633D01*
X289428536Y-225134356D01*
X289418713Y-225171016D01*
X289419674Y-225181999D01*
X289422020Y-225208811D01*
X289422500Y-225219794D01*
X289422500Y-225656339D01*
X289402498Y-225724460D01*
X289348842Y-225770953D01*
X289278568Y-225781057D01*
X289213988Y-225751563D01*
X289211456Y-225749198D01*
X289209011Y-225746200D01*
X289204262Y-225742271D01*
X289055025Y-225618811D01*
X289055021Y-225618809D01*
X289050275Y-225614882D01*
X288869055Y-225516897D01*
X288672254Y-225455977D01*
X288666129Y-225455333D01*
X288666128Y-225455333D01*
X288473498Y-225435087D01*
X288473496Y-225435087D01*
X288467369Y-225434443D01*
X288380529Y-225442346D01*
X288268342Y-225452555D01*
X288268339Y-225452556D01*
X288262203Y-225453114D01*
X288064572Y-225511280D01*
X287882002Y-225606726D01*
X287877201Y-225610586D01*
X287877198Y-225610588D01*
X287735771Y-225724298D01*
X287721447Y-225735815D01*
X287589024Y-225893630D01*
X287586056Y-225899028D01*
X287586053Y-225899033D01*
X287500377Y-226054878D01*
X287489776Y-226074162D01*
X287427484Y-226270532D01*
X287426798Y-226276649D01*
X287426797Y-226276653D01*
X287411222Y-226415510D01*
X287404520Y-226475262D01*
X287407029Y-226505146D01*
X287419732Y-226656410D01*
X287421759Y-226680553D01*
X287478544Y-226878586D01*
X287481364Y-226884072D01*
X287483629Y-226889794D01*
X287482083Y-226890406D01*
X287493929Y-226952269D01*
X287467463Y-227018148D01*
X287457609Y-227029236D01*
X280732433Y-233754413D01*
X280724329Y-233761840D01*
X280695250Y-233786240D01*
X280689737Y-233795789D01*
X280676275Y-233819106D01*
X280670377Y-233828365D01*
X280648606Y-233859457D01*
X280645754Y-233870101D01*
X280644240Y-233873347D01*
X280643014Y-233876715D01*
X280637503Y-233886261D01*
X280632971Y-233911962D01*
X280630913Y-233923633D01*
X280628536Y-233934356D01*
X280618713Y-233971016D01*
X280619674Y-233981999D01*
X280622020Y-234008811D01*
X280622500Y-234019794D01*
X280622500Y-234625785D01*
X280602498Y-234693906D01*
X280550127Y-234739286D01*
X280549696Y-234739354D01*
X280543772Y-234742372D01*
X280543768Y-234742374D01*
X280505704Y-234761769D01*
X280436658Y-234796950D01*
X280346950Y-234886658D01*
X280289354Y-234999696D01*
X280274500Y-235093481D01*
X280020500Y-235093481D01*
X280020500Y-234855684D01*
X280014068Y-234806827D01*
X280006470Y-234790532D01*
X279968725Y-234709589D01*
X279968725Y-234709588D01*
X279964065Y-234699596D01*
X279937405Y-234672936D01*
X279903379Y-234610624D01*
X279900500Y-234583841D01*
X279900500Y-232088793D01*
X279920502Y-232020672D01*
X279937405Y-231999698D01*
X281134350Y-230802753D01*
X281145439Y-230792899D01*
X281164710Y-230777706D01*
X281164711Y-230777705D01*
X281172110Y-230771872D01*
X281177465Y-230764124D01*
X281177467Y-230764122D01*
X281205474Y-230723600D01*
X281207774Y-230720381D01*
X281237038Y-230680760D01*
X281237039Y-230680759D01*
X281242634Y-230673183D01*
X281245027Y-230666369D01*
X281249131Y-230660431D01*
X281266817Y-230604509D01*
X281268070Y-230600753D01*
X281284398Y-230554258D01*
X281287520Y-230545369D01*
X281287803Y-230538183D01*
X281287817Y-230538112D01*
X281289980Y-230531270D01*
X281290500Y-230524663D01*
X281290500Y-230471994D01*
X281290597Y-230467048D01*
X281290601Y-230466945D01*
X281292838Y-230410006D01*
X281290954Y-230402900D01*
X281290500Y-230394653D01*
X281290500Y-229576055D01*
X281291839Y-229564353D01*
X281291319Y-229564312D01*
X281292058Y-229554921D01*
X281294185Y-229545745D01*
X281291916Y-229513693D01*
X281290815Y-229498151D01*
X281290500Y-229489252D01*
X281290500Y-227516920D01*
X281310502Y-227448799D01*
X281359688Y-227404455D01*
X281405610Y-227381258D01*
X281567951Y-227254424D01*
X281572737Y-227248880D01*
X281698540Y-227103134D01*
X281698540Y-227103133D01*
X281702564Y-227098472D01*
X281710123Y-227085167D01*
X281760485Y-226996512D01*
X281804323Y-226919344D01*
X281869351Y-226723863D01*
X281895171Y-226519474D01*
X281895583Y-226490000D01*
X281894138Y-226475262D01*
X282324520Y-226475262D01*
X282327029Y-226505146D01*
X282339732Y-226656410D01*
X282341759Y-226680553D01*
X282343458Y-226686478D01*
X282396845Y-226872660D01*
X282398544Y-226878586D01*
X282401359Y-226884063D01*
X282401360Y-226884066D01*
X282467685Y-227013120D01*
X282492712Y-227061818D01*
X282620677Y-227223270D01*
X282646323Y-227245096D01*
X282761770Y-227343349D01*
X282777564Y-227356791D01*
X282782942Y-227359797D01*
X282782944Y-227359798D01*
X282862847Y-227404454D01*
X282957398Y-227457297D01*
X283037199Y-227483226D01*
X283147471Y-227519056D01*
X283147475Y-227519057D01*
X283153329Y-227520959D01*
X283357894Y-227545351D01*
X283364029Y-227544879D01*
X283364031Y-227544879D01*
X283436404Y-227539310D01*
X283563300Y-227529546D01*
X283569230Y-227527890D01*
X283569232Y-227527890D01*
X283755797Y-227475800D01*
X283755796Y-227475800D01*
X283761725Y-227474145D01*
X283767214Y-227471372D01*
X283767220Y-227471370D01*
X283899952Y-227404322D01*
X283945610Y-227381258D01*
X283984443Y-227350919D01*
X284079093Y-227276970D01*
X284107951Y-227254424D01*
X284112737Y-227248880D01*
X284238540Y-227103134D01*
X284238540Y-227103133D01*
X284242564Y-227098472D01*
X284250123Y-227085167D01*
X284300485Y-226996512D01*
X284344323Y-226919344D01*
X284409351Y-226723863D01*
X284435171Y-226519474D01*
X284435583Y-226490000D01*
X284434138Y-226475262D01*
X284864520Y-226475262D01*
X284867029Y-226505146D01*
X284879732Y-226656410D01*
X284881759Y-226680553D01*
X284883458Y-226686478D01*
X284936845Y-226872660D01*
X284938544Y-226878586D01*
X284941359Y-226884063D01*
X284941360Y-226884066D01*
X285007685Y-227013120D01*
X285032712Y-227061818D01*
X285160677Y-227223270D01*
X285186323Y-227245096D01*
X285301770Y-227343349D01*
X285317564Y-227356791D01*
X285322942Y-227359797D01*
X285322944Y-227359798D01*
X285402847Y-227404454D01*
X285497398Y-227457297D01*
X285577199Y-227483226D01*
X285687471Y-227519056D01*
X285687475Y-227519057D01*
X285693329Y-227520959D01*
X285897894Y-227545351D01*
X285904029Y-227544879D01*
X285904031Y-227544879D01*
X285976404Y-227539310D01*
X286103300Y-227529546D01*
X286109230Y-227527890D01*
X286109232Y-227527890D01*
X286295797Y-227475800D01*
X286295796Y-227475800D01*
X286301725Y-227474145D01*
X286307214Y-227471372D01*
X286307220Y-227471370D01*
X286439952Y-227404322D01*
X286485610Y-227381258D01*
X286524443Y-227350919D01*
X286619093Y-227276970D01*
X286647951Y-227254424D01*
X286652737Y-227248880D01*
X286778540Y-227103134D01*
X286778540Y-227103133D01*
X286782564Y-227098472D01*
X286790123Y-227085167D01*
X286840485Y-226996512D01*
X286884323Y-226919344D01*
X286949351Y-226723863D01*
X286975171Y-226519474D01*
X286975583Y-226490000D01*
X286955480Y-226284970D01*
X286895935Y-226087749D01*
X286799218Y-225905849D01*
X286712148Y-225799091D01*
X286672906Y-225750975D01*
X286672903Y-225750972D01*
X286669011Y-225746200D01*
X286664262Y-225742271D01*
X286515025Y-225618811D01*
X286515021Y-225618809D01*
X286510275Y-225614882D01*
X286329055Y-225516897D01*
X286132254Y-225455977D01*
X286126129Y-225455333D01*
X286126128Y-225455333D01*
X285933498Y-225435087D01*
X285933496Y-225435087D01*
X285927369Y-225434443D01*
X285840529Y-225442346D01*
X285728342Y-225452555D01*
X285728339Y-225452556D01*
X285722203Y-225453114D01*
X285524572Y-225511280D01*
X285342002Y-225606726D01*
X285337201Y-225610586D01*
X285337198Y-225610588D01*
X285195771Y-225724298D01*
X285181447Y-225735815D01*
X285049024Y-225893630D01*
X285046056Y-225899028D01*
X285046053Y-225899033D01*
X284960377Y-226054878D01*
X284949776Y-226074162D01*
X284887484Y-226270532D01*
X284886798Y-226276649D01*
X284886797Y-226276653D01*
X284871222Y-226415510D01*
X284864520Y-226475262D01*
X284434138Y-226475262D01*
X284415480Y-226284970D01*
X284355935Y-226087749D01*
X284259218Y-225905849D01*
X284172148Y-225799091D01*
X284132906Y-225750975D01*
X284132903Y-225750972D01*
X284129011Y-225746200D01*
X284124262Y-225742271D01*
X283975025Y-225618811D01*
X283975021Y-225618809D01*
X283970275Y-225614882D01*
X283789055Y-225516897D01*
X283592254Y-225455977D01*
X283586129Y-225455333D01*
X283586128Y-225455333D01*
X283393498Y-225435087D01*
X283393496Y-225435087D01*
X283387369Y-225434443D01*
X283300529Y-225442346D01*
X283188342Y-225452555D01*
X283188339Y-225452556D01*
X283182203Y-225453114D01*
X282984572Y-225511280D01*
X282802002Y-225606726D01*
X282797201Y-225610586D01*
X282797198Y-225610588D01*
X282655771Y-225724298D01*
X282641447Y-225735815D01*
X282509024Y-225893630D01*
X282506056Y-225899028D01*
X282506053Y-225899033D01*
X282420377Y-226054878D01*
X282409776Y-226074162D01*
X282347484Y-226270532D01*
X282346798Y-226276649D01*
X282346797Y-226276653D01*
X282331222Y-226415510D01*
X282324520Y-226475262D01*
X281894138Y-226475262D01*
X281875480Y-226284970D01*
X281815935Y-226087749D01*
X281719218Y-225905849D01*
X281632148Y-225799091D01*
X281592906Y-225750975D01*
X281592903Y-225750972D01*
X281589011Y-225746200D01*
X281584262Y-225742271D01*
X281435025Y-225618811D01*
X281435021Y-225618809D01*
X281430275Y-225614882D01*
X281249055Y-225516897D01*
X281052254Y-225455977D01*
X281046129Y-225455333D01*
X281046128Y-225455333D01*
X280853498Y-225435087D01*
X280853496Y-225435087D01*
X280847369Y-225434443D01*
X280760529Y-225442346D01*
X280648342Y-225452555D01*
X280648339Y-225452556D01*
X280642203Y-225453114D01*
X280444572Y-225511280D01*
X280262002Y-225606726D01*
X280257201Y-225610586D01*
X280257198Y-225610588D01*
X280115771Y-225724298D01*
X280101447Y-225735815D01*
X279969024Y-225893630D01*
X279966056Y-225899028D01*
X279966053Y-225899033D01*
X279880377Y-226054878D01*
X279869776Y-226074162D01*
X279854881Y-226121119D01*
X279851068Y-226133138D01*
X279811405Y-226192022D01*
X279746202Y-226220114D01*
X279676163Y-226208497D01*
X279623523Y-226160857D01*
X279608762Y-226125735D01*
X279591214Y-226055875D01*
X279587894Y-226046124D01*
X279502972Y-225850814D01*
X279498105Y-225841739D01*
X279433063Y-225741197D01*
X279422377Y-225731995D01*
X279412812Y-225736398D01*
X278672022Y-226477188D01*
X278664408Y-226491132D01*
X278664539Y-226492965D01*
X278668790Y-226499580D01*
X279410474Y-227241264D01*
X279422484Y-227247823D01*
X279434223Y-227238855D01*
X279465004Y-227196019D01*
X279470315Y-227187180D01*
X279564670Y-226996267D01*
X279568469Y-226986672D01*
X279609593Y-226851319D01*
X279648534Y-226791955D01*
X279713388Y-226763068D01*
X279783564Y-226773830D01*
X279836782Y-226820823D01*
X279851270Y-226853218D01*
X279856845Y-226872660D01*
X279858544Y-226878586D01*
X279861359Y-226884063D01*
X279861360Y-226884066D01*
X279927685Y-227013120D01*
X279952712Y-227061818D01*
X280080677Y-227223270D01*
X280106323Y-227245096D01*
X280221770Y-227343349D01*
X280237564Y-227356791D01*
X280242942Y-227359797D01*
X280242944Y-227359798D01*
X280255521Y-227366827D01*
X280324971Y-227405641D01*
X280374676Y-227456333D01*
X280389500Y-227515628D01*
X280389500Y-228933500D01*
X280369498Y-229001621D01*
X280315842Y-229048114D01*
X280263500Y-229059500D01*
X278098793Y-229059500D01*
X278030672Y-229039498D01*
X278009698Y-229022595D01*
X276601956Y-227614853D01*
X277539977Y-227614853D01*
X277545258Y-227621907D01*
X277706756Y-227716279D01*
X277716042Y-227720729D01*
X277915001Y-227796703D01*
X277924899Y-227799579D01*
X278133595Y-227842038D01*
X278143823Y-227843257D01*
X278356650Y-227851062D01*
X278366936Y-227850595D01*
X278578185Y-227823534D01*
X278588262Y-227821392D01*
X278792255Y-227760191D01*
X278801842Y-227756433D01*
X278993098Y-227662738D01*
X279001944Y-227657465D01*
X279049247Y-227623723D01*
X279057648Y-227613023D01*
X279050660Y-227599870D01*
X278312812Y-226862022D01*
X278298868Y-226854408D01*
X278297035Y-226854539D01*
X278290420Y-226858790D01*
X277546737Y-227602473D01*
X277539977Y-227614853D01*
X276601956Y-227614853D01*
X276209032Y-227221929D01*
X276202674Y-227215081D01*
X276180056Y-227188831D01*
X276180051Y-227188827D01*
X276174193Y-227182028D01*
X276134689Y-227156423D01*
X276128367Y-227152045D01*
X276095763Y-227127963D01*
X276095758Y-227127960D01*
X276088184Y-227122366D01*
X276079297Y-227119245D01*
X276077548Y-227118319D01*
X276073147Y-227116534D01*
X276065906Y-227111841D01*
X276057308Y-227109270D01*
X276057307Y-227109269D01*
X276016895Y-227097183D01*
X276011262Y-227095353D01*
X275992845Y-227088885D01*
X275969252Y-227080600D01*
X275969249Y-227080600D01*
X275960369Y-227077481D01*
X275950962Y-227077111D01*
X275948815Y-227076702D01*
X275948227Y-227076647D01*
X275942273Y-227074866D01*
X275933298Y-227074811D01*
X275933296Y-227074811D01*
X275912056Y-227074682D01*
X275886975Y-227074529D01*
X275882830Y-227074434D01*
X275825006Y-227072162D01*
X275817677Y-227074105D01*
X275813231Y-227074078D01*
X275777980Y-227084153D01*
X275756020Y-227090429D01*
X275753687Y-227091072D01*
X275703170Y-227104466D01*
X275703168Y-227104467D01*
X275694063Y-227106881D01*
X275690348Y-227109198D01*
X275689155Y-227109539D01*
X275662288Y-227126491D01*
X275634075Y-227144292D01*
X275633515Y-227144642D01*
X275594247Y-227169132D01*
X275579118Y-227178567D01*
X275537026Y-227227075D01*
X275536459Y-227227722D01*
X275494596Y-227275122D01*
X275493728Y-227276970D01*
X275490333Y-227280883D01*
X275486526Y-227289494D01*
X275486523Y-227289499D01*
X275465773Y-227336437D01*
X275464596Y-227339019D01*
X275439754Y-227391932D01*
X275438946Y-227397118D01*
X275435558Y-227404783D01*
X275434452Y-227414131D01*
X275434451Y-227414133D01*
X275428871Y-227461279D01*
X275428244Y-227465852D01*
X275425539Y-227483226D01*
X275419901Y-227519440D01*
X275420787Y-227526215D01*
X275420678Y-227527885D01*
X275420743Y-227529954D01*
X275419636Y-227539310D01*
X275429150Y-227591403D01*
X275430132Y-227597679D01*
X275433774Y-227625528D01*
X275436633Y-227647394D01*
X275440246Y-227655605D01*
X275440512Y-227656558D01*
X275441626Y-227661390D01*
X275442283Y-227663309D01*
X275443975Y-227672573D01*
X275466542Y-227716017D01*
X275470047Y-227723335D01*
X275484989Y-227757294D01*
X275484992Y-227757298D01*
X275487417Y-227762811D01*
X275487419Y-227762817D01*
X275488605Y-227765511D01*
X275488216Y-227765682D01*
X275505624Y-227828293D01*
X275484642Y-227896118D01*
X275430321Y-227941833D01*
X275359909Y-227950922D01*
X275290542Y-227915571D01*
X273836834Y-226461863D01*
X276938050Y-226461863D01*
X276950309Y-226674477D01*
X276951745Y-226684697D01*
X276998565Y-226892446D01*
X277001645Y-226902275D01*
X277081770Y-227099603D01*
X277086413Y-227108794D01*
X277166460Y-227239420D01*
X277176916Y-227248880D01*
X277185694Y-227245096D01*
X277927978Y-226502812D01*
X277935592Y-226488868D01*
X277935461Y-226487035D01*
X277931210Y-226480420D01*
X277189849Y-225739059D01*
X277178313Y-225732759D01*
X277166031Y-225742382D01*
X277118089Y-225812662D01*
X277113004Y-225821613D01*
X277023338Y-226014783D01*
X277019775Y-226024470D01*
X276962864Y-226229681D01*
X276960933Y-226239800D01*
X276938302Y-226451574D01*
X276938050Y-226461863D01*
X273836834Y-226461863D01*
X271949519Y-224574548D01*
X271947763Y-224572514D01*
X271945425Y-224567731D01*
X271909523Y-224534427D01*
X271906118Y-224531147D01*
X271892723Y-224517752D01*
X271888753Y-224515028D01*
X271886105Y-224512703D01*
X271871881Y-224499508D01*
X271871878Y-224499506D01*
X271863354Y-224491599D01*
X271852550Y-224487289D01*
X271848561Y-224484767D01*
X271837773Y-224479006D01*
X271833448Y-224477089D01*
X271823854Y-224470508D01*
X271812535Y-224467822D01*
X271812533Y-224467821D01*
X271799873Y-224464817D01*
X271782276Y-224459252D01*
X271767638Y-224453412D01*
X271767635Y-224453411D01*
X271759378Y-224450117D01*
X271753085Y-224449500D01*
X271750006Y-224449500D01*
X271746933Y-224449350D01*
X271746944Y-224449134D01*
X271735569Y-224447802D01*
X271726254Y-224447346D01*
X271714934Y-224444660D01*
X271703405Y-224446229D01*
X271703404Y-224446229D01*
X271687827Y-224448349D01*
X271670836Y-224449500D01*
X270867845Y-224449500D01*
X270799724Y-224429498D01*
X270753231Y-224375842D01*
X270743127Y-224305568D01*
X270772621Y-224240988D01*
X270778750Y-224234404D01*
X271052035Y-223961120D01*
X271351020Y-223662135D01*
X271413332Y-223628110D01*
X271422835Y-223626489D01*
X271431255Y-223626643D01*
X271439911Y-223624283D01*
X271439912Y-223624283D01*
X271547092Y-223595062D01*
X271547093Y-223595062D01*
X271555755Y-223592700D01*
X271563405Y-223588003D01*
X271563407Y-223588002D01*
X271658072Y-223529878D01*
X271658075Y-223529875D01*
X271665724Y-223525179D01*
X271684100Y-223504878D01*
X271746300Y-223436161D01*
X271746303Y-223436157D01*
X271752322Y-223429507D01*
X271808588Y-223313375D01*
X271811436Y-223296450D01*
X271829190Y-223190917D01*
X271829997Y-223186120D01*
X271830133Y-223175000D01*
X271820529Y-223107939D01*
X271813112Y-223056145D01*
X271813111Y-223056142D01*
X271811839Y-223047259D01*
X271770187Y-222955650D01*
X271760200Y-222885361D01*
X271789801Y-222820829D01*
X271849591Y-222782545D01*
X271884888Y-222777500D01*
X277334128Y-222777500D01*
X277402249Y-222797502D01*
X277448742Y-222851158D01*
X277458846Y-222921432D01*
X277429352Y-222986012D01*
X277408987Y-223004851D01*
X277385424Y-223022255D01*
X277385421Y-223022258D01*
X277377850Y-223027850D01*
X277372258Y-223035421D01*
X277302959Y-223129243D01*
X277302958Y-223129246D01*
X277297366Y-223136816D01*
X277252481Y-223264631D01*
X277249500Y-223296166D01*
X277249500Y-224603834D01*
X277252481Y-224635369D01*
X277297366Y-224763184D01*
X277302958Y-224770754D01*
X277302959Y-224770757D01*
X277336961Y-224816791D01*
X277377850Y-224872150D01*
X277385421Y-224877742D01*
X277479243Y-224947041D01*
X277479246Y-224947042D01*
X277486816Y-224952634D01*
X277614631Y-224997519D01*
X277622277Y-224998242D01*
X277622278Y-224998242D01*
X277628248Y-224998806D01*
X277646166Y-225000500D01*
X277705233Y-225000500D01*
X277773354Y-225020502D01*
X277819847Y-225074158D01*
X277829951Y-225144432D01*
X277800457Y-225209012D01*
X277763413Y-225238263D01*
X277578466Y-225334540D01*
X277569734Y-225340039D01*
X277549677Y-225355099D01*
X277541223Y-225366427D01*
X277547968Y-225378758D01*
X278287188Y-226117978D01*
X278301132Y-226125592D01*
X278302965Y-226125461D01*
X278309580Y-226121210D01*
X279053389Y-225377401D01*
X279060410Y-225364544D01*
X279053611Y-225355213D01*
X279049554Y-225352518D01*
X278863117Y-225249599D01*
X278853705Y-225245369D01*
X278853435Y-225245273D01*
X278853341Y-225245205D01*
X278848989Y-225243249D01*
X278849393Y-225242351D01*
X278795899Y-225203679D01*
X278769983Y-225137581D01*
X278783917Y-225067965D01*
X278833276Y-225016934D01*
X278895495Y-225000500D01*
X278953834Y-225000500D01*
X278971752Y-224998806D01*
X278977722Y-224998242D01*
X278977723Y-224998242D01*
X278985369Y-224997519D01*
X279113184Y-224952634D01*
X279120754Y-224947042D01*
X279120757Y-224947041D01*
X279214579Y-224877742D01*
X279222150Y-224872150D01*
X279263039Y-224816791D01*
X279297041Y-224770757D01*
X279297042Y-224770754D01*
X279302634Y-224763184D01*
X279347519Y-224635369D01*
X279350500Y-224603834D01*
X279350500Y-223296166D01*
X279347519Y-223264631D01*
X279302634Y-223136816D01*
X279297042Y-223129246D01*
X279297041Y-223129243D01*
X279227742Y-223035421D01*
X279222150Y-223027850D01*
X279214579Y-223022258D01*
X279214576Y-223022255D01*
X279191013Y-223004851D01*
X279148102Y-222948290D01*
X279142582Y-222877508D01*
X279176206Y-222814979D01*
X279238298Y-222780554D01*
X279265872Y-222777500D01*
X280302260Y-222777500D01*
X280370381Y-222797502D01*
X280416874Y-222851158D01*
X280426978Y-222921432D01*
X280397484Y-222986012D01*
X280360636Y-223015161D01*
X280262002Y-223066726D01*
X280257201Y-223070586D01*
X280257198Y-223070588D01*
X280119680Y-223181155D01*
X280101447Y-223195815D01*
X279969024Y-223353630D01*
X279966056Y-223359028D01*
X279966053Y-223359033D01*
X279888630Y-223499866D01*
X279869776Y-223534162D01*
X279867913Y-223540035D01*
X279813058Y-223712962D01*
X279807484Y-223730532D01*
X279806798Y-223736649D01*
X279806797Y-223736653D01*
X279797195Y-223822259D01*
X279784520Y-223935262D01*
X279786053Y-223953522D01*
X279794822Y-224057939D01*
X279801759Y-224140553D01*
X279803458Y-224146478D01*
X279856845Y-224332660D01*
X279858544Y-224338586D01*
X279861359Y-224344063D01*
X279861360Y-224344066D01*
X279949031Y-224514655D01*
X279952712Y-224521818D01*
X280080677Y-224683270D01*
X280085370Y-224687264D01*
X280085371Y-224687265D01*
X280188077Y-224774674D01*
X280237564Y-224816791D01*
X280242942Y-224819797D01*
X280242944Y-224819798D01*
X280321120Y-224863489D01*
X280417398Y-224917297D01*
X280507586Y-224946601D01*
X280607471Y-224979056D01*
X280607475Y-224979057D01*
X280613329Y-224980959D01*
X280817894Y-225005351D01*
X280824029Y-225004879D01*
X280824031Y-225004879D01*
X280884565Y-225000221D01*
X281023300Y-224989546D01*
X281029230Y-224987890D01*
X281029232Y-224987890D01*
X281167524Y-224949278D01*
X281221725Y-224934145D01*
X281227214Y-224931372D01*
X281227220Y-224931370D01*
X281387949Y-224850179D01*
X281405610Y-224841258D01*
X281567951Y-224714424D01*
X281629934Y-224642616D01*
X281698540Y-224563134D01*
X281698540Y-224563133D01*
X281702564Y-224558472D01*
X281716224Y-224534427D01*
X281750762Y-224473629D01*
X281804323Y-224379344D01*
X281869351Y-224183863D01*
X281895171Y-223979474D01*
X281895583Y-223950000D01*
X281875480Y-223744970D01*
X281815935Y-223547749D01*
X281719218Y-223365849D01*
X281635346Y-223263012D01*
X281592906Y-223210975D01*
X281592903Y-223210972D01*
X281589011Y-223206200D01*
X281582704Y-223200982D01*
X281435025Y-223078811D01*
X281435021Y-223078809D01*
X281430275Y-223074882D01*
X281424854Y-223071951D01*
X281424850Y-223071948D01*
X281318298Y-223014336D01*
X281267889Y-222964341D01*
X281252511Y-222895030D01*
X281277047Y-222828408D01*
X281333707Y-222785627D01*
X281378226Y-222777500D01*
X282842260Y-222777500D01*
X282910381Y-222797502D01*
X282956874Y-222851158D01*
X282966978Y-222921432D01*
X282937484Y-222986012D01*
X282900636Y-223015161D01*
X282802002Y-223066726D01*
X282797201Y-223070586D01*
X282797198Y-223070588D01*
X282659680Y-223181155D01*
X282641447Y-223195815D01*
X282509024Y-223353630D01*
X282506056Y-223359028D01*
X282506053Y-223359033D01*
X282428630Y-223499866D01*
X282409776Y-223534162D01*
X282407913Y-223540035D01*
X282353058Y-223712962D01*
X282347484Y-223730532D01*
X282346798Y-223736649D01*
X282346797Y-223736653D01*
X282337195Y-223822259D01*
X282324520Y-223935262D01*
X282326053Y-223953522D01*
X282334822Y-224057939D01*
X282341759Y-224140553D01*
X282343458Y-224146478D01*
X282396845Y-224332660D01*
X282398544Y-224338586D01*
X282401359Y-224344063D01*
X282401360Y-224344066D01*
X282489031Y-224514655D01*
X282492712Y-224521818D01*
X282620677Y-224683270D01*
X282625370Y-224687264D01*
X282625371Y-224687265D01*
X282728077Y-224774674D01*
X282777564Y-224816791D01*
X282782942Y-224819797D01*
X282782944Y-224819798D01*
X282861120Y-224863489D01*
X282957398Y-224917297D01*
X283047586Y-224946601D01*
X283147471Y-224979056D01*
X283147475Y-224979057D01*
X283153329Y-224980959D01*
X283357894Y-225005351D01*
X283364029Y-225004879D01*
X283364031Y-225004879D01*
X283424565Y-225000221D01*
X283563300Y-224989546D01*
X283569230Y-224987890D01*
X283569232Y-224987890D01*
X283707524Y-224949278D01*
X283761725Y-224934145D01*
X283767214Y-224931372D01*
X283767220Y-224931370D01*
X283927949Y-224850179D01*
X283945610Y-224841258D01*
X284107951Y-224714424D01*
X284169934Y-224642616D01*
X284238540Y-224563134D01*
X284238540Y-224563133D01*
X284242564Y-224558472D01*
X284256224Y-224534427D01*
X284290762Y-224473629D01*
X284344323Y-224379344D01*
X284409351Y-224183863D01*
X284435171Y-223979474D01*
X284435583Y-223950000D01*
X284415480Y-223744970D01*
X284355935Y-223547749D01*
X284259218Y-223365849D01*
X284175346Y-223263012D01*
X284132906Y-223210975D01*
X284132903Y-223210972D01*
X284129011Y-223206200D01*
X284122704Y-223200982D01*
X283975025Y-223078811D01*
X283975021Y-223078809D01*
X283970275Y-223074882D01*
X283964854Y-223071951D01*
X283964850Y-223071948D01*
X283858298Y-223014336D01*
X283807889Y-222964341D01*
X283792511Y-222895030D01*
X283817047Y-222828408D01*
X283873707Y-222785627D01*
X283918226Y-222777500D01*
X284232155Y-222777500D01*
X284300276Y-222797502D01*
X284321251Y-222814405D01*
X284917576Y-223410731D01*
X284951601Y-223473043D01*
X284948582Y-223537924D01*
X284889347Y-223724659D01*
X284887484Y-223730532D01*
X284886798Y-223736649D01*
X284886797Y-223736653D01*
X284877195Y-223822259D01*
X284864520Y-223935262D01*
X284866053Y-223953522D01*
X284874822Y-224057939D01*
X284881759Y-224140553D01*
X284883458Y-224146478D01*
X284936845Y-224332660D01*
X284938544Y-224338586D01*
X284941359Y-224344063D01*
X284941360Y-224344066D01*
X285029031Y-224514655D01*
X285032712Y-224521818D01*
X285160677Y-224683270D01*
X285165370Y-224687264D01*
X285165371Y-224687265D01*
X285268077Y-224774674D01*
X285317564Y-224816791D01*
X285322942Y-224819797D01*
X285322944Y-224819798D01*
X285401120Y-224863489D01*
X285497398Y-224917297D01*
X285587586Y-224946601D01*
X285687471Y-224979056D01*
X285687475Y-224979057D01*
X285693329Y-224980959D01*
X285897894Y-225005351D01*
X285904029Y-225004879D01*
X285904031Y-225004879D01*
X285964565Y-225000221D01*
X286103300Y-224989546D01*
X286109230Y-224987890D01*
X286109232Y-224987890D01*
X286247524Y-224949278D01*
X286301725Y-224934145D01*
X286307214Y-224931372D01*
X286307220Y-224931370D01*
X286467949Y-224850179D01*
X286485610Y-224841258D01*
X286647951Y-224714424D01*
X286709934Y-224642616D01*
X286778540Y-224563134D01*
X286778540Y-224563133D01*
X286782564Y-224558472D01*
X286796224Y-224534427D01*
X286830762Y-224473629D01*
X286884323Y-224379344D01*
X286949351Y-224183863D01*
X286975171Y-223979474D01*
X286975583Y-223950000D01*
X286955480Y-223744970D01*
X286895935Y-223547749D01*
X286799218Y-223365849D01*
X286715346Y-223263012D01*
X286672906Y-223210975D01*
X286672903Y-223210972D01*
X286669011Y-223206200D01*
X286662704Y-223200982D01*
X286515025Y-223078811D01*
X286515021Y-223078809D01*
X286510275Y-223074882D01*
X286329055Y-222976897D01*
X286157736Y-222923865D01*
X286098576Y-222884614D01*
X286070029Y-222819609D01*
X286081158Y-222749490D01*
X286128429Y-222696519D01*
X286194995Y-222677500D01*
X286672155Y-222677500D01*
X286740276Y-222697502D01*
X286761251Y-222714405D01*
X287457576Y-223410731D01*
X287491601Y-223473043D01*
X287488582Y-223537924D01*
X287429347Y-223724659D01*
X287427484Y-223730532D01*
X287426798Y-223736649D01*
X287426797Y-223736653D01*
X287417195Y-223822259D01*
X287404520Y-223935262D01*
X287406053Y-223953522D01*
X287414822Y-224057939D01*
X287421759Y-224140553D01*
X287423458Y-224146478D01*
X287476845Y-224332660D01*
X287478544Y-224338586D01*
X287481359Y-224344063D01*
X287481360Y-224344066D01*
X287569031Y-224514655D01*
X287572712Y-224521818D01*
X287700677Y-224683270D01*
X287705370Y-224687264D01*
X287705371Y-224687265D01*
X287808077Y-224774674D01*
X287857564Y-224816791D01*
X287862942Y-224819797D01*
X287862944Y-224819798D01*
X287941120Y-224863489D01*
X288037398Y-224917297D01*
X288127586Y-224946601D01*
X288227471Y-224979056D01*
X288227475Y-224979057D01*
X288233329Y-224980959D01*
X288437894Y-225005351D01*
X288444029Y-225004879D01*
X288444031Y-225004879D01*
X288504565Y-225000221D01*
X288643300Y-224989546D01*
X288649230Y-224987890D01*
X288649232Y-224987890D01*
X288787524Y-224949278D01*
X288841725Y-224934145D01*
X288847214Y-224931372D01*
X288847220Y-224931370D01*
X289007949Y-224850179D01*
X289025610Y-224841258D01*
X289187951Y-224714424D01*
X289249934Y-224642616D01*
X289318540Y-224563134D01*
X289318540Y-224563133D01*
X289322564Y-224558472D01*
X289336224Y-224534427D01*
X289370762Y-224473629D01*
X289424323Y-224379344D01*
X289489351Y-224183863D01*
X289515171Y-223979474D01*
X289515583Y-223950000D01*
X289495480Y-223744970D01*
X289435935Y-223547749D01*
X289339218Y-223365849D01*
X289255346Y-223263012D01*
X289212906Y-223210975D01*
X289212903Y-223210972D01*
X289209011Y-223206200D01*
X289202704Y-223200982D01*
X289055025Y-223078811D01*
X289055021Y-223078809D01*
X289050275Y-223074882D01*
X288869055Y-222976897D01*
X288672254Y-222915977D01*
X288666129Y-222915333D01*
X288666128Y-222915333D01*
X288473498Y-222895087D01*
X288473496Y-222895087D01*
X288467369Y-222894443D01*
X288384692Y-222901967D01*
X288268342Y-222912555D01*
X288268339Y-222912556D01*
X288262203Y-222913114D01*
X288207347Y-222929259D01*
X288070480Y-222969541D01*
X288070478Y-222969542D01*
X288064572Y-222971280D01*
X288059113Y-222974134D01*
X288056794Y-222975071D01*
X287986141Y-222982046D01*
X287920496Y-222947342D01*
X287105587Y-222132433D01*
X287098160Y-222124329D01*
X287080846Y-222103695D01*
X287073760Y-222095250D01*
X287040895Y-222076275D01*
X287031635Y-222070377D01*
X287000543Y-222048606D01*
X286989899Y-222045754D01*
X286986653Y-222044240D01*
X286983285Y-222043014D01*
X286973739Y-222037503D01*
X286936368Y-222030913D01*
X286925644Y-222028536D01*
X286888984Y-222018713D01*
X286878000Y-222019674D01*
X286877999Y-222019674D01*
X286851189Y-222022020D01*
X286840206Y-222022500D01*
X285937846Y-222022500D01*
X285869725Y-222002498D01*
X285848751Y-221985596D01*
X285545581Y-221682427D01*
X285538154Y-221674322D01*
X285520846Y-221653695D01*
X285513760Y-221645250D01*
X285480895Y-221626275D01*
X285471635Y-221620377D01*
X285440543Y-221598606D01*
X285429899Y-221595754D01*
X285426653Y-221594240D01*
X285423285Y-221593014D01*
X285413739Y-221587503D01*
X285376368Y-221580913D01*
X285365644Y-221578536D01*
X285328984Y-221568713D01*
X285318000Y-221569674D01*
X285317999Y-221569674D01*
X285291189Y-221572020D01*
X285280206Y-221572500D01*
X270419797Y-221572500D01*
X270408815Y-221572021D01*
X270381993Y-221569674D01*
X270381991Y-221569674D01*
X270371016Y-221568714D01*
X270334358Y-221578536D01*
X270323643Y-221580911D01*
X270317787Y-221581944D01*
X270297118Y-221585588D01*
X270297115Y-221585589D01*
X270286261Y-221587503D01*
X270276713Y-221593016D01*
X270273358Y-221594237D01*
X270270108Y-221595752D01*
X270259457Y-221598606D01*
X270250426Y-221604929D01*
X270250427Y-221604929D01*
X270228372Y-221620372D01*
X270219102Y-221626277D01*
X270195788Y-221639737D01*
X270195786Y-221639739D01*
X270186240Y-221645250D01*
X270179154Y-221653695D01*
X270161851Y-221674316D01*
X270154425Y-221682420D01*
X269686803Y-222150043D01*
X269251251Y-222585595D01*
X269188938Y-222619620D01*
X269162155Y-222622500D01*
X268646209Y-222622500D01*
X268578088Y-222602498D01*
X268531595Y-222548842D01*
X268521491Y-222478568D01*
X268524330Y-222467877D01*
X268523597Y-222467707D01*
X268524316Y-222464606D01*
X268527024Y-222454758D01*
X268529674Y-222446453D01*
X268533588Y-222438375D01*
X268541399Y-222391946D01*
X268542906Y-222384405D01*
X268543862Y-222380283D01*
X268554185Y-222335745D01*
X268553519Y-222326348D01*
X268554258Y-222316959D01*
X268554284Y-222316961D01*
X268554300Y-222315262D01*
X268554997Y-222311120D01*
X268555133Y-222300000D01*
X268548890Y-222256403D01*
X268547933Y-222247442D01*
X268545283Y-222210016D01*
X268545282Y-222210013D01*
X268544617Y-222200616D01*
X268541217Y-222191828D01*
X268540737Y-222189681D01*
X268539792Y-222186892D01*
X268538111Y-222181143D01*
X268536839Y-222172259D01*
X268533125Y-222164090D01*
X268533124Y-222164087D01*
X268516931Y-222128473D01*
X268514132Y-222121816D01*
X268495739Y-222074274D01*
X268489908Y-222066877D01*
X268488927Y-222065158D01*
X268486753Y-222062101D01*
X268483428Y-222054788D01*
X268452345Y-222018713D01*
X268449363Y-222015252D01*
X268445870Y-222011014D01*
X268417705Y-221975288D01*
X268417702Y-221975285D01*
X268411872Y-221967890D01*
X268404125Y-221962536D01*
X268403150Y-221961620D01*
X268399193Y-221957028D01*
X268391662Y-221952147D01*
X268391660Y-221952145D01*
X268351937Y-221926399D01*
X268348829Y-221924319D01*
X268308176Y-221896222D01*
X268300431Y-221890869D01*
X268293966Y-221888824D01*
X268290906Y-221886841D01*
X268232808Y-221869466D01*
X268230916Y-221868884D01*
X268178116Y-221852185D01*
X268178114Y-221852185D01*
X268171270Y-221850020D01*
X268164663Y-221849500D01*
X268107778Y-221849500D01*
X268107009Y-221849498D01*
X268038231Y-221849078D01*
X268037011Y-221849427D01*
X268035933Y-221849500D01*
X243138793Y-221849500D01*
X243070672Y-221829498D01*
X243049698Y-221812595D01*
X241092753Y-219855650D01*
X241082899Y-219844561D01*
X241067707Y-219825291D01*
X241067705Y-219825289D01*
X241061872Y-219817890D01*
X241054125Y-219812535D01*
X241054123Y-219812534D01*
X241013625Y-219784545D01*
X241010403Y-219782243D01*
X240970758Y-219752960D01*
X240970757Y-219752959D01*
X240963184Y-219747366D01*
X240956368Y-219744973D01*
X240950431Y-219740869D01*
X240943074Y-219738542D01*
X240891365Y-219691218D01*
X240873219Y-219622579D01*
X240895063Y-219555027D01*
X240949962Y-219510008D01*
X240999173Y-219500000D01*
X305884162Y-219500000D01*
X305900000Y-219505146D01*
G37*
%TD.AperFunction*%
%TA.AperFunction,Conductor*%
G36*
X223861504Y-219520002D02*
G01*
X223907997Y-219573658D01*
X223918101Y-219643932D01*
X223888607Y-219708512D01*
X223882479Y-219715095D01*
X223084980Y-220512595D01*
X223022667Y-220546620D01*
X222995884Y-220549500D01*
X196184219Y-220549500D01*
X196169410Y-220548627D01*
X196166593Y-220548294D01*
X196135689Y-220544636D01*
X196126426Y-220546328D01*
X196126419Y-220546328D01*
X196077982Y-220555175D01*
X196074083Y-220555825D01*
X196051353Y-220559242D01*
X196025356Y-220563150D01*
X196025355Y-220563150D01*
X196016038Y-220564551D01*
X196009525Y-220567679D01*
X196002427Y-220568975D01*
X195950347Y-220596028D01*
X195946845Y-220597777D01*
X195940506Y-220600821D01*
X195893921Y-220623191D01*
X195888636Y-220628077D01*
X195888589Y-220628108D01*
X195882211Y-220631421D01*
X195877172Y-220635725D01*
X195839945Y-220672952D01*
X195836380Y-220676381D01*
X195794444Y-220715146D01*
X195790751Y-220721505D01*
X195785234Y-220727663D01*
X194570302Y-221942595D01*
X194507990Y-221976621D01*
X194481207Y-221979500D01*
X194005259Y-221979500D01*
X193937138Y-221959498D01*
X193890645Y-221905842D01*
X193880541Y-221835568D01*
X193884262Y-221818346D01*
X193906619Y-221741394D01*
X193906579Y-221727295D01*
X193899309Y-221724000D01*
X192306442Y-221724000D01*
X192292911Y-221727973D01*
X192291776Y-221735871D01*
X192328357Y-221861784D01*
X192334604Y-221876220D01*
X192409876Y-222003499D01*
X192419516Y-222015926D01*
X192524071Y-222120481D01*
X192541796Y-222134230D01*
X192583362Y-222191786D01*
X192590299Y-222242030D01*
X192590038Y-222246013D01*
X192589500Y-222250099D01*
X192589501Y-222609900D01*
X192596028Y-222659487D01*
X192600101Y-222668221D01*
X192600101Y-222668222D01*
X192642022Y-222758121D01*
X192646776Y-222768316D01*
X192731684Y-222853224D01*
X192741676Y-222857883D01*
X192741677Y-222857884D01*
X192772794Y-222872394D01*
X192826433Y-222897406D01*
X192826750Y-222897554D01*
X192880035Y-222944471D01*
X192899500Y-223011749D01*
X192899500Y-223241274D01*
X192897079Y-223265855D01*
X192895457Y-223274012D01*
X192892276Y-223290002D01*
X192894697Y-223302172D01*
X192894697Y-223310100D01*
X192895572Y-223318984D01*
X192895572Y-223869572D01*
X192875570Y-223937693D01*
X192821914Y-223984186D01*
X192769572Y-223995572D01*
X192218979Y-223995572D01*
X192210095Y-223994697D01*
X192202169Y-223994697D01*
X192189998Y-223992276D01*
X192177828Y-223994697D01*
X192177827Y-223994697D01*
X192165853Y-223997079D01*
X192141270Y-223999500D01*
X192071462Y-223999500D01*
X192003341Y-223979498D01*
X191956848Y-223925842D01*
X191946737Y-223891371D01*
X191936839Y-223822259D01*
X191914215Y-223772500D01*
X191887145Y-223712962D01*
X191887143Y-223712959D01*
X191883428Y-223704788D01*
X191829426Y-223642115D01*
X191805051Y-223613826D01*
X191805049Y-223613824D01*
X191799193Y-223607028D01*
X191690906Y-223536841D01*
X191682311Y-223534271D01*
X191682310Y-223534270D01*
X191575874Y-223502438D01*
X191575872Y-223502438D01*
X191567273Y-223499866D01*
X191558298Y-223499811D01*
X191558297Y-223499811D01*
X191503641Y-223499477D01*
X191438231Y-223499078D01*
X191376193Y-223516808D01*
X191322786Y-223532072D01*
X191322784Y-223532073D01*
X191314155Y-223534539D01*
X191306565Y-223539328D01*
X191229422Y-223588002D01*
X191205019Y-223603399D01*
X191199076Y-223610128D01*
X191199075Y-223610129D01*
X191183195Y-223628110D01*
X191119596Y-223700122D01*
X191115782Y-223708245D01*
X191115781Y-223708247D01*
X191093948Y-223754750D01*
X191064754Y-223816932D01*
X191060161Y-223846432D01*
X191046282Y-223935567D01*
X191046282Y-223935571D01*
X191044901Y-223944440D01*
X191046065Y-223953342D01*
X191046065Y-223953345D01*
X191060468Y-224063489D01*
X191060469Y-224063493D01*
X191061633Y-224072394D01*
X191088921Y-224134411D01*
X191100620Y-224160999D01*
X191109746Y-224231406D01*
X191079359Y-224295571D01*
X191030118Y-224326485D01*
X191030978Y-224328408D01*
X191022786Y-224332072D01*
X191014155Y-224334539D01*
X190905019Y-224403399D01*
X190899076Y-224410128D01*
X190899075Y-224410129D01*
X190865320Y-224448349D01*
X190819596Y-224500122D01*
X190815782Y-224508245D01*
X190815781Y-224508247D01*
X190807143Y-224526646D01*
X190764754Y-224616932D01*
X190760755Y-224642616D01*
X190746282Y-224735567D01*
X190746282Y-224735571D01*
X190744901Y-224744440D01*
X190746065Y-224753342D01*
X190746065Y-224753345D01*
X190760468Y-224863489D01*
X190760469Y-224863493D01*
X190761633Y-224872394D01*
X190813605Y-224990510D01*
X190819382Y-224997383D01*
X190819383Y-224997384D01*
X190876571Y-225065417D01*
X190896639Y-225089291D01*
X191004060Y-225160796D01*
X191067900Y-225180741D01*
X191069430Y-225181219D01*
X191128487Y-225220625D01*
X191156864Y-225285704D01*
X191156356Y-225320869D01*
X191154054Y-225335654D01*
X191147343Y-225378758D01*
X191144901Y-225394440D01*
X191146065Y-225403342D01*
X191146065Y-225403345D01*
X191160468Y-225513489D01*
X191160469Y-225513493D01*
X191161633Y-225522394D01*
X191213605Y-225640510D01*
X191219382Y-225647383D01*
X191219383Y-225647384D01*
X191289800Y-225731155D01*
X191296639Y-225739291D01*
X191307018Y-225746200D01*
X191359384Y-225781057D01*
X191404060Y-225810796D01*
X191412627Y-225813473D01*
X191412628Y-225813473D01*
X191517812Y-225846335D01*
X191576868Y-225885741D01*
X191605245Y-225950821D01*
X191593932Y-226020910D01*
X191574745Y-226048042D01*
X191575559Y-226048718D01*
X191571859Y-226053170D01*
X191567752Y-226057277D01*
X191565028Y-226061247D01*
X191562703Y-226063895D01*
X191549508Y-226078119D01*
X191549506Y-226078122D01*
X191541599Y-226086646D01*
X191537289Y-226097450D01*
X191534767Y-226101439D01*
X191529006Y-226112227D01*
X191527089Y-226116552D01*
X191520508Y-226126146D01*
X191517822Y-226137465D01*
X191517821Y-226137467D01*
X191514817Y-226150127D01*
X191509252Y-226167724D01*
X191503412Y-226182362D01*
X191500117Y-226190622D01*
X191499500Y-226196915D01*
X191499500Y-226199994D01*
X191499350Y-226203067D01*
X191499134Y-226203056D01*
X191497802Y-226214431D01*
X191497346Y-226223746D01*
X191494660Y-226235066D01*
X191496229Y-226246595D01*
X191496229Y-226246596D01*
X191498349Y-226262173D01*
X191499500Y-226279164D01*
X191499500Y-227947634D01*
X191499304Y-227950307D01*
X191497575Y-227955342D01*
X191498011Y-227966964D01*
X191498011Y-227966966D01*
X191499411Y-228004255D01*
X191499500Y-228008981D01*
X191499500Y-228027948D01*
X191500382Y-228032683D01*
X191500610Y-228036209D01*
X191501774Y-228067208D01*
X191506364Y-228077893D01*
X191507401Y-228082493D01*
X191510962Y-228094214D01*
X191512661Y-228098617D01*
X191514791Y-228110053D01*
X191526730Y-228129422D01*
X191527727Y-228131039D01*
X191536231Y-228147411D01*
X191542451Y-228161888D01*
X191542453Y-228161892D01*
X191545964Y-228170063D01*
X191549978Y-228174949D01*
X191551058Y-228176029D01*
X191556236Y-228184536D01*
X191553763Y-228186041D01*
X191575831Y-228237931D01*
X191563883Y-228307915D01*
X191554310Y-228324150D01*
X191546776Y-228331684D01*
X191496028Y-228440513D01*
X191489500Y-228490099D01*
X191489501Y-228849900D01*
X191490039Y-228853988D01*
X191490300Y-228857969D01*
X191474796Y-228927252D01*
X191441797Y-228965769D01*
X191424071Y-228979519D01*
X191319516Y-229084074D01*
X191309876Y-229096501D01*
X191234604Y-229223780D01*
X191228357Y-229238216D01*
X191193381Y-229358605D01*
X191193421Y-229372705D01*
X191200691Y-229376000D01*
X192128000Y-229376000D01*
X192196121Y-229396002D01*
X192242614Y-229449658D01*
X192254000Y-229502000D01*
X192254000Y-230398424D01*
X192258344Y-230413219D01*
X192268775Y-230415063D01*
X192278359Y-230413312D01*
X192359605Y-230389708D01*
X192372990Y-230381160D01*
X192387202Y-230350273D01*
X192391308Y-230352162D01*
X192401003Y-230326310D01*
X192457915Y-230283865D01*
X192501735Y-230276000D01*
X194364884Y-230276000D01*
X194380123Y-230271525D01*
X194381328Y-230270135D01*
X194382291Y-230265706D01*
X194376868Y-230206685D01*
X194374257Y-230193649D01*
X194327285Y-230043757D01*
X194321079Y-230030012D01*
X194240176Y-229896426D01*
X194230869Y-229884557D01*
X194120443Y-229774131D01*
X194108574Y-229764824D01*
X193974988Y-229683921D01*
X193961243Y-229677715D01*
X193898510Y-229658056D01*
X193839488Y-229618599D01*
X193811168Y-229553495D01*
X193822541Y-229483415D01*
X193869997Y-229430609D01*
X193878987Y-229425555D01*
X193904508Y-229412552D01*
X193904512Y-229412549D01*
X193913342Y-229408050D01*
X194003050Y-229318342D01*
X194060646Y-229205304D01*
X194075500Y-229111519D01*
X194075499Y-228648482D01*
X194064157Y-228576866D01*
X194062198Y-228564494D01*
X194062197Y-228564492D01*
X194060646Y-228554696D01*
X194003050Y-228441658D01*
X193913342Y-228351950D01*
X193800304Y-228294354D01*
X193790511Y-228292803D01*
X193787563Y-228291845D01*
X193728958Y-228251771D01*
X193701321Y-228186374D01*
X193700500Y-228172012D01*
X193700500Y-228126661D01*
X193720502Y-228058540D01*
X193737405Y-228037566D01*
X193775452Y-227999519D01*
X193777486Y-227997763D01*
X193782269Y-227995425D01*
X193807924Y-227967769D01*
X193868913Y-227931430D01*
X193939869Y-227933834D01*
X193989393Y-227964364D01*
X194100481Y-228075452D01*
X194102237Y-228077486D01*
X194104575Y-228082269D01*
X194113104Y-228090181D01*
X194113105Y-228090182D01*
X194140477Y-228115573D01*
X194143882Y-228118853D01*
X194157277Y-228132248D01*
X194161247Y-228134972D01*
X194163895Y-228137297D01*
X194165638Y-228138914D01*
X194186646Y-228158401D01*
X194197453Y-228162713D01*
X194201438Y-228165232D01*
X194212247Y-228171004D01*
X194216552Y-228172911D01*
X194226146Y-228179493D01*
X194247397Y-228184536D01*
X194250136Y-228185186D01*
X194267732Y-228190751D01*
X194290622Y-228199883D01*
X194296915Y-228200500D01*
X194299997Y-228200500D01*
X194303067Y-228200650D01*
X194303056Y-228200866D01*
X194314431Y-228202198D01*
X194323745Y-228202653D01*
X194335066Y-228205340D01*
X194346595Y-228203771D01*
X194346596Y-228203771D01*
X194362173Y-228201651D01*
X194379164Y-228200500D01*
X196228558Y-228200500D01*
X196231231Y-228200696D01*
X196236266Y-228202425D01*
X196247888Y-228201989D01*
X196247890Y-228201989D01*
X196285179Y-228200589D01*
X196289905Y-228200500D01*
X196308872Y-228200500D01*
X196313607Y-228199618D01*
X196317133Y-228199390D01*
X196320873Y-228199249D01*
X196348132Y-228198226D01*
X196358817Y-228193636D01*
X196363417Y-228192599D01*
X196375138Y-228189038D01*
X196379541Y-228187339D01*
X196390977Y-228185209D01*
X196411965Y-228172272D01*
X196428335Y-228163769D01*
X196442812Y-228157549D01*
X196442816Y-228157547D01*
X196450987Y-228154036D01*
X196455873Y-228150022D01*
X196458058Y-228147837D01*
X196460321Y-228145785D01*
X196460466Y-228145945D01*
X196469473Y-228138825D01*
X196476368Y-228132573D01*
X196486272Y-228126468D01*
X196502840Y-228104680D01*
X196514034Y-228091861D01*
X196602453Y-228003442D01*
X196664765Y-227969416D01*
X196735580Y-227974481D01*
X196792416Y-228017028D01*
X196817227Y-228083548D01*
X196815127Y-228117116D01*
X196813498Y-228125307D01*
X196813229Y-228129417D01*
X196813228Y-228129422D01*
X196797918Y-228363027D01*
X196795656Y-228397533D01*
X196794854Y-228400000D01*
X196799546Y-228414439D01*
X196799118Y-228429323D01*
X196800000Y-228435457D01*
X196800000Y-232384162D01*
X196794854Y-232400000D01*
X196798872Y-232412365D01*
X196798642Y-232413147D01*
X196799136Y-232413179D01*
X196784285Y-232639758D01*
X196782134Y-232656098D01*
X196778435Y-232674693D01*
X196737920Y-232878381D01*
X196736870Y-232883658D01*
X196732605Y-232899575D01*
X196724535Y-232923347D01*
X196658026Y-233119277D01*
X196651719Y-233134504D01*
X196610873Y-233217332D01*
X196578287Y-233283412D01*
X196549102Y-233342593D01*
X196540861Y-233356867D01*
X196411962Y-233549777D01*
X196401929Y-233562853D01*
X196248948Y-233737294D01*
X196237294Y-233748948D01*
X196062853Y-233901929D01*
X196049777Y-233911962D01*
X195961397Y-233971016D01*
X195856863Y-234040863D01*
X195842596Y-234049100D01*
X195741918Y-234098749D01*
X195634504Y-234151719D01*
X195619277Y-234158026D01*
X195600079Y-234164543D01*
X195399575Y-234232605D01*
X195383661Y-234236869D01*
X195307845Y-234251950D01*
X195156098Y-234282134D01*
X195139758Y-234284285D01*
X194913179Y-234299136D01*
X194913168Y-234298973D01*
X194912892Y-234299043D01*
X194900000Y-234294854D01*
X194884162Y-234300000D01*
X110915838Y-234300000D01*
X110900000Y-234294854D01*
X110897248Y-234295748D01*
X110876914Y-234296688D01*
X110524187Y-234312996D01*
X110524180Y-234312997D01*
X110521296Y-234313130D01*
X110454884Y-234322394D01*
X110148710Y-234365103D01*
X110148707Y-234365104D01*
X110145822Y-234365506D01*
X109986577Y-234402960D01*
X109779622Y-234451635D01*
X109779616Y-234451637D01*
X109776783Y-234452303D01*
X109417327Y-234572781D01*
X109070521Y-234725911D01*
X109067968Y-234727333D01*
X109067964Y-234727335D01*
X108940935Y-234798090D01*
X108739323Y-234910387D01*
X108426559Y-235124635D01*
X108424333Y-235126483D01*
X108424323Y-235126491D01*
X108158835Y-235346950D01*
X108134898Y-235366827D01*
X107866827Y-235634898D01*
X107864973Y-235637131D01*
X107864970Y-235637134D01*
X107626491Y-235924323D01*
X107626483Y-235924333D01*
X107624635Y-235926559D01*
X107410387Y-236239323D01*
X107408965Y-236241876D01*
X107230848Y-236561658D01*
X107225911Y-236570521D01*
X107072781Y-236917327D01*
X106952303Y-237276783D01*
X106951637Y-237279616D01*
X106951635Y-237279622D01*
X106921383Y-237408247D01*
X106865506Y-237645822D01*
X106865104Y-237648707D01*
X106865103Y-237648710D01*
X106835118Y-237863667D01*
X106813130Y-238021296D01*
X106812997Y-238024180D01*
X106812996Y-238024187D01*
X106797162Y-238366672D01*
X106795748Y-238397248D01*
X106794854Y-238400000D01*
X106800000Y-238415838D01*
X106800000Y-250384162D01*
X106794854Y-250400000D01*
X106799346Y-250413824D01*
X106799334Y-250413864D01*
X106799359Y-250413865D01*
X106788057Y-250658330D01*
X106783632Y-250754029D01*
X106782558Y-250765618D01*
X106734399Y-251110859D01*
X106732260Y-251122299D01*
X106664496Y-251410418D01*
X106652454Y-251461616D01*
X106649272Y-251472801D01*
X106636664Y-251510418D01*
X106538493Y-251803318D01*
X106534289Y-251814170D01*
X106393488Y-252133055D01*
X106388300Y-252143473D01*
X106218685Y-252447990D01*
X106212559Y-252457885D01*
X106015559Y-252745469D01*
X106008545Y-252754757D01*
X105785851Y-253022938D01*
X105778010Y-253031538D01*
X105531538Y-253278010D01*
X105522938Y-253285851D01*
X105254757Y-253508545D01*
X105245469Y-253515559D01*
X104957885Y-253712559D01*
X104947990Y-253718685D01*
X104643473Y-253888300D01*
X104633055Y-253893488D01*
X104314170Y-254034289D01*
X104303318Y-254038493D01*
X104197115Y-254074089D01*
X103972801Y-254149272D01*
X103961625Y-254152452D01*
X103643732Y-254227219D01*
X103622299Y-254232260D01*
X103610859Y-254234399D01*
X103265618Y-254282558D01*
X103254029Y-254283632D01*
X102915245Y-254299295D01*
X102915244Y-254299295D01*
X102913865Y-254299359D01*
X102900000Y-254294854D01*
X102884235Y-254299976D01*
X95492238Y-254288916D01*
X83920663Y-254271603D01*
X83920662Y-254271603D01*
X83915909Y-254271596D01*
X83900000Y-254266427D01*
X83886176Y-254270919D01*
X83886136Y-254270907D01*
X83886135Y-254270932D01*
X83545971Y-254255205D01*
X83534382Y-254254131D01*
X83189141Y-254205972D01*
X83177701Y-254203833D01*
X83156268Y-254198792D01*
X82838375Y-254124025D01*
X82827199Y-254120845D01*
X82602885Y-254045662D01*
X82496682Y-254010066D01*
X82485830Y-254005862D01*
X82166945Y-253865061D01*
X82156527Y-253859873D01*
X81852010Y-253690258D01*
X81842115Y-253684132D01*
X81554531Y-253487132D01*
X81545243Y-253480118D01*
X81277062Y-253257424D01*
X81268462Y-253249583D01*
X81021990Y-253003111D01*
X81014149Y-252994511D01*
X80791455Y-252726330D01*
X80784441Y-252717042D01*
X80587441Y-252429458D01*
X80581315Y-252419563D01*
X80559347Y-252380122D01*
X80513006Y-252296925D01*
X80411700Y-252115046D01*
X80406512Y-252104628D01*
X80265711Y-251785743D01*
X80261507Y-251774891D01*
X80171676Y-251506874D01*
X80150728Y-251444374D01*
X80147546Y-251433189D01*
X80142191Y-251410418D01*
X80067740Y-251093872D01*
X80065601Y-251082432D01*
X80017442Y-250737191D01*
X80016368Y-250725602D01*
X80001863Y-250411872D01*
X80000641Y-250385438D01*
X80005146Y-250371573D01*
X80000000Y-250355735D01*
X80000000Y-250149271D01*
X81496668Y-250149271D01*
X81496755Y-250153273D01*
X81496755Y-250153280D01*
X81503261Y-250451448D01*
X81503349Y-250455465D01*
X81548883Y-250758330D01*
X81549979Y-250762190D01*
X81549980Y-250762195D01*
X81576909Y-250857044D01*
X81632531Y-251052953D01*
X81752937Y-251334560D01*
X81908149Y-251598585D01*
X82095651Y-251840747D01*
X82312404Y-252057122D01*
X82315585Y-252059576D01*
X82315586Y-252059577D01*
X82551701Y-252241739D01*
X82551705Y-252241742D01*
X82554894Y-252244202D01*
X82567346Y-252251493D01*
X82789990Y-252381856D01*
X82819189Y-252398953D01*
X82822874Y-252400521D01*
X82822878Y-252400523D01*
X82934434Y-252447990D01*
X83101006Y-252518867D01*
X83395775Y-252602001D01*
X83616338Y-252634768D01*
X83695419Y-252646516D01*
X83695421Y-252646516D01*
X83698718Y-252647006D01*
X83702049Y-252647146D01*
X83702053Y-252647146D01*
X83738737Y-252648683D01*
X83782084Y-252650500D01*
X83977474Y-252650500D01*
X84100915Y-252642626D01*
X84201639Y-252636201D01*
X84201644Y-252636200D01*
X84205647Y-252635945D01*
X84209584Y-252635183D01*
X84209586Y-252635183D01*
X84502401Y-252578530D01*
X84502405Y-252578529D01*
X84506338Y-252577768D01*
X84797200Y-252481856D01*
X85073518Y-252349763D01*
X85330812Y-252183631D01*
X85377553Y-252144202D01*
X85561849Y-251988734D01*
X85564910Y-251986152D01*
X85772019Y-251760529D01*
X85783991Y-251743590D01*
X85888914Y-251595126D01*
X85948780Y-251510418D01*
X86092328Y-251239874D01*
X86111672Y-251188547D01*
X86198919Y-250957044D01*
X86198921Y-250957038D01*
X86200336Y-250953283D01*
X86244871Y-250765618D01*
X86270124Y-250659207D01*
X86270125Y-250659202D01*
X86271053Y-250655291D01*
X86303332Y-250350729D01*
X86302679Y-250320758D01*
X86296739Y-250048552D01*
X86296739Y-250048547D01*
X86296651Y-250044535D01*
X86251117Y-249741670D01*
X86231763Y-249673500D01*
X86168568Y-249450919D01*
X86167469Y-249447047D01*
X86047063Y-249165440D01*
X85891851Y-248901415D01*
X85704349Y-248659253D01*
X85487596Y-248442878D01*
X85354796Y-248340423D01*
X85248299Y-248258261D01*
X85248295Y-248258258D01*
X85245106Y-248255798D01*
X85068538Y-248152413D01*
X84984275Y-248103075D01*
X84984272Y-248103073D01*
X84980811Y-248101047D01*
X84977126Y-248099479D01*
X84977122Y-248099477D01*
X84790051Y-248019878D01*
X84698994Y-247981133D01*
X84404225Y-247897999D01*
X84174014Y-247863799D01*
X84104581Y-247853484D01*
X84104579Y-247853484D01*
X84101282Y-247852994D01*
X84097951Y-247852854D01*
X84097947Y-247852854D01*
X84061263Y-247851317D01*
X84017916Y-247849500D01*
X83822526Y-247849500D01*
X83699085Y-247857374D01*
X83598361Y-247863799D01*
X83598356Y-247863800D01*
X83594353Y-247864055D01*
X83590416Y-247864817D01*
X83590414Y-247864817D01*
X83297599Y-247921470D01*
X83297595Y-247921471D01*
X83293662Y-247922232D01*
X83002800Y-248018144D01*
X82726482Y-248150237D01*
X82469188Y-248316369D01*
X82466123Y-248318954D01*
X82466121Y-248318956D01*
X82437763Y-248342878D01*
X82235090Y-248513848D01*
X82027981Y-248739471D01*
X82025667Y-248742746D01*
X82025664Y-248742749D01*
X82017860Y-248753792D01*
X81851220Y-248989582D01*
X81707672Y-249260126D01*
X81706257Y-249263882D01*
X81706256Y-249263883D01*
X81635768Y-249450919D01*
X81599664Y-249546717D01*
X81598735Y-249550632D01*
X81539676Y-249799500D01*
X81528947Y-249844709D01*
X81496668Y-250149271D01*
X80000000Y-250149271D01*
X80000000Y-240974669D01*
X92627001Y-240974669D01*
X92627371Y-240981490D01*
X92632895Y-241032352D01*
X92636521Y-241047604D01*
X92681676Y-241168054D01*
X92690214Y-241183649D01*
X92766715Y-241285724D01*
X92779276Y-241298285D01*
X92881351Y-241374786D01*
X92896946Y-241383324D01*
X93017394Y-241428478D01*
X93032649Y-241432105D01*
X93083514Y-241437631D01*
X93090328Y-241438000D01*
X93116885Y-241438000D01*
X93132124Y-241433525D01*
X93133329Y-241432135D01*
X93135000Y-241424452D01*
X93135000Y-241419884D01*
X93535000Y-241419884D01*
X93539475Y-241435123D01*
X93540865Y-241436328D01*
X93548548Y-241437999D01*
X93561575Y-241437999D01*
X93605805Y-241446017D01*
X93692394Y-241478478D01*
X93707649Y-241482105D01*
X93758514Y-241487631D01*
X93765328Y-241488000D01*
X93791885Y-241488000D01*
X93807124Y-241483525D01*
X93808329Y-241482135D01*
X93810000Y-241474452D01*
X93810000Y-241469884D01*
X94310000Y-241469884D01*
X94314475Y-241485123D01*
X94315865Y-241486328D01*
X94323548Y-241487999D01*
X94354669Y-241487999D01*
X94361490Y-241487629D01*
X94412352Y-241482105D01*
X94427604Y-241478479D01*
X94514193Y-241446018D01*
X94558423Y-241438000D01*
X94566885Y-241438000D01*
X94582124Y-241433525D01*
X94583329Y-241432135D01*
X94585000Y-241424452D01*
X94585000Y-241419884D01*
X94985000Y-241419884D01*
X94989475Y-241435123D01*
X94990865Y-241436328D01*
X94998548Y-241437999D01*
X95029669Y-241437999D01*
X95036490Y-241437629D01*
X95087352Y-241432105D01*
X95102604Y-241428479D01*
X95223054Y-241383324D01*
X95238649Y-241374786D01*
X95340724Y-241298285D01*
X95353285Y-241285724D01*
X95429786Y-241183649D01*
X95438324Y-241168054D01*
X95483478Y-241047606D01*
X95487105Y-241032351D01*
X95492631Y-240981486D01*
X95493000Y-240974672D01*
X95493000Y-240848115D01*
X95488525Y-240832876D01*
X95487135Y-240831671D01*
X95479452Y-240830000D01*
X95003115Y-240830000D01*
X94987876Y-240834475D01*
X94986671Y-240835865D01*
X94985000Y-240843548D01*
X94985000Y-241419884D01*
X94585000Y-241419884D01*
X94585000Y-240898115D01*
X94580525Y-240882876D01*
X94579135Y-240881671D01*
X94571452Y-240880000D01*
X94328115Y-240880000D01*
X94312876Y-240884475D01*
X94311671Y-240885865D01*
X94310000Y-240893548D01*
X94310000Y-241469884D01*
X93810000Y-241469884D01*
X93810000Y-240898115D01*
X93805525Y-240882876D01*
X93804135Y-240881671D01*
X93796452Y-240880000D01*
X93553115Y-240880000D01*
X93537876Y-240884475D01*
X93536671Y-240885865D01*
X93535000Y-240893548D01*
X93535000Y-241419884D01*
X93135000Y-241419884D01*
X93135000Y-240848115D01*
X93130525Y-240832876D01*
X93129135Y-240831671D01*
X93121452Y-240830000D01*
X92645116Y-240830000D01*
X92629877Y-240834475D01*
X92628672Y-240835865D01*
X92627001Y-240843548D01*
X92627001Y-240974669D01*
X80000000Y-240974669D01*
X80000000Y-237293481D01*
X91474500Y-237293481D01*
X91474501Y-237756518D01*
X91475276Y-237761409D01*
X91475276Y-237761412D01*
X91486794Y-237834137D01*
X91489354Y-237850304D01*
X91493857Y-237859141D01*
X91493857Y-237859142D01*
X91495310Y-237861994D01*
X91546950Y-237963342D01*
X91636658Y-238053050D01*
X91749696Y-238110646D01*
X91759485Y-238112196D01*
X91759487Y-238112197D01*
X91786849Y-238116530D01*
X91843481Y-238125500D01*
X91974234Y-238125500D01*
X92042355Y-238145502D01*
X92063329Y-238162405D01*
X92897595Y-238996671D01*
X92931621Y-239058983D01*
X92934500Y-239085766D01*
X92934500Y-239599748D01*
X92935707Y-239605816D01*
X92942267Y-239638793D01*
X92946133Y-239658231D01*
X92953026Y-239668547D01*
X92964682Y-239685991D01*
X92985897Y-239753744D01*
X92967115Y-239822211D01*
X92914298Y-239869655D01*
X92904149Y-239873975D01*
X92896949Y-239876675D01*
X92881351Y-239885214D01*
X92779276Y-239961715D01*
X92766715Y-239974276D01*
X92690214Y-240076351D01*
X92681676Y-240091946D01*
X92636522Y-240212394D01*
X92632895Y-240227649D01*
X92627369Y-240278514D01*
X92627000Y-240285328D01*
X92627000Y-240411885D01*
X92631475Y-240427124D01*
X92632865Y-240428329D01*
X92640548Y-240430000D01*
X93243885Y-240430000D01*
X93259124Y-240425526D01*
X93260889Y-240423488D01*
X93320615Y-240385104D01*
X93356114Y-240380000D01*
X94761095Y-240380000D01*
X94829216Y-240400002D01*
X94843607Y-240410775D01*
X94863865Y-240428329D01*
X94871548Y-240430000D01*
X95474884Y-240430000D01*
X95490123Y-240425525D01*
X95491328Y-240424135D01*
X95492999Y-240416452D01*
X95492999Y-240285331D01*
X95492629Y-240278510D01*
X95487105Y-240227648D01*
X95483479Y-240212396D01*
X95438324Y-240091946D01*
X95429786Y-240076351D01*
X95353285Y-239974276D01*
X95340724Y-239961715D01*
X95238649Y-239885214D01*
X95223051Y-239876675D01*
X95215851Y-239873975D01*
X95159087Y-239831332D01*
X95134389Y-239764770D01*
X95149598Y-239695421D01*
X95155318Y-239685991D01*
X95166974Y-239668547D01*
X95173867Y-239658231D01*
X95177734Y-239638793D01*
X95184293Y-239605816D01*
X95185500Y-239599748D01*
X95185500Y-238965766D01*
X95205502Y-238897645D01*
X95222405Y-238876671D01*
X95309271Y-238789805D01*
X95371583Y-238755779D01*
X95398366Y-238752900D01*
X95548917Y-238752900D01*
X95568430Y-238754977D01*
X95572968Y-238755191D01*
X95583146Y-238757382D01*
X95603467Y-238754977D01*
X95613642Y-238753773D01*
X95618950Y-238753460D01*
X95618939Y-238753328D01*
X95624117Y-238752900D01*
X95629318Y-238752900D01*
X95634447Y-238752046D01*
X95634450Y-238752046D01*
X95646814Y-238749988D01*
X95652693Y-238749151D01*
X95668992Y-238747222D01*
X95699817Y-238743574D01*
X95707493Y-238739888D01*
X95715891Y-238738490D01*
X95752080Y-238718964D01*
X95757660Y-238715953D01*
X95762933Y-238713265D01*
X95805725Y-238692717D01*
X95809699Y-238689377D01*
X95811637Y-238687439D01*
X95813253Y-238685957D01*
X95813715Y-238685708D01*
X95813741Y-238685737D01*
X95813868Y-238685625D01*
X95819286Y-238682702D01*
X95853208Y-238646005D01*
X95856637Y-238642439D01*
X96113415Y-238385661D01*
X96128684Y-238373328D01*
X96132038Y-238370276D01*
X96140790Y-238364625D01*
X96159808Y-238340501D01*
X96163334Y-238336534D01*
X96163233Y-238336448D01*
X96166591Y-238332485D01*
X96170269Y-238328807D01*
X96180584Y-238314373D01*
X96184135Y-238309643D01*
X96192856Y-238298581D01*
X96213525Y-238272362D01*
X96216347Y-238264327D01*
X96221296Y-238257401D01*
X96224278Y-238247430D01*
X96224280Y-238247426D01*
X96234897Y-238211924D01*
X96236721Y-238206308D01*
X96252452Y-238161513D01*
X96252900Y-238156341D01*
X96252900Y-238154710D01*
X96254804Y-238145867D01*
X96256350Y-238146200D01*
X96275687Y-238089512D01*
X96321447Y-238049873D01*
X96404507Y-238007552D01*
X96404508Y-238007551D01*
X96413342Y-238003050D01*
X96503050Y-237913342D01*
X96560646Y-237800304D01*
X96565067Y-237772394D01*
X96568861Y-237748434D01*
X96575500Y-237706519D01*
X96575499Y-237243482D01*
X96568860Y-237201563D01*
X96562198Y-237159494D01*
X96562197Y-237159492D01*
X96560646Y-237149696D01*
X96548318Y-237125500D01*
X96540749Y-237110646D01*
X96503050Y-237036658D01*
X96413342Y-236946950D01*
X96300304Y-236889354D01*
X96290515Y-236887804D01*
X96290513Y-236887803D01*
X96263151Y-236883470D01*
X96206519Y-236874500D01*
X95900062Y-236874500D01*
X95593482Y-236874501D01*
X95588589Y-236875276D01*
X95588588Y-236875276D01*
X95509494Y-236887802D01*
X95509492Y-236887803D01*
X95499696Y-236889354D01*
X95386658Y-236946950D01*
X95296950Y-237036658D01*
X95239354Y-237149696D01*
X95237804Y-237159485D01*
X95237803Y-237159487D01*
X95237172Y-237163473D01*
X95224500Y-237243481D01*
X95224501Y-237706518D01*
X95225276Y-237711409D01*
X95225276Y-237711412D01*
X95236236Y-237780614D01*
X95239354Y-237800304D01*
X95269486Y-237859440D01*
X95272209Y-237864785D01*
X95285313Y-237934562D01*
X95258613Y-238000346D01*
X95200586Y-238041253D01*
X95172527Y-238047100D01*
X95170682Y-238047100D01*
X95153187Y-238050012D01*
X95147343Y-238050844D01*
X95128705Y-238053050D01*
X95110523Y-238055202D01*
X95110522Y-238055202D01*
X95100183Y-238056426D01*
X95092506Y-238060112D01*
X95084109Y-238061510D01*
X95074950Y-238066452D01*
X95074947Y-238066453D01*
X95042352Y-238084041D01*
X95037060Y-238086737D01*
X94994275Y-238107282D01*
X94990301Y-238110623D01*
X94988368Y-238112556D01*
X94986747Y-238114043D01*
X94986298Y-238114285D01*
X94986270Y-238114254D01*
X94986134Y-238114373D01*
X94980714Y-238117298D01*
X94973644Y-238124946D01*
X94973643Y-238124947D01*
X94946793Y-238153994D01*
X94943363Y-238157561D01*
X94627995Y-238472929D01*
X94565683Y-238506955D01*
X94494868Y-238501890D01*
X94438032Y-238459343D01*
X94413221Y-238392823D01*
X94412900Y-238383834D01*
X94412900Y-238181917D01*
X94432902Y-238113796D01*
X94481696Y-238069651D01*
X94563342Y-238028050D01*
X94653050Y-237938342D01*
X94710646Y-237825304D01*
X94725500Y-237731519D01*
X94725499Y-237268482D01*
X94724724Y-237263588D01*
X94712198Y-237184494D01*
X94712197Y-237184492D01*
X94710646Y-237174696D01*
X94653050Y-237061658D01*
X94563342Y-236971950D01*
X94450304Y-236914354D01*
X94440515Y-236912804D01*
X94440513Y-236912803D01*
X94413151Y-236908470D01*
X94356519Y-236899500D01*
X94050062Y-236899500D01*
X93743482Y-236899501D01*
X93738589Y-236900276D01*
X93738588Y-236900276D01*
X93659494Y-236912802D01*
X93659492Y-236912803D01*
X93649696Y-236914354D01*
X93640859Y-236918857D01*
X93640858Y-236918857D01*
X93637630Y-236920502D01*
X93536658Y-236971950D01*
X93446950Y-237061658D01*
X93389354Y-237174696D01*
X93387804Y-237184485D01*
X93387803Y-237184487D01*
X93385099Y-237201563D01*
X93374500Y-237268481D01*
X93374501Y-237731518D01*
X93375276Y-237736409D01*
X93375276Y-237736412D01*
X93386838Y-237809415D01*
X93389354Y-237825304D01*
X93393855Y-237834137D01*
X93393857Y-237834142D01*
X93400460Y-237847100D01*
X93446950Y-237938342D01*
X93536658Y-238028050D01*
X93631771Y-238076513D01*
X93638303Y-238079841D01*
X93689918Y-238128590D01*
X93707100Y-238192108D01*
X93707100Y-238503834D01*
X93687098Y-238571955D01*
X93633442Y-238618448D01*
X93563168Y-238628552D01*
X93498588Y-238599058D01*
X93492005Y-238592929D01*
X92847666Y-237948590D01*
X92813640Y-237886278D01*
X92812312Y-237839784D01*
X92813206Y-237834142D01*
X92825500Y-237756519D01*
X92825499Y-237293482D01*
X92822854Y-237276783D01*
X92812198Y-237209494D01*
X92812197Y-237209492D01*
X92810646Y-237199696D01*
X92753050Y-237086658D01*
X92663342Y-236996950D01*
X92550304Y-236939354D01*
X92540515Y-236937804D01*
X92540513Y-236937803D01*
X92513151Y-236933470D01*
X92456519Y-236924500D01*
X92150062Y-236924500D01*
X91843482Y-236924501D01*
X91838589Y-236925276D01*
X91838588Y-236925276D01*
X91759494Y-236937802D01*
X91759492Y-236937803D01*
X91749696Y-236939354D01*
X91740859Y-236943857D01*
X91740858Y-236943857D01*
X91734788Y-236946950D01*
X91636658Y-236996950D01*
X91546950Y-237086658D01*
X91489354Y-237199696D01*
X91487804Y-237209485D01*
X91487803Y-237209487D01*
X91485099Y-237226563D01*
X91474500Y-237293481D01*
X80000000Y-237293481D01*
X80000000Y-235643481D01*
X91474500Y-235643481D01*
X91474501Y-236106518D01*
X91475276Y-236111409D01*
X91475276Y-236111412D01*
X91487616Y-236189328D01*
X91489354Y-236200304D01*
X91493855Y-236209137D01*
X91493857Y-236209142D01*
X91501589Y-236224316D01*
X91546950Y-236313342D01*
X91636658Y-236403050D01*
X91749696Y-236460646D01*
X91759485Y-236462196D01*
X91759487Y-236462197D01*
X91786849Y-236466530D01*
X91843481Y-236475500D01*
X92149938Y-236475500D01*
X92456518Y-236475499D01*
X92461412Y-236474724D01*
X92540506Y-236462198D01*
X92540508Y-236462197D01*
X92550304Y-236460646D01*
X92663342Y-236403050D01*
X92753050Y-236313342D01*
X92810646Y-236200304D01*
X92812385Y-236189328D01*
X92819525Y-236144242D01*
X92825500Y-236106519D01*
X92825499Y-235643482D01*
X92823813Y-235632837D01*
X92821540Y-235618481D01*
X93374500Y-235618481D01*
X93374501Y-236081518D01*
X93375276Y-236086409D01*
X93375276Y-236086412D01*
X93387453Y-236163299D01*
X93389354Y-236175304D01*
X93393855Y-236184137D01*
X93393857Y-236184142D01*
X93397100Y-236190506D01*
X93446950Y-236288342D01*
X93536658Y-236378050D01*
X93649696Y-236435646D01*
X93659485Y-236437196D01*
X93659487Y-236437197D01*
X93686849Y-236441530D01*
X93743481Y-236450500D01*
X94049938Y-236450500D01*
X94356518Y-236450499D01*
X94361412Y-236449724D01*
X94440506Y-236437198D01*
X94440508Y-236437197D01*
X94450304Y-236435646D01*
X94463242Y-236429054D01*
X94492092Y-236414354D01*
X94563342Y-236378050D01*
X94653050Y-236288342D01*
X94710646Y-236175304D01*
X94712548Y-236163299D01*
X94721540Y-236106519D01*
X94725500Y-236081519D01*
X94725499Y-235618482D01*
X94722452Y-235599241D01*
X94721540Y-235593481D01*
X95224500Y-235593481D01*
X95224501Y-236056518D01*
X95225276Y-236061409D01*
X95225276Y-236061412D01*
X95237499Y-236138588D01*
X95239354Y-236150304D01*
X95296950Y-236263342D01*
X95386658Y-236353050D01*
X95499696Y-236410646D01*
X95509485Y-236412196D01*
X95509487Y-236412197D01*
X95536849Y-236416530D01*
X95593481Y-236425500D01*
X95899938Y-236425500D01*
X96206518Y-236425499D01*
X96211412Y-236424724D01*
X96290506Y-236412198D01*
X96290508Y-236412197D01*
X96300304Y-236410646D01*
X96413342Y-236353050D01*
X96503050Y-236263342D01*
X96560646Y-236150304D01*
X96562674Y-236137503D01*
X96571540Y-236081519D01*
X96575500Y-236056519D01*
X96575499Y-235593482D01*
X96572784Y-235576341D01*
X96562198Y-235509494D01*
X96562197Y-235509492D01*
X96560646Y-235499696D01*
X96548318Y-235475500D01*
X96540749Y-235460646D01*
X96503050Y-235386658D01*
X96413342Y-235296950D01*
X96300304Y-235239354D01*
X96301621Y-235236769D01*
X96255957Y-235205544D01*
X96228321Y-235140147D01*
X96227500Y-235125785D01*
X96227500Y-231937845D01*
X96247502Y-231869724D01*
X96264405Y-231848749D01*
X96376020Y-231737135D01*
X96438332Y-231703110D01*
X96447835Y-231701489D01*
X96456255Y-231701643D01*
X96464911Y-231699283D01*
X96464912Y-231699283D01*
X96572092Y-231670062D01*
X96572093Y-231670062D01*
X96580755Y-231667700D01*
X96588405Y-231663003D01*
X96588407Y-231663002D01*
X96683072Y-231604878D01*
X96683075Y-231604875D01*
X96690724Y-231600179D01*
X96696750Y-231593522D01*
X96771300Y-231511161D01*
X96771303Y-231511157D01*
X96777322Y-231504507D01*
X96833588Y-231388375D01*
X96839224Y-231354878D01*
X96854190Y-231265917D01*
X96854997Y-231261120D01*
X96855133Y-231250000D01*
X96842756Y-231163574D01*
X96838112Y-231131145D01*
X96838111Y-231131142D01*
X96836839Y-231122259D01*
X96794886Y-231029988D01*
X96787145Y-231012962D01*
X96787143Y-231012959D01*
X96783428Y-231004788D01*
X96699193Y-230907028D01*
X96590906Y-230836841D01*
X96582311Y-230834271D01*
X96582310Y-230834270D01*
X96475874Y-230802438D01*
X96475872Y-230802438D01*
X96467273Y-230799866D01*
X96458298Y-230799811D01*
X96458297Y-230799811D01*
X96403641Y-230799477D01*
X96338231Y-230799078D01*
X96276193Y-230816808D01*
X96222786Y-230832072D01*
X96222784Y-230832073D01*
X96214155Y-230834539D01*
X96105019Y-230903399D01*
X96019596Y-231000122D01*
X96015782Y-231008245D01*
X96015781Y-231008247D01*
X96012180Y-231015917D01*
X95964754Y-231116932D01*
X95963374Y-231125796D01*
X95963373Y-231125799D01*
X95951688Y-231200851D01*
X95921444Y-231265084D01*
X95916283Y-231270562D01*
X95682426Y-231504419D01*
X95674323Y-231511845D01*
X95645250Y-231536240D01*
X95639737Y-231545789D01*
X95626275Y-231569106D01*
X95620377Y-231578365D01*
X95598606Y-231609457D01*
X95595754Y-231620101D01*
X95594240Y-231623347D01*
X95593014Y-231626715D01*
X95587503Y-231636261D01*
X95585140Y-231649664D01*
X95580913Y-231673633D01*
X95578536Y-231684356D01*
X95568713Y-231721016D01*
X95569674Y-231731999D01*
X95572020Y-231758811D01*
X95572500Y-231769794D01*
X95572500Y-235125785D01*
X95552498Y-235193906D01*
X95500127Y-235239286D01*
X95499696Y-235239354D01*
X95493772Y-235242372D01*
X95493768Y-235242374D01*
X95452313Y-235263497D01*
X95386658Y-235296950D01*
X95296950Y-235386658D01*
X95239354Y-235499696D01*
X95224500Y-235593481D01*
X94721540Y-235593481D01*
X94712198Y-235534494D01*
X94712197Y-235534492D01*
X94710646Y-235524696D01*
X94705452Y-235514501D01*
X94685184Y-235474724D01*
X94653050Y-235411658D01*
X94563342Y-235321950D01*
X94450304Y-235264354D01*
X94451621Y-235261769D01*
X94405957Y-235230544D01*
X94378321Y-235165147D01*
X94377500Y-235150785D01*
X94377500Y-233237845D01*
X94397502Y-233169724D01*
X94414405Y-233148749D01*
X94551020Y-233012135D01*
X94613332Y-232978110D01*
X94622835Y-232976489D01*
X94631255Y-232976643D01*
X94639911Y-232974283D01*
X94639912Y-232974283D01*
X94747092Y-232945062D01*
X94747093Y-232945062D01*
X94755755Y-232942700D01*
X94763405Y-232938003D01*
X94763407Y-232938002D01*
X94858072Y-232879878D01*
X94858075Y-232879875D01*
X94865724Y-232875179D01*
X94907384Y-232829154D01*
X94946300Y-232786161D01*
X94946303Y-232786157D01*
X94952322Y-232779507D01*
X95008588Y-232663375D01*
X95029997Y-232536120D01*
X95030133Y-232525000D01*
X95014119Y-232413179D01*
X95013112Y-232406145D01*
X95013111Y-232406142D01*
X95011839Y-232397259D01*
X94958428Y-232279788D01*
X94874193Y-232182028D01*
X94765906Y-232111841D01*
X94757311Y-232109271D01*
X94757310Y-232109270D01*
X94650874Y-232077438D01*
X94650872Y-232077438D01*
X94642273Y-232074866D01*
X94633298Y-232074811D01*
X94633297Y-232074811D01*
X94578641Y-232074477D01*
X94513231Y-232074078D01*
X94501475Y-232077438D01*
X94397786Y-232107072D01*
X94397784Y-232107073D01*
X94389155Y-232109539D01*
X94280019Y-232178399D01*
X94194596Y-232275122D01*
X94190782Y-232283245D01*
X94190781Y-232283247D01*
X94164794Y-232338598D01*
X94139754Y-232391932D01*
X94138374Y-232400796D01*
X94138373Y-232400799D01*
X94126688Y-232475851D01*
X94096444Y-232540084D01*
X94091283Y-232545562D01*
X93832426Y-232804419D01*
X93824323Y-232811845D01*
X93795250Y-232836240D01*
X93789737Y-232845789D01*
X93776275Y-232869106D01*
X93770377Y-232878365D01*
X93748606Y-232909457D01*
X93745754Y-232920101D01*
X93744240Y-232923347D01*
X93743014Y-232926715D01*
X93737503Y-232936261D01*
X93735589Y-232947117D01*
X93730913Y-232973633D01*
X93728536Y-232984356D01*
X93718713Y-233021016D01*
X93719674Y-233031999D01*
X93722020Y-233058811D01*
X93722500Y-233069794D01*
X93722500Y-235150785D01*
X93702498Y-235218906D01*
X93650127Y-235264286D01*
X93649696Y-235264354D01*
X93643772Y-235267372D01*
X93643768Y-235267374D01*
X93609708Y-235284729D01*
X93536658Y-235321950D01*
X93446950Y-235411658D01*
X93389354Y-235524696D01*
X93374500Y-235618481D01*
X92821540Y-235618481D01*
X92812198Y-235559494D01*
X92812197Y-235559492D01*
X92810646Y-235549696D01*
X92753050Y-235436658D01*
X92663342Y-235346950D01*
X92596296Y-235312788D01*
X92544682Y-235264041D01*
X92527500Y-235200522D01*
X92527500Y-234558106D01*
X92547502Y-234489985D01*
X92560085Y-234473550D01*
X92570056Y-234462534D01*
X92577322Y-234454507D01*
X92633588Y-234338375D01*
X92635082Y-234329498D01*
X92654190Y-234215917D01*
X92654997Y-234211120D01*
X92655133Y-234200000D01*
X92645318Y-234131466D01*
X92638112Y-234081145D01*
X92638111Y-234081142D01*
X92636839Y-234072259D01*
X92620761Y-234036897D01*
X92587145Y-233962962D01*
X92587143Y-233962959D01*
X92583428Y-233954788D01*
X92522623Y-233884220D01*
X92505051Y-233863826D01*
X92505049Y-233863824D01*
X92499193Y-233857028D01*
X92390906Y-233786841D01*
X92382311Y-233784271D01*
X92382310Y-233784270D01*
X92275874Y-233752438D01*
X92275872Y-233752438D01*
X92267273Y-233749866D01*
X92258298Y-233749811D01*
X92258297Y-233749811D01*
X92203641Y-233749477D01*
X92138231Y-233749078D01*
X92076193Y-233766808D01*
X92022786Y-233782072D01*
X92022784Y-233782073D01*
X92014155Y-233784539D01*
X91905019Y-233853399D01*
X91899076Y-233860128D01*
X91899075Y-233860129D01*
X91853298Y-233911962D01*
X91819596Y-233950122D01*
X91815782Y-233958245D01*
X91815781Y-233958247D01*
X91809786Y-233971016D01*
X91764754Y-234066932D01*
X91759079Y-234103379D01*
X91746282Y-234185567D01*
X91746282Y-234185571D01*
X91744901Y-234194440D01*
X91746065Y-234203342D01*
X91746065Y-234203345D01*
X91760468Y-234313489D01*
X91760469Y-234313493D01*
X91761633Y-234322394D01*
X91765250Y-234330614D01*
X91806722Y-234424866D01*
X91813605Y-234440510D01*
X91842952Y-234475423D01*
X91871472Y-234540436D01*
X91872500Y-234556496D01*
X91872500Y-235162290D01*
X91852498Y-235230411D01*
X91798842Y-235276904D01*
X91766208Y-235286739D01*
X91759494Y-235287802D01*
X91759492Y-235287803D01*
X91749696Y-235289354D01*
X91636658Y-235346950D01*
X91546950Y-235436658D01*
X91489354Y-235549696D01*
X91487804Y-235559485D01*
X91487803Y-235559487D01*
X91484401Y-235580969D01*
X91474500Y-235643481D01*
X80000000Y-235643481D01*
X80000000Y-230794294D01*
X192417709Y-230794294D01*
X192423132Y-230853315D01*
X192425743Y-230866351D01*
X192472715Y-231016243D01*
X192478921Y-231029988D01*
X192559824Y-231163574D01*
X192569131Y-231175443D01*
X192679557Y-231285869D01*
X192691426Y-231295176D01*
X192825012Y-231376079D01*
X192838757Y-231382285D01*
X192988644Y-231429256D01*
X193001694Y-231431869D01*
X193065521Y-231437734D01*
X193071309Y-231438000D01*
X193127885Y-231438000D01*
X193143124Y-231433525D01*
X193144329Y-231432135D01*
X193146000Y-231424452D01*
X193146000Y-231419884D01*
X193654000Y-231419884D01*
X193658475Y-231435123D01*
X193659865Y-231436328D01*
X193667548Y-231437999D01*
X193728705Y-231437999D01*
X193734454Y-231437736D01*
X193798315Y-231431868D01*
X193811351Y-231429257D01*
X193961243Y-231382285D01*
X193974988Y-231376079D01*
X194108574Y-231295176D01*
X194120443Y-231285869D01*
X194230869Y-231175443D01*
X194240176Y-231163574D01*
X194321079Y-231029988D01*
X194327285Y-231016243D01*
X194374256Y-230866356D01*
X194376869Y-230853306D01*
X194381913Y-230798414D01*
X194378525Y-230786876D01*
X194377135Y-230785671D01*
X194369452Y-230784000D01*
X193672115Y-230784000D01*
X193656876Y-230788475D01*
X193655671Y-230789865D01*
X193654000Y-230797548D01*
X193654000Y-231419884D01*
X193146000Y-231419884D01*
X193146000Y-230802115D01*
X193141525Y-230786876D01*
X193140135Y-230785671D01*
X193132452Y-230784000D01*
X192435116Y-230784000D01*
X192419877Y-230788475D01*
X192418672Y-230789865D01*
X192417709Y-230794294D01*
X80000000Y-230794294D01*
X80000000Y-228149271D01*
X81796668Y-228149271D01*
X81796755Y-228153273D01*
X81796755Y-228153280D01*
X81803261Y-228451448D01*
X81803349Y-228455465D01*
X81848883Y-228758330D01*
X81849979Y-228762190D01*
X81849980Y-228762195D01*
X81876909Y-228857044D01*
X81932531Y-229052953D01*
X82052937Y-229334560D01*
X82208149Y-229598585D01*
X82395651Y-229840747D01*
X82612404Y-230057122D01*
X82615585Y-230059576D01*
X82615586Y-230059577D01*
X82851701Y-230241739D01*
X82851705Y-230241742D01*
X82854894Y-230244202D01*
X82867346Y-230251493D01*
X83103400Y-230389708D01*
X83119189Y-230398953D01*
X83122874Y-230400521D01*
X83122878Y-230400523D01*
X83168549Y-230419956D01*
X83401006Y-230518867D01*
X83695775Y-230602001D01*
X83895386Y-230631655D01*
X83995419Y-230646516D01*
X83995421Y-230646516D01*
X83998718Y-230647006D01*
X84002049Y-230647146D01*
X84002053Y-230647146D01*
X84038737Y-230648683D01*
X84082084Y-230650500D01*
X84277474Y-230650500D01*
X84400915Y-230642626D01*
X84501639Y-230636201D01*
X84501644Y-230636200D01*
X84505647Y-230635945D01*
X84509584Y-230635183D01*
X84509586Y-230635183D01*
X84802401Y-230578530D01*
X84802405Y-230578529D01*
X84806338Y-230577768D01*
X85097200Y-230481856D01*
X85373518Y-230349763D01*
X85487757Y-230276000D01*
X85627439Y-230185809D01*
X85627440Y-230185808D01*
X85630812Y-230183631D01*
X85677553Y-230144202D01*
X85819822Y-230024187D01*
X85864910Y-229986152D01*
X86059533Y-229774131D01*
X86069304Y-229763487D01*
X86069306Y-229763485D01*
X86072019Y-229760529D01*
X86083991Y-229743590D01*
X86202392Y-229576055D01*
X86248780Y-229510418D01*
X86392328Y-229239874D01*
X86402028Y-229214137D01*
X86498919Y-228957044D01*
X86498921Y-228957038D01*
X86500336Y-228953283D01*
X86539663Y-228787566D01*
X86570124Y-228659207D01*
X86570125Y-228659202D01*
X86571053Y-228655291D01*
X86603332Y-228350729D01*
X86603135Y-228341677D01*
X86596755Y-228049271D01*
X183996668Y-228049271D01*
X183996755Y-228053273D01*
X183996755Y-228053280D01*
X184003261Y-228351448D01*
X184003349Y-228355465D01*
X184048883Y-228658330D01*
X184049979Y-228662190D01*
X184049980Y-228662195D01*
X184078372Y-228762195D01*
X184132531Y-228952953D01*
X184252937Y-229234560D01*
X184408149Y-229498585D01*
X184595651Y-229740747D01*
X184598499Y-229743590D01*
X184762233Y-229907038D01*
X184812404Y-229957122D01*
X184815585Y-229959576D01*
X184815586Y-229959577D01*
X185051701Y-230141739D01*
X185051705Y-230141742D01*
X185054894Y-230144202D01*
X185058373Y-230146239D01*
X185302751Y-230289328D01*
X185319189Y-230298953D01*
X185322874Y-230300521D01*
X185322878Y-230300523D01*
X185439799Y-230350273D01*
X185601006Y-230418867D01*
X185895775Y-230502001D01*
X186092794Y-230531270D01*
X186195419Y-230546516D01*
X186195421Y-230546516D01*
X186198718Y-230547006D01*
X186202049Y-230547146D01*
X186202053Y-230547146D01*
X186238737Y-230548683D01*
X186282084Y-230550500D01*
X186477474Y-230550500D01*
X186600915Y-230542626D01*
X186701639Y-230536201D01*
X186701644Y-230536200D01*
X186705647Y-230535945D01*
X186709584Y-230535183D01*
X186709586Y-230535183D01*
X187002401Y-230478530D01*
X187002405Y-230478529D01*
X187006338Y-230477768D01*
X187297200Y-230381856D01*
X187573518Y-230249763D01*
X187801815Y-230102354D01*
X187827439Y-230085809D01*
X187827440Y-230085808D01*
X187830812Y-230083631D01*
X187859327Y-230059577D01*
X188004135Y-229937420D01*
X188053389Y-229895871D01*
X191191776Y-229895871D01*
X191228357Y-230021784D01*
X191234604Y-230036220D01*
X191309876Y-230163499D01*
X191319516Y-230175926D01*
X191424074Y-230280484D01*
X191436501Y-230290124D01*
X191563780Y-230365396D01*
X191578216Y-230371643D01*
X191721641Y-230413312D01*
X191729609Y-230414768D01*
X191743031Y-230411948D01*
X191746000Y-230400487D01*
X191746000Y-229902115D01*
X191741525Y-229886876D01*
X191740135Y-229885671D01*
X191732452Y-229884000D01*
X191206442Y-229884000D01*
X191192911Y-229887973D01*
X191191776Y-229895871D01*
X188053389Y-229895871D01*
X188064910Y-229886152D01*
X188220005Y-229717193D01*
X188269304Y-229663487D01*
X188269306Y-229663485D01*
X188272019Y-229660529D01*
X188339990Y-229564353D01*
X188378107Y-229510418D01*
X188448780Y-229410418D01*
X188586690Y-229150500D01*
X188590445Y-229143423D01*
X188590445Y-229143422D01*
X188592328Y-229139874D01*
X188609909Y-229093224D01*
X188698919Y-228857044D01*
X188698921Y-228857038D01*
X188700336Y-228853283D01*
X188721952Y-228762195D01*
X188770124Y-228559207D01*
X188770125Y-228559202D01*
X188771053Y-228555291D01*
X188803332Y-228250729D01*
X188803084Y-228239323D01*
X188796739Y-227948552D01*
X188796739Y-227948547D01*
X188796651Y-227944535D01*
X188751117Y-227641670D01*
X188749195Y-227634898D01*
X188696358Y-227448799D01*
X188667469Y-227347047D01*
X188664046Y-227339040D01*
X188621451Y-227239420D01*
X188547063Y-227065440D01*
X188391851Y-226801415D01*
X188204349Y-226559253D01*
X188019244Y-226374471D01*
X187990437Y-226345714D01*
X187987596Y-226342878D01*
X187971459Y-226330428D01*
X187748299Y-226158261D01*
X187748295Y-226158258D01*
X187745106Y-226155798D01*
X187680514Y-226117978D01*
X187484275Y-226003075D01*
X187484272Y-226003073D01*
X187480811Y-226001047D01*
X187477126Y-225999479D01*
X187477122Y-225999477D01*
X187290051Y-225919878D01*
X187198994Y-225881133D01*
X186904225Y-225797999D01*
X186654426Y-225760889D01*
X186604581Y-225753484D01*
X186604579Y-225753484D01*
X186601282Y-225752994D01*
X186597951Y-225752854D01*
X186597947Y-225752854D01*
X186561263Y-225751317D01*
X186517916Y-225749500D01*
X186322526Y-225749500D01*
X186199085Y-225757374D01*
X186098361Y-225763799D01*
X186098356Y-225763800D01*
X186094353Y-225764055D01*
X186090416Y-225764817D01*
X186090414Y-225764817D01*
X185797599Y-225821470D01*
X185797595Y-225821471D01*
X185793662Y-225822232D01*
X185502800Y-225918144D01*
X185226482Y-226050237D01*
X185223112Y-226052413D01*
X184981380Y-226208497D01*
X184969188Y-226216369D01*
X184966123Y-226218954D01*
X184966121Y-226218956D01*
X184873637Y-226296973D01*
X184735090Y-226413848D01*
X184589199Y-226572781D01*
X184541925Y-226624281D01*
X184527981Y-226639471D01*
X184525667Y-226642746D01*
X184525664Y-226642749D01*
X184514000Y-226659253D01*
X184351220Y-226889582D01*
X184257272Y-227066646D01*
X184217204Y-227142162D01*
X184207672Y-227160126D01*
X184206257Y-227163882D01*
X184206256Y-227163883D01*
X184101553Y-227441705D01*
X184099664Y-227446717D01*
X184095666Y-227463563D01*
X184029952Y-227740476D01*
X184028947Y-227744709D01*
X183996668Y-228049271D01*
X86596755Y-228049271D01*
X86596739Y-228048552D01*
X86596739Y-228048547D01*
X86596651Y-228044535D01*
X86551117Y-227741670D01*
X86545912Y-227723335D01*
X86493664Y-227539310D01*
X86467469Y-227447047D01*
X86459498Y-227428403D01*
X86434051Y-227368888D01*
X86347063Y-227165440D01*
X86191851Y-226901415D01*
X86004349Y-226659253D01*
X85844397Y-226499580D01*
X85790437Y-226445714D01*
X85787596Y-226442878D01*
X85746621Y-226411266D01*
X85548299Y-226258261D01*
X85548295Y-226258258D01*
X85545106Y-226255798D01*
X85508834Y-226234560D01*
X85284275Y-226103075D01*
X85284272Y-226103073D01*
X85280811Y-226101047D01*
X85277126Y-226099479D01*
X85277122Y-226099477D01*
X85090051Y-226019878D01*
X84998994Y-225981133D01*
X84704225Y-225897999D01*
X84471523Y-225863429D01*
X84404581Y-225853484D01*
X84404579Y-225853484D01*
X84401282Y-225852994D01*
X84397951Y-225852854D01*
X84397947Y-225852854D01*
X84361263Y-225851317D01*
X84317916Y-225849500D01*
X84122526Y-225849500D01*
X83999085Y-225857374D01*
X83898361Y-225863799D01*
X83898356Y-225863800D01*
X83894353Y-225864055D01*
X83890416Y-225864817D01*
X83890414Y-225864817D01*
X83597599Y-225921470D01*
X83597595Y-225921471D01*
X83593662Y-225922232D01*
X83302800Y-226018144D01*
X83026482Y-226150237D01*
X83010034Y-226160857D01*
X82785845Y-226305614D01*
X82769188Y-226316369D01*
X82766123Y-226318954D01*
X82766121Y-226318956D01*
X82737763Y-226342878D01*
X82535090Y-226513848D01*
X82327981Y-226739471D01*
X82325667Y-226742746D01*
X82325664Y-226742749D01*
X82312642Y-226761175D01*
X82151220Y-226989582D01*
X82007672Y-227260126D01*
X82006257Y-227263882D01*
X82006256Y-227263883D01*
X81903371Y-227536882D01*
X81899664Y-227546717D01*
X81898735Y-227550632D01*
X81830666Y-227837467D01*
X81828947Y-227844709D01*
X81796668Y-228149271D01*
X80000000Y-228149271D01*
X80000000Y-223415838D01*
X80005146Y-223400000D01*
X80000654Y-223386176D01*
X80000666Y-223386136D01*
X80000641Y-223386135D01*
X80013862Y-223100179D01*
X80016368Y-223045971D01*
X80017442Y-223034382D01*
X80065601Y-222689141D01*
X80067740Y-222677701D01*
X80083687Y-222609900D01*
X80147548Y-222338375D01*
X80150731Y-222327190D01*
X80154160Y-222316961D01*
X80212527Y-222142816D01*
X80261507Y-221996682D01*
X80265711Y-221985830D01*
X80406512Y-221666945D01*
X80411700Y-221656527D01*
X80581315Y-221352010D01*
X80587441Y-221342115D01*
X80685748Y-221198605D01*
X192293381Y-221198605D01*
X192293421Y-221212705D01*
X192300691Y-221216000D01*
X192827885Y-221216000D01*
X192843124Y-221211525D01*
X192844329Y-221210135D01*
X192846000Y-221202452D01*
X192846000Y-221197885D01*
X193354000Y-221197885D01*
X193358475Y-221213124D01*
X193359865Y-221214329D01*
X193367548Y-221216000D01*
X193893558Y-221216000D01*
X193907089Y-221212027D01*
X193908224Y-221204129D01*
X193871643Y-221078216D01*
X193865396Y-221063780D01*
X193790124Y-220936501D01*
X193780484Y-220924074D01*
X193675926Y-220819516D01*
X193663499Y-220809876D01*
X193536220Y-220734604D01*
X193521784Y-220728357D01*
X193378359Y-220686688D01*
X193370391Y-220685232D01*
X193356969Y-220688052D01*
X193354000Y-220699513D01*
X193354000Y-221197885D01*
X192846000Y-221197885D01*
X192846000Y-220701576D01*
X192841656Y-220686781D01*
X192831225Y-220684937D01*
X192821641Y-220686688D01*
X192678216Y-220728357D01*
X192663780Y-220734604D01*
X192536501Y-220809876D01*
X192524074Y-220819516D01*
X192419516Y-220924074D01*
X192409876Y-220936501D01*
X192334604Y-221063780D01*
X192328357Y-221078216D01*
X192293381Y-221198605D01*
X80685748Y-221198605D01*
X80784441Y-221054531D01*
X80791455Y-221045243D01*
X81014149Y-220777062D01*
X81021990Y-220768462D01*
X81268462Y-220521990D01*
X81277062Y-220514149D01*
X81545243Y-220291455D01*
X81554531Y-220284441D01*
X81842115Y-220087441D01*
X81852010Y-220081315D01*
X82156527Y-219911700D01*
X82166945Y-219906512D01*
X82485830Y-219765711D01*
X82496682Y-219761507D01*
X82688660Y-219697162D01*
X82827199Y-219650728D01*
X82838375Y-219647548D01*
X83177701Y-219567740D01*
X83189141Y-219565601D01*
X83534382Y-219517442D01*
X83545971Y-219516368D01*
X83886135Y-219500641D01*
X83900000Y-219505146D01*
X83915838Y-219500000D01*
X223793383Y-219500000D01*
X223861504Y-219520002D01*
G37*
%TD.AperFunction*%
%TA.AperFunction,Conductor*%
G36*
X276796121Y-237316002D02*
G01*
X276842614Y-237369658D01*
X276854000Y-237422000D01*
X276854000Y-239817885D01*
X276858475Y-239833124D01*
X276859865Y-239834329D01*
X276867548Y-239836000D01*
X277918344Y-239836000D01*
X277931875Y-239832027D01*
X277933180Y-239822947D01*
X277891214Y-239655875D01*
X277887894Y-239646124D01*
X277802972Y-239450814D01*
X277798105Y-239441739D01*
X277682426Y-239262926D01*
X277676136Y-239254757D01*
X277532806Y-239097240D01*
X277525273Y-239090215D01*
X277358139Y-238958222D01*
X277349552Y-238952517D01*
X277312116Y-238931851D01*
X277262146Y-238881419D01*
X277247374Y-238811976D01*
X277272490Y-238745571D01*
X277299842Y-238718964D01*
X277475327Y-238593792D01*
X277483200Y-238587139D01*
X277634052Y-238436812D01*
X277640730Y-238428965D01*
X277765003Y-238256020D01*
X277770313Y-238247183D01*
X277864670Y-238056267D01*
X277868469Y-238046672D01*
X277930376Y-237842915D01*
X277932555Y-237832834D01*
X277953089Y-237676858D01*
X277981811Y-237611931D01*
X278041076Y-237572839D01*
X278112068Y-237571994D01*
X278167106Y-237604209D01*
X278172952Y-237610055D01*
X278176381Y-237613620D01*
X278215146Y-237655556D01*
X278221505Y-237659249D01*
X278227663Y-237664766D01*
X280112595Y-239549698D01*
X280146621Y-239612010D01*
X280149500Y-239638793D01*
X280149500Y-243961207D01*
X280129498Y-244029328D01*
X280112595Y-244050302D01*
X279813607Y-244349290D01*
X279751295Y-244383316D01*
X279680480Y-244378251D01*
X279623644Y-244335704D01*
X279598833Y-244269184D01*
X279600258Y-244239293D01*
X279604190Y-244215922D01*
X279604191Y-244215911D01*
X279604997Y-244211120D01*
X279605133Y-244200000D01*
X279595474Y-244132555D01*
X279588112Y-244081145D01*
X279588111Y-244081142D01*
X279586839Y-244072259D01*
X279567320Y-244029328D01*
X279537144Y-243962961D01*
X279533428Y-243954788D01*
X279508046Y-243925330D01*
X279478733Y-243860671D01*
X279477500Y-243843085D01*
X279477500Y-242419809D01*
X279477979Y-242408827D01*
X279480327Y-242381993D01*
X279480327Y-242381991D01*
X279481287Y-242371016D01*
X279471462Y-242334347D01*
X279469086Y-242323629D01*
X279464411Y-242297118D01*
X279462497Y-242286261D01*
X279456983Y-242276712D01*
X279455756Y-242273340D01*
X279454248Y-242270106D01*
X279451395Y-242259457D01*
X279429622Y-242228361D01*
X279423730Y-242219114D01*
X279404750Y-242186240D01*
X279375677Y-242161845D01*
X279367585Y-242154430D01*
X278395576Y-241182422D01*
X278388160Y-241174329D01*
X278370846Y-241153695D01*
X278363760Y-241145250D01*
X278330895Y-241126275D01*
X278321635Y-241120377D01*
X278290543Y-241098606D01*
X278279899Y-241095754D01*
X278276653Y-241094240D01*
X278273285Y-241093014D01*
X278263739Y-241087503D01*
X278226368Y-241080913D01*
X278215644Y-241078536D01*
X278178984Y-241068713D01*
X278168000Y-241069674D01*
X278167999Y-241069674D01*
X278141189Y-241072020D01*
X278130206Y-241072500D01*
X277812028Y-241072500D01*
X277743907Y-241052498D01*
X277697414Y-240998842D01*
X277687310Y-240928568D01*
X277709706Y-240872974D01*
X277765004Y-240796020D01*
X277770313Y-240787183D01*
X277864670Y-240596267D01*
X277868469Y-240586672D01*
X277930377Y-240382910D01*
X277932555Y-240372837D01*
X277933986Y-240361962D01*
X277931775Y-240347778D01*
X277918617Y-240344000D01*
X276472000Y-240344000D01*
X276403879Y-240323998D01*
X276357386Y-240270342D01*
X276346000Y-240218000D01*
X276346000Y-237422000D01*
X276366002Y-237353879D01*
X276419658Y-237307386D01*
X276472000Y-237296000D01*
X276728000Y-237296000D01*
X276796121Y-237316002D01*
G37*
%TD.AperFunction*%
%TA.AperFunction,Conductor*%
G36*
X192528897Y-226224430D02*
G01*
X192575390Y-226278086D01*
X192586776Y-226330428D01*
X192586776Y-226899836D01*
X192588308Y-226912028D01*
X192586743Y-226955863D01*
X192588649Y-226973598D01*
X192621436Y-227102046D01*
X192624271Y-227110566D01*
X192625841Y-227114355D01*
X192625840Y-227114355D01*
X192625844Y-227114360D01*
X192633941Y-227133908D01*
X192636840Y-227139968D01*
X192684035Y-227226402D01*
X192693186Y-227239091D01*
X192781215Y-227333640D01*
X192795103Y-227344832D01*
X192909115Y-227412477D01*
X192917139Y-227416494D01*
X192940483Y-227426163D01*
X192946834Y-227428403D01*
X193041321Y-227456146D01*
X193056756Y-227458647D01*
X193145636Y-227461821D01*
X193156804Y-227463224D01*
X193157614Y-227463224D01*
X193158220Y-227463402D01*
X193167924Y-227464621D01*
X193174741Y-227466104D01*
X193174302Y-227468124D01*
X193225735Y-227483226D01*
X193272228Y-227536882D01*
X193282332Y-227607156D01*
X193252838Y-227671736D01*
X193246709Y-227678319D01*
X193224546Y-227700482D01*
X193222513Y-227702237D01*
X193217731Y-227704575D01*
X193209822Y-227713101D01*
X193184428Y-227740476D01*
X193181148Y-227743881D01*
X193167752Y-227757277D01*
X193165028Y-227761247D01*
X193162703Y-227763895D01*
X193149508Y-227778119D01*
X193149506Y-227778122D01*
X193141599Y-227786646D01*
X193137289Y-227797450D01*
X193134767Y-227801439D01*
X193129006Y-227812227D01*
X193127089Y-227816552D01*
X193120508Y-227826146D01*
X193117822Y-227837465D01*
X193117821Y-227837467D01*
X193114817Y-227850127D01*
X193109252Y-227867724D01*
X193103412Y-227882362D01*
X193100117Y-227890622D01*
X193099500Y-227896915D01*
X193099500Y-227899994D01*
X193099350Y-227903067D01*
X193099134Y-227903056D01*
X193097802Y-227914431D01*
X193097346Y-227923746D01*
X193094660Y-227935066D01*
X193096229Y-227946595D01*
X193096229Y-227946596D01*
X193098349Y-227962173D01*
X193099500Y-227979164D01*
X193099500Y-228172013D01*
X193079498Y-228240134D01*
X193025842Y-228286627D01*
X193012433Y-228291847D01*
X193009492Y-228292803D01*
X192999696Y-228294354D01*
X192886658Y-228351950D01*
X192796950Y-228441658D01*
X192792450Y-228450489D01*
X192792446Y-228450495D01*
X192748121Y-228537487D01*
X192699373Y-228589102D01*
X192630458Y-228606168D01*
X192563257Y-228583267D01*
X192519105Y-228527669D01*
X192510499Y-228490153D01*
X192510499Y-228490100D01*
X192503972Y-228440513D01*
X192485081Y-228400000D01*
X192457884Y-228341677D01*
X192457883Y-228341676D01*
X192453224Y-228331684D01*
X192368316Y-228246776D01*
X192358328Y-228242118D01*
X192352108Y-228237763D01*
X192307781Y-228182305D01*
X192301998Y-228155588D01*
X192301219Y-228155764D01*
X192298663Y-228144420D01*
X192298226Y-228132792D01*
X192293632Y-228122100D01*
X192292595Y-228117497D01*
X192289038Y-228105786D01*
X192287339Y-228101383D01*
X192285209Y-228089947D01*
X192272272Y-228068959D01*
X192263769Y-228052589D01*
X192257548Y-228038109D01*
X192257545Y-228038104D01*
X192254036Y-228029937D01*
X192250023Y-228025051D01*
X192247840Y-228022868D01*
X192245776Y-228020592D01*
X192245937Y-228020446D01*
X192238835Y-228011461D01*
X192232571Y-228004554D01*
X192226468Y-227994652D01*
X192204689Y-227978091D01*
X192191868Y-227966896D01*
X192137405Y-227912433D01*
X192103380Y-227850122D01*
X192100500Y-227823338D01*
X192100500Y-226426661D01*
X192120502Y-226358540D01*
X192137405Y-226337566D01*
X192233638Y-226241333D01*
X192295950Y-226207307D01*
X192322733Y-226204428D01*
X192460776Y-226204428D01*
X192528897Y-226224430D01*
G37*
%TD.AperFunction*%
%TA.AperFunction,Conductor*%
G36*
X194243962Y-224355422D02*
G01*
X194252260Y-224360966D01*
X194325326Y-224375500D01*
X194474674Y-224375500D01*
X194547740Y-224360966D01*
X194551403Y-224358519D01*
X194616484Y-224351522D01*
X194642325Y-224359110D01*
X194661766Y-224367162D01*
X194660889Y-224369278D01*
X194711700Y-224402562D01*
X194731366Y-224438579D01*
X194732420Y-224438052D01*
X194732421Y-224438054D01*
X194732556Y-224438350D01*
X194732838Y-224438233D01*
X194736132Y-224446186D01*
X194736134Y-224446191D01*
X194740891Y-224457677D01*
X194748477Y-224528267D01*
X194743311Y-224545859D01*
X194739034Y-224552260D01*
X194724500Y-224625326D01*
X194724500Y-224774674D01*
X194739034Y-224847740D01*
X194743634Y-224854624D01*
X194750918Y-224922370D01*
X194744578Y-224943962D01*
X194739034Y-224952260D01*
X194724500Y-225025326D01*
X194724500Y-225174674D01*
X194739034Y-225247740D01*
X194743634Y-225254624D01*
X194750918Y-225322370D01*
X194744578Y-225343962D01*
X194739034Y-225352260D01*
X194724500Y-225425326D01*
X194724500Y-225574674D01*
X194739034Y-225647740D01*
X194741481Y-225651403D01*
X194748478Y-225716484D01*
X194740890Y-225742325D01*
X194732838Y-225761766D01*
X194730722Y-225760889D01*
X194697438Y-225811700D01*
X194661421Y-225831366D01*
X194661948Y-225832420D01*
X194661946Y-225832421D01*
X194661650Y-225832556D01*
X194661767Y-225832838D01*
X194653814Y-225836132D01*
X194653809Y-225836134D01*
X194642323Y-225840891D01*
X194571733Y-225848477D01*
X194554141Y-225843311D01*
X194547740Y-225839034D01*
X194474674Y-225824500D01*
X194325326Y-225824500D01*
X194252260Y-225839034D01*
X194245376Y-225843634D01*
X194177630Y-225850918D01*
X194156038Y-225844578D01*
X194147740Y-225839034D01*
X194074674Y-225824500D01*
X193925326Y-225824500D01*
X193864662Y-225836567D01*
X193793948Y-225830239D01*
X193737880Y-225786685D01*
X193729493Y-225773375D01*
X193715962Y-225748596D01*
X193706812Y-225735907D01*
X193616782Y-225639209D01*
X193585002Y-225575722D01*
X193583000Y-225553351D01*
X193582999Y-225410447D01*
X193582544Y-225402888D01*
X193572959Y-225323680D01*
X193569008Y-225308122D01*
X193518872Y-225181492D01*
X193510510Y-225166652D01*
X193428467Y-225058565D01*
X193416435Y-225046533D01*
X193309779Y-224965576D01*
X193267612Y-224908458D01*
X193262380Y-224840632D01*
X193267122Y-224816791D01*
X193275500Y-224774674D01*
X193275500Y-224625326D01*
X193260966Y-224552260D01*
X193258519Y-224548597D01*
X193251522Y-224483516D01*
X193259110Y-224457675D01*
X193267162Y-224438234D01*
X193269278Y-224439111D01*
X193302562Y-224388300D01*
X193338579Y-224368634D01*
X193338052Y-224367580D01*
X193338054Y-224367579D01*
X193338350Y-224367444D01*
X193338233Y-224367162D01*
X193346186Y-224363868D01*
X193346191Y-224363866D01*
X193357677Y-224359109D01*
X193428267Y-224351523D01*
X193445859Y-224356689D01*
X193452260Y-224360966D01*
X193525326Y-224375500D01*
X193674674Y-224375500D01*
X193747740Y-224360966D01*
X193754624Y-224356366D01*
X193822370Y-224349082D01*
X193843962Y-224355422D01*
X193852260Y-224360966D01*
X193925326Y-224375500D01*
X194074674Y-224375500D01*
X194147740Y-224360966D01*
X194154624Y-224356366D01*
X194222370Y-224349082D01*
X194243962Y-224355422D01*
G37*
%TD.AperFunction*%
%TA.AperFunction,Conductor*%
G36*
X239001007Y-223160786D02*
G01*
X239051728Y-223191705D01*
X240037766Y-224177744D01*
X240994427Y-225134405D01*
X241028453Y-225196717D01*
X241023388Y-225267533D01*
X240980841Y-225324368D01*
X240914321Y-225349179D01*
X240905332Y-225349500D01*
X236442406Y-225349500D01*
X236374285Y-225329498D01*
X236327792Y-225275842D01*
X236317688Y-225205568D01*
X236320764Y-225192180D01*
X236322850Y-225187875D01*
X236325687Y-225171016D01*
X236343452Y-225065417D01*
X236344259Y-225060620D01*
X236344395Y-225049500D01*
X236343704Y-225044674D01*
X236343534Y-225042065D01*
X236359067Y-224972789D01*
X236409587Y-224922907D01*
X236479056Y-224908257D01*
X236506842Y-224913609D01*
X236612443Y-224946601D01*
X236621012Y-224949278D01*
X236629982Y-224949442D01*
X236629986Y-224949443D01*
X236688721Y-224950519D01*
X236750034Y-224951643D01*
X236824394Y-224931370D01*
X236865871Y-224920062D01*
X236865872Y-224920062D01*
X236874534Y-224917700D01*
X236882184Y-224913003D01*
X236882186Y-224913002D01*
X236976851Y-224854878D01*
X236976854Y-224854875D01*
X236984503Y-224850179D01*
X236993145Y-224840632D01*
X237065079Y-224761161D01*
X237065082Y-224761157D01*
X237071101Y-224754507D01*
X237127367Y-224638375D01*
X237129563Y-224625326D01*
X237132991Y-224604945D01*
X237164017Y-224541087D01*
X237224643Y-224504140D01*
X237259552Y-224499870D01*
X237356255Y-224501643D01*
X237439286Y-224479006D01*
X237472092Y-224470062D01*
X237472093Y-224470062D01*
X237480755Y-224467700D01*
X237488405Y-224463003D01*
X237488407Y-224463002D01*
X237583072Y-224404878D01*
X237583075Y-224404875D01*
X237590724Y-224400179D01*
X237596750Y-224393522D01*
X237671300Y-224311161D01*
X237671303Y-224311157D01*
X237677322Y-224304507D01*
X237733588Y-224188375D01*
X237739039Y-224155974D01*
X237770065Y-224092115D01*
X237830690Y-224055168D01*
X237865602Y-224050898D01*
X237874581Y-224051062D01*
X237906255Y-224051643D01*
X238007805Y-224023957D01*
X238022092Y-224020062D01*
X238022093Y-224020062D01*
X238030755Y-224017700D01*
X238038405Y-224013003D01*
X238038407Y-224013002D01*
X238133072Y-223954878D01*
X238133075Y-223954875D01*
X238140724Y-223950179D01*
X238152026Y-223937693D01*
X238221300Y-223861161D01*
X238221303Y-223861157D01*
X238227322Y-223854507D01*
X238283588Y-223738375D01*
X238289039Y-223705974D01*
X238320065Y-223642115D01*
X238380690Y-223605168D01*
X238415602Y-223600898D01*
X238424581Y-223601062D01*
X238456255Y-223601643D01*
X238518505Y-223584671D01*
X238572092Y-223570062D01*
X238572093Y-223570062D01*
X238580755Y-223567700D01*
X238588405Y-223563003D01*
X238588407Y-223563002D01*
X238683072Y-223504878D01*
X238683075Y-223504875D01*
X238690724Y-223500179D01*
X238713249Y-223475294D01*
X238771300Y-223411161D01*
X238771303Y-223411157D01*
X238777322Y-223404507D01*
X238833588Y-223288375D01*
X238838379Y-223259897D01*
X238869405Y-223196038D01*
X238930030Y-223159091D01*
X239001007Y-223160786D01*
G37*
%TD.AperFunction*%
%TD*%
M02*
