%TF.GenerationSoftware,KiCad,Pcbnew,(6.0.0)*%
%TF.CreationDate,2022-02-18T09:15:22+03:00*%
%TF.ProjectId,Steel_form_Dish_washer PART 2,53746565-6c5f-4666-9f72-6d5f44697368,rev?*%
%TF.SameCoordinates,Original*%
%TF.FileFunction,Soldermask,Bot*%
%TF.FilePolarity,Negative*%
%FSLAX46Y46*%
G04 Gerber Fmt 4.6, Leading zero omitted, Abs format (unit mm)*
G04 Created by KiCad (PCBNEW (6.0.0)) date 2022-02-18 09:15:22*
%MOMM*%
%LPD*%
G01*
G04 APERTURE LIST*
G04 Aperture macros list*
%AMRoundRect*
0 Rectangle with rounded corners*
0 $1 Rounding radius*
0 $2 $3 $4 $5 $6 $7 $8 $9 X,Y pos of 4 corners*
0 Add a 4 corners polygon primitive as box body*
4,1,4,$2,$3,$4,$5,$6,$7,$8,$9,$2,$3,0*
0 Add four circle primitives for the rounded corners*
1,1,$1+$1,$2,$3*
1,1,$1+$1,$4,$5*
1,1,$1+$1,$6,$7*
1,1,$1+$1,$8,$9*
0 Add four rect primitives between the rounded corners*
20,1,$1+$1,$2,$3,$4,$5,0*
20,1,$1+$1,$4,$5,$6,$7,0*
20,1,$1+$1,$6,$7,$8,$9,0*
20,1,$1+$1,$8,$9,$2,$3,0*%
G04 Aperture macros list end*
%ADD10C,4.300000*%
%ADD11R,1.700000X1.700000*%
%ADD12O,1.700000X1.700000*%
%ADD13RoundRect,0.200000X0.200000X0.275000X-0.200000X0.275000X-0.200000X-0.275000X0.200000X-0.275000X0*%
%ADD14RoundRect,0.250000X-0.600000X0.600000X-0.600000X-0.600000X0.600000X-0.600000X0.600000X0.600000X0*%
%ADD15C,1.700000*%
%ADD16RoundRect,0.100000X0.637500X0.100000X-0.637500X0.100000X-0.637500X-0.100000X0.637500X-0.100000X0*%
%ADD17R,0.500000X4.000000*%
G04 APERTURE END LIST*
D10*
%TO.C,H8*%
X84200000Y-228250000D03*
%TD*%
%TO.C,H9*%
X186400000Y-228150000D03*
%TD*%
%TO.C,H6*%
X305900000Y-228150000D03*
%TD*%
%TO.C,H5*%
X83900000Y-250250000D03*
%TD*%
%TO.C,H7*%
X305900000Y-250150000D03*
%TD*%
D11*
%TO.C,J19*%
X276600000Y-250250000D03*
D12*
X276600000Y-247710000D03*
X276600000Y-245170000D03*
X276600000Y-242630000D03*
X276600000Y-240090000D03*
X276600000Y-237550000D03*
X276600000Y-235010000D03*
%TD*%
D13*
%TO.C,R44*%
X286950000Y-238200000D03*
X285300000Y-238200000D03*
%TD*%
D14*
%TO.C,J18*%
X278300000Y-223950000D03*
D15*
X278300000Y-226490000D03*
X280840000Y-223950000D03*
X280840000Y-226490000D03*
X283380000Y-223950000D03*
X283380000Y-226490000D03*
X285920000Y-223950000D03*
X285920000Y-226490000D03*
X288460000Y-223950000D03*
X288460000Y-226490000D03*
X291000000Y-223950000D03*
X291000000Y-226490000D03*
X293540000Y-223950000D03*
X293540000Y-226490000D03*
%TD*%
D16*
%TO.C,U12*%
X286812500Y-230925000D03*
X286812500Y-231575000D03*
X286812500Y-232225000D03*
X286812500Y-232875000D03*
X286812500Y-233525000D03*
X286812500Y-234175000D03*
X286812500Y-234825000D03*
X286812500Y-235475000D03*
X286812500Y-236125000D03*
X286812500Y-236775000D03*
X281087500Y-236775000D03*
X281087500Y-236125000D03*
X281087500Y-235475000D03*
X281087500Y-234825000D03*
X281087500Y-234175000D03*
X281087500Y-233525000D03*
X281087500Y-232875000D03*
X281087500Y-232225000D03*
X281087500Y-231575000D03*
X281087500Y-230925000D03*
%TD*%
D17*
%TO.C,J20*%
X234175000Y-223375000D03*
X233345000Y-223375000D03*
X232515000Y-223375000D03*
X231685000Y-223375000D03*
X230855000Y-223375000D03*
X230025000Y-223375000D03*
X229195000Y-223375000D03*
X228365000Y-223375000D03*
X227535000Y-223375000D03*
X226705000Y-223375000D03*
%TD*%
M02*
