%TF.GenerationSoftware,KiCad,Pcbnew,(6.0.0)*%
%TF.CreationDate,2022-02-18T09:15:22+03:00*%
%TF.ProjectId,Steel_form_Dish_washer PART 2,53746565-6c5f-4666-9f72-6d5f44697368,rev?*%
%TF.SameCoordinates,Original*%
%TF.FileFunction,Legend,Top*%
%TF.FilePolarity,Positive*%
%FSLAX46Y46*%
G04 Gerber Fmt 4.6, Leading zero omitted, Abs format (unit mm)*
G04 Created by KiCad (PCBNEW (6.0.0)) date 2022-02-18 09:15:22*
%MOMM*%
%LPD*%
G01*
G04 APERTURE LIST*
%ADD10C,0.150000*%
%ADD11C,0.120000*%
G04 APERTURE END LIST*
D10*
%TO.C,H9*%
X185828571Y-223302380D02*
X185828571Y-222302380D01*
X185828571Y-222778571D02*
X186257142Y-222778571D01*
X186257142Y-223302380D02*
X186257142Y-222302380D01*
X186650000Y-223302380D02*
X186792857Y-223302380D01*
X186864285Y-223254761D01*
X186900000Y-223207142D01*
X186971428Y-223064285D01*
X187007142Y-222873809D01*
X187007142Y-222492857D01*
X186971428Y-222397619D01*
X186935714Y-222350000D01*
X186864285Y-222302380D01*
X186721428Y-222302380D01*
X186650000Y-222350000D01*
X186614285Y-222397619D01*
X186578571Y-222492857D01*
X186578571Y-222730952D01*
X186614285Y-222826190D01*
X186650000Y-222873809D01*
X186721428Y-222921428D01*
X186864285Y-222921428D01*
X186935714Y-222873809D01*
X186971428Y-222826190D01*
X187007142Y-222730952D01*
%TO.C,R39*%
X283102380Y-233432142D02*
X282626190Y-233682142D01*
X283102380Y-233860714D02*
X282102380Y-233860714D01*
X282102380Y-233575000D01*
X282150000Y-233503571D01*
X282197619Y-233467857D01*
X282292857Y-233432142D01*
X282435714Y-233432142D01*
X282530952Y-233467857D01*
X282578571Y-233503571D01*
X282626190Y-233575000D01*
X282626190Y-233860714D01*
X282102380Y-233182142D02*
X282102380Y-232717857D01*
X282483333Y-232967857D01*
X282483333Y-232860714D01*
X282530952Y-232789285D01*
X282578571Y-232753571D01*
X282673809Y-232717857D01*
X282911904Y-232717857D01*
X283007142Y-232753571D01*
X283054761Y-232789285D01*
X283102380Y-232860714D01*
X283102380Y-233075000D01*
X283054761Y-233146428D01*
X283007142Y-233182142D01*
X283102380Y-232360714D02*
X283102380Y-232217857D01*
X283054761Y-232146428D01*
X283007142Y-232110714D01*
X282864285Y-232039285D01*
X282673809Y-232003571D01*
X282292857Y-232003571D01*
X282197619Y-232039285D01*
X282150000Y-232075000D01*
X282102380Y-232146428D01*
X282102380Y-232289285D01*
X282150000Y-232360714D01*
X282197619Y-232396428D01*
X282292857Y-232432142D01*
X282530952Y-232432142D01*
X282626190Y-232396428D01*
X282673809Y-232360714D01*
X282721428Y-232289285D01*
X282721428Y-232146428D01*
X282673809Y-232075000D01*
X282626190Y-232039285D01*
X282530952Y-232003571D01*
%TO.C,C23*%
X188117857Y-225107142D02*
X188082142Y-225154761D01*
X187975000Y-225202380D01*
X187903571Y-225202380D01*
X187796428Y-225154761D01*
X187725000Y-225059523D01*
X187689285Y-224964285D01*
X187653571Y-224773809D01*
X187653571Y-224630952D01*
X187689285Y-224440476D01*
X187725000Y-224345238D01*
X187796428Y-224250000D01*
X187903571Y-224202380D01*
X187975000Y-224202380D01*
X188082142Y-224250000D01*
X188117857Y-224297619D01*
X188403571Y-224297619D02*
X188439285Y-224250000D01*
X188510714Y-224202380D01*
X188689285Y-224202380D01*
X188760714Y-224250000D01*
X188796428Y-224297619D01*
X188832142Y-224392857D01*
X188832142Y-224488095D01*
X188796428Y-224630952D01*
X188367857Y-225202380D01*
X188832142Y-225202380D01*
X189082142Y-224202380D02*
X189546428Y-224202380D01*
X189296428Y-224583333D01*
X189403571Y-224583333D01*
X189475000Y-224630952D01*
X189510714Y-224678571D01*
X189546428Y-224773809D01*
X189546428Y-225011904D01*
X189510714Y-225107142D01*
X189475000Y-225154761D01*
X189403571Y-225202380D01*
X189189285Y-225202380D01*
X189117857Y-225154761D01*
X189082142Y-225107142D01*
%TO.C,R43*%
X193402380Y-230882142D02*
X192926190Y-231132142D01*
X193402380Y-231310714D02*
X192402380Y-231310714D01*
X192402380Y-231025000D01*
X192450000Y-230953571D01*
X192497619Y-230917857D01*
X192592857Y-230882142D01*
X192735714Y-230882142D01*
X192830952Y-230917857D01*
X192878571Y-230953571D01*
X192926190Y-231025000D01*
X192926190Y-231310714D01*
X192735714Y-230239285D02*
X193402380Y-230239285D01*
X192354761Y-230417857D02*
X193069047Y-230596428D01*
X193069047Y-230132142D01*
X192402380Y-229917857D02*
X192402380Y-229453571D01*
X192783333Y-229703571D01*
X192783333Y-229596428D01*
X192830952Y-229525000D01*
X192878571Y-229489285D01*
X192973809Y-229453571D01*
X193211904Y-229453571D01*
X193307142Y-229489285D01*
X193354761Y-229525000D01*
X193402380Y-229596428D01*
X193402380Y-229810714D01*
X193354761Y-229882142D01*
X193307142Y-229917857D01*
%TO.C,R40*%
X284827380Y-233382142D02*
X284351190Y-233632142D01*
X284827380Y-233810714D02*
X283827380Y-233810714D01*
X283827380Y-233525000D01*
X283875000Y-233453571D01*
X283922619Y-233417857D01*
X284017857Y-233382142D01*
X284160714Y-233382142D01*
X284255952Y-233417857D01*
X284303571Y-233453571D01*
X284351190Y-233525000D01*
X284351190Y-233810714D01*
X284160714Y-232739285D02*
X284827380Y-232739285D01*
X283779761Y-232917857D02*
X284494047Y-233096428D01*
X284494047Y-232632142D01*
X283827380Y-232203571D02*
X283827380Y-232132142D01*
X283875000Y-232060714D01*
X283922619Y-232025000D01*
X284017857Y-231989285D01*
X284208333Y-231953571D01*
X284446428Y-231953571D01*
X284636904Y-231989285D01*
X284732142Y-232025000D01*
X284779761Y-232060714D01*
X284827380Y-232132142D01*
X284827380Y-232203571D01*
X284779761Y-232275000D01*
X284732142Y-232310714D01*
X284636904Y-232346428D01*
X284446428Y-232382142D01*
X284208333Y-232382142D01*
X284017857Y-232346428D01*
X283922619Y-232310714D01*
X283875000Y-232275000D01*
X283827380Y-232203571D01*
%TO.C,R41*%
X282667857Y-245652380D02*
X282417857Y-245176190D01*
X282239285Y-245652380D02*
X282239285Y-244652380D01*
X282525000Y-244652380D01*
X282596428Y-244700000D01*
X282632142Y-244747619D01*
X282667857Y-244842857D01*
X282667857Y-244985714D01*
X282632142Y-245080952D01*
X282596428Y-245128571D01*
X282525000Y-245176190D01*
X282239285Y-245176190D01*
X283310714Y-244985714D02*
X283310714Y-245652380D01*
X283132142Y-244604761D02*
X282953571Y-245319047D01*
X283417857Y-245319047D01*
X284096428Y-245652380D02*
X283667857Y-245652380D01*
X283882142Y-245652380D02*
X283882142Y-244652380D01*
X283810714Y-244795238D01*
X283739285Y-244890476D01*
X283667857Y-244938095D01*
%TO.C,U14*%
X284252380Y-241078571D02*
X285061904Y-241078571D01*
X285157142Y-241042857D01*
X285204761Y-241007142D01*
X285252380Y-240935714D01*
X285252380Y-240792857D01*
X285204761Y-240721428D01*
X285157142Y-240685714D01*
X285061904Y-240650000D01*
X284252380Y-240650000D01*
X285252380Y-239900000D02*
X285252380Y-240328571D01*
X285252380Y-240114285D02*
X284252380Y-240114285D01*
X284395238Y-240185714D01*
X284490476Y-240257142D01*
X284538095Y-240328571D01*
X284585714Y-239257142D02*
X285252380Y-239257142D01*
X284204761Y-239435714D02*
X284919047Y-239614285D01*
X284919047Y-239150000D01*
%TO.C,R38*%
X281452380Y-233457142D02*
X280976190Y-233707142D01*
X281452380Y-233885714D02*
X280452380Y-233885714D01*
X280452380Y-233600000D01*
X280500000Y-233528571D01*
X280547619Y-233492857D01*
X280642857Y-233457142D01*
X280785714Y-233457142D01*
X280880952Y-233492857D01*
X280928571Y-233528571D01*
X280976190Y-233600000D01*
X280976190Y-233885714D01*
X280452380Y-233207142D02*
X280452380Y-232742857D01*
X280833333Y-232992857D01*
X280833333Y-232885714D01*
X280880952Y-232814285D01*
X280928571Y-232778571D01*
X281023809Y-232742857D01*
X281261904Y-232742857D01*
X281357142Y-232778571D01*
X281404761Y-232814285D01*
X281452380Y-232885714D01*
X281452380Y-233100000D01*
X281404761Y-233171428D01*
X281357142Y-233207142D01*
X280880952Y-232314285D02*
X280833333Y-232385714D01*
X280785714Y-232421428D01*
X280690476Y-232457142D01*
X280642857Y-232457142D01*
X280547619Y-232421428D01*
X280500000Y-232385714D01*
X280452380Y-232314285D01*
X280452380Y-232171428D01*
X280500000Y-232100000D01*
X280547619Y-232064285D01*
X280642857Y-232028571D01*
X280690476Y-232028571D01*
X280785714Y-232064285D01*
X280833333Y-232100000D01*
X280880952Y-232171428D01*
X280880952Y-232314285D01*
X280928571Y-232385714D01*
X280976190Y-232421428D01*
X281071428Y-232457142D01*
X281261904Y-232457142D01*
X281357142Y-232421428D01*
X281404761Y-232385714D01*
X281452380Y-232314285D01*
X281452380Y-232171428D01*
X281404761Y-232100000D01*
X281357142Y-232064285D01*
X281261904Y-232028571D01*
X281071428Y-232028571D01*
X280976190Y-232064285D01*
X280928571Y-232100000D01*
X280880952Y-232171428D01*
%TO.C,R35*%
X93252380Y-234857142D02*
X92776190Y-235107142D01*
X93252380Y-235285714D02*
X92252380Y-235285714D01*
X92252380Y-235000000D01*
X92300000Y-234928571D01*
X92347619Y-234892857D01*
X92442857Y-234857142D01*
X92585714Y-234857142D01*
X92680952Y-234892857D01*
X92728571Y-234928571D01*
X92776190Y-235000000D01*
X92776190Y-235285714D01*
X92252380Y-234607142D02*
X92252380Y-234142857D01*
X92633333Y-234392857D01*
X92633333Y-234285714D01*
X92680952Y-234214285D01*
X92728571Y-234178571D01*
X92823809Y-234142857D01*
X93061904Y-234142857D01*
X93157142Y-234178571D01*
X93204761Y-234214285D01*
X93252380Y-234285714D01*
X93252380Y-234500000D01*
X93204761Y-234571428D01*
X93157142Y-234607142D01*
X92252380Y-233464285D02*
X92252380Y-233821428D01*
X92728571Y-233857142D01*
X92680952Y-233821428D01*
X92633333Y-233750000D01*
X92633333Y-233571428D01*
X92680952Y-233500000D01*
X92728571Y-233464285D01*
X92823809Y-233428571D01*
X93061904Y-233428571D01*
X93157142Y-233464285D01*
X93204761Y-233500000D01*
X93252380Y-233571428D01*
X93252380Y-233750000D01*
X93204761Y-233821428D01*
X93157142Y-233857142D01*
%TO.C,U13*%
X90637380Y-242103571D02*
X91446904Y-242103571D01*
X91542142Y-242067857D01*
X91589761Y-242032142D01*
X91637380Y-241960714D01*
X91637380Y-241817857D01*
X91589761Y-241746428D01*
X91542142Y-241710714D01*
X91446904Y-241675000D01*
X90637380Y-241675000D01*
X91637380Y-240925000D02*
X91637380Y-241353571D01*
X91637380Y-241139285D02*
X90637380Y-241139285D01*
X90780238Y-241210714D01*
X90875476Y-241282142D01*
X90923095Y-241353571D01*
X90637380Y-240675000D02*
X90637380Y-240210714D01*
X91018333Y-240460714D01*
X91018333Y-240353571D01*
X91065952Y-240282142D01*
X91113571Y-240246428D01*
X91208809Y-240210714D01*
X91446904Y-240210714D01*
X91542142Y-240246428D01*
X91589761Y-240282142D01*
X91637380Y-240353571D01*
X91637380Y-240567857D01*
X91589761Y-240639285D01*
X91542142Y-240675000D01*
%TO.C,H6*%
X305328571Y-223302380D02*
X305328571Y-222302380D01*
X305328571Y-222778571D02*
X305757142Y-222778571D01*
X305757142Y-223302380D02*
X305757142Y-222302380D01*
X306435714Y-222302380D02*
X306292857Y-222302380D01*
X306221428Y-222350000D01*
X306185714Y-222397619D01*
X306114285Y-222540476D01*
X306078571Y-222730952D01*
X306078571Y-223111904D01*
X306114285Y-223207142D01*
X306150000Y-223254761D01*
X306221428Y-223302380D01*
X306364285Y-223302380D01*
X306435714Y-223254761D01*
X306471428Y-223207142D01*
X306507142Y-223111904D01*
X306507142Y-222873809D01*
X306471428Y-222778571D01*
X306435714Y-222730952D01*
X306364285Y-222683333D01*
X306221428Y-222683333D01*
X306150000Y-222730952D01*
X306114285Y-222778571D01*
X306078571Y-222873809D01*
%TO.C,U15*%
X194621428Y-220652380D02*
X194621428Y-221461904D01*
X194657142Y-221557142D01*
X194692857Y-221604761D01*
X194764285Y-221652380D01*
X194907142Y-221652380D01*
X194978571Y-221604761D01*
X195014285Y-221557142D01*
X195050000Y-221461904D01*
X195050000Y-220652380D01*
X195800000Y-221652380D02*
X195371428Y-221652380D01*
X195585714Y-221652380D02*
X195585714Y-220652380D01*
X195514285Y-220795238D01*
X195442857Y-220890476D01*
X195371428Y-220938095D01*
X196478571Y-220652380D02*
X196121428Y-220652380D01*
X196085714Y-221128571D01*
X196121428Y-221080952D01*
X196192857Y-221033333D01*
X196371428Y-221033333D01*
X196442857Y-221080952D01*
X196478571Y-221128571D01*
X196514285Y-221223809D01*
X196514285Y-221461904D01*
X196478571Y-221557142D01*
X196442857Y-221604761D01*
X196371428Y-221652380D01*
X196192857Y-221652380D01*
X196121428Y-221604761D01*
X196085714Y-221557142D01*
%TO.C,R52*%
X280052380Y-234217857D02*
X279576190Y-234551190D01*
X280052380Y-234789285D02*
X279052380Y-234789285D01*
X279052380Y-234408333D01*
X279100000Y-234313095D01*
X279147619Y-234265476D01*
X279242857Y-234217857D01*
X279385714Y-234217857D01*
X279480952Y-234265476D01*
X279528571Y-234313095D01*
X279576190Y-234408333D01*
X279576190Y-234789285D01*
X279052380Y-233313095D02*
X279052380Y-233789285D01*
X279528571Y-233836904D01*
X279480952Y-233789285D01*
X279433333Y-233694047D01*
X279433333Y-233455952D01*
X279480952Y-233360714D01*
X279528571Y-233313095D01*
X279623809Y-233265476D01*
X279861904Y-233265476D01*
X279957142Y-233313095D01*
X280004761Y-233360714D01*
X280052380Y-233455952D01*
X280052380Y-233694047D01*
X280004761Y-233789285D01*
X279957142Y-233836904D01*
X279147619Y-232884523D02*
X279100000Y-232836904D01*
X279052380Y-232741666D01*
X279052380Y-232503571D01*
X279100000Y-232408333D01*
X279147619Y-232360714D01*
X279242857Y-232313095D01*
X279338095Y-232313095D01*
X279480952Y-232360714D01*
X280052380Y-232932142D01*
X280052380Y-232313095D01*
%TO.C,R42*%
X282367857Y-243302380D02*
X282117857Y-242826190D01*
X281939285Y-243302380D02*
X281939285Y-242302380D01*
X282225000Y-242302380D01*
X282296428Y-242350000D01*
X282332142Y-242397619D01*
X282367857Y-242492857D01*
X282367857Y-242635714D01*
X282332142Y-242730952D01*
X282296428Y-242778571D01*
X282225000Y-242826190D01*
X281939285Y-242826190D01*
X283010714Y-242635714D02*
X283010714Y-243302380D01*
X282832142Y-242254761D02*
X282653571Y-242969047D01*
X283117857Y-242969047D01*
X283367857Y-242397619D02*
X283403571Y-242350000D01*
X283475000Y-242302380D01*
X283653571Y-242302380D01*
X283725000Y-242350000D01*
X283760714Y-242397619D01*
X283796428Y-242492857D01*
X283796428Y-242588095D01*
X283760714Y-242730952D01*
X283332142Y-243302380D01*
X283796428Y-243302380D01*
%TO.C,C24*%
X189917857Y-221557142D02*
X189882142Y-221604761D01*
X189775000Y-221652380D01*
X189703571Y-221652380D01*
X189596428Y-221604761D01*
X189525000Y-221509523D01*
X189489285Y-221414285D01*
X189453571Y-221223809D01*
X189453571Y-221080952D01*
X189489285Y-220890476D01*
X189525000Y-220795238D01*
X189596428Y-220700000D01*
X189703571Y-220652380D01*
X189775000Y-220652380D01*
X189882142Y-220700000D01*
X189917857Y-220747619D01*
X190203571Y-220747619D02*
X190239285Y-220700000D01*
X190310714Y-220652380D01*
X190489285Y-220652380D01*
X190560714Y-220700000D01*
X190596428Y-220747619D01*
X190632142Y-220842857D01*
X190632142Y-220938095D01*
X190596428Y-221080952D01*
X190167857Y-221652380D01*
X190632142Y-221652380D01*
X191275000Y-220985714D02*
X191275000Y-221652380D01*
X191096428Y-220604761D02*
X190917857Y-221319047D01*
X191382142Y-221319047D01*
%TO.C,R37*%
X96477380Y-234832142D02*
X96001190Y-235082142D01*
X96477380Y-235260714D02*
X95477380Y-235260714D01*
X95477380Y-234975000D01*
X95525000Y-234903571D01*
X95572619Y-234867857D01*
X95667857Y-234832142D01*
X95810714Y-234832142D01*
X95905952Y-234867857D01*
X95953571Y-234903571D01*
X96001190Y-234975000D01*
X96001190Y-235260714D01*
X95477380Y-234582142D02*
X95477380Y-234117857D01*
X95858333Y-234367857D01*
X95858333Y-234260714D01*
X95905952Y-234189285D01*
X95953571Y-234153571D01*
X96048809Y-234117857D01*
X96286904Y-234117857D01*
X96382142Y-234153571D01*
X96429761Y-234189285D01*
X96477380Y-234260714D01*
X96477380Y-234475000D01*
X96429761Y-234546428D01*
X96382142Y-234582142D01*
X95477380Y-233867857D02*
X95477380Y-233367857D01*
X96477380Y-233689285D01*
%TO.C,H7*%
X305328571Y-245302380D02*
X305328571Y-244302380D01*
X305328571Y-244778571D02*
X305757142Y-244778571D01*
X305757142Y-245302380D02*
X305757142Y-244302380D01*
X306042857Y-244302380D02*
X306542857Y-244302380D01*
X306221428Y-245302380D01*
%TO.C,R36*%
X94952380Y-234857142D02*
X94476190Y-235107142D01*
X94952380Y-235285714D02*
X93952380Y-235285714D01*
X93952380Y-235000000D01*
X94000000Y-234928571D01*
X94047619Y-234892857D01*
X94142857Y-234857142D01*
X94285714Y-234857142D01*
X94380952Y-234892857D01*
X94428571Y-234928571D01*
X94476190Y-235000000D01*
X94476190Y-235285714D01*
X93952380Y-234607142D02*
X93952380Y-234142857D01*
X94333333Y-234392857D01*
X94333333Y-234285714D01*
X94380952Y-234214285D01*
X94428571Y-234178571D01*
X94523809Y-234142857D01*
X94761904Y-234142857D01*
X94857142Y-234178571D01*
X94904761Y-234214285D01*
X94952380Y-234285714D01*
X94952380Y-234500000D01*
X94904761Y-234571428D01*
X94857142Y-234607142D01*
X93952380Y-233500000D02*
X93952380Y-233642857D01*
X94000000Y-233714285D01*
X94047619Y-233750000D01*
X94190476Y-233821428D01*
X94380952Y-233857142D01*
X94761904Y-233857142D01*
X94857142Y-233821428D01*
X94904761Y-233785714D01*
X94952380Y-233714285D01*
X94952380Y-233571428D01*
X94904761Y-233500000D01*
X94857142Y-233464285D01*
X94761904Y-233428571D01*
X94523809Y-233428571D01*
X94428571Y-233464285D01*
X94380952Y-233500000D01*
X94333333Y-233571428D01*
X94333333Y-233714285D01*
X94380952Y-233785714D01*
X94428571Y-233821428D01*
X94523809Y-233857142D01*
D11*
%TO.C,R39*%
X283222500Y-235262742D02*
X283222500Y-235737258D01*
X282177500Y-235262742D02*
X282177500Y-235737258D01*
%TO.C,C23*%
X190757836Y-225010000D02*
X190542164Y-225010000D01*
X190757836Y-224290000D02*
X190542164Y-224290000D01*
%TO.C,R43*%
X193422500Y-227562742D02*
X193422500Y-228037258D01*
X192377500Y-227562742D02*
X192377500Y-228037258D01*
%TO.C,R40*%
X283752500Y-235262742D02*
X283752500Y-235737258D01*
X284797500Y-235262742D02*
X284797500Y-235737258D01*
%TO.C,R41*%
X280487258Y-244627500D02*
X280012742Y-244627500D01*
X280487258Y-245672500D02*
X280012742Y-245672500D01*
%TO.C,U14*%
X283745000Y-241335000D02*
X283745000Y-239055000D01*
X281635000Y-241335000D02*
X283745000Y-241335000D01*
X283745000Y-239055000D02*
X281635000Y-239055000D01*
X281635000Y-239055000D02*
X281635000Y-241335000D01*
%TO.C,R38*%
X280627500Y-235262742D02*
X280627500Y-235737258D01*
X281672500Y-235262742D02*
X281672500Y-235737258D01*
%TO.C,R35*%
X92352500Y-236637742D02*
X92352500Y-237112258D01*
X93397500Y-236637742D02*
X93397500Y-237112258D01*
%TO.C,U13*%
X95505000Y-241915000D02*
X95505000Y-239635000D01*
X95505000Y-239635000D02*
X93395000Y-239635000D01*
X93395000Y-241915000D02*
X95505000Y-241915000D01*
X93395000Y-239635000D02*
X93395000Y-241915000D01*
%TO.C,U15*%
X192590000Y-225460000D02*
X192140000Y-225460000D01*
X195360000Y-222240000D02*
X195360000Y-222690000D01*
X195360000Y-225460000D02*
X195360000Y-225010000D01*
X194910000Y-222240000D02*
X195360000Y-222240000D01*
X192590000Y-222240000D02*
X192140000Y-222240000D01*
X194910000Y-225460000D02*
X195360000Y-225460000D01*
X192140000Y-225460000D02*
X192140000Y-225010000D01*
%TO.C,R52*%
X279880000Y-235846359D02*
X279880000Y-236153641D01*
X279120000Y-235846359D02*
X279120000Y-236153641D01*
%TO.C,R42*%
X280587258Y-242177500D02*
X280112742Y-242177500D01*
X280587258Y-243222500D02*
X280112742Y-243222500D01*
%TO.C,C24*%
X192537836Y-220790000D02*
X192322164Y-220790000D01*
X192537836Y-221510000D02*
X192322164Y-221510000D01*
%TO.C,R37*%
X95502500Y-236662742D02*
X95502500Y-237137258D01*
X96547500Y-236662742D02*
X96547500Y-237137258D01*
%TO.C,R36*%
X94972500Y-236637742D02*
X94972500Y-237112258D01*
X93927500Y-236637742D02*
X93927500Y-237112258D01*
%TD*%
M02*
