M48
; DRILL file {KiCad (6.0.2)} date Wed Mar  2 13:17:26 2022
; FORMAT={-:-/ absolute / metric / decimal}
; #@! TF.CreationDate,2022-03-02T13:17:26+03:00
; #@! TF.GenerationSoftware,Kicad,Pcbnew,(6.0.2)
; #@! TF.FileFunction,Plated,1,4,PTH
FMAT,2
METRIC
; #@! TA.AperFunction,Plated,PTH,ViaDrill
T1C0.300
; #@! TA.AperFunction,Plated,PTH,ComponentDrill
T2C1.000
%
G90
G05
T1
X84.5Y-243.1
X89.55Y-225.15
X92.2Y-234.2
X94.0Y-243.25
X94.15Y-225.15
X94.575Y-232.525
X96.4Y-231.25
X101.9Y-243.25
X115.0Y-225.1
X122.1Y-225.15
X159.95Y-225.15
X169.55Y-225.25
X191.2Y-224.75
X191.5Y-223.95
X191.6Y-225.4
X192.45Y-221.5
X192.7Y-227.55
X193.75Y-225.45
X196.099Y-222.149
X197.1Y-222.75
X198.248Y-222.854
X224.4Y-222.951
X225.45Y-222.951
X229.25Y-223.35
X230.025Y-223.025
X235.3Y-225.7
X235.889Y-225.049
X236.694Y-224.5
X237.3Y-224.05
X237.85Y-223.6
X238.4Y-223.15
X239.1Y-224.85
X249.6Y-221.05
X257.9Y-220.95
X268.0Y-220.85
X268.1Y-222.3
X271.225Y-226.175
X271.375Y-223.175
X275.5Y-231.0
X275.875Y-227.525
X279.15Y-244.2
X279.6Y-236.75
X282.85Y-250.35
X288.45Y-250.35
X290.65Y-240.8
X290.8Y-235.6
X293.1Y-237.65
X293.575Y-234.875
X293.7Y-236.6
X294.25Y-250.4
X298.95Y-250.4
X299.85Y-221.2
X299.85Y-224.35
X299.9Y-227.4
X299.9Y-230.0
T2
X276.6Y-235.01
X276.6Y-237.55
X276.6Y-240.09
X276.6Y-242.63
X276.6Y-245.17
X276.6Y-247.71
X276.6Y-250.25
X278.3Y-223.95
X278.3Y-226.49
X280.84Y-223.95
X280.84Y-226.49
X283.38Y-223.95
X283.38Y-226.49
X285.92Y-223.95
X285.92Y-226.49
X288.46Y-223.95
X288.46Y-226.49
X291.0Y-223.95
X291.0Y-226.49
X293.54Y-223.95
X293.54Y-226.49
T0
M30
